<?xml version="1.0" encoding="UTF-8" standalone="no"?>
<!DOCTYPE svg PUBLIC "-//W3C//DTD SVG 1.1//EN"
 "http://www.w3.org/Graphics/SVG/1.1/DTD/svg11.dtd">
<!-- Generated by graphviz version 2.26.3 (20100126.1600)
 -->
<!-- Title: G Pages: 1 -->
<svg width="1744pt" height="2170pt"
 viewBox="0.00 0.00 1744.00 2170.00" xmlns="http://www.w3.org/2000/svg" xmlns:xlink="http://www.w3.org/1999/xlink">
<g id="graph1" class="graph" transform="scale(1 1) rotate(0) translate(4 2166)">
<title>G</title>
<polygon fill="white" stroke="white" points="-4,5 -4,-2166 1741,-2166 1741,5 -4,5"/>
<g id="graph2" class="cluster"><title>cluster_Global</title>
<polyline fill="none" stroke="gray" points="20,-352 1716,-352 "/>
<path fill="none" stroke="gray" d="M1716,-352C1722,-352 1728,-358 1728,-364"/>
<polyline fill="none" stroke="gray" points="1728,-364 1728,-2142 "/>
<path fill="none" stroke="gray" d="M1728,-2142C1728,-2148 1722,-2154 1716,-2154"/>
<polyline fill="none" stroke="gray" points="1716,-2154 20,-2154 "/>
<path fill="none" stroke="gray" d="M20,-2154C14,-2154 8,-2148 8,-2142"/>
<polyline fill="none" stroke="gray" points="8,-2142 8,-364 "/>
<path fill="none" stroke="gray" d="M8,-364C8,-358 14,-352 20,-352"/>
<text text-anchor="middle" x="868" y="-2140.1" font-family="Times Roman,serif" font-size="11.00" fill="gray">Global</text>
</g>
<!-- \\HttpSourceController -->
<g id="node2" class="node"><title>\\HttpSourceController</title>
<polygon fill="none" stroke="black" points="1652,-1530 1500,-1530 1500,-1494 1652,-1494 1652,-1530"/>
<text text-anchor="middle" x="1576" y="-1509.1" font-family="Courier,monospace" font-size="11.00">HttpSourceController</text>
</g>
<!-- \\AppController -->
<g id="node54" class="node"><title>\\AppController</title>
<ellipse fill="none" stroke="black" cx="1193" cy="-326" rx="82.0244" ry="18.3848"/>
<text text-anchor="middle" x="1193" y="-322.4" font-family="Times Roman,serif" font-size="14.00" fill="gray">\AppController</text>
</g>
<!-- \\HttpSourceController&#45;&gt;\\AppController -->
<g id="edge3" class="edge"><title>\\HttpSourceController&#45;&gt;\\AppController</title>
<path fill="none" stroke="black" d="M1499.9,-1515.41C1474.77,-1512.42 1448.94,-1504.14 1432,-1485 1264.24,-1295.39 1532.86,-532.98 1360,-348 1338.02,-324.478 1304.06,-317.118 1272.49,-316.369"/>
<polygon fill="none" stroke="black" points="1272.35,-312.869 1262.34,-316.347 1272.34,-319.869 1272.35,-312.869"/>
</g>
<!-- \\HttpSourceTestFixture -->
<g id="node3" class="node"><title>\\HttpSourceTestFixture</title>
<polygon fill="none" stroke="black" points="1655,-1368 1497,-1368 1497,-1332 1655,-1332 1655,-1368"/>
<text text-anchor="middle" x="1576" y="-1347.1" font-family="Courier,monospace" font-size="11.00">HttpSourceTestFixture</text>
</g>
<!-- \\CakeTestFixture -->
<g id="node56" class="node"><title>\\CakeTestFixture</title>
<ellipse fill="none" stroke="black" cx="1193" cy="-272" rx="92.1303" ry="18.3848"/>
<text text-anchor="middle" x="1193" y="-268.4" font-family="Times Roman,serif" font-size="14.00" fill="gray">\CakeTestFixture</text>
</g>
<!-- \\HttpSourceTestFixture&#45;&gt;\\CakeTestFixture -->
<g id="edge5" class="edge"><title>\\HttpSourceTestFixture&#45;&gt;\\CakeTestFixture</title>
<path fill="none" stroke="black" d="M1496.97,-1352.96C1472.81,-1349.67 1448.33,-1341.33 1432,-1323 1280.25,-1152.68 1513.88,-467.403 1360,-299 1342.08,-279.39 1315.98,-270.266 1289.71,-266.667"/>
<polygon fill="none" stroke="black" points="1289.98,-263.175 1279.65,-265.548 1289.21,-270.132 1289.98,-263.175"/>
</g>
<!-- \\HttpSourceUtility -->
<g id="node4" class="node"><title>\\HttpSourceUtility</title>
<polygon fill="none" stroke="black" points="1641,-2016 1511,-2016 1511,-1980 1641,-1980 1641,-2016"/>
<text text-anchor="middle" x="1576" y="-1995.1" font-family="Courier,monospace" font-size="11.00">HttpSourceUtility</text>
</g>
<!-- \\TestHttpSourceModel -->
<g id="node5" class="node"><title>\\TestHttpSourceModel</title>
<polygon fill="none" stroke="black" points="1648,-1692 1504,-1692 1504,-1656 1648,-1656 1648,-1692"/>
<text text-anchor="middle" x="1576" y="-1671.1" font-family="Courier,monospace" font-size="11.00">TestHttpSourceModel</text>
</g>
<!-- \\HttpSourceModel -->
<g id="node50" class="node"><title>\\HttpSourceModel</title>
<polygon fill="none" stroke="black" points="1252,-1719 1134,-1719 1134,-1683 1252,-1683 1252,-1719"/>
<text text-anchor="middle" x="1193" y="-1698.1" font-family="Courier,monospace" font-size="11.00">HttpSourceModel</text>
</g>
<!-- \\TestHttpSourceModel&#45;&gt;\\HttpSourceModel -->
<g id="edge7" class="edge"><title>\\TestHttpSourceModel&#45;&gt;\\HttpSourceModel</title>
<path fill="none" stroke="black" d="M1503.06,-1679.14C1433.8,-1684.02 1330.42,-1691.31 1262.37,-1696.11"/>
<polygon fill="none" stroke="black" points="1261.9,-1692.63 1252.18,-1696.83 1262.4,-1699.62 1261.9,-1692.63"/>
</g>
<!-- \\TestHttpSourceConnection -->
<g id="node6" class="node"><title>\\TestHttpSourceConnection</title>
<polygon fill="none" stroke="black" points="1665,-1908 1487,-1908 1487,-1872 1665,-1872 1665,-1908"/>
<text text-anchor="middle" x="1576" y="-1887.1" font-family="Courier,monospace" font-size="11.00">TestHttpSourceConnection</text>
</g>
<!-- \\HttpSourceConnection -->
<g id="node52" class="node"><title>\\HttpSourceConnection</title>
<polygon fill="none" stroke="black" points="1269,-1881 1117,-1881 1117,-1845 1269,-1845 1269,-1881"/>
<text text-anchor="middle" x="1193" y="-1860.1" font-family="Courier,monospace" font-size="11.00">HttpSourceConnection</text>
</g>
<!-- \\TestHttpSourceConnection&#45;&gt;\\HttpSourceConnection -->
<g id="edge9" class="edge"><title>\\TestHttpSourceConnection&#45;&gt;\\HttpSourceConnection</title>
<path fill="none" stroke="black" d="M1486.2,-1883.67C1423.69,-1879.26 1340.79,-1873.42 1279.1,-1869.07"/>
<polygon fill="none" stroke="black" points="1279.22,-1865.57 1269,-1868.36 1278.73,-1872.55 1279.22,-1865.57"/>
</g>
<!-- \\TestHttpSource -->
<g id="node7" class="node"><title>\\TestHttpSource</title>
<polygon fill="none" stroke="black" points="1631,-2070 1521,-2070 1521,-2034 1631,-2034 1631,-2070"/>
<text text-anchor="middle" x="1576" y="-2049.1" font-family="Courier,monospace" font-size="11.00">TestHttpSource</text>
</g>
<!-- \\HttpSource -->
<g id="node51" class="node"><title>\\HttpSource</title>
<polygon fill="none" stroke="black" points="1235,-1935 1151,-1935 1151,-1899 1235,-1899 1235,-1935"/>
<text text-anchor="start" x="1159" y="-1922.43" font-family="Courier,monospace" font-size="11.00">«abstract»</text>
<text text-anchor="start" x="1159" y="-1909.23" font-family="Courier,monospace" font-size="11.00">HttpSource</text>
</g>
<!-- \\TestHttpSource&#45;&gt;\\HttpSource -->
<g id="edge11" class="edge"><title>\\TestHttpSource&#45;&gt;\\HttpSource</title>
<path fill="none" stroke="black" d="M1520.45,-2050.03C1492.42,-2047.01 1458.79,-2040.15 1432,-2025 1390.08,-2001.29 1402.22,-1967.19 1360,-1944 1325.12,-1924.85 1280.39,-1918.4 1246,-1916.58"/>
<polygon fill="none" stroke="black" points="1245.81,-1913.07 1235.68,-1916.16 1245.53,-1920.07 1245.81,-1913.07"/>
</g>
<!-- \\HttpSourceAppTest -->
<g id="node8" class="node"><title>\\HttpSourceAppTest</title>
<polygon fill="none" stroke="black" points="1259,-1584 1127,-1584 1127,-1548 1259,-1548 1259,-1584"/>
<text text-anchor="start" x="1159" y="-1571.43" font-family="Courier,monospace" font-size="11.00">«abstract»</text>
<text text-anchor="start" x="1135.5" y="-1558.23" font-family="Courier,monospace" font-size="11.00">HttpSourceAppTest</text>
</g>
<!-- \\CakeTestCase -->
<g id="node61" class="node"><title>\\CakeTestCase</title>
<ellipse fill="none" stroke="black" cx="1193" cy="-72" rx="82.0244" ry="18.3848"/>
<text text-anchor="middle" x="1193" y="-68.4" font-family="Times Roman,serif" font-size="14.00" fill="gray">\CakeTestCase</text>
</g>
<!-- \\HttpSourceAppTest&#45;&gt;\\CakeTestCase -->
<g id="edge13" class="edge"><title>\\HttpSourceAppTest&#45;&gt;\\CakeTestCase</title>
<path fill="none" stroke="black" d="M1259.38,-1576.77C1305.79,-1580.08 1364.84,-1574.9 1396,-1535 1420.39,-1503.76 1420.39,-139.244 1396,-108 1368,-72.1424 1317.77,-63.0163 1274.28,-62.917"/>
<polygon fill="none" stroke="black" points="1274.2,-59.4176 1264.25,-63.0498 1274.3,-66.417 1274.2,-59.4176"/>
</g>
<!-- \\HttpSourceUsersDocumentFixture -->
<g id="node9" class="node"><title>\\HttpSourceUsersDocumentFixture</title>
<polygon fill="none" stroke="black" points="1685,-1476 1467,-1476 1467,-1440 1685,-1440 1685,-1476"/>
<text text-anchor="middle" x="1576" y="-1455.1" font-family="Courier,monospace" font-size="11.00">HttpSourceUsersDocumentFixture</text>
</g>
<!-- \\HttpSourceUsersDocumentFixture&#45;&gt;\\CakeTestFixture -->
<g id="edge15" class="edge"><title>\\HttpSourceUsersDocumentFixture&#45;&gt;\\CakeTestFixture</title>
<path fill="none" stroke="black" d="M1466.23,-1453.58C1453.21,-1448.7 1441.27,-1441.48 1432,-1431 1264.94,-1242.24 1529.41,-485.648 1360,-299 1342.06,-279.234 1315.81,-270.1 1289.41,-266.54"/>
<polygon fill="none" stroke="black" points="1289.62,-263.042 1279.3,-265.438 1288.86,-270.001 1289.62,-263.042"/>
</g>
<!-- \\HttpSourceUserFixture -->
<g id="node10" class="node"><title>\\HttpSourceUserFixture</title>
<polygon fill="none" stroke="black" points="1655,-1422 1497,-1422 1497,-1386 1655,-1386 1655,-1422"/>
<text text-anchor="middle" x="1576" y="-1401.1" font-family="Courier,monospace" font-size="11.00">HttpSourceUserFixture</text>
</g>
<!-- \\HttpSourceUserFixture&#45;&gt;\\CakeTestFixture -->
<g id="edge17" class="edge"><title>\\HttpSourceUserFixture&#45;&gt;\\CakeTestFixture</title>
<path fill="none" stroke="black" d="M1496.94,-1406.99C1472.77,-1403.71 1448.3,-1395.35 1432,-1377 1272.6,-1197.46 1521.64,-476.525 1360,-299 1342.03,-279.262 1315.77,-270.137 1289.37,-266.575"/>
<polygon fill="none" stroke="black" points="1289.58,-263.078 1279.26,-265.472 1288.82,-270.037 1289.58,-263.078"/>
</g>
<!-- \\HttpSourceDocument -->
<g id="node11" class="node"><title>\\HttpSourceDocument</title>
<polygon fill="none" stroke="black" points="1645,-1800 1507,-1800 1507,-1764 1645,-1764 1645,-1800"/>
<text text-anchor="middle" x="1576" y="-1779.1" font-family="Courier,monospace" font-size="11.00">HttpSourceDocument</text>
</g>
<!-- \\HttpSourceDocument&#45;&gt;\\HttpSourceModel -->
<g id="edge19" class="edge"><title>\\HttpSourceDocument&#45;&gt;\\HttpSourceModel</title>
<path fill="none" stroke="black" d="M1506.68,-1769.54C1482.96,-1765.13 1456.29,-1760.02 1432,-1755 1374.63,-1743.15 1309.83,-1728.42 1262.19,-1717.34"/>
<polygon fill="none" stroke="black" points="1262.82,-1713.9 1252.29,-1715.04 1261.24,-1720.71 1262.82,-1713.9"/>
</g>
<!-- \\HttpSourceUser -->
<g id="node12" class="node"><title>\\HttpSourceUser</title>
<polygon fill="none" stroke="black" points="1631,-1314 1521,-1314 1521,-1278 1631,-1278 1631,-1314"/>
<text text-anchor="middle" x="1576" y="-1293.1" font-family="Courier,monospace" font-size="11.00">HttpSourceUser</text>
</g>
<!-- \\AppModel -->
<g id="node66" class="node"><title>\\AppModel</title>
<ellipse fill="none" stroke="black" cx="814" cy="-218" rx="62.2254" ry="18.3848"/>
<text text-anchor="middle" x="814" y="-214.4" font-family="Times Roman,serif" font-size="14.00" fill="gray">\AppModel</text>
</g>
<!-- \\HttpSourceUser&#45;&gt;\\AppModel -->
<g id="edge21" class="edge"><title>\\HttpSourceUser&#45;&gt;\\AppModel</title>
<path fill="none" stroke="black" d="M1520.24,-1300.73C1489.66,-1300.06 1453.66,-1293.31 1432,-1269 1280.25,-1098.68 1522.97,-404.618 1360,-245 1326.91,-212.586 1026.71,-213.909 886.081,-216.363"/>
<polygon fill="none" stroke="black" points="885.764,-212.868 875.829,-216.549 885.891,-219.867 885.764,-212.868"/>
</g>
<!-- \\AllHttpSourceTest -->
<g id="node13" class="node"><title>\\AllHttpSourceTest</title>
<polygon fill="none" stroke="black" points="1641,-1260 1511,-1260 1511,-1224 1641,-1224 1641,-1260"/>
<text text-anchor="middle" x="1576" y="-1239.1" font-family="Courier,monospace" font-size="11.00">AllHttpSourceTest</text>
</g>
<!-- \\PHPUnit_Framework_TestSuite -->
<g id="node68" class="node"><title>\\PHPUnit_Framework_TestSuite</title>
<ellipse fill="none" stroke="black" cx="1193" cy="-180" rx="166.877" ry="18.3848"/>
<text text-anchor="middle" x="1193" y="-176.4" font-family="Times Roman,serif" font-size="14.00" fill="gray">\PHPUnit_Framework_TestSuite</text>
</g>
<!-- \\AllHttpSourceTest&#45;&gt;\\PHPUnit_Framework_TestSuite -->
<g id="edge23" class="edge"><title>\\AllHttpSourceTest&#45;&gt;\\PHPUnit_Framework_TestSuite</title>
<path fill="none" stroke="black" d="M1510.42,-1246.29C1482.24,-1244.42 1451.39,-1236.73 1432,-1215 1283.22,-1048.27 1508.45,-379.029 1360,-212 1354.08,-205.339 1347.23,-199.804 1339.76,-195.222"/>
<polygon fill="none" stroke="black" points="1341.17,-192.005 1330.72,-190.271 1337.81,-198.144 1341.17,-192.005"/>
</g>
<!-- \\HttpSourceControllerTest -->
<g id="node14" class="node"><title>\\HttpSourceControllerTest</title>
<polygon fill="none" stroke="black" points="1665,-1206 1487,-1206 1487,-1170 1665,-1170 1665,-1206"/>
<text text-anchor="middle" x="1576" y="-1185.1" font-family="Courier,monospace" font-size="11.00">HttpSourceControllerTest</text>
</g>
<!-- \\ControllerTestCase -->
<g id="node70" class="node"><title>\\ControllerTestCase</title>
<ellipse fill="none" stroke="black" cx="1193" cy="-126" rx="106.773" ry="18.3848"/>
<text text-anchor="middle" x="1193" y="-122.4" font-family="Times Roman,serif" font-size="14.00" fill="gray">\ControllerTestCase</text>
</g>
<!-- \\HttpSourceControllerTest&#45;&gt;\\ControllerTestCase -->
<g id="edge25" class="edge"><title>\\HttpSourceControllerTest&#45;&gt;\\ControllerTestCase</title>
<path fill="none" stroke="black" d="M1486.47,-1189.18C1465.89,-1185.03 1445.97,-1176.66 1432,-1161 1282.51,-993.413 1511.58,-318.701 1360,-153 1346.12,-137.822 1327.33,-128.928 1307.36,-124.016"/>
<polygon fill="none" stroke="black" points="1307.99,-120.572 1297.48,-121.914 1306.53,-127.418 1307.99,-120.572"/>
</g>
<!-- \\HttpSourceUtilityTest -->
<g id="node15" class="node"><title>\\HttpSourceUtilityTest</title>
<polygon fill="none" stroke="black" points="1655,-936 1497,-936 1497,-900 1655,-900 1655,-936"/>
<text text-anchor="middle" x="1576" y="-915.1" font-family="Courier,monospace" font-size="11.00">HttpSourceUtilityTest</text>
</g>
<!-- \\HttpSourceUtilityTest&#45;&gt;\\CakeTestCase -->
<g id="edge27" class="edge"><title>\\HttpSourceUtilityTest&#45;&gt;\\CakeTestCase</title>
<path fill="none" stroke="black" d="M1496.82,-920.712C1472.79,-917.377 1448.43,-909.064 1432,-891 1313.09,-760.262 1480.54,-228.238 1360,-99 1339.57,-77.0978 1308.92,-68.3606 1279.43,-65.7753"/>
<polygon fill="none" stroke="black" points="1279.27,-62.2578 1269.07,-65.1059 1278.82,-69.2433 1279.27,-62.2578"/>
</g>
<!-- \\HttpSourceFieldTest -->
<g id="node16" class="node"><title>\\HttpSourceFieldTest</title>
<polygon fill="none" stroke="black" points="1648,-882 1504,-882 1504,-846 1648,-846 1648,-882"/>
<text text-anchor="middle" x="1576" y="-861.1" font-family="Courier,monospace" font-size="11.00">HttpSourceFieldTest</text>
</g>
<!-- \\HttpSourceFieldTest&#45;&gt;\\CakeTestCase -->
<g id="edge29" class="edge"><title>\\HttpSourceFieldTest&#45;&gt;\\CakeTestCase</title>
<path fill="none" stroke="black" d="M1503.25,-867.422C1477.24,-864.703 1449.95,-856.604 1432,-837 1320.73,-715.466 1472.79,-219.13 1360,-99 1339.5,-77.1653 1308.83,-68.4417 1279.35,-65.8485"/>
<polygon fill="none" stroke="black" points="1279.2,-62.3313 1268.99,-65.1755 1278.74,-69.3165 1279.2,-62.3313"/>
</g>
<!-- \\HttpSourceResultTest -->
<g id="node17" class="node"><title>\\HttpSourceResultTest</title>
<polygon fill="none" stroke="black" points="1652,-828 1500,-828 1500,-792 1652,-792 1652,-828"/>
<text text-anchor="middle" x="1576" y="-807.1" font-family="Courier,monospace" font-size="11.00">HttpSourceResultTest</text>
</g>
<!-- \\HttpSourceResultTest&#45;&gt;\\CakeTestCase -->
<g id="edge31" class="edge"><title>\\HttpSourceResultTest&#45;&gt;\\CakeTestCase</title>
<path fill="none" stroke="black" d="M1499.97,-812.967C1474.99,-809.904 1449.25,-801.695 1432,-783 1224.72,-558.332 1570.08,-321.053 1360,-99 1339.51,-77.339 1309,-68.6126 1279.65,-65.9682"/>
<polygon fill="none" stroke="black" points="1279.54,-62.4534 1269.33,-65.2752 1279.08,-69.4377 1279.54,-62.4534"/>
</g>
<!-- \\HttpSourceEndpointTest -->
<g id="node18" class="node"><title>\\HttpSourceEndpointTest</title>
<polygon fill="none" stroke="black" points="1658,-774 1494,-774 1494,-738 1658,-738 1658,-774"/>
<text text-anchor="middle" x="1576" y="-753.1" font-family="Courier,monospace" font-size="11.00">HttpSourceEndpointTest</text>
</g>
<!-- \\HttpSourceEndpointTest&#45;&gt;\\CakeTestCase -->
<g id="edge33" class="edge"><title>\\HttpSourceEndpointTest&#45;&gt;\\CakeTestCase</title>
<path fill="none" stroke="black" d="M1493.31,-757.924C1470.53,-754.251 1447.77,-745.942 1432,-729 1239.98,-522.721 1554.59,-302.857 1360,-99 1339.5,-77.5256 1309.15,-68.8001 1279.93,-66.1036"/>
<polygon fill="none" stroke="black" points="1279.88,-62.5916 1269.66,-65.3903 1279.39,-69.5748 1279.88,-62.5916"/>
</g>
<!-- \\HttpSourceConfigFactoryItemTest -->
<g id="node19" class="node"><title>\\HttpSourceConfigFactoryItemTest</title>
<polygon fill="none" stroke="black" points="1689,-720 1463,-720 1463,-684 1689,-684 1689,-720"/>
<text text-anchor="middle" x="1576" y="-699.1" font-family="Courier,monospace" font-size="11.00">HttpSourceConfigFactoryItemTest</text>
</g>
<!-- \\HttpSourceConfigFactoryItemTest&#45;&gt;\\CakeTestCase -->
<g id="edge35" class="edge"><title>\\HttpSourceConfigFactoryItemTest&#45;&gt;\\CakeTestCase</title>
<path fill="none" stroke="black" d="M1462.91,-695.538C1451.3,-690.804 1440.63,-684.17 1432,-675 1255.22,-487.094 1539.12,-284.676 1360,-99 1339.39,-77.6341 1309.02,-68.9314 1279.81,-66.2229"/>
<polygon fill="none" stroke="black" points="1279.76,-62.7112 1269.54,-65.5039 1279.27,-69.6941 1279.76,-62.7112"/>
</g>
<!-- \\HttpSourceConfigFactoryItemiAmExistsANDValid -->
<g id="node20" class="node"><title>\\HttpSourceConfigFactoryItemiAmExistsANDValid</title>
<polygon fill="none" stroke="black" points="602,-2124 288,-2124 288,-2088 602,-2088 602,-2124"/>
<text text-anchor="middle" x="445" y="-2103.1" font-family="Courier,monospace" font-size="11.00">HttpSourceConfigFactoryItemiAmExistsANDValid</text>
</g>
<!-- \\HttpSourceConfigFactoryItem -->
<g id="node43" class="node"><title>\\HttpSourceConfigFactoryItem</title>
<polygon fill="none" stroke="black" points="216,-2043 16,-2043 16,-2007 216,-2007 216,-2043"/>
<text text-anchor="start" x="82" y="-2030.43" font-family="Courier,monospace" font-size="11.00">«abstract»</text>
<text text-anchor="start" x="24.5" y="-2017.23" font-family="Courier,monospace" font-size="11.00">HttpSourceConfigFactoryItem</text>
</g>
<!-- \\HttpSourceConfigFactoryItemiAmExistsANDValid&#45;&gt;\\HttpSourceConfigFactoryItem -->
<g id="edge37" class="edge"><title>\\HttpSourceConfigFactoryItemiAmExistsANDValid&#45;&gt;\\HttpSourceConfigFactoryItem</title>
<path fill="none" stroke="black" d="M329.315,-2087.92C315.337,-2085.2 301.307,-2082.22 288,-2079 250.643,-2069.97 209.55,-2057.17 176.899,-2046.31"/>
<polygon fill="none" stroke="black" points="177.645,-2042.87 167.051,-2043 175.418,-2049.5 177.645,-2042.87"/>
</g>
<!-- \\HttpSourceConfigTest -->
<g id="node21" class="node"><title>\\HttpSourceConfigTest</title>
<polygon fill="none" stroke="black" points="1652,-666 1500,-666 1500,-630 1652,-630 1652,-666"/>
<text text-anchor="middle" x="1576" y="-645.1" font-family="Courier,monospace" font-size="11.00">HttpSourceConfigTest</text>
</g>
<!-- \\HttpSourceConfigTest&#45;&gt;\\CakeTestCase -->
<g id="edge39" class="edge"><title>\\HttpSourceConfigTest&#45;&gt;\\CakeTestCase</title>
<path fill="none" stroke="black" d="M1499.92,-650.608C1475.1,-647.481 1449.46,-639.323 1432,-621 1270.44,-451.449 1523.67,-266.514 1360,-99 1339.34,-77.8595 1309.12,-69.1675 1280.05,-66.4038"/>
<polygon fill="none" stroke="black" points="1280.05,-62.8952 1269.83,-65.6628 1279.55,-69.8769 1280.05,-62.8952"/>
</g>
<!-- \\HttpSourceConditionTest -->
<g id="node22" class="node"><title>\\HttpSourceConditionTest</title>
<polygon fill="none" stroke="black" points="1662,-612 1490,-612 1490,-576 1662,-576 1662,-612"/>
<text text-anchor="middle" x="1576" y="-591.1" font-family="Courier,monospace" font-size="11.00">HttpSourceConditionTest</text>
</g>
<!-- \\HttpSourceConditionTest&#45;&gt;\\CakeTestCase -->
<g id="edge41" class="edge"><title>\\HttpSourceConditionTest&#45;&gt;\\CakeTestCase</title>
<path fill="none" stroke="black" d="M1489.96,-594.889C1468.46,-590.923 1447.21,-582.719 1432,-567 1285.64,-415.778 1508.24,-248.376 1360,-99 1339.27,-78.1143 1309.19,-69.4408 1280.25,-66.6198"/>
<polygon fill="none" stroke="black" points="1280.32,-63.1147 1270.08,-65.8555 1279.79,-70.095 1280.32,-63.1147"/>
</g>
<!-- \\HttpSourceEndpointItemTest -->
<g id="node23" class="node"><title>\\HttpSourceEndpointItemTest</title>
<polygon fill="none" stroke="black" points="1672,-558 1480,-558 1480,-522 1672,-522 1672,-558"/>
<text text-anchor="middle" x="1576" y="-537.1" font-family="Courier,monospace" font-size="11.00">HttpSourceEndpointItemTest</text>
</g>
<!-- \\HttpSourceEndpointItemTest&#45;&gt;\\CakeTestCase -->
<g id="edge43" class="edge"><title>\\HttpSourceEndpointItemTest&#45;&gt;\\CakeTestCase</title>
<path fill="none" stroke="black" d="M1479.7,-538.407C1461.88,-533.873 1444.86,-526.035 1432,-513 1300.81,-380.074 1492.84,-230.272 1360,-99 1339.26,-78.5025 1309.48,-69.8436 1280.8,-66.9234"/>
<polygon fill="none" stroke="black" points="1280.97,-63.4255 1270.72,-66.1199 1280.41,-70.4034 1280.97,-63.4255"/>
</g>
<!-- \\HttpSourceEndpointItemiAmExistsANDValid -->
<g id="node24" class="node"><title>\\HttpSourceEndpointItemiAmExistsANDValid</title>
<polygon fill="none" stroke="black" points="954,-1908 674,-1908 674,-1872 954,-1872 954,-1908"/>
<text text-anchor="middle" x="814" y="-1887.1" font-family="Courier,monospace" font-size="11.00">HttpSourceEndpointItemiAmExistsANDValid</text>
</g>
<!-- \\HttpSourceEndpointItem -->
<g id="node45" class="node"><title>\\HttpSourceEndpointItem</title>
<polygon fill="none" stroke="black" points="528,-1962 362,-1962 362,-1926 528,-1926 528,-1962"/>
<text text-anchor="start" x="411" y="-1949.43" font-family="Courier,monospace" font-size="11.00">«abstract»</text>
<text text-anchor="start" x="370.5" y="-1936.23" font-family="Courier,monospace" font-size="11.00">HttpSourceEndpointItem</text>
</g>
<!-- \\HttpSourceEndpointItemiAmExistsANDValid&#45;&gt;\\HttpSourceEndpointItem -->
<g id="edge45" class="edge"><title>\\HttpSourceEndpointItemiAmExistsANDValid&#45;&gt;\\HttpSourceEndpointItem</title>
<path fill="none" stroke="black" d="M690.872,-1908.02C641.081,-1915.31 584.561,-1923.58 538.276,-1930.35"/>
<polygon fill="none" stroke="black" points="537.647,-1926.9 528.26,-1931.82 538.661,-1933.83 537.647,-1926.9"/>
</g>
<!-- \\HttpSourceConfigFactoryTest -->
<g id="node25" class="node"><title>\\HttpSourceConfigFactoryTest</title>
<polygon fill="none" stroke="black" points="1675,-504 1477,-504 1477,-468 1675,-468 1675,-504"/>
<text text-anchor="middle" x="1576" y="-483.1" font-family="Courier,monospace" font-size="11.00">HttpSourceConfigFactoryTest</text>
</g>
<!-- \\HttpSourceConfigFactoryTest&#45;&gt;\\CakeTestCase -->
<g id="edge47" class="edge"><title>\\HttpSourceConfigFactoryTest&#45;&gt;\\CakeTestCase</title>
<path fill="none" stroke="black" d="M1476.25,-483.166C1459.76,-478.535 1444.12,-470.978 1432,-459 1315.93,-344.319 1477.5,-212.217 1360,-99 1339.19,-78.9478 1309.7,-70.3215 1281.29,-67.3001"/>
<polygon fill="none" stroke="black" points="1281.56,-63.8104 1271.3,-66.4556 1280.97,-70.7856 1281.56,-63.8104"/>
</g>
<!-- \\HttpSourceConfigFactoryiAmExists -->
<g id="node26" class="node"><title>\\HttpSourceConfigFactoryiAmExists</title>
<polygon fill="none" stroke="black" points="1692,-990 1460,-990 1460,-954 1692,-954 1692,-990"/>
<text text-anchor="middle" x="1576" y="-969.1" font-family="Courier,monospace" font-size="11.00">HttpSourceConfigFactoryiAmExists</text>
</g>
<!-- \\HttpSourceConfigFactoryiAmExistsANDValid -->
<g id="node27" class="node"><title>\\HttpSourceConfigFactoryiAmExistsANDValid</title>
<polygon fill="none" stroke="black" points="1719,-1854 1433,-1854 1433,-1818 1719,-1818 1719,-1854"/>
<text text-anchor="middle" x="1576" y="-1833.1" font-family="Courier,monospace" font-size="11.00">HttpSourceConfigFactoryiAmExistsANDValid</text>
</g>
<!-- \\HttpSourceConfigFactory -->
<g id="node47" class="node"><title>\\HttpSourceConfigFactory</title>
<polygon fill="none" stroke="black" points="1279,-1827 1107,-1827 1107,-1791 1279,-1791 1279,-1827"/>
<text text-anchor="middle" x="1193" y="-1806.1" font-family="Courier,monospace" font-size="11.00">HttpSourceConfigFactory</text>
</g>
<!-- \\HttpSourceConfigFactoryiAmExistsANDValid&#45;&gt;\\HttpSourceConfigFactory -->
<g id="edge49" class="edge"><title>\\HttpSourceConfigFactoryiAmExistsANDValid&#45;&gt;\\HttpSourceConfigFactory</title>
<path fill="none" stroke="black" d="M1432.3,-1825.87C1384.54,-1822.5 1332.56,-1818.84 1289.28,-1815.79"/>
<polygon fill="none" stroke="black" points="1289.26,-1812.28 1279.04,-1815.07 1288.77,-1819.26 1289.26,-1812.28"/>
</g>
<!-- \\HttpSourceConfigiAmExistsANDValid -->
<g id="node28" class="node"><title>\\HttpSourceConfigiAmExistsANDValid</title>
<polygon fill="none" stroke="black" points="933,-2124 695,-2124 695,-2088 933,-2088 933,-2124"/>
<text text-anchor="middle" x="814" y="-2103.1" font-family="Courier,monospace" font-size="11.00">HttpSourceConfigiAmExistsANDValid</text>
</g>
<!-- \\HttpSourceConfig -->
<g id="node48" class="node"><title>\\HttpSourceConfig</title>
<polygon fill="none" stroke="black" points="507,-2070 383,-2070 383,-2034 507,-2034 507,-2070"/>
<text text-anchor="middle" x="445" y="-2049.1" font-family="Courier,monospace" font-size="11.00">HttpSourceConfig</text>
</g>
<!-- \\HttpSourceConfigiAmExistsANDValid&#45;&gt;\\HttpSourceConfig -->
<g id="edge51" class="edge"><title>\\HttpSourceConfigiAmExistsANDValid&#45;&gt;\\HttpSourceConfig</title>
<path fill="none" stroke="black" d="M694.451,-2088.51C636.257,-2079.99 568.18,-2070.03 517.859,-2062.66"/>
<polygon fill="none" stroke="black" points="518.122,-2059.16 507.721,-2061.18 517.109,-2066.09 518.122,-2059.16"/>
</g>
<!-- \\HttpSourceEndpointiAmExistsANDValid -->
<g id="node29" class="node"><title>\\HttpSourceEndpointiAmExistsANDValid</title>
<polygon fill="none" stroke="black" points="940,-2070 688,-2070 688,-2034 940,-2034 940,-2070"/>
<text text-anchor="middle" x="814" y="-2049.1" font-family="Courier,monospace" font-size="11.00">HttpSourceEndpointiAmExistsANDValid</text>
</g>
<!-- \\HttpSourceEndpoint -->
<g id="node49" class="node"><title>\\HttpSourceEndpoint</title>
<polygon fill="none" stroke="black" points="514,-2016 376,-2016 376,-1980 514,-1980 514,-2016"/>
<text text-anchor="middle" x="445" y="-1995.1" font-family="Courier,monospace" font-size="11.00">HttpSourceEndpoint</text>
</g>
<!-- \\HttpSourceEndpointiAmExistsANDValid&#45;&gt;\\HttpSourceEndpoint -->
<g id="edge53" class="edge"><title>\\HttpSourceEndpointiAmExistsANDValid&#45;&gt;\\HttpSourceEndpoint</title>
<path fill="none" stroke="black" d="M690.872,-2033.98C635.89,-2025.94 572.701,-2016.69 524.151,-2009.58"/>
<polygon fill="none" stroke="black" points="524.422,-2006.09 514.021,-2008.1 523.409,-2013.01 524.422,-2006.09"/>
</g>
<!-- \\HttpSourceConditioniAmExistsANDValid -->
<g id="node30" class="node"><title>\\HttpSourceConditioniAmExistsANDValid</title>
<polygon fill="none" stroke="black" points="1706,-2124 1446,-2124 1446,-2088 1706,-2088 1706,-2124"/>
<text text-anchor="middle" x="1576" y="-2103.1" font-family="Courier,monospace" font-size="11.00">HttpSourceConditioniAmExistsANDValid</text>
</g>
<!-- \\HttpSourceCondition -->
<g id="node44" class="node"><title>\\HttpSourceCondition</title>
<polygon fill="none" stroke="black" points="1265,-1989 1121,-1989 1121,-1953 1265,-1953 1265,-1989"/>
<text text-anchor="middle" x="1193" y="-1968.1" font-family="Courier,monospace" font-size="11.00">HttpSourceCondition</text>
</g>
<!-- \\HttpSourceConditioniAmExistsANDValid&#45;&gt;\\HttpSourceCondition -->
<g id="edge55" class="edge"><title>\\HttpSourceConditioniAmExistsANDValid&#45;&gt;\\HttpSourceCondition</title>
<path fill="none" stroke="black" d="M1450.82,-2087.95C1444.3,-2085.35 1437.98,-2082.38 1432,-2079 1390.08,-2055.29 1402.22,-2021.19 1360,-1998 1334.55,-1984.02 1303.85,-1976.82 1275.76,-1973.23"/>
<polygon fill="none" stroke="black" points="1275.87,-1969.72 1265.54,-1972.07 1275.08,-1976.68 1275.87,-1969.72"/>
</g>
<!-- \\HttpSourceFieldiAmExistsANDValid -->
<g id="node31" class="node"><title>\\HttpSourceFieldiAmExistsANDValid</title>
<polygon fill="none" stroke="black" points="1309,-2043 1077,-2043 1077,-2007 1309,-2007 1309,-2043"/>
<text text-anchor="middle" x="1193" y="-2022.1" font-family="Courier,monospace" font-size="11.00">HttpSourceFieldiAmExistsANDValid</text>
</g>
<!-- \\HttpSourceField -->
<g id="node42" class="node"><title>\\HttpSourceField</title>
<polygon fill="none" stroke="black" points="873,-1962 755,-1962 755,-1926 873,-1926 873,-1962"/>
<text text-anchor="middle" x="814" y="-1941.1" font-family="Courier,monospace" font-size="11.00">HttpSourceField</text>
</g>
<!-- \\HttpSourceFieldiAmExistsANDValid&#45;&gt;\\HttpSourceField -->
<g id="edge57" class="edge"><title>\\HttpSourceFieldiAmExistsANDValid&#45;&gt;\\HttpSourceField</title>
<path fill="none" stroke="black" d="M1076.48,-2009.21C1059.43,-2006.02 1042.18,-2002.3 1026,-1998 992.969,-1989.23 986.895,-1980.27 954,-1971 931.17,-1964.57 905.817,-1959.17 883.027,-1954.93"/>
<polygon fill="none" stroke="black" points="883.56,-1951.47 873.095,-1953.12 882.308,-1958.36 883.56,-1951.47"/>
</g>
<!-- \\HttpSourceResultiAmExistsANDValid -->
<g id="node32" class="node"><title>\\HttpSourceResultiAmExistsANDValid</title>
<polygon fill="none" stroke="black" points="1312,-2097 1074,-2097 1074,-2061 1312,-2061 1312,-2097"/>
<text text-anchor="middle" x="1193" y="-2076.1" font-family="Courier,monospace" font-size="11.00">HttpSourceResultiAmExistsANDValid</text>
</g>
<!-- \\HttpSourceResult -->
<g id="node46" class="node"><title>\\HttpSourceResult</title>
<polygon fill="none" stroke="black" points="876,-2016 752,-2016 752,-1980 876,-1980 876,-2016"/>
<text text-anchor="middle" x="814" y="-1995.1" font-family="Courier,monospace" font-size="11.00">HttpSourceResult</text>
</g>
<!-- \\HttpSourceResultiAmExistsANDValid&#45;&gt;\\HttpSourceResult -->
<g id="edge59" class="edge"><title>\\HttpSourceResultiAmExistsANDValid&#45;&gt;\\HttpSourceResult</title>
<path fill="none" stroke="black" d="M1073.34,-2062.61C1057.32,-2059.56 1041.19,-2056.03 1026,-2052 992.969,-2043.23 986.895,-2034.27 954,-2025 932.306,-2018.89 908.332,-2013.71 886.446,-2009.57"/>
<polygon fill="none" stroke="black" points="887.022,-2006.12 876.553,-2007.74 885.751,-2013 887.022,-2006.12"/>
</g>
<!-- \\HttpSourceModelTest -->
<g id="node33" class="node"><title>\\HttpSourceModelTest</title>
<polygon fill="none" stroke="black" points="1648,-1152 1504,-1152 1504,-1116 1648,-1116 1648,-1152"/>
<text text-anchor="middle" x="1576" y="-1131.1" font-family="Courier,monospace" font-size="11.00">HttpSourceModelTest</text>
</g>
<!-- \\HttpSourceModelTest&#45;&gt;\\CakeTestCase -->
<g id="edge61" class="edge"><title>\\HttpSourceModelTest&#45;&gt;\\CakeTestCase</title>
<path fill="none" stroke="black" d="M1503.36,-1137.7C1477.2,-1135.05 1449.78,-1126.93 1432,-1107 1282.51,-939.413 1511.58,-264.701 1360,-99 1339.52,-76.61 1308.37,-67.8949 1278.49,-65.4637"/>
<polygon fill="none" stroke="black" points="1278.62,-61.965 1268.43,-64.8694 1278.21,-68.9529 1278.62,-61.965"/>
</g>
<!-- \\HttpSourceTestModel -->
<g id="node34" class="node"><title>\\HttpSourceTestModel</title>
<polygon fill="none" stroke="black" points="1648,-1746 1504,-1746 1504,-1710 1648,-1710 1648,-1746"/>
<text text-anchor="middle" x="1576" y="-1725.1" font-family="Courier,monospace" font-size="11.00">HttpSourceTestModel</text>
</g>
<!-- \\HttpSourceTestModel&#45;&gt;\\HttpSourceModel -->
<g id="edge63" class="edge"><title>\\HttpSourceTestModel&#45;&gt;\\HttpSourceModel</title>
<path fill="none" stroke="black" d="M1503.06,-1722.86C1433.8,-1717.98 1330.42,-1710.69 1262.37,-1705.89"/>
<polygon fill="none" stroke="black" points="1262.4,-1702.38 1252.18,-1705.17 1261.9,-1709.37 1262.4,-1702.38"/>
</g>
<!-- \\HttpSourceBasicsTest -->
<g id="node35" class="node"><title>\\HttpSourceBasicsTest</title>
<polygon fill="none" stroke="black" points="1652,-1584 1500,-1584 1500,-1548 1652,-1548 1652,-1584"/>
<text text-anchor="middle" x="1576" y="-1563.1" font-family="Courier,monospace" font-size="11.00">HttpSourceBasicsTest</text>
</g>
<!-- \\HttpSourceBasicsTest&#45;&gt;\\HttpSourceAppTest -->
<g id="edge65" class="edge"><title>\\HttpSourceBasicsTest&#45;&gt;\\HttpSourceAppTest</title>
<path fill="none" stroke="black" d="M1499.87,-1566C1432.95,-1566 1336.07,-1566 1269.14,-1566"/>
<polygon fill="none" stroke="black" points="1269.08,-1562.5 1259.08,-1566 1269.08,-1569.5 1269.08,-1562.5"/>
</g>
<!-- \\HttpSourceToDboAssociationTest -->
<g id="node36" class="node"><title>\\HttpSourceToDboAssociationTest</title>
<polygon fill="none" stroke="black" points="1685,-1638 1467,-1638 1467,-1602 1685,-1602 1685,-1638"/>
<text text-anchor="middle" x="1576" y="-1617.1" font-family="Courier,monospace" font-size="11.00">HttpSourceToDboAssociationTest</text>
</g>
<!-- \\HttpSourceToDboAssociationTest&#45;&gt;\\HttpSourceAppTest -->
<g id="edge67" class="edge"><title>\\HttpSourceToDboAssociationTest&#45;&gt;\\HttpSourceAppTest</title>
<path fill="none" stroke="black" d="M1466.25,-1604.53C1403.17,-1595.63 1325.52,-1584.68 1269.14,-1576.74"/>
<polygon fill="none" stroke="black" points="1269.61,-1573.27 1259.22,-1575.34 1268.64,-1580.2 1269.61,-1573.27"/>
</g>
<!-- \\HttpSourceConnectionTest -->
<g id="node37" class="node"><title>\\HttpSourceConnectionTest</title>
<polygon fill="none" stroke="black" points="1665,-1098 1487,-1098 1487,-1062 1665,-1062 1665,-1098"/>
<text text-anchor="middle" x="1576" y="-1077.1" font-family="Courier,monospace" font-size="11.00">HttpSourceConnectionTest</text>
</g>
<!-- \\HttpSourceConnectionTest&#45;&gt;\\CakeTestCase -->
<g id="edge69" class="edge"><title>\\HttpSourceConnectionTest&#45;&gt;\\CakeTestCase</title>
<path fill="none" stroke="black" d="M1486.14,-1081.07C1465.69,-1076.89 1445.92,-1068.54 1432,-1053 1290.16,-894.629 1503.81,-255.582 1360,-99 1339.47,-76.6512 1308.31,-67.9441 1278.45,-65.5077"/>
<polygon fill="none" stroke="black" points="1278.57,-62.0092 1268.38,-64.9111 1278.16,-68.9969 1278.57,-62.0092"/>
</g>
<!-- \\HttpSourceTest -->
<g id="node38" class="node"><title>\\HttpSourceTest</title>
<polygon fill="none" stroke="black" points="1631,-1044 1521,-1044 1521,-1008 1631,-1008 1631,-1044"/>
<text text-anchor="middle" x="1576" y="-1023.1" font-family="Courier,monospace" font-size="11.00">HttpSourceTest</text>
</g>
<!-- \\HttpSourceTest&#45;&gt;\\CakeTestCase -->
<g id="edge71" class="edge"><title>\\HttpSourceTest&#45;&gt;\\CakeTestCase</title>
<path fill="none" stroke="black" d="M1520.33,-1030.65C1489.78,-1029.95 1453.78,-1023.2 1432,-999 1297.81,-849.843 1496.05,-246.464 1360,-99 1339.51,-76.7944 1308.52,-68.0752 1278.78,-65.5892"/>
<polygon fill="none" stroke="black" points="1278.96,-62.0934 1268.76,-64.9747 1278.53,-69.0803 1278.96,-62.0934"/>
</g>
<!-- \\HttpTestSource -->
<g id="node39" class="node"><title>\\HttpTestSource</title>
<polygon fill="none" stroke="black" points="1631,-1962 1521,-1962 1521,-1926 1631,-1926 1631,-1962"/>
<text text-anchor="middle" x="1576" y="-1941.1" font-family="Courier,monospace" font-size="11.00">HttpTestSource</text>
</g>
<!-- \\HttpTestSource&#45;&gt;\\HttpSource -->
<g id="edge73" class="edge"><title>\\HttpTestSource&#45;&gt;\\HttpSource</title>
<path fill="none" stroke="black" d="M1520.31,-1940.07C1446.75,-1934.89 1318.1,-1925.82 1245.95,-1920.73"/>
<polygon fill="none" stroke="black" points="1245.94,-1917.22 1235.72,-1920.01 1245.45,-1924.21 1245.94,-1917.22"/>
</g>
<!-- \\HttpSourceException -->
<g id="node40" class="node"><title>\\HttpSourceException</title>
<polygon fill="none" stroke="black" points="1648,-396 1504,-396 1504,-360 1648,-360 1648,-396"/>
<text text-anchor="middle" x="1576" y="-375.1" font-family="Courier,monospace" font-size="11.00">HttpSourceException</text>
</g>
<!-- \\CakeException -->
<g id="node96" class="node"><title>\\CakeException</title>
<ellipse fill="none" stroke="black" cx="1193" cy="-18" rx="85.7684" ry="18.3848"/>
<text text-anchor="middle" x="1193" y="-14.4" font-family="Times Roman,serif" font-size="14.00" fill="gray">\CakeException</text>
</g>
<!-- \\HttpSourceException&#45;&gt;\\CakeException -->
<g id="edge75" class="edge"><title>\\HttpSourceException&#45;&gt;\\CakeException</title>
<path fill="none" stroke="black" d="M1570.17,-359.757C1550.83,-302.46 1482.95,-125.171 1360,-45 1339.24,-31.4647 1314.03,-23.9186 1289.55,-19.884"/>
<polygon fill="none" stroke="black" points="1289.89,-16.3964 1279.48,-18.4099 1288.87,-23.3224 1289.89,-16.3964"/>
</g>
<!-- \\HttpSourceConfigException -->
<g id="node41" class="node"><title>\\HttpSourceConfigException</title>
<polygon fill="none" stroke="black" points="1668,-450 1484,-450 1484,-414 1668,-414 1668,-450"/>
<text text-anchor="middle" x="1576" y="-429.1" font-family="Courier,monospace" font-size="11.00">HttpSourceConfigException</text>
</g>
<!-- \\HttpSourceConfigException&#45;&gt;\\CakeException -->
<g id="edge77" class="edge"><title>\\HttpSourceConfigException&#45;&gt;\\CakeException</title>
<path fill="none" stroke="black" d="M1483.31,-430.963C1464.27,-426.589 1445.84,-418.676 1432,-405 1315.93,-290.319 1477.5,-158.217 1360,-45 1340.4,-26.1168 1313.11,-17.3661 1286.27,-13.8869"/>
<polygon fill="none" stroke="black" points="1286.33,-10.374 1276.02,-12.8014 1285.59,-17.3351 1286.33,-10.374"/>
</g>
<!-- \\HttpSourceField&#45;&gt;\\HttpSourceEndpointItem -->
<g id="edge79" class="edge"><title>\\HttpSourceField&#45;&gt;\\HttpSourceEndpointItem</title>
<path fill="none" stroke="black" d="M754.714,-1944C696.386,-1944 606.447,-1944 538.488,-1944"/>
<polygon fill="none" stroke="black" points="538.203,-1940.5 528.203,-1944 538.203,-1947.5 538.203,-1940.5"/>
</g>
<!-- \\HttpSourceCondition&#45;&gt;\\HttpSourceField -->
<g id="edge81" class="edge"><title>\\HttpSourceCondition&#45;&gt;\\HttpSourceField</title>
<path fill="none" stroke="black" d="M1120.37,-1965.83C1051.99,-1960.95 950.284,-1953.71 883.08,-1948.92"/>
<polygon fill="none" stroke="black" points="883.235,-1945.42 873.012,-1948.2 882.738,-1952.41 883.235,-1945.42"/>
</g>
<!-- \\HttpSourceEndpointItem&#45;&gt;\\HttpSourceConfigFactoryItem -->
<g id="edge83" class="edge"><title>\\HttpSourceEndpointItem&#45;&gt;\\HttpSourceConfigFactoryItem</title>
<path fill="none" stroke="black" d="M361.871,-1956.16C337.896,-1960.24 311.791,-1965.25 288,-1971 250.643,-1980.03 209.55,-1992.83 176.899,-2003.69"/>
<polygon fill="none" stroke="black" points="175.418,-2000.5 167.051,-2007 177.645,-2007.13 175.418,-2000.5"/>
</g>
<!-- \\HttpSourceResult&#45;&gt;\\HttpSourceEndpointItem -->
<g id="edge85" class="edge"><title>\\HttpSourceResult&#45;&gt;\\HttpSourceEndpointItem</title>
<path fill="none" stroke="black" d="M751.404,-1988.84C692.926,-1980.28 604.873,-1967.4 538.145,-1957.63"/>
<polygon fill="none" stroke="black" points="538.446,-1954.14 528.044,-1956.15 537.432,-1961.06 538.446,-1954.14"/>
</g>
<!-- \\HttpSourceConfig&#45;&gt;\\HttpSourceConfigFactoryItem -->
<g id="edge87" class="edge"><title>\\HttpSourceConfig&#45;&gt;\\HttpSourceConfigFactoryItem</title>
<path fill="none" stroke="black" d="M382.343,-2046.86C338.385,-2043.25 278.429,-2038.33 226.533,-2034.07"/>
<polygon fill="none" stroke="black" points="226.521,-2030.56 216.269,-2033.23 225.949,-2037.54 226.521,-2030.56"/>
</g>
<!-- \\HttpSourceEndpoint&#45;&gt;\\HttpSourceConfigFactoryItem -->
<g id="edge89" class="edge"><title>\\HttpSourceEndpoint&#45;&gt;\\HttpSourceConfigFactoryItem</title>
<path fill="none" stroke="black" d="M375.63,-2003.69C332.33,-2007.25 275.632,-2011.9 226.27,-2015.95"/>
<polygon fill="none" stroke="black" points="225.859,-2012.47 216.179,-2016.78 226.432,-2019.45 225.859,-2012.47"/>
</g>
<!-- \\HttpSourceModel&#45;&gt;\\AppModel -->
<g id="edge91" class="edge"><title>\\HttpSourceModel&#45;&gt;\\AppModel</title>
<path fill="none" stroke="black" d="M1142.19,-1682.99C1103.08,-1666.21 1051.53,-1637.07 1026,-1593 950.816,-1463.21 1052.54,-358.078 954,-245 936.843,-225.313 910.052,-217.266 884.48,-214.61"/>
<polygon fill="none" stroke="black" points="884.629,-211.111 874.387,-213.822 884.084,-218.09 884.629,-211.111"/>
</g>
<!-- \\DataSource -->
<g id="node106" class="node"><title>\\DataSource</title>
<ellipse fill="none" stroke="black" cx="814" cy="-326" rx="72.1249" ry="18.3848"/>
<text text-anchor="middle" x="814" y="-322.4" font-family="Times Roman,serif" font-size="14.00" fill="gray">\DataSource</text>
</g>
<!-- \\HttpSource&#45;&gt;\\DataSource -->
<g id="edge93" class="edge"><title>\\HttpSource&#45;&gt;\\DataSource</title>
<path fill="none" stroke="black" d="M1150.43,-1923.51C1111.85,-1926.73 1056.51,-1924.18 1026,-1890 911.8,-1762.03 1068.48,-475.722 954,-348 938.336,-330.524 914.909,-323.017 891.678,-320.476"/>
<polygon fill="none" stroke="black" points="891.65,-316.963 881.403,-319.658 891.094,-323.941 891.65,-316.963"/>
</g>
<!-- \\Object -->
<g id="node108" class="node"><title>\\Object</title>
<ellipse fill="none" stroke="black" cx="814" cy="-272" rx="45.9619" ry="18.3848"/>
<text text-anchor="middle" x="814" y="-268.4" font-family="Times Roman,serif" font-size="14.00" fill="gray">\Object</text>
</g>
<!-- \\HttpSourceConnection&#45;&gt;\\Object -->
<g id="edge95" class="edge"><title>\\HttpSourceConnection&#45;&gt;\\Object</title>
<path fill="none" stroke="black" d="M1116.86,-1870.37C1084.16,-1869.14 1048.39,-1861.09 1026,-1836 912.16,-1708.45 1065.9,-428.258 954,-299 933.348,-275.144 898.551,-268.351 868.817,-267.544"/>
<polygon fill="none" stroke="black" points="868.56,-264.042 858.542,-267.489 868.523,-271.042 868.56,-264.042"/>
</g>
</g>
</svg>
