<?xml version="1.0" encoding="UTF-8" standalone="no"?>
<!DOCTYPE svg PUBLIC "-//W3C//DTD SVG 1.1//EN"
 "http://www.w3.org/Graphics/SVG/1.1/DTD/svg11.dtd">
<!-- Generated by graphviz version 2.26.3 (20100126.1600)
 -->
<!-- Title: G Pages: 1 -->
<svg width="1744pt" height="1846pt"
 viewBox="0.00 0.00 1744.00 1846.00" xmlns="http://www.w3.org/2000/svg" xmlns:xlink="http://www.w3.org/1999/xlink">
<g id="graph1" class="graph" transform="scale(1 1) rotate(0) translate(4 1842)">
<title>G</title>
<polygon fill="white" stroke="white" points="-4,5 -4,-1842 1741,-1842 1741,5 -4,5"/>
<g id="graph2" class="cluster"><title>cluster_Global</title>
<polyline fill="none" stroke="gray" points="20,-244 1716,-244 "/>
<path fill="none" stroke="gray" d="M1716,-244C1722,-244 1728,-250 1728,-256"/>
<polyline fill="none" stroke="gray" points="1728,-256 1728,-1818 "/>
<path fill="none" stroke="gray" d="M1728,-1818C1728,-1824 1722,-1830 1716,-1830"/>
<polyline fill="none" stroke="gray" points="1716,-1830 20,-1830 "/>
<path fill="none" stroke="gray" d="M20,-1830C14,-1830 8,-1824 8,-1818"/>
<polyline fill="none" stroke="gray" points="8,-1818 8,-256 "/>
<path fill="none" stroke="gray" d="M8,-256C8,-250 14,-244 20,-244"/>
<text text-anchor="middle" x="868" y="-1816.1" font-family="Times Roman,serif" font-size="11.00" fill="gray">Global</text>
</g>
<!-- \\HttpSourceTestFixture -->
<g id="node2" class="node"><title>\\HttpSourceTestFixture</title>
<polygon fill="none" stroke="black" points="1655,-1260 1497,-1260 1497,-1224 1655,-1224 1655,-1260"/>
<text text-anchor="middle" x="1576" y="-1239.1" font-family="Courier,monospace" font-size="11.00">HttpSourceTestFixture</text>
</g>
<!-- \\CakeTestFixture -->
<g id="node50" class="node"><title>\\CakeTestFixture</title>
<ellipse fill="none" stroke="black" cx="1193" cy="-218" rx="92.1303" ry="18.3848"/>
<text text-anchor="middle" x="1193" y="-214.4" font-family="Times Roman,serif" font-size="14.00" fill="gray">\CakeTestFixture</text>
</g>
<!-- \\HttpSourceTestFixture&#45;&gt;\\CakeTestFixture -->
<g id="edge3" class="edge"><title>\\HttpSourceTestFixture&#45;&gt;\\CakeTestFixture</title>
<path fill="none" stroke="black" d="M1496.64,-1244.87C1472.6,-1241.55 1448.28,-1233.2 1432,-1215 1287.19,-1053.05 1509.16,-397.959 1360,-240 1340.06,-218.888 1310.47,-210.844 1281.71,-208.906"/>
<polygon fill="none" stroke="black" points="1281.73,-205.404 1271.59,-208.464 1281.43,-212.397 1281.73,-205.404"/>
</g>
<!-- \\HttpSourceAppTest -->
<g id="node3" class="node"><title>\\HttpSourceAppTest</title>
<polygon fill="none" stroke="black" points="1259,-1746 1127,-1746 1127,-1710 1259,-1710 1259,-1746"/>
<text text-anchor="start" x="1159" y="-1733.43" font-family="Courier,monospace" font-size="11.00">«abstract»</text>
<text text-anchor="start" x="1135.5" y="-1720.23" font-family="Courier,monospace" font-size="11.00">HttpSourceAppTest</text>
</g>
<!-- \\CakeTestCase -->
<g id="node52" class="node"><title>\\CakeTestCase</title>
<ellipse fill="none" stroke="black" cx="1193" cy="-126" rx="82.0244" ry="18.3848"/>
<text text-anchor="middle" x="1193" y="-122.4" font-family="Times Roman,serif" font-size="14.00" fill="gray">\CakeTestCase</text>
</g>
<!-- \\HttpSourceAppTest&#45;&gt;\\CakeTestCase -->
<g id="edge5" class="edge"><title>\\HttpSourceAppTest&#45;&gt;\\CakeTestCase</title>
<path fill="none" stroke="black" d="M1259.31,-1736.77C1305.68,-1738.76 1364.72,-1732.06 1396,-1692 1421.51,-1659.33 1419.76,-233.955 1396,-200 1369.61,-162.293 1321.89,-143.732 1279.34,-134.626"/>
<polygon fill="none" stroke="black" points="1280,-131.188 1269.51,-132.665 1278.63,-138.052 1280,-131.188"/>
</g>
<!-- \\HttpSourceDocument -->
<g id="node4" class="node"><title>\\HttpSourceDocument</title>
<polygon fill="none" stroke="black" points="1645,-1368 1507,-1368 1507,-1332 1645,-1332 1645,-1368"/>
<text text-anchor="middle" x="1576" y="-1347.1" font-family="Courier,monospace" font-size="11.00">HttpSourceDocument</text>
</g>
<!-- \\HttpSourceModel -->
<g id="node33" class="node"><title>\\HttpSourceModel</title>
<polygon fill="none" stroke="black" points="1252,-1395 1134,-1395 1134,-1359 1252,-1359 1252,-1395"/>
<text text-anchor="start" x="1159" y="-1382.43" font-family="Courier,monospace" font-size="11.00">«abstract»</text>
<text text-anchor="start" x="1142" y="-1369.23" font-family="Courier,monospace" font-size="11.00">HttpSourceModel</text>
</g>
<!-- \\HttpSourceDocument&#45;&gt;\\HttpSourceModel -->
<g id="edge7" class="edge"><title>\\HttpSourceDocument&#45;&gt;\\HttpSourceModel</title>
<path fill="none" stroke="black" d="M1506.64,-1354.89C1437.65,-1359.75 1332.34,-1367.18 1263.09,-1372.06"/>
<polygon fill="none" stroke="black" points="1262.45,-1368.6 1252.72,-1372.79 1262.94,-1375.58 1262.45,-1368.6"/>
</g>
<!-- \\HttpSourceUser -->
<g id="node5" class="node"><title>\\HttpSourceUser</title>
<polygon fill="none" stroke="black" points="1631,-1098 1521,-1098 1521,-1062 1631,-1062 1631,-1098"/>
<text text-anchor="middle" x="1576" y="-1077.1" font-family="Courier,monospace" font-size="11.00">HttpSourceUser</text>
</g>
<!-- \\AppModel -->
<g id="node55" class="node"><title>\\AppModel</title>
<ellipse fill="none" stroke="black" cx="814" cy="-164" rx="62.2254" ry="18.3848"/>
<text text-anchor="middle" x="814" y="-160.4" font-family="Times Roman,serif" font-size="14.00" fill="gray">\AppModel</text>
</g>
<!-- \\HttpSourceUser&#45;&gt;\\AppModel -->
<g id="edge9" class="edge"><title>\\HttpSourceUser&#45;&gt;\\AppModel</title>
<path fill="none" stroke="black" d="M1520.36,-1084.62C1489.82,-1083.92 1453.82,-1077.17 1432,-1053 1303.18,-910.325 1498.21,-324.597 1360,-191 1326.71,-158.824 1026.99,-160.011 886.308,-162.395"/>
<polygon fill="none" stroke="black" points="885.989,-158.9 876.052,-162.576 886.113,-165.899 885.989,-158.9"/>
</g>
<!-- \\HttpSourceUserFixture -->
<g id="node6" class="node"><title>\\HttpSourceUserFixture</title>
<polygon fill="none" stroke="black" points="1655,-1206 1497,-1206 1497,-1170 1655,-1170 1655,-1206"/>
<text text-anchor="middle" x="1576" y="-1185.1" font-family="Courier,monospace" font-size="11.00">HttpSourceUserFixture</text>
</g>
<!-- \\HttpSourceUserFixture&#45;&gt;\\CakeTestFixture -->
<g id="edge11" class="edge"><title>\\HttpSourceUserFixture&#45;&gt;\\CakeTestFixture</title>
<path fill="none" stroke="black" d="M1496.68,-1190.83C1472.64,-1187.51 1448.32,-1179.17 1432,-1161 1294.83,-1008.26 1501.27,-388.956 1360,-240 1340.11,-219.026 1310.68,-210.969 1282.05,-208.981"/>
<polygon fill="none" stroke="black" points="1282.12,-205.481 1271.97,-208.52 1281.8,-212.474 1282.12,-205.481"/>
</g>
<!-- \\HttpSourceUsersDocumentFixture -->
<g id="node7" class="node"><title>\\HttpSourceUsersDocumentFixture</title>
<polygon fill="none" stroke="black" points="1685,-1152 1467,-1152 1467,-1116 1685,-1116 1685,-1152"/>
<text text-anchor="middle" x="1576" y="-1131.1" font-family="Courier,monospace" font-size="11.00">HttpSourceUsersDocumentFixture</text>
</g>
<!-- \\HttpSourceUsersDocumentFixture&#45;&gt;\\CakeTestFixture -->
<g id="edge13" class="edge"><title>\\HttpSourceUsersDocumentFixture&#45;&gt;\\CakeTestFixture</title>
<path fill="none" stroke="black" d="M1466.42,-1129.41C1453.36,-1124.56 1441.37,-1117.39 1432,-1107 1302.48,-963.472 1493.38,-379.955 1360,-240 1340.06,-219.074 1310.62,-211.028 1281.99,-209.036"/>
<polygon fill="none" stroke="black" points="1282.06,-205.535 1271.91,-208.572 1281.74,-212.528 1282.06,-205.535"/>
</g>
<!-- \\HttpSourceModelTest -->
<g id="node8" class="node"><title>\\HttpSourceModelTest</title>
<polygon fill="none" stroke="black" points="1648,-936 1504,-936 1504,-900 1648,-900 1648,-936"/>
<text text-anchor="middle" x="1576" y="-915.1" font-family="Courier,monospace" font-size="11.00">HttpSourceModelTest</text>
</g>
<!-- \\HttpSourceModelTest&#45;&gt;\\CakeTestCase -->
<g id="edge15" class="edge"><title>\\HttpSourceModelTest&#45;&gt;\\CakeTestCase</title>
<path fill="none" stroke="black" d="M1503.26,-921.416C1477.25,-918.696 1449.96,-910.599 1432,-891 1321.43,-770.318 1470.33,-278.901 1360,-158 1340.51,-136.641 1311.48,-126.942 1283.08,-123.107"/>
<polygon fill="none" stroke="black" points="1283.4,-119.621 1273.07,-121.986 1282.62,-126.578 1283.4,-119.621"/>
</g>
<!-- \\HttpSourceTestModel -->
<g id="node9" class="node"><title>\\HttpSourceTestModel</title>
<polygon fill="none" stroke="black" points="1648,-1476 1504,-1476 1504,-1440 1648,-1440 1648,-1476"/>
<text text-anchor="middle" x="1576" y="-1455.1" font-family="Courier,monospace" font-size="11.00">HttpSourceTestModel</text>
</g>
<!-- \\HttpSourceTestModel&#45;&gt;\\HttpSourceModel -->
<g id="edge17" class="edge"><title>\\HttpSourceTestModel&#45;&gt;\\HttpSourceModel</title>
<path fill="none" stroke="black" d="M1503.38,-1444.92C1480.5,-1440.66 1455.17,-1435.79 1432,-1431 1374.83,-1419.19 1310.27,-1404.52 1262.67,-1393.45"/>
<polygon fill="none" stroke="black" points="1263.32,-1390.01 1252.78,-1391.15 1261.73,-1396.83 1263.32,-1390.01"/>
</g>
<!-- \\HttpSourceBasicsTest -->
<g id="node10" class="node"><title>\\HttpSourceBasicsTest</title>
<polygon fill="none" stroke="black" points="1652,-1746 1500,-1746 1500,-1710 1652,-1710 1652,-1746"/>
<text text-anchor="middle" x="1576" y="-1725.1" font-family="Courier,monospace" font-size="11.00">HttpSourceBasicsTest</text>
</g>
<!-- \\HttpSourceBasicsTest&#45;&gt;\\HttpSourceAppTest -->
<g id="edge19" class="edge"><title>\\HttpSourceBasicsTest&#45;&gt;\\HttpSourceAppTest</title>
<path fill="none" stroke="black" d="M1499.87,-1728C1432.95,-1728 1336.07,-1728 1269.14,-1728"/>
<polygon fill="none" stroke="black" points="1269.08,-1724.5 1259.08,-1728 1269.08,-1731.5 1269.08,-1724.5"/>
</g>
<!-- \\HttpSourceToDboAssociationTest -->
<g id="node11" class="node"><title>\\HttpSourceToDboAssociationTest</title>
<polygon fill="none" stroke="black" points="1685,-1800 1467,-1800 1467,-1764 1685,-1764 1685,-1800"/>
<text text-anchor="middle" x="1576" y="-1779.1" font-family="Courier,monospace" font-size="11.00">HttpSourceToDboAssociationTest</text>
</g>
<!-- \\HttpSourceToDboAssociationTest&#45;&gt;\\HttpSourceAppTest -->
<g id="edge21" class="edge"><title>\\HttpSourceToDboAssociationTest&#45;&gt;\\HttpSourceAppTest</title>
<path fill="none" stroke="black" d="M1466.25,-1766.53C1403.17,-1757.63 1325.52,-1746.68 1269.14,-1738.74"/>
<polygon fill="none" stroke="black" points="1269.61,-1735.27 1259.22,-1737.34 1268.64,-1742.2 1269.61,-1735.27"/>
</g>
<!-- \\HttpSourceConnectionTest -->
<g id="node12" class="node"><title>\\HttpSourceConnectionTest</title>
<polygon fill="none" stroke="black" points="1665,-882 1487,-882 1487,-846 1665,-846 1665,-882"/>
<text text-anchor="middle" x="1576" y="-861.1" font-family="Courier,monospace" font-size="11.00">HttpSourceConnectionTest</text>
</g>
<!-- \\HttpSourceConnectionTest&#45;&gt;\\CakeTestCase -->
<g id="edge23" class="edge"><title>\\HttpSourceConnectionTest&#45;&gt;\\CakeTestCase</title>
<path fill="none" stroke="black" d="M1486.47,-864.774C1466.01,-860.602 1446.15,-852.324 1432,-837 1226.13,-614.035 1565.42,-381.373 1360,-158 1340.52,-136.813 1311.65,-127.124 1283.37,-123.246"/>
<polygon fill="none" stroke="black" points="1283.74,-119.766 1273.41,-122.108 1282.95,-126.721 1283.74,-119.766"/>
</g>
<!-- \\HttpSourceTest -->
<g id="node13" class="node"><title>\\HttpSourceTest</title>
<polygon fill="none" stroke="black" points="1631,-774 1521,-774 1521,-738 1631,-738 1631,-774"/>
<text text-anchor="middle" x="1576" y="-753.1" font-family="Courier,monospace" font-size="11.00">HttpSourceTest</text>
</g>
<!-- \\HttpSourceTest&#45;&gt;\\CakeTestCase -->
<g id="edge25" class="edge"><title>\\HttpSourceTest&#45;&gt;\\CakeTestCase</title>
<path fill="none" stroke="black" d="M1520.38,-760.266C1490.04,-759.398 1454.23,-752.608 1432,-729 1256.63,-542.795 1535,-344.553 1360,-158 1340.48,-137.195 1311.91,-127.537 1283.89,-123.575"/>
<polygon fill="none" stroke="black" points="1283.95,-120.058 1273.61,-122.363 1283.13,-127.01 1283.95,-120.058"/>
</g>
<!-- \\HttpTestSource -->
<g id="node14" class="node"><title>\\HttpTestSource</title>
<polygon fill="none" stroke="black" points="1631,-1638 1521,-1638 1521,-1602 1631,-1602 1631,-1638"/>
<text text-anchor="middle" x="1576" y="-1617.1" font-family="Courier,monospace" font-size="11.00">HttpTestSource</text>
</g>
<!-- \\HttpSource -->
<g id="node34" class="node"><title>\\HttpSource</title>
<polygon fill="none" stroke="black" points="1235,-1584 1151,-1584 1151,-1548 1235,-1548 1235,-1584"/>
<text text-anchor="start" x="1159" y="-1571.43" font-family="Courier,monospace" font-size="11.00">«abstract»</text>
<text text-anchor="start" x="1159" y="-1558.23" font-family="Courier,monospace" font-size="11.00">HttpSource</text>
</g>
<!-- \\HttpTestSource&#45;&gt;\\HttpSource -->
<g id="edge27" class="edge"><title>\\HttpTestSource&#45;&gt;\\HttpSource</title>
<path fill="none" stroke="black" d="M1520.31,-1612.15C1446.75,-1601.78 1318.1,-1583.64 1245.95,-1573.46"/>
<polygon fill="none" stroke="black" points="1246.11,-1569.95 1235.72,-1572.02 1245.14,-1576.89 1246.11,-1569.95"/>
</g>
<!-- \\HttpSourceFieldTest -->
<g id="node15" class="node"><title>\\HttpSourceFieldTest</title>
<polygon fill="none" stroke="black" points="1648,-720 1504,-720 1504,-684 1648,-684 1648,-720"/>
<text text-anchor="middle" x="1576" y="-699.1" font-family="Courier,monospace" font-size="11.00">HttpSourceFieldTest</text>
</g>
<!-- \\HttpSourceFieldTest&#45;&gt;\\CakeTestCase -->
<g id="edge29" class="edge"><title>\\HttpSourceFieldTest&#45;&gt;\\CakeTestCase</title>
<path fill="none" stroke="black" d="M1503.3,-704.99C1477.45,-702.184 1450.26,-694.139 1432,-675 1271.85,-507.147 1519.81,-326.171 1360,-158 1340.35,-137.321 1311.74,-127.695 1283.73,-123.722"/>
<polygon fill="none" stroke="black" points="1283.8,-120.206 1273.46,-122.505 1282.98,-127.157 1283.8,-120.206"/>
</g>
<!-- \\HttpSourceResultTest -->
<g id="node16" class="node"><title>\\HttpSourceResultTest</title>
<polygon fill="none" stroke="black" points="1652,-666 1500,-666 1500,-630 1652,-630 1652,-666"/>
<text text-anchor="middle" x="1576" y="-645.1" font-family="Courier,monospace" font-size="11.00">HttpSourceResultTest</text>
</g>
<!-- \\HttpSourceResultTest&#45;&gt;\\CakeTestCase -->
<g id="edge31" class="edge"><title>\\HttpSourceResultTest&#45;&gt;\\CakeTestCase</title>
<path fill="none" stroke="black" d="M1499.73,-650.391C1475.03,-647.215 1449.53,-639.08 1432,-621 1287.05,-471.474 1504.65,-307.814 1360,-158 1340.28,-137.573 1311.8,-127.978 1283.93,-123.96"/>
<polygon fill="none" stroke="black" points="1284.05,-120.45 1273.71,-122.722 1283.21,-127.399 1284.05,-120.45"/>
</g>
<!-- \\HttpSourceConfigFactoryItemTest -->
<g id="node17" class="node"><title>\\HttpSourceConfigFactoryItemTest</title>
<polygon fill="none" stroke="black" points="1689,-612 1463,-612 1463,-576 1689,-576 1689,-612"/>
<text text-anchor="middle" x="1576" y="-591.1" font-family="Courier,monospace" font-size="11.00">HttpSourceConfigFactoryItemTest</text>
</g>
<!-- \\HttpSourceConfigFactoryItemTest&#45;&gt;\\CakeTestCase -->
<g id="edge33" class="edge"><title>\\HttpSourceConfigFactoryItemTest&#45;&gt;\\CakeTestCase</title>
<path fill="none" stroke="black" d="M1463,-586.971C1451.45,-582.32 1440.76,-575.862 1432,-567 1302.21,-435.765 1489.53,-289.492 1360,-158 1340.17,-137.865 1311.81,-128.314 1284.08,-124.248"/>
<polygon fill="none" stroke="black" points="1284.26,-120.744 1273.91,-122.989 1283.4,-127.691 1284.26,-120.744"/>
</g>
<!-- \\HttpSourceConfigFactoryItemiAmExistsANDValid -->
<g id="node18" class="node"><title>\\HttpSourceConfigFactoryItemiAmExistsANDValid</title>
<polygon fill="none" stroke="black" points="602,-1800 288,-1800 288,-1764 602,-1764 602,-1800"/>
<text text-anchor="middle" x="445" y="-1779.1" font-family="Courier,monospace" font-size="11.00">HttpSourceConfigFactoryItemiAmExistsANDValid</text>
</g>
<!-- \\HttpSourceConfigFactoryItem -->
<g id="node42" class="node"><title>\\HttpSourceConfigFactoryItem</title>
<polygon fill="none" stroke="black" points="216,-1719 16,-1719 16,-1683 216,-1683 216,-1719"/>
<text text-anchor="start" x="82" y="-1706.43" font-family="Courier,monospace" font-size="11.00">«abstract»</text>
<text text-anchor="start" x="24.5" y="-1693.23" font-family="Courier,monospace" font-size="11.00">HttpSourceConfigFactoryItem</text>
</g>
<!-- \\HttpSourceConfigFactoryItemiAmExistsANDValid&#45;&gt;\\HttpSourceConfigFactoryItem -->
<g id="edge35" class="edge"><title>\\HttpSourceConfigFactoryItemiAmExistsANDValid&#45;&gt;\\HttpSourceConfigFactoryItem</title>
<path fill="none" stroke="black" d="M329.315,-1763.92C315.337,-1761.2 301.307,-1758.22 288,-1755 250.643,-1745.97 209.55,-1733.17 176.899,-1722.31"/>
<polygon fill="none" stroke="black" points="177.645,-1718.87 167.051,-1719 175.418,-1725.5 177.645,-1718.87"/>
</g>
<!-- \\HttpSourceConditionTest -->
<g id="node19" class="node"><title>\\HttpSourceConditionTest</title>
<polygon fill="none" stroke="black" points="1662,-558 1490,-558 1490,-522 1662,-522 1662,-558"/>
<text text-anchor="middle" x="1576" y="-537.1" font-family="Courier,monospace" font-size="11.00">HttpSourceConditionTest</text>
</g>
<!-- \\HttpSourceConditionTest&#45;&gt;\\CakeTestCase -->
<g id="edge37" class="edge"><title>\\HttpSourceConditionTest&#45;&gt;\\CakeTestCase</title>
<path fill="none" stroke="black" d="M1489.7,-540.265C1468.45,-536.249 1447.4,-528.175 1432,-513 1317.33,-400.006 1474.45,-271.222 1360,-158 1340.09,-138.308 1312.01,-128.815 1284.55,-124.667"/>
<polygon fill="none" stroke="black" points="1284.84,-121.175 1274.47,-123.371 1283.95,-128.118 1284.84,-121.175"/>
</g>
<!-- \\HttpSourceConfigTest -->
<g id="node20" class="node"><title>\\HttpSourceConfigTest</title>
<polygon fill="none" stroke="black" points="1652,-504 1500,-504 1500,-468 1652,-468 1652,-504"/>
<text text-anchor="middle" x="1576" y="-483.1" font-family="Courier,monospace" font-size="11.00">HttpSourceConfigTest</text>
</g>
<!-- \\HttpSourceConfigTest&#45;&gt;\\CakeTestCase -->
<g id="edge39" class="edge"><title>\\HttpSourceConfigTest&#45;&gt;\\CakeTestCase</title>
<path fill="none" stroke="black" d="M1499.79,-487.479C1475.39,-484.169 1450.06,-476.185 1432,-459 1332.36,-364.17 1459.45,-253.028 1360,-158 1339.85,-138.747 1311.85,-129.342 1284.53,-125.14"/>
<polygon fill="none" stroke="black" points="1284.89,-121.656 1274.51,-123.819 1283.97,-128.596 1284.89,-121.656"/>
</g>
<!-- \\HttpSourceConfigFactoryTest -->
<g id="node21" class="node"><title>\\HttpSourceConfigFactoryTest</title>
<polygon fill="none" stroke="black" points="1675,-450 1477,-450 1477,-414 1675,-414 1675,-450"/>
<text text-anchor="middle" x="1576" y="-429.1" font-family="Courier,monospace" font-size="11.00">HttpSourceConfigFactoryTest</text>
</g>
<!-- \\HttpSourceConfigFactoryTest&#45;&gt;\\CakeTestCase -->
<g id="edge41" class="edge"><title>\\HttpSourceConfigFactoryTest&#45;&gt;\\CakeTestCase</title>
<path fill="none" stroke="black" d="M1476.34,-428.088C1460.04,-423.528 1444.44,-416.273 1432,-405 1347.27,-328.214 1444.58,-234.954 1360,-158 1339.58,-139.421 1311.8,-130.146 1284.75,-125.856"/>
<polygon fill="none" stroke="black" points="1285.22,-122.388 1274.83,-124.493 1284.26,-129.322 1285.22,-122.388"/>
</g>
<!-- \\HttpSourceConfigFactoryiAmExists -->
<g id="node22" class="node"><title>\\HttpSourceConfigFactoryiAmExists</title>
<polygon fill="none" stroke="black" points="1692,-828 1460,-828 1460,-792 1692,-792 1692,-828"/>
<text text-anchor="middle" x="1576" y="-807.1" font-family="Courier,monospace" font-size="11.00">HttpSourceConfigFactoryiAmExists</text>
</g>
<!-- \\HttpSourceConfigFactoryiAmExistsANDValid -->
<g id="node23" class="node"><title>\\HttpSourceConfigFactoryiAmExistsANDValid</title>
<polygon fill="none" stroke="black" points="1719,-1530 1433,-1530 1433,-1494 1719,-1494 1719,-1530"/>
<text text-anchor="middle" x="1576" y="-1509.1" font-family="Courier,monospace" font-size="11.00">HttpSourceConfigFactoryiAmExistsANDValid</text>
</g>
<!-- \\HttpSourceConfigFactory -->
<g id="node45" class="node"><title>\\HttpSourceConfigFactory</title>
<polygon fill="none" stroke="black" points="1279,-1530 1107,-1530 1107,-1494 1279,-1494 1279,-1530"/>
<text text-anchor="middle" x="1193" y="-1509.1" font-family="Courier,monospace" font-size="11.00">HttpSourceConfigFactory</text>
</g>
<!-- \\HttpSourceConfigFactoryiAmExistsANDValid&#45;&gt;\\HttpSourceConfigFactory -->
<g id="edge43" class="edge"><title>\\HttpSourceConfigFactoryiAmExistsANDValid&#45;&gt;\\HttpSourceConfigFactory</title>
<path fill="none" stroke="black" d="M1432.3,-1512C1384.54,-1512 1332.56,-1512 1289.28,-1512"/>
<polygon fill="none" stroke="black" points="1289.04,-1508.5 1279.04,-1512 1289.04,-1515.5 1289.04,-1508.5"/>
</g>
<!-- \\HttpSourceConfigiAmExistsANDValid -->
<g id="node24" class="node"><title>\\HttpSourceConfigiAmExistsANDValid</title>
<polygon fill="none" stroke="black" points="933,-1800 695,-1800 695,-1764 933,-1764 933,-1800"/>
<text text-anchor="middle" x="814" y="-1779.1" font-family="Courier,monospace" font-size="11.00">HttpSourceConfigiAmExistsANDValid</text>
</g>
<!-- \\HttpSourceConfig -->
<g id="node40" class="node"><title>\\HttpSourceConfig</title>
<polygon fill="none" stroke="black" points="507,-1746 383,-1746 383,-1710 507,-1710 507,-1746"/>
<text text-anchor="middle" x="445" y="-1725.1" font-family="Courier,monospace" font-size="11.00">HttpSourceConfig</text>
</g>
<!-- \\HttpSourceConfigiAmExistsANDValid&#45;&gt;\\HttpSourceConfig -->
<g id="edge45" class="edge"><title>\\HttpSourceConfigiAmExistsANDValid&#45;&gt;\\HttpSourceConfig</title>
<path fill="none" stroke="black" d="M694.451,-1764.51C636.257,-1755.99 568.18,-1746.03 517.859,-1738.66"/>
<polygon fill="none" stroke="black" points="518.122,-1735.16 507.721,-1737.18 517.109,-1742.09 518.122,-1735.16"/>
</g>
<!-- \\HttpSourceEndpointiAmExistsANDValid -->
<g id="node25" class="node"><title>\\HttpSourceEndpointiAmExistsANDValid</title>
<polygon fill="none" stroke="black" points="940,-1746 688,-1746 688,-1710 940,-1710 940,-1746"/>
<text text-anchor="middle" x="814" y="-1725.1" font-family="Courier,monospace" font-size="11.00">HttpSourceEndpointiAmExistsANDValid</text>
</g>
<!-- \\HttpSourceEndpoint -->
<g id="node38" class="node"><title>\\HttpSourceEndpoint</title>
<polygon fill="none" stroke="black" points="514,-1692 376,-1692 376,-1656 514,-1656 514,-1692"/>
<text text-anchor="middle" x="445" y="-1671.1" font-family="Courier,monospace" font-size="11.00">HttpSourceEndpoint</text>
</g>
<!-- \\HttpSourceEndpointiAmExistsANDValid&#45;&gt;\\HttpSourceEndpoint -->
<g id="edge47" class="edge"><title>\\HttpSourceEndpointiAmExistsANDValid&#45;&gt;\\HttpSourceEndpoint</title>
<path fill="none" stroke="black" d="M690.872,-1709.98C635.89,-1701.94 572.701,-1692.69 524.151,-1685.58"/>
<polygon fill="none" stroke="black" points="524.422,-1682.09 514.021,-1684.1 523.409,-1689.01 524.422,-1682.09"/>
</g>
<!-- \\HttpSourceConditioniAmExistsANDValid -->
<g id="node26" class="node"><title>\\HttpSourceConditioniAmExistsANDValid</title>
<polygon fill="none" stroke="black" points="1706,-1692 1446,-1692 1446,-1656 1706,-1656 1706,-1692"/>
<text text-anchor="middle" x="1576" y="-1671.1" font-family="Courier,monospace" font-size="11.00">HttpSourceConditioniAmExistsANDValid</text>
</g>
<!-- \\HttpSourceCondition -->
<g id="node41" class="node"><title>\\HttpSourceCondition</title>
<polygon fill="none" stroke="black" points="1265,-1692 1121,-1692 1121,-1656 1265,-1656 1265,-1692"/>
<text text-anchor="middle" x="1193" y="-1671.1" font-family="Courier,monospace" font-size="11.00">HttpSourceCondition</text>
</g>
<!-- \\HttpSourceConditioniAmExistsANDValid&#45;&gt;\\HttpSourceCondition -->
<g id="edge49" class="edge"><title>\\HttpSourceConditioniAmExistsANDValid&#45;&gt;\\HttpSourceCondition</title>
<path fill="none" stroke="black" d="M1445.8,-1674C1389.5,-1674 1325.3,-1674 1275.68,-1674"/>
<polygon fill="none" stroke="black" points="1275.64,-1670.5 1265.64,-1674 1275.64,-1677.5 1275.64,-1670.5"/>
</g>
<!-- \\HttpSourceFieldiAmExistsANDValid -->
<g id="node27" class="node"><title>\\HttpSourceFieldiAmExistsANDValid</title>
<polygon fill="none" stroke="black" points="1309,-1800 1077,-1800 1077,-1764 1309,-1764 1309,-1800"/>
<text text-anchor="middle" x="1193" y="-1779.1" font-family="Courier,monospace" font-size="11.00">HttpSourceFieldiAmExistsANDValid</text>
</g>
<!-- \\HttpSourceField -->
<g id="node43" class="node"><title>\\HttpSourceField</title>
<polygon fill="none" stroke="black" points="873,-1692 755,-1692 755,-1656 873,-1656 873,-1692"/>
<text text-anchor="middle" x="814" y="-1671.1" font-family="Courier,monospace" font-size="11.00">HttpSourceField</text>
</g>
<!-- \\HttpSourceFieldiAmExistsANDValid&#45;&gt;\\HttpSourceField -->
<g id="edge51" class="edge"><title>\\HttpSourceFieldiAmExistsANDValid&#45;&gt;\\HttpSourceField</title>
<path fill="none" stroke="black" d="M1076.41,-1770.59C1059.12,-1766.78 1041.81,-1761.72 1026,-1755 989.187,-1739.35 990.572,-1717.2 954,-1701 932.018,-1691.26 906.564,-1685.03 883.436,-1681.04"/>
<polygon fill="none" stroke="black" points="883.77,-1677.55 873.34,-1679.41 882.656,-1684.46 883.77,-1677.55"/>
</g>
<!-- \\HttpSourceResultiAmExistsANDValid -->
<g id="node28" class="node"><title>\\HttpSourceResultiAmExistsANDValid</title>
<polygon fill="none" stroke="black" points="1312,-1638 1074,-1638 1074,-1602 1312,-1602 1312,-1638"/>
<text text-anchor="middle" x="1193" y="-1617.1" font-family="Courier,monospace" font-size="11.00">HttpSourceResultiAmExistsANDValid</text>
</g>
<!-- \\HttpSourceResult -->
<g id="node44" class="node"><title>\\HttpSourceResult</title>
<polygon fill="none" stroke="black" points="876,-1584 752,-1584 752,-1548 876,-1548 876,-1584"/>
<text text-anchor="middle" x="814" y="-1563.1" font-family="Courier,monospace" font-size="11.00">HttpSourceResult</text>
</g>
<!-- \\HttpSourceResultiAmExistsANDValid&#45;&gt;\\HttpSourceResult -->
<g id="edge53" class="edge"><title>\\HttpSourceResultiAmExistsANDValid&#45;&gt;\\HttpSourceResult</title>
<path fill="none" stroke="black" d="M1073.34,-1602.95C1012,-1594.21 939.31,-1583.85 886.517,-1576.33"/>
<polygon fill="none" stroke="black" points="886.959,-1572.86 876.565,-1574.91 885.972,-1579.79 886.959,-1572.86"/>
</g>
<!-- \\HttpSourceEndpointItemTest -->
<g id="node29" class="node"><title>\\HttpSourceEndpointItemTest</title>
<polygon fill="none" stroke="black" points="1672,-990 1480,-990 1480,-954 1672,-954 1672,-990"/>
<text text-anchor="middle" x="1576" y="-969.1" font-family="Courier,monospace" font-size="11.00">HttpSourceEndpointItemTest</text>
</g>
<!-- \\HttpSourceEndpointItemTest&#45;&gt;\\CakeTestCase -->
<g id="edge55" class="edge"><title>\\HttpSourceEndpointItemTest&#45;&gt;\\CakeTestCase</title>
<path fill="none" stroke="black" d="M1479.98,-971.48C1461.81,-966.94 1444.58,-958.827 1432,-945 1313.8,-815.114 1477.94,-288.12 1360,-158 1340.58,-136.576 1311.57,-126.861 1283.16,-123.033"/>
<polygon fill="none" stroke="black" points="1283.47,-119.546 1273.15,-121.914 1282.7,-126.503 1283.47,-119.546"/>
</g>
<!-- \\HttpSourceEndpointItemiAmExistsANDValid -->
<g id="node30" class="node"><title>\\HttpSourceEndpointItemiAmExistsANDValid</title>
<polygon fill="none" stroke="black" points="954,-1638 674,-1638 674,-1602 954,-1602 954,-1638"/>
<text text-anchor="middle" x="814" y="-1617.1" font-family="Courier,monospace" font-size="11.00">HttpSourceEndpointItemiAmExistsANDValid</text>
</g>
<!-- \\HttpSourceEndpointItem -->
<g id="node39" class="node"><title>\\HttpSourceEndpointItem</title>
<polygon fill="none" stroke="black" points="528,-1638 362,-1638 362,-1602 528,-1602 528,-1638"/>
<text text-anchor="start" x="411" y="-1625.43" font-family="Courier,monospace" font-size="11.00">«abstract»</text>
<text text-anchor="start" x="370.5" y="-1612.23" font-family="Courier,monospace" font-size="11.00">HttpSourceEndpointItem</text>
</g>
<!-- \\HttpSourceEndpointItemiAmExistsANDValid&#45;&gt;\\HttpSourceEndpointItem -->
<g id="edge57" class="edge"><title>\\HttpSourceEndpointItemiAmExistsANDValid&#45;&gt;\\HttpSourceEndpointItem</title>
<path fill="none" stroke="black" d="M673.971,-1620C628.578,-1620 579.366,-1620 538.241,-1620"/>
<polygon fill="none" stroke="black" points="538.239,-1616.5 528.239,-1620 538.239,-1623.5 538.239,-1616.5"/>
</g>
<!-- \\HttpSourceEndpointTest -->
<g id="node31" class="node"><title>\\HttpSourceEndpointTest</title>
<polygon fill="none" stroke="black" points="1658,-1044 1494,-1044 1494,-1008 1658,-1008 1658,-1044"/>
<text text-anchor="middle" x="1576" y="-1023.1" font-family="Courier,monospace" font-size="11.00">HttpSourceEndpointTest</text>
</g>
<!-- \\HttpSourceEndpointTest&#45;&gt;\\CakeTestCase -->
<g id="edge59" class="edge"><title>\\HttpSourceEndpointTest&#45;&gt;\\CakeTestCase</title>
<path fill="none" stroke="black" d="M1493.38,-1028.26C1470.46,-1024.63 1447.61,-1016.26 1432,-999 1306.16,-859.907 1485.57,-297.343 1360,-158 1340.55,-136.421 1311.39,-126.703 1282.84,-122.916"/>
<polygon fill="none" stroke="black" points="1283.11,-119.425 1272.79,-121.814 1282.34,-126.383 1283.11,-119.425"/>
</g>
<!-- \\AllHttpSourceTest -->
<g id="node32" class="node"><title>\\AllHttpSourceTest</title>
<polygon fill="none" stroke="black" points="1641,-396 1511,-396 1511,-360 1641,-360 1641,-396"/>
<text text-anchor="middle" x="1576" y="-375.1" font-family="Courier,monospace" font-size="11.00">AllHttpSourceTest</text>
</g>
<!-- \\PHPUnit_Framework_TestSuite -->
<g id="node82" class="node"><title>\\PHPUnit_Framework_TestSuite</title>
<ellipse fill="none" stroke="black" cx="1193" cy="-72" rx="166.877" ry="18.3848"/>
<text text-anchor="middle" x="1193" y="-68.4" font-family="Times Roman,serif" font-size="14.00" fill="gray">\PHPUnit_Framework_TestSuite</text>
</g>
<!-- \\AllHttpSourceTest&#45;&gt;\\PHPUnit_Framework_TestSuite -->
<g id="edge61" class="edge"><title>\\AllHttpSourceTest&#45;&gt;\\PHPUnit_Framework_TestSuite</title>
<path fill="none" stroke="black" d="M1510.19,-380.161C1482.98,-377.685 1452.96,-370.101 1432,-351 1345.9,-272.551 1447.08,-176.365 1360,-99 1354.49,-94.1051 1348.46,-89.9103 1342.05,-86.3256"/>
<polygon fill="none" stroke="black" points="1343.61,-83.1919 1333.11,-81.8068 1340.46,-89.4399 1343.61,-83.1919"/>
</g>
<!-- \\HttpSourceModel&#45;&gt;\\AppModel -->
<g id="edge63" class="edge"><title>\\HttpSourceModel&#45;&gt;\\AppModel</title>
<path fill="none" stroke="black" d="M1133.26,-1373.98C1096.31,-1368.72 1051.25,-1355.48 1026,-1323 871.299,-1123.99 1120.57,-380.187 954,-191 936.816,-171.482 910.159,-163.436 884.698,-160.734"/>
<polygon fill="none" stroke="black" points="884.895,-157.239 874.647,-159.926 884.334,-164.216 884.895,-157.239"/>
</g>
<!-- \\DataSource -->
<g id="node85" class="node"><title>\\DataSource</title>
<ellipse fill="none" stroke="black" cx="814" cy="-218" rx="72.1249" ry="18.3848"/>
<text text-anchor="middle" x="814" y="-214.4" font-family="Times Roman,serif" font-size="14.00" fill="gray">\DataSource</text>
</g>
<!-- \\HttpSource&#45;&gt;\\DataSource -->
<g id="edge65" class="edge"><title>\\HttpSource&#45;&gt;\\DataSource</title>
<path fill="none" stroke="black" d="M1150.49,-1572.45C1111.96,-1575.63 1056.65,-1573.05 1026,-1539 832.569,-1324.13 1147.91,-454.442 954,-240 938.332,-222.672 915.027,-215.172 891.906,-212.592"/>
<polygon fill="none" stroke="black" points="891.932,-209.083 881.679,-211.755 891.36,-216.059 891.932,-209.083"/>
</g>
<!-- \\HttpSourceConnection -->
<g id="node35" class="node"><title>\\HttpSourceConnection</title>
<polygon fill="none" stroke="black" points="1269,-1314 1117,-1314 1117,-1278 1269,-1278 1269,-1314"/>
<text text-anchor="middle" x="1193" y="-1293.1" font-family="Courier,monospace" font-size="11.00">HttpSourceConnection</text>
</g>
<!-- \\HttpSourceException -->
<g id="node36" class="node"><title>\\HttpSourceException</title>
<polygon fill="none" stroke="black" points="1648,-288 1504,-288 1504,-252 1648,-252 1648,-288"/>
<text text-anchor="middle" x="1576" y="-267.1" font-family="Courier,monospace" font-size="11.00">HttpSourceException</text>
</g>
<!-- \\CakeException -->
<g id="node87" class="node"><title>\\CakeException</title>
<ellipse fill="none" stroke="black" cx="1193" cy="-18" rx="85.7684" ry="18.3848"/>
<text text-anchor="middle" x="1193" y="-14.4" font-family="Times Roman,serif" font-size="14.00" fill="gray">\CakeException</text>
</g>
<!-- \\HttpSourceException&#45;&gt;\\CakeException -->
<g id="edge67" class="edge"><title>\\HttpSourceException&#45;&gt;\\CakeException</title>
<path fill="none" stroke="black" d="M1564.79,-251.951C1536.52,-208.171 1457.59,-96.1826 1360,-45 1338.17,-33.5499 1312.7,-26.7056 1288.33,-22.6778"/>
<polygon fill="none" stroke="black" points="1288.74,-19.2003 1278.33,-21.1687 1287.69,-26.1219 1288.74,-19.2003"/>
</g>
<!-- \\HttpSourceConfigException -->
<g id="node37" class="node"><title>\\HttpSourceConfigException</title>
<polygon fill="none" stroke="black" points="1668,-342 1484,-342 1484,-306 1668,-306 1668,-342"/>
<text text-anchor="middle" x="1576" y="-321.1" font-family="Courier,monospace" font-size="11.00">HttpSourceConfigException</text>
</g>
<!-- \\HttpSourceConfigException&#45;&gt;\\CakeException -->
<g id="edge69" class="edge"><title>\\HttpSourceConfigException&#45;&gt;\\CakeException</title>
<path fill="none" stroke="black" d="M1483.36,-321.949C1464.54,-317.587 1446.2,-309.934 1432,-297 1345.9,-218.551 1447.08,-122.365 1360,-45 1340.24,-27.4437 1313.73,-18.8947 1287.66,-15.1896"/>
<polygon fill="none" stroke="black" points="1288.05,-11.7115 1277.71,-13.998 1287.22,-18.6618 1288.05,-11.7115"/>
</g>
<!-- \\HttpSourceEndpoint&#45;&gt;\\HttpSourceConfigFactoryItem -->
<g id="edge71" class="edge"><title>\\HttpSourceEndpoint&#45;&gt;\\HttpSourceConfigFactoryItem</title>
<path fill="none" stroke="black" d="M375.63,-1679.69C332.33,-1683.25 275.632,-1687.9 226.27,-1691.95"/>
<polygon fill="none" stroke="black" points="225.859,-1688.47 216.179,-1692.78 226.432,-1695.45 225.859,-1688.47"/>
</g>
<!-- \\HttpSourceEndpointItem&#45;&gt;\\HttpSourceConfigFactoryItem -->
<g id="edge73" class="edge"><title>\\HttpSourceEndpointItem&#45;&gt;\\HttpSourceConfigFactoryItem</title>
<path fill="none" stroke="black" d="M361.871,-1632.16C337.896,-1636.24 311.791,-1641.25 288,-1647 250.643,-1656.03 209.55,-1668.83 176.899,-1679.69"/>
<polygon fill="none" stroke="black" points="175.418,-1676.5 167.051,-1683 177.645,-1683.13 175.418,-1676.5"/>
</g>
<!-- \\HttpSourceConfig&#45;&gt;\\HttpSourceConfigFactoryItem -->
<g id="edge75" class="edge"><title>\\HttpSourceConfig&#45;&gt;\\HttpSourceConfigFactoryItem</title>
<path fill="none" stroke="black" d="M382.343,-1722.86C338.385,-1719.25 278.429,-1714.33 226.533,-1710.07"/>
<polygon fill="none" stroke="black" points="226.521,-1706.56 216.269,-1709.23 225.949,-1713.54 226.521,-1706.56"/>
</g>
<!-- \\HttpSourceCondition&#45;&gt;\\HttpSourceField -->
<g id="edge77" class="edge"><title>\\HttpSourceCondition&#45;&gt;\\HttpSourceField</title>
<path fill="none" stroke="black" d="M1120.37,-1674C1051.99,-1674 950.284,-1674 883.08,-1674"/>
<polygon fill="none" stroke="black" points="883.012,-1670.5 873.012,-1674 883.012,-1677.5 883.012,-1670.5"/>
</g>
<!-- \\HttpSourceField&#45;&gt;\\HttpSourceEndpointItem -->
<g id="edge79" class="edge"><title>\\HttpSourceField&#45;&gt;\\HttpSourceEndpointItem</title>
<path fill="none" stroke="black" d="M754.714,-1665.32C696.386,-1656.79 606.447,-1643.63 538.488,-1633.68"/>
<polygon fill="none" stroke="black" points="538.604,-1630.16 528.203,-1632.18 537.59,-1637.09 538.604,-1630.16"/>
</g>
<!-- \\HttpSourceResult&#45;&gt;\\HttpSourceEndpointItem -->
<g id="edge81" class="edge"><title>\\HttpSourceResult&#45;&gt;\\HttpSourceEndpointItem</title>
<path fill="none" stroke="black" d="M751.404,-1575.16C692.926,-1583.72 604.873,-1596.6 538.145,-1606.37"/>
<polygon fill="none" stroke="black" points="537.432,-1602.94 528.044,-1607.85 538.446,-1609.86 537.432,-1602.94"/>
</g>
<!-- \\TestHttpSourceModel -->
<g id="node46" class="node"><title>\\TestHttpSourceModel</title>
<polygon fill="none" stroke="black" points="1648,-1422 1504,-1422 1504,-1386 1648,-1386 1648,-1422"/>
<text text-anchor="middle" x="1576" y="-1401.1" font-family="Courier,monospace" font-size="11.00">TestHttpSourceModel</text>
</g>
<!-- \\TestHttpSourceModel&#45;&gt;\\HttpSourceModel -->
<g id="edge83" class="edge"><title>\\TestHttpSourceModel&#45;&gt;\\HttpSourceModel</title>
<path fill="none" stroke="black" d="M1503.06,-1398.86C1434,-1393.99 1331.04,-1386.73 1262.98,-1381.93"/>
<polygon fill="none" stroke="black" points="1263,-1378.43 1252.78,-1381.21 1262.51,-1385.41 1263,-1378.43"/>
</g>
<!-- \\TestHttpSource -->
<g id="node47" class="node"><title>\\TestHttpSource</title>
<polygon fill="none" stroke="black" points="1631,-1584 1521,-1584 1521,-1548 1631,-1548 1631,-1584"/>
<text text-anchor="middle" x="1576" y="-1563.1" font-family="Courier,monospace" font-size="11.00">TestHttpSource</text>
</g>
<!-- \\TestHttpSource&#45;&gt;\\HttpSource -->
<g id="edge85" class="edge"><title>\\TestHttpSource&#45;&gt;\\HttpSource</title>
<path fill="none" stroke="black" d="M1520.31,-1566C1446.75,-1566 1318.1,-1566 1245.95,-1566"/>
<polygon fill="none" stroke="black" points="1245.72,-1562.5 1235.72,-1566 1245.72,-1569.5 1245.72,-1562.5"/>
</g>
<!-- \\TestHttpSourceConnection -->
<g id="node48" class="node"><title>\\TestHttpSourceConnection</title>
<polygon fill="none" stroke="black" points="1665,-1314 1487,-1314 1487,-1278 1665,-1278 1665,-1314"/>
<text text-anchor="middle" x="1576" y="-1293.1" font-family="Courier,monospace" font-size="11.00">TestHttpSourceConnection</text>
</g>
<!-- \\TestHttpSourceConnection&#45;&gt;\\HttpSourceConnection -->
<g id="edge87" class="edge"><title>\\TestHttpSourceConnection&#45;&gt;\\HttpSourceConnection</title>
<path fill="none" stroke="black" d="M1486.2,-1296C1423.69,-1296 1340.79,-1296 1279.1,-1296"/>
<polygon fill="none" stroke="black" points="1279,-1292.5 1269,-1296 1279,-1299.5 1279,-1292.5"/>
</g>
</g>
</svg>
