<?xml version="1.0" encoding="UTF-8" standalone="no"?>
<!DOCTYPE svg PUBLIC "-//W3C//DTD SVG 1.1//EN"
 "http://www.w3.org/Graphics/SVG/1.1/DTD/svg11.dtd">
<!-- Generated by graphviz version 2.26.3 (20100126.1600)
 -->
<!-- Title: G Pages: 1 -->
<svg width="1744pt" height="1846pt"
 viewBox="0.00 0.00 1744.00 1846.00" xmlns="http://www.w3.org/2000/svg" xmlns:xlink="http://www.w3.org/1999/xlink">
<g id="graph1" class="graph" transform="scale(1 1) rotate(0) translate(4 1842)">
<title>G</title>
<polygon fill="white" stroke="white" points="-4,5 -4,-1842 1741,-1842 1741,5 -4,5"/>
<g id="graph2" class="cluster"><title>cluster_Global</title>
<polyline fill="none" stroke="gray" points="20,-244 1716,-244 "/>
<path fill="none" stroke="gray" d="M1716,-244C1722,-244 1728,-250 1728,-256"/>
<polyline fill="none" stroke="gray" points="1728,-256 1728,-1818 "/>
<path fill="none" stroke="gray" d="M1728,-1818C1728,-1824 1722,-1830 1716,-1830"/>
<polyline fill="none" stroke="gray" points="1716,-1830 20,-1830 "/>
<path fill="none" stroke="gray" d="M20,-1830C14,-1830 8,-1824 8,-1818"/>
<polyline fill="none" stroke="gray" points="8,-1818 8,-256 "/>
<path fill="none" stroke="gray" d="M8,-256C8,-250 14,-244 20,-244"/>
<text text-anchor="middle" x="868" y="-1816.1" font-family="Times Roman,serif" font-size="11.00" fill="gray">Global</text>
</g>
<!-- \\TestHttpSourceModel -->
<g id="node2" class="node"><title>\\TestHttpSourceModel</title>
<polygon fill="none" stroke="black" points="1648,-1476 1504,-1476 1504,-1440 1648,-1440 1648,-1476"/>
<text text-anchor="middle" x="1576" y="-1455.1" font-family="Courier,monospace" font-size="11.00">TestHttpSourceModel</text>
</g>
<!-- \\HttpSourceModel -->
<g id="node45" class="node"><title>\\HttpSourceModel</title>
<polygon fill="none" stroke="black" points="1252,-1435 1134,-1435 1134,-1399 1252,-1399 1252,-1435"/>
<text text-anchor="start" x="1159" y="-1422.43" font-family="Courier,monospace" font-size="11.00">«abstract»</text>
<text text-anchor="start" x="1142" y="-1409.23" font-family="Courier,monospace" font-size="11.00">HttpSourceModel</text>
</g>
<!-- \\TestHttpSourceModel&#45;&gt;\\HttpSourceModel -->
<g id="edge3" class="edge"><title>\\TestHttpSourceModel&#45;&gt;\\HttpSourceModel</title>
<path fill="none" stroke="black" d="M1503.06,-1450.19C1434,-1442.8 1331.04,-1431.78 1262.98,-1424.49"/>
<polygon fill="none" stroke="black" points="1263.1,-1420.98 1252.78,-1423.4 1262.35,-1427.94 1263.1,-1420.98"/>
</g>
<!-- \\TestHttpSource -->
<g id="node3" class="node"><title>\\TestHttpSource</title>
<polygon fill="none" stroke="black" points="1631,-1692 1521,-1692 1521,-1656 1631,-1656 1631,-1692"/>
<text text-anchor="middle" x="1576" y="-1671.1" font-family="Courier,monospace" font-size="11.00">TestHttpSource</text>
</g>
<!-- \\HttpSource -->
<g id="node47" class="node"><title>\\HttpSource</title>
<polygon fill="none" stroke="black" points="1235,-1570 1151,-1570 1151,-1534 1235,-1534 1235,-1570"/>
<text text-anchor="start" x="1159" y="-1557.43" font-family="Courier,monospace" font-size="11.00">«abstract»</text>
<text text-anchor="start" x="1159" y="-1544.23" font-family="Courier,monospace" font-size="11.00">HttpSource</text>
</g>
<!-- \\TestHttpSource&#45;&gt;\\HttpSource -->
<g id="edge5" class="edge"><title>\\TestHttpSource&#45;&gt;\\HttpSource</title>
<path fill="none" stroke="black" d="M1520.29,-1670.97C1492.54,-1667.65 1459.2,-1660.85 1432,-1647 1392.78,-1627.02 1399.47,-1598.48 1360,-1579 1324.44,-1561.44 1279.93,-1554.9 1245.81,-1552.63"/>
<polygon fill="none" stroke="black" points="1245.75,-1549.12 1235.57,-1552.06 1245.36,-1556.11 1245.75,-1549.12"/>
</g>
<!-- \\TestHttpSourceConnection -->
<g id="node4" class="node"><title>\\TestHttpSourceConnection</title>
<polygon fill="none" stroke="black" points="1665,-1746 1487,-1746 1487,-1710 1665,-1710 1665,-1746"/>
<text text-anchor="middle" x="1576" y="-1725.1" font-family="Courier,monospace" font-size="11.00">TestHttpSourceConnection</text>
</g>
<!-- \\HttpSourceConnection -->
<g id="node46" class="node"><title>\\HttpSourceConnection</title>
<polygon fill="none" stroke="black" points="1269,-1624 1117,-1624 1117,-1588 1269,-1588 1269,-1624"/>
<text text-anchor="middle" x="1193" y="-1603.1" font-family="Courier,monospace" font-size="11.00">HttpSourceConnection</text>
</g>
<!-- \\TestHttpSourceConnection&#45;&gt;\\HttpSourceConnection -->
<g id="edge7" class="edge"><title>\\TestHttpSourceConnection&#45;&gt;\\HttpSourceConnection</title>
<path fill="none" stroke="black" d="M1486.19,-1719.34C1467.62,-1715.32 1448.66,-1709.48 1432,-1701 1392.78,-1681.02 1399.47,-1652.48 1360,-1633 1335.25,-1620.78 1306.16,-1613.89 1279.25,-1610.07"/>
<polygon fill="none" stroke="black" points="1279.43,-1606.57 1269.06,-1608.75 1278.53,-1613.51 1279.43,-1606.57"/>
</g>
<!-- \\HttpSourceAppTest -->
<g id="node5" class="node"><title>\\HttpSourceAppTest</title>
<polygon fill="none" stroke="black" points="1259,-1314 1127,-1314 1127,-1278 1259,-1278 1259,-1314"/>
<text text-anchor="start" x="1159" y="-1301.43" font-family="Courier,monospace" font-size="11.00">«abstract»</text>
<text text-anchor="start" x="1135.5" y="-1288.23" font-family="Courier,monospace" font-size="11.00">HttpSourceAppTest</text>
</g>
<!-- \\CakeTestCase -->
<g id="node53" class="node"><title>\\CakeTestCase</title>
<ellipse fill="none" stroke="black" cx="1193" cy="-72" rx="82.0244" ry="18.3848"/>
<text text-anchor="middle" x="1193" y="-68.4" font-family="Times Roman,serif" font-size="14.00" fill="gray">\CakeTestCase</text>
</g>
<!-- \\HttpSourceAppTest&#45;&gt;\\CakeTestCase -->
<g id="edge9" class="edge"><title>\\HttpSourceAppTest&#45;&gt;\\CakeTestCase</title>
<path fill="none" stroke="black" d="M1259.38,-1306.77C1305.79,-1310.08 1364.84,-1304.9 1396,-1265 1435.56,-1214.34 1435.56,-158.664 1396,-108 1368,-72.1424 1317.77,-63.0163 1274.28,-62.917"/>
<polygon fill="none" stroke="black" points="1274.2,-59.4176 1264.25,-63.0498 1274.3,-66.417 1274.2,-59.4176"/>
</g>
<!-- \\HttpSourceUserFixture -->
<g id="node6" class="node"><title>\\HttpSourceUserFixture</title>
<polygon fill="none" stroke="black" points="1655,-1152 1497,-1152 1497,-1116 1655,-1116 1655,-1152"/>
<text text-anchor="middle" x="1576" y="-1131.1" font-family="Courier,monospace" font-size="11.00">HttpSourceUserFixture</text>
</g>
<!-- \\CakeTestFixture -->
<g id="node55" class="node"><title>\\CakeTestFixture</title>
<ellipse fill="none" stroke="black" cx="1193" cy="-218" rx="92.1303" ry="18.3848"/>
<text text-anchor="middle" x="1193" y="-214.4" font-family="Times Roman,serif" font-size="14.00" fill="gray">\CakeTestFixture</text>
</g>
<!-- \\HttpSourceUserFixture&#45;&gt;\\CakeTestFixture -->
<g id="edge11" class="edge"><title>\\HttpSourceUserFixture&#45;&gt;\\CakeTestFixture</title>
<path fill="none" stroke="black" d="M1496.73,-1136.79C1472.7,-1133.46 1448.36,-1125.13 1432,-1107 1302.48,-963.472 1493.38,-379.955 1360,-240 1340.06,-219.074 1310.62,-211.028 1281.99,-209.036"/>
<polygon fill="none" stroke="black" points="1282.06,-205.535 1271.91,-208.572 1281.74,-212.528 1282.06,-205.535"/>
</g>
<!-- \\HttpSourceUsersDocumentFixture -->
<g id="node7" class="node"><title>\\HttpSourceUsersDocumentFixture</title>
<polygon fill="none" stroke="black" points="1685,-1260 1467,-1260 1467,-1224 1685,-1224 1685,-1260"/>
<text text-anchor="middle" x="1576" y="-1239.1" font-family="Courier,monospace" font-size="11.00">HttpSourceUsersDocumentFixture</text>
</g>
<!-- \\HttpSourceUsersDocumentFixture&#45;&gt;\\CakeTestFixture -->
<g id="edge13" class="edge"><title>\\HttpSourceUsersDocumentFixture&#45;&gt;\\CakeTestFixture</title>
<path fill="none" stroke="black" d="M1466.33,-1237.49C1453.29,-1232.62 1441.32,-1225.43 1432,-1215 1287.19,-1053.05 1509.16,-397.959 1360,-240 1340.06,-218.888 1310.47,-210.844 1281.71,-208.906"/>
<polygon fill="none" stroke="black" points="1281.73,-205.404 1271.59,-208.464 1281.43,-212.397 1281.73,-205.404"/>
</g>
<!-- \\HttpSourceDocument -->
<g id="node8" class="node"><title>\\HttpSourceDocument</title>
<polygon fill="none" stroke="black" points="1645,-1422 1507,-1422 1507,-1386 1645,-1386 1645,-1422"/>
<text text-anchor="middle" x="1576" y="-1401.1" font-family="Courier,monospace" font-size="11.00">HttpSourceDocument</text>
</g>
<!-- \\HttpSourceDocument&#45;&gt;\\HttpSourceModel -->
<g id="edge15" class="edge"><title>\\HttpSourceDocument&#45;&gt;\\HttpSourceModel</title>
<path fill="none" stroke="black" d="M1506.64,-1406.35C1437.65,-1408.7 1332.34,-1412.27 1263.09,-1414.62"/>
<polygon fill="none" stroke="black" points="1262.6,-1411.14 1252.72,-1414.97 1262.83,-1418.13 1262.6,-1411.14"/>
</g>
<!-- \\HttpSourceUser -->
<g id="node9" class="node"><title>\\HttpSourceUser</title>
<polygon fill="none" stroke="black" points="1631,-1098 1521,-1098 1521,-1062 1631,-1062 1631,-1098"/>
<text text-anchor="middle" x="1576" y="-1077.1" font-family="Courier,monospace" font-size="11.00">HttpSourceUser</text>
</g>
<!-- \\AppModel -->
<g id="node59" class="node"><title>\\AppModel</title>
<ellipse fill="none" stroke="black" cx="814" cy="-110" rx="62.2254" ry="18.3848"/>
<text text-anchor="middle" x="814" y="-106.4" font-family="Times Roman,serif" font-size="14.00" fill="gray">\AppModel</text>
</g>
<!-- \\HttpSourceUser&#45;&gt;\\AppModel -->
<g id="edge17" class="edge"><title>\\HttpSourceUser&#45;&gt;\\AppModel</title>
<path fill="none" stroke="black" d="M1520.36,-1084.62C1489.82,-1083.92 1453.82,-1077.17 1432,-1053 1303.18,-910.325 1493.87,-328.942 1360,-191 1307.98,-137.393 1099.67,-165.342 1026,-153 993.67,-147.584 986.097,-143.66 954,-137 928.657,-131.741 900.66,-126.274 876.406,-121.646"/>
<polygon fill="none" stroke="black" points="876.737,-118.146 866.259,-119.717 875.429,-125.023 876.737,-118.146"/>
</g>
<!-- \\AllHttpSourceTest -->
<g id="node10" class="node"><title>\\AllHttpSourceTest</title>
<polygon fill="none" stroke="black" points="1641,-1044 1511,-1044 1511,-1008 1641,-1008 1641,-1044"/>
<text text-anchor="middle" x="1576" y="-1023.1" font-family="Courier,monospace" font-size="11.00">AllHttpSourceTest</text>
</g>
<!-- \\PHPUnit_Framework_TestSuite -->
<g id="node61" class="node"><title>\\PHPUnit_Framework_TestSuite</title>
<ellipse fill="none" stroke="black" cx="1193" cy="-126" rx="166.877" ry="18.3848"/>
<text text-anchor="middle" x="1193" y="-122.4" font-family="Times Roman,serif" font-size="14.00" fill="gray">\PHPUnit_Framework_TestSuite</text>
</g>
<!-- \\AllHttpSourceTest&#45;&gt;\\PHPUnit_Framework_TestSuite -->
<g id="edge19" class="edge"><title>\\AllHttpSourceTest&#45;&gt;\\PHPUnit_Framework_TestSuite</title>
<path fill="none" stroke="black" d="M1510.19,-1030.14C1482.14,-1028.21 1451.45,-1020.5 1432,-999 1306.16,-859.907 1485.57,-297.343 1360,-158 1354.03,-151.38 1347.15,-145.876 1339.66,-141.317"/>
<polygon fill="none" stroke="black" points="1341.05,-138.09 1330.59,-136.39 1337.7,-144.24 1341.05,-138.09"/>
</g>
<!-- \\HttpSourceConfigFactoryItemTest -->
<g id="node11" class="node"><title>\\HttpSourceConfigFactoryItemTest</title>
<polygon fill="none" stroke="black" points="1689,-990 1463,-990 1463,-954 1689,-954 1689,-990"/>
<text text-anchor="middle" x="1576" y="-969.1" font-family="Courier,monospace" font-size="11.00">HttpSourceConfigFactoryItemTest</text>
</g>
<!-- \\HttpSourceConfigFactoryItemTest&#45;&gt;\\CakeTestCase -->
<g id="edge21" class="edge"><title>\\HttpSourceConfigFactoryItemTest&#45;&gt;\\CakeTestCase</title>
<path fill="none" stroke="black" d="M1462.9,-966.012C1451.22,-961.211 1440.53,-954.433 1432,-945 1305.45,-805.054 1488.29,-237.35 1360,-99 1339.46,-76.8464 1308.46,-68.1374 1278.72,-65.6451"/>
<polygon fill="none" stroke="black" points="1278.9,-62.1495 1268.7,-65.0277 1278.47,-69.1362 1278.9,-62.1495"/>
</g>
<!-- \\HttpSourceConfigFactoryItemiAmExistsANDValid -->
<g id="node12" class="node"><title>\\HttpSourceConfigFactoryItemiAmExistsANDValid</title>
<polygon fill="none" stroke="black" points="602,-1800 288,-1800 288,-1764 602,-1764 602,-1800"/>
<text text-anchor="middle" x="445" y="-1779.1" font-family="Courier,monospace" font-size="11.00">HttpSourceConfigFactoryItemiAmExistsANDValid</text>
</g>
<!-- \\HttpSourceConfigFactoryItem -->
<g id="node42" class="node"><title>\\HttpSourceConfigFactoryItem</title>
<polygon fill="none" stroke="black" points="216,-1719 16,-1719 16,-1683 216,-1683 216,-1719"/>
<text text-anchor="start" x="82" y="-1706.43" font-family="Courier,monospace" font-size="11.00">«abstract»</text>
<text text-anchor="start" x="24.5" y="-1693.23" font-family="Courier,monospace" font-size="11.00">HttpSourceConfigFactoryItem</text>
</g>
<!-- \\HttpSourceConfigFactoryItemiAmExistsANDValid&#45;&gt;\\HttpSourceConfigFactoryItem -->
<g id="edge23" class="edge"><title>\\HttpSourceConfigFactoryItemiAmExistsANDValid&#45;&gt;\\HttpSourceConfigFactoryItem</title>
<path fill="none" stroke="black" d="M329.315,-1763.92C315.337,-1761.2 301.307,-1758.22 288,-1755 250.643,-1745.97 209.55,-1733.17 176.899,-1722.31"/>
<polygon fill="none" stroke="black" points="177.645,-1718.87 167.051,-1719 175.418,-1725.5 177.645,-1718.87"/>
</g>
<!-- \\HttpSourceConditionTest -->
<g id="node13" class="node"><title>\\HttpSourceConditionTest</title>
<polygon fill="none" stroke="black" points="1662,-882 1490,-882 1490,-846 1662,-846 1662,-882"/>
<text text-anchor="middle" x="1576" y="-861.1" font-family="Courier,monospace" font-size="11.00">HttpSourceConditionTest</text>
</g>
<!-- \\HttpSourceConditionTest&#45;&gt;\\CakeTestCase -->
<g id="edge25" class="edge"><title>\\HttpSourceConditionTest&#45;&gt;\\CakeTestCase</title>
<path fill="none" stroke="black" d="M1489.75,-865.507C1468.12,-861.572 1446.86,-853.228 1432,-837 1320.73,-715.466 1472.79,-219.13 1360,-99 1339.5,-77.1653 1308.83,-68.4417 1279.35,-65.8485"/>
<polygon fill="none" stroke="black" points="1279.2,-62.3313 1268.99,-65.1755 1278.74,-69.3165 1279.2,-62.3313"/>
</g>
<!-- \\HttpSourceConfigTest -->
<g id="node14" class="node"><title>\\HttpSourceConfigTest</title>
<polygon fill="none" stroke="black" points="1652,-828 1500,-828 1500,-792 1652,-792 1652,-828"/>
<text text-anchor="middle" x="1576" y="-807.1" font-family="Courier,monospace" font-size="11.00">HttpSourceConfigTest</text>
</g>
<!-- \\HttpSourceConfigTest&#45;&gt;\\CakeTestCase -->
<g id="edge27" class="edge"><title>\\HttpSourceConfigTest&#45;&gt;\\CakeTestCase</title>
<path fill="none" stroke="black" d="M1499.97,-812.967C1474.99,-809.904 1449.25,-801.695 1432,-783 1224.72,-558.332 1570.08,-321.053 1360,-99 1339.51,-77.339 1309,-68.6126 1279.65,-65.9682"/>
<polygon fill="none" stroke="black" points="1279.54,-62.4534 1269.33,-65.2752 1279.08,-69.4377 1279.54,-62.4534"/>
</g>
<!-- \\HttpSourceEndpointItemTest -->
<g id="node15" class="node"><title>\\HttpSourceEndpointItemTest</title>
<polygon fill="none" stroke="black" points="1672,-774 1480,-774 1480,-738 1672,-738 1672,-774"/>
<text text-anchor="middle" x="1576" y="-753.1" font-family="Courier,monospace" font-size="11.00">HttpSourceEndpointItemTest</text>
</g>
<!-- \\HttpSourceEndpointItemTest&#45;&gt;\\CakeTestCase -->
<g id="edge29" class="edge"><title>\\HttpSourceEndpointItemTest&#45;&gt;\\CakeTestCase</title>
<path fill="none" stroke="black" d="M1479.84,-755.169C1461.8,-750.626 1444.65,-742.591 1432,-729 1239.98,-522.721 1554.59,-302.857 1360,-99 1339.5,-77.5256 1309.15,-68.8001 1279.93,-66.1036"/>
<polygon fill="none" stroke="black" points="1279.88,-62.5916 1269.66,-65.3903 1279.39,-69.5748 1279.88,-62.5916"/>
</g>
<!-- \\HttpSourceEndpointItemiAmExistsANDValid -->
<g id="node16" class="node"><title>\\HttpSourceEndpointItemiAmExistsANDValid</title>
<polygon fill="none" stroke="black" points="954,-1584 674,-1584 674,-1548 954,-1548 954,-1584"/>
<text text-anchor="middle" x="814" y="-1563.1" font-family="Courier,monospace" font-size="11.00">HttpSourceEndpointItemiAmExistsANDValid</text>
</g>
<!-- \\HttpSourceEndpointItem -->
<g id="node39" class="node"><title>\\HttpSourceEndpointItem</title>
<polygon fill="none" stroke="black" points="528,-1638 362,-1638 362,-1602 528,-1602 528,-1638"/>
<text text-anchor="start" x="411" y="-1625.43" font-family="Courier,monospace" font-size="11.00">«abstract»</text>
<text text-anchor="start" x="370.5" y="-1612.23" font-family="Courier,monospace" font-size="11.00">HttpSourceEndpointItem</text>
</g>
<!-- \\HttpSourceEndpointItemiAmExistsANDValid&#45;&gt;\\HttpSourceEndpointItem -->
<g id="edge31" class="edge"><title>\\HttpSourceEndpointItemiAmExistsANDValid&#45;&gt;\\HttpSourceEndpointItem</title>
<path fill="none" stroke="black" d="M690.872,-1584.02C641.081,-1591.31 584.561,-1599.58 538.276,-1606.35"/>
<polygon fill="none" stroke="black" points="537.647,-1602.9 528.26,-1607.82 538.661,-1609.83 537.647,-1602.9"/>
</g>
<!-- \\HttpSourceResultTest -->
<g id="node17" class="node"><title>\\HttpSourceResultTest</title>
<polygon fill="none" stroke="black" points="1652,-720 1500,-720 1500,-684 1652,-684 1652,-720"/>
<text text-anchor="middle" x="1576" y="-699.1" font-family="Courier,monospace" font-size="11.00">HttpSourceResultTest</text>
</g>
<!-- \\HttpSourceResultTest&#45;&gt;\\CakeTestCase -->
<g id="edge33" class="edge"><title>\\HttpSourceResultTest&#45;&gt;\\CakeTestCase</title>
<path fill="none" stroke="black" d="M1499.79,-704.732C1474.96,-701.616 1449.34,-693.433 1432,-675 1255.22,-487.094 1539.12,-284.676 1360,-99 1339.39,-77.6341 1309.02,-68.9314 1279.81,-66.2229"/>
<polygon fill="none" stroke="black" points="1279.76,-62.7112 1269.54,-65.5039 1279.27,-69.6941 1279.76,-62.7112"/>
</g>
<!-- \\HttpSourceFieldTest -->
<g id="node18" class="node"><title>\\HttpSourceFieldTest</title>
<polygon fill="none" stroke="black" points="1648,-666 1504,-666 1504,-630 1648,-630 1648,-666"/>
<text text-anchor="middle" x="1576" y="-645.1" font-family="Courier,monospace" font-size="11.00">HttpSourceFieldTest</text>
</g>
<!-- \\HttpSourceFieldTest&#45;&gt;\\CakeTestCase -->
<g id="edge35" class="edge"><title>\\HttpSourceFieldTest&#45;&gt;\\CakeTestCase</title>
<path fill="none" stroke="black" d="M1503.29,-651.002C1477.44,-648.198 1450.25,-640.151 1432,-621 1270.44,-451.449 1523.67,-266.514 1360,-99 1339.34,-77.8595 1309.12,-69.1675 1280.05,-66.4038"/>
<polygon fill="none" stroke="black" points="1280.05,-62.8952 1269.83,-65.6628 1279.55,-69.8769 1280.05,-62.8952"/>
</g>
<!-- \\HttpSourceEndpointTest -->
<g id="node19" class="node"><title>\\HttpSourceEndpointTest</title>
<polygon fill="none" stroke="black" points="1658,-612 1494,-612 1494,-576 1658,-576 1658,-612"/>
<text text-anchor="middle" x="1576" y="-591.1" font-family="Courier,monospace" font-size="11.00">HttpSourceEndpointTest</text>
</g>
<!-- \\HttpSourceEndpointTest&#45;&gt;\\CakeTestCase -->
<g id="edge37" class="edge"><title>\\HttpSourceEndpointTest&#45;&gt;\\CakeTestCase</title>
<path fill="none" stroke="black" d="M1493.34,-595.477C1470.7,-591.761 1448.01,-583.541 1432,-567 1285.64,-415.778 1508.24,-248.376 1360,-99 1339.27,-78.1143 1309.19,-69.4408 1280.25,-66.6198"/>
<polygon fill="none" stroke="black" points="1280.32,-63.1147 1270.08,-65.8555 1279.79,-70.095 1280.32,-63.1147"/>
</g>
<!-- \\HttpSourceConfigFactoryTest -->
<g id="node20" class="node"><title>\\HttpSourceConfigFactoryTest</title>
<polygon fill="none" stroke="black" points="1675,-558 1477,-558 1477,-522 1675,-522 1675,-558"/>
<text text-anchor="middle" x="1576" y="-537.1" font-family="Courier,monospace" font-size="11.00">HttpSourceConfigFactoryTest</text>
</g>
<!-- \\HttpSourceConfigFactoryTest&#45;&gt;\\CakeTestCase -->
<g id="edge39" class="edge"><title>\\HttpSourceConfigFactoryTest&#45;&gt;\\CakeTestCase</title>
<path fill="none" stroke="black" d="M1476.37,-537.518C1459.77,-532.873 1444.06,-525.22 1432,-513 1300.81,-380.074 1492.84,-230.272 1360,-99 1339.26,-78.5025 1309.48,-69.8436 1280.8,-66.9234"/>
<polygon fill="none" stroke="black" points="1280.97,-63.4255 1270.72,-66.1199 1280.41,-70.4034 1280.97,-63.4255"/>
</g>
<!-- \\HttpSourceConfigFactoryiAmExists -->
<g id="node21" class="node"><title>\\HttpSourceConfigFactoryiAmExists</title>
<polygon fill="none" stroke="black" points="1692,-936 1460,-936 1460,-900 1692,-900 1692,-936"/>
<text text-anchor="middle" x="1576" y="-915.1" font-family="Courier,monospace" font-size="11.00">HttpSourceConfigFactoryiAmExists</text>
</g>
<!-- \\HttpSourceConfigFactoryiAmExistsANDValid -->
<g id="node22" class="node"><title>\\HttpSourceConfigFactoryiAmExistsANDValid</title>
<polygon fill="none" stroke="black" points="1719,-1584 1433,-1584 1433,-1548 1719,-1548 1719,-1584"/>
<text text-anchor="middle" x="1576" y="-1563.1" font-family="Courier,monospace" font-size="11.00">HttpSourceConfigFactoryiAmExistsANDValid</text>
</g>
<!-- \\HttpSourceConfigFactory -->
<g id="node40" class="node"><title>\\HttpSourceConfigFactory</title>
<polygon fill="none" stroke="black" points="1279,-1516 1107,-1516 1107,-1480 1279,-1480 1279,-1516"/>
<text text-anchor="middle" x="1193" y="-1495.1" font-family="Courier,monospace" font-size="11.00">HttpSourceConfigFactory</text>
</g>
<!-- \\HttpSourceConfigFactoryiAmExistsANDValid&#45;&gt;\\HttpSourceConfigFactory -->
<g id="edge41" class="edge"><title>\\HttpSourceConfigFactoryiAmExistsANDValid&#45;&gt;\\HttpSourceConfigFactory</title>
<path fill="none" stroke="black" d="M1479.16,-1547.93C1463.39,-1544.97 1447.24,-1541.91 1432,-1539 1399.98,-1532.89 1392.09,-1530.71 1360,-1525 1337.21,-1520.94 1312.61,-1516.82 1289.49,-1513.07"/>
<polygon fill="none" stroke="black" points="1289.76,-1509.56 1279.33,-1511.42 1288.65,-1516.47 1289.76,-1509.56"/>
</g>
<!-- \\HttpSourceConfigiAmExistsANDValid -->
<g id="node23" class="node"><title>\\HttpSourceConfigiAmExistsANDValid</title>
<polygon fill="none" stroke="black" points="933,-1800 695,-1800 695,-1764 933,-1764 933,-1800"/>
<text text-anchor="middle" x="814" y="-1779.1" font-family="Courier,monospace" font-size="11.00">HttpSourceConfigiAmExistsANDValid</text>
</g>
<!-- \\HttpSourceConfig -->
<g id="node43" class="node"><title>\\HttpSourceConfig</title>
<polygon fill="none" stroke="black" points="507,-1746 383,-1746 383,-1710 507,-1710 507,-1746"/>
<text text-anchor="middle" x="445" y="-1725.1" font-family="Courier,monospace" font-size="11.00">HttpSourceConfig</text>
</g>
<!-- \\HttpSourceConfigiAmExistsANDValid&#45;&gt;\\HttpSourceConfig -->
<g id="edge43" class="edge"><title>\\HttpSourceConfigiAmExistsANDValid&#45;&gt;\\HttpSourceConfig</title>
<path fill="none" stroke="black" d="M694.451,-1764.51C636.257,-1755.99 568.18,-1746.03 517.859,-1738.66"/>
<polygon fill="none" stroke="black" points="518.122,-1735.16 507.721,-1737.18 517.109,-1742.09 518.122,-1735.16"/>
</g>
<!-- \\HttpSourceEndpointiAmExistsANDValid -->
<g id="node24" class="node"><title>\\HttpSourceEndpointiAmExistsANDValid</title>
<polygon fill="none" stroke="black" points="940,-1746 688,-1746 688,-1710 940,-1710 940,-1746"/>
<text text-anchor="middle" x="814" y="-1725.1" font-family="Courier,monospace" font-size="11.00">HttpSourceEndpointiAmExistsANDValid</text>
</g>
<!-- \\HttpSourceEndpoint -->
<g id="node44" class="node"><title>\\HttpSourceEndpoint</title>
<polygon fill="none" stroke="black" points="514,-1692 376,-1692 376,-1656 514,-1656 514,-1692"/>
<text text-anchor="middle" x="445" y="-1671.1" font-family="Courier,monospace" font-size="11.00">HttpSourceEndpoint</text>
</g>
<!-- \\HttpSourceEndpointiAmExistsANDValid&#45;&gt;\\HttpSourceEndpoint -->
<g id="edge45" class="edge"><title>\\HttpSourceEndpointiAmExistsANDValid&#45;&gt;\\HttpSourceEndpoint</title>
<path fill="none" stroke="black" d="M690.872,-1709.98C635.89,-1701.94 572.701,-1692.69 524.151,-1685.58"/>
<polygon fill="none" stroke="black" points="524.422,-1682.09 514.021,-1684.1 523.409,-1689.01 524.422,-1682.09"/>
</g>
<!-- \\HttpSourceConditioniAmExistsANDValid -->
<g id="node25" class="node"><title>\\HttpSourceConditioniAmExistsANDValid</title>
<polygon fill="none" stroke="black" points="1706,-1800 1446,-1800 1446,-1764 1706,-1764 1706,-1800"/>
<text text-anchor="middle" x="1576" y="-1779.1" font-family="Courier,monospace" font-size="11.00">HttpSourceConditioniAmExistsANDValid</text>
</g>
<!-- \\HttpSourceCondition -->
<g id="node41" class="node"><title>\\HttpSourceCondition</title>
<polygon fill="none" stroke="black" points="1265,-1678 1121,-1678 1121,-1642 1265,-1642 1265,-1678"/>
<text text-anchor="middle" x="1193" y="-1657.1" font-family="Courier,monospace" font-size="11.00">HttpSourceCondition</text>
</g>
<!-- \\HttpSourceConditioniAmExistsANDValid&#45;&gt;\\HttpSourceCondition -->
<g id="edge47" class="edge"><title>\\HttpSourceConditioniAmExistsANDValid&#45;&gt;\\HttpSourceCondition</title>
<path fill="none" stroke="black" d="M1453,-1763.99C1445.74,-1761.38 1438.69,-1758.41 1432,-1755 1392.78,-1735.02 1399.47,-1706.48 1360,-1687 1334.2,-1674.26 1303.69,-1667.32 1275.85,-1663.6"/>
<polygon fill="none" stroke="black" points="1276.08,-1660.11 1265.73,-1662.37 1275.24,-1667.05 1276.08,-1660.11"/>
</g>
<!-- \\HttpSourceFieldiAmExistsANDValid -->
<g id="node26" class="node"><title>\\HttpSourceFieldiAmExistsANDValid</title>
<polygon fill="none" stroke="black" points="1309,-1732 1077,-1732 1077,-1696 1309,-1696 1309,-1732"/>
<text text-anchor="middle" x="1193" y="-1711.1" font-family="Courier,monospace" font-size="11.00">HttpSourceFieldiAmExistsANDValid</text>
</g>
<!-- \\HttpSourceField -->
<g id="node37" class="node"><title>\\HttpSourceField</title>
<polygon fill="none" stroke="black" points="873,-1638 755,-1638 755,-1602 873,-1602 873,-1638"/>
<text text-anchor="middle" x="814" y="-1617.1" font-family="Courier,monospace" font-size="11.00">HttpSourceField</text>
</g>
<!-- \\HttpSourceFieldiAmExistsANDValid&#45;&gt;\\HttpSourceField -->
<g id="edge49" class="edge"><title>\\HttpSourceFieldiAmExistsANDValid&#45;&gt;\\HttpSourceField</title>
<path fill="none" stroke="black" d="M1076.27,-1700.45C1059.17,-1696.94 1041.96,-1692.53 1026,-1687 991.413,-1675.01 988.402,-1659.51 954,-1647 931.507,-1638.82 906.033,-1632.97 883.039,-1628.85"/>
<polygon fill="none" stroke="black" points="883.458,-1625.37 873.011,-1627.14 882.278,-1632.27 883.458,-1625.37"/>
</g>
<!-- \\HttpSourceResultiAmExistsANDValid -->
<g id="node27" class="node"><title>\\HttpSourceResultiAmExistsANDValid</title>
<polygon fill="none" stroke="black" points="1312,-1786 1074,-1786 1074,-1750 1312,-1750 1312,-1786"/>
<text text-anchor="middle" x="1193" y="-1765.1" font-family="Courier,monospace" font-size="11.00">HttpSourceResultiAmExistsANDValid</text>
</g>
<!-- \\HttpSourceResult -->
<g id="node38" class="node"><title>\\HttpSourceResult</title>
<polygon fill="none" stroke="black" points="876,-1692 752,-1692 752,-1656 876,-1656 876,-1692"/>
<text text-anchor="middle" x="814" y="-1671.1" font-family="Courier,monospace" font-size="11.00">HttpSourceResult</text>
</g>
<!-- \\HttpSourceResultiAmExistsANDValid&#45;&gt;\\HttpSourceResult -->
<g id="edge51" class="edge"><title>\\HttpSourceResultiAmExistsANDValid&#45;&gt;\\HttpSourceResult</title>
<path fill="none" stroke="black" d="M1073.15,-1753.8C1057.08,-1750.4 1040.98,-1746.19 1026,-1741 991.413,-1729.01 988.402,-1713.51 954,-1701 932.717,-1693.26 908.766,-1687.6 886.772,-1683.53"/>
<polygon fill="none" stroke="black" points="887.277,-1680.07 876.82,-1681.77 886.057,-1686.96 887.277,-1680.07"/>
</g>
<!-- \\HttpSourceBasicsTest -->
<g id="node28" class="node"><title>\\HttpSourceBasicsTest</title>
<polygon fill="none" stroke="black" points="1652,-1314 1500,-1314 1500,-1278 1652,-1278 1652,-1314"/>
<text text-anchor="middle" x="1576" y="-1293.1" font-family="Courier,monospace" font-size="11.00">HttpSourceBasicsTest</text>
</g>
<!-- \\HttpSourceBasicsTest&#45;&gt;\\HttpSourceAppTest -->
<g id="edge53" class="edge"><title>\\HttpSourceBasicsTest&#45;&gt;\\HttpSourceAppTest</title>
<path fill="none" stroke="black" d="M1499.87,-1296C1432.95,-1296 1336.07,-1296 1269.14,-1296"/>
<polygon fill="none" stroke="black" points="1269.08,-1292.5 1259.08,-1296 1269.08,-1299.5 1269.08,-1292.5"/>
</g>
<!-- \\HttpSourceToDboAssociationTest -->
<g id="node29" class="node"><title>\\HttpSourceToDboAssociationTest</title>
<polygon fill="none" stroke="black" points="1685,-1368 1467,-1368 1467,-1332 1685,-1332 1685,-1368"/>
<text text-anchor="middle" x="1576" y="-1347.1" font-family="Courier,monospace" font-size="11.00">HttpSourceToDboAssociationTest</text>
</g>
<!-- \\HttpSourceToDboAssociationTest&#45;&gt;\\HttpSourceAppTest -->
<g id="edge55" class="edge"><title>\\HttpSourceToDboAssociationTest&#45;&gt;\\HttpSourceAppTest</title>
<path fill="none" stroke="black" d="M1466.25,-1334.53C1403.17,-1325.63 1325.52,-1314.68 1269.14,-1306.74"/>
<polygon fill="none" stroke="black" points="1269.61,-1303.27 1259.22,-1305.34 1268.64,-1310.2 1269.61,-1303.27"/>
</g>
<!-- \\HttpSourceModelTest -->
<g id="node30" class="node"><title>\\HttpSourceModelTest</title>
<polygon fill="none" stroke="black" points="1648,-450 1504,-450 1504,-414 1648,-414 1648,-450"/>
<text text-anchor="middle" x="1576" y="-429.1" font-family="Courier,monospace" font-size="11.00">HttpSourceModelTest</text>
</g>
<!-- \\HttpSourceModelTest&#45;&gt;\\CakeTestCase -->
<g id="edge57" class="edge"><title>\\HttpSourceModelTest&#45;&gt;\\CakeTestCase</title>
<path fill="none" stroke="black" d="M1503.47,-433.987C1477.95,-431.002 1450.94,-423.097 1432,-405 1330.97,-308.492 1462.23,-194.234 1360,-99 1339.14,-79.5656 1310.08,-70.988 1282.05,-67.8279"/>
<polygon fill="none" stroke="black" points="1282.06,-64.3146 1271.79,-66.8987 1281.43,-71.2861 1282.06,-64.3146"/>
</g>
<!-- \\HttpSourceTestModel -->
<g id="node31" class="node"><title>\\HttpSourceTestModel</title>
<polygon fill="none" stroke="black" points="1648,-1530 1504,-1530 1504,-1494 1648,-1494 1648,-1530"/>
<text text-anchor="middle" x="1576" y="-1509.1" font-family="Courier,monospace" font-size="11.00">HttpSourceTestModel</text>
</g>
<!-- \\HttpSourceTestModel&#45;&gt;\\HttpSourceModel -->
<g id="edge59" class="edge"><title>\\HttpSourceTestModel&#45;&gt;\\HttpSourceModel</title>
<path fill="none" stroke="black" d="M1503.21,-1499.7C1480.33,-1495.47 1455.03,-1490.42 1432,-1485 1373.66,-1471.26 1308.25,-1452.41 1260.63,-1438.04"/>
<polygon fill="none" stroke="black" points="1261.64,-1434.68 1251.05,-1435.13 1259.61,-1441.38 1261.64,-1434.68"/>
</g>
<!-- \\HttpSourceConnectionTest -->
<g id="node32" class="node"><title>\\HttpSourceConnectionTest</title>
<polygon fill="none" stroke="black" points="1665,-396 1487,-396 1487,-360 1665,-360 1665,-396"/>
<text text-anchor="middle" x="1576" y="-375.1" font-family="Courier,monospace" font-size="11.00">HttpSourceConnectionTest</text>
</g>
<!-- \\HttpSourceConnectionTest&#45;&gt;\\CakeTestCase -->
<g id="edge61" class="edge"><title>\\HttpSourceConnectionTest&#45;&gt;\\CakeTestCase</title>
<path fill="none" stroke="black" d="M1486.35,-376.615C1466.5,-372.383 1446.95,-364.619 1432,-351 1345.9,-272.551 1447.08,-176.365 1360,-99 1338.98,-80.324 1310.32,-71.8408 1282.68,-68.5387"/>
<polygon fill="none" stroke="black" points="1282.86,-65.0389 1272.56,-67.5472 1282.17,-72.0056 1282.86,-65.0389"/>
</g>
<!-- \\HttpSourceTest -->
<g id="node33" class="node"><title>\\HttpSourceTest</title>
<polygon fill="none" stroke="black" points="1631,-504 1521,-504 1521,-468 1631,-468 1631,-504"/>
<text text-anchor="middle" x="1576" y="-483.1" font-family="Courier,monospace" font-size="11.00">HttpSourceTest</text>
</g>
<!-- \\HttpSourceTest&#45;&gt;\\CakeTestCase -->
<g id="edge63" class="edge"><title>\\HttpSourceTest&#45;&gt;\\CakeTestCase</title>
<path fill="none" stroke="black" d="M1520.31,-489.623C1490.32,-488.472 1454.89,-481.614 1432,-459 1315.93,-344.319 1477.5,-212.217 1360,-99 1339.19,-78.9478 1309.7,-70.3215 1281.29,-67.3001"/>
<polygon fill="none" stroke="black" points="1281.56,-63.8104 1271.3,-66.4556 1280.97,-70.7856 1281.56,-63.8104"/>
</g>
<!-- \\HttpTestSource -->
<g id="node34" class="node"><title>\\HttpTestSource</title>
<polygon fill="none" stroke="black" points="1631,-1638 1521,-1638 1521,-1602 1631,-1602 1631,-1638"/>
<text text-anchor="middle" x="1576" y="-1617.1" font-family="Courier,monospace" font-size="11.00">HttpTestSource</text>
</g>
<!-- \\HttpTestSource&#45;&gt;\\HttpSource -->
<g id="edge65" class="edge"><title>\\HttpTestSource&#45;&gt;\\HttpSource</title>
<path fill="none" stroke="black" d="M1520.25,-1609.64C1493.54,-1604.65 1461.11,-1598.56 1432,-1593 1399.98,-1586.89 1392.09,-1584.71 1360,-1579 1321.91,-1572.22 1278.79,-1565.27 1245.92,-1560.12"/>
<polygon fill="none" stroke="black" points="1246.04,-1556.59 1235.62,-1558.51 1244.96,-1563.51 1246.04,-1556.59"/>
</g>
<!-- \\HttpSourceException -->
<g id="node35" class="node"><title>\\HttpSourceException</title>
<polygon fill="none" stroke="black" points="1648,-288 1504,-288 1504,-252 1648,-252 1648,-288"/>
<text text-anchor="middle" x="1576" y="-267.1" font-family="Courier,monospace" font-size="11.00">HttpSourceException</text>
</g>
<!-- \\CakeException -->
<g id="node86" class="node"><title>\\CakeException</title>
<ellipse fill="none" stroke="black" cx="1193" cy="-18" rx="85.7684" ry="18.3848"/>
<text text-anchor="middle" x="1193" y="-14.4" font-family="Times Roman,serif" font-size="14.00" fill="gray">\CakeException</text>
</g>
<!-- \\HttpSourceException&#45;&gt;\\CakeException -->
<g id="edge67" class="edge"><title>\\HttpSourceException&#45;&gt;\\CakeException</title>
<path fill="none" stroke="black" d="M1564.79,-251.951C1536.52,-208.171 1457.59,-96.1826 1360,-45 1338.17,-33.5499 1312.7,-26.7056 1288.33,-22.6778"/>
<polygon fill="none" stroke="black" points="1288.74,-19.2003 1278.33,-21.1687 1287.69,-26.1219 1288.74,-19.2003"/>
</g>
<!-- \\HttpSourceConfigException -->
<g id="node36" class="node"><title>\\HttpSourceConfigException</title>
<polygon fill="none" stroke="black" points="1668,-342 1484,-342 1484,-306 1668,-306 1668,-342"/>
<text text-anchor="middle" x="1576" y="-321.1" font-family="Courier,monospace" font-size="11.00">HttpSourceConfigException</text>
</g>
<!-- \\HttpSourceConfigException&#45;&gt;\\CakeException -->
<g id="edge69" class="edge"><title>\\HttpSourceConfigException&#45;&gt;\\CakeException</title>
<path fill="none" stroke="black" d="M1483.36,-321.949C1464.54,-317.587 1446.2,-309.934 1432,-297 1345.9,-218.551 1447.08,-122.365 1360,-45 1340.24,-27.4437 1313.73,-18.8947 1287.66,-15.1896"/>
<polygon fill="none" stroke="black" points="1288.05,-11.7115 1277.71,-13.998 1287.22,-18.6618 1288.05,-11.7115"/>
</g>
<!-- \\HttpSourceField&#45;&gt;\\HttpSourceEndpointItem -->
<g id="edge71" class="edge"><title>\\HttpSourceField&#45;&gt;\\HttpSourceEndpointItem</title>
<path fill="none" stroke="black" d="M754.714,-1620C696.386,-1620 606.447,-1620 538.488,-1620"/>
<polygon fill="none" stroke="black" points="538.203,-1616.5 528.203,-1620 538.203,-1623.5 538.203,-1616.5"/>
</g>
<!-- \\HttpSourceResult&#45;&gt;\\HttpSourceEndpointItem -->
<g id="edge73" class="edge"><title>\\HttpSourceResult&#45;&gt;\\HttpSourceEndpointItem</title>
<path fill="none" stroke="black" d="M751.404,-1664.84C692.926,-1656.28 604.873,-1643.4 538.145,-1633.63"/>
<polygon fill="none" stroke="black" points="538.446,-1630.14 528.044,-1632.15 537.432,-1637.06 538.446,-1630.14"/>
</g>
<!-- \\HttpSourceEndpointItem&#45;&gt;\\HttpSourceConfigFactoryItem -->
<g id="edge75" class="edge"><title>\\HttpSourceEndpointItem&#45;&gt;\\HttpSourceConfigFactoryItem</title>
<path fill="none" stroke="black" d="M361.871,-1632.16C337.896,-1636.24 311.791,-1641.25 288,-1647 250.643,-1656.03 209.55,-1668.83 176.899,-1679.69"/>
<polygon fill="none" stroke="black" points="175.418,-1676.5 167.051,-1683 177.645,-1683.13 175.418,-1676.5"/>
</g>
<!-- \\HttpSourceCondition&#45;&gt;\\HttpSourceField -->
<g id="edge77" class="edge"><title>\\HttpSourceCondition&#45;&gt;\\HttpSourceField</title>
<path fill="none" stroke="black" d="M1120.37,-1652.33C1051.99,-1645.12 950.284,-1634.38 883.08,-1627.29"/>
<polygon fill="none" stroke="black" points="883.324,-1623.8 873.012,-1626.23 882.589,-1630.76 883.324,-1623.8"/>
</g>
<!-- \\HttpSourceConfig&#45;&gt;\\HttpSourceConfigFactoryItem -->
<g id="edge79" class="edge"><title>\\HttpSourceConfig&#45;&gt;\\HttpSourceConfigFactoryItem</title>
<path fill="none" stroke="black" d="M382.343,-1722.86C338.385,-1719.25 278.429,-1714.33 226.533,-1710.07"/>
<polygon fill="none" stroke="black" points="226.521,-1706.56 216.269,-1709.23 225.949,-1713.54 226.521,-1706.56"/>
</g>
<!-- \\HttpSourceEndpoint&#45;&gt;\\HttpSourceConfigFactoryItem -->
<g id="edge81" class="edge"><title>\\HttpSourceEndpoint&#45;&gt;\\HttpSourceConfigFactoryItem</title>
<path fill="none" stroke="black" d="M375.63,-1679.69C332.33,-1683.25 275.632,-1687.9 226.27,-1691.95"/>
<polygon fill="none" stroke="black" points="225.859,-1688.47 216.179,-1692.78 226.432,-1695.45 225.859,-1688.47"/>
</g>
<!-- \\HttpSourceModel&#45;&gt;\\AppModel -->
<g id="edge83" class="edge"><title>\\HttpSourceModel&#45;&gt;\\AppModel</title>
<path fill="none" stroke="black" d="M1133.15,-1399.68C1095.64,-1385.48 1050.01,-1361.35 1026,-1323 885.884,-1099.2 1128.19,-335.428 954,-137 936.844,-117.457 910.192,-109.407 884.727,-106.708"/>
<polygon fill="none" stroke="black" points="884.922,-103.213 874.674,-105.902 884.362,-110.19 884.922,-103.213"/>
</g>
<!-- \\Object -->
<g id="node96" class="node"><title>\\Object</title>
<ellipse fill="none" stroke="black" cx="814" cy="-218" rx="45.9619" ry="18.3848"/>
<text text-anchor="middle" x="814" y="-214.4" font-family="Times Roman,serif" font-size="14.00" fill="gray">\Object</text>
</g>
<!-- \\HttpSourceConnection&#45;&gt;\\Object -->
<g id="edge85" class="edge"><title>\\HttpSourceConnection&#45;&gt;\\Object</title>
<path fill="none" stroke="black" d="M1116.94,-1613.3C1084.26,-1612.05 1048.48,-1604.01 1026,-1579 826.814,-1357.37 1153.68,-461.19 954,-240 932.763,-216.475 897.452,-211.054 867.607,-211.475"/>
<polygon fill="none" stroke="black" points="867.178,-207.988 857.311,-211.847 867.431,-214.983 867.178,-207.988"/>
</g>
<!-- \\DataSource -->
<g id="node98" class="node"><title>\\DataSource</title>
<ellipse fill="none" stroke="black" cx="814" cy="-164" rx="72.1249" ry="18.3848"/>
<text text-anchor="middle" x="814" y="-160.4" font-family="Times Roman,serif" font-size="14.00" fill="gray">\DataSource</text>
</g>
<!-- \\HttpSource&#45;&gt;\\DataSource -->
<g id="edge87" class="edge"><title>\\HttpSource&#45;&gt;\\DataSource</title>
<path fill="none" stroke="black" d="M1150.48,-1558.46C1111.94,-1561.65 1056.63,-1559.07 1026,-1525 827.533,-1304.21 1149.11,-414.76 954,-191 939.187,-174.012 917.2,-165.693 895.017,-162.025"/>
<polygon fill="none" stroke="black" points="895.213,-158.52 884.835,-160.653 894.278,-165.457 895.213,-158.52"/>
</g>
<!-- \\HttpSourceTestFixture -->
<g id="node48" class="node"><title>\\HttpSourceTestFixture</title>
<polygon fill="none" stroke="black" points="1655,-1206 1497,-1206 1497,-1170 1655,-1170 1655,-1206"/>
<text text-anchor="middle" x="1576" y="-1185.1" font-family="Courier,monospace" font-size="11.00">HttpSourceTestFixture</text>
</g>
<!-- \\HttpSourceTestFixture&#45;&gt;\\CakeTestFixture -->
<g id="edge89" class="edge"><title>\\HttpSourceTestFixture&#45;&gt;\\CakeTestFixture</title>
<path fill="none" stroke="black" d="M1496.68,-1190.83C1472.64,-1187.51 1448.32,-1179.17 1432,-1161 1294.83,-1008.26 1501.27,-388.956 1360,-240 1340.11,-219.026 1310.68,-210.969 1282.05,-208.981"/>
<polygon fill="none" stroke="black" points="1282.12,-205.481 1271.97,-208.52 1281.8,-212.474 1282.12,-205.481"/>
</g>
</g>
</svg>
