<?xml version="1.0" encoding="UTF-8" standalone="no"?>
<!DOCTYPE svg PUBLIC "-//W3C//DTD SVG 1.1//EN"
 "http://www.w3.org/Graphics/SVG/1.1/DTD/svg11.dtd">
<!-- Generated by graphviz version 2.26.3 (20100126.1600)
 -->
<!-- Title: G Pages: 1 -->
<svg width="1744pt" height="2170pt"
 viewBox="0.00 0.00 1744.00 2170.00" xmlns="http://www.w3.org/2000/svg" xmlns:xlink="http://www.w3.org/1999/xlink">
<g id="graph1" class="graph" transform="scale(1 1) rotate(0) translate(4 2166)">
<title>G</title>
<polygon fill="white" stroke="white" points="-4,5 -4,-2166 1741,-2166 1741,5 -4,5"/>
<g id="graph2" class="cluster"><title>cluster_Global</title>
<polyline fill="none" stroke="gray" points="20,-352 1716,-352 "/>
<path fill="none" stroke="gray" d="M1716,-352C1722,-352 1728,-358 1728,-364"/>
<polyline fill="none" stroke="gray" points="1728,-364 1728,-2142 "/>
<path fill="none" stroke="gray" d="M1728,-2142C1728,-2148 1722,-2154 1716,-2154"/>
<polyline fill="none" stroke="gray" points="1716,-2154 20,-2154 "/>
<path fill="none" stroke="gray" d="M20,-2154C14,-2154 8,-2148 8,-2142"/>
<polyline fill="none" stroke="gray" points="8,-2142 8,-364 "/>
<path fill="none" stroke="gray" d="M8,-364C8,-358 14,-352 20,-352"/>
<text text-anchor="middle" x="868" y="-2140.1" font-family="Times Roman,serif" font-size="11.00" fill="gray">Global</text>
</g>
<!-- \\HttpSourceTestFixture -->
<g id="node2" class="node"><title>\\HttpSourceTestFixture</title>
<polygon fill="none" stroke="black" points="1655,-1530 1497,-1530 1497,-1494 1655,-1494 1655,-1530"/>
<text text-anchor="middle" x="1576" y="-1509.1" font-family="Courier,monospace" font-size="11.00">HttpSourceTestFixture</text>
</g>
<!-- \\CakeTestFixture -->
<g id="node54" class="node"><title>\\CakeTestFixture</title>
<ellipse fill="none" stroke="black" cx="1193" cy="-326" rx="92.1303" ry="18.3848"/>
<text text-anchor="middle" x="1193" y="-322.4" font-family="Times Roman,serif" font-size="14.00" fill="gray">\CakeTestFixture</text>
</g>
<!-- \\HttpSourceTestFixture&#45;&gt;\\CakeTestFixture -->
<g id="edge3" class="edge"><title>\\HttpSourceTestFixture&#45;&gt;\\CakeTestFixture</title>
<path fill="none" stroke="black" d="M1496.9,-1515.03C1472.73,-1511.74 1448.26,-1503.38 1432,-1485 1264.24,-1295.39 1532.86,-532.98 1360,-348 1340.09,-326.689 1310.34,-318.644 1281.44,-316.764"/>
<polygon fill="none" stroke="black" points="1281.41,-313.259 1271.28,-316.344 1281.12,-320.253 1281.41,-313.259"/>
</g>
<!-- \\HttpSourceController -->
<g id="node3" class="node"><title>\\HttpSourceController</title>
<polygon fill="none" stroke="black" points="1652,-1422 1500,-1422 1500,-1386 1652,-1386 1652,-1422"/>
<text text-anchor="middle" x="1576" y="-1401.1" font-family="Courier,monospace" font-size="11.00">HttpSourceController</text>
</g>
<!-- \\AppController -->
<g id="node56" class="node"><title>\\AppController</title>
<ellipse fill="none" stroke="black" cx="1193" cy="-272" rx="82.0244" ry="18.3848"/>
<text text-anchor="middle" x="1193" y="-268.4" font-family="Times Roman,serif" font-size="14.00" fill="gray">\AppController</text>
</g>
<!-- \\HttpSourceController&#45;&gt;\\AppController -->
<g id="edge5" class="edge"><title>\\HttpSourceController&#45;&gt;\\AppController</title>
<path fill="none" stroke="black" d="M1499.94,-1407.38C1474.81,-1404.38 1448.97,-1396.12 1432,-1377 1272.6,-1197.46 1521.64,-476.525 1360,-299 1339.57,-276.563 1308.43,-267.839 1278.55,-265.413"/>
<polygon fill="none" stroke="black" points="1278.67,-261.914 1268.48,-264.822 1278.26,-268.902 1278.67,-261.914"/>
</g>
<!-- \\HttpSourceModel -->
<g id="node4" class="node"><title>\\HttpSourceModel</title>
<polygon fill="none" stroke="black" points="1252,-1665 1134,-1665 1134,-1629 1252,-1629 1252,-1665"/>
<text text-anchor="middle" x="1193" y="-1644.1" font-family="Courier,monospace" font-size="11.00">HttpSourceModel</text>
</g>
<!-- \\AppModel -->
<g id="node58" class="node"><title>\\AppModel</title>
<ellipse fill="none" stroke="black" cx="814" cy="-218" rx="62.2254" ry="18.3848"/>
<text text-anchor="middle" x="814" y="-214.4" font-family="Times Roman,serif" font-size="14.00" fill="gray">\AppModel</text>
</g>
<!-- \\HttpSourceModel&#45;&gt;\\AppModel -->
<g id="edge7" class="edge"><title>\\HttpSourceModel&#45;&gt;\\AppModel</title>
<path fill="none" stroke="black" d="M1133.89,-1656.36C1097.44,-1658.49 1052.69,-1653.89 1026,-1625 817.587,-1399.47 1155.61,-476.635 954,-245 936.856,-225.302 910.066,-217.254 884.493,-214.599"/>
<polygon fill="none" stroke="black" points="884.64,-211.1 874.399,-213.812 884.096,-218.079 884.64,-211.1"/>
</g>
<!-- \\HttpSourceConnection -->
<g id="node5" class="node"><title>\\HttpSourceConnection</title>
<polygon fill="none" stroke="black" points="1269,-1854 1117,-1854 1117,-1818 1269,-1818 1269,-1854"/>
<text text-anchor="middle" x="1193" y="-1833.1" font-family="Courier,monospace" font-size="11.00">HttpSourceConnection</text>
</g>
<!-- \\Object -->
<g id="node60" class="node"><title>\\Object</title>
<ellipse fill="none" stroke="black" cx="814" cy="-326" rx="45.9619" ry="18.3848"/>
<text text-anchor="middle" x="814" y="-322.4" font-family="Times Roman,serif" font-size="14.00" fill="gray">\Object</text>
</g>
<!-- \\HttpSourceConnection&#45;&gt;\\Object -->
<g id="edge9" class="edge"><title>\\HttpSourceConnection&#45;&gt;\\Object</title>
<path fill="none" stroke="black" d="M1116.89,-1843.34C1084.2,-1842.11 1048.42,-1834.06 1026,-1809 917.629,-1687.87 1062.64,-468.887 954,-348 932.816,-324.427 897.505,-319.007 867.646,-319.44"/>
<polygon fill="none" stroke="black" points="867.21,-315.953 857.345,-319.817 867.466,-322.948 867.21,-315.953"/>
</g>
<!-- \\HttpSource -->
<g id="node6" class="node"><title>\\HttpSource</title>
<polygon fill="none" stroke="black" points="1235,-1800 1151,-1800 1151,-1764 1235,-1764 1235,-1800"/>
<text text-anchor="start" x="1159" y="-1787.43" font-family="Courier,monospace" font-size="11.00">«abstract»</text>
<text text-anchor="start" x="1159" y="-1774.23" font-family="Courier,monospace" font-size="11.00">HttpSource</text>
</g>
<!-- \\DataSource -->
<g id="node62" class="node"><title>\\DataSource</title>
<ellipse fill="none" stroke="black" cx="814" cy="-272" rx="72.1249" ry="18.3848"/>
<text text-anchor="middle" x="814" y="-268.4" font-family="Times Roman,serif" font-size="14.00" fill="gray">\DataSource</text>
</g>
<!-- \\HttpSource&#45;&gt;\\DataSource -->
<g id="edge11" class="edge"><title>\\HttpSource&#45;&gt;\\DataSource</title>
<path fill="none" stroke="black" d="M1150.33,-1767.4C1110.53,-1751.29 1053.32,-1721.22 1026,-1674 949.383,-1541.58 1054.45,-414.389 954,-299 939.201,-282 917.218,-273.677 895.034,-270.01"/>
<polygon fill="none" stroke="black" points="895.23,-266.505 884.852,-268.638 894.295,-273.442 895.23,-266.505"/>
</g>
<!-- \\HttpSourceDocument -->
<g id="node7" class="node"><title>\\HttpSourceDocument</title>
<polygon fill="none" stroke="black" points="1645,-1638 1507,-1638 1507,-1602 1645,-1602 1645,-1638"/>
<text text-anchor="middle" x="1576" y="-1617.1" font-family="Courier,monospace" font-size="11.00">HttpSourceDocument</text>
</g>
<!-- \\HttpSourceDocument&#45;&gt;\\HttpSourceModel -->
<g id="edge13" class="edge"><title>\\HttpSourceDocument&#45;&gt;\\HttpSourceModel</title>
<path fill="none" stroke="black" d="M1506.64,-1624.89C1437.44,-1629.77 1331.72,-1637.22 1262.48,-1642.1"/>
<polygon fill="none" stroke="black" points="1261.84,-1638.64 1252.11,-1642.83 1262.33,-1645.62 1261.84,-1638.64"/>
</g>
<!-- \\HttpSourceUser -->
<g id="node8" class="node"><title>\\HttpSourceUser</title>
<polygon fill="none" stroke="black" points="1631,-1368 1521,-1368 1521,-1332 1631,-1332 1631,-1368"/>
<text text-anchor="middle" x="1576" y="-1347.1" font-family="Courier,monospace" font-size="11.00">HttpSourceUser</text>
</g>
<!-- \\HttpSourceUser&#45;&gt;\\AppModel -->
<g id="edge15" class="edge"><title>\\HttpSourceUser&#45;&gt;\\AppModel</title>
<path fill="none" stroke="black" d="M1520.21,-1354.76C1489.62,-1354.1 1453.62,-1347.35 1432,-1323 1272.6,-1143.46 1531.23,-413.296 1360,-245 1326.96,-212.528 1026.74,-213.882 886.09,-216.353"/>
<polygon fill="none" stroke="black" points="885.772,-212.858 875.837,-216.54 885.9,-219.857 885.772,-212.858"/>
</g>
<!-- \\HttpSourceControllerTest -->
<g id="node9" class="node"><title>\\HttpSourceControllerTest</title>
<polygon fill="none" stroke="black" points="1665,-1260 1487,-1260 1487,-1224 1665,-1224 1665,-1260"/>
<text text-anchor="middle" x="1576" y="-1239.1" font-family="Courier,monospace" font-size="11.00">HttpSourceControllerTest</text>
</g>
<!-- \\ControllerTestCase -->
<g id="node66" class="node"><title>\\ControllerTestCase</title>
<ellipse fill="none" stroke="black" cx="1193" cy="-180" rx="106.773" ry="18.3848"/>
<text text-anchor="middle" x="1193" y="-176.4" font-family="Times Roman,serif" font-size="14.00" fill="gray">\ControllerTestCase</text>
</g>
<!-- \\HttpSourceControllerTest&#45;&gt;\\ControllerTestCase -->
<g id="edge17" class="edge"><title>\\HttpSourceControllerTest&#45;&gt;\\ControllerTestCase</title>
<path fill="none" stroke="black" d="M1486.48,-1243.18C1465.89,-1239.03 1445.97,-1230.66 1432,-1215 1283.22,-1048.27 1508.45,-379.029 1360,-212 1346.83,-197.182 1329.08,-187.936 1310.05,-182.359"/>
<polygon fill="none" stroke="black" points="1310.88,-178.957 1300.32,-179.837 1309.12,-185.733 1310.88,-178.957"/>
</g>
<!-- \\HttpSourceModelTest -->
<g id="node10" class="node"><title>\\HttpSourceModelTest</title>
<polygon fill="none" stroke="black" points="1648,-1098 1504,-1098 1504,-1062 1648,-1062 1648,-1098"/>
<text text-anchor="middle" x="1576" y="-1077.1" font-family="Courier,monospace" font-size="11.00">HttpSourceModelTest</text>
</g>
<!-- \\CakeTestCase -->
<g id="node68" class="node"><title>\\CakeTestCase</title>
<ellipse fill="none" stroke="black" cx="1193" cy="-126" rx="82.0244" ry="18.3848"/>
<text text-anchor="middle" x="1193" y="-122.4" font-family="Times Roman,serif" font-size="14.00" fill="gray">\CakeTestCase</text>
</g>
<!-- \\HttpSourceModelTest&#45;&gt;\\CakeTestCase -->
<g id="edge19" class="edge"><title>\\HttpSourceModelTest&#45;&gt;\\CakeTestCase</title>
<path fill="none" stroke="black" d="M1503.45,-1083.62C1477.3,-1080.96 1449.86,-1072.85 1432,-1053 1297.81,-903.843 1496.05,-300.464 1360,-153 1339.51,-130.794 1308.52,-122.075 1278.78,-119.589"/>
<polygon fill="none" stroke="black" points="1278.96,-116.093 1268.76,-118.975 1278.53,-123.08 1278.96,-116.093"/>
</g>
<!-- \\HttpSourceTestModel -->
<g id="node11" class="node"><title>\\HttpSourceTestModel</title>
<polygon fill="none" stroke="black" points="1648,-1746 1504,-1746 1504,-1710 1648,-1710 1648,-1746"/>
<text text-anchor="middle" x="1576" y="-1725.1" font-family="Courier,monospace" font-size="11.00">HttpSourceTestModel</text>
</g>
<!-- \\HttpSourceTestModel&#45;&gt;\\HttpSourceModel -->
<g id="edge21" class="edge"><title>\\HttpSourceTestModel&#45;&gt;\\HttpSourceModel</title>
<path fill="none" stroke="black" d="M1503.38,-1714.92C1480.5,-1710.66 1455.17,-1705.79 1432,-1701 1374.63,-1689.15 1309.83,-1674.42 1262.19,-1663.34"/>
<polygon fill="none" stroke="black" points="1262.82,-1659.9 1252.29,-1661.04 1261.24,-1666.71 1262.82,-1659.9"/>
</g>
<!-- \\HttpSourceToDboAssociationTest -->
<g id="node12" class="node"><title>\\HttpSourceToDboAssociationTest</title>
<polygon fill="none" stroke="black" points="1685,-2070 1467,-2070 1467,-2034 1685,-2034 1685,-2070"/>
<text text-anchor="middle" x="1576" y="-2049.1" font-family="Courier,monospace" font-size="11.00">HttpSourceToDboAssociationTest</text>
</g>
<!-- \\HttpSourceAppTest -->
<g id="node36" class="node"><title>\\HttpSourceAppTest</title>
<polygon fill="none" stroke="black" points="1259,-2070 1127,-2070 1127,-2034 1259,-2034 1259,-2070"/>
<text text-anchor="start" x="1159" y="-2057.43" font-family="Courier,monospace" font-size="11.00">«abstract»</text>
<text text-anchor="start" x="1135.5" y="-2044.23" font-family="Courier,monospace" font-size="11.00">HttpSourceAppTest</text>
</g>
<!-- \\HttpSourceToDboAssociationTest&#45;&gt;\\HttpSourceAppTest -->
<g id="edge23" class="edge"><title>\\HttpSourceToDboAssociationTest&#45;&gt;\\HttpSourceAppTest</title>
<path fill="none" stroke="black" d="M1466.25,-2052C1403.3,-2052 1325.84,-2052 1269.49,-2052"/>
<polygon fill="none" stroke="black" points="1269.22,-2048.5 1259.22,-2052 1269.22,-2055.5 1269.22,-2048.5"/>
</g>
<!-- \\HttpSourceBasicsTest -->
<g id="node13" class="node"><title>\\HttpSourceBasicsTest</title>
<polygon fill="none" stroke="black" points="1652,-2124 1500,-2124 1500,-2088 1652,-2088 1652,-2124"/>
<text text-anchor="middle" x="1576" y="-2103.1" font-family="Courier,monospace" font-size="11.00">HttpSourceBasicsTest</text>
</g>
<!-- \\HttpSourceBasicsTest&#45;&gt;\\HttpSourceAppTest -->
<g id="edge25" class="edge"><title>\\HttpSourceBasicsTest&#45;&gt;\\HttpSourceAppTest</title>
<path fill="none" stroke="black" d="M1499.87,-2095.27C1432.95,-2085.83 1336.07,-2072.17 1269.14,-2062.74"/>
<polygon fill="none" stroke="black" points="1269.47,-2059.25 1259.08,-2061.32 1268.5,-2066.18 1269.47,-2059.25"/>
</g>
<!-- \\HttpSourceTest -->
<g id="node14" class="node"><title>\\HttpSourceTest</title>
<polygon fill="none" stroke="black" points="1631,-1044 1521,-1044 1521,-1008 1631,-1008 1631,-1044"/>
<text text-anchor="middle" x="1576" y="-1023.1" font-family="Courier,monospace" font-size="11.00">HttpSourceTest</text>
</g>
<!-- \\HttpSourceTest&#45;&gt;\\CakeTestCase -->
<g id="edge27" class="edge"><title>\\HttpSourceTest&#45;&gt;\\CakeTestCase</title>
<path fill="none" stroke="black" d="M1520.38,-1030.61C1489.84,-1029.9 1453.84,-1023.15 1432,-999 1305.45,-859.054 1488.29,-291.35 1360,-153 1339.46,-130.846 1308.46,-122.137 1278.72,-119.645"/>
<polygon fill="none" stroke="black" points="1278.9,-116.149 1268.7,-119.028 1278.47,-123.136 1278.9,-116.149"/>
</g>
<!-- \\HttpTestSource -->
<g id="node15" class="node"><title>\\HttpTestSource</title>
<polygon fill="none" stroke="black" points="1631,-1854 1521,-1854 1521,-1818 1631,-1818 1631,-1854"/>
<text text-anchor="middle" x="1576" y="-1833.1" font-family="Courier,monospace" font-size="11.00">HttpTestSource</text>
</g>
<!-- \\HttpTestSource&#45;&gt;\\HttpSource -->
<g id="edge29" class="edge"><title>\\HttpTestSource&#45;&gt;\\HttpSource</title>
<path fill="none" stroke="black" d="M1520.31,-1828.15C1446.75,-1817.78 1318.1,-1799.64 1245.95,-1789.46"/>
<polygon fill="none" stroke="black" points="1246.11,-1785.95 1235.72,-1788.02 1245.14,-1792.89 1246.11,-1785.95"/>
</g>
<!-- \\HttpSourceConnectionTest -->
<g id="node16" class="node"><title>\\HttpSourceConnectionTest</title>
<polygon fill="none" stroke="black" points="1665,-990 1487,-990 1487,-954 1665,-954 1665,-990"/>
<text text-anchor="middle" x="1576" y="-969.1" font-family="Courier,monospace" font-size="11.00">HttpSourceConnectionTest</text>
</g>
<!-- \\HttpSourceConnectionTest&#45;&gt;\\CakeTestCase -->
<g id="edge31" class="edge"><title>\\HttpSourceConnectionTest&#45;&gt;\\CakeTestCase</title>
<path fill="none" stroke="black" d="M1486.31,-972.92C1465.85,-968.745 1446.03,-960.43 1432,-945 1313.09,-814.262 1480.54,-282.238 1360,-153 1339.57,-131.098 1308.92,-122.361 1279.43,-119.775"/>
<polygon fill="none" stroke="black" points="1279.27,-116.258 1269.07,-119.106 1278.82,-123.243 1279.27,-116.258"/>
</g>
<!-- \\AllHttpSourceTest -->
<g id="node17" class="node"><title>\\AllHttpSourceTest</title>
<polygon fill="none" stroke="black" points="1641,-504 1511,-504 1511,-468 1641,-468 1641,-504"/>
<text text-anchor="middle" x="1576" y="-483.1" font-family="Courier,monospace" font-size="11.00">AllHttpSourceTest</text>
</g>
<!-- \\PHPUnit_Framework_TestSuite -->
<g id="node76" class="node"><title>\\PHPUnit_Framework_TestSuite</title>
<ellipse fill="none" stroke="black" cx="1193" cy="-72" rx="166.877" ry="18.3848"/>
<text text-anchor="middle" x="1193" y="-68.4" font-family="Times Roman,serif" font-size="14.00" fill="gray">\PHPUnit_Framework_TestSuite</text>
</g>
<!-- \\AllHttpSourceTest&#45;&gt;\\PHPUnit_Framework_TestSuite -->
<g id="edge33" class="edge"><title>\\AllHttpSourceTest&#45;&gt;\\PHPUnit_Framework_TestSuite</title>
<path fill="none" stroke="black" d="M1510.17,-489.018C1482.63,-486.761 1452.36,-479.112 1432,-459 1315.93,-344.319 1477.5,-212.217 1360,-99 1355.03,-94.2079 1349.56,-90.0683 1343.73,-86.5018"/>
<polygon fill="none" stroke="black" points="1345.39,-83.422 1334.94,-81.6774 1342.02,-89.5581 1345.39,-83.422"/>
</g>
<!-- \\HttpSourceUtilityTest -->
<g id="node18" class="node"><title>\\HttpSourceUtilityTest</title>
<polygon fill="none" stroke="black" points="1655,-936 1497,-936 1497,-900 1655,-900 1655,-936"/>
<text text-anchor="middle" x="1576" y="-915.1" font-family="Courier,monospace" font-size="11.00">HttpSourceUtilityTest</text>
</g>
<!-- \\HttpSourceUtilityTest&#45;&gt;\\CakeTestCase -->
<g id="edge35" class="edge"><title>\\HttpSourceUtilityTest&#45;&gt;\\CakeTestCase</title>
<path fill="none" stroke="black" d="M1496.89,-920.648C1472.86,-917.309 1448.49,-909.01 1432,-891 1320.73,-769.466 1472.79,-273.13 1360,-153 1339.5,-131.165 1308.83,-122.442 1279.35,-119.849"/>
<polygon fill="none" stroke="black" points="1279.2,-116.331 1268.99,-119.176 1278.74,-123.317 1279.2,-116.331"/>
</g>
<!-- \\HttpSourceConfigFactoryTest -->
<g id="node19" class="node"><title>\\HttpSourceConfigFactoryTest</title>
<polygon fill="none" stroke="black" points="1675,-882 1477,-882 1477,-846 1675,-846 1675,-882"/>
<text text-anchor="middle" x="1576" y="-861.1" font-family="Courier,monospace" font-size="11.00">HttpSourceConfigFactoryTest</text>
</g>
<!-- \\HttpSourceConfigFactoryTest&#45;&gt;\\CakeTestCase -->
<g id="edge37" class="edge"><title>\\HttpSourceConfigFactoryTest&#45;&gt;\\CakeTestCase</title>
<path fill="none" stroke="black" d="M1476.43,-862.374C1459.62,-857.692 1443.81,-849.806 1432,-837 1224.72,-612.332 1570.08,-375.053 1360,-153 1339.51,-131.339 1309,-122.613 1279.65,-119.968"/>
<polygon fill="none" stroke="black" points="1279.54,-116.453 1269.33,-119.275 1279.08,-123.438 1279.54,-116.453"/>
</g>
<!-- \\HttpSourceConfigFactoryiAmExists -->
<g id="node20" class="node"><title>\\HttpSourceConfigFactoryiAmExists</title>
<polygon fill="none" stroke="black" points="1692,-1314 1460,-1314 1460,-1278 1692,-1278 1692,-1314"/>
<text text-anchor="middle" x="1576" y="-1293.1" font-family="Courier,monospace" font-size="11.00">HttpSourceConfigFactoryiAmExists</text>
</g>
<!-- \\HttpSourceConfigFactoryiAmExistsANDValid -->
<g id="node21" class="node"><title>\\HttpSourceConfigFactoryiAmExistsANDValid</title>
<polygon fill="none" stroke="black" points="1719,-2016 1433,-2016 1433,-1980 1719,-1980 1719,-2016"/>
<text text-anchor="middle" x="1576" y="-1995.1" font-family="Courier,monospace" font-size="11.00">HttpSourceConfigFactoryiAmExistsANDValid</text>
</g>
<!-- \\HttpSourceConfigFactory -->
<g id="node44" class="node"><title>\\HttpSourceConfigFactory</title>
<polygon fill="none" stroke="black" points="1279,-2016 1107,-2016 1107,-1980 1279,-1980 1279,-2016"/>
<text text-anchor="middle" x="1193" y="-1995.1" font-family="Courier,monospace" font-size="11.00">HttpSourceConfigFactory</text>
</g>
<!-- \\HttpSourceConfigFactoryiAmExistsANDValid&#45;&gt;\\HttpSourceConfigFactory -->
<g id="edge39" class="edge"><title>\\HttpSourceConfigFactoryiAmExistsANDValid&#45;&gt;\\HttpSourceConfigFactory</title>
<path fill="none" stroke="black" d="M1432.3,-1998C1384.54,-1998 1332.56,-1998 1289.28,-1998"/>
<polygon fill="none" stroke="black" points="1289.04,-1994.5 1279.04,-1998 1289.04,-2001.5 1289.04,-1994.5"/>
</g>
<!-- \\HttpSourceConfigiAmExistsANDValid -->
<g id="node22" class="node"><title>\\HttpSourceConfigiAmExistsANDValid</title>
<polygon fill="none" stroke="black" points="933,-2124 695,-2124 695,-2088 933,-2088 933,-2124"/>
<text text-anchor="middle" x="814" y="-2103.1" font-family="Courier,monospace" font-size="11.00">HttpSourceConfigiAmExistsANDValid</text>
</g>
<!-- \\HttpSourceConfig -->
<g id="node47" class="node"><title>\\HttpSourceConfig</title>
<polygon fill="none" stroke="black" points="507,-2124 383,-2124 383,-2088 507,-2088 507,-2124"/>
<text text-anchor="middle" x="445" y="-2103.1" font-family="Courier,monospace" font-size="11.00">HttpSourceConfig</text>
</g>
<!-- \\HttpSourceConfigiAmExistsANDValid&#45;&gt;\\HttpSourceConfig -->
<g id="edge41" class="edge"><title>\\HttpSourceConfigiAmExistsANDValid&#45;&gt;\\HttpSourceConfig</title>
<path fill="none" stroke="black" d="M694.451,-2106C636.257,-2106 568.18,-2106 517.859,-2106"/>
<polygon fill="none" stroke="black" points="517.721,-2102.5 507.721,-2106 517.721,-2109.5 517.721,-2102.5"/>
</g>
<!-- \\HttpSourceEndpointiAmExistsANDValid -->
<g id="node23" class="node"><title>\\HttpSourceEndpointiAmExistsANDValid</title>
<polygon fill="none" stroke="black" points="940,-2070 688,-2070 688,-2034 940,-2034 940,-2070"/>
<text text-anchor="middle" x="814" y="-2049.1" font-family="Courier,monospace" font-size="11.00">HttpSourceEndpointiAmExistsANDValid</text>
</g>
<!-- \\HttpSourceEndpoint -->
<g id="node41" class="node"><title>\\HttpSourceEndpoint</title>
<polygon fill="none" stroke="black" points="514,-2070 376,-2070 376,-2034 514,-2034 514,-2070"/>
<text text-anchor="middle" x="445" y="-2049.1" font-family="Courier,monospace" font-size="11.00">HttpSourceEndpoint</text>
</g>
<!-- \\HttpSourceEndpointiAmExistsANDValid&#45;&gt;\\HttpSourceEndpoint -->
<g id="edge43" class="edge"><title>\\HttpSourceEndpointiAmExistsANDValid&#45;&gt;\\HttpSourceEndpoint</title>
<path fill="none" stroke="black" d="M687.269,-2052C633.255,-2052 571.894,-2052 524.44,-2052"/>
<polygon fill="none" stroke="black" points="524.228,-2048.5 514.228,-2052 524.228,-2055.5 524.228,-2048.5"/>
</g>
<!-- \\HttpSourceConditioniAmExistsANDValid -->
<g id="node24" class="node"><title>\\HttpSourceConditioniAmExistsANDValid</title>
<polygon fill="none" stroke="black" points="1706,-1962 1446,-1962 1446,-1926 1706,-1926 1706,-1962"/>
<text text-anchor="middle" x="1576" y="-1941.1" font-family="Courier,monospace" font-size="11.00">HttpSourceConditioniAmExistsANDValid</text>
</g>
<!-- \\HttpSourceCondition -->
<g id="node45" class="node"><title>\\HttpSourceCondition</title>
<polygon fill="none" stroke="black" points="1265,-1962 1121,-1962 1121,-1926 1265,-1926 1265,-1962"/>
<text text-anchor="middle" x="1193" y="-1941.1" font-family="Courier,monospace" font-size="11.00">HttpSourceCondition</text>
</g>
<!-- \\HttpSourceConditioniAmExistsANDValid&#45;&gt;\\HttpSourceCondition -->
<g id="edge45" class="edge"><title>\\HttpSourceConditioniAmExistsANDValid&#45;&gt;\\HttpSourceCondition</title>
<path fill="none" stroke="black" d="M1445.8,-1944C1389.5,-1944 1325.3,-1944 1275.68,-1944"/>
<polygon fill="none" stroke="black" points="1275.64,-1940.5 1265.64,-1944 1275.64,-1947.5 1275.64,-1940.5"/>
</g>
<!-- \\HttpSourceFieldiAmExistsANDValid -->
<g id="node25" class="node"><title>\\HttpSourceFieldiAmExistsANDValid</title>
<polygon fill="none" stroke="black" points="1309,-2124 1077,-2124 1077,-2088 1309,-2088 1309,-2124"/>
<text text-anchor="middle" x="1193" y="-2103.1" font-family="Courier,monospace" font-size="11.00">HttpSourceFieldiAmExistsANDValid</text>
</g>
<!-- \\HttpSourceField -->
<g id="node42" class="node"><title>\\HttpSourceField</title>
<polygon fill="none" stroke="black" points="873,-2016 755,-2016 755,-1980 873,-1980 873,-2016"/>
<text text-anchor="middle" x="814" y="-1995.1" font-family="Courier,monospace" font-size="11.00">HttpSourceField</text>
</g>
<!-- \\HttpSourceFieldiAmExistsANDValid&#45;&gt;\\HttpSourceField -->
<g id="edge47" class="edge"><title>\\HttpSourceFieldiAmExistsANDValid&#45;&gt;\\HttpSourceField</title>
<path fill="none" stroke="black" d="M1076.41,-2094.59C1059.12,-2090.78 1041.81,-2085.72 1026,-2079 989.187,-2063.35 990.572,-2041.2 954,-2025 932.018,-2015.26 906.564,-2009.03 883.436,-2005.04"/>
<polygon fill="none" stroke="black" points="883.77,-2001.55 873.34,-2003.41 882.656,-2008.46 883.77,-2001.55"/>
</g>
<!-- \\HttpSourceResultiAmExistsANDValid -->
<g id="node26" class="node"><title>\\HttpSourceResultiAmExistsANDValid</title>
<polygon fill="none" stroke="black" points="1312,-1908 1074,-1908 1074,-1872 1312,-1872 1312,-1908"/>
<text text-anchor="middle" x="1193" y="-1887.1" font-family="Courier,monospace" font-size="11.00">HttpSourceResultiAmExistsANDValid</text>
</g>
<!-- \\HttpSourceResult -->
<g id="node43" class="node"><title>\\HttpSourceResult</title>
<polygon fill="none" stroke="black" points="876,-1908 752,-1908 752,-1872 876,-1872 876,-1908"/>
<text text-anchor="middle" x="814" y="-1887.1" font-family="Courier,monospace" font-size="11.00">HttpSourceResult</text>
</g>
<!-- \\HttpSourceResultiAmExistsANDValid&#45;&gt;\\HttpSourceResult -->
<g id="edge49" class="edge"><title>\\HttpSourceResultiAmExistsANDValid&#45;&gt;\\HttpSourceResult</title>
<path fill="none" stroke="black" d="M1073.34,-1890C1012.13,-1890 939.613,-1890 886.846,-1890"/>
<polygon fill="none" stroke="black" points="886.566,-1886.5 876.565,-1890 886.565,-1893.5 886.566,-1886.5"/>
</g>
<!-- \\HttpSourceEndpointTest -->
<g id="node27" class="node"><title>\\HttpSourceEndpointTest</title>
<polygon fill="none" stroke="black" points="1658,-558 1494,-558 1494,-522 1658,-522 1658,-558"/>
<text text-anchor="middle" x="1576" y="-537.1" font-family="Courier,monospace" font-size="11.00">HttpSourceEndpointTest</text>
</g>
<!-- \\HttpSourceEndpointTest&#45;&gt;\\CakeTestCase -->
<g id="edge51" class="edge"><title>\\HttpSourceEndpointTest&#45;&gt;\\CakeTestCase</title>
<path fill="none" stroke="black" d="M1493.42,-540.96C1470.92,-537.203 1448.28,-529.089 1432,-513 1315.93,-398.319 1477.5,-266.217 1360,-153 1339.19,-132.948 1309.7,-124.322 1281.29,-121.3"/>
<polygon fill="none" stroke="black" points="1281.56,-117.81 1271.3,-120.456 1280.97,-124.786 1281.56,-117.81"/>
</g>
<!-- \\HttpSourceEndpointItemTest -->
<g id="node28" class="node"><title>\\HttpSourceEndpointItemTest</title>
<polygon fill="none" stroke="black" points="1672,-1206 1480,-1206 1480,-1170 1672,-1170 1672,-1206"/>
<text text-anchor="middle" x="1576" y="-1185.1" font-family="Courier,monospace" font-size="11.00">HttpSourceEndpointItemTest</text>
</g>
<!-- \\HttpSourceEndpointItemTest&#45;&gt;\\CakeTestCase -->
<g id="edge53" class="edge"><title>\\HttpSourceEndpointItemTest&#45;&gt;\\CakeTestCase</title>
<path fill="none" stroke="black" d="M1479.77,-1187.67C1461.61,-1183.12 1444.44,-1174.95 1432,-1161 1282.51,-993.413 1511.58,-318.701 1360,-153 1339.52,-130.61 1308.37,-121.895 1278.49,-119.464"/>
<polygon fill="none" stroke="black" points="1278.62,-115.965 1268.43,-118.869 1278.21,-122.953 1278.62,-115.965"/>
</g>
<!-- \\HttpSourceEndpointItemiAmExistsANDValid -->
<g id="node29" class="node"><title>\\HttpSourceEndpointItemiAmExistsANDValid</title>
<polygon fill="none" stroke="black" points="954,-1962 674,-1962 674,-1926 954,-1926 954,-1962"/>
<text text-anchor="middle" x="814" y="-1941.1" font-family="Courier,monospace" font-size="11.00">HttpSourceEndpointItemiAmExistsANDValid</text>
</g>
<!-- \\HttpSourceEndpointItem -->
<g id="node46" class="node"><title>\\HttpSourceEndpointItem</title>
<polygon fill="none" stroke="black" points="528,-2016 362,-2016 362,-1980 528,-1980 528,-2016"/>
<text text-anchor="start" x="411" y="-2003.43" font-family="Courier,monospace" font-size="11.00">«abstract»</text>
<text text-anchor="start" x="370.5" y="-1990.23" font-family="Courier,monospace" font-size="11.00">HttpSourceEndpointItem</text>
</g>
<!-- \\HttpSourceEndpointItemiAmExistsANDValid&#45;&gt;\\HttpSourceEndpointItem -->
<g id="edge55" class="edge"><title>\\HttpSourceEndpointItemiAmExistsANDValid&#45;&gt;\\HttpSourceEndpointItem</title>
<path fill="none" stroke="black" d="M690.872,-1962.02C641.081,-1969.31 584.561,-1977.58 538.276,-1984.35"/>
<polygon fill="none" stroke="black" points="537.647,-1980.9 528.26,-1985.82 538.661,-1987.83 537.647,-1980.9"/>
</g>
<!-- \\HttpSourceResultTest -->
<g id="node30" class="node"><title>\\HttpSourceResultTest</title>
<polygon fill="none" stroke="black" points="1652,-1152 1500,-1152 1500,-1116 1652,-1116 1652,-1152"/>
<text text-anchor="middle" x="1576" y="-1131.1" font-family="Courier,monospace" font-size="11.00">HttpSourceResultTest</text>
</g>
<!-- \\HttpSourceResultTest&#45;&gt;\\CakeTestCase -->
<g id="edge57" class="edge"><title>\\HttpSourceResultTest&#45;&gt;\\CakeTestCase</title>
<path fill="none" stroke="black" d="M1499.66,-1137.25C1474.65,-1134.21 1448.97,-1125.95 1432,-1107 1290.16,-948.629 1503.81,-309.582 1360,-153 1339.47,-130.651 1308.31,-121.944 1278.45,-119.508"/>
<polygon fill="none" stroke="black" points="1278.57,-116.009 1268.38,-118.911 1278.16,-122.997 1278.57,-116.009"/>
</g>
<!-- \\HttpSourceConfigFactoryItemTest -->
<g id="node31" class="node"><title>\\HttpSourceConfigFactoryItemTest</title>
<polygon fill="none" stroke="black" points="1689,-828 1463,-828 1463,-792 1689,-792 1689,-828"/>
<text text-anchor="middle" x="1576" y="-807.1" font-family="Courier,monospace" font-size="11.00">HttpSourceConfigFactoryItemTest</text>
</g>
<!-- \\HttpSourceConfigFactoryItemTest&#45;&gt;\\CakeTestCase -->
<g id="edge59" class="edge"><title>\\HttpSourceConfigFactoryItemTest&#45;&gt;\\CakeTestCase</title>
<path fill="none" stroke="black" d="M1462.82,-803.627C1451.22,-798.877 1440.58,-792.216 1432,-783 1239.98,-576.721 1554.59,-356.857 1360,-153 1339.5,-131.526 1309.15,-122.8 1279.93,-120.104"/>
<polygon fill="none" stroke="black" points="1279.88,-116.592 1269.66,-119.39 1279.39,-123.575 1279.88,-116.592"/>
</g>
<!-- \\HttpSourceConfigFactoryItemiAmExistsANDValid -->
<g id="node32" class="node"><title>\\HttpSourceConfigFactoryItemiAmExistsANDValid</title>
<polygon fill="none" stroke="black" points="602,-1962 288,-1962 288,-1926 602,-1926 602,-1962"/>
<text text-anchor="middle" x="445" y="-1941.1" font-family="Courier,monospace" font-size="11.00">HttpSourceConfigFactoryItemiAmExistsANDValid</text>
</g>
<!-- \\HttpSourceConfigFactoryItem -->
<g id="node40" class="node"><title>\\HttpSourceConfigFactoryItem</title>
<polygon fill="none" stroke="black" points="216,-2043 16,-2043 16,-2007 216,-2007 216,-2043"/>
<text text-anchor="start" x="82" y="-2030.43" font-family="Courier,monospace" font-size="11.00">«abstract»</text>
<text text-anchor="start" x="24.5" y="-2017.23" font-family="Courier,monospace" font-size="11.00">HttpSourceConfigFactoryItem</text>
</g>
<!-- \\HttpSourceConfigFactoryItemiAmExistsANDValid&#45;&gt;\\HttpSourceConfigFactoryItem -->
<g id="edge61" class="edge"><title>\\HttpSourceConfigFactoryItemiAmExistsANDValid&#45;&gt;\\HttpSourceConfigFactoryItem</title>
<path fill="none" stroke="black" d="M329.315,-1962.08C315.337,-1964.8 301.307,-1967.78 288,-1971 250.643,-1980.03 209.55,-1992.83 176.899,-2003.69"/>
<polygon fill="none" stroke="black" points="175.418,-2000.5 167.051,-2007 177.645,-2007.13 175.418,-2000.5"/>
</g>
<!-- \\HttpSourceFieldTest -->
<g id="node33" class="node"><title>\\HttpSourceFieldTest</title>
<polygon fill="none" stroke="black" points="1648,-774 1504,-774 1504,-738 1648,-738 1648,-774"/>
<text text-anchor="middle" x="1576" y="-753.1" font-family="Courier,monospace" font-size="11.00">HttpSourceFieldTest</text>
</g>
<!-- \\HttpSourceFieldTest&#45;&gt;\\CakeTestCase -->
<g id="edge63" class="edge"><title>\\HttpSourceFieldTest&#45;&gt;\\CakeTestCase</title>
<path fill="none" stroke="black" d="M1503.16,-759.125C1477.29,-756.335 1450.13,-748.267 1432,-729 1255.22,-541.094 1539.12,-338.676 1360,-153 1339.39,-131.634 1309.02,-122.931 1279.81,-120.223"/>
<polygon fill="none" stroke="black" points="1279.76,-116.711 1269.54,-119.504 1279.27,-123.694 1279.76,-116.711"/>
</g>
<!-- \\HttpSourceConfigTest -->
<g id="node34" class="node"><title>\\HttpSourceConfigTest</title>
<polygon fill="none" stroke="black" points="1652,-720 1500,-720 1500,-684 1652,-684 1652,-720"/>
<text text-anchor="middle" x="1576" y="-699.1" font-family="Courier,monospace" font-size="11.00">HttpSourceConfigTest</text>
</g>
<!-- \\HttpSourceConfigTest&#45;&gt;\\CakeTestCase -->
<g id="edge65" class="edge"><title>\\HttpSourceConfigTest&#45;&gt;\\CakeTestCase</title>
<path fill="none" stroke="black" d="M1499.92,-704.608C1475.1,-701.481 1449.46,-693.323 1432,-675 1270.44,-505.449 1523.67,-320.514 1360,-153 1339.34,-131.86 1309.12,-123.168 1280.05,-120.404"/>
<polygon fill="none" stroke="black" points="1280.05,-116.895 1269.83,-119.663 1279.55,-123.877 1280.05,-116.895"/>
</g>
<!-- \\HttpSourceConditionTest -->
<g id="node35" class="node"><title>\\HttpSourceConditionTest</title>
<polygon fill="none" stroke="black" points="1662,-612 1490,-612 1490,-576 1662,-576 1662,-612"/>
<text text-anchor="middle" x="1576" y="-591.1" font-family="Courier,monospace" font-size="11.00">HttpSourceConditionTest</text>
</g>
<!-- \\HttpSourceConditionTest&#45;&gt;\\CakeTestCase -->
<g id="edge67" class="edge"><title>\\HttpSourceConditionTest&#45;&gt;\\CakeTestCase</title>
<path fill="none" stroke="black" d="M1489.79,-594.621C1468.41,-590.63 1447.28,-582.479 1432,-567 1300.81,-434.074 1492.84,-284.272 1360,-153 1339.26,-132.502 1309.48,-123.844 1280.8,-120.923"/>
<polygon fill="none" stroke="black" points="1280.97,-117.426 1270.72,-120.12 1280.41,-124.403 1280.97,-117.426"/>
</g>
<!-- \\HttpSourceAppTest&#45;&gt;\\CakeTestCase -->
<g id="edge69" class="edge"><title>\\HttpSourceAppTest&#45;&gt;\\CakeTestCase</title>
<path fill="none" stroke="black" d="M1259.31,-2060.77C1305.68,-2062.76 1364.72,-2056.06 1396,-2016 1427.69,-1975.41 1427.69,-202.593 1396,-162 1368,-126.142 1317.77,-117.016 1274.28,-116.917"/>
<polygon fill="none" stroke="black" points="1274.2,-113.418 1264.25,-117.05 1274.3,-120.417 1274.2,-113.418"/>
</g>
<!-- \\HttpSourceUserFixture -->
<g id="node37" class="node"><title>\\HttpSourceUserFixture</title>
<polygon fill="none" stroke="black" points="1655,-1476 1497,-1476 1497,-1440 1655,-1440 1655,-1476"/>
<text text-anchor="middle" x="1576" y="-1455.1" font-family="Courier,monospace" font-size="11.00">HttpSourceUserFixture</text>
</g>
<!-- \\HttpSourceUserFixture&#45;&gt;\\CakeTestFixture -->
<g id="edge71" class="edge"><title>\\HttpSourceUserFixture&#45;&gt;\\CakeTestFixture</title>
<path fill="none" stroke="black" d="M1496.93,-1461C1472.77,-1457.71 1448.29,-1449.36 1432,-1431 1271.89,-1250.61 1524.96,-523.971 1360,-348 1340.05,-326.72 1310.3,-318.682 1281.41,-316.799"/>
<polygon fill="none" stroke="black" points="1281.38,-313.294 1271.24,-316.377 1281.09,-320.288 1281.38,-313.294"/>
</g>
<!-- \\HttpSourceUsersDocumentFixture -->
<g id="node38" class="node"><title>\\HttpSourceUsersDocumentFixture</title>
<polygon fill="none" stroke="black" points="1685,-1584 1467,-1584 1467,-1548 1685,-1548 1685,-1584"/>
<text text-anchor="middle" x="1576" y="-1563.1" font-family="Courier,monospace" font-size="11.00">HttpSourceUsersDocumentFixture</text>
</g>
<!-- \\HttpSourceUsersDocumentFixture&#45;&gt;\\CakeTestFixture -->
<g id="edge73" class="edge"><title>\\HttpSourceUsersDocumentFixture&#45;&gt;\\CakeTestFixture</title>
<path fill="none" stroke="black" d="M1466.2,-1561.6C1453.18,-1556.72 1441.26,-1549.49 1432,-1539 1256.58,-1340.17 1540.76,-541.99 1360,-348 1340.12,-326.66 1310.38,-318.609 1281.48,-316.732"/>
<polygon fill="none" stroke="black" points="1281.45,-313.228 1271.31,-316.313 1281.16,-320.222 1281.45,-313.228"/>
</g>
<!-- \\HttpSourceUtility -->
<g id="node39" class="node"><title>\\HttpSourceUtility</title>
<polygon fill="none" stroke="black" points="1641,-666 1511,-666 1511,-630 1641,-630 1641,-666"/>
<text text-anchor="middle" x="1576" y="-645.1" font-family="Courier,monospace" font-size="11.00">HttpSourceUtility</text>
</g>
<!-- \\HttpSourceEndpoint&#45;&gt;\\HttpSourceConfigFactoryItem -->
<g id="edge75" class="edge"><title>\\HttpSourceEndpoint&#45;&gt;\\HttpSourceConfigFactoryItem</title>
<path fill="none" stroke="black" d="M375.63,-2046.31C332.33,-2042.75 275.632,-2038.1 226.27,-2034.05"/>
<polygon fill="none" stroke="black" points="226.432,-2030.55 216.179,-2033.22 225.859,-2037.53 226.432,-2030.55"/>
</g>
<!-- \\HttpSourceField&#45;&gt;\\HttpSourceEndpointItem -->
<g id="edge77" class="edge"><title>\\HttpSourceField&#45;&gt;\\HttpSourceEndpointItem</title>
<path fill="none" stroke="black" d="M754.714,-1998C696.386,-1998 606.447,-1998 538.488,-1998"/>
<polygon fill="none" stroke="black" points="538.203,-1994.5 528.203,-1998 538.203,-2001.5 538.203,-1994.5"/>
</g>
<!-- \\HttpSourceResult&#45;&gt;\\HttpSourceEndpointItem -->
<g id="edge79" class="edge"><title>\\HttpSourceResult&#45;&gt;\\HttpSourceEndpointItem</title>
<path fill="none" stroke="black" d="M751.19,-1895.95C726.382,-1899.86 698.103,-1906.32 674,-1917 637.428,-1933.2 638.734,-1955.17 602,-1971 582.157,-1979.55 559.802,-1985.4 538.318,-1989.39"/>
<polygon fill="none" stroke="black" points="537.441,-1985.99 528.19,-1991.16 538.642,-1992.89 537.441,-1985.99"/>
</g>
<!-- \\HttpSourceCondition&#45;&gt;\\HttpSourceField -->
<g id="edge81" class="edge"><title>\\HttpSourceCondition&#45;&gt;\\HttpSourceField</title>
<path fill="none" stroke="black" d="M1120.37,-1954.35C1051.99,-1964.09 950.284,-1978.58 883.08,-1988.16"/>
<polygon fill="none" stroke="black" points="882.418,-1984.72 873.012,-1989.59 883.406,-1991.65 882.418,-1984.72"/>
</g>
<!-- \\HttpSourceEndpointItem&#45;&gt;\\HttpSourceConfigFactoryItem -->
<g id="edge83" class="edge"><title>\\HttpSourceEndpointItem&#45;&gt;\\HttpSourceConfigFactoryItem</title>
<path fill="none" stroke="black" d="M361.979,-2004.81C320.831,-2008.19 270.583,-2012.31 226.253,-2015.95"/>
<polygon fill="none" stroke="black" points="225.689,-2012.49 216.009,-2016.79 226.262,-2019.46 225.689,-2012.49"/>
</g>
<!-- \\HttpSourceConfig&#45;&gt;\\HttpSourceConfigFactoryItem -->
<g id="edge85" class="edge"><title>\\HttpSourceConfig&#45;&gt;\\HttpSourceConfigFactoryItem</title>
<path fill="none" stroke="black" d="M382.339,-2097.19C353.434,-2092.63 318.78,-2086.44 288,-2079 250.643,-2069.97 209.55,-2057.17 176.899,-2046.31"/>
<polygon fill="none" stroke="black" points="177.645,-2042.87 167.051,-2043 175.418,-2049.5 177.645,-2042.87"/>
</g>
<!-- \\HttpSourceException -->
<g id="node48" class="node"><title>\\HttpSourceException</title>
<polygon fill="none" stroke="black" points="1648,-396 1504,-396 1504,-360 1648,-360 1648,-396"/>
<text text-anchor="middle" x="1576" y="-375.1" font-family="Courier,monospace" font-size="11.00">HttpSourceException</text>
</g>
<!-- \\CakeException -->
<g id="node104" class="node"><title>\\CakeException</title>
<ellipse fill="none" stroke="black" cx="1193" cy="-18" rx="85.7684" ry="18.3848"/>
<text text-anchor="middle" x="1193" y="-14.4" font-family="Times Roman,serif" font-size="14.00" fill="gray">\CakeException</text>
</g>
<!-- \\HttpSourceException&#45;&gt;\\CakeException -->
<g id="edge87" class="edge"><title>\\HttpSourceException&#45;&gt;\\CakeException</title>
<path fill="none" stroke="black" d="M1570.17,-359.757C1550.83,-302.46 1482.95,-125.171 1360,-45 1339.24,-31.4647 1314.03,-23.9186 1289.55,-19.884"/>
<polygon fill="none" stroke="black" points="1289.89,-16.3964 1279.48,-18.4099 1288.87,-23.3224 1289.89,-16.3964"/>
</g>
<!-- \\HttpSourceConfigException -->
<g id="node49" class="node"><title>\\HttpSourceConfigException</title>
<polygon fill="none" stroke="black" points="1668,-450 1484,-450 1484,-414 1668,-414 1668,-450"/>
<text text-anchor="middle" x="1576" y="-429.1" font-family="Courier,monospace" font-size="11.00">HttpSourceConfigException</text>
</g>
<!-- \\HttpSourceConfigException&#45;&gt;\\CakeException -->
<g id="edge89" class="edge"><title>\\HttpSourceConfigException&#45;&gt;\\CakeException</title>
<path fill="none" stroke="black" d="M1483.31,-430.963C1464.27,-426.589 1445.84,-418.676 1432,-405 1315.93,-290.319 1477.5,-158.217 1360,-45 1340.4,-26.1168 1313.11,-17.3661 1286.27,-13.8869"/>
<polygon fill="none" stroke="black" points="1286.33,-10.374 1276.02,-12.8014 1285.59,-17.3351 1286.33,-10.374"/>
</g>
<!-- \\TestHttpSourceModel -->
<g id="node50" class="node"><title>\\TestHttpSourceModel</title>
<polygon fill="none" stroke="black" points="1648,-1692 1504,-1692 1504,-1656 1648,-1656 1648,-1692"/>
<text text-anchor="middle" x="1576" y="-1671.1" font-family="Courier,monospace" font-size="11.00">TestHttpSourceModel</text>
</g>
<!-- \\TestHttpSourceModel&#45;&gt;\\HttpSourceModel -->
<g id="edge91" class="edge"><title>\\TestHttpSourceModel&#45;&gt;\\HttpSourceModel</title>
<path fill="none" stroke="black" d="M1503.06,-1668.86C1433.8,-1663.98 1330.42,-1656.69 1262.37,-1651.89"/>
<polygon fill="none" stroke="black" points="1262.4,-1648.38 1252.18,-1651.17 1261.9,-1655.37 1262.4,-1648.38"/>
</g>
<!-- \\TestHttpSource -->
<g id="node51" class="node"><title>\\TestHttpSource</title>
<polygon fill="none" stroke="black" points="1631,-1800 1521,-1800 1521,-1764 1631,-1764 1631,-1800"/>
<text text-anchor="middle" x="1576" y="-1779.1" font-family="Courier,monospace" font-size="11.00">TestHttpSource</text>
</g>
<!-- \\TestHttpSource&#45;&gt;\\HttpSource -->
<g id="edge93" class="edge"><title>\\TestHttpSource&#45;&gt;\\HttpSource</title>
<path fill="none" stroke="black" d="M1520.31,-1782C1446.75,-1782 1318.1,-1782 1245.95,-1782"/>
<polygon fill="none" stroke="black" points="1245.72,-1778.5 1235.72,-1782 1245.72,-1785.5 1245.72,-1778.5"/>
</g>
<!-- \\TestHttpSourceConnection -->
<g id="node52" class="node"><title>\\TestHttpSourceConnection</title>
<polygon fill="none" stroke="black" points="1665,-1908 1487,-1908 1487,-1872 1665,-1872 1665,-1908"/>
<text text-anchor="middle" x="1576" y="-1887.1" font-family="Courier,monospace" font-size="11.00">TestHttpSourceConnection</text>
</g>
<!-- \\TestHttpSourceConnection&#45;&gt;\\HttpSourceConnection -->
<g id="edge95" class="edge"><title>\\TestHttpSourceConnection&#45;&gt;\\HttpSourceConnection</title>
<path fill="none" stroke="black" d="M1486.2,-1877.34C1423.69,-1868.52 1340.79,-1856.84 1279.1,-1848.14"/>
<polygon fill="none" stroke="black" points="1279.39,-1844.65 1269,-1846.72 1278.42,-1851.58 1279.39,-1844.65"/>
</g>
</g>
</svg>
