<?xml version="1.0" encoding="UTF-8" standalone="no"?>
<!DOCTYPE svg PUBLIC "-//W3C//DTD SVG 1.1//EN"
 "http://www.w3.org/Graphics/SVG/1.1/DTD/svg11.dtd">
<!-- Generated by graphviz version 2.26.3 (20100126.1600)
 -->
<!-- Title: G Pages: 1 -->
<svg width="1744pt" height="2179pt"
 viewBox="0.00 0.00 1744.00 2179.17" xmlns="http://www.w3.org/2000/svg" xmlns:xlink="http://www.w3.org/1999/xlink">
<g id="graph1" class="graph" transform="scale(1 1) rotate(0) translate(4 2175.17)">
<title>G</title>
<polygon fill="white" stroke="white" points="-4,5 -4,-2175.17 1741,-2175.17 1741,5 -4,5"/>
<g id="graph2" class="cluster"><title>cluster_Global</title>
<polyline fill="none" stroke="gray" points="20,-361.166 1716,-361.166 "/>
<path fill="none" stroke="gray" d="M1716,-361.166C1722,-361.166 1728,-367.166 1728,-373.166"/>
<polyline fill="none" stroke="gray" points="1728,-373.166 1728,-2151.17 "/>
<path fill="none" stroke="gray" d="M1728,-2151.17C1728,-2157.17 1722,-2163.17 1716,-2163.17"/>
<polyline fill="none" stroke="gray" points="1716,-2163.17 20,-2163.17 "/>
<path fill="none" stroke="gray" d="M20,-2163.17C14,-2163.17 8,-2157.17 8,-2151.17"/>
<polyline fill="none" stroke="gray" points="8,-2151.17 8,-373.166 "/>
<path fill="none" stroke="gray" d="M8,-373.166C8,-367.166 14,-361.166 20,-361.166"/>
<text text-anchor="middle" x="868" y="-2149.27" font-family="Times Roman,serif" font-size="11.00" fill="gray">Global</text>
</g>
<!-- \\HttpSourceTestFixture -->
<g id="node2" class="node"><title>\\HttpSourceTestFixture</title>
<polygon fill="none" stroke="black" points="1655,-1377.17 1497,-1377.17 1497,-1341.17 1655,-1341.17 1655,-1377.17"/>
<text text-anchor="middle" x="1576" y="-1356.27" font-family="Courier,monospace" font-size="11.00">HttpSourceTestFixture</text>
</g>
<!-- \\CakeTestFixture -->
<g id="node54" class="node"><title>\\CakeTestFixture</title>
<ellipse fill="none" stroke="black" cx="1193" cy="-335.166" rx="92.1303" ry="18.3848"/>
<text text-anchor="middle" x="1193" y="-331.566" font-family="Times Roman,serif" font-size="14.00" fill="gray">\CakeTestFixture</text>
</g>
<!-- \\HttpSourceTestFixture&#45;&gt;\\CakeTestFixture -->
<g id="edge3" class="edge"><title>\\HttpSourceTestFixture&#45;&gt;\\CakeTestFixture</title>
<path fill="none" stroke="black" d="M1496.64,-1362.04C1472.6,-1358.72 1448.28,-1350.37 1432,-1332.17 1287.19,-1170.21 1509.16,-515.125 1360,-357.166 1340.06,-336.054 1310.47,-328.01 1281.71,-326.072"/>
<polygon fill="none" stroke="black" points="1281.73,-322.57 1271.59,-325.63 1281.43,-329.563 1281.73,-322.57"/>
</g>
<!-- \\HttpSourceUtility -->
<g id="node3" class="node"><title>\\HttpSourceUtility</title>
<polygon fill="none" stroke="black" points="1641,-2079.17 1511,-2079.17 1511,-2043.17 1641,-2043.17 1641,-2079.17"/>
<text text-anchor="middle" x="1576" y="-2058.27" font-family="Courier,monospace" font-size="11.00">HttpSourceUtility</text>
</g>
<!-- \\HttpSourceController -->
<g id="node4" class="node"><title>\\HttpSourceController</title>
<polygon fill="none" stroke="black" points="1652,-1323.17 1500,-1323.17 1500,-1287.17 1652,-1287.17 1652,-1323.17"/>
<text text-anchor="middle" x="1576" y="-1302.27" font-family="Courier,monospace" font-size="11.00">HttpSourceController</text>
</g>
<!-- \\AppController -->
<g id="node56" class="node"><title>\\AppController</title>
<ellipse fill="none" stroke="black" cx="1193" cy="-281.166" rx="82.0244" ry="18.3848"/>
<text text-anchor="middle" x="1193" y="-277.566" font-family="Times Roman,serif" font-size="14.00" fill="gray">\AppController</text>
</g>
<!-- \\HttpSourceController&#45;&gt;\\AppController -->
<g id="edge5" class="edge"><title>\\HttpSourceController&#45;&gt;\\AppController</title>
<path fill="none" stroke="black" d="M1499.64,-1308.43C1474.64,-1305.39 1448.96,-1297.12 1432,-1278.17 1287.89,-1117.06 1506.11,-467.449 1360,-308.166 1339.49,-285.804 1308.33,-277.095 1278.46,-274.66"/>
<polygon fill="none" stroke="black" points="1278.59,-271.162 1268.4,-274.064 1278.17,-278.149 1278.59,-271.162"/>
</g>
<!-- \\HttpSourceEndpointItem -->
<g id="node5" class="node"><title>\\HttpSourceEndpointItem</title>
<polygon fill="none" stroke="black" points="528,-1971.17 362,-1971.17 362,-1935.17 528,-1935.17 528,-1971.17"/>
<text text-anchor="start" x="411" y="-1958.6" font-family="Courier,monospace" font-size="11.00">«abstract»</text>
<text text-anchor="start" x="370.5" y="-1945.4" font-family="Courier,monospace" font-size="11.00">HttpSourceEndpointItem</text>
</g>
<!-- \\HttpSourceConfigFactoryItem -->
<g id="node9" class="node"><title>\\HttpSourceConfigFactoryItem</title>
<polygon fill="none" stroke="black" points="216,-2052.17 16,-2052.17 16,-2016.17 216,-2016.17 216,-2052.17"/>
<text text-anchor="start" x="82" y="-2039.6" font-family="Courier,monospace" font-size="11.00">«abstract»</text>
<text text-anchor="start" x="24.5" y="-2026.4" font-family="Courier,monospace" font-size="11.00">HttpSourceConfigFactoryItem</text>
</g>
<!-- \\HttpSourceEndpointItem&#45;&gt;\\HttpSourceConfigFactoryItem -->
<g id="edge7" class="edge"><title>\\HttpSourceEndpointItem&#45;&gt;\\HttpSourceConfigFactoryItem</title>
<path fill="none" stroke="black" d="M361.871,-1965.33C337.896,-1969.41 311.791,-1974.41 288,-1980.17 250.643,-1989.2 209.55,-2001.99 176.899,-2012.86"/>
<polygon fill="none" stroke="black" points="175.418,-2009.66 167.051,-2016.16 177.645,-2016.3 175.418,-2009.66"/>
</g>
<!-- \\HttpSourceConfigFactory -->
<g id="node6" class="node"><title>\\HttpSourceConfigFactory</title>
<polygon fill="none" stroke="black" points="1279,-2133.17 1107,-2133.17 1107,-2097.17 1279,-2097.17 1279,-2133.17"/>
<text text-anchor="middle" x="1193" y="-2112.27" font-family="Courier,monospace" font-size="11.00">HttpSourceConfigFactory</text>
</g>
<!-- \\HttpSourceConfig -->
<g id="node7" class="node"><title>\\HttpSourceConfig</title>
<polygon fill="none" stroke="black" points="507,-2079.17 383,-2079.17 383,-2043.17 507,-2043.17 507,-2079.17"/>
<text text-anchor="middle" x="445" y="-2058.27" font-family="Courier,monospace" font-size="11.00">HttpSourceConfig</text>
</g>
<!-- \\HttpSourceConfig&#45;&gt;\\HttpSourceConfigFactoryItem -->
<g id="edge9" class="edge"><title>\\HttpSourceConfig&#45;&gt;\\HttpSourceConfigFactoryItem</title>
<path fill="none" stroke="black" d="M382.343,-2056.02C338.385,-2052.42 278.429,-2047.5 226.533,-2043.24"/>
<polygon fill="none" stroke="black" points="226.521,-2039.72 216.269,-2042.39 225.949,-2046.7 226.521,-2039.72"/>
</g>
<!-- \\HttpSourceField -->
<g id="node8" class="node"><title>\\HttpSourceField</title>
<polygon fill="none" stroke="black" points="873,-1917.17 755,-1917.17 755,-1881.17 873,-1881.17 873,-1917.17"/>
<text text-anchor="middle" x="814" y="-1896.27" font-family="Courier,monospace" font-size="11.00">HttpSourceField</text>
</g>
<!-- \\HttpSourceField&#45;&gt;\\HttpSourceEndpointItem -->
<g id="edge11" class="edge"><title>\\HttpSourceField&#45;&gt;\\HttpSourceEndpointItem</title>
<path fill="none" stroke="black" d="M754.714,-1907.84C696.386,-1916.38 606.447,-1929.54 538.488,-1939.48"/>
<polygon fill="none" stroke="black" points="537.59,-1936.08 528.203,-1940.99 538.604,-1943.01 537.59,-1936.08"/>
</g>
<!-- \\HttpSourceEndpoint -->
<g id="node10" class="node"><title>\\HttpSourceEndpoint</title>
<polygon fill="none" stroke="black" points="514,-2025.17 376,-2025.17 376,-1989.17 514,-1989.17 514,-2025.17"/>
<text text-anchor="middle" x="445" y="-2004.27" font-family="Courier,monospace" font-size="11.00">HttpSourceEndpoint</text>
</g>
<!-- \\HttpSourceEndpoint&#45;&gt;\\HttpSourceConfigFactoryItem -->
<g id="edge13" class="edge"><title>\\HttpSourceEndpoint&#45;&gt;\\HttpSourceConfigFactoryItem</title>
<path fill="none" stroke="black" d="M375.63,-2012.86C332.33,-2016.41 275.632,-2021.07 226.27,-2025.12"/>
<polygon fill="none" stroke="black" points="225.859,-2021.64 216.179,-2025.94 226.432,-2028.61 225.859,-2021.64"/>
</g>
<!-- \\HttpSourceCondition -->
<g id="node11" class="node"><title>\\HttpSourceCondition</title>
<polygon fill="none" stroke="black" points="1265,-1917.17 1121,-1917.17 1121,-1881.17 1265,-1881.17 1265,-1917.17"/>
<text text-anchor="middle" x="1193" y="-1896.27" font-family="Courier,monospace" font-size="11.00">HttpSourceCondition</text>
</g>
<!-- \\HttpSourceCondition&#45;&gt;\\HttpSourceField -->
<g id="edge15" class="edge"><title>\\HttpSourceCondition&#45;&gt;\\HttpSourceField</title>
<path fill="none" stroke="black" d="M1120.37,-1899.17C1051.99,-1899.17 950.284,-1899.17 883.08,-1899.17"/>
<polygon fill="none" stroke="black" points="883.012,-1895.67 873.012,-1899.17 883.012,-1902.67 883.012,-1895.67"/>
</g>
<!-- \\HttpSourceResult -->
<g id="node12" class="node"><title>\\HttpSourceResult</title>
<polygon fill="none" stroke="black" points="876,-2025.17 752,-2025.17 752,-1989.17 876,-1989.17 876,-2025.17"/>
<text text-anchor="middle" x="814" y="-2004.27" font-family="Courier,monospace" font-size="11.00">HttpSourceResult</text>
</g>
<!-- \\HttpSourceResult&#45;&gt;\\HttpSourceEndpointItem -->
<g id="edge17" class="edge"><title>\\HttpSourceResult&#45;&gt;\\HttpSourceEndpointItem</title>
<path fill="none" stroke="black" d="M751.404,-1998.01C692.926,-1989.45 604.873,-1976.56 538.145,-1966.8"/>
<polygon fill="none" stroke="black" points="538.446,-1963.3 528.044,-1965.32 537.432,-1970.23 538.446,-1963.3"/>
</g>
<!-- \\HttpSourceException -->
<g id="node13" class="node"><title>\\HttpSourceException</title>
<polygon fill="none" stroke="black" points="1648,-1215.17 1504,-1215.17 1504,-1179.17 1648,-1179.17 1648,-1215.17"/>
<text text-anchor="middle" x="1576" y="-1194.27" font-family="Courier,monospace" font-size="11.00">HttpSourceException</text>
</g>
<!-- \\CakeException -->
<g id="node64" class="node"><title>\\CakeException</title>
<ellipse fill="none" stroke="black" cx="1193" cy="-227.166" rx="85.7684" ry="18.3848"/>
<text text-anchor="middle" x="1193" y="-223.566" font-family="Times Roman,serif" font-size="14.00" fill="gray">\CakeException</text>
</g>
<!-- \\HttpSourceException&#45;&gt;\\CakeException -->
<g id="edge19" class="edge"><title>\\HttpSourceException&#45;&gt;\\CakeException</title>
<path fill="none" stroke="black" d="M1503.43,-1200.8C1477.28,-1198.15 1449.85,-1190.03 1432,-1170.17 1295.54,-1018.28 1498.35,-404.332 1360,-254.166 1340.51,-233.009 1311.48,-224.089 1283.07,-221.14"/>
<polygon fill="none" stroke="black" points="1283.32,-217.648 1273.07,-220.335 1282.76,-224.626 1283.32,-217.648"/>
</g>
<!-- \\HttpSourceConfigException -->
<g id="node14" class="node"><title>\\HttpSourceConfigException</title>
<polygon fill="none" stroke="black" points="1668,-1269.17 1484,-1269.17 1484,-1233.17 1668,-1233.17 1668,-1269.17"/>
<text text-anchor="middle" x="1576" y="-1248.27" font-family="Courier,monospace" font-size="11.00">HttpSourceConfigException</text>
</g>
<!-- \\HttpSourceConfigException&#45;&gt;\\CakeException -->
<g id="edge21" class="edge"><title>\\HttpSourceConfigException&#45;&gt;\\CakeException</title>
<path fill="none" stroke="black" d="M1483.14,-1251.61C1463.76,-1247.24 1445.23,-1238.95 1432,-1224.17 1287.89,-1063.06 1506.11,-413.449 1360,-254.166 1340.55,-232.967 1311.54,-224.037 1283.13,-221.092"/>
<polygon fill="none" stroke="black" points="1283.37,-217.6 1273.12,-220.289 1282.81,-224.577 1283.37,-217.6"/>
</g>
<!-- \\HttpSourceUserFixture -->
<g id="node15" class="node"><title>\\HttpSourceUserFixture</title>
<polygon fill="none" stroke="black" points="1655,-1539.17 1497,-1539.17 1497,-1503.17 1655,-1503.17 1655,-1539.17"/>
<text text-anchor="middle" x="1576" y="-1518.27" font-family="Courier,monospace" font-size="11.00">HttpSourceUserFixture</text>
</g>
<!-- \\HttpSourceUserFixture&#45;&gt;\\CakeTestFixture -->
<g id="edge23" class="edge"><title>\\HttpSourceUserFixture&#45;&gt;\\CakeTestFixture</title>
<path fill="none" stroke="black" d="M1496.9,-1524.19C1472.73,-1520.91 1448.26,-1512.55 1432,-1494.17 1264.24,-1304.56 1532.86,-542.146 1360,-357.166 1340.09,-335.855 1310.34,-327.81 1281.44,-325.93"/>
<polygon fill="none" stroke="black" points="1281.41,-322.425 1271.28,-325.51 1281.12,-329.419 1281.41,-322.425"/>
</g>
<!-- \\HttpSourceUsersDocumentFixture -->
<g id="node16" class="node"><title>\\HttpSourceUsersDocumentFixture</title>
<polygon fill="none" stroke="black" points="1685,-1485.17 1467,-1485.17 1467,-1449.17 1685,-1449.17 1685,-1485.17"/>
<text text-anchor="middle" x="1576" y="-1464.27" font-family="Courier,monospace" font-size="11.00">HttpSourceUsersDocumentFixture</text>
</g>
<!-- \\HttpSourceUsersDocumentFixture&#45;&gt;\\CakeTestFixture -->
<g id="edge25" class="edge"><title>\\HttpSourceUsersDocumentFixture&#45;&gt;\\CakeTestFixture</title>
<path fill="none" stroke="black" d="M1466.26,-1462.72C1453.23,-1457.84 1441.29,-1450.63 1432,-1440.17 1271.89,-1259.78 1524.96,-533.137 1360,-357.166 1340.05,-335.886 1310.3,-327.848 1281.41,-325.965"/>
<polygon fill="none" stroke="black" points="1281.38,-322.46 1271.24,-325.543 1281.09,-329.454 1281.38,-322.46"/>
</g>
<!-- \\HttpSourceUtilityTest -->
<g id="node17" class="node"><title>\\HttpSourceUtilityTest</title>
<polygon fill="none" stroke="black" points="1655,-567.166 1497,-567.166 1497,-531.166 1655,-531.166 1655,-567.166"/>
<text text-anchor="middle" x="1576" y="-546.266" font-family="Courier,monospace" font-size="11.00">HttpSourceUtilityTest</text>
</g>
<!-- \\CakeTestCase -->
<g id="node69" class="node"><title>\\CakeTestCase</title>
<ellipse fill="none" stroke="black" cx="1193" cy="-173.166" rx="82.0244" ry="18.3848"/>
<text text-anchor="middle" x="1193" y="-169.566" font-family="Times Roman,serif" font-size="14.00" fill="gray">\CakeTestCase</text>
</g>
<!-- \\HttpSourceUtilityTest&#45;&gt;\\CakeTestCase -->
<g id="edge27" class="edge"><title>\\HttpSourceUtilityTest&#45;&gt;\\CakeTestCase</title>
<path fill="none" stroke="black" d="M1496.65,-550.37C1473.18,-546.83 1449.2,-538.777 1432,-522.166 1326.53,-420.283 1466.74,-300.719 1360,-200.166 1339.15,-180.526 1309.95,-171.932 1281.79,-168.817"/>
<polygon fill="none" stroke="black" points="1281.75,-165.3 1271.48,-167.908 1281.13,-172.273 1281.75,-165.3"/>
</g>
<!-- \\HttpSourceControllerTest -->
<g id="node18" class="node"><title>\\HttpSourceControllerTest</title>
<polygon fill="none" stroke="black" points="1665,-513.166 1487,-513.166 1487,-477.166 1665,-477.166 1665,-513.166"/>
<text text-anchor="middle" x="1576" y="-492.266" font-family="Courier,monospace" font-size="11.00">HttpSourceControllerTest</text>
</g>
<!-- \\ControllerTestCase -->
<g id="node71" class="node"><title>\\ControllerTestCase</title>
<ellipse fill="none" stroke="black" cx="1193" cy="-119.166" rx="106.773" ry="18.3848"/>
<text text-anchor="middle" x="1193" y="-115.566" font-family="Times Roman,serif" font-size="14.00" fill="gray">\ControllerTestCase</text>
</g>
<!-- \\HttpSourceControllerTest&#45;&gt;\\ControllerTestCase -->
<g id="edge29" class="edge"><title>\\HttpSourceControllerTest&#45;&gt;\\ControllerTestCase</title>
<path fill="none" stroke="black" d="M1486.15,-494.474C1466.19,-490.241 1446.64,-482.303 1432,-468.166 1326.53,-366.283 1466.74,-246.719 1360,-146.166 1345.98,-132.961 1328.19,-124.749 1309.48,-119.839"/>
<polygon fill="none" stroke="black" points="1310.15,-116.403 1299.62,-117.564 1308.58,-123.224 1310.15,-116.403"/>
</g>
<!-- \\HttpSourceConfigTest -->
<g id="node19" class="node"><title>\\HttpSourceConfigTest</title>
<polygon fill="none" stroke="black" points="1652,-1161.17 1500,-1161.17 1500,-1125.17 1652,-1125.17 1652,-1161.17"/>
<text text-anchor="middle" x="1576" y="-1140.27" font-family="Courier,monospace" font-size="11.00">HttpSourceConfigTest</text>
</g>
<!-- \\HttpSourceConfigTest&#45;&gt;\\CakeTestCase -->
<g id="edge31" class="edge"><title>\\HttpSourceConfigTest&#45;&gt;\\CakeTestCase</title>
<path fill="none" stroke="black" d="M1499.69,-1146.39C1474.69,-1143.35 1449,-1135.09 1432,-1116.17 1295.54,-964.279 1498.35,-350.332 1360,-200.166 1339.53,-177.946 1308.54,-169.224 1278.8,-166.74"/>
<polygon fill="none" stroke="black" points="1278.97,-163.244 1268.78,-166.126 1278.54,-170.231 1278.97,-163.244"/>
</g>
<!-- \\HttpSourceConfigFactoryItemTest -->
<g id="node20" class="node"><title>\\HttpSourceConfigFactoryItemTest</title>
<polygon fill="none" stroke="black" points="1689,-1107.17 1463,-1107.17 1463,-1071.17 1689,-1071.17 1689,-1107.17"/>
<text text-anchor="middle" x="1576" y="-1086.27" font-family="Courier,monospace" font-size="11.00">HttpSourceConfigFactoryItemTest</text>
</g>
<!-- \\HttpSourceConfigFactoryItemTest&#45;&gt;\\CakeTestCase -->
<g id="edge33" class="edge"><title>\\HttpSourceConfigFactoryItemTest&#45;&gt;\\CakeTestCase</title>
<path fill="none" stroke="black" d="M1462.89,-1083.19C1451.21,-1078.39 1440.52,-1071.61 1432,-1062.17 1303.18,-919.491 1490.59,-341.216 1360,-200.166 1339.47,-177.996 1308.48,-169.284 1278.74,-166.794"/>
<polygon fill="none" stroke="black" points="1278.92,-163.298 1268.72,-166.177 1278.49,-170.285 1278.92,-163.298"/>
</g>
<!-- \\HttpSourceConfigFactoryItemiAmExistsANDValid -->
<g id="node21" class="node"><title>\\HttpSourceConfigFactoryItemiAmExistsANDValid</title>
<polygon fill="none" stroke="black" points="602,-2133.17 288,-2133.17 288,-2097.17 602,-2097.17 602,-2133.17"/>
<text text-anchor="middle" x="445" y="-2112.27" font-family="Courier,monospace" font-size="11.00">HttpSourceConfigFactoryItemiAmExistsANDValid</text>
</g>
<!-- \\HttpSourceConfigFactoryItemiAmExistsANDValid&#45;&gt;\\HttpSourceConfigFactoryItem -->
<g id="edge35" class="edge"><title>\\HttpSourceConfigFactoryItemiAmExistsANDValid&#45;&gt;\\HttpSourceConfigFactoryItem</title>
<path fill="none" stroke="black" d="M329.315,-2097.09C315.337,-2094.37 301.307,-2091.38 288,-2088.17 250.643,-2079.13 209.55,-2066.34 176.899,-2055.47"/>
<polygon fill="none" stroke="black" points="177.645,-2052.03 167.051,-2052.17 175.418,-2058.67 177.645,-2052.03"/>
</g>
<!-- \\HttpSourceEndpointTest -->
<g id="node22" class="node"><title>\\HttpSourceEndpointTest</title>
<polygon fill="none" stroke="black" points="1658,-1053.17 1494,-1053.17 1494,-1017.17 1658,-1017.17 1658,-1053.17"/>
<text text-anchor="middle" x="1576" y="-1032.27" font-family="Courier,monospace" font-size="11.00">HttpSourceEndpointTest</text>
</g>
<!-- \\HttpSourceEndpointTest&#45;&gt;\\CakeTestCase -->
<g id="edge37" class="edge"><title>\\HttpSourceEndpointTest&#45;&gt;\\CakeTestCase</title>
<path fill="none" stroke="black" d="M1493.42,-1037.39C1470.5,-1033.76 1447.64,-1025.4 1432,-1008.17 1310.83,-874.7 1482.84,-332.103 1360,-200.166 1339.59,-178.246 1308.94,-169.505 1279.45,-166.921"/>
<polygon fill="none" stroke="black" points="1279.29,-163.404 1269.09,-166.253 1278.84,-170.389 1279.29,-163.404"/>
</g>
<!-- \\HttpSourceConfigFactoryTest -->
<g id="node23" class="node"><title>\\HttpSourceConfigFactoryTest</title>
<polygon fill="none" stroke="black" points="1675,-999.166 1477,-999.166 1477,-963.166 1675,-963.166 1675,-999.166"/>
<text text-anchor="middle" x="1576" y="-978.266" font-family="Courier,monospace" font-size="11.00">HttpSourceConfigFactoryTest</text>
</g>
<!-- \\HttpSourceConfigFactoryTest&#45;&gt;\\CakeTestCase -->
<g id="edge39" class="edge"><title>\\HttpSourceConfigFactoryTest&#45;&gt;\\CakeTestCase</title>
<path fill="none" stroke="black" d="M1476.33,-979.631C1459.53,-974.941 1443.75,-967.029 1432,-954.166 1318.46,-829.906 1475.08,-322.994 1360,-200.166 1339.52,-178.31 1308.86,-169.582 1279.38,-166.992"/>
<polygon fill="none" stroke="black" points="1279.22,-163.474 1269.01,-166.32 1278.77,-170.46 1279.22,-163.474"/>
</g>
<!-- \\HttpSourceConfigFactoryiAmExists -->
<g id="node24" class="node"><title>\\HttpSourceConfigFactoryiAmExists</title>
<polygon fill="none" stroke="black" points="1692,-1431.17 1460,-1431.17 1460,-1395.17 1692,-1395.17 1692,-1431.17"/>
<text text-anchor="middle" x="1576" y="-1410.27" font-family="Courier,monospace" font-size="11.00">HttpSourceConfigFactoryiAmExists</text>
</g>
<!-- \\HttpSourceConfigFactoryiAmExistsANDValid -->
<g id="node25" class="node"><title>\\HttpSourceConfigFactoryiAmExistsANDValid</title>
<polygon fill="none" stroke="black" points="1719,-2133.17 1433,-2133.17 1433,-2097.17 1719,-2097.17 1719,-2133.17"/>
<text text-anchor="middle" x="1576" y="-2112.27" font-family="Courier,monospace" font-size="11.00">HttpSourceConfigFactoryiAmExistsANDValid</text>
</g>
<!-- \\HttpSourceConfigFactoryiAmExistsANDValid&#45;&gt;\\HttpSourceConfigFactory -->
<g id="edge41" class="edge"><title>\\HttpSourceConfigFactoryiAmExistsANDValid&#45;&gt;\\HttpSourceConfigFactory</title>
<path fill="none" stroke="black" d="M1432.3,-2115.17C1384.54,-2115.17 1332.56,-2115.17 1289.28,-2115.17"/>
<polygon fill="none" stroke="black" points="1289.04,-2111.67 1279.04,-2115.17 1289.04,-2118.67 1289.04,-2111.67"/>
</g>
<!-- \\HttpSourceConfigiAmExistsANDValid -->
<g id="node26" class="node"><title>\\HttpSourceConfigiAmExistsANDValid</title>
<polygon fill="none" stroke="black" points="933,-2133.17 695,-2133.17 695,-2097.17 933,-2097.17 933,-2133.17"/>
<text text-anchor="middle" x="814" y="-2112.27" font-family="Courier,monospace" font-size="11.00">HttpSourceConfigiAmExistsANDValid</text>
</g>
<!-- \\HttpSourceConfigiAmExistsANDValid&#45;&gt;\\HttpSourceConfig -->
<g id="edge43" class="edge"><title>\\HttpSourceConfigiAmExistsANDValid&#45;&gt;\\HttpSourceConfig</title>
<path fill="none" stroke="black" d="M694.451,-2097.67C636.257,-2089.15 568.18,-2079.19 517.859,-2071.83"/>
<polygon fill="none" stroke="black" points="518.122,-2068.33 507.721,-2070.34 517.109,-2075.26 518.122,-2068.33"/>
</g>
<!-- \\HttpSourceEndpointiAmExistsANDValid -->
<g id="node27" class="node"><title>\\HttpSourceEndpointiAmExistsANDValid</title>
<polygon fill="none" stroke="black" points="940,-2079.17 688,-2079.17 688,-2043.17 940,-2043.17 940,-2079.17"/>
<text text-anchor="middle" x="814" y="-2058.27" font-family="Courier,monospace" font-size="11.00">HttpSourceEndpointiAmExistsANDValid</text>
</g>
<!-- \\HttpSourceEndpointiAmExistsANDValid&#45;&gt;\\HttpSourceEndpoint -->
<g id="edge45" class="edge"><title>\\HttpSourceEndpointiAmExistsANDValid&#45;&gt;\\HttpSourceEndpoint</title>
<path fill="none" stroke="black" d="M690.872,-2043.15C635.89,-2035.1 572.701,-2025.85 524.151,-2018.75"/>
<polygon fill="none" stroke="black" points="524.422,-2015.25 514.021,-2017.27 523.409,-2022.18 524.422,-2015.25"/>
</g>
<!-- \\HttpSourceConditioniAmExistsANDValid -->
<g id="node28" class="node"><title>\\HttpSourceConditioniAmExistsANDValid</title>
<polygon fill="none" stroke="black" points="1706,-2025.17 1446,-2025.17 1446,-1989.17 1706,-1989.17 1706,-2025.17"/>
<text text-anchor="middle" x="1576" y="-2004.27" font-family="Courier,monospace" font-size="11.00">HttpSourceConditioniAmExistsANDValid</text>
</g>
<!-- \\HttpSourceConditioniAmExistsANDValid&#45;&gt;\\HttpSourceCondition -->
<g id="edge47" class="edge"><title>\\HttpSourceConditioniAmExistsANDValid&#45;&gt;\\HttpSourceCondition</title>
<path fill="none" stroke="black" d="M1456.05,-1989.09C1447.78,-1986.5 1439.68,-1983.55 1432,-1980.17 1395.39,-1964.06 1396.81,-1941.81 1360,-1926.17 1333.76,-1915.01 1303.41,-1908.44 1275.83,-1904.57"/>
<polygon fill="none" stroke="black" points="1276.18,-1901.08 1265.81,-1903.26 1275.28,-1908.03 1276.18,-1901.08"/>
</g>
<!-- \\HttpSourceFieldiAmExistsANDValid -->
<g id="node29" class="node"><title>\\HttpSourceFieldiAmExistsANDValid</title>
<polygon fill="none" stroke="black" points="1309,-1971.17 1077,-1971.17 1077,-1935.17 1309,-1935.17 1309,-1971.17"/>
<text text-anchor="middle" x="1193" y="-1950.27" font-family="Courier,monospace" font-size="11.00">HttpSourceFieldiAmExistsANDValid</text>
</g>
<!-- \\HttpSourceFieldiAmExistsANDValid&#45;&gt;\\HttpSourceField -->
<g id="edge49" class="edge"><title>\\HttpSourceFieldiAmExistsANDValid&#45;&gt;\\HttpSourceField</title>
<path fill="none" stroke="black" d="M1076.45,-1936.56C1013.2,-1927.55 937.147,-1916.71 883.231,-1909.03"/>
<polygon fill="none" stroke="black" points="883.486,-1905.53 873.092,-1907.59 882.498,-1912.46 883.486,-1905.53"/>
</g>
<!-- \\HttpSourceResultiAmExistsANDValid -->
<g id="node30" class="node"><title>\\HttpSourceResultiAmExistsANDValid</title>
<polygon fill="none" stroke="black" points="1312,-2025.17 1074,-2025.17 1074,-1989.17 1312,-1989.17 1312,-2025.17"/>
<text text-anchor="middle" x="1193" y="-2004.27" font-family="Courier,monospace" font-size="11.00">HttpSourceResultiAmExistsANDValid</text>
</g>
<!-- \\HttpSourceResultiAmExistsANDValid&#45;&gt;\\HttpSourceResult -->
<g id="edge51" class="edge"><title>\\HttpSourceResultiAmExistsANDValid&#45;&gt;\\HttpSourceResult</title>
<path fill="none" stroke="black" d="M1073.34,-2007.17C1012.13,-2007.17 939.613,-2007.17 886.846,-2007.17"/>
<polygon fill="none" stroke="black" points="886.566,-2003.67 876.565,-2007.17 886.565,-2010.67 886.566,-2003.67"/>
</g>
<!-- \\HttpSourceConditionTest -->
<g id="node31" class="node"><title>\\HttpSourceConditionTest</title>
<polygon fill="none" stroke="black" points="1662,-783.166 1490,-783.166 1490,-747.166 1662,-747.166 1662,-783.166"/>
<text text-anchor="middle" x="1576" y="-762.266" font-family="Courier,monospace" font-size="11.00">HttpSourceConditionTest</text>
</g>
<!-- \\HttpSourceConditionTest&#45;&gt;\\CakeTestCase -->
<g id="edge53" class="edge"><title>\\HttpSourceConditionTest&#45;&gt;\\CakeTestCase</title>
<path fill="none" stroke="black" d="M1489.75,-766.251C1468.25,-762.286 1447.06,-754.033 1432,-738.166 1265.93,-563.179 1528.24,-373.059 1360,-200.166 1339.39,-178.984 1309.17,-170.283 1280.09,-167.524"/>
<polygon fill="none" stroke="black" points="1280.1,-164.015 1269.87,-166.785 1279.59,-170.997 1280.1,-164.015"/>
</g>
<!-- \\HttpSourceFieldTest -->
<g id="node32" class="node"><title>\\HttpSourceFieldTest</title>
<polygon fill="none" stroke="black" points="1648,-729.166 1504,-729.166 1504,-693.166 1648,-693.166 1648,-729.166"/>
<text text-anchor="middle" x="1576" y="-708.266" font-family="Courier,monospace" font-size="11.00">HttpSourceFieldTest</text>
</g>
<!-- \\HttpSourceFieldTest&#45;&gt;\\CakeTestCase -->
<g id="edge55" class="edge"><title>\\HttpSourceFieldTest&#45;&gt;\\CakeTestCase</title>
<path fill="none" stroke="black" d="M1503.39,-714.066C1477.56,-711.249 1450.35,-703.22 1432,-684.166 1281.14,-527.517 1512.81,-354.913 1360,-200.166 1339.33,-179.229 1309.26,-170.544 1280.31,-167.729"/>
<polygon fill="none" stroke="black" points="1280.37,-164.223 1270.14,-166.967 1279.85,-171.204 1280.37,-164.223"/>
</g>
<!-- \\HttpSourceEndpointItemTest -->
<g id="node33" class="node"><title>\\HttpSourceEndpointItemTest</title>
<polygon fill="none" stroke="black" points="1672,-675.166 1480,-675.166 1480,-639.166 1672,-639.166 1672,-675.166"/>
<text text-anchor="middle" x="1576" y="-654.266" font-family="Courier,monospace" font-size="11.00">HttpSourceEndpointItemTest</text>
</g>
<!-- \\HttpSourceEndpointItemTest&#45;&gt;\\CakeTestCase -->
<g id="edge57" class="edge"><title>\\HttpSourceEndpointItemTest&#45;&gt;\\CakeTestCase</title>
<path fill="none" stroke="black" d="M1479.64,-655.636C1461.82,-651.097 1444.82,-643.241 1432,-630.166 1296.32,-491.823 1497.4,-336.798 1360,-200.166 1339.23,-179.511 1309.29,-170.852 1280.49,-167.977"/>
<polygon fill="none" stroke="black" points="1280.6,-164.476 1270.36,-167.191 1280.06,-171.455 1280.6,-164.476"/>
</g>
<!-- \\HttpSourceEndpointItemiAmExistsANDValid -->
<g id="node34" class="node"><title>\\HttpSourceEndpointItemiAmExistsANDValid</title>
<polygon fill="none" stroke="black" points="954,-1971.17 674,-1971.17 674,-1935.17 954,-1935.17 954,-1971.17"/>
<text text-anchor="middle" x="814" y="-1950.27" font-family="Courier,monospace" font-size="11.00">HttpSourceEndpointItemiAmExistsANDValid</text>
</g>
<!-- \\HttpSourceEndpointItemiAmExistsANDValid&#45;&gt;\\HttpSourceEndpointItem -->
<g id="edge59" class="edge"><title>\\HttpSourceEndpointItemiAmExistsANDValid&#45;&gt;\\HttpSourceEndpointItem</title>
<path fill="none" stroke="black" d="M673.971,-1953.17C628.578,-1953.17 579.366,-1953.17 538.241,-1953.17"/>
<polygon fill="none" stroke="black" points="538.239,-1949.67 528.239,-1953.17 538.239,-1956.67 538.239,-1949.67"/>
</g>
<!-- \\HttpSourceResultTest -->
<g id="node35" class="node"><title>\\HttpSourceResultTest</title>
<polygon fill="none" stroke="black" points="1652,-621.166 1500,-621.166 1500,-585.166 1652,-585.166 1652,-621.166"/>
<text text-anchor="middle" x="1576" y="-600.266" font-family="Courier,monospace" font-size="11.00">HttpSourceResultTest</text>
</g>
<!-- \\HttpSourceResultTest&#45;&gt;\\CakeTestCase -->
<g id="edge61" class="edge"><title>\\HttpSourceResultTest&#45;&gt;\\CakeTestCase</title>
<path fill="none" stroke="black" d="M1499.71,-605.16C1475.16,-601.92 1449.75,-593.848 1432,-576.166 1311.46,-456.086 1482.04,-318.727 1360,-200.166 1339.18,-179.937 1309.54,-171.304 1280.99,-168.329"/>
<polygon fill="none" stroke="black" points="1281.21,-164.835 1270.96,-167.502 1280.64,-171.811 1281.21,-164.835"/>
</g>
<!-- \\AllHttpSourceTest -->
<g id="node36" class="node"><title>\\AllHttpSourceTest</title>
<polygon fill="none" stroke="black" points="1641,-459.166 1511,-459.166 1511,-423.166 1641,-423.166 1641,-459.166"/>
<text text-anchor="middle" x="1576" y="-438.266" font-family="Courier,monospace" font-size="11.00">AllHttpSourceTest</text>
</g>
<!-- \\PHPUnit_Framework_TestSuite -->
<g id="node89" class="node"><title>\\PHPUnit_Framework_TestSuite</title>
<ellipse fill="none" stroke="black" cx="1193" cy="-65.166" rx="166.877" ry="18.3848"/>
<text text-anchor="middle" x="1193" y="-61.566" font-family="Times Roman,serif" font-size="14.00" fill="gray">\PHPUnit_Framework_TestSuite</text>
</g>
<!-- \\AllHttpSourceTest&#45;&gt;\\PHPUnit_Framework_TestSuite -->
<g id="edge63" class="edge"><title>\\AllHttpSourceTest&#45;&gt;\\PHPUnit_Framework_TestSuite</title>
<path fill="none" stroke="black" d="M1510.39,-443.966C1482.88,-441.668 1452.58,-434.046 1432,-414.166 1326.53,-312.283 1466.74,-192.719 1360,-92.166 1354.9,-87.3627 1349.3,-83.22 1343.34,-79.6566"/>
<polygon fill="none" stroke="black" points="1344.83,-76.4843 1334.37,-74.8408 1341.52,-82.6527 1344.83,-76.4843"/>
</g>
<!-- \\HttpSourceToDboAssociationTest -->
<g id="node37" class="node"><title>\\HttpSourceToDboAssociationTest</title>
<polygon fill="none" stroke="black" points="1685,-1917.17 1467,-1917.17 1467,-1881.17 1685,-1881.17 1685,-1917.17"/>
<text text-anchor="middle" x="1576" y="-1896.27" font-family="Courier,monospace" font-size="11.00">HttpSourceToDboAssociationTest</text>
</g>
<!-- \\HttpSourceAppTest -->
<g id="node44" class="node"><title>\\HttpSourceAppTest</title>
<polygon fill="none" stroke="black" points="1259,-1863.17 1127,-1863.17 1127,-1827.17 1259,-1827.17 1259,-1863.17"/>
<text text-anchor="start" x="1159" y="-1850.6" font-family="Courier,monospace" font-size="11.00">«abstract»</text>
<text text-anchor="start" x="1135.5" y="-1837.4" font-family="Courier,monospace" font-size="11.00">HttpSourceAppTest</text>
</g>
<!-- \\HttpSourceToDboAssociationTest&#45;&gt;\\HttpSourceAppTest -->
<g id="edge65" class="edge"><title>\\HttpSourceToDboAssociationTest&#45;&gt;\\HttpSourceAppTest</title>
<path fill="none" stroke="black" d="M1466.25,-1883.69C1403.17,-1874.8 1325.52,-1863.85 1269.14,-1855.9"/>
<polygon fill="none" stroke="black" points="1269.61,-1852.43 1259.22,-1854.5 1268.64,-1859.36 1269.61,-1852.43"/>
</g>
<!-- \\HttpSourceModelTest -->
<g id="node38" class="node"><title>\\HttpSourceModelTest</title>
<polygon fill="none" stroke="black" points="1648,-945.166 1504,-945.166 1504,-909.166 1648,-909.166 1648,-945.166"/>
<text text-anchor="middle" x="1576" y="-924.266" font-family="Courier,monospace" font-size="11.00">HttpSourceModelTest</text>
</g>
<!-- \\HttpSourceModelTest&#45;&gt;\\CakeTestCase -->
<g id="edge67" class="edge"><title>\\HttpSourceModelTest&#45;&gt;\\CakeTestCase</title>
<path fill="none" stroke="black" d="M1503.31,-930.538C1477.3,-927.813 1450,-919.723 1432,-900.166 1326.1,-785.107 1467.33,-313.889 1360,-200.166 1339.53,-178.481 1309.03,-169.749 1279.68,-167.108"/>
<polygon fill="none" stroke="black" points="1279.57,-163.593 1269.36,-166.416 1279.1,-170.577 1279.57,-163.593"/>
</g>
<!-- \\HttpSourceTestModel -->
<g id="node39" class="node"><title>\\HttpSourceTestModel</title>
<polygon fill="none" stroke="black" points="1648,-1701.17 1504,-1701.17 1504,-1665.17 1648,-1665.17 1648,-1701.17"/>
<text text-anchor="middle" x="1576" y="-1680.27" font-family="Courier,monospace" font-size="11.00">HttpSourceTestModel</text>
</g>
<!-- \\HttpSourceModel -->
<g id="node52" class="node"><title>\\HttpSourceModel</title>
<polygon fill="none" stroke="black" points="1252,-1620.17 1134,-1620.17 1134,-1584.17 1252,-1584.17 1252,-1620.17"/>
<text text-anchor="middle" x="1193" y="-1599.27" font-family="Courier,monospace" font-size="11.00">HttpSourceModel</text>
</g>
<!-- \\HttpSourceTestModel&#45;&gt;\\HttpSourceModel -->
<g id="edge69" class="edge"><title>\\HttpSourceTestModel&#45;&gt;\\HttpSourceModel</title>
<path fill="none" stroke="black" d="M1503.38,-1670.09C1480.5,-1665.83 1455.17,-1660.95 1432,-1656.17 1374.63,-1644.31 1309.83,-1629.59 1262.19,-1618.51"/>
<polygon fill="none" stroke="black" points="1262.82,-1615.06 1252.29,-1616.2 1261.24,-1621.88 1262.82,-1615.06"/>
</g>
<!-- \\HttpSourceConnectionTest -->
<g id="node40" class="node"><title>\\HttpSourceConnectionTest</title>
<polygon fill="none" stroke="black" points="1665,-891.166 1487,-891.166 1487,-855.166 1665,-855.166 1665,-891.166"/>
<text text-anchor="middle" x="1576" y="-870.266" font-family="Courier,monospace" font-size="11.00">HttpSourceConnectionTest</text>
</g>
<!-- \\HttpSourceConnectionTest&#45;&gt;\\CakeTestCase -->
<g id="edge71" class="edge"><title>\\HttpSourceConnectionTest&#45;&gt;\\CakeTestCase</title>
<path fill="none" stroke="black" d="M1486.15,-873.811C1465.82,-869.615 1446.1,-861.359 1432,-846.166 1235.46,-634.44 1559.18,-409.413 1360,-200.166 1339.44,-178.568 1308.92,-169.854 1279.58,-167.203"/>
<polygon fill="none" stroke="black" points="1279.48,-163.688 1269.26,-166.506 1279.01,-170.672 1279.48,-163.688"/>
</g>
<!-- \\HttpSourceTest -->
<g id="node41" class="node"><title>\\HttpSourceTest</title>
<polygon fill="none" stroke="black" points="1631,-837.166 1521,-837.166 1521,-801.166 1631,-801.166 1631,-837.166"/>
<text text-anchor="middle" x="1576" y="-816.266" font-family="Courier,monospace" font-size="11.00">HttpSourceTest</text>
</g>
<!-- \\HttpSourceTest&#45;&gt;\\CakeTestCase -->
<g id="edge73" class="edge"><title>\\HttpSourceTest&#45;&gt;\\CakeTestCase</title>
<path fill="none" stroke="black" d="M1520.35,-823.469C1489.99,-822.613 1454.18,-815.823 1432,-792.166 1250.7,-598.818 1543.7,-391.227 1360,-200.166 1339.42,-178.766 1309.06,-170.056 1279.85,-167.351"/>
<polygon fill="none" stroke="black" points="1279.8,-163.839 1269.58,-166.634 1279.31,-170.822 1279.8,-163.839"/>
</g>
<!-- \\HttpTestSource -->
<g id="node42" class="node"><title>\\HttpTestSource</title>
<polygon fill="none" stroke="black" points="1631,-1809.17 1521,-1809.17 1521,-1773.17 1631,-1773.17 1631,-1809.17"/>
<text text-anchor="middle" x="1576" y="-1788.27" font-family="Courier,monospace" font-size="11.00">HttpTestSource</text>
</g>
<!-- \\HttpSource -->
<g id="node50" class="node"><title>\\HttpSource</title>
<polygon fill="none" stroke="black" points="1235,-1809.17 1151,-1809.17 1151,-1773.17 1235,-1773.17 1235,-1809.17"/>
<text text-anchor="start" x="1159" y="-1796.6" font-family="Courier,monospace" font-size="11.00">«abstract»</text>
<text text-anchor="start" x="1159" y="-1783.4" font-family="Courier,monospace" font-size="11.00">HttpSource</text>
</g>
<!-- \\HttpTestSource&#45;&gt;\\HttpSource -->
<g id="edge75" class="edge"><title>\\HttpTestSource&#45;&gt;\\HttpSource</title>
<path fill="none" stroke="black" d="M1520.31,-1791.17C1446.75,-1791.17 1318.1,-1791.17 1245.95,-1791.17"/>
<polygon fill="none" stroke="black" points="1245.72,-1787.67 1235.72,-1791.17 1245.72,-1794.67 1245.72,-1787.67"/>
</g>
<!-- \\HttpSourceBasicsTest -->
<g id="node43" class="node"><title>\\HttpSourceBasicsTest</title>
<polygon fill="none" stroke="black" points="1652,-1971.17 1500,-1971.17 1500,-1935.17 1652,-1935.17 1652,-1971.17"/>
<text text-anchor="middle" x="1576" y="-1950.27" font-family="Courier,monospace" font-size="11.00">HttpSourceBasicsTest</text>
</g>
<!-- \\HttpSourceBasicsTest&#45;&gt;\\HttpSourceAppTest -->
<g id="edge77" class="edge"><title>\\HttpSourceBasicsTest&#45;&gt;\\HttpSourceAppTest</title>
<path fill="none" stroke="black" d="M1499.68,-1945.52C1477.24,-1941.52 1453.07,-1935.43 1432,-1926.17 1395.39,-1910.06 1396.81,-1887.81 1360,-1872.17 1331.71,-1860.14 1298.64,-1853.44 1269.43,-1849.71"/>
<polygon fill="none" stroke="black" points="1269.61,-1846.21 1259.27,-1848.51 1268.79,-1853.16 1269.61,-1846.21"/>
</g>
<!-- \\HttpSourceAppTest&#45;&gt;\\CakeTestCase -->
<g id="edge79" class="edge"><title>\\HttpSourceAppTest&#45;&gt;\\CakeTestCase</title>
<path fill="none" stroke="black" d="M1259.31,-1853.94C1305.68,-1855.92 1364.72,-1849.23 1396,-1809.17 1423.35,-1774.13 1423.35,-244.197 1396,-209.166 1368,-173.308 1317.77,-164.182 1274.28,-164.083"/>
<polygon fill="none" stroke="black" points="1274.2,-160.584 1264.25,-164.216 1274.3,-167.583 1274.2,-160.584"/>
</g>
<!-- \\HttpSourceDocument -->
<g id="node45" class="node"><title>\\HttpSourceDocument</title>
<polygon fill="none" stroke="black" points="1645,-1647.17 1507,-1647.17 1507,-1611.17 1645,-1611.17 1645,-1647.17"/>
<text text-anchor="middle" x="1576" y="-1626.27" font-family="Courier,monospace" font-size="11.00">HttpSourceDocument</text>
</g>
<!-- \\HttpSourceDocument&#45;&gt;\\HttpSourceModel -->
<g id="edge81" class="edge"><title>\\HttpSourceDocument&#45;&gt;\\HttpSourceModel</title>
<path fill="none" stroke="black" d="M1506.64,-1624.28C1437.44,-1619.4 1331.72,-1611.95 1262.48,-1607.06"/>
<polygon fill="none" stroke="black" points="1262.33,-1603.54 1252.11,-1606.33 1261.84,-1610.53 1262.33,-1603.54"/>
</g>
<!-- \\HttpSourceUser -->
<g id="node46" class="node"><title>\\HttpSourceUser</title>
<polygon fill="none" stroke="black" points="1631,-405.166 1521,-405.166 1521,-369.166 1631,-369.166 1631,-405.166"/>
<text text-anchor="middle" x="1576" y="-384.266" font-family="Courier,monospace" font-size="11.00">HttpSourceUser</text>
</g>
<!-- \\AppModel -->
<g id="node100" class="node"><title>\\AppModel</title>
<ellipse fill="none" stroke="black" cx="814" cy="-123.166" rx="62.2254" ry="18.3848"/>
<text text-anchor="middle" x="814" y="-119.566" font-family="Times Roman,serif" font-size="14.00" fill="gray">\AppModel</text>
</g>
<!-- \\HttpSourceUser&#45;&gt;\\AppModel -->
<g id="edge83" class="edge"><title>\\HttpSourceUser&#45;&gt;\\AppModel</title>
<path fill="none" stroke="black" d="M1571.45,-368.915C1555.22,-308.212 1493.83,-112.727 1360,-38.166 1189.04,57.0781 943.845,-53.4415 851.278,-102.276"/>
<polygon fill="none" stroke="black" points="849.461,-99.2784 842.29,-107.078 852.759,-105.452 849.461,-99.2784"/>
</g>
<!-- \\TestHttpSourceModel -->
<g id="node47" class="node"><title>\\TestHttpSourceModel</title>
<polygon fill="none" stroke="black" points="1648,-1593.17 1504,-1593.17 1504,-1557.17 1648,-1557.17 1648,-1593.17"/>
<text text-anchor="middle" x="1576" y="-1572.27" font-family="Courier,monospace" font-size="11.00">TestHttpSourceModel</text>
</g>
<!-- \\TestHttpSourceModel&#45;&gt;\\HttpSourceModel -->
<g id="edge85" class="edge"><title>\\TestHttpSourceModel&#45;&gt;\\HttpSourceModel</title>
<path fill="none" stroke="black" d="M1503.06,-1580.31C1433.8,-1585.19 1330.42,-1592.48 1262.37,-1597.28"/>
<polygon fill="none" stroke="black" points="1261.9,-1593.8 1252.18,-1597.99 1262.4,-1600.78 1261.9,-1593.8"/>
</g>
<!-- \\TestHttpSource -->
<g id="node48" class="node"><title>\\TestHttpSource</title>
<polygon fill="none" stroke="black" points="1631,-1863.17 1521,-1863.17 1521,-1827.17 1631,-1827.17 1631,-1863.17"/>
<text text-anchor="middle" x="1576" y="-1842.27" font-family="Courier,monospace" font-size="11.00">TestHttpSource</text>
</g>
<!-- \\TestHttpSource&#45;&gt;\\HttpSource -->
<g id="edge87" class="edge"><title>\\TestHttpSource&#45;&gt;\\HttpSource</title>
<path fill="none" stroke="black" d="M1520.31,-1837.31C1446.75,-1826.94 1318.1,-1808.8 1245.95,-1798.63"/>
<polygon fill="none" stroke="black" points="1246.11,-1795.12 1235.72,-1797.19 1245.14,-1802.05 1246.11,-1795.12"/>
</g>
<!-- \\TestHttpSourceConnection -->
<g id="node49" class="node"><title>\\TestHttpSourceConnection</title>
<polygon fill="none" stroke="black" points="1665,-1755.17 1487,-1755.17 1487,-1719.17 1665,-1719.17 1665,-1755.17"/>
<text text-anchor="middle" x="1576" y="-1734.27" font-family="Courier,monospace" font-size="11.00">TestHttpSourceConnection</text>
</g>
<!-- \\HttpSourceConnection -->
<g id="node51" class="node"><title>\\HttpSourceConnection</title>
<polygon fill="none" stroke="black" points="1269,-1701.17 1117,-1701.17 1117,-1665.17 1269,-1665.17 1269,-1701.17"/>
<text text-anchor="middle" x="1193" y="-1680.27" font-family="Courier,monospace" font-size="11.00">HttpSourceConnection</text>
</g>
<!-- \\TestHttpSourceConnection&#45;&gt;\\HttpSourceConnection -->
<g id="edge89" class="edge"><title>\\TestHttpSourceConnection&#45;&gt;\\HttpSourceConnection</title>
<path fill="none" stroke="black" d="M1486.2,-1724.51C1423.69,-1715.69 1340.79,-1704 1279.1,-1695.31"/>
<polygon fill="none" stroke="black" points="1279.39,-1691.81 1269,-1693.88 1278.42,-1698.74 1279.39,-1691.81"/>
</g>
<!-- \\DataSource -->
<g id="node105" class="node"><title>\\DataSource</title>
<ellipse fill="none" stroke="black" cx="814" cy="-335.166" rx="72.1249" ry="18.3848"/>
<text text-anchor="middle" x="814" y="-331.566" font-family="Times Roman,serif" font-size="14.00" fill="gray">\DataSource</text>
</g>
<!-- \\HttpSource&#45;&gt;\\DataSource -->
<g id="edge91" class="edge"><title>\\HttpSource&#45;&gt;\\DataSource</title>
<path fill="none" stroke="black" d="M1150.32,-1783.2C1110.82,-1773.36 1054.08,-1752.45 1026,-1710.17 942.72,-1584.75 1054.85,-468.942 954,-357.166 938.351,-339.821 915.051,-332.316 891.929,-329.738"/>
<polygon fill="none" stroke="black" points="891.953,-326.228 881.701,-328.901 891.382,-333.205 891.953,-326.228"/>
</g>
<!-- \\Object -->
<g id="node107" class="node"><title>\\Object</title>
<ellipse fill="none" stroke="black" cx="814" cy="-281.166" rx="45.9619" ry="18.3848"/>
<text text-anchor="middle" x="814" y="-277.566" font-family="Times Roman,serif" font-size="14.00" fill="gray">\Object</text>
</g>
<!-- \\HttpSourceConnection&#45;&gt;\\Object -->
<g id="edge93" class="edge"><title>\\HttpSourceConnection&#45;&gt;\\Object</title>
<path fill="none" stroke="black" d="M1116.71,-1677.42C1083.56,-1670.76 1047.47,-1657.05 1026,-1629.17 846.621,-1396.24 1147.27,-529.7 954,-308.166 933.33,-284.473 898.704,-277.644 869.061,-276.778"/>
<polygon fill="none" stroke="black" points="868.84,-273.277 858.815,-276.703 868.788,-280.276 868.84,-273.277"/>
</g>
<!-- \\HttpSourceModel&#45;&gt;\\AppModel -->
<g id="edge95" class="edge"><title>\\HttpSourceModel&#45;&gt;\\AppModel</title>
<path fill="none" stroke="black" d="M1133.91,-1611.5C1097.47,-1613.63 1052.73,-1609.02 1026,-1580.17 925.745,-1471.91 1016.37,-387.887 954,-254.166 931.784,-206.535 883.717,-167.827 850.137,-145.153"/>
<polygon fill="none" stroke="black" points="851.786,-142.047 841.511,-139.463 847.932,-147.891 851.786,-142.047"/>
</g>
</g>
</svg>
