<?xml version="1.0" encoding="UTF-8" standalone="no"?>
<!DOCTYPE svg PUBLIC "-//W3C//DTD SVG 1.1//EN"
 "http://www.w3.org/Graphics/SVG/1.1/DTD/svg11.dtd">
<!-- Generated by graphviz version 2.26.3 (20100126.1600)
 -->
<!-- Title: G Pages: 1 -->
<svg width="1744pt" height="2170pt"
 viewBox="0.00 0.00 1744.00 2170.00" xmlns="http://www.w3.org/2000/svg" xmlns:xlink="http://www.w3.org/1999/xlink">
<g id="graph1" class="graph" transform="scale(1 1) rotate(0) translate(4 2166)">
<title>G</title>
<polygon fill="white" stroke="white" points="-4,5 -4,-2166 1741,-2166 1741,5 -4,5"/>
<g id="graph2" class="cluster"><title>cluster_Global</title>
<polyline fill="none" stroke="gray" points="20,-352 1716,-352 "/>
<path fill="none" stroke="gray" d="M1716,-352C1722,-352 1728,-358 1728,-364"/>
<polyline fill="none" stroke="gray" points="1728,-364 1728,-2142 "/>
<path fill="none" stroke="gray" d="M1728,-2142C1728,-2148 1722,-2154 1716,-2154"/>
<polyline fill="none" stroke="gray" points="1716,-2154 20,-2154 "/>
<path fill="none" stroke="gray" d="M20,-2154C14,-2154 8,-2148 8,-2142"/>
<polyline fill="none" stroke="gray" points="8,-2142 8,-364 "/>
<path fill="none" stroke="gray" d="M8,-364C8,-358 14,-352 20,-352"/>
<text text-anchor="middle" x="868" y="-2140.1" font-family="Times Roman,serif" font-size="11.00" fill="gray">Global</text>
</g>
<!-- \\HttpSourceException -->
<g id="node2" class="node"><title>\\HttpSourceException</title>
<polygon fill="none" stroke="black" points="1648,-1530 1504,-1530 1504,-1494 1648,-1494 1648,-1530"/>
<text text-anchor="middle" x="1576" y="-1509.1" font-family="Courier,monospace" font-size="11.00">HttpSourceException</text>
</g>
<!-- \\CakeException -->
<g id="node54" class="node"><title>\\CakeException</title>
<ellipse fill="none" stroke="black" cx="1193" cy="-326" rx="85.7684" ry="18.3848"/>
<text text-anchor="middle" x="1193" y="-322.4" font-family="Times Roman,serif" font-size="14.00" fill="gray">\CakeException</text>
</g>
<!-- \\HttpSourceException&#45;&gt;\\CakeException -->
<g id="edge3" class="edge"><title>\\HttpSourceException&#45;&gt;\\CakeException</title>
<path fill="none" stroke="black" d="M1503.27,-1515.78C1477.1,-1513.14 1449.7,-1505 1432,-1485 1264.24,-1295.39 1532.86,-532.98 1360,-348 1338.92,-325.444 1306.83,-317.75 1276.39,-316.496"/>
<polygon fill="none" stroke="black" points="1276.21,-312.992 1266.15,-316.305 1276.08,-319.991 1276.21,-312.992"/>
</g>
<!-- \\HttpSourceConfigException -->
<g id="node3" class="node"><title>\\HttpSourceConfigException</title>
<polygon fill="none" stroke="black" points="1668,-1476 1484,-1476 1484,-1440 1668,-1440 1668,-1476"/>
<text text-anchor="middle" x="1576" y="-1455.1" font-family="Courier,monospace" font-size="11.00">HttpSourceConfigException</text>
</g>
<!-- \\HttpSourceConfigException&#45;&gt;\\CakeException -->
<g id="edge5" class="edge"><title>\\HttpSourceConfigException&#45;&gt;\\CakeException</title>
<path fill="none" stroke="black" d="M1483.43,-1458.6C1463.92,-1454.25 1445.25,-1445.93 1432,-1431 1271.89,-1250.61 1524.96,-523.971 1360,-348 1338.89,-325.477 1306.79,-317.789 1276.36,-316.53"/>
<polygon fill="none" stroke="black" points="1276.18,-313.026 1266.12,-316.338 1276.05,-320.025 1276.18,-313.026"/>
</g>
<!-- \\HttpSourceConfigFactoryItem -->
<g id="node4" class="node"><title>\\HttpSourceConfigFactoryItem</title>
<polygon fill="none" stroke="black" points="216,-2043 16,-2043 16,-2007 216,-2007 216,-2043"/>
<text text-anchor="start" x="82" y="-2030.43" font-family="Courier,monospace" font-size="11.00">«abstract»</text>
<text text-anchor="start" x="24.5" y="-2017.23" font-family="Courier,monospace" font-size="11.00">HttpSourceConfigFactoryItem</text>
</g>
<!-- \\HttpSourceEndpointItem -->
<g id="node5" class="node"><title>\\HttpSourceEndpointItem</title>
<polygon fill="none" stroke="black" points="528,-2016 362,-2016 362,-1980 528,-1980 528,-2016"/>
<text text-anchor="start" x="411" y="-2003.43" font-family="Courier,monospace" font-size="11.00">«abstract»</text>
<text text-anchor="start" x="370.5" y="-1990.23" font-family="Courier,monospace" font-size="11.00">HttpSourceEndpointItem</text>
</g>
<!-- \\HttpSourceEndpointItem&#45;&gt;\\HttpSourceConfigFactoryItem -->
<g id="edge7" class="edge"><title>\\HttpSourceEndpointItem&#45;&gt;\\HttpSourceConfigFactoryItem</title>
<path fill="none" stroke="black" d="M361.979,-2004.81C320.831,-2008.19 270.583,-2012.31 226.253,-2015.95"/>
<polygon fill="none" stroke="black" points="225.689,-2012.49 216.009,-2016.79 226.262,-2019.46 225.689,-2012.49"/>
</g>
<!-- \\HttpSourceConfig -->
<g id="node6" class="node"><title>\\HttpSourceConfig</title>
<polygon fill="none" stroke="black" points="507,-2124 383,-2124 383,-2088 507,-2088 507,-2124"/>
<text text-anchor="middle" x="445" y="-2103.1" font-family="Courier,monospace" font-size="11.00">HttpSourceConfig</text>
</g>
<!-- \\HttpSourceConfig&#45;&gt;\\HttpSourceConfigFactoryItem -->
<g id="edge9" class="edge"><title>\\HttpSourceConfig&#45;&gt;\\HttpSourceConfigFactoryItem</title>
<path fill="none" stroke="black" d="M382.339,-2097.19C353.434,-2092.63 318.78,-2086.44 288,-2079 250.643,-2069.97 209.55,-2057.17 176.899,-2046.31"/>
<polygon fill="none" stroke="black" points="177.645,-2042.87 167.051,-2043 175.418,-2049.5 177.645,-2042.87"/>
</g>
<!-- \\HttpSourceResult -->
<g id="node7" class="node"><title>\\HttpSourceResult</title>
<polygon fill="none" stroke="black" points="876,-2016 752,-2016 752,-1980 876,-1980 876,-2016"/>
<text text-anchor="middle" x="814" y="-1995.1" font-family="Courier,monospace" font-size="11.00">HttpSourceResult</text>
</g>
<!-- \\HttpSourceResult&#45;&gt;\\HttpSourceEndpointItem -->
<g id="edge11" class="edge"><title>\\HttpSourceResult&#45;&gt;\\HttpSourceEndpointItem</title>
<path fill="none" stroke="black" d="M751.404,-1998C692.926,-1998 604.873,-1998 538.145,-1998"/>
<polygon fill="none" stroke="black" points="538.044,-1994.5 528.044,-1998 538.044,-2001.5 538.044,-1994.5"/>
</g>
<!-- \\HttpSourceField -->
<g id="node8" class="node"><title>\\HttpSourceField</title>
<polygon fill="none" stroke="black" points="873,-1962 755,-1962 755,-1926 873,-1926 873,-1962"/>
<text text-anchor="middle" x="814" y="-1941.1" font-family="Courier,monospace" font-size="11.00">HttpSourceField</text>
</g>
<!-- \\HttpSourceField&#45;&gt;\\HttpSourceEndpointItem -->
<g id="edge13" class="edge"><title>\\HttpSourceField&#45;&gt;\\HttpSourceEndpointItem</title>
<path fill="none" stroke="black" d="M754.714,-1952.68C696.386,-1961.21 606.447,-1974.37 538.488,-1984.32"/>
<polygon fill="none" stroke="black" points="537.59,-1980.91 528.203,-1985.82 538.604,-1987.84 537.59,-1980.91"/>
</g>
<!-- \\HttpSourceConfigFactory -->
<g id="node9" class="node"><title>\\HttpSourceConfigFactory</title>
<polygon fill="none" stroke="black" points="1279,-1827 1107,-1827 1107,-1791 1279,-1791 1279,-1827"/>
<text text-anchor="middle" x="1193" y="-1806.1" font-family="Courier,monospace" font-size="11.00">HttpSourceConfigFactory</text>
</g>
<!-- \\HttpSourceCondition -->
<g id="node10" class="node"><title>\\HttpSourceCondition</title>
<polygon fill="none" stroke="black" points="1265,-1989 1121,-1989 1121,-1953 1265,-1953 1265,-1989"/>
<text text-anchor="middle" x="1193" y="-1968.1" font-family="Courier,monospace" font-size="11.00">HttpSourceCondition</text>
</g>
<!-- \\HttpSourceCondition&#45;&gt;\\HttpSourceField -->
<g id="edge15" class="edge"><title>\\HttpSourceCondition&#45;&gt;\\HttpSourceField</title>
<path fill="none" stroke="black" d="M1120.37,-1965.83C1051.99,-1960.95 950.284,-1953.71 883.08,-1948.92"/>
<polygon fill="none" stroke="black" points="883.235,-1945.42 873.012,-1948.2 882.738,-1952.41 883.235,-1945.42"/>
</g>
<!-- \\HttpSourceEndpoint -->
<g id="node11" class="node"><title>\\HttpSourceEndpoint</title>
<polygon fill="none" stroke="black" points="514,-2070 376,-2070 376,-2034 514,-2034 514,-2070"/>
<text text-anchor="middle" x="445" y="-2049.1" font-family="Courier,monospace" font-size="11.00">HttpSourceEndpoint</text>
</g>
<!-- \\HttpSourceEndpoint&#45;&gt;\\HttpSourceConfigFactoryItem -->
<g id="edge17" class="edge"><title>\\HttpSourceEndpoint&#45;&gt;\\HttpSourceConfigFactoryItem</title>
<path fill="none" stroke="black" d="M375.63,-2046.31C332.33,-2042.75 275.632,-2038.1 226.27,-2034.05"/>
<polygon fill="none" stroke="black" points="226.432,-2030.55 216.179,-2033.22 225.859,-2037.53 226.432,-2030.55"/>
</g>
<!-- \\TestHttpSourceConnection -->
<g id="node12" class="node"><title>\\TestHttpSourceConnection</title>
<polygon fill="none" stroke="black" points="1665,-2070 1487,-2070 1487,-2034 1665,-2034 1665,-2070"/>
<text text-anchor="middle" x="1576" y="-2049.1" font-family="Courier,monospace" font-size="11.00">TestHttpSourceConnection</text>
</g>
<!-- \\HttpSourceConnection -->
<g id="node18" class="node"><title>\\HttpSourceConnection</title>
<polygon fill="none" stroke="black" points="1269,-1935 1117,-1935 1117,-1899 1269,-1899 1269,-1935"/>
<text text-anchor="middle" x="1193" y="-1914.1" font-family="Courier,monospace" font-size="11.00">HttpSourceConnection</text>
</g>
<!-- \\TestHttpSourceConnection&#45;&gt;\\HttpSourceConnection -->
<g id="edge19" class="edge"><title>\\TestHttpSourceConnection&#45;&gt;\\HttpSourceConnection</title>
<path fill="none" stroke="black" d="M1486.36,-2044.6C1467.58,-2040.52 1448.49,-2034.33 1432,-2025 1390.08,-2001.29 1402.22,-1967.19 1360,-1944 1335.69,-1930.65 1306.59,-1923.47 1279.54,-1919.74"/>
<polygon fill="none" stroke="black" points="1279.64,-1916.22 1269.29,-1918.46 1278.78,-1923.17 1279.64,-1916.22"/>
</g>
<!-- \\TestHttpSource -->
<g id="node13" class="node"><title>\\TestHttpSource</title>
<polygon fill="none" stroke="black" points="1631,-2016 1521,-2016 1521,-1980 1631,-1980 1631,-2016"/>
<text text-anchor="middle" x="1576" y="-1995.1" font-family="Courier,monospace" font-size="11.00">TestHttpSource</text>
</g>
<!-- \\HttpSource -->
<g id="node19" class="node"><title>\\HttpSource</title>
<polygon fill="none" stroke="black" points="1235,-1881 1151,-1881 1151,-1845 1235,-1845 1235,-1881"/>
<text text-anchor="start" x="1159" y="-1868.43" font-family="Courier,monospace" font-size="11.00">«abstract»</text>
<text text-anchor="start" x="1159" y="-1855.23" font-family="Courier,monospace" font-size="11.00">HttpSource</text>
</g>
<!-- \\TestHttpSource&#45;&gt;\\HttpSource -->
<g id="edge21" class="edge"><title>\\TestHttpSource&#45;&gt;\\HttpSource</title>
<path fill="none" stroke="black" d="M1520.45,-1996.03C1492.42,-1993.01 1458.79,-1986.15 1432,-1971 1390.08,-1947.29 1402.22,-1913.19 1360,-1890 1325.12,-1870.85 1280.39,-1864.4 1246,-1862.58"/>
<polygon fill="none" stroke="black" points="1245.81,-1859.07 1235.68,-1862.16 1245.53,-1866.07 1245.81,-1859.07"/>
</g>
<!-- \\TestHttpSourceModel -->
<g id="node14" class="node"><title>\\TestHttpSourceModel</title>
<polygon fill="none" stroke="black" points="1648,-1692 1504,-1692 1504,-1656 1648,-1656 1648,-1692"/>
<text text-anchor="middle" x="1576" y="-1671.1" font-family="Courier,monospace" font-size="11.00">TestHttpSourceModel</text>
</g>
<!-- \\HttpSourceModel -->
<g id="node17" class="node"><title>\\HttpSourceModel</title>
<polygon fill="none" stroke="black" points="1252,-1732 1134,-1732 1134,-1696 1252,-1696 1252,-1732"/>
<text text-anchor="middle" x="1193" y="-1711.1" font-family="Courier,monospace" font-size="11.00">HttpSourceModel</text>
</g>
<!-- \\TestHttpSourceModel&#45;&gt;\\HttpSourceModel -->
<g id="edge23" class="edge"><title>\\TestHttpSourceModel&#45;&gt;\\HttpSourceModel</title>
<path fill="none" stroke="black" d="M1503.06,-1681.62C1433.8,-1688.85 1330.42,-1699.65 1262.37,-1706.76"/>
<polygon fill="none" stroke="black" points="1261.76,-1703.3 1252.18,-1707.82 1262.48,-1710.26 1261.76,-1703.3"/>
</g>
<!-- \\HttpSourceController -->
<g id="node15" class="node"><title>\\HttpSourceController</title>
<polygon fill="none" stroke="black" points="1652,-1422 1500,-1422 1500,-1386 1652,-1386 1652,-1422"/>
<text text-anchor="middle" x="1576" y="-1401.1" font-family="Courier,monospace" font-size="11.00">HttpSourceController</text>
</g>
<!-- \\AppController -->
<g id="node66" class="node"><title>\\AppController</title>
<ellipse fill="none" stroke="black" cx="1193" cy="-272" rx="82.0244" ry="18.3848"/>
<text text-anchor="middle" x="1193" y="-268.4" font-family="Times Roman,serif" font-size="14.00" fill="gray">\AppController</text>
</g>
<!-- \\HttpSourceController&#45;&gt;\\AppController -->
<g id="edge25" class="edge"><title>\\HttpSourceController&#45;&gt;\\AppController</title>
<path fill="none" stroke="black" d="M1499.94,-1407.38C1474.81,-1404.38 1448.97,-1396.12 1432,-1377 1272.6,-1197.46 1521.64,-476.525 1360,-299 1339.57,-276.563 1308.43,-267.839 1278.55,-265.413"/>
<polygon fill="none" stroke="black" points="1278.67,-261.914 1268.48,-264.822 1278.26,-268.902 1278.67,-261.914"/>
</g>
<!-- \\HttpSourceTestFixture -->
<g id="node16" class="node"><title>\\HttpSourceTestFixture</title>
<polygon fill="none" stroke="black" points="1655,-1206 1497,-1206 1497,-1170 1655,-1170 1655,-1206"/>
<text text-anchor="middle" x="1576" y="-1185.1" font-family="Courier,monospace" font-size="11.00">HttpSourceTestFixture</text>
</g>
<!-- \\CakeTestFixture -->
<g id="node68" class="node"><title>\\CakeTestFixture</title>
<ellipse fill="none" stroke="black" cx="1193" cy="-218" rx="92.1303" ry="18.3848"/>
<text text-anchor="middle" x="1193" y="-214.4" font-family="Times Roman,serif" font-size="14.00" fill="gray">\CakeTestFixture</text>
</g>
<!-- \\HttpSourceTestFixture&#45;&gt;\\CakeTestFixture -->
<g id="edge27" class="edge"><title>\\HttpSourceTestFixture&#45;&gt;\\CakeTestFixture</title>
<path fill="none" stroke="black" d="M1496.69,-1190.83C1472.65,-1187.5 1448.32,-1179.16 1432,-1161 1295.54,-1009.11 1498.35,-395.166 1360,-245 1342,-225.464 1315.87,-216.362 1289.61,-212.76"/>
<polygon fill="none" stroke="black" points="1289.88,-209.269 1279.55,-211.638 1289.11,-216.225 1289.88,-209.269"/>
</g>
<!-- \\AppModel -->
<g id="node70" class="node"><title>\\AppModel</title>
<ellipse fill="none" stroke="black" cx="814" cy="-195" rx="62.2254" ry="18.3848"/>
<text text-anchor="middle" x="814" y="-191.4" font-family="Times Roman,serif" font-size="14.00" fill="gray">\AppModel</text>
</g>
<!-- \\HttpSourceModel&#45;&gt;\\AppModel -->
<g id="edge29" class="edge"><title>\\HttpSourceModel&#45;&gt;\\AppModel</title>
<path fill="none" stroke="black" d="M1149.45,-1695.86C1109.6,-1676.69 1052.88,-1642.37 1026,-1593 882.557,-1329.54 1133.28,-485.513 954,-245 937.177,-222.431 909.277,-210.017 882.792,-203.202"/>
<polygon fill="none" stroke="black" points="883.271,-199.72 872.737,-200.855 881.679,-206.536 883.271,-199.72"/>
</g>
<!-- \\Object -->
<g id="node72" class="node"><title>\\Object</title>
<ellipse fill="none" stroke="black" cx="814" cy="-326" rx="45.9619" ry="18.3848"/>
<text text-anchor="middle" x="814" y="-322.4" font-family="Times Roman,serif" font-size="14.00" fill="gray">\Object</text>
</g>
<!-- \\HttpSourceConnection&#45;&gt;\\Object -->
<g id="edge31" class="edge"><title>\\HttpSourceConnection&#45;&gt;\\Object</title>
<path fill="none" stroke="black" d="M1116.86,-1924.37C1084.16,-1923.14 1048.39,-1915.09 1026,-1890 911.8,-1762.03 1068.48,-475.722 954,-348 932.846,-324.4 897.535,-318.98 867.669,-319.419"/>
<polygon fill="none" stroke="black" points="867.229,-315.933 857.364,-319.799 867.486,-322.928 867.229,-315.933"/>
</g>
<!-- \\DataSource -->
<g id="node74" class="node"><title>\\DataSource</title>
<ellipse fill="none" stroke="black" cx="814" cy="-272" rx="72.1249" ry="18.3848"/>
<text text-anchor="middle" x="814" y="-268.4" font-family="Times Roman,serif" font-size="14.00" fill="gray">\DataSource</text>
</g>
<!-- \\HttpSource&#45;&gt;\\DataSource -->
<g id="edge33" class="edge"><title>\\HttpSource&#45;&gt;\\DataSource</title>
<path fill="none" stroke="black" d="M1150.43,-1869.51C1111.85,-1872.73 1056.51,-1870.18 1026,-1836 912.16,-1708.45 1065.9,-428.258 954,-299 939.248,-281.959 917.278,-273.625 895.092,-269.96"/>
<polygon fill="none" stroke="black" points="895.286,-266.454 884.908,-268.589 894.352,-273.392 895.286,-266.454"/>
</g>
<!-- \\HttpSourceUtility -->
<g id="node20" class="node"><title>\\HttpSourceUtility</title>
<polygon fill="none" stroke="black" points="1641,-1746 1511,-1746 1511,-1710 1641,-1710 1641,-1746"/>
<text text-anchor="middle" x="1576" y="-1725.1" font-family="Courier,monospace" font-size="11.00">HttpSourceUtility</text>
</g>
<!-- \\HttpSourceUserFixture -->
<g id="node21" class="node"><title>\\HttpSourceUserFixture</title>
<polygon fill="none" stroke="black" points="1655,-1314 1497,-1314 1497,-1278 1655,-1278 1655,-1314"/>
<text text-anchor="middle" x="1576" y="-1293.1" font-family="Courier,monospace" font-size="11.00">HttpSourceUserFixture</text>
</g>
<!-- \\HttpSourceUserFixture&#45;&gt;\\CakeTestFixture -->
<g id="edge35" class="edge"><title>\\HttpSourceUserFixture&#45;&gt;\\CakeTestFixture</title>
<path fill="none" stroke="black" d="M1496.97,-1298.96C1472.81,-1295.67 1448.33,-1287.33 1432,-1269 1280.25,-1098.68 1513.88,-413.403 1360,-245 1342.08,-225.39 1315.98,-216.266 1289.71,-212.667"/>
<polygon fill="none" stroke="black" points="1289.98,-209.175 1279.65,-211.548 1289.21,-216.132 1289.98,-209.175"/>
</g>
<!-- \\HttpSourceUsersDocumentFixture -->
<g id="node22" class="node"><title>\\HttpSourceUsersDocumentFixture</title>
<polygon fill="none" stroke="black" points="1685,-1368 1467,-1368 1467,-1332 1685,-1332 1685,-1368"/>
<text text-anchor="middle" x="1576" y="-1347.1" font-family="Courier,monospace" font-size="11.00">HttpSourceUsersDocumentFixture</text>
</g>
<!-- \\HttpSourceUsersDocumentFixture&#45;&gt;\\CakeTestFixture -->
<g id="edge37" class="edge"><title>\\HttpSourceUsersDocumentFixture&#45;&gt;\\CakeTestFixture</title>
<path fill="none" stroke="black" d="M1466.26,-1345.55C1453.23,-1340.67 1441.29,-1333.46 1432,-1323 1272.6,-1143.46 1521.64,-422.525 1360,-245 1342.03,-225.262 1315.77,-216.137 1289.37,-212.575"/>
<polygon fill="none" stroke="black" points="1289.58,-209.078 1279.26,-211.472 1288.82,-216.037 1289.58,-209.078"/>
</g>
<!-- \\HttpSourceDocument -->
<g id="node23" class="node"><title>\\HttpSourceDocument</title>
<polygon fill="none" stroke="black" points="1645,-1800 1507,-1800 1507,-1764 1645,-1764 1645,-1800"/>
<text text-anchor="middle" x="1576" y="-1779.1" font-family="Courier,monospace" font-size="11.00">HttpSourceDocument</text>
</g>
<!-- \\HttpSourceDocument&#45;&gt;\\HttpSourceModel -->
<g id="edge39" class="edge"><title>\\HttpSourceDocument&#45;&gt;\\HttpSourceModel</title>
<path fill="none" stroke="black" d="M1506.64,-1769.69C1437.3,-1757.37 1331.28,-1738.55 1262.05,-1726.26"/>
<polygon fill="none" stroke="black" points="1262.57,-1722.8 1252.11,-1724.49 1261.34,-1729.69 1262.57,-1722.8"/>
</g>
<!-- \\HttpSourceUser -->
<g id="node24" class="node"><title>\\HttpSourceUser</title>
<polygon fill="none" stroke="black" points="1631,-1152 1521,-1152 1521,-1116 1631,-1116 1631,-1152"/>
<text text-anchor="middle" x="1576" y="-1131.1" font-family="Courier,monospace" font-size="11.00">HttpSourceUser</text>
</g>
<!-- \\HttpSourceUser&#45;&gt;\\AppModel -->
<g id="edge41" class="edge"><title>\\HttpSourceUser&#45;&gt;\\AppModel</title>
<path fill="none" stroke="black" d="M1520.32,-1138.66C1489.76,-1137.97 1453.76,-1131.22 1432,-1107 1295.54,-955.113 1509.93,-329.607 1360,-191 1291.64,-127.799 1006.72,-163.942 877.828,-184.185"/>
<polygon fill="none" stroke="black" points="877.034,-180.767 867.707,-185.792 878.132,-187.68 877.034,-180.767"/>
</g>
<!-- \\HttpSourceAppTest -->
<g id="node25" class="node"><title>\\HttpSourceAppTest</title>
<polygon fill="none" stroke="black" points="1259,-1584 1127,-1584 1127,-1548 1259,-1548 1259,-1584"/>
<text text-anchor="start" x="1159" y="-1571.43" font-family="Courier,monospace" font-size="11.00">«abstract»</text>
<text text-anchor="start" x="1135.5" y="-1558.23" font-family="Courier,monospace" font-size="11.00">HttpSourceAppTest</text>
</g>
<!-- \\CakeTestCase -->
<g id="node80" class="node"><title>\\CakeTestCase</title>
<ellipse fill="none" stroke="black" cx="1193" cy="-126" rx="82.0244" ry="18.3848"/>
<text text-anchor="middle" x="1193" y="-122.4" font-family="Times Roman,serif" font-size="14.00" fill="gray">\CakeTestCase</text>
</g>
<!-- \\HttpSourceAppTest&#45;&gt;\\CakeTestCase -->
<g id="edge43" class="edge"><title>\\HttpSourceAppTest&#45;&gt;\\CakeTestCase</title>
<path fill="none" stroke="black" d="M1259.38,-1576.77C1305.79,-1580.08 1364.84,-1574.9 1396,-1535 1441.64,-1476.54 1438.53,-260.764 1396,-200 1369.61,-162.293 1321.89,-143.732 1279.34,-134.626"/>
<polygon fill="none" stroke="black" points="1280,-131.188 1269.51,-132.665 1278.63,-138.052 1280,-131.188"/>
</g>
<!-- \\HttpSourceConditionTest -->
<g id="node26" class="node"><title>\\HttpSourceConditionTest</title>
<polygon fill="none" stroke="black" points="1662,-936 1490,-936 1490,-900 1662,-900 1662,-936"/>
<text text-anchor="middle" x="1576" y="-915.1" font-family="Courier,monospace" font-size="11.00">HttpSourceConditionTest</text>
</g>
<!-- \\HttpSourceConditionTest&#45;&gt;\\CakeTestCase -->
<g id="edge45" class="edge"><title>\\HttpSourceConditionTest&#45;&gt;\\CakeTestCase</title>
<path fill="none" stroke="black" d="M1489.76,-919.5C1468.12,-915.565 1446.86,-907.223 1432,-891 1321.43,-770.318 1470.33,-278.901 1360,-158 1340.51,-136.641 1311.48,-126.942 1283.08,-123.107"/>
<polygon fill="none" stroke="black" points="1283.4,-119.621 1273.07,-121.986 1282.62,-126.578 1283.4,-119.621"/>
</g>
<!-- \\HttpSourceEndpointTest -->
<g id="node27" class="node"><title>\\HttpSourceEndpointTest</title>
<polygon fill="none" stroke="black" points="1658,-882 1494,-882 1494,-846 1658,-846 1658,-882"/>
<text text-anchor="middle" x="1576" y="-861.1" font-family="Courier,monospace" font-size="11.00">HttpSourceEndpointTest</text>
</g>
<!-- \\HttpSourceEndpointTest&#45;&gt;\\CakeTestCase -->
<g id="edge47" class="edge"><title>\\HttpSourceEndpointTest&#45;&gt;\\CakeTestCase</title>
<path fill="none" stroke="black" d="M1493.22,-866.004C1470.44,-862.334 1447.7,-854.006 1432,-837 1226.13,-614.035 1565.42,-381.373 1360,-158 1340.52,-136.813 1311.65,-127.124 1283.37,-123.246"/>
<polygon fill="none" stroke="black" points="1283.74,-119.766 1273.41,-122.108 1282.95,-126.721 1283.74,-119.766"/>
</g>
<!-- \\HttpSourceEndpointItemTest -->
<g id="node28" class="node"><title>\\HttpSourceEndpointItemTest</title>
<polygon fill="none" stroke="black" points="1672,-828 1480,-828 1480,-792 1672,-792 1672,-828"/>
<text text-anchor="middle" x="1576" y="-807.1" font-family="Courier,monospace" font-size="11.00">HttpSourceEndpointItemTest</text>
</g>
<!-- \\HttpSourceEndpointItemTest&#45;&gt;\\CakeTestCase -->
<g id="edge49" class="edge"><title>\\HttpSourceEndpointItemTest&#45;&gt;\\CakeTestCase</title>
<path fill="none" stroke="black" d="M1479.85,-809.16C1461.81,-804.618 1444.66,-796.585 1432,-783 1241.39,-578.422 1550.2,-362.956 1360,-158 1340.42,-136.902 1311.53,-127.233 1283.26,-123.348"/>
<polygon fill="none" stroke="black" points="1283.64,-119.868 1273.3,-122.206 1282.84,-126.823 1283.64,-119.868"/>
</g>
<!-- \\HttpSourceEndpointItemiAmExistsANDValid -->
<g id="node29" class="node"><title>\\HttpSourceEndpointItemiAmExistsANDValid</title>
<polygon fill="none" stroke="black" points="954,-1908 674,-1908 674,-1872 954,-1872 954,-1908"/>
<text text-anchor="middle" x="814" y="-1887.1" font-family="Courier,monospace" font-size="11.00">HttpSourceEndpointItemiAmExistsANDValid</text>
</g>
<!-- \\HttpSourceEndpointItemiAmExistsANDValid&#45;&gt;\\HttpSourceEndpointItem -->
<g id="edge51" class="edge"><title>\\HttpSourceEndpointItemiAmExistsANDValid&#45;&gt;\\HttpSourceEndpointItem</title>
<path fill="none" stroke="black" d="M698.113,-1908.01C689.815,-1910.61 681.695,-1913.59 674,-1917 637.428,-1933.2 638.734,-1955.17 602,-1971 582.157,-1979.55 559.802,-1985.4 538.318,-1989.39"/>
<polygon fill="none" stroke="black" points="537.441,-1985.99 528.19,-1991.16 538.642,-1992.89 537.441,-1985.99"/>
</g>
<!-- \\HttpSourceConfigFactoryTest -->
<g id="node30" class="node"><title>\\HttpSourceConfigFactoryTest</title>
<polygon fill="none" stroke="black" points="1675,-774 1477,-774 1477,-738 1675,-738 1675,-774"/>
<text text-anchor="middle" x="1576" y="-753.1" font-family="Courier,monospace" font-size="11.00">HttpSourceConfigFactoryTest</text>
</g>
<!-- \\HttpSourceConfigFactoryTest&#45;&gt;\\CakeTestCase -->
<g id="edge53" class="edge"><title>\\HttpSourceConfigFactoryTest&#45;&gt;\\CakeTestCase</title>
<path fill="none" stroke="black" d="M1476.27,-754.075C1459.58,-749.398 1443.86,-741.591 1432,-729 1256.63,-542.795 1535,-344.553 1360,-158 1340.48,-137.195 1311.91,-127.537 1283.89,-123.575"/>
<polygon fill="none" stroke="black" points="1283.95,-120.058 1273.61,-122.363 1283.13,-127.01 1283.95,-120.058"/>
</g>
<!-- \\HttpSourceConfigFactoryiAmExists -->
<g id="node31" class="node"><title>\\HttpSourceConfigFactoryiAmExists</title>
<polygon fill="none" stroke="black" points="1692,-1260 1460,-1260 1460,-1224 1692,-1224 1692,-1260"/>
<text text-anchor="middle" x="1576" y="-1239.1" font-family="Courier,monospace" font-size="11.00">HttpSourceConfigFactoryiAmExists</text>
</g>
<!-- \\HttpSourceConfigFactoryiAmExistsANDValid -->
<g id="node32" class="node"><title>\\HttpSourceConfigFactoryiAmExistsANDValid</title>
<polygon fill="none" stroke="black" points="1719,-1908 1433,-1908 1433,-1872 1719,-1872 1719,-1908"/>
<text text-anchor="middle" x="1576" y="-1887.1" font-family="Courier,monospace" font-size="11.00">HttpSourceConfigFactoryiAmExistsANDValid</text>
</g>
<!-- \\HttpSourceConfigFactoryiAmExistsANDValid&#45;&gt;\\HttpSourceConfigFactory -->
<g id="edge55" class="edge"><title>\\HttpSourceConfigFactoryiAmExistsANDValid&#45;&gt;\\HttpSourceConfigFactory</title>
<path fill="none" stroke="black" d="M1468.58,-1871.99C1456.17,-1869.28 1443.76,-1866.28 1432,-1863 1399.08,-1853.82 1393.03,-1844.77 1360,-1836 1337.27,-1829.97 1312.43,-1825.06 1289.01,-1821.18"/>
<polygon fill="none" stroke="black" points="1289.5,-1817.71 1279.07,-1819.58 1288.39,-1824.62 1289.5,-1817.71"/>
</g>
<!-- \\HttpSourceConfigiAmExistsANDValid -->
<g id="node33" class="node"><title>\\HttpSourceConfigiAmExistsANDValid</title>
<polygon fill="none" stroke="black" points="933,-2124 695,-2124 695,-2088 933,-2088 933,-2124"/>
<text text-anchor="middle" x="814" y="-2103.1" font-family="Courier,monospace" font-size="11.00">HttpSourceConfigiAmExistsANDValid</text>
</g>
<!-- \\HttpSourceConfigiAmExistsANDValid&#45;&gt;\\HttpSourceConfig -->
<g id="edge57" class="edge"><title>\\HttpSourceConfigiAmExistsANDValid&#45;&gt;\\HttpSourceConfig</title>
<path fill="none" stroke="black" d="M694.451,-2106C636.257,-2106 568.18,-2106 517.859,-2106"/>
<polygon fill="none" stroke="black" points="517.721,-2102.5 507.721,-2106 517.721,-2109.5 517.721,-2102.5"/>
</g>
<!-- \\HttpSourceEndpointiAmExistsANDValid -->
<g id="node34" class="node"><title>\\HttpSourceEndpointiAmExistsANDValid</title>
<polygon fill="none" stroke="black" points="940,-2070 688,-2070 688,-2034 940,-2034 940,-2070"/>
<text text-anchor="middle" x="814" y="-2049.1" font-family="Courier,monospace" font-size="11.00">HttpSourceEndpointiAmExistsANDValid</text>
</g>
<!-- \\HttpSourceEndpointiAmExistsANDValid&#45;&gt;\\HttpSourceEndpoint -->
<g id="edge59" class="edge"><title>\\HttpSourceEndpointiAmExistsANDValid&#45;&gt;\\HttpSourceEndpoint</title>
<path fill="none" stroke="black" d="M687.269,-2052C633.255,-2052 571.894,-2052 524.44,-2052"/>
<polygon fill="none" stroke="black" points="524.228,-2048.5 514.228,-2052 524.228,-2055.5 524.228,-2048.5"/>
</g>
<!-- \\HttpSourceConditioniAmExistsANDValid -->
<g id="node35" class="node"><title>\\HttpSourceConditioniAmExistsANDValid</title>
<polygon fill="none" stroke="black" points="1706,-2124 1446,-2124 1446,-2088 1706,-2088 1706,-2124"/>
<text text-anchor="middle" x="1576" y="-2103.1" font-family="Courier,monospace" font-size="11.00">HttpSourceConditioniAmExistsANDValid</text>
</g>
<!-- \\HttpSourceConditioniAmExistsANDValid&#45;&gt;\\HttpSourceCondition -->
<g id="edge61" class="edge"><title>\\HttpSourceConditioniAmExistsANDValid&#45;&gt;\\HttpSourceCondition</title>
<path fill="none" stroke="black" d="M1450.82,-2087.95C1444.3,-2085.35 1437.98,-2082.38 1432,-2079 1390.08,-2055.29 1402.22,-2021.19 1360,-1998 1334.55,-1984.02 1303.85,-1976.82 1275.76,-1973.23"/>
<polygon fill="none" stroke="black" points="1275.87,-1969.72 1265.54,-1972.07 1275.08,-1976.68 1275.87,-1969.72"/>
</g>
<!-- \\HttpSourceFieldiAmExistsANDValid -->
<g id="node36" class="node"><title>\\HttpSourceFieldiAmExistsANDValid</title>
<polygon fill="none" stroke="black" points="1309,-2043 1077,-2043 1077,-2007 1309,-2007 1309,-2043"/>
<text text-anchor="middle" x="1193" y="-2022.1" font-family="Courier,monospace" font-size="11.00">HttpSourceFieldiAmExistsANDValid</text>
</g>
<!-- \\HttpSourceFieldiAmExistsANDValid&#45;&gt;\\HttpSourceField -->
<g id="edge63" class="edge"><title>\\HttpSourceFieldiAmExistsANDValid&#45;&gt;\\HttpSourceField</title>
<path fill="none" stroke="black" d="M1076.48,-2009.21C1059.43,-2006.02 1042.18,-2002.3 1026,-1998 992.969,-1989.23 986.895,-1980.27 954,-1971 931.17,-1964.57 905.817,-1959.17 883.027,-1954.93"/>
<polygon fill="none" stroke="black" points="883.56,-1951.47 873.095,-1953.12 882.308,-1958.36 883.56,-1951.47"/>
</g>
<!-- \\HttpSourceResultiAmExistsANDValid -->
<g id="node37" class="node"><title>\\HttpSourceResultiAmExistsANDValid</title>
<polygon fill="none" stroke="black" points="1312,-2097 1074,-2097 1074,-2061 1312,-2061 1312,-2097"/>
<text text-anchor="middle" x="1193" y="-2076.1" font-family="Courier,monospace" font-size="11.00">HttpSourceResultiAmExistsANDValid</text>
</g>
<!-- \\HttpSourceResultiAmExistsANDValid&#45;&gt;\\HttpSourceResult -->
<g id="edge65" class="edge"><title>\\HttpSourceResultiAmExistsANDValid&#45;&gt;\\HttpSourceResult</title>
<path fill="none" stroke="black" d="M1073.34,-2062.61C1057.32,-2059.56 1041.19,-2056.03 1026,-2052 992.969,-2043.23 986.895,-2034.27 954,-2025 932.306,-2018.89 908.332,-2013.71 886.446,-2009.57"/>
<polygon fill="none" stroke="black" points="887.022,-2006.12 876.553,-2007.74 885.751,-2013 887.022,-2006.12"/>
</g>
<!-- \\HttpSourceConfigFactoryItemTest -->
<g id="node38" class="node"><title>\\HttpSourceConfigFactoryItemTest</title>
<polygon fill="none" stroke="black" points="1689,-1044 1463,-1044 1463,-1008 1689,-1008 1689,-1044"/>
<text text-anchor="middle" x="1576" y="-1023.1" font-family="Courier,monospace" font-size="11.00">HttpSourceConfigFactoryItemTest</text>
</g>
<!-- \\HttpSourceConfigFactoryItemTest&#45;&gt;\\CakeTestCase -->
<g id="edge67" class="edge"><title>\\HttpSourceConfigFactoryItemTest&#45;&gt;\\CakeTestCase</title>
<path fill="none" stroke="black" d="M1462.91,-1020.01C1451.23,-1015.21 1440.53,-1008.43 1432,-999 1306.16,-859.907 1485.57,-297.343 1360,-158 1340.55,-136.421 1311.39,-126.703 1282.84,-122.916"/>
<polygon fill="none" stroke="black" points="1283.11,-119.425 1272.79,-121.814 1282.34,-126.383 1283.11,-119.425"/>
</g>
<!-- \\HttpSourceConfigFactoryItemiAmExistsANDValid -->
<g id="node39" class="node"><title>\\HttpSourceConfigFactoryItemiAmExistsANDValid</title>
<polygon fill="none" stroke="black" points="602,-1962 288,-1962 288,-1926 602,-1926 602,-1962"/>
<text text-anchor="middle" x="445" y="-1941.1" font-family="Courier,monospace" font-size="11.00">HttpSourceConfigFactoryItemiAmExistsANDValid</text>
</g>
<!-- \\HttpSourceConfigFactoryItemiAmExistsANDValid&#45;&gt;\\HttpSourceConfigFactoryItem -->
<g id="edge69" class="edge"><title>\\HttpSourceConfigFactoryItemiAmExistsANDValid&#45;&gt;\\HttpSourceConfigFactoryItem</title>
<path fill="none" stroke="black" d="M329.315,-1962.08C315.337,-1964.8 301.307,-1967.78 288,-1971 250.643,-1980.03 209.55,-1992.83 176.899,-2003.69"/>
<polygon fill="none" stroke="black" points="175.418,-2000.5 167.051,-2007 177.645,-2007.13 175.418,-2000.5"/>
</g>
<!-- \\HttpSourceResultTest -->
<g id="node40" class="node"><title>\\HttpSourceResultTest</title>
<polygon fill="none" stroke="black" points="1652,-990 1500,-990 1500,-954 1652,-954 1652,-990"/>
<text text-anchor="middle" x="1576" y="-969.1" font-family="Courier,monospace" font-size="11.00">HttpSourceResultTest</text>
</g>
<!-- \\HttpSourceResultTest&#45;&gt;\\CakeTestCase -->
<g id="edge71" class="edge"><title>\\HttpSourceResultTest&#45;&gt;\\CakeTestCase</title>
<path fill="none" stroke="black" d="M1499.82,-975.098C1474.84,-972.047 1449.12,-963.812 1432,-945 1313.8,-815.114 1477.94,-288.12 1360,-158 1340.58,-136.576 1311.57,-126.861 1283.16,-123.033"/>
<polygon fill="none" stroke="black" points="1283.47,-119.546 1273.15,-121.914 1282.7,-126.503 1283.47,-119.546"/>
</g>
<!-- \\HttpSourceConfigTest -->
<g id="node41" class="node"><title>\\HttpSourceConfigTest</title>
<polygon fill="none" stroke="black" points="1652,-720 1500,-720 1500,-684 1652,-684 1652,-720"/>
<text text-anchor="middle" x="1576" y="-699.1" font-family="Courier,monospace" font-size="11.00">HttpSourceConfigTest</text>
</g>
<!-- \\HttpSourceConfigTest&#45;&gt;\\CakeTestCase -->
<g id="edge73" class="edge"><title>\\HttpSourceConfigTest&#45;&gt;\\CakeTestCase</title>
<path fill="none" stroke="black" d="M1499.94,-704.596C1475.11,-701.467 1449.47,-693.311 1432,-675 1271.85,-507.147 1519.81,-326.171 1360,-158 1340.35,-137.321 1311.74,-127.695 1283.73,-123.722"/>
<polygon fill="none" stroke="black" points="1283.8,-120.206 1273.46,-122.505 1282.98,-127.157 1283.8,-120.206"/>
</g>
<!-- \\HttpSourceFieldTest -->
<g id="node42" class="node"><title>\\HttpSourceFieldTest</title>
<polygon fill="none" stroke="black" points="1648,-666 1504,-666 1504,-630 1648,-630 1648,-666"/>
<text text-anchor="middle" x="1576" y="-645.1" font-family="Courier,monospace" font-size="11.00">HttpSourceFieldTest</text>
</g>
<!-- \\HttpSourceFieldTest&#45;&gt;\\CakeTestCase -->
<g id="edge75" class="edge"><title>\\HttpSourceFieldTest&#45;&gt;\\CakeTestCase</title>
<path fill="none" stroke="black" d="M1503.46,-650.835C1477.63,-648.011 1450.41,-639.994 1432,-621 1287.05,-471.474 1504.65,-307.814 1360,-158 1340.28,-137.573 1311.8,-127.978 1283.93,-123.96"/>
<polygon fill="none" stroke="black" points="1284.05,-120.45 1273.71,-122.722 1283.21,-127.399 1284.05,-120.45"/>
</g>
<!-- \\HttpSourceControllerTest -->
<g id="node43" class="node"><title>\\HttpSourceControllerTest</title>
<polygon fill="none" stroke="black" points="1665,-450 1487,-450 1487,-414 1665,-414 1665,-450"/>
<text text-anchor="middle" x="1576" y="-429.1" font-family="Courier,monospace" font-size="11.00">HttpSourceControllerTest</text>
</g>
<!-- \\ControllerTestCase -->
<g id="node98" class="node"><title>\\ControllerTestCase</title>
<ellipse fill="none" stroke="black" cx="1193" cy="-72" rx="106.773" ry="18.3848"/>
<text text-anchor="middle" x="1193" y="-68.4" font-family="Times Roman,serif" font-size="14.00" fill="gray">\ControllerTestCase</text>
</g>
<!-- \\HttpSourceControllerTest&#45;&gt;\\ControllerTestCase -->
<g id="edge77" class="edge"><title>\\HttpSourceControllerTest&#45;&gt;\\ControllerTestCase</title>
<path fill="none" stroke="black" d="M1486.26,-431.193C1466.29,-426.963 1446.71,-419.056 1432,-405 1330.97,-308.492 1462.23,-194.234 1360,-99 1346,-85.9585 1328.31,-77.8059 1309.72,-72.8987"/>
<polygon fill="none" stroke="black" points="1310.46,-69.4779 1299.93,-70.6196 1308.87,-76.2956 1310.46,-69.4779"/>
</g>
<!-- \\HttpSourceTest -->
<g id="node44" class="node"><title>\\HttpSourceTest</title>
<polygon fill="none" stroke="black" points="1631,-612 1521,-612 1521,-576 1631,-576 1631,-612"/>
<text text-anchor="middle" x="1576" y="-591.1" font-family="Courier,monospace" font-size="11.00">HttpSourceTest</text>
</g>
<!-- \\HttpSourceTest&#45;&gt;\\CakeTestCase -->
<g id="edge79" class="edge"><title>\\HttpSourceTest&#45;&gt;\\CakeTestCase</title>
<path fill="none" stroke="black" d="M1520.46,-597.838C1490.33,-596.793 1454.71,-589.968 1432,-567 1302.21,-435.765 1489.53,-289.492 1360,-158 1340.17,-137.865 1311.81,-128.314 1284.08,-124.248"/>
<polygon fill="none" stroke="black" points="1284.26,-120.744 1273.91,-122.989 1283.4,-127.691 1284.26,-120.744"/>
</g>
<!-- \\HttpTestSource -->
<g id="node45" class="node"><title>\\HttpTestSource</title>
<polygon fill="none" stroke="black" points="1631,-1962 1521,-1962 1521,-1926 1631,-1926 1631,-1962"/>
<text text-anchor="middle" x="1576" y="-1941.1" font-family="Courier,monospace" font-size="11.00">HttpTestSource</text>
</g>
<!-- \\HttpTestSource&#45;&gt;\\HttpSource -->
<g id="edge81" class="edge"><title>\\HttpTestSource&#45;&gt;\\HttpSource</title>
<path fill="none" stroke="black" d="M1520.44,-1935.89C1493.49,-1931.38 1460.79,-1925.03 1432,-1917 1399.08,-1907.82 1393.03,-1898.77 1360,-1890 1322.31,-1879.99 1278.8,-1873.1 1245.64,-1868.79"/>
<polygon fill="none" stroke="black" points="1246.06,-1865.32 1235.7,-1867.53 1245.18,-1872.26 1246.06,-1865.32"/>
</g>
<!-- \\HttpSourceConnectionTest -->
<g id="node46" class="node"><title>\\HttpSourceConnectionTest</title>
<polygon fill="none" stroke="black" points="1665,-558 1487,-558 1487,-522 1665,-522 1665,-558"/>
<text text-anchor="middle" x="1576" y="-537.1" font-family="Courier,monospace" font-size="11.00">HttpSourceConnectionTest</text>
</g>
<!-- \\HttpSourceConnectionTest&#45;&gt;\\CakeTestCase -->
<g id="edge83" class="edge"><title>\\HttpSourceConnectionTest&#45;&gt;\\CakeTestCase</title>
<path fill="none" stroke="black" d="M1486.33,-539.593C1466.24,-535.374 1446.58,-527.371 1432,-513 1317.33,-400.006 1474.45,-271.222 1360,-158 1340.09,-138.308 1312.01,-128.815 1284.55,-124.667"/>
<polygon fill="none" stroke="black" points="1284.84,-121.175 1274.47,-123.371 1283.95,-128.118 1284.84,-121.175"/>
</g>
<!-- \\HttpSourceBasicsTest -->
<g id="node47" class="node"><title>\\HttpSourceBasicsTest</title>
<polygon fill="none" stroke="black" points="1652,-1584 1500,-1584 1500,-1548 1652,-1548 1652,-1584"/>
<text text-anchor="middle" x="1576" y="-1563.1" font-family="Courier,monospace" font-size="11.00">HttpSourceBasicsTest</text>
</g>
<!-- \\HttpSourceBasicsTest&#45;&gt;\\HttpSourceAppTest -->
<g id="edge85" class="edge"><title>\\HttpSourceBasicsTest&#45;&gt;\\HttpSourceAppTest</title>
<path fill="none" stroke="black" d="M1499.87,-1566C1432.95,-1566 1336.07,-1566 1269.14,-1566"/>
<polygon fill="none" stroke="black" points="1269.08,-1562.5 1259.08,-1566 1269.08,-1569.5 1269.08,-1562.5"/>
</g>
<!-- \\HttpSourceToDboAssociationTest -->
<g id="node48" class="node"><title>\\HttpSourceToDboAssociationTest</title>
<polygon fill="none" stroke="black" points="1685,-1638 1467,-1638 1467,-1602 1685,-1602 1685,-1638"/>
<text text-anchor="middle" x="1576" y="-1617.1" font-family="Courier,monospace" font-size="11.00">HttpSourceToDboAssociationTest</text>
</g>
<!-- \\HttpSourceToDboAssociationTest&#45;&gt;\\HttpSourceAppTest -->
<g id="edge87" class="edge"><title>\\HttpSourceToDboAssociationTest&#45;&gt;\\HttpSourceAppTest</title>
<path fill="none" stroke="black" d="M1466.25,-1604.53C1403.17,-1595.63 1325.52,-1584.68 1269.14,-1576.74"/>
<polygon fill="none" stroke="black" points="1269.61,-1573.27 1259.22,-1575.34 1268.64,-1580.2 1269.61,-1573.27"/>
</g>
<!-- \\HttpSourceModelTest -->
<g id="node49" class="node"><title>\\HttpSourceModelTest</title>
<polygon fill="none" stroke="black" points="1648,-504 1504,-504 1504,-468 1648,-468 1648,-504"/>
<text text-anchor="middle" x="1576" y="-483.1" font-family="Courier,monospace" font-size="11.00">HttpSourceModelTest</text>
</g>
<!-- \\HttpSourceModelTest&#45;&gt;\\CakeTestCase -->
<g id="edge89" class="edge"><title>\\HttpSourceModelTest&#45;&gt;\\CakeTestCase</title>
<path fill="none" stroke="black" d="M1503.14,-487.906C1477.73,-484.883 1450.89,-476.974 1432,-459 1332.36,-364.17 1459.45,-253.028 1360,-158 1339.85,-138.747 1311.85,-129.342 1284.53,-125.14"/>
<polygon fill="none" stroke="black" points="1284.89,-121.656 1274.51,-123.819 1283.97,-128.596 1284.89,-121.656"/>
</g>
<!-- \\HttpSourceTestModel -->
<g id="node50" class="node"><title>\\HttpSourceTestModel</title>
<polygon fill="none" stroke="black" points="1648,-1854 1504,-1854 1504,-1818 1648,-1818 1648,-1854"/>
<text text-anchor="middle" x="1576" y="-1833.1" font-family="Courier,monospace" font-size="11.00">HttpSourceTestModel</text>
</g>
<!-- \\HttpSourceTestModel&#45;&gt;\\HttpSourceModel -->
<g id="edge91" class="edge"><title>\\HttpSourceTestModel&#45;&gt;\\HttpSourceModel</title>
<path fill="none" stroke="black" d="M1503.21,-1825.17C1480.21,-1821 1454.84,-1815.61 1432,-1809 1413.49,-1803.64 1311.25,-1762.31 1246.64,-1735.96"/>
<polygon fill="none" stroke="black" points="1247.58,-1732.56 1237,-1732.02 1244.93,-1739.04 1247.58,-1732.56"/>
</g>
<!-- \\AllHttpSourceTest -->
<g id="node51" class="node"><title>\\AllHttpSourceTest</title>
<polygon fill="none" stroke="black" points="1641,-396 1511,-396 1511,-360 1641,-360 1641,-396"/>
<text text-anchor="middle" x="1576" y="-375.1" font-family="Courier,monospace" font-size="11.00">AllHttpSourceTest</text>
</g>
<!-- \\PHPUnit_Framework_TestSuite -->
<g id="node107" class="node"><title>\\PHPUnit_Framework_TestSuite</title>
<ellipse fill="none" stroke="black" cx="1193" cy="-18" rx="166.877" ry="18.3848"/>
<text text-anchor="middle" x="1193" y="-14.4" font-family="Times Roman,serif" font-size="14.00" fill="gray">\PHPUnit_Framework_TestSuite</text>
</g>
<!-- \\AllHttpSourceTest&#45;&gt;\\PHPUnit_Framework_TestSuite -->
<g id="edge93" class="edge"><title>\\AllHttpSourceTest&#45;&gt;\\PHPUnit_Framework_TestSuite</title>
<path fill="none" stroke="black" d="M1570.17,-359.757C1550.83,-302.46 1482.95,-125.171 1360,-45 1352.41,-40.0521 1344.23,-35.9045 1335.7,-32.4363"/>
<polygon fill="none" stroke="black" points="1336.92,-29.1554 1326.33,-28.9337 1334.47,-35.7126 1336.92,-29.1554"/>
</g>
<!-- \\HttpSourceUtilityTest -->
<g id="node52" class="node"><title>\\HttpSourceUtilityTest</title>
<polygon fill="none" stroke="black" points="1655,-1098 1497,-1098 1497,-1062 1655,-1062 1655,-1098"/>
<text text-anchor="middle" x="1576" y="-1077.1" font-family="Courier,monospace" font-size="11.00">HttpSourceUtilityTest</text>
</g>
<!-- \\HttpSourceUtilityTest&#45;&gt;\\CakeTestCase -->
<g id="edge95" class="edge"><title>\\HttpSourceUtilityTest&#45;&gt;\\CakeTestCase</title>
<path fill="none" stroke="black" d="M1496.71,-1082.81C1472.67,-1079.48 1448.34,-1071.15 1432,-1053 1298.51,-904.696 1493.19,-306.569 1360,-158 1340.61,-136.371 1311.45,-126.642 1282.9,-122.859"/>
<polygon fill="none" stroke="black" points="1283.17,-119.368 1272.85,-121.76 1282.41,-126.326 1283.17,-119.368"/>
</g>
</g>
</svg>
