<?xml version="1.0" encoding="UTF-8" standalone="no"?>
<!DOCTYPE svg PUBLIC "-//W3C//DTD SVG 1.1//EN"
 "http://www.w3.org/Graphics/SVG/1.1/DTD/svg11.dtd">
<!-- Generated by graphviz version 2.26.3 (20100126.1600)
 -->
<!-- Title: G Pages: 1 -->
<svg width="1744pt" height="2179pt"
 viewBox="0.00 0.00 1744.00 2179.17" xmlns="http://www.w3.org/2000/svg" xmlns:xlink="http://www.w3.org/1999/xlink">
<g id="graph1" class="graph" transform="scale(1 1) rotate(0) translate(4 2175.17)">
<title>G</title>
<polygon fill="white" stroke="white" points="-4,5 -4,-2175.17 1741,-2175.17 1741,5 -4,5"/>
<g id="graph2" class="cluster"><title>cluster_Global</title>
<polyline fill="none" stroke="gray" points="20,-361.166 1716,-361.166 "/>
<path fill="none" stroke="gray" d="M1716,-361.166C1722,-361.166 1728,-367.166 1728,-373.166"/>
<polyline fill="none" stroke="gray" points="1728,-373.166 1728,-2151.17 "/>
<path fill="none" stroke="gray" d="M1728,-2151.17C1728,-2157.17 1722,-2163.17 1716,-2163.17"/>
<polyline fill="none" stroke="gray" points="1716,-2163.17 20,-2163.17 "/>
<path fill="none" stroke="gray" d="M20,-2163.17C14,-2163.17 8,-2157.17 8,-2151.17"/>
<polyline fill="none" stroke="gray" points="8,-2151.17 8,-373.166 "/>
<path fill="none" stroke="gray" d="M8,-373.166C8,-367.166 14,-361.166 20,-361.166"/>
<text text-anchor="middle" x="868" y="-2149.27" font-family="Times Roman,serif" font-size="11.00" fill="gray">Global</text>
</g>
<!-- \\HttpSourceTestFixture -->
<g id="node2" class="node"><title>\\HttpSourceTestFixture</title>
<polygon fill="none" stroke="black" points="1655,-1431.17 1497,-1431.17 1497,-1395.17 1655,-1395.17 1655,-1431.17"/>
<text text-anchor="middle" x="1576" y="-1410.27" font-family="Courier,monospace" font-size="11.00">HttpSourceTestFixture</text>
</g>
<!-- \\CakeTestFixture -->
<g id="node54" class="node"><title>\\CakeTestFixture</title>
<ellipse fill="none" stroke="black" cx="1193" cy="-335.166" rx="92.1303" ry="18.3848"/>
<text text-anchor="middle" x="1193" y="-331.566" font-family="Times Roman,serif" font-size="14.00" fill="gray">\CakeTestFixture</text>
</g>
<!-- \\HttpSourceTestFixture&#45;&gt;\\CakeTestFixture -->
<g id="edge3" class="edge"><title>\\HttpSourceTestFixture&#45;&gt;\\CakeTestFixture</title>
<path fill="none" stroke="black" d="M1496.97,-1416.13C1472.8,-1412.84 1448.33,-1404.49 1432,-1386.17 1279.54,-1214.99 1517.06,-524.13 1360,-357.166 1340.1,-336.016 1310.52,-327.963 1281.75,-326.029"/>
<polygon fill="none" stroke="black" points="1281.77,-322.527 1271.63,-325.589 1281.47,-329.52 1281.77,-322.527"/>
</g>
<!-- \\HttpSourceController -->
<g id="node3" class="node"><title>\\HttpSourceController</title>
<polygon fill="none" stroke="black" points="1652,-1323.17 1500,-1323.17 1500,-1287.17 1652,-1287.17 1652,-1323.17"/>
<text text-anchor="middle" x="1576" y="-1302.27" font-family="Courier,monospace" font-size="11.00">HttpSourceController</text>
</g>
<!-- \\AppController -->
<g id="node56" class="node"><title>\\AppController</title>
<ellipse fill="none" stroke="black" cx="1193" cy="-281.166" rx="82.0244" ry="18.3848"/>
<text text-anchor="middle" x="1193" y="-277.566" font-family="Times Roman,serif" font-size="14.00" fill="gray">\AppController</text>
</g>
<!-- \\HttpSourceController&#45;&gt;\\AppController -->
<g id="edge5" class="edge"><title>\\HttpSourceController&#45;&gt;\\AppController</title>
<path fill="none" stroke="black" d="M1499.64,-1308.43C1474.64,-1305.39 1448.96,-1297.12 1432,-1278.17 1287.89,-1117.06 1506.11,-467.449 1360,-308.166 1339.49,-285.804 1308.33,-277.095 1278.46,-274.66"/>
<polygon fill="none" stroke="black" points="1278.59,-271.162 1268.4,-274.064 1278.17,-278.149 1278.59,-271.162"/>
</g>
<!-- \\TestHttpSourceConnection -->
<g id="node4" class="node"><title>\\TestHttpSourceConnection</title>
<polygon fill="none" stroke="black" points="1665,-2025.17 1487,-2025.17 1487,-1989.17 1665,-1989.17 1665,-2025.17"/>
<text text-anchor="middle" x="1576" y="-2004.27" font-family="Courier,monospace" font-size="11.00">TestHttpSourceConnection</text>
</g>
<!-- \\HttpSourceConnection -->
<g id="node50" class="node"><title>\\HttpSourceConnection</title>
<polygon fill="none" stroke="black" points="1269,-1917.17 1117,-1917.17 1117,-1881.17 1269,-1881.17 1269,-1917.17"/>
<text text-anchor="middle" x="1193" y="-1896.27" font-family="Courier,monospace" font-size="11.00">HttpSourceConnection</text>
</g>
<!-- \\TestHttpSourceConnection&#45;&gt;\\HttpSourceConnection -->
<g id="edge7" class="edge"><title>\\TestHttpSourceConnection&#45;&gt;\\HttpSourceConnection</title>
<path fill="none" stroke="black" d="M1486.12,-1996.88C1467.75,-1992.98 1448.88,-1987.59 1432,-1980.17 1395.39,-1964.06 1396.81,-1941.81 1360,-1926.17 1334.83,-1915.47 1305.88,-1908.98 1279.23,-1905.06"/>
<polygon fill="none" stroke="black" points="1279.52,-1901.56 1269.14,-1903.68 1278.57,-1908.5 1279.52,-1901.56"/>
</g>
<!-- \\TestHttpSource -->
<g id="node5" class="node"><title>\\TestHttpSource</title>
<polygon fill="none" stroke="black" points="1631,-1917.17 1521,-1917.17 1521,-1881.17 1631,-1881.17 1631,-1917.17"/>
<text text-anchor="middle" x="1576" y="-1896.27" font-family="Courier,monospace" font-size="11.00">TestHttpSource</text>
</g>
<!-- \\HttpSource -->
<g id="node51" class="node"><title>\\HttpSource</title>
<polygon fill="none" stroke="black" points="1235,-1863.17 1151,-1863.17 1151,-1827.17 1235,-1827.17 1235,-1863.17"/>
<text text-anchor="start" x="1159" y="-1850.6" font-family="Courier,monospace" font-size="11.00">«abstract»</text>
<text text-anchor="start" x="1159" y="-1837.4" font-family="Courier,monospace" font-size="11.00">HttpSource</text>
</g>
<!-- \\TestHttpSource&#45;&gt;\\HttpSource -->
<g id="edge9" class="edge"><title>\\TestHttpSource&#45;&gt;\\HttpSource</title>
<path fill="none" stroke="black" d="M1520.31,-1891.31C1446.75,-1880.94 1318.1,-1862.8 1245.95,-1852.63"/>
<polygon fill="none" stroke="black" points="1246.11,-1849.12 1235.72,-1851.19 1245.14,-1856.05 1246.11,-1849.12"/>
</g>
<!-- \\TestHttpSourceModel -->
<g id="node6" class="node"><title>\\TestHttpSourceModel</title>
<polygon fill="none" stroke="black" points="1648,-1647.17 1504,-1647.17 1504,-1611.17 1648,-1611.17 1648,-1647.17"/>
<text text-anchor="middle" x="1576" y="-1626.27" font-family="Courier,monospace" font-size="11.00">TestHttpSourceModel</text>
</g>
<!-- \\HttpSourceModel -->
<g id="node52" class="node"><title>\\HttpSourceModel</title>
<polygon fill="none" stroke="black" points="1252,-1620.17 1134,-1620.17 1134,-1584.17 1252,-1584.17 1252,-1620.17"/>
<text text-anchor="middle" x="1193" y="-1599.27" font-family="Courier,monospace" font-size="11.00">HttpSourceModel</text>
</g>
<!-- \\TestHttpSourceModel&#45;&gt;\\HttpSourceModel -->
<g id="edge11" class="edge"><title>\\TestHttpSourceModel&#45;&gt;\\HttpSourceModel</title>
<path fill="none" stroke="black" d="M1503.06,-1624.02C1433.8,-1619.14 1330.42,-1611.85 1262.37,-1607.06"/>
<polygon fill="none" stroke="black" points="1262.4,-1603.55 1252.18,-1606.34 1261.9,-1610.53 1262.4,-1603.55"/>
</g>
<!-- \\HttpSourceField -->
<g id="node7" class="node"><title>\\HttpSourceField</title>
<polygon fill="none" stroke="black" points="873,-2025.17 755,-2025.17 755,-1989.17 873,-1989.17 873,-2025.17"/>
<text text-anchor="middle" x="814" y="-2004.27" font-family="Courier,monospace" font-size="11.00">HttpSourceField</text>
</g>
<!-- \\HttpSourceEndpointItem -->
<g id="node13" class="node"><title>\\HttpSourceEndpointItem</title>
<polygon fill="none" stroke="black" points="528,-1971.17 362,-1971.17 362,-1935.17 528,-1935.17 528,-1971.17"/>
<text text-anchor="start" x="411" y="-1958.6" font-family="Courier,monospace" font-size="11.00">«abstract»</text>
<text text-anchor="start" x="370.5" y="-1945.4" font-family="Courier,monospace" font-size="11.00">HttpSourceEndpointItem</text>
</g>
<!-- \\HttpSourceField&#45;&gt;\\HttpSourceEndpointItem -->
<g id="edge13" class="edge"><title>\\HttpSourceField&#45;&gt;\\HttpSourceEndpointItem</title>
<path fill="none" stroke="black" d="M754.714,-1998.49C696.386,-1989.95 606.447,-1976.79 538.488,-1966.85"/>
<polygon fill="none" stroke="black" points="538.604,-1963.33 528.203,-1965.34 537.59,-1970.25 538.604,-1963.33"/>
</g>
<!-- \\HttpSourceConfigFactoryItem -->
<g id="node8" class="node"><title>\\HttpSourceConfigFactoryItem</title>
<polygon fill="none" stroke="black" points="216,-2052.17 16,-2052.17 16,-2016.17 216,-2016.17 216,-2052.17"/>
<text text-anchor="start" x="82" y="-2039.6" font-family="Courier,monospace" font-size="11.00">«abstract»</text>
<text text-anchor="start" x="24.5" y="-2026.4" font-family="Courier,monospace" font-size="11.00">HttpSourceConfigFactoryItem</text>
</g>
<!-- \\HttpSourceResult -->
<g id="node9" class="node"><title>\\HttpSourceResult</title>
<polygon fill="none" stroke="black" points="876,-1917.17 752,-1917.17 752,-1881.17 876,-1881.17 876,-1917.17"/>
<text text-anchor="middle" x="814" y="-1896.27" font-family="Courier,monospace" font-size="11.00">HttpSourceResult</text>
</g>
<!-- \\HttpSourceResult&#45;&gt;\\HttpSourceEndpointItem -->
<g id="edge15" class="edge"><title>\\HttpSourceResult&#45;&gt;\\HttpSourceEndpointItem</title>
<path fill="none" stroke="black" d="M751.404,-1908.33C692.926,-1916.88 604.873,-1929.77 538.145,-1939.53"/>
<polygon fill="none" stroke="black" points="537.432,-1936.1 528.044,-1941.01 538.446,-1943.03 537.432,-1936.1"/>
</g>
<!-- \\HttpSourceConfig -->
<g id="node10" class="node"><title>\\HttpSourceConfig</title>
<polygon fill="none" stroke="black" points="507,-2079.17 383,-2079.17 383,-2043.17 507,-2043.17 507,-2079.17"/>
<text text-anchor="middle" x="445" y="-2058.27" font-family="Courier,monospace" font-size="11.00">HttpSourceConfig</text>
</g>
<!-- \\HttpSourceConfig&#45;&gt;\\HttpSourceConfigFactoryItem -->
<g id="edge17" class="edge"><title>\\HttpSourceConfig&#45;&gt;\\HttpSourceConfigFactoryItem</title>
<path fill="none" stroke="black" d="M382.343,-2056.02C338.385,-2052.42 278.429,-2047.5 226.533,-2043.24"/>
<polygon fill="none" stroke="black" points="226.521,-2039.72 216.269,-2042.39 225.949,-2046.7 226.521,-2039.72"/>
</g>
<!-- \\HttpSourceCondition -->
<g id="node11" class="node"><title>\\HttpSourceCondition</title>
<polygon fill="none" stroke="black" points="1265,-2079.17 1121,-2079.17 1121,-2043.17 1265,-2043.17 1265,-2079.17"/>
<text text-anchor="middle" x="1193" y="-2058.27" font-family="Courier,monospace" font-size="11.00">HttpSourceCondition</text>
</g>
<!-- \\HttpSourceCondition&#45;&gt;\\HttpSourceField -->
<g id="edge19" class="edge"><title>\\HttpSourceCondition&#45;&gt;\\HttpSourceField</title>
<path fill="none" stroke="black" d="M1120.37,-2050.82C1051.99,-2041.07 950.284,-2026.58 883.08,-2017.01"/>
<polygon fill="none" stroke="black" points="883.406,-2013.52 873.012,-2015.57 882.418,-2020.45 883.406,-2013.52"/>
</g>
<!-- \\HttpSourceConfigFactory -->
<g id="node12" class="node"><title>\\HttpSourceConfigFactory</title>
<polygon fill="none" stroke="black" points="1279,-2025.17 1107,-2025.17 1107,-1989.17 1279,-1989.17 1279,-2025.17"/>
<text text-anchor="middle" x="1193" y="-2004.27" font-family="Courier,monospace" font-size="11.00">HttpSourceConfigFactory</text>
</g>
<!-- \\HttpSourceEndpointItem&#45;&gt;\\HttpSourceConfigFactoryItem -->
<g id="edge21" class="edge"><title>\\HttpSourceEndpointItem&#45;&gt;\\HttpSourceConfigFactoryItem</title>
<path fill="none" stroke="black" d="M361.871,-1965.33C337.896,-1969.41 311.791,-1974.41 288,-1980.17 250.643,-1989.2 209.55,-2001.99 176.899,-2012.86"/>
<polygon fill="none" stroke="black" points="175.418,-2009.66 167.051,-2016.16 177.645,-2016.3 175.418,-2009.66"/>
</g>
<!-- \\HttpSourceEndpoint -->
<g id="node14" class="node"><title>\\HttpSourceEndpoint</title>
<polygon fill="none" stroke="black" points="514,-2025.17 376,-2025.17 376,-1989.17 514,-1989.17 514,-2025.17"/>
<text text-anchor="middle" x="445" y="-2004.27" font-family="Courier,monospace" font-size="11.00">HttpSourceEndpoint</text>
</g>
<!-- \\HttpSourceEndpoint&#45;&gt;\\HttpSourceConfigFactoryItem -->
<g id="edge23" class="edge"><title>\\HttpSourceEndpoint&#45;&gt;\\HttpSourceConfigFactoryItem</title>
<path fill="none" stroke="black" d="M375.63,-2012.86C332.33,-2016.41 275.632,-2021.07 226.27,-2025.12"/>
<polygon fill="none" stroke="black" points="225.859,-2021.64 216.179,-2025.94 226.432,-2028.61 225.859,-2021.64"/>
</g>
<!-- \\HttpSourceException -->
<g id="node15" class="node"><title>\\HttpSourceException</title>
<polygon fill="none" stroke="black" points="1648,-1269.17 1504,-1269.17 1504,-1233.17 1648,-1233.17 1648,-1269.17"/>
<text text-anchor="middle" x="1576" y="-1248.27" font-family="Courier,monospace" font-size="11.00">HttpSourceException</text>
</g>
<!-- \\CakeException -->
<g id="node67" class="node"><title>\\CakeException</title>
<ellipse fill="none" stroke="black" cx="1193" cy="-227.166" rx="85.7684" ry="18.3848"/>
<text text-anchor="middle" x="1193" y="-223.566" font-family="Times Roman,serif" font-size="14.00" fill="gray">\CakeException</text>
</g>
<!-- \\HttpSourceException&#45;&gt;\\CakeException -->
<g id="edge25" class="edge"><title>\\HttpSourceException&#45;&gt;\\CakeException</title>
<path fill="none" stroke="black" d="M1503.39,-1254.84C1477.23,-1252.19 1449.81,-1244.07 1432,-1224.17 1287.89,-1063.06 1506.11,-413.449 1360,-254.166 1340.55,-232.967 1311.54,-224.037 1283.13,-221.092"/>
<polygon fill="none" stroke="black" points="1283.37,-217.6 1273.12,-220.289 1282.81,-224.577 1283.37,-217.6"/>
</g>
<!-- \\HttpSourceConfigException -->
<g id="node16" class="node"><title>\\HttpSourceConfigException</title>
<polygon fill="none" stroke="black" points="1668,-1215.17 1484,-1215.17 1484,-1179.17 1668,-1179.17 1668,-1215.17"/>
<text text-anchor="middle" x="1576" y="-1194.27" font-family="Courier,monospace" font-size="11.00">HttpSourceConfigException</text>
</g>
<!-- \\HttpSourceConfigException&#45;&gt;\\CakeException -->
<g id="edge27" class="edge"><title>\\HttpSourceConfigException&#45;&gt;\\CakeException</title>
<path fill="none" stroke="black" d="M1483.19,-1197.56C1463.81,-1193.2 1445.26,-1184.92 1432,-1170.17 1295.54,-1018.28 1498.35,-404.332 1360,-254.166 1340.51,-233.009 1311.48,-224.089 1283.07,-221.14"/>
<polygon fill="none" stroke="black" points="1283.32,-217.648 1273.07,-220.335 1282.76,-224.626 1283.32,-217.648"/>
</g>
<!-- \\HttpSourceUtility -->
<g id="node17" class="node"><title>\\HttpSourceUtility</title>
<polygon fill="none" stroke="black" points="1641,-1755.17 1511,-1755.17 1511,-1719.17 1641,-1719.17 1641,-1755.17"/>
<text text-anchor="middle" x="1576" y="-1734.27" font-family="Courier,monospace" font-size="11.00">HttpSourceUtility</text>
</g>
<!-- \\HttpSourceControllerTest -->
<g id="node18" class="node"><title>\\HttpSourceControllerTest</title>
<polygon fill="none" stroke="black" points="1665,-1161.17 1487,-1161.17 1487,-1125.17 1665,-1125.17 1665,-1161.17"/>
<text text-anchor="middle" x="1576" y="-1140.27" font-family="Courier,monospace" font-size="11.00">HttpSourceControllerTest</text>
</g>
<!-- \\ControllerTestCase -->
<g id="node70" class="node"><title>\\ControllerTestCase</title>
<ellipse fill="none" stroke="black" cx="1193" cy="-173.166" rx="106.773" ry="18.3848"/>
<text text-anchor="middle" x="1193" y="-169.566" font-family="Times Roman,serif" font-size="14.00" fill="gray">\ControllerTestCase</text>
</g>
<!-- \\HttpSourceControllerTest&#45;&gt;\\ControllerTestCase -->
<g id="edge29" class="edge"><title>\\HttpSourceControllerTest&#45;&gt;\\ControllerTestCase</title>
<path fill="none" stroke="black" d="M1486.18,-1144.2C1465.72,-1140.03 1445.94,-1131.68 1432,-1116.17 1295.54,-964.279 1498.35,-350.332 1360,-200.166 1346.06,-185.038 1327.25,-176.166 1307.28,-171.261"/>
<polygon fill="none" stroke="black" points="1307.9,-167.816 1297.39,-169.161 1306.45,-174.663 1307.9,-167.816"/>
</g>
<!-- \\HttpSourceFieldTest -->
<g id="node19" class="node"><title>\\HttpSourceFieldTest</title>
<polygon fill="none" stroke="black" points="1648,-1107.17 1504,-1107.17 1504,-1071.17 1648,-1071.17 1648,-1107.17"/>
<text text-anchor="middle" x="1576" y="-1086.27" font-family="Courier,monospace" font-size="11.00">HttpSourceFieldTest</text>
</g>
<!-- \\CakeTestCase -->
<g id="node72" class="node"><title>\\CakeTestCase</title>
<ellipse fill="none" stroke="black" cx="1193" cy="-119.166" rx="82.0244" ry="18.3848"/>
<text text-anchor="middle" x="1193" y="-115.566" font-family="Times Roman,serif" font-size="14.00" fill="gray">\CakeTestCase</text>
</g>
<!-- \\HttpSourceFieldTest&#45;&gt;\\CakeTestCase -->
<g id="edge31" class="edge"><title>\\HttpSourceFieldTest&#45;&gt;\\CakeTestCase</title>
<path fill="none" stroke="black" d="M1503.43,-1092.8C1477.28,-1090.15 1449.85,-1082.03 1432,-1062.17 1295.54,-910.279 1498.35,-296.332 1360,-146.166 1339.53,-123.946 1308.54,-115.224 1278.8,-112.74"/>
<polygon fill="none" stroke="black" points="1278.97,-109.244 1268.78,-112.126 1278.54,-116.231 1278.97,-109.244"/>
</g>
<!-- \\HttpSourceConditionTest -->
<g id="node20" class="node"><title>\\HttpSourceConditionTest</title>
<polygon fill="none" stroke="black" points="1662,-1053.17 1490,-1053.17 1490,-1017.17 1662,-1017.17 1662,-1053.17"/>
<text text-anchor="middle" x="1576" y="-1032.27" font-family="Courier,monospace" font-size="11.00">HttpSourceConditionTest</text>
</g>
<!-- \\HttpSourceConditionTest&#45;&gt;\\CakeTestCase -->
<g id="edge33" class="edge"><title>\\HttpSourceConditionTest&#45;&gt;\\CakeTestCase</title>
<path fill="none" stroke="black" d="M1489.98,-1036.88C1468.21,-1032.97 1446.83,-1024.59 1432,-1008.17 1303.18,-865.491 1490.59,-287.216 1360,-146.166 1339.47,-123.996 1308.48,-115.284 1278.74,-112.794"/>
<polygon fill="none" stroke="black" points="1278.92,-109.298 1268.72,-112.177 1278.49,-116.285 1278.92,-109.298"/>
</g>
<!-- \\HttpSourceResultTest -->
<g id="node21" class="node"><title>\\HttpSourceResultTest</title>
<polygon fill="none" stroke="black" points="1652,-999.166 1500,-999.166 1500,-963.166 1652,-963.166 1652,-999.166"/>
<text text-anchor="middle" x="1576" y="-978.266" font-family="Courier,monospace" font-size="11.00">HttpSourceResultTest</text>
</g>
<!-- \\HttpSourceResultTest&#45;&gt;\\CakeTestCase -->
<g id="edge35" class="edge"><title>\\HttpSourceResultTest&#45;&gt;\\CakeTestCase</title>
<path fill="none" stroke="black" d="M1499.8,-984.286C1474.81,-981.237 1449.1,-972.998 1432,-954.166 1310.83,-820.7 1482.84,-278.103 1360,-146.166 1339.59,-124.246 1308.94,-115.505 1279.45,-112.921"/>
<polygon fill="none" stroke="black" points="1279.29,-109.404 1269.09,-112.253 1278.84,-116.389 1279.29,-109.404"/>
</g>
<!-- \\HttpSourceConfigFactoryItemTest -->
<g id="node22" class="node"><title>\\HttpSourceConfigFactoryItemTest</title>
<polygon fill="none" stroke="black" points="1689,-945.166 1463,-945.166 1463,-909.166 1689,-909.166 1689,-945.166"/>
<text text-anchor="middle" x="1576" y="-924.266" font-family="Courier,monospace" font-size="11.00">HttpSourceConfigFactoryItemTest</text>
</g>
<!-- \\HttpSourceConfigFactoryItemTest&#45;&gt;\\CakeTestCase -->
<g id="edge37" class="edge"><title>\\HttpSourceConfigFactoryItemTest&#45;&gt;\\CakeTestCase</title>
<path fill="none" stroke="black" d="M1463,-921.092C1451.3,-916.306 1440.58,-909.555 1432,-900.166 1318.46,-775.906 1475.08,-268.994 1360,-146.166 1339.52,-124.31 1308.86,-115.582 1279.38,-112.992"/>
<polygon fill="none" stroke="black" points="1279.22,-109.474 1269.01,-112.32 1278.77,-116.46 1279.22,-109.474"/>
</g>
<!-- \\HttpSourceConfigFactoryItemiAmExistsANDValid -->
<g id="node23" class="node"><title>\\HttpSourceConfigFactoryItemiAmExistsANDValid</title>
<polygon fill="none" stroke="black" points="602,-2133.17 288,-2133.17 288,-2097.17 602,-2097.17 602,-2133.17"/>
<text text-anchor="middle" x="445" y="-2112.27" font-family="Courier,monospace" font-size="11.00">HttpSourceConfigFactoryItemiAmExistsANDValid</text>
</g>
<!-- \\HttpSourceConfigFactoryItemiAmExistsANDValid&#45;&gt;\\HttpSourceConfigFactoryItem -->
<g id="edge39" class="edge"><title>\\HttpSourceConfigFactoryItemiAmExistsANDValid&#45;&gt;\\HttpSourceConfigFactoryItem</title>
<path fill="none" stroke="black" d="M329.315,-2097.09C315.337,-2094.37 301.307,-2091.38 288,-2088.17 250.643,-2079.13 209.55,-2066.34 176.899,-2055.47"/>
<polygon fill="none" stroke="black" points="177.645,-2052.03 167.051,-2052.17 175.418,-2058.67 177.645,-2052.03"/>
</g>
<!-- \\HttpSourceConfigFactoryTest -->
<g id="node24" class="node"><title>\\HttpSourceConfigFactoryTest</title>
<polygon fill="none" stroke="black" points="1675,-891.166 1477,-891.166 1477,-855.166 1675,-855.166 1675,-891.166"/>
<text text-anchor="middle" x="1576" y="-870.266" font-family="Courier,monospace" font-size="11.00">HttpSourceConfigFactoryTest</text>
</g>
<!-- \\HttpSourceConfigFactoryTest&#45;&gt;\\CakeTestCase -->
<g id="edge41" class="edge"><title>\\HttpSourceConfigFactoryTest&#45;&gt;\\CakeTestCase</title>
<path fill="none" stroke="black" d="M1476.4,-871.562C1459.59,-866.878 1443.8,-858.986 1432,-846.166 1326.1,-731.107 1467.33,-259.889 1360,-146.166 1339.53,-124.481 1309.03,-115.749 1279.68,-113.108"/>
<polygon fill="none" stroke="black" points="1279.57,-109.593 1269.36,-112.416 1279.1,-116.577 1279.57,-109.593"/>
</g>
<!-- \\HttpSourceConfigFactoryiAmExists -->
<g id="node25" class="node"><title>\\HttpSourceConfigFactoryiAmExists</title>
<polygon fill="none" stroke="black" points="1692,-1377.17 1460,-1377.17 1460,-1341.17 1692,-1341.17 1692,-1377.17"/>
<text text-anchor="middle" x="1576" y="-1356.27" font-family="Courier,monospace" font-size="11.00">HttpSourceConfigFactoryiAmExists</text>
</g>
<!-- \\HttpSourceConfigFactoryiAmExistsANDValid -->
<g id="node26" class="node"><title>\\HttpSourceConfigFactoryiAmExistsANDValid</title>
<polygon fill="none" stroke="black" points="1719,-2079.17 1433,-2079.17 1433,-2043.17 1719,-2043.17 1719,-2079.17"/>
<text text-anchor="middle" x="1576" y="-2058.27" font-family="Courier,monospace" font-size="11.00">HttpSourceConfigFactoryiAmExistsANDValid</text>
</g>
<!-- \\HttpSourceConfigFactoryiAmExistsANDValid&#45;&gt;\\HttpSourceConfigFactory -->
<g id="edge43" class="edge"><title>\\HttpSourceConfigFactoryiAmExistsANDValid&#45;&gt;\\HttpSourceConfigFactory</title>
<path fill="none" stroke="black" d="M1448.2,-2043.15C1396.31,-2035.83 1337.38,-2027.52 1289.23,-2020.73"/>
<polygon fill="none" stroke="black" points="1289.52,-2017.24 1279.13,-2019.31 1288.54,-2024.17 1289.52,-2017.24"/>
</g>
<!-- \\HttpSourceConfigiAmExistsANDValid -->
<g id="node27" class="node"><title>\\HttpSourceConfigiAmExistsANDValid</title>
<polygon fill="none" stroke="black" points="933,-2133.17 695,-2133.17 695,-2097.17 933,-2097.17 933,-2133.17"/>
<text text-anchor="middle" x="814" y="-2112.27" font-family="Courier,monospace" font-size="11.00">HttpSourceConfigiAmExistsANDValid</text>
</g>
<!-- \\HttpSourceConfigiAmExistsANDValid&#45;&gt;\\HttpSourceConfig -->
<g id="edge45" class="edge"><title>\\HttpSourceConfigiAmExistsANDValid&#45;&gt;\\HttpSourceConfig</title>
<path fill="none" stroke="black" d="M694.451,-2097.67C636.257,-2089.15 568.18,-2079.19 517.859,-2071.83"/>
<polygon fill="none" stroke="black" points="518.122,-2068.33 507.721,-2070.34 517.109,-2075.26 518.122,-2068.33"/>
</g>
<!-- \\HttpSourceEndpointiAmExistsANDValid -->
<g id="node28" class="node"><title>\\HttpSourceEndpointiAmExistsANDValid</title>
<polygon fill="none" stroke="black" points="940,-2079.17 688,-2079.17 688,-2043.17 940,-2043.17 940,-2079.17"/>
<text text-anchor="middle" x="814" y="-2058.27" font-family="Courier,monospace" font-size="11.00">HttpSourceEndpointiAmExistsANDValid</text>
</g>
<!-- \\HttpSourceEndpointiAmExistsANDValid&#45;&gt;\\HttpSourceEndpoint -->
<g id="edge47" class="edge"><title>\\HttpSourceEndpointiAmExistsANDValid&#45;&gt;\\HttpSourceEndpoint</title>
<path fill="none" stroke="black" d="M690.872,-2043.15C635.89,-2035.1 572.701,-2025.85 524.151,-2018.75"/>
<polygon fill="none" stroke="black" points="524.422,-2015.25 514.021,-2017.27 523.409,-2022.18 524.422,-2015.25"/>
</g>
<!-- \\HttpSourceConditioniAmExistsANDValid -->
<g id="node29" class="node"><title>\\HttpSourceConditioniAmExistsANDValid</title>
<polygon fill="none" stroke="black" points="1706,-2133.17 1446,-2133.17 1446,-2097.17 1706,-2097.17 1706,-2133.17"/>
<text text-anchor="middle" x="1576" y="-2112.27" font-family="Courier,monospace" font-size="11.00">HttpSourceConditioniAmExistsANDValid</text>
</g>
<!-- \\HttpSourceConditioniAmExistsANDValid&#45;&gt;\\HttpSourceCondition -->
<g id="edge49" class="edge"><title>\\HttpSourceConditioniAmExistsANDValid&#45;&gt;\\HttpSourceCondition</title>
<path fill="none" stroke="black" d="M1448.2,-2097.15C1391.42,-2089.14 1326.21,-2079.95 1275.92,-2072.86"/>
<polygon fill="none" stroke="black" points="1276.13,-2069.35 1265.74,-2071.42 1275.16,-2076.28 1276.13,-2069.35"/>
</g>
<!-- \\HttpSourceFieldiAmExistsANDValid -->
<g id="node30" class="node"><title>\\HttpSourceFieldiAmExistsANDValid</title>
<polygon fill="none" stroke="black" points="1309,-2133.17 1077,-2133.17 1077,-2097.17 1309,-2097.17 1309,-2133.17"/>
<text text-anchor="middle" x="1193" y="-2112.27" font-family="Courier,monospace" font-size="11.00">HttpSourceFieldiAmExistsANDValid</text>
</g>
<!-- \\HttpSourceFieldiAmExistsANDValid&#45;&gt;\\HttpSourceField -->
<g id="edge51" class="edge"><title>\\HttpSourceFieldiAmExistsANDValid&#45;&gt;\\HttpSourceField</title>
<path fill="none" stroke="black" d="M1076.41,-2103.75C1059.12,-2099.95 1041.81,-2094.89 1026,-2088.17 989.187,-2072.52 990.572,-2050.37 954,-2034.17 932.018,-2024.43 906.564,-2018.19 883.436,-2014.2"/>
<polygon fill="none" stroke="black" points="883.77,-2010.71 873.34,-2012.58 882.656,-2017.62 883.77,-2010.71"/>
</g>
<!-- \\HttpSourceResultiAmExistsANDValid -->
<g id="node31" class="node"><title>\\HttpSourceResultiAmExistsANDValid</title>
<polygon fill="none" stroke="black" points="1312,-1971.17 1074,-1971.17 1074,-1935.17 1312,-1935.17 1312,-1971.17"/>
<text text-anchor="middle" x="1193" y="-1950.27" font-family="Courier,monospace" font-size="11.00">HttpSourceResultiAmExistsANDValid</text>
</g>
<!-- \\HttpSourceResultiAmExistsANDValid&#45;&gt;\\HttpSourceResult -->
<g id="edge53" class="edge"><title>\\HttpSourceResultiAmExistsANDValid&#45;&gt;\\HttpSourceResult</title>
<path fill="none" stroke="black" d="M1073.34,-1936.12C1012,-1927.38 939.31,-1917.02 886.517,-1909.5"/>
<polygon fill="none" stroke="black" points="886.959,-1906.03 876.565,-1908.08 885.972,-1912.96 886.959,-1906.03"/>
</g>
<!-- \\HttpSourceConfigTest -->
<g id="node32" class="node"><title>\\HttpSourceConfigTest</title>
<polygon fill="none" stroke="black" points="1652,-729.166 1500,-729.166 1500,-693.166 1652,-693.166 1652,-729.166"/>
<text text-anchor="middle" x="1576" y="-708.266" font-family="Courier,monospace" font-size="11.00">HttpSourceConfigTest</text>
</g>
<!-- \\HttpSourceConfigTest&#45;&gt;\\CakeTestCase -->
<g id="edge55" class="edge"><title>\\HttpSourceConfigTest&#45;&gt;\\CakeTestCase</title>
<path fill="none" stroke="black" d="M1499.88,-713.814C1475.05,-710.69 1449.42,-702.524 1432,-684.166 1265.93,-509.179 1528.24,-319.059 1360,-146.166 1339.39,-124.984 1309.17,-116.283 1280.09,-113.524"/>
<polygon fill="none" stroke="black" points="1280.1,-110.015 1269.87,-112.785 1279.59,-116.997 1280.1,-110.015"/>
</g>
<!-- \\HttpSourceEndpointTest -->
<g id="node33" class="node"><title>\\HttpSourceEndpointTest</title>
<polygon fill="none" stroke="black" points="1658,-675.166 1494,-675.166 1494,-639.166 1658,-639.166 1658,-675.166"/>
<text text-anchor="middle" x="1576" y="-654.266" font-family="Courier,monospace" font-size="11.00">HttpSourceEndpointTest</text>
</g>
<!-- \\HttpSourceEndpointTest&#45;&gt;\\CakeTestCase -->
<g id="edge57" class="edge"><title>\\HttpSourceEndpointTest&#45;&gt;\\CakeTestCase</title>
<path fill="none" stroke="black" d="M1493.29,-658.692C1470.64,-654.979 1447.97,-646.747 1432,-630.166 1281.14,-473.517 1512.81,-300.913 1360,-146.166 1339.33,-125.229 1309.26,-116.544 1280.31,-113.729"/>
<polygon fill="none" stroke="black" points="1280.37,-110.223 1270.14,-112.967 1279.85,-117.204 1280.37,-110.223"/>
</g>
<!-- \\HttpSourceEndpointItemTest -->
<g id="node34" class="node"><title>\\HttpSourceEndpointItemTest</title>
<polygon fill="none" stroke="black" points="1672,-621.166 1480,-621.166 1480,-585.166 1672,-585.166 1672,-621.166"/>
<text text-anchor="middle" x="1576" y="-600.266" font-family="Courier,monospace" font-size="11.00">HttpSourceEndpointItemTest</text>
</g>
<!-- \\HttpSourceEndpointItemTest&#45;&gt;\\CakeTestCase -->
<g id="edge59" class="edge"><title>\\HttpSourceEndpointItemTest&#45;&gt;\\CakeTestCase</title>
<path fill="none" stroke="black" d="M1479.64,-601.636C1461.82,-597.097 1444.82,-589.241 1432,-576.166 1296.32,-437.823 1497.4,-282.798 1360,-146.166 1339.23,-125.511 1309.29,-116.852 1280.49,-113.977"/>
<polygon fill="none" stroke="black" points="1280.6,-110.476 1270.36,-113.191 1280.06,-117.455 1280.6,-110.476"/>
</g>
<!-- \\HttpSourceEndpointItemiAmExistsANDValid -->
<g id="node35" class="node"><title>\\HttpSourceEndpointItemiAmExistsANDValid</title>
<polygon fill="none" stroke="black" points="954,-1971.17 674,-1971.17 674,-1935.17 954,-1935.17 954,-1971.17"/>
<text text-anchor="middle" x="814" y="-1950.27" font-family="Courier,monospace" font-size="11.00">HttpSourceEndpointItemiAmExistsANDValid</text>
</g>
<!-- \\HttpSourceEndpointItemiAmExistsANDValid&#45;&gt;\\HttpSourceEndpointItem -->
<g id="edge61" class="edge"><title>\\HttpSourceEndpointItemiAmExistsANDValid&#45;&gt;\\HttpSourceEndpointItem</title>
<path fill="none" stroke="black" d="M673.971,-1953.17C628.578,-1953.17 579.366,-1953.17 538.241,-1953.17"/>
<polygon fill="none" stroke="black" points="538.239,-1949.67 528.239,-1953.17 538.239,-1956.67 538.239,-1949.67"/>
</g>
<!-- \\HttpSourceUtilityTest -->
<g id="node36" class="node"><title>\\HttpSourceUtilityTest</title>
<polygon fill="none" stroke="black" points="1655,-567.166 1497,-567.166 1497,-531.166 1655,-531.166 1655,-567.166"/>
<text text-anchor="middle" x="1576" y="-546.266" font-family="Courier,monospace" font-size="11.00">HttpSourceUtilityTest</text>
</g>
<!-- \\HttpSourceUtilityTest&#45;&gt;\\CakeTestCase -->
<g id="edge63" class="edge"><title>\\HttpSourceUtilityTest&#45;&gt;\\CakeTestCase</title>
<path fill="none" stroke="black" d="M1496.71,-550.741C1473.11,-547.249 1449.03,-539.13 1432,-522.166 1311.46,-402.086 1482.04,-264.727 1360,-146.166 1339.18,-125.937 1309.54,-117.304 1280.99,-114.329"/>
<polygon fill="none" stroke="black" points="1281.21,-110.835 1270.96,-113.502 1280.64,-117.811 1281.21,-110.835"/>
</g>
<!-- \\AllHttpSourceTest -->
<g id="node37" class="node"><title>\\AllHttpSourceTest</title>
<polygon fill="none" stroke="black" points="1641,-459.166 1511,-459.166 1511,-423.166 1641,-423.166 1641,-459.166"/>
<text text-anchor="middle" x="1576" y="-438.266" font-family="Courier,monospace" font-size="11.00">AllHttpSourceTest</text>
</g>
<!-- \\PHPUnit_Framework_TestSuite -->
<g id="node90" class="node"><title>\\PHPUnit_Framework_TestSuite</title>
<ellipse fill="none" stroke="black" cx="1193" cy="-65.166" rx="166.877" ry="18.3848"/>
<text text-anchor="middle" x="1193" y="-61.566" font-family="Times Roman,serif" font-size="14.00" fill="gray">\PHPUnit_Framework_TestSuite</text>
</g>
<!-- \\AllHttpSourceTest&#45;&gt;\\PHPUnit_Framework_TestSuite -->
<g id="edge65" class="edge"><title>\\AllHttpSourceTest&#45;&gt;\\PHPUnit_Framework_TestSuite</title>
<path fill="none" stroke="black" d="M1510.39,-443.966C1482.88,-441.668 1452.58,-434.046 1432,-414.166 1326.53,-312.283 1466.74,-192.719 1360,-92.166 1354.9,-87.3627 1349.3,-83.22 1343.34,-79.6566"/>
<polygon fill="none" stroke="black" points="1344.83,-76.4843 1334.37,-74.8408 1341.52,-82.6527 1344.83,-76.4843"/>
</g>
<!-- \\HttpSourceTest -->
<g id="node38" class="node"><title>\\HttpSourceTest</title>
<polygon fill="none" stroke="black" points="1631,-513.166 1521,-513.166 1521,-477.166 1631,-477.166 1631,-513.166"/>
<text text-anchor="middle" x="1576" y="-492.266" font-family="Courier,monospace" font-size="11.00">HttpSourceTest</text>
</g>
<!-- \\HttpSourceTest&#45;&gt;\\CakeTestCase -->
<g id="edge67" class="edge"><title>\\HttpSourceTest&#45;&gt;\\CakeTestCase</title>
<path fill="none" stroke="black" d="M1520.15,-498.575C1490.3,-497.321 1455.05,-490.432 1432,-468.166 1326.53,-366.283 1466.74,-246.719 1360,-146.166 1339.15,-126.526 1309.95,-117.932 1281.79,-114.817"/>
<polygon fill="none" stroke="black" points="1281.75,-111.3 1271.48,-113.908 1281.13,-118.273 1281.75,-111.3"/>
</g>
<!-- \\HttpTestSource -->
<g id="node39" class="node"><title>\\HttpTestSource</title>
<polygon fill="none" stroke="black" points="1631,-1971.17 1521,-1971.17 1521,-1935.17 1631,-1935.17 1631,-1971.17"/>
<text text-anchor="middle" x="1576" y="-1950.27" font-family="Courier,monospace" font-size="11.00">HttpTestSource</text>
</g>
<!-- \\HttpTestSource&#45;&gt;\\HttpSource -->
<g id="edge69" class="edge"><title>\\HttpTestSource&#45;&gt;\\HttpSource</title>
<path fill="none" stroke="black" d="M1520.22,-1948.72C1492.77,-1945.05 1459.71,-1938.35 1432,-1926.17 1395.39,-1910.06 1396.81,-1887.81 1360,-1872.17 1323.75,-1856.76 1279.64,-1850.08 1245.86,-1847.22"/>
<polygon fill="none" stroke="black" points="1245.97,-1843.72 1235.73,-1846.45 1245.44,-1850.7 1245.97,-1843.72"/>
</g>
<!-- \\HttpSourceConnectionTest -->
<g id="node40" class="node"><title>\\HttpSourceConnectionTest</title>
<polygon fill="none" stroke="black" points="1665,-837.166 1487,-837.166 1487,-801.166 1665,-801.166 1665,-837.166"/>
<text text-anchor="middle" x="1576" y="-816.266" font-family="Courier,monospace" font-size="11.00">HttpSourceConnectionTest</text>
</g>
<!-- \\HttpSourceConnectionTest&#45;&gt;\\CakeTestCase -->
<g id="edge71" class="edge"><title>\\HttpSourceConnectionTest&#45;&gt;\\CakeTestCase</title>
<path fill="none" stroke="black" d="M1486.15,-819.811C1465.82,-815.615 1446.1,-807.359 1432,-792.166 1235.46,-580.44 1559.18,-355.413 1360,-146.166 1339.44,-124.568 1308.92,-115.854 1279.58,-113.203"/>
<polygon fill="none" stroke="black" points="1279.48,-109.688 1269.26,-112.506 1279.01,-116.672 1279.48,-109.688"/>
</g>
<!-- \\HttpSourceBasicsTest -->
<g id="node41" class="node"><title>\\HttpSourceBasicsTest</title>
<polygon fill="none" stroke="black" points="1652,-1809.17 1500,-1809.17 1500,-1773.17 1652,-1773.17 1652,-1809.17"/>
<text text-anchor="middle" x="1576" y="-1788.27" font-family="Courier,monospace" font-size="11.00">HttpSourceBasicsTest</text>
</g>
<!-- \\HttpSourceAppTest -->
<g id="node47" class="node"><title>\\HttpSourceAppTest</title>
<polygon fill="none" stroke="black" points="1259,-1809.17 1127,-1809.17 1127,-1773.17 1259,-1773.17 1259,-1809.17"/>
<text text-anchor="start" x="1159" y="-1796.6" font-family="Courier,monospace" font-size="11.00">«abstract»</text>
<text text-anchor="start" x="1135.5" y="-1783.4" font-family="Courier,monospace" font-size="11.00">HttpSourceAppTest</text>
</g>
<!-- \\HttpSourceBasicsTest&#45;&gt;\\HttpSourceAppTest -->
<g id="edge73" class="edge"><title>\\HttpSourceBasicsTest&#45;&gt;\\HttpSourceAppTest</title>
<path fill="none" stroke="black" d="M1499.87,-1791.17C1432.95,-1791.17 1336.07,-1791.17 1269.14,-1791.17"/>
<polygon fill="none" stroke="black" points="1269.08,-1787.67 1259.08,-1791.17 1269.08,-1794.67 1269.08,-1787.67"/>
</g>
<!-- \\HttpSourceModelTest -->
<g id="node42" class="node"><title>\\HttpSourceModelTest</title>
<polygon fill="none" stroke="black" points="1648,-783.166 1504,-783.166 1504,-747.166 1648,-747.166 1648,-783.166"/>
<text text-anchor="middle" x="1576" y="-762.266" font-family="Courier,monospace" font-size="11.00">HttpSourceModelTest</text>
</g>
<!-- \\HttpSourceModelTest&#45;&gt;\\CakeTestCase -->
<g id="edge75" class="edge"><title>\\HttpSourceModelTest&#45;&gt;\\CakeTestCase</title>
<path fill="none" stroke="black" d="M1503.5,-768.362C1477.51,-765.615 1450.18,-757.556 1432,-738.166 1250.7,-544.818 1543.7,-337.227 1360,-146.166 1339.42,-124.766 1309.06,-116.056 1279.85,-113.351"/>
<polygon fill="none" stroke="black" points="1279.8,-109.839 1269.58,-112.634 1279.31,-116.822 1279.8,-109.839"/>
</g>
<!-- \\HttpSourceTestModel -->
<g id="node43" class="node"><title>\\HttpSourceTestModel</title>
<polygon fill="none" stroke="black" points="1648,-1701.17 1504,-1701.17 1504,-1665.17 1648,-1665.17 1648,-1701.17"/>
<text text-anchor="middle" x="1576" y="-1680.27" font-family="Courier,monospace" font-size="11.00">HttpSourceTestModel</text>
</g>
<!-- \\HttpSourceTestModel&#45;&gt;\\HttpSourceModel -->
<g id="edge77" class="edge"><title>\\HttpSourceTestModel&#45;&gt;\\HttpSourceModel</title>
<path fill="none" stroke="black" d="M1503.38,-1670.09C1480.5,-1665.83 1455.17,-1660.95 1432,-1656.17 1374.63,-1644.31 1309.83,-1629.59 1262.19,-1618.51"/>
<polygon fill="none" stroke="black" points="1262.82,-1615.06 1252.29,-1616.2 1261.24,-1621.88 1262.82,-1615.06"/>
</g>
<!-- \\HttpSourceToDboAssociationTest -->
<g id="node44" class="node"><title>\\HttpSourceToDboAssociationTest</title>
<polygon fill="none" stroke="black" points="1685,-1863.17 1467,-1863.17 1467,-1827.17 1685,-1827.17 1685,-1863.17"/>
<text text-anchor="middle" x="1576" y="-1842.27" font-family="Courier,monospace" font-size="11.00">HttpSourceToDboAssociationTest</text>
</g>
<!-- \\HttpSourceToDboAssociationTest&#45;&gt;\\HttpSourceAppTest -->
<g id="edge79" class="edge"><title>\\HttpSourceToDboAssociationTest&#45;&gt;\\HttpSourceAppTest</title>
<path fill="none" stroke="black" d="M1466.25,-1829.69C1403.17,-1820.8 1325.52,-1809.85 1269.14,-1801.9"/>
<polygon fill="none" stroke="black" points="1269.61,-1798.43 1259.22,-1800.5 1268.64,-1805.36 1269.61,-1798.43"/>
</g>
<!-- \\HttpSourceDocument -->
<g id="node45" class="node"><title>\\HttpSourceDocument</title>
<polygon fill="none" stroke="black" points="1645,-1593.17 1507,-1593.17 1507,-1557.17 1645,-1557.17 1645,-1593.17"/>
<text text-anchor="middle" x="1576" y="-1572.27" font-family="Courier,monospace" font-size="11.00">HttpSourceDocument</text>
</g>
<!-- \\HttpSourceDocument&#45;&gt;\\HttpSourceModel -->
<g id="edge81" class="edge"><title>\\HttpSourceDocument&#45;&gt;\\HttpSourceModel</title>
<path fill="none" stroke="black" d="M1506.64,-1580.06C1437.44,-1584.93 1331.72,-1592.39 1262.48,-1597.27"/>
<polygon fill="none" stroke="black" points="1261.84,-1593.8 1252.11,-1598 1262.33,-1600.79 1261.84,-1593.8"/>
</g>
<!-- \\HttpSourceUser -->
<g id="node46" class="node"><title>\\HttpSourceUser</title>
<polygon fill="none" stroke="black" points="1631,-405.166 1521,-405.166 1521,-369.166 1631,-369.166 1631,-405.166"/>
<text text-anchor="middle" x="1576" y="-384.266" font-family="Courier,monospace" font-size="11.00">HttpSourceUser</text>
</g>
<!-- \\AppModel -->
<g id="node100" class="node"><title>\\AppModel</title>
<ellipse fill="none" stroke="black" cx="814" cy="-123.166" rx="62.2254" ry="18.3848"/>
<text text-anchor="middle" x="814" y="-119.566" font-family="Times Roman,serif" font-size="14.00" fill="gray">\AppModel</text>
</g>
<!-- \\HttpSourceUser&#45;&gt;\\AppModel -->
<g id="edge83" class="edge"><title>\\HttpSourceUser&#45;&gt;\\AppModel</title>
<path fill="none" stroke="black" d="M1571.45,-368.915C1555.22,-308.212 1493.83,-112.727 1360,-38.166 1189.04,57.0781 943.845,-53.4415 851.278,-102.276"/>
<polygon fill="none" stroke="black" points="849.461,-99.2784 842.29,-107.078 852.759,-105.452 849.461,-99.2784"/>
</g>
<!-- \\HttpSourceAppTest&#45;&gt;\\CakeTestCase -->
<g id="edge85" class="edge"><title>\\HttpSourceAppTest&#45;&gt;\\CakeTestCase</title>
<path fill="none" stroke="black" d="M1230.06,-1773.05C1278.67,-1746.95 1361.8,-1693.7 1396,-1620.17 1430.33,-1546.37 1446.09,-219.317 1396,-155.166 1368,-119.308 1317.77,-110.182 1274.28,-110.083"/>
<polygon fill="none" stroke="black" points="1274.2,-106.584 1264.25,-110.216 1274.3,-113.583 1274.2,-106.584"/>
</g>
<!-- \\HttpSourceUsersDocumentFixture -->
<g id="node48" class="node"><title>\\HttpSourceUsersDocumentFixture</title>
<polygon fill="none" stroke="black" points="1685,-1485.17 1467,-1485.17 1467,-1449.17 1685,-1449.17 1685,-1485.17"/>
<text text-anchor="middle" x="1576" y="-1464.27" font-family="Courier,monospace" font-size="11.00">HttpSourceUsersDocumentFixture</text>
</g>
<!-- \\HttpSourceUsersDocumentFixture&#45;&gt;\\CakeTestFixture -->
<g id="edge87" class="edge"><title>\\HttpSourceUsersDocumentFixture&#45;&gt;\\CakeTestFixture</title>
<path fill="none" stroke="black" d="M1466.26,-1462.72C1453.23,-1457.84 1441.29,-1450.63 1432,-1440.17 1271.89,-1259.78 1524.96,-533.137 1360,-357.166 1340.05,-335.886 1310.3,-327.848 1281.41,-325.965"/>
<polygon fill="none" stroke="black" points="1281.38,-322.46 1271.24,-325.543 1281.09,-329.454 1281.38,-322.46"/>
</g>
<!-- \\HttpSourceUserFixture -->
<g id="node49" class="node"><title>\\HttpSourceUserFixture</title>
<polygon fill="none" stroke="black" points="1655,-1539.17 1497,-1539.17 1497,-1503.17 1655,-1503.17 1655,-1539.17"/>
<text text-anchor="middle" x="1576" y="-1518.27" font-family="Courier,monospace" font-size="11.00">HttpSourceUserFixture</text>
</g>
<!-- \\HttpSourceUserFixture&#45;&gt;\\CakeTestFixture -->
<g id="edge89" class="edge"><title>\\HttpSourceUserFixture&#45;&gt;\\CakeTestFixture</title>
<path fill="none" stroke="black" d="M1496.9,-1524.19C1472.73,-1520.91 1448.26,-1512.55 1432,-1494.17 1264.24,-1304.56 1532.86,-542.146 1360,-357.166 1340.09,-335.855 1310.34,-327.81 1281.44,-325.93"/>
<polygon fill="none" stroke="black" points="1281.41,-322.425 1271.28,-325.51 1281.12,-329.419 1281.41,-322.425"/>
</g>
<!-- \\Object -->
<g id="node105" class="node"><title>\\Object</title>
<ellipse fill="none" stroke="black" cx="814" cy="-335.166" rx="45.9619" ry="18.3848"/>
<text text-anchor="middle" x="814" y="-331.566" font-family="Times Roman,serif" font-size="14.00" fill="gray">\Object</text>
</g>
<!-- \\HttpSourceConnection&#45;&gt;\\Object -->
<g id="edge91" class="edge"><title>\\HttpSourceConnection&#45;&gt;\\Object</title>
<path fill="none" stroke="black" d="M1116.87,-1906.53C1084.17,-1905.29 1048.4,-1897.25 1026,-1872.17 913.743,-1746.47 1066.53,-482.609 954,-357.166 932.837,-333.575 897.525,-328.155 867.662,-328.592"/>
<polygon fill="none" stroke="black" points="867.223,-325.106 857.358,-328.971 867.48,-332.101 867.223,-325.106"/>
</g>
<!-- \\DataSource -->
<g id="node107" class="node"><title>\\DataSource</title>
<ellipse fill="none" stroke="black" cx="814" cy="-281.166" rx="72.1249" ry="18.3848"/>
<text text-anchor="middle" x="814" y="-277.566" font-family="Times Roman,serif" font-size="14.00" fill="gray">\DataSource</text>
</g>
<!-- \\HttpSource&#45;&gt;\\DataSource -->
<g id="edge93" class="edge"><title>\\HttpSource&#45;&gt;\\DataSource</title>
<path fill="none" stroke="black" d="M1150.43,-1851.67C1111.86,-1854.89 1056.52,-1852.34 1026,-1818.17 914.103,-1692.9 1063.99,-435.112 954,-308.166 939.241,-291.131 917.269,-282.799 895.083,-279.133"/>
<polygon fill="none" stroke="black" points="895.277,-275.628 884.9,-277.763 894.344,-282.565 895.277,-275.628"/>
</g>
<!-- \\HttpSourceModel&#45;&gt;\\AppModel -->
<g id="edge95" class="edge"><title>\\HttpSourceModel&#45;&gt;\\AppModel</title>
<path fill="none" stroke="black" d="M1133.91,-1611.5C1097.47,-1613.63 1052.73,-1609.02 1026,-1580.17 925.745,-1471.91 1016.37,-387.887 954,-254.166 931.784,-206.535 883.717,-167.827 850.137,-145.153"/>
<polygon fill="none" stroke="black" points="851.786,-142.047 841.511,-139.463 847.932,-147.891 851.786,-142.047"/>
</g>
</g>
</svg>
