<?xml version="1.0" encoding="UTF-8" standalone="no"?>
<!DOCTYPE svg PUBLIC "-//W3C//DTD SVG 1.1//EN"
 "http://www.w3.org/Graphics/SVG/1.1/DTD/svg11.dtd">
<!-- Generated by graphviz version 2.26.3 (20100126.1600)
 -->
<!-- Title: G Pages: 1 -->
<svg width="1744pt" height="2170pt"
 viewBox="0.00 0.00 1744.00 2170.00" xmlns="http://www.w3.org/2000/svg" xmlns:xlink="http://www.w3.org/1999/xlink">
<g id="graph1" class="graph" transform="scale(1 1) rotate(0) translate(4 2166)">
<title>G</title>
<polygon fill="white" stroke="white" points="-4,5 -4,-2166 1741,-2166 1741,5 -4,5"/>
<g id="graph2" class="cluster"><title>cluster_Global</title>
<polyline fill="none" stroke="gray" points="20,-352 1716,-352 "/>
<path fill="none" stroke="gray" d="M1716,-352C1722,-352 1728,-358 1728,-364"/>
<polyline fill="none" stroke="gray" points="1728,-364 1728,-2142 "/>
<path fill="none" stroke="gray" d="M1728,-2142C1728,-2148 1722,-2154 1716,-2154"/>
<polyline fill="none" stroke="gray" points="1716,-2154 20,-2154 "/>
<path fill="none" stroke="gray" d="M20,-2154C14,-2154 8,-2148 8,-2142"/>
<polyline fill="none" stroke="gray" points="8,-2142 8,-364 "/>
<path fill="none" stroke="gray" d="M8,-364C8,-358 14,-352 20,-352"/>
<text text-anchor="middle" x="868" y="-2140.1" font-family="Times Roman,serif" font-size="11.00" fill="gray">Global</text>
</g>
<!-- \\HttpSourceUtility -->
<g id="node2" class="node"><title>\\HttpSourceUtility</title>
<polygon fill="none" stroke="black" points="1641,-2124 1511,-2124 1511,-2088 1641,-2088 1641,-2124"/>
<text text-anchor="middle" x="1576" y="-2103.1" font-family="Courier,monospace" font-size="11.00">HttpSourceUtility</text>
</g>
<!-- \\HttpSourceTestFixture -->
<g id="node3" class="node"><title>\\HttpSourceTestFixture</title>
<polygon fill="none" stroke="black" points="1655,-1476 1497,-1476 1497,-1440 1655,-1440 1655,-1476"/>
<text text-anchor="middle" x="1576" y="-1455.1" font-family="Courier,monospace" font-size="11.00">HttpSourceTestFixture</text>
</g>
<!-- \\CakeTestFixture -->
<g id="node54" class="node"><title>\\CakeTestFixture</title>
<ellipse fill="none" stroke="black" cx="1193" cy="-326" rx="92.1303" ry="18.3848"/>
<text text-anchor="middle" x="1193" y="-322.4" font-family="Times Roman,serif" font-size="14.00" fill="gray">\CakeTestFixture</text>
</g>
<!-- \\HttpSourceTestFixture&#45;&gt;\\CakeTestFixture -->
<g id="edge3" class="edge"><title>\\HttpSourceTestFixture&#45;&gt;\\CakeTestFixture</title>
<path fill="none" stroke="black" d="M1496.93,-1461C1472.77,-1457.71 1448.29,-1449.36 1432,-1431 1271.89,-1250.61 1524.96,-523.971 1360,-348 1340.05,-326.72 1310.3,-318.682 1281.41,-316.799"/>
<polygon fill="none" stroke="black" points="1281.38,-313.294 1271.24,-316.377 1281.09,-320.288 1281.38,-313.294"/>
</g>
<!-- \\HttpSourceAppTest -->
<g id="node4" class="node"><title>\\HttpSourceAppTest</title>
<polygon fill="none" stroke="black" points="1259,-2016 1127,-2016 1127,-1980 1259,-1980 1259,-2016"/>
<text text-anchor="start" x="1159" y="-2003.43" font-family="Courier,monospace" font-size="11.00">«abstract»</text>
<text text-anchor="start" x="1135.5" y="-1990.23" font-family="Courier,monospace" font-size="11.00">HttpSourceAppTest</text>
</g>
<!-- \\CakeTestCase -->
<g id="node56" class="node"><title>\\CakeTestCase</title>
<ellipse fill="none" stroke="black" cx="1193" cy="-234" rx="82.0244" ry="18.3848"/>
<text text-anchor="middle" x="1193" y="-230.4" font-family="Times Roman,serif" font-size="14.00" fill="gray">\CakeTestCase</text>
</g>
<!-- \\HttpSourceAppTest&#45;&gt;\\CakeTestCase -->
<g id="edge5" class="edge"><title>\\HttpSourceAppTest&#45;&gt;\\CakeTestCase</title>
<path fill="none" stroke="black" d="M1259.31,-2006.77C1305.68,-2008.76 1364.72,-2002.06 1396,-1962 1424.27,-1925.79 1422.34,-345.642 1396,-308 1369.61,-270.293 1321.89,-251.732 1279.34,-242.626"/>
<polygon fill="none" stroke="black" points="1280,-239.188 1269.51,-240.665 1278.63,-246.052 1280,-239.188"/>
</g>
<!-- \\HttpSourceDocument -->
<g id="node5" class="node"><title>\\HttpSourceDocument</title>
<polygon fill="none" stroke="black" points="1645,-1584 1507,-1584 1507,-1548 1645,-1548 1645,-1584"/>
<text text-anchor="middle" x="1576" y="-1563.1" font-family="Courier,monospace" font-size="11.00">HttpSourceDocument</text>
</g>
<!-- \\HttpSourceModel -->
<g id="node36" class="node"><title>\\HttpSourceModel</title>
<polygon fill="none" stroke="black" points="1252,-1611 1134,-1611 1134,-1575 1252,-1575 1252,-1611"/>
<text text-anchor="middle" x="1193" y="-1590.1" font-family="Courier,monospace" font-size="11.00">HttpSourceModel</text>
</g>
<!-- \\HttpSourceDocument&#45;&gt;\\HttpSourceModel -->
<g id="edge7" class="edge"><title>\\HttpSourceDocument&#45;&gt;\\HttpSourceModel</title>
<path fill="none" stroke="black" d="M1506.64,-1570.89C1437.44,-1575.77 1331.72,-1583.22 1262.48,-1588.1"/>
<polygon fill="none" stroke="black" points="1261.84,-1584.64 1252.11,-1588.83 1262.33,-1591.62 1261.84,-1584.64"/>
</g>
<!-- \\HttpSourceUser -->
<g id="node6" class="node"><title>\\HttpSourceUser</title>
<polygon fill="none" stroke="black" points="1631,-1368 1521,-1368 1521,-1332 1631,-1332 1631,-1368"/>
<text text-anchor="middle" x="1576" y="-1347.1" font-family="Courier,monospace" font-size="11.00">HttpSourceUser</text>
</g>
<!-- \\AppModel -->
<g id="node59" class="node"><title>\\AppModel</title>
<ellipse fill="none" stroke="black" cx="814" cy="-218" rx="62.2254" ry="18.3848"/>
<text text-anchor="middle" x="814" y="-214.4" font-family="Times Roman,serif" font-size="14.00" fill="gray">\AppModel</text>
</g>
<!-- \\HttpSourceUser&#45;&gt;\\AppModel -->
<g id="edge9" class="edge"><title>\\HttpSourceUser&#45;&gt;\\AppModel</title>
<path fill="none" stroke="black" d="M1520.24,-1354.73C1489.66,-1354.06 1453.66,-1347.31 1432,-1323 1280.25,-1152.68 1517.79,-463.741 1360,-299 1308.33,-245.053 1099.67,-273.342 1026,-261 993.67,-255.584 986.097,-251.66 954,-245 928.657,-239.741 900.66,-234.274 876.406,-229.646"/>
<polygon fill="none" stroke="black" points="876.737,-226.146 866.259,-227.717 875.429,-233.023 876.737,-226.146"/>
</g>
<!-- \\HttpSourceUserFixture -->
<g id="node7" class="node"><title>\\HttpSourceUserFixture</title>
<polygon fill="none" stroke="black" points="1655,-1422 1497,-1422 1497,-1386 1655,-1386 1655,-1422"/>
<text text-anchor="middle" x="1576" y="-1401.1" font-family="Courier,monospace" font-size="11.00">HttpSourceUserFixture</text>
</g>
<!-- \\HttpSourceUserFixture&#45;&gt;\\CakeTestFixture -->
<g id="edge11" class="edge"><title>\\HttpSourceUserFixture&#45;&gt;\\CakeTestFixture</title>
<path fill="none" stroke="black" d="M1496.97,-1406.96C1472.8,-1403.68 1448.33,-1395.33 1432,-1377 1279.54,-1205.83 1517.06,-514.964 1360,-348 1340.1,-326.85 1310.52,-318.797 1281.75,-316.863"/>
<polygon fill="none" stroke="black" points="1281.77,-313.361 1271.63,-316.423 1281.47,-320.354 1281.77,-313.361"/>
</g>
<!-- \\HttpSourceUsersDocumentFixture -->
<g id="node8" class="node"><title>\\HttpSourceUsersDocumentFixture</title>
<polygon fill="none" stroke="black" points="1685,-1530 1467,-1530 1467,-1494 1685,-1494 1685,-1530"/>
<text text-anchor="middle" x="1576" y="-1509.1" font-family="Courier,monospace" font-size="11.00">HttpSourceUsersDocumentFixture</text>
</g>
<!-- \\HttpSourceUsersDocumentFixture&#45;&gt;\\CakeTestFixture -->
<g id="edge13" class="edge"><title>\\HttpSourceUsersDocumentFixture&#45;&gt;\\CakeTestFixture</title>
<path fill="none" stroke="black" d="M1466.23,-1507.58C1453.2,-1502.7 1441.27,-1495.48 1432,-1485 1264.24,-1295.39 1532.86,-532.98 1360,-348 1340.09,-326.689 1310.34,-318.644 1281.44,-316.764"/>
<polygon fill="none" stroke="black" points="1281.41,-313.259 1271.28,-316.344 1281.12,-320.253 1281.41,-313.259"/>
</g>
<!-- \\HttpSourceUtilityTest -->
<g id="node9" class="node"><title>\\HttpSourceUtilityTest</title>
<polygon fill="none" stroke="black" points="1655,-1098 1497,-1098 1497,-1062 1655,-1062 1655,-1098"/>
<text text-anchor="middle" x="1576" y="-1077.1" font-family="Courier,monospace" font-size="11.00">HttpSourceUtilityTest</text>
</g>
<!-- \\HttpSourceUtilityTest&#45;&gt;\\CakeTestCase -->
<g id="edge15" class="edge"><title>\\HttpSourceUtilityTest&#45;&gt;\\CakeTestCase</title>
<path fill="none" stroke="black" d="M1496.82,-1082.71C1472.79,-1079.37 1448.43,-1071.06 1432,-1053 1313.8,-923.114 1477.94,-396.12 1360,-266 1340.58,-244.576 1311.57,-234.861 1283.16,-231.033"/>
<polygon fill="none" stroke="black" points="1283.47,-227.546 1273.15,-229.914 1282.7,-234.503 1283.47,-227.546"/>
</g>
<!-- \\HttpSourceModelTest -->
<g id="node10" class="node"><title>\\HttpSourceModelTest</title>
<polygon fill="none" stroke="black" points="1648,-1044 1504,-1044 1504,-1008 1648,-1008 1648,-1044"/>
<text text-anchor="middle" x="1576" y="-1023.1" font-family="Courier,monospace" font-size="11.00">HttpSourceModelTest</text>
</g>
<!-- \\HttpSourceModelTest&#45;&gt;\\CakeTestCase -->
<g id="edge17" class="edge"><title>\\HttpSourceModelTest&#45;&gt;\\CakeTestCase</title>
<path fill="none" stroke="black" d="M1503.26,-1029.42C1477.25,-1026.7 1449.96,-1018.6 1432,-999 1321.43,-878.318 1470.33,-386.901 1360,-266 1340.51,-244.641 1311.48,-234.942 1283.08,-231.107"/>
<polygon fill="none" stroke="black" points="1283.4,-227.621 1273.07,-229.986 1282.62,-234.578 1283.4,-227.621"/>
</g>
<!-- \\HttpSourceTestModel -->
<g id="node11" class="node"><title>\\HttpSourceTestModel</title>
<polygon fill="none" stroke="black" points="1648,-1692 1504,-1692 1504,-1656 1648,-1656 1648,-1692"/>
<text text-anchor="middle" x="1576" y="-1671.1" font-family="Courier,monospace" font-size="11.00">HttpSourceTestModel</text>
</g>
<!-- \\HttpSourceTestModel&#45;&gt;\\HttpSourceModel -->
<g id="edge19" class="edge"><title>\\HttpSourceTestModel&#45;&gt;\\HttpSourceModel</title>
<path fill="none" stroke="black" d="M1503.38,-1660.92C1480.5,-1656.66 1455.17,-1651.79 1432,-1647 1374.63,-1635.15 1309.83,-1620.42 1262.19,-1609.34"/>
<polygon fill="none" stroke="black" points="1262.82,-1605.9 1252.29,-1607.04 1261.24,-1612.71 1262.82,-1605.9"/>
</g>
<!-- \\HttpSourceBasicsTest -->
<g id="node12" class="node"><title>\\HttpSourceBasicsTest</title>
<polygon fill="none" stroke="black" points="1652,-2016 1500,-2016 1500,-1980 1652,-1980 1652,-2016"/>
<text text-anchor="middle" x="1576" y="-1995.1" font-family="Courier,monospace" font-size="11.00">HttpSourceBasicsTest</text>
</g>
<!-- \\HttpSourceBasicsTest&#45;&gt;\\HttpSourceAppTest -->
<g id="edge21" class="edge"><title>\\HttpSourceBasicsTest&#45;&gt;\\HttpSourceAppTest</title>
<path fill="none" stroke="black" d="M1499.87,-1998C1432.95,-1998 1336.07,-1998 1269.14,-1998"/>
<polygon fill="none" stroke="black" points="1269.08,-1994.5 1259.08,-1998 1269.08,-2001.5 1269.08,-1994.5"/>
</g>
<!-- \\HttpSourceToDboAssociationTest -->
<g id="node13" class="node"><title>\\HttpSourceToDboAssociationTest</title>
<polygon fill="none" stroke="black" points="1685,-2070 1467,-2070 1467,-2034 1685,-2034 1685,-2070"/>
<text text-anchor="middle" x="1576" y="-2049.1" font-family="Courier,monospace" font-size="11.00">HttpSourceToDboAssociationTest</text>
</g>
<!-- \\HttpSourceToDboAssociationTest&#45;&gt;\\HttpSourceAppTest -->
<g id="edge23" class="edge"><title>\\HttpSourceToDboAssociationTest&#45;&gt;\\HttpSourceAppTest</title>
<path fill="none" stroke="black" d="M1466.25,-2036.53C1403.17,-2027.63 1325.52,-2016.68 1269.14,-2008.74"/>
<polygon fill="none" stroke="black" points="1269.61,-2005.27 1259.22,-2007.34 1268.64,-2012.2 1269.61,-2005.27"/>
</g>
<!-- \\HttpSourceConnectionTest -->
<g id="node14" class="node"><title>\\HttpSourceConnectionTest</title>
<polygon fill="none" stroke="black" points="1665,-936 1487,-936 1487,-900 1665,-900 1665,-936"/>
<text text-anchor="middle" x="1576" y="-915.1" font-family="Courier,monospace" font-size="11.00">HttpSourceConnectionTest</text>
</g>
<!-- \\HttpSourceConnectionTest&#45;&gt;\\CakeTestCase -->
<g id="edge25" class="edge"><title>\\HttpSourceConnectionTest&#45;&gt;\\CakeTestCase</title>
<path fill="none" stroke="black" d="M1486.19,-918.608C1465.86,-914.413 1446.13,-906.167 1432,-891 1241.39,-686.422 1550.2,-470.956 1360,-266 1340.42,-244.902 1311.53,-235.233 1283.26,-231.348"/>
<polygon fill="none" stroke="black" points="1283.64,-227.868 1273.3,-230.206 1282.84,-234.823 1283.64,-227.868"/>
</g>
<!-- \\HttpSourceTest -->
<g id="node15" class="node"><title>\\HttpSourceTest</title>
<polygon fill="none" stroke="black" points="1631,-882 1521,-882 1521,-846 1631,-846 1631,-882"/>
<text text-anchor="middle" x="1576" y="-861.1" font-family="Courier,monospace" font-size="11.00">HttpSourceTest</text>
</g>
<!-- \\HttpSourceTest&#45;&gt;\\CakeTestCase -->
<g id="edge27" class="edge"><title>\\HttpSourceTest&#45;&gt;\\CakeTestCase</title>
<path fill="none" stroke="black" d="M1520.38,-868.266C1490.04,-867.398 1454.23,-860.608 1432,-837 1256.63,-650.795 1535,-452.553 1360,-266 1340.48,-245.195 1311.91,-235.537 1283.89,-231.575"/>
<polygon fill="none" stroke="black" points="1283.95,-228.058 1273.61,-230.363 1283.13,-235.01 1283.95,-228.058"/>
</g>
<!-- \\HttpTestSource -->
<g id="node16" class="node"><title>\\HttpTestSource</title>
<polygon fill="none" stroke="black" points="1631,-1908 1521,-1908 1521,-1872 1631,-1872 1631,-1908"/>
<text text-anchor="middle" x="1576" y="-1887.1" font-family="Courier,monospace" font-size="11.00">HttpTestSource</text>
</g>
<!-- \\HttpSource -->
<g id="node37" class="node"><title>\\HttpSource</title>
<polygon fill="none" stroke="black" points="1235,-1854 1151,-1854 1151,-1818 1235,-1818 1235,-1854"/>
<text text-anchor="start" x="1159" y="-1841.43" font-family="Courier,monospace" font-size="11.00">«abstract»</text>
<text text-anchor="start" x="1159" y="-1828.23" font-family="Courier,monospace" font-size="11.00">HttpSource</text>
</g>
<!-- \\HttpTestSource&#45;&gt;\\HttpSource -->
<g id="edge29" class="edge"><title>\\HttpTestSource&#45;&gt;\\HttpSource</title>
<path fill="none" stroke="black" d="M1520.31,-1882.15C1446.75,-1871.78 1318.1,-1853.64 1245.95,-1843.46"/>
<polygon fill="none" stroke="black" points="1246.11,-1839.95 1235.72,-1842.02 1245.14,-1846.89 1246.11,-1839.95"/>
</g>
<!-- \\HttpSourceControllerTest -->
<g id="node17" class="node"><title>\\HttpSourceControllerTest</title>
<polygon fill="none" stroke="black" points="1665,-612 1487,-612 1487,-576 1665,-576 1665,-612"/>
<text text-anchor="middle" x="1576" y="-591.1" font-family="Courier,monospace" font-size="11.00">HttpSourceControllerTest</text>
</g>
<!-- \\ControllerTestCase -->
<g id="node71" class="node"><title>\\ControllerTestCase</title>
<ellipse fill="none" stroke="black" cx="1193" cy="-180" rx="106.773" ry="18.3848"/>
<text text-anchor="middle" x="1193" y="-176.4" font-family="Times Roman,serif" font-size="14.00" fill="gray">\ControllerTestCase</text>
</g>
<!-- \\HttpSourceControllerTest&#45;&gt;\\ControllerTestCase -->
<g id="edge31" class="edge"><title>\\HttpSourceControllerTest&#45;&gt;\\ControllerTestCase</title>
<path fill="none" stroke="black" d="M1486.3,-593.621C1466.21,-589.401 1446.57,-581.391 1432,-567 1315.93,-452.319 1477.5,-320.217 1360,-207 1346.04,-193.551 1328.18,-185.242 1309.36,-180.316"/>
<polygon fill="none" stroke="black" points="1309.97,-176.866 1299.44,-178.039 1308.41,-183.689 1309.97,-176.866"/>
</g>
<!-- \\HttpSourceFieldTest -->
<g id="node18" class="node"><title>\\HttpSourceFieldTest</title>
<polygon fill="none" stroke="black" points="1648,-828 1504,-828 1504,-792 1648,-792 1648,-828"/>
<text text-anchor="middle" x="1576" y="-807.1" font-family="Courier,monospace" font-size="11.00">HttpSourceFieldTest</text>
</g>
<!-- \\HttpSourceFieldTest&#45;&gt;\\CakeTestCase -->
<g id="edge33" class="edge"><title>\\HttpSourceFieldTest&#45;&gt;\\CakeTestCase</title>
<path fill="none" stroke="black" d="M1503.3,-812.99C1477.45,-810.184 1450.26,-802.139 1432,-783 1271.85,-615.147 1519.81,-434.171 1360,-266 1340.35,-245.321 1311.74,-235.695 1283.73,-231.722"/>
<polygon fill="none" stroke="black" points="1283.8,-228.206 1273.46,-230.505 1282.98,-235.157 1283.8,-228.206"/>
</g>
<!-- \\HttpSourceResultTest -->
<g id="node19" class="node"><title>\\HttpSourceResultTest</title>
<polygon fill="none" stroke="black" points="1652,-774 1500,-774 1500,-738 1652,-738 1652,-774"/>
<text text-anchor="middle" x="1576" y="-753.1" font-family="Courier,monospace" font-size="11.00">HttpSourceResultTest</text>
</g>
<!-- \\HttpSourceResultTest&#45;&gt;\\CakeTestCase -->
<g id="edge35" class="edge"><title>\\HttpSourceResultTest&#45;&gt;\\CakeTestCase</title>
<path fill="none" stroke="black" d="M1499.73,-758.391C1475.03,-755.215 1449.53,-747.08 1432,-729 1287.05,-579.474 1504.65,-415.814 1360,-266 1340.28,-245.573 1311.8,-235.978 1283.93,-231.96"/>
<polygon fill="none" stroke="black" points="1284.05,-228.45 1273.71,-230.722 1283.21,-235.399 1284.05,-228.45"/>
</g>
<!-- \\HttpSourceConfigFactoryItemTest -->
<g id="node20" class="node"><title>\\HttpSourceConfigFactoryItemTest</title>
<polygon fill="none" stroke="black" points="1689,-720 1463,-720 1463,-684 1689,-684 1689,-720"/>
<text text-anchor="middle" x="1576" y="-699.1" font-family="Courier,monospace" font-size="11.00">HttpSourceConfigFactoryItemTest</text>
</g>
<!-- \\HttpSourceConfigFactoryItemTest&#45;&gt;\\CakeTestCase -->
<g id="edge37" class="edge"><title>\\HttpSourceConfigFactoryItemTest&#45;&gt;\\CakeTestCase</title>
<path fill="none" stroke="black" d="M1463,-694.971C1451.45,-690.32 1440.76,-683.862 1432,-675 1302.21,-543.765 1489.53,-397.492 1360,-266 1340.17,-245.865 1311.81,-236.314 1284.08,-232.248"/>
<polygon fill="none" stroke="black" points="1284.26,-228.744 1273.91,-230.989 1283.4,-235.691 1284.26,-228.744"/>
</g>
<!-- \\HttpSourceConfigFactoryItemiAmExistsANDValid -->
<g id="node21" class="node"><title>\\HttpSourceConfigFactoryItemiAmExistsANDValid</title>
<polygon fill="none" stroke="black" points="602,-2124 288,-2124 288,-2088 602,-2088 602,-2124"/>
<text text-anchor="middle" x="445" y="-2103.1" font-family="Courier,monospace" font-size="11.00">HttpSourceConfigFactoryItemiAmExistsANDValid</text>
</g>
<!-- \\HttpSourceConfigFactoryItem -->
<g id="node46" class="node"><title>\\HttpSourceConfigFactoryItem</title>
<polygon fill="none" stroke="black" points="216,-2043 16,-2043 16,-2007 216,-2007 216,-2043"/>
<text text-anchor="start" x="82" y="-2030.43" font-family="Courier,monospace" font-size="11.00">«abstract»</text>
<text text-anchor="start" x="24.5" y="-2017.23" font-family="Courier,monospace" font-size="11.00">HttpSourceConfigFactoryItem</text>
</g>
<!-- \\HttpSourceConfigFactoryItemiAmExistsANDValid&#45;&gt;\\HttpSourceConfigFactoryItem -->
<g id="edge39" class="edge"><title>\\HttpSourceConfigFactoryItemiAmExistsANDValid&#45;&gt;\\HttpSourceConfigFactoryItem</title>
<path fill="none" stroke="black" d="M329.315,-2087.92C315.337,-2085.2 301.307,-2082.22 288,-2079 250.643,-2069.97 209.55,-2057.17 176.899,-2046.31"/>
<polygon fill="none" stroke="black" points="177.645,-2042.87 167.051,-2043 175.418,-2049.5 177.645,-2042.87"/>
</g>
<!-- \\HttpSourceConditionTest -->
<g id="node22" class="node"><title>\\HttpSourceConditionTest</title>
<polygon fill="none" stroke="black" points="1662,-666 1490,-666 1490,-630 1662,-630 1662,-666"/>
<text text-anchor="middle" x="1576" y="-645.1" font-family="Courier,monospace" font-size="11.00">HttpSourceConditionTest</text>
</g>
<!-- \\HttpSourceConditionTest&#45;&gt;\\CakeTestCase -->
<g id="edge41" class="edge"><title>\\HttpSourceConditionTest&#45;&gt;\\CakeTestCase</title>
<path fill="none" stroke="black" d="M1489.7,-648.265C1468.45,-644.249 1447.4,-636.175 1432,-621 1317.33,-508.006 1474.45,-379.222 1360,-266 1340.09,-246.308 1312.01,-236.815 1284.55,-232.667"/>
<polygon fill="none" stroke="black" points="1284.84,-229.175 1274.47,-231.371 1283.95,-236.118 1284.84,-229.175"/>
</g>
<!-- \\HttpSourceConfigTest -->
<g id="node23" class="node"><title>\\HttpSourceConfigTest</title>
<polygon fill="none" stroke="black" points="1652,-1314 1500,-1314 1500,-1278 1652,-1278 1652,-1314"/>
<text text-anchor="middle" x="1576" y="-1293.1" font-family="Courier,monospace" font-size="11.00">HttpSourceConfigTest</text>
</g>
<!-- \\HttpSourceConfigTest&#45;&gt;\\CakeTestCase -->
<g id="edge43" class="edge"><title>\\HttpSourceConfigTest&#45;&gt;\\CakeTestCase</title>
<path fill="none" stroke="black" d="M1499.99,-1299.33C1474.87,-1296.33 1449.02,-1288.07 1432,-1269 1283.22,-1102.27 1508.45,-433.029 1360,-266 1340.7,-244.288 1311.57,-234.539 1283.01,-230.765"/>
<polygon fill="none" stroke="black" points="1283.27,-227.272 1272.95,-229.669 1282.51,-234.231 1283.27,-227.272"/>
</g>
<!-- \\HttpSourceConfigFactoryTest -->
<g id="node24" class="node"><title>\\HttpSourceConfigFactoryTest</title>
<polygon fill="none" stroke="black" points="1675,-1260 1477,-1260 1477,-1224 1675,-1224 1675,-1260"/>
<text text-anchor="middle" x="1576" y="-1239.1" font-family="Courier,monospace" font-size="11.00">HttpSourceConfigFactoryTest</text>
</g>
<!-- \\HttpSourceConfigFactoryTest&#45;&gt;\\CakeTestCase -->
<g id="edge45" class="edge"><title>\\HttpSourceConfigFactoryTest&#45;&gt;\\CakeTestCase</title>
<path fill="none" stroke="black" d="M1476.49,-1240.75C1459.57,-1236.06 1443.71,-1228.07 1432,-1215 1290.87,-1057.48 1500.82,-423.798 1360,-266 1340.66,-244.327 1311.51,-234.588 1282.96,-230.809"/>
<polygon fill="none" stroke="black" points="1283.22,-227.317 1272.9,-229.712 1282.46,-234.276 1283.22,-227.317"/>
</g>
<!-- \\HttpSourceConfigFactoryiAmExists -->
<g id="node25" class="node"><title>\\HttpSourceConfigFactoryiAmExists</title>
<polygon fill="none" stroke="black" points="1692,-990 1460,-990 1460,-954 1692,-954 1692,-990"/>
<text text-anchor="middle" x="1576" y="-969.1" font-family="Courier,monospace" font-size="11.00">HttpSourceConfigFactoryiAmExists</text>
</g>
<!-- \\HttpSourceConfigFactoryiAmExistsANDValid -->
<g id="node26" class="node"><title>\\HttpSourceConfigFactoryiAmExistsANDValid</title>
<polygon fill="none" stroke="black" points="1719,-1800 1433,-1800 1433,-1764 1719,-1764 1719,-1800"/>
<text text-anchor="middle" x="1576" y="-1779.1" font-family="Courier,monospace" font-size="11.00">HttpSourceConfigFactoryiAmExistsANDValid</text>
</g>
<!-- \\HttpSourceConfigFactory -->
<g id="node49" class="node"><title>\\HttpSourceConfigFactory</title>
<polygon fill="none" stroke="black" points="1279,-1800 1107,-1800 1107,-1764 1279,-1764 1279,-1800"/>
<text text-anchor="middle" x="1193" y="-1779.1" font-family="Courier,monospace" font-size="11.00">HttpSourceConfigFactory</text>
</g>
<!-- \\HttpSourceConfigFactoryiAmExistsANDValid&#45;&gt;\\HttpSourceConfigFactory -->
<g id="edge47" class="edge"><title>\\HttpSourceConfigFactoryiAmExistsANDValid&#45;&gt;\\HttpSourceConfigFactory</title>
<path fill="none" stroke="black" d="M1432.3,-1782C1384.54,-1782 1332.56,-1782 1289.28,-1782"/>
<polygon fill="none" stroke="black" points="1289.04,-1778.5 1279.04,-1782 1289.04,-1785.5 1289.04,-1778.5"/>
</g>
<!-- \\HttpSourceConfigiAmExistsANDValid -->
<g id="node27" class="node"><title>\\HttpSourceConfigiAmExistsANDValid</title>
<polygon fill="none" stroke="black" points="933,-2097 695,-2097 695,-2061 933,-2061 933,-2097"/>
<text text-anchor="middle" x="814" y="-2076.1" font-family="Courier,monospace" font-size="11.00">HttpSourceConfigiAmExistsANDValid</text>
</g>
<!-- \\HttpSourceConfig -->
<g id="node44" class="node"><title>\\HttpSourceConfig</title>
<polygon fill="none" stroke="black" points="507,-2070 383,-2070 383,-2034 507,-2034 507,-2070"/>
<text text-anchor="middle" x="445" y="-2049.1" font-family="Courier,monospace" font-size="11.00">HttpSourceConfig</text>
</g>
<!-- \\HttpSourceConfigiAmExistsANDValid&#45;&gt;\\HttpSourceConfig -->
<g id="edge49" class="edge"><title>\\HttpSourceConfigiAmExistsANDValid&#45;&gt;\\HttpSourceConfig</title>
<path fill="none" stroke="black" d="M694.451,-2070.25C636.257,-2065.99 568.18,-2061.01 517.859,-2057.33"/>
<polygon fill="none" stroke="black" points="517.95,-2053.83 507.721,-2056.59 517.439,-2060.81 517.95,-2053.83"/>
</g>
<!-- \\HttpSourceEndpointiAmExistsANDValid -->
<g id="node28" class="node"><title>\\HttpSourceEndpointiAmExistsANDValid</title>
<polygon fill="none" stroke="black" points="940,-2043 688,-2043 688,-2007 940,-2007 940,-2043"/>
<text text-anchor="middle" x="814" y="-2022.1" font-family="Courier,monospace" font-size="11.00">HttpSourceEndpointiAmExistsANDValid</text>
</g>
<!-- \\HttpSourceEndpoint -->
<g id="node42" class="node"><title>\\HttpSourceEndpoint</title>
<polygon fill="none" stroke="black" points="514,-2016 376,-2016 376,-1980 514,-1980 514,-2016"/>
<text text-anchor="middle" x="445" y="-1995.1" font-family="Courier,monospace" font-size="11.00">HttpSourceEndpoint</text>
</g>
<!-- \\HttpSourceEndpointiAmExistsANDValid&#45;&gt;\\HttpSourceEndpoint -->
<g id="edge51" class="edge"><title>\\HttpSourceEndpointiAmExistsANDValid&#45;&gt;\\HttpSourceEndpoint</title>
<path fill="none" stroke="black" d="M687.269,-2015.73C633.255,-2011.77 571.894,-2007.28 524.44,-2003.81"/>
<polygon fill="none" stroke="black" points="524.456,-2000.3 514.228,-2003.07 523.945,-2007.29 524.456,-2000.3"/>
</g>
<!-- \\HttpSourceConditioniAmExistsANDValid -->
<g id="node29" class="node"><title>\\HttpSourceConditioniAmExistsANDValid</title>
<polygon fill="none" stroke="black" points="1706,-1962 1446,-1962 1446,-1926 1706,-1926 1706,-1962"/>
<text text-anchor="middle" x="1576" y="-1941.1" font-family="Courier,monospace" font-size="11.00">HttpSourceConditioniAmExistsANDValid</text>
</g>
<!-- \\HttpSourceCondition -->
<g id="node45" class="node"><title>\\HttpSourceCondition</title>
<polygon fill="none" stroke="black" points="1265,-1962 1121,-1962 1121,-1926 1265,-1926 1265,-1962"/>
<text text-anchor="middle" x="1193" y="-1941.1" font-family="Courier,monospace" font-size="11.00">HttpSourceCondition</text>
</g>
<!-- \\HttpSourceConditioniAmExistsANDValid&#45;&gt;\\HttpSourceCondition -->
<g id="edge53" class="edge"><title>\\HttpSourceConditioniAmExistsANDValid&#45;&gt;\\HttpSourceCondition</title>
<path fill="none" stroke="black" d="M1445.8,-1944C1389.5,-1944 1325.3,-1944 1275.68,-1944"/>
<polygon fill="none" stroke="black" points="1275.64,-1940.5 1265.64,-1944 1275.64,-1947.5 1275.64,-1940.5"/>
</g>
<!-- \\HttpSourceFieldiAmExistsANDValid -->
<g id="node30" class="node"><title>\\HttpSourceFieldiAmExistsANDValid</title>
<polygon fill="none" stroke="black" points="1309,-2070 1077,-2070 1077,-2034 1309,-2034 1309,-2070"/>
<text text-anchor="middle" x="1193" y="-2049.1" font-family="Courier,monospace" font-size="11.00">HttpSourceFieldiAmExistsANDValid</text>
</g>
<!-- \\HttpSourceField -->
<g id="node47" class="node"><title>\\HttpSourceField</title>
<polygon fill="none" stroke="black" points="873,-1989 755,-1989 755,-1953 873,-1953 873,-1989"/>
<text text-anchor="middle" x="814" y="-1968.1" font-family="Courier,monospace" font-size="11.00">HttpSourceField</text>
</g>
<!-- \\HttpSourceFieldiAmExistsANDValid&#45;&gt;\\HttpSourceField -->
<g id="edge55" class="edge"><title>\\HttpSourceFieldiAmExistsANDValid&#45;&gt;\\HttpSourceField</title>
<path fill="none" stroke="black" d="M1076.48,-2036.21C1059.43,-2033.02 1042.18,-2029.3 1026,-2025 992.969,-2016.23 986.895,-2007.27 954,-1998 931.17,-1991.57 905.817,-1986.17 883.027,-1981.93"/>
<polygon fill="none" stroke="black" points="883.56,-1978.47 873.095,-1980.12 882.308,-1985.36 883.56,-1978.47"/>
</g>
<!-- \\HttpSourceResultiAmExistsANDValid -->
<g id="node31" class="node"><title>\\HttpSourceResultiAmExistsANDValid</title>
<polygon fill="none" stroke="black" points="1312,-1908 1074,-1908 1074,-1872 1312,-1872 1312,-1908"/>
<text text-anchor="middle" x="1193" y="-1887.1" font-family="Courier,monospace" font-size="11.00">HttpSourceResultiAmExistsANDValid</text>
</g>
<!-- \\HttpSourceResult -->
<g id="node48" class="node"><title>\\HttpSourceResult</title>
<polygon fill="none" stroke="black" points="876,-1881 752,-1881 752,-1845 876,-1845 876,-1881"/>
<text text-anchor="middle" x="814" y="-1860.1" font-family="Courier,monospace" font-size="11.00">HttpSourceResult</text>
</g>
<!-- \\HttpSourceResultiAmExistsANDValid&#45;&gt;\\HttpSourceResult -->
<g id="edge57" class="edge"><title>\\HttpSourceResultiAmExistsANDValid&#45;&gt;\\HttpSourceResult</title>
<path fill="none" stroke="black" d="M1073.34,-1881.48C1012.13,-1877.11 939.613,-1871.95 886.846,-1868.19"/>
<polygon fill="none" stroke="black" points="886.789,-1864.68 876.565,-1867.46 886.291,-1871.66 886.789,-1864.68"/>
</g>
<!-- \\HttpSourceEndpointItemTest -->
<g id="node32" class="node"><title>\\HttpSourceEndpointItemTest</title>
<polygon fill="none" stroke="black" points="1672,-1152 1480,-1152 1480,-1116 1672,-1116 1672,-1152"/>
<text text-anchor="middle" x="1576" y="-1131.1" font-family="Courier,monospace" font-size="11.00">HttpSourceEndpointItemTest</text>
</g>
<!-- \\HttpSourceEndpointItemTest&#45;&gt;\\CakeTestCase -->
<g id="edge59" class="edge"><title>\\HttpSourceEndpointItemTest&#45;&gt;\\CakeTestCase</title>
<path fill="none" stroke="black" d="M1479.92,-1133.54C1461.75,-1128.99 1444.54,-1120.86 1432,-1107 1306.16,-967.907 1485.57,-405.343 1360,-266 1340.55,-244.421 1311.39,-234.703 1282.84,-230.916"/>
<polygon fill="none" stroke="black" points="1283.11,-227.425 1272.79,-229.814 1282.34,-234.383 1283.11,-227.425"/>
</g>
<!-- \\HttpSourceEndpointItemiAmExistsANDValid -->
<g id="node33" class="node"><title>\\HttpSourceEndpointItemiAmExistsANDValid</title>
<polygon fill="none" stroke="black" points="954,-1935 674,-1935 674,-1899 954,-1899 954,-1935"/>
<text text-anchor="middle" x="814" y="-1914.1" font-family="Courier,monospace" font-size="11.00">HttpSourceEndpointItemiAmExistsANDValid</text>
</g>
<!-- \\HttpSourceEndpointItem -->
<g id="node43" class="node"><title>\\HttpSourceEndpointItem</title>
<polygon fill="none" stroke="black" points="528,-1948 362,-1948 362,-1912 528,-1912 528,-1948"/>
<text text-anchor="start" x="411" y="-1935.43" font-family="Courier,monospace" font-size="11.00">«abstract»</text>
<text text-anchor="start" x="370.5" y="-1922.23" font-family="Courier,monospace" font-size="11.00">HttpSourceEndpointItem</text>
</g>
<!-- \\HttpSourceEndpointItemiAmExistsANDValid&#45;&gt;\\HttpSourceEndpointItem -->
<g id="edge61" class="edge"><title>\\HttpSourceEndpointItemiAmExistsANDValid&#45;&gt;\\HttpSourceEndpointItem</title>
<path fill="none" stroke="black" d="M673.971,-1921.93C628.578,-1923.53 579.366,-1925.27 538.241,-1926.72"/>
<polygon fill="none" stroke="black" points="538.11,-1923.22 528.239,-1927.07 538.356,-1930.21 538.11,-1923.22"/>
</g>
<!-- \\HttpSourceEndpointTest -->
<g id="node34" class="node"><title>\\HttpSourceEndpointTest</title>
<polygon fill="none" stroke="black" points="1658,-1206 1494,-1206 1494,-1170 1658,-1170 1658,-1206"/>
<text text-anchor="middle" x="1576" y="-1185.1" font-family="Courier,monospace" font-size="11.00">HttpSourceEndpointTest</text>
</g>
<!-- \\HttpSourceEndpointTest&#45;&gt;\\CakeTestCase -->
<g id="edge63" class="edge"><title>\\HttpSourceEndpointTest&#45;&gt;\\CakeTestCase</title>
<path fill="none" stroke="black" d="M1493.32,-1190.31C1470.41,-1186.68 1447.57,-1178.3 1432,-1161 1298.51,-1012.7 1493.19,-414.569 1360,-266 1340.61,-244.371 1311.45,-234.642 1282.9,-230.859"/>
<polygon fill="none" stroke="black" points="1283.17,-227.368 1272.85,-229.76 1282.41,-234.326 1283.17,-227.368"/>
</g>
<!-- \\AllHttpSourceTest -->
<g id="node35" class="node"><title>\\AllHttpSourceTest</title>
<polygon fill="none" stroke="black" points="1641,-558 1511,-558 1511,-522 1641,-522 1641,-558"/>
<text text-anchor="middle" x="1576" y="-537.1" font-family="Courier,monospace" font-size="11.00">AllHttpSourceTest</text>
</g>
<!-- \\PHPUnit_Framework_TestSuite -->
<g id="node89" class="node"><title>\\PHPUnit_Framework_TestSuite</title>
<ellipse fill="none" stroke="black" cx="1193" cy="-126" rx="166.877" ry="18.3848"/>
<text text-anchor="middle" x="1193" y="-122.4" font-family="Times Roman,serif" font-size="14.00" fill="gray">\PHPUnit_Framework_TestSuite</text>
</g>
<!-- \\AllHttpSourceTest&#45;&gt;\\PHPUnit_Framework_TestSuite -->
<g id="edge65" class="edge"><title>\\AllHttpSourceTest&#45;&gt;\\PHPUnit_Framework_TestSuite</title>
<path fill="none" stroke="black" d="M1510.17,-543.018C1482.63,-540.761 1452.36,-533.112 1432,-513 1315.93,-398.319 1477.5,-266.217 1360,-153 1355.03,-148.208 1349.56,-144.068 1343.73,-140.502"/>
<polygon fill="none" stroke="black" points="1345.39,-137.422 1334.94,-135.677 1342.02,-143.558 1345.39,-137.422"/>
</g>
<!-- \\HttpSourceModel&#45;&gt;\\AppModel -->
<g id="edge67" class="edge"><title>\\HttpSourceModel&#45;&gt;\\AppModel</title>
<path fill="none" stroke="black" d="M1133.91,-1602.34C1097.47,-1604.47 1052.73,-1599.86 1026,-1571 825.49,-1354.48 1147.98,-467.39 954,-245 936.835,-225.32 910.042,-217.275 884.471,-214.618"/>
<polygon fill="none" stroke="black" points="884.621,-211.119 874.378,-213.83 884.076,-218.098 884.621,-211.119"/>
</g>
<!-- \\DataSource -->
<g id="node92" class="node"><title>\\DataSource</title>
<ellipse fill="none" stroke="black" cx="814" cy="-326" rx="72.1249" ry="18.3848"/>
<text text-anchor="middle" x="814" y="-322.4" font-family="Times Roman,serif" font-size="14.00" fill="gray">\DataSource</text>
</g>
<!-- \\HttpSource&#45;&gt;\\DataSource -->
<g id="edge69" class="edge"><title>\\HttpSource&#45;&gt;\\DataSource</title>
<path fill="none" stroke="black" d="M1150.45,-1842.49C1111.88,-1845.7 1056.55,-1843.15 1026,-1809 917.629,-1687.87 1062.64,-468.887 954,-348 938.385,-330.624 915.094,-323.111 891.969,-320.535"/>
<polygon fill="none" stroke="black" points="891.991,-317.026 881.74,-319.7 891.422,-324.002 891.991,-317.026"/>
</g>
<!-- \\HttpSourceConnection -->
<g id="node38" class="node"><title>\\HttpSourceConnection</title>
<polygon fill="none" stroke="black" points="1269,-1692 1117,-1692 1117,-1656 1269,-1656 1269,-1692"/>
<text text-anchor="middle" x="1193" y="-1671.1" font-family="Courier,monospace" font-size="11.00">HttpSourceConnection</text>
</g>
<!-- \\Object -->
<g id="node94" class="node"><title>\\Object</title>
<ellipse fill="none" stroke="black" cx="814" cy="-272" rx="45.9619" ry="18.3848"/>
<text text-anchor="middle" x="814" y="-268.4" font-family="Times Roman,serif" font-size="14.00" fill="gray">\Object</text>
</g>
<!-- \\HttpSourceConnection&#45;&gt;\\Object -->
<g id="edge71" class="edge"><title>\\HttpSourceConnection&#45;&gt;\\Object</title>
<path fill="none" stroke="black" d="M1116.71,-1668.25C1083.56,-1661.6 1047.47,-1647.88 1026,-1620 846.621,-1387.08 1147.27,-520.534 954,-299 933.33,-275.307 898.704,-268.478 869.061,-267.612"/>
<polygon fill="none" stroke="black" points="868.84,-264.111 858.815,-267.537 868.788,-271.11 868.84,-264.111"/>
</g>
<!-- \\HttpSourceController -->
<g id="node39" class="node"><title>\\HttpSourceController</title>
<polygon fill="none" stroke="black" points="1652,-504 1500,-504 1500,-468 1652,-468 1652,-504"/>
<text text-anchor="middle" x="1576" y="-483.1" font-family="Courier,monospace" font-size="11.00">HttpSourceController</text>
</g>
<!-- \\AppController -->
<g id="node96" class="node"><title>\\AppController</title>
<ellipse fill="none" stroke="black" cx="1193" cy="-72" rx="82.0244" ry="18.3848"/>
<text text-anchor="middle" x="1193" y="-68.4" font-family="Times Roman,serif" font-size="14.00" fill="gray">\AppController</text>
</g>
<!-- \\HttpSourceController&#45;&gt;\\AppController -->
<g id="edge73" class="edge"><title>\\HttpSourceController&#45;&gt;\\AppController</title>
<path fill="none" stroke="black" d="M1499.79,-487.911C1475.25,-484.664 1449.82,-476.609 1432,-459 1315.93,-344.319 1477.5,-212.217 1360,-99 1339.19,-78.9478 1309.7,-70.3215 1281.29,-67.3001"/>
<polygon fill="none" stroke="black" points="1281.56,-63.8104 1271.3,-66.4556 1280.97,-70.7856 1281.56,-63.8104"/>
</g>
<!-- \\HttpSourceException -->
<g id="node40" class="node"><title>\\HttpSourceException</title>
<polygon fill="none" stroke="black" points="1648,-396 1504,-396 1504,-360 1648,-360 1648,-396"/>
<text text-anchor="middle" x="1576" y="-375.1" font-family="Courier,monospace" font-size="11.00">HttpSourceException</text>
</g>
<!-- \\CakeException -->
<g id="node98" class="node"><title>\\CakeException</title>
<ellipse fill="none" stroke="black" cx="1193" cy="-18" rx="85.7684" ry="18.3848"/>
<text text-anchor="middle" x="1193" y="-14.4" font-family="Times Roman,serif" font-size="14.00" fill="gray">\CakeException</text>
</g>
<!-- \\HttpSourceException&#45;&gt;\\CakeException -->
<g id="edge75" class="edge"><title>\\HttpSourceException&#45;&gt;\\CakeException</title>
<path fill="none" stroke="black" d="M1570.17,-359.757C1550.83,-302.46 1482.95,-125.171 1360,-45 1339.24,-31.4647 1314.03,-23.9186 1289.55,-19.884"/>
<polygon fill="none" stroke="black" points="1289.89,-16.3964 1279.48,-18.4099 1288.87,-23.3224 1289.89,-16.3964"/>
</g>
<!-- \\HttpSourceConfigException -->
<g id="node41" class="node"><title>\\HttpSourceConfigException</title>
<polygon fill="none" stroke="black" points="1668,-450 1484,-450 1484,-414 1668,-414 1668,-450"/>
<text text-anchor="middle" x="1576" y="-429.1" font-family="Courier,monospace" font-size="11.00">HttpSourceConfigException</text>
</g>
<!-- \\HttpSourceConfigException&#45;&gt;\\CakeException -->
<g id="edge77" class="edge"><title>\\HttpSourceConfigException&#45;&gt;\\CakeException</title>
<path fill="none" stroke="black" d="M1483.31,-430.963C1464.27,-426.589 1445.84,-418.676 1432,-405 1315.93,-290.319 1477.5,-158.217 1360,-45 1340.4,-26.1168 1313.11,-17.3661 1286.27,-13.8869"/>
<polygon fill="none" stroke="black" points="1286.33,-10.374 1276.02,-12.8014 1285.59,-17.3351 1286.33,-10.374"/>
</g>
<!-- \\HttpSourceEndpoint&#45;&gt;\\HttpSourceConfigFactoryItem -->
<g id="edge79" class="edge"><title>\\HttpSourceEndpoint&#45;&gt;\\HttpSourceConfigFactoryItem</title>
<path fill="none" stroke="black" d="M375.63,-2003.69C332.33,-2007.25 275.632,-2011.9 226.27,-2015.95"/>
<polygon fill="none" stroke="black" points="225.859,-2012.47 216.179,-2016.78 226.432,-2019.45 225.859,-2012.47"/>
</g>
<!-- \\HttpSourceEndpointItem&#45;&gt;\\HttpSourceConfigFactoryItem -->
<g id="edge81" class="edge"><title>\\HttpSourceEndpointItem&#45;&gt;\\HttpSourceConfigFactoryItem</title>
<path fill="none" stroke="black" d="M372.893,-1948.04C346.151,-1954.94 315.617,-1963.06 288,-1971 252.425,-1981.22 213.011,-1993.53 180.898,-2003.8"/>
<polygon fill="none" stroke="black" points="179.63,-2000.53 171.178,-2006.92 181.769,-2007.2 179.63,-2000.53"/>
</g>
<!-- \\HttpSourceConfig&#45;&gt;\\HttpSourceConfigFactoryItem -->
<g id="edge83" class="edge"><title>\\HttpSourceConfig&#45;&gt;\\HttpSourceConfigFactoryItem</title>
<path fill="none" stroke="black" d="M382.343,-2046.86C338.385,-2043.25 278.429,-2038.33 226.533,-2034.07"/>
<polygon fill="none" stroke="black" points="226.521,-2030.56 216.269,-2033.23 225.949,-2037.54 226.521,-2030.56"/>
</g>
<!-- \\HttpSourceCondition&#45;&gt;\\HttpSourceField -->
<g id="edge85" class="edge"><title>\\HttpSourceCondition&#45;&gt;\\HttpSourceField</title>
<path fill="none" stroke="black" d="M1120.37,-1949.17C1051.99,-1954.05 950.284,-1961.29 883.08,-1966.08"/>
<polygon fill="none" stroke="black" points="882.738,-1962.59 873.012,-1966.8 883.235,-1969.58 882.738,-1962.59"/>
</g>
<!-- \\HttpSourceField&#45;&gt;\\HttpSourceEndpointItem -->
<g id="edge87" class="edge"><title>\\HttpSourceField&#45;&gt;\\HttpSourceEndpointItem</title>
<path fill="none" stroke="black" d="M754.714,-1964.41C696.386,-1957.93 606.447,-1947.94 538.488,-1940.39"/>
<polygon fill="none" stroke="black" points="538.528,-1936.87 528.203,-1939.24 537.755,-1943.83 538.528,-1936.87"/>
</g>
<!-- \\HttpSourceResult&#45;&gt;\\HttpSourceEndpointItem -->
<g id="edge89" class="edge"><title>\\HttpSourceResult&#45;&gt;\\HttpSourceEndpointItem</title>
<path fill="none" stroke="black" d="M751.404,-1874.37C692.926,-1884.98 604.873,-1900.97 538.145,-1913.09"/>
<polygon fill="none" stroke="black" points="537.258,-1909.69 528.044,-1914.92 538.509,-1916.58 537.258,-1909.69"/>
</g>
<!-- \\TestHttpSourceModel -->
<g id="node50" class="node"><title>\\TestHttpSourceModel</title>
<polygon fill="none" stroke="black" points="1648,-1638 1504,-1638 1504,-1602 1648,-1602 1648,-1638"/>
<text text-anchor="middle" x="1576" y="-1617.1" font-family="Courier,monospace" font-size="11.00">TestHttpSourceModel</text>
</g>
<!-- \\TestHttpSourceModel&#45;&gt;\\HttpSourceModel -->
<g id="edge91" class="edge"><title>\\TestHttpSourceModel&#45;&gt;\\HttpSourceModel</title>
<path fill="none" stroke="black" d="M1503.06,-1614.86C1433.8,-1609.98 1330.42,-1602.69 1262.37,-1597.89"/>
<polygon fill="none" stroke="black" points="1262.4,-1594.38 1252.18,-1597.17 1261.9,-1601.37 1262.4,-1594.38"/>
</g>
<!-- \\TestHttpSource -->
<g id="node51" class="node"><title>\\TestHttpSource</title>
<polygon fill="none" stroke="black" points="1631,-1854 1521,-1854 1521,-1818 1631,-1818 1631,-1854"/>
<text text-anchor="middle" x="1576" y="-1833.1" font-family="Courier,monospace" font-size="11.00">TestHttpSource</text>
</g>
<!-- \\TestHttpSource&#45;&gt;\\HttpSource -->
<g id="edge93" class="edge"><title>\\TestHttpSource&#45;&gt;\\HttpSource</title>
<path fill="none" stroke="black" d="M1520.31,-1836C1446.75,-1836 1318.1,-1836 1245.95,-1836"/>
<polygon fill="none" stroke="black" points="1245.72,-1832.5 1235.72,-1836 1245.72,-1839.5 1245.72,-1832.5"/>
</g>
<!-- \\TestHttpSourceConnection -->
<g id="node52" class="node"><title>\\TestHttpSourceConnection</title>
<polygon fill="none" stroke="black" points="1665,-1746 1487,-1746 1487,-1710 1665,-1710 1665,-1746"/>
<text text-anchor="middle" x="1576" y="-1725.1" font-family="Courier,monospace" font-size="11.00">TestHttpSourceConnection</text>
</g>
<!-- \\TestHttpSourceConnection&#45;&gt;\\HttpSourceConnection -->
<g id="edge95" class="edge"><title>\\TestHttpSourceConnection&#45;&gt;\\HttpSourceConnection</title>
<path fill="none" stroke="black" d="M1486.2,-1715.34C1423.69,-1706.52 1340.79,-1694.84 1279.1,-1686.14"/>
<polygon fill="none" stroke="black" points="1279.39,-1682.65 1269,-1684.72 1278.42,-1689.58 1279.39,-1682.65"/>
</g>
</g>
</svg>
