<?xml version="1.0" encoding="UTF-8" standalone="no"?>
<!DOCTYPE svg PUBLIC "-//W3C//DTD SVG 1.1//EN"
 "http://www.w3.org/Graphics/SVG/1.1/DTD/svg11.dtd">
<!-- Generated by graphviz version 2.26.3 (20100126.1600)
 -->
<!-- Title: G Pages: 1 -->
<svg width="1744pt" height="2170pt"
 viewBox="0.00 0.00 1744.00 2170.00" xmlns="http://www.w3.org/2000/svg" xmlns:xlink="http://www.w3.org/1999/xlink">
<g id="graph1" class="graph" transform="scale(1 1) rotate(0) translate(4 2166)">
<title>G</title>
<polygon fill="white" stroke="white" points="-4,5 -4,-2166 1741,-2166 1741,5 -4,5"/>
<g id="graph2" class="cluster"><title>cluster_Global</title>
<polyline fill="none" stroke="gray" points="20,-352 1716,-352 "/>
<path fill="none" stroke="gray" d="M1716,-352C1722,-352 1728,-358 1728,-364"/>
<polyline fill="none" stroke="gray" points="1728,-364 1728,-2142 "/>
<path fill="none" stroke="gray" d="M1728,-2142C1728,-2148 1722,-2154 1716,-2154"/>
<polyline fill="none" stroke="gray" points="1716,-2154 20,-2154 "/>
<path fill="none" stroke="gray" d="M20,-2154C14,-2154 8,-2148 8,-2142"/>
<polyline fill="none" stroke="gray" points="8,-2142 8,-364 "/>
<path fill="none" stroke="gray" d="M8,-364C8,-358 14,-352 20,-352"/>
<text text-anchor="middle" x="868" y="-2140.1" font-family="Times Roman,serif" font-size="11.00" fill="gray">Global</text>
</g>
<!-- \\TestHttpSourceModel -->
<g id="node2" class="node"><title>\\TestHttpSourceModel</title>
<polygon fill="none" stroke="black" points="1648,-1746 1504,-1746 1504,-1710 1648,-1710 1648,-1746"/>
<text text-anchor="middle" x="1576" y="-1725.1" font-family="Courier,monospace" font-size="11.00">TestHttpSourceModel</text>
</g>
<!-- \\HttpSourceModel -->
<g id="node48" class="node"><title>\\HttpSourceModel</title>
<polygon fill="none" stroke="black" points="1252,-1759 1134,-1759 1134,-1723 1252,-1723 1252,-1759"/>
<text text-anchor="middle" x="1193" y="-1738.1" font-family="Courier,monospace" font-size="11.00">HttpSourceModel</text>
</g>
<!-- \\TestHttpSourceModel&#45;&gt;\\HttpSourceModel -->
<g id="edge3" class="edge"><title>\\TestHttpSourceModel&#45;&gt;\\HttpSourceModel</title>
<path fill="none" stroke="black" d="M1503.06,-1730.48C1433.8,-1732.83 1330.42,-1736.34 1262.37,-1738.65"/>
<polygon fill="none" stroke="black" points="1262.05,-1735.15 1252.18,-1738.99 1262.29,-1742.15 1262.05,-1735.15"/>
</g>
<!-- \\TestHttpSource -->
<g id="node3" class="node"><title>\\TestHttpSource</title>
<polygon fill="none" stroke="black" points="1631,-2016 1521,-2016 1521,-1980 1631,-1980 1631,-2016"/>
<text text-anchor="middle" x="1576" y="-1995.1" font-family="Courier,monospace" font-size="11.00">TestHttpSource</text>
</g>
<!-- \\HttpSource -->
<g id="node50" class="node"><title>\\HttpSource</title>
<polygon fill="none" stroke="black" points="1235,-1894 1151,-1894 1151,-1858 1235,-1858 1235,-1894"/>
<text text-anchor="start" x="1159" y="-1881.43" font-family="Courier,monospace" font-size="11.00">«abstract»</text>
<text text-anchor="start" x="1159" y="-1868.23" font-family="Courier,monospace" font-size="11.00">HttpSource</text>
</g>
<!-- \\TestHttpSource&#45;&gt;\\HttpSource -->
<g id="edge5" class="edge"><title>\\TestHttpSource&#45;&gt;\\HttpSource</title>
<path fill="none" stroke="black" d="M1520.29,-1994.97C1492.54,-1991.65 1459.2,-1984.85 1432,-1971 1392.78,-1951.02 1399.47,-1922.48 1360,-1903 1324.44,-1885.44 1279.93,-1878.9 1245.81,-1876.63"/>
<polygon fill="none" stroke="black" points="1245.75,-1873.12 1235.57,-1876.06 1245.36,-1880.11 1245.75,-1873.12"/>
</g>
<!-- \\TestHttpSourceConnection -->
<g id="node4" class="node"><title>\\TestHttpSourceConnection</title>
<polygon fill="none" stroke="black" points="1665,-2070 1487,-2070 1487,-2034 1665,-2034 1665,-2070"/>
<text text-anchor="middle" x="1576" y="-2049.1" font-family="Courier,monospace" font-size="11.00">TestHttpSourceConnection</text>
</g>
<!-- \\HttpSourceConnection -->
<g id="node49" class="node"><title>\\HttpSourceConnection</title>
<polygon fill="none" stroke="black" points="1269,-1948 1117,-1948 1117,-1912 1269,-1912 1269,-1948"/>
<text text-anchor="middle" x="1193" y="-1927.1" font-family="Courier,monospace" font-size="11.00">HttpSourceConnection</text>
</g>
<!-- \\TestHttpSourceConnection&#45;&gt;\\HttpSourceConnection -->
<g id="edge7" class="edge"><title>\\TestHttpSourceConnection&#45;&gt;\\HttpSourceConnection</title>
<path fill="none" stroke="black" d="M1486.19,-2043.34C1467.62,-2039.32 1448.66,-2033.48 1432,-2025 1392.78,-2005.02 1399.47,-1976.48 1360,-1957 1335.25,-1944.78 1306.16,-1937.89 1279.25,-1934.07"/>
<polygon fill="none" stroke="black" points="1279.43,-1930.57 1269.06,-1932.75 1278.53,-1937.51 1279.43,-1930.57"/>
</g>
<!-- \\HttpSourceController -->
<g id="node5" class="node"><title>\\HttpSourceController</title>
<polygon fill="none" stroke="black" points="1652,-1584 1500,-1584 1500,-1548 1652,-1548 1652,-1584"/>
<text text-anchor="middle" x="1576" y="-1563.1" font-family="Courier,monospace" font-size="11.00">HttpSourceController</text>
</g>
<!-- \\AppController -->
<g id="node57" class="node"><title>\\AppController</title>
<ellipse fill="none" stroke="black" cx="1193" cy="-326" rx="82.0244" ry="18.3848"/>
<text text-anchor="middle" x="1193" y="-322.4" font-family="Times Roman,serif" font-size="14.00" fill="gray">\AppController</text>
</g>
<!-- \\HttpSourceController&#45;&gt;\\AppController -->
<g id="edge9" class="edge"><title>\\HttpSourceController&#45;&gt;\\AppController</title>
<path fill="none" stroke="black" d="M1499.87,-1569.43C1474.74,-1566.45 1448.91,-1558.17 1432,-1539 1256.58,-1340.17 1540.76,-541.99 1360,-348 1338.05,-324.447 1304.1,-317.082 1272.53,-316.339"/>
<polygon fill="none" stroke="black" points="1272.38,-312.839 1262.38,-316.318 1272.37,-319.839 1272.38,-312.839"/>
</g>
<!-- \\HttpSourceAppTest -->
<g id="node6" class="node"><title>\\HttpSourceAppTest</title>
<polygon fill="none" stroke="black" points="1259,-1638 1127,-1638 1127,-1602 1259,-1602 1259,-1638"/>
<text text-anchor="start" x="1159" y="-1625.43" font-family="Courier,monospace" font-size="11.00">«abstract»</text>
<text text-anchor="start" x="1135.5" y="-1612.23" font-family="Courier,monospace" font-size="11.00">HttpSourceAppTest</text>
</g>
<!-- \\CakeTestCase -->
<g id="node59" class="node"><title>\\CakeTestCase</title>
<ellipse fill="none" stroke="black" cx="1193" cy="-72" rx="82.0244" ry="18.3848"/>
<text text-anchor="middle" x="1193" y="-68.4" font-family="Times Roman,serif" font-size="14.00" fill="gray">\CakeTestCase</text>
</g>
<!-- \\HttpSourceAppTest&#45;&gt;\\CakeTestCase -->
<g id="edge11" class="edge"><title>\\HttpSourceAppTest&#45;&gt;\\CakeTestCase</title>
<path fill="none" stroke="black" d="M1259.38,-1630.77C1305.79,-1634.08 1364.84,-1628.9 1396,-1589 1421.32,-1556.57 1421.32,-140.426 1396,-108 1368,-72.1424 1317.77,-63.0163 1274.28,-62.917"/>
<polygon fill="none" stroke="black" points="1274.2,-59.4176 1264.25,-63.0498 1274.3,-66.417 1274.2,-59.4176"/>
</g>
<!-- \\HttpSourceUserFixture -->
<g id="node7" class="node"><title>\\HttpSourceUserFixture</title>
<polygon fill="none" stroke="black" points="1655,-1530 1497,-1530 1497,-1494 1655,-1494 1655,-1530"/>
<text text-anchor="middle" x="1576" y="-1509.1" font-family="Courier,monospace" font-size="11.00">HttpSourceUserFixture</text>
</g>
<!-- \\CakeTestFixture -->
<g id="node61" class="node"><title>\\CakeTestFixture</title>
<ellipse fill="none" stroke="black" cx="1193" cy="-272" rx="92.1303" ry="18.3848"/>
<text text-anchor="middle" x="1193" y="-268.4" font-family="Times Roman,serif" font-size="14.00" fill="gray">\CakeTestFixture</text>
</g>
<!-- \\HttpSourceUserFixture&#45;&gt;\\CakeTestFixture -->
<g id="edge13" class="edge"><title>\\HttpSourceUserFixture&#45;&gt;\\CakeTestFixture</title>
<path fill="none" stroke="black" d="M1496.87,-1515.05C1472.7,-1511.77 1448.24,-1503.4 1432,-1485 1257.29,-1287.02 1537.17,-494.773 1360,-299 1342.09,-279.208 1315.84,-270.066 1289.44,-266.507"/>
<polygon fill="none" stroke="black" points="1289.65,-263.01 1279.33,-265.406 1288.9,-269.969 1289.65,-263.01"/>
</g>
<!-- \\HttpSourceUsersDocumentFixture -->
<g id="node8" class="node"><title>\\HttpSourceUsersDocumentFixture</title>
<polygon fill="none" stroke="black" points="1685,-1476 1467,-1476 1467,-1440 1685,-1440 1685,-1476"/>
<text text-anchor="middle" x="1576" y="-1455.1" font-family="Courier,monospace" font-size="11.00">HttpSourceUsersDocumentFixture</text>
</g>
<!-- \\HttpSourceUsersDocumentFixture&#45;&gt;\\CakeTestFixture -->
<g id="edge15" class="edge"><title>\\HttpSourceUsersDocumentFixture&#45;&gt;\\CakeTestFixture</title>
<path fill="none" stroke="black" d="M1466.23,-1453.58C1453.21,-1448.7 1441.27,-1441.48 1432,-1431 1264.94,-1242.24 1529.41,-485.648 1360,-299 1342.06,-279.234 1315.81,-270.1 1289.41,-266.54"/>
<polygon fill="none" stroke="black" points="1289.62,-263.042 1279.3,-265.438 1288.86,-270.001 1289.62,-263.042"/>
</g>
<!-- \\HttpSourceDocument -->
<g id="node9" class="node"><title>\\HttpSourceDocument</title>
<polygon fill="none" stroke="black" points="1645,-1854 1507,-1854 1507,-1818 1645,-1818 1645,-1854"/>
<text text-anchor="middle" x="1576" y="-1833.1" font-family="Courier,monospace" font-size="11.00">HttpSourceDocument</text>
</g>
<!-- \\HttpSourceDocument&#45;&gt;\\HttpSourceModel -->
<g id="edge17" class="edge"><title>\\HttpSourceDocument&#45;&gt;\\HttpSourceModel</title>
<path fill="none" stroke="black" d="M1506.88,-1824.37C1483.05,-1820.01 1456.26,-1814.71 1432,-1809 1373.66,-1795.26 1308.25,-1776.41 1260.63,-1762.04"/>
<polygon fill="none" stroke="black" points="1261.64,-1758.68 1251.05,-1759.13 1259.61,-1765.38 1261.64,-1758.68"/>
</g>
<!-- \\HttpSourceUser -->
<g id="node10" class="node"><title>\\HttpSourceUser</title>
<polygon fill="none" stroke="black" points="1631,-1368 1521,-1368 1521,-1332 1631,-1332 1631,-1368"/>
<text text-anchor="middle" x="1576" y="-1347.1" font-family="Courier,monospace" font-size="11.00">HttpSourceUser</text>
</g>
<!-- \\AppModel -->
<g id="node65" class="node"><title>\\AppModel</title>
<ellipse fill="none" stroke="black" cx="814" cy="-218" rx="62.2254" ry="18.3848"/>
<text text-anchor="middle" x="814" y="-214.4" font-family="Times Roman,serif" font-size="14.00" fill="gray">\AppModel</text>
</g>
<!-- \\HttpSourceUser&#45;&gt;\\AppModel -->
<g id="edge19" class="edge"><title>\\HttpSourceUser&#45;&gt;\\AppModel</title>
<path fill="none" stroke="black" d="M1520.21,-1354.76C1489.62,-1354.1 1453.62,-1347.35 1432,-1323 1272.6,-1143.46 1531.23,-413.296 1360,-245 1326.96,-212.528 1026.74,-213.882 886.09,-216.353"/>
<polygon fill="none" stroke="black" points="885.772,-212.858 875.837,-216.54 885.9,-219.857 885.772,-212.858"/>
</g>
<!-- \\HttpSourceControllerTest -->
<g id="node11" class="node"><title>\\HttpSourceControllerTest</title>
<polygon fill="none" stroke="black" points="1665,-1314 1487,-1314 1487,-1278 1665,-1278 1665,-1314"/>
<text text-anchor="middle" x="1576" y="-1293.1" font-family="Courier,monospace" font-size="11.00">HttpSourceControllerTest</text>
</g>
<!-- \\ControllerTestCase -->
<g id="node67" class="node"><title>\\ControllerTestCase</title>
<ellipse fill="none" stroke="black" cx="1193" cy="-180" rx="106.773" ry="18.3848"/>
<text text-anchor="middle" x="1193" y="-176.4" font-family="Times Roman,serif" font-size="14.00" fill="gray">\ControllerTestCase</text>
</g>
<!-- \\HttpSourceControllerTest&#45;&gt;\\ControllerTestCase -->
<g id="edge21" class="edge"><title>\\HttpSourceControllerTest&#45;&gt;\\ControllerTestCase</title>
<path fill="none" stroke="black" d="M1486.44,-1297.22C1465.85,-1293.06 1445.94,-1284.68 1432,-1269 1275.57,-1093.05 1516.08,-388.262 1360,-212 1346.86,-197.158 1329.12,-187.901 1310.1,-182.32"/>
<polygon fill="none" stroke="black" points="1310.92,-178.918 1300.37,-179.797 1309.17,-185.694 1310.92,-178.918"/>
</g>
<!-- \\AllHttpSourceTest -->
<g id="node12" class="node"><title>\\AllHttpSourceTest</title>
<polygon fill="none" stroke="black" points="1641,-1260 1511,-1260 1511,-1224 1641,-1224 1641,-1260"/>
<text text-anchor="middle" x="1576" y="-1239.1" font-family="Courier,monospace" font-size="11.00">AllHttpSourceTest</text>
</g>
<!-- \\PHPUnit_Framework_TestSuite -->
<g id="node69" class="node"><title>\\PHPUnit_Framework_TestSuite</title>
<ellipse fill="none" stroke="black" cx="1193" cy="-126" rx="166.877" ry="18.3848"/>
<text text-anchor="middle" x="1193" y="-122.4" font-family="Times Roman,serif" font-size="14.00" fill="gray">\PHPUnit_Framework_TestSuite</text>
</g>
<!-- \\AllHttpSourceTest&#45;&gt;\\PHPUnit_Framework_TestSuite -->
<g id="edge23" class="edge"><title>\\AllHttpSourceTest&#45;&gt;\\PHPUnit_Framework_TestSuite</title>
<path fill="none" stroke="black" d="M1510.38,-1246.32C1482.19,-1244.47 1451.35,-1236.77 1432,-1215 1274.86,-1038.2 1519.34,-327.822 1360,-153 1355.75,-148.342 1351.05,-144.275 1345.98,-140.732"/>
<polygon fill="none" stroke="black" points="1347.49,-137.55 1337.15,-135.255 1343.8,-143.499 1347.49,-137.55"/>
</g>
<!-- \\HttpSourceConfigFactoryItemTest -->
<g id="node13" class="node"><title>\\HttpSourceConfigFactoryItemTest</title>
<polygon fill="none" stroke="black" points="1689,-1044 1463,-1044 1463,-1008 1689,-1008 1689,-1044"/>
<text text-anchor="middle" x="1576" y="-1023.1" font-family="Courier,monospace" font-size="11.00">HttpSourceConfigFactoryItemTest</text>
</g>
<!-- \\HttpSourceConfigFactoryItemTest&#45;&gt;\\CakeTestCase -->
<g id="edge25" class="edge"><title>\\HttpSourceConfigFactoryItemTest&#45;&gt;\\CakeTestCase</title>
<path fill="none" stroke="black" d="M1462.86,-1020.05C1451.18,-1015.25 1440.51,-1008.45 1432,-999 1297.81,-849.843 1496.05,-246.464 1360,-99 1339.51,-76.7944 1308.52,-68.0752 1278.78,-65.5892"/>
<polygon fill="none" stroke="black" points="1278.96,-62.0934 1268.76,-64.9747 1278.53,-69.0803 1278.96,-62.0934"/>
</g>
<!-- \\HttpSourceConfigFactoryItemiAmExistsANDValid -->
<g id="node14" class="node"><title>\\HttpSourceConfigFactoryItemiAmExistsANDValid</title>
<polygon fill="none" stroke="black" points="602,-2124 288,-2124 288,-2088 602,-2088 602,-2124"/>
<text text-anchor="middle" x="445" y="-2103.1" font-family="Courier,monospace" font-size="11.00">HttpSourceConfigFactoryItemiAmExistsANDValid</text>
</g>
<!-- \\HttpSourceConfigFactoryItem -->
<g id="node45" class="node"><title>\\HttpSourceConfigFactoryItem</title>
<polygon fill="none" stroke="black" points="216,-2043 16,-2043 16,-2007 216,-2007 216,-2043"/>
<text text-anchor="start" x="82" y="-2030.43" font-family="Courier,monospace" font-size="11.00">«abstract»</text>
<text text-anchor="start" x="24.5" y="-2017.23" font-family="Courier,monospace" font-size="11.00">HttpSourceConfigFactoryItem</text>
</g>
<!-- \\HttpSourceConfigFactoryItemiAmExistsANDValid&#45;&gt;\\HttpSourceConfigFactoryItem -->
<g id="edge27" class="edge"><title>\\HttpSourceConfigFactoryItemiAmExistsANDValid&#45;&gt;\\HttpSourceConfigFactoryItem</title>
<path fill="none" stroke="black" d="M329.315,-2087.92C315.337,-2085.2 301.307,-2082.22 288,-2079 250.643,-2069.97 209.55,-2057.17 176.899,-2046.31"/>
<polygon fill="none" stroke="black" points="177.645,-2042.87 167.051,-2043 175.418,-2049.5 177.645,-2042.87"/>
</g>
<!-- \\HttpSourceConditionTest -->
<g id="node15" class="node"><title>\\HttpSourceConditionTest</title>
<polygon fill="none" stroke="black" points="1662,-990 1490,-990 1490,-954 1662,-954 1662,-990"/>
<text text-anchor="middle" x="1576" y="-969.1" font-family="Courier,monospace" font-size="11.00">HttpSourceConditionTest</text>
</g>
<!-- \\HttpSourceConditionTest&#45;&gt;\\CakeTestCase -->
<g id="edge29" class="edge"><title>\\HttpSourceConditionTest&#45;&gt;\\CakeTestCase</title>
<path fill="none" stroke="black" d="M1489.99,-973.695C1468.23,-969.789 1446.84,-961.413 1432,-945 1305.45,-805.054 1488.29,-237.35 1360,-99 1339.46,-76.8464 1308.46,-68.1374 1278.72,-65.6451"/>
<polygon fill="none" stroke="black" points="1278.9,-62.1495 1268.7,-65.0277 1278.47,-69.1362 1278.9,-62.1495"/>
</g>
<!-- \\HttpSourceConfigTest -->
<g id="node16" class="node"><title>\\HttpSourceConfigTest</title>
<polygon fill="none" stroke="black" points="1652,-936 1500,-936 1500,-900 1652,-900 1652,-936"/>
<text text-anchor="middle" x="1576" y="-915.1" font-family="Courier,monospace" font-size="11.00">HttpSourceConfigTest</text>
</g>
<!-- \\HttpSourceConfigTest&#45;&gt;\\CakeTestCase -->
<g id="edge31" class="edge"><title>\\HttpSourceConfigTest&#45;&gt;\\CakeTestCase</title>
<path fill="none" stroke="black" d="M1499.82,-921.103C1474.83,-918.053 1449.11,-909.817 1432,-891 1313.09,-760.262 1480.54,-228.238 1360,-99 1339.57,-77.0978 1308.92,-68.3606 1279.43,-65.7753"/>
<polygon fill="none" stroke="black" points="1279.27,-62.2578 1269.07,-65.1059 1278.82,-69.2433 1279.27,-62.2578"/>
</g>
<!-- \\HttpSourceEndpointItemTest -->
<g id="node17" class="node"><title>\\HttpSourceEndpointItemTest</title>
<polygon fill="none" stroke="black" points="1672,-882 1480,-882 1480,-846 1672,-846 1672,-882"/>
<text text-anchor="middle" x="1576" y="-861.1" font-family="Courier,monospace" font-size="11.00">HttpSourceEndpointItemTest</text>
</g>
<!-- \\HttpSourceEndpointItemTest&#45;&gt;\\CakeTestCase -->
<g id="edge33" class="edge"><title>\\HttpSourceEndpointItemTest&#45;&gt;\\CakeTestCase</title>
<path fill="none" stroke="black" d="M1479.67,-863.329C1461.64,-858.775 1444.54,-850.695 1432,-837 1320.73,-715.466 1472.79,-219.13 1360,-99 1339.5,-77.1653 1308.83,-68.4417 1279.35,-65.8485"/>
<polygon fill="none" stroke="black" points="1279.2,-62.3313 1268.99,-65.1755 1278.74,-69.3165 1279.2,-62.3313"/>
</g>
<!-- \\HttpSourceEndpointItemiAmExistsANDValid -->
<g id="node18" class="node"><title>\\HttpSourceEndpointItemiAmExistsANDValid</title>
<polygon fill="none" stroke="black" points="954,-1908 674,-1908 674,-1872 954,-1872 954,-1908"/>
<text text-anchor="middle" x="814" y="-1887.1" font-family="Courier,monospace" font-size="11.00">HttpSourceEndpointItemiAmExistsANDValid</text>
</g>
<!-- \\HttpSourceEndpointItem -->
<g id="node42" class="node"><title>\\HttpSourceEndpointItem</title>
<polygon fill="none" stroke="black" points="528,-1962 362,-1962 362,-1926 528,-1926 528,-1962"/>
<text text-anchor="start" x="411" y="-1949.43" font-family="Courier,monospace" font-size="11.00">«abstract»</text>
<text text-anchor="start" x="370.5" y="-1936.23" font-family="Courier,monospace" font-size="11.00">HttpSourceEndpointItem</text>
</g>
<!-- \\HttpSourceEndpointItemiAmExistsANDValid&#45;&gt;\\HttpSourceEndpointItem -->
<g id="edge35" class="edge"><title>\\HttpSourceEndpointItemiAmExistsANDValid&#45;&gt;\\HttpSourceEndpointItem</title>
<path fill="none" stroke="black" d="M690.872,-1908.02C641.081,-1915.31 584.561,-1923.58 538.276,-1930.35"/>
<polygon fill="none" stroke="black" points="537.647,-1926.9 528.26,-1931.82 538.661,-1933.83 537.647,-1926.9"/>
</g>
<!-- \\HttpSourceResultTest -->
<g id="node19" class="node"><title>\\HttpSourceResultTest</title>
<polygon fill="none" stroke="black" points="1652,-828 1500,-828 1500,-792 1652,-792 1652,-828"/>
<text text-anchor="middle" x="1576" y="-807.1" font-family="Courier,monospace" font-size="11.00">HttpSourceResultTest</text>
</g>
<!-- \\HttpSourceResultTest&#45;&gt;\\CakeTestCase -->
<g id="edge37" class="edge"><title>\\HttpSourceResultTest&#45;&gt;\\CakeTestCase</title>
<path fill="none" stroke="black" d="M1499.97,-812.967C1474.99,-809.904 1449.25,-801.695 1432,-783 1224.72,-558.332 1570.08,-321.053 1360,-99 1339.51,-77.339 1309,-68.6126 1279.65,-65.9682"/>
<polygon fill="none" stroke="black" points="1279.54,-62.4534 1269.33,-65.2752 1279.08,-69.4377 1279.54,-62.4534"/>
</g>
<!-- \\HttpSourceFieldTest -->
<g id="node20" class="node"><title>\\HttpSourceFieldTest</title>
<polygon fill="none" stroke="black" points="1648,-774 1504,-774 1504,-738 1648,-738 1648,-774"/>
<text text-anchor="middle" x="1576" y="-753.1" font-family="Courier,monospace" font-size="11.00">HttpSourceFieldTest</text>
</g>
<!-- \\HttpSourceFieldTest&#45;&gt;\\CakeTestCase -->
<g id="edge39" class="edge"><title>\\HttpSourceFieldTest&#45;&gt;\\CakeTestCase</title>
<path fill="none" stroke="black" d="M1503.42,-759.265C1477.43,-756.526 1450.11,-748.455 1432,-729 1239.98,-522.721 1554.59,-302.857 1360,-99 1339.5,-77.5256 1309.15,-68.8001 1279.93,-66.1036"/>
<polygon fill="none" stroke="black" points="1279.88,-62.5916 1269.66,-65.3903 1279.39,-69.5748 1279.88,-62.5916"/>
</g>
<!-- \\HttpSourceEndpointTest -->
<g id="node21" class="node"><title>\\HttpSourceEndpointTest</title>
<polygon fill="none" stroke="black" points="1658,-720 1494,-720 1494,-684 1658,-684 1658,-720"/>
<text text-anchor="middle" x="1576" y="-699.1" font-family="Courier,monospace" font-size="11.00">HttpSourceEndpointTest</text>
</g>
<!-- \\HttpSourceEndpointTest&#45;&gt;\\CakeTestCase -->
<g id="edge41" class="edge"><title>\\HttpSourceEndpointTest&#45;&gt;\\CakeTestCase</title>
<path fill="none" stroke="black" d="M1493.42,-703.82C1470.64,-700.143 1447.86,-691.858 1432,-675 1255.22,-487.094 1539.12,-284.676 1360,-99 1339.39,-77.6341 1309.02,-68.9314 1279.81,-66.2229"/>
<polygon fill="none" stroke="black" points="1279.76,-62.7112 1269.54,-65.5039 1279.27,-69.6941 1279.76,-62.7112"/>
</g>
<!-- \\HttpSourceConfigFactoryTest -->
<g id="node22" class="node"><title>\\HttpSourceConfigFactoryTest</title>
<polygon fill="none" stroke="black" points="1675,-666 1477,-666 1477,-630 1675,-630 1675,-666"/>
<text text-anchor="middle" x="1576" y="-645.1" font-family="Courier,monospace" font-size="11.00">HttpSourceConfigFactoryTest</text>
</g>
<!-- \\HttpSourceConfigFactoryTest&#45;&gt;\\CakeTestCase -->
<g id="edge43" class="edge"><title>\\HttpSourceConfigFactoryTest&#45;&gt;\\CakeTestCase</title>
<path fill="none" stroke="black" d="M1476.39,-645.963C1459.68,-641.297 1443.93,-633.522 1432,-621 1270.44,-451.449 1523.67,-266.514 1360,-99 1339.34,-77.8595 1309.12,-69.1675 1280.05,-66.4038"/>
<polygon fill="none" stroke="black" points="1280.05,-62.8952 1269.83,-65.6628 1279.55,-69.8769 1280.05,-62.8952"/>
</g>
<!-- \\HttpSourceConfigFactoryiAmExists -->
<g id="node23" class="node"><title>\\HttpSourceConfigFactoryiAmExists</title>
<polygon fill="none" stroke="black" points="1692,-1152 1460,-1152 1460,-1116 1692,-1116 1692,-1152"/>
<text text-anchor="middle" x="1576" y="-1131.1" font-family="Courier,monospace" font-size="11.00">HttpSourceConfigFactoryiAmExists</text>
</g>
<!-- \\HttpSourceConfigFactoryiAmExistsANDValid -->
<g id="node24" class="node"><title>\\HttpSourceConfigFactoryiAmExistsANDValid</title>
<polygon fill="none" stroke="black" points="1719,-1908 1433,-1908 1433,-1872 1719,-1872 1719,-1908"/>
<text text-anchor="middle" x="1576" y="-1887.1" font-family="Courier,monospace" font-size="11.00">HttpSourceConfigFactoryiAmExistsANDValid</text>
</g>
<!-- \\HttpSourceConfigFactory -->
<g id="node43" class="node"><title>\\HttpSourceConfigFactory</title>
<polygon fill="none" stroke="black" points="1279,-1840 1107,-1840 1107,-1804 1279,-1804 1279,-1840"/>
<text text-anchor="middle" x="1193" y="-1819.1" font-family="Courier,monospace" font-size="11.00">HttpSourceConfigFactory</text>
</g>
<!-- \\HttpSourceConfigFactoryiAmExistsANDValid&#45;&gt;\\HttpSourceConfigFactory -->
<g id="edge45" class="edge"><title>\\HttpSourceConfigFactoryiAmExistsANDValid&#45;&gt;\\HttpSourceConfigFactory</title>
<path fill="none" stroke="black" d="M1479.16,-1871.93C1463.39,-1868.97 1447.24,-1865.91 1432,-1863 1399.98,-1856.89 1392.09,-1854.71 1360,-1849 1337.21,-1844.94 1312.61,-1840.82 1289.49,-1837.07"/>
<polygon fill="none" stroke="black" points="1289.76,-1833.56 1279.33,-1835.42 1288.65,-1840.47 1289.76,-1833.56"/>
</g>
<!-- \\HttpSourceConfigiAmExistsANDValid -->
<g id="node25" class="node"><title>\\HttpSourceConfigiAmExistsANDValid</title>
<polygon fill="none" stroke="black" points="933,-2124 695,-2124 695,-2088 933,-2088 933,-2124"/>
<text text-anchor="middle" x="814" y="-2103.1" font-family="Courier,monospace" font-size="11.00">HttpSourceConfigiAmExistsANDValid</text>
</g>
<!-- \\HttpSourceConfig -->
<g id="node46" class="node"><title>\\HttpSourceConfig</title>
<polygon fill="none" stroke="black" points="507,-2070 383,-2070 383,-2034 507,-2034 507,-2070"/>
<text text-anchor="middle" x="445" y="-2049.1" font-family="Courier,monospace" font-size="11.00">HttpSourceConfig</text>
</g>
<!-- \\HttpSourceConfigiAmExistsANDValid&#45;&gt;\\HttpSourceConfig -->
<g id="edge47" class="edge"><title>\\HttpSourceConfigiAmExistsANDValid&#45;&gt;\\HttpSourceConfig</title>
<path fill="none" stroke="black" d="M694.451,-2088.51C636.257,-2079.99 568.18,-2070.03 517.859,-2062.66"/>
<polygon fill="none" stroke="black" points="518.122,-2059.16 507.721,-2061.18 517.109,-2066.09 518.122,-2059.16"/>
</g>
<!-- \\HttpSourceEndpointiAmExistsANDValid -->
<g id="node26" class="node"><title>\\HttpSourceEndpointiAmExistsANDValid</title>
<polygon fill="none" stroke="black" points="940,-2070 688,-2070 688,-2034 940,-2034 940,-2070"/>
<text text-anchor="middle" x="814" y="-2049.1" font-family="Courier,monospace" font-size="11.00">HttpSourceEndpointiAmExistsANDValid</text>
</g>
<!-- \\HttpSourceEndpoint -->
<g id="node47" class="node"><title>\\HttpSourceEndpoint</title>
<polygon fill="none" stroke="black" points="514,-2016 376,-2016 376,-1980 514,-1980 514,-2016"/>
<text text-anchor="middle" x="445" y="-1995.1" font-family="Courier,monospace" font-size="11.00">HttpSourceEndpoint</text>
</g>
<!-- \\HttpSourceEndpointiAmExistsANDValid&#45;&gt;\\HttpSourceEndpoint -->
<g id="edge49" class="edge"><title>\\HttpSourceEndpointiAmExistsANDValid&#45;&gt;\\HttpSourceEndpoint</title>
<path fill="none" stroke="black" d="M690.872,-2033.98C635.89,-2025.94 572.701,-2016.69 524.151,-2009.58"/>
<polygon fill="none" stroke="black" points="524.422,-2006.09 514.021,-2008.1 523.409,-2013.01 524.422,-2006.09"/>
</g>
<!-- \\HttpSourceConditioniAmExistsANDValid -->
<g id="node27" class="node"><title>\\HttpSourceConditioniAmExistsANDValid</title>
<polygon fill="none" stroke="black" points="1706,-2124 1446,-2124 1446,-2088 1706,-2088 1706,-2124"/>
<text text-anchor="middle" x="1576" y="-2103.1" font-family="Courier,monospace" font-size="11.00">HttpSourceConditioniAmExistsANDValid</text>
</g>
<!-- \\HttpSourceCondition -->
<g id="node44" class="node"><title>\\HttpSourceCondition</title>
<polygon fill="none" stroke="black" points="1265,-2002 1121,-2002 1121,-1966 1265,-1966 1265,-2002"/>
<text text-anchor="middle" x="1193" y="-1981.1" font-family="Courier,monospace" font-size="11.00">HttpSourceCondition</text>
</g>
<!-- \\HttpSourceConditioniAmExistsANDValid&#45;&gt;\\HttpSourceCondition -->
<g id="edge51" class="edge"><title>\\HttpSourceConditioniAmExistsANDValid&#45;&gt;\\HttpSourceCondition</title>
<path fill="none" stroke="black" d="M1453,-2087.99C1445.74,-2085.38 1438.69,-2082.41 1432,-2079 1392.78,-2059.02 1399.47,-2030.48 1360,-2011 1334.2,-1998.26 1303.69,-1991.32 1275.85,-1987.6"/>
<polygon fill="none" stroke="black" points="1276.08,-1984.11 1265.73,-1986.37 1275.24,-1991.05 1276.08,-1984.11"/>
</g>
<!-- \\HttpSourceFieldiAmExistsANDValid -->
<g id="node28" class="node"><title>\\HttpSourceFieldiAmExistsANDValid</title>
<polygon fill="none" stroke="black" points="1309,-2056 1077,-2056 1077,-2020 1309,-2020 1309,-2056"/>
<text text-anchor="middle" x="1193" y="-2035.1" font-family="Courier,monospace" font-size="11.00">HttpSourceFieldiAmExistsANDValid</text>
</g>
<!-- \\HttpSourceField -->
<g id="node40" class="node"><title>\\HttpSourceField</title>
<polygon fill="none" stroke="black" points="873,-1962 755,-1962 755,-1926 873,-1926 873,-1962"/>
<text text-anchor="middle" x="814" y="-1941.1" font-family="Courier,monospace" font-size="11.00">HttpSourceField</text>
</g>
<!-- \\HttpSourceFieldiAmExistsANDValid&#45;&gt;\\HttpSourceField -->
<g id="edge53" class="edge"><title>\\HttpSourceFieldiAmExistsANDValid&#45;&gt;\\HttpSourceField</title>
<path fill="none" stroke="black" d="M1076.27,-2024.45C1059.17,-2020.94 1041.96,-2016.53 1026,-2011 991.413,-1999.01 988.402,-1983.51 954,-1971 931.507,-1962.82 906.033,-1956.97 883.039,-1952.85"/>
<polygon fill="none" stroke="black" points="883.458,-1949.37 873.011,-1951.14 882.278,-1956.27 883.458,-1949.37"/>
</g>
<!-- \\HttpSourceResultiAmExistsANDValid -->
<g id="node29" class="node"><title>\\HttpSourceResultiAmExistsANDValid</title>
<polygon fill="none" stroke="black" points="1312,-2110 1074,-2110 1074,-2074 1312,-2074 1312,-2110"/>
<text text-anchor="middle" x="1193" y="-2089.1" font-family="Courier,monospace" font-size="11.00">HttpSourceResultiAmExistsANDValid</text>
</g>
<!-- \\HttpSourceResult -->
<g id="node41" class="node"><title>\\HttpSourceResult</title>
<polygon fill="none" stroke="black" points="876,-2016 752,-2016 752,-1980 876,-1980 876,-2016"/>
<text text-anchor="middle" x="814" y="-1995.1" font-family="Courier,monospace" font-size="11.00">HttpSourceResult</text>
</g>
<!-- \\HttpSourceResultiAmExistsANDValid&#45;&gt;\\HttpSourceResult -->
<g id="edge55" class="edge"><title>\\HttpSourceResultiAmExistsANDValid&#45;&gt;\\HttpSourceResult</title>
<path fill="none" stroke="black" d="M1073.15,-2077.8C1057.08,-2074.4 1040.98,-2070.19 1026,-2065 991.413,-2053.01 988.402,-2037.51 954,-2025 932.717,-2017.26 908.766,-2011.6 886.772,-2007.53"/>
<polygon fill="none" stroke="black" points="887.277,-2004.07 876.82,-2005.77 886.057,-2010.96 887.277,-2004.07"/>
</g>
<!-- \\HttpSourceBasicsTest -->
<g id="node30" class="node"><title>\\HttpSourceBasicsTest</title>
<polygon fill="none" stroke="black" points="1652,-1638 1500,-1638 1500,-1602 1652,-1602 1652,-1638"/>
<text text-anchor="middle" x="1576" y="-1617.1" font-family="Courier,monospace" font-size="11.00">HttpSourceBasicsTest</text>
</g>
<!-- \\HttpSourceBasicsTest&#45;&gt;\\HttpSourceAppTest -->
<g id="edge57" class="edge"><title>\\HttpSourceBasicsTest&#45;&gt;\\HttpSourceAppTest</title>
<path fill="none" stroke="black" d="M1499.87,-1620C1432.95,-1620 1336.07,-1620 1269.14,-1620"/>
<polygon fill="none" stroke="black" points="1269.08,-1616.5 1259.08,-1620 1269.08,-1623.5 1269.08,-1616.5"/>
</g>
<!-- \\HttpSourceToDboAssociationTest -->
<g id="node31" class="node"><title>\\HttpSourceToDboAssociationTest</title>
<polygon fill="none" stroke="black" points="1685,-1692 1467,-1692 1467,-1656 1685,-1656 1685,-1692"/>
<text text-anchor="middle" x="1576" y="-1671.1" font-family="Courier,monospace" font-size="11.00">HttpSourceToDboAssociationTest</text>
</g>
<!-- \\HttpSourceToDboAssociationTest&#45;&gt;\\HttpSourceAppTest -->
<g id="edge59" class="edge"><title>\\HttpSourceToDboAssociationTest&#45;&gt;\\HttpSourceAppTest</title>
<path fill="none" stroke="black" d="M1466.25,-1658.53C1403.17,-1649.63 1325.52,-1638.68 1269.14,-1630.74"/>
<polygon fill="none" stroke="black" points="1269.61,-1627.27 1259.22,-1629.34 1268.64,-1634.2 1269.61,-1627.27"/>
</g>
<!-- \\HttpSourceModelTest -->
<g id="node32" class="node"><title>\\HttpSourceModelTest</title>
<polygon fill="none" stroke="black" points="1648,-1206 1504,-1206 1504,-1170 1648,-1170 1648,-1206"/>
<text text-anchor="middle" x="1576" y="-1185.1" font-family="Courier,monospace" font-size="11.00">HttpSourceModelTest</text>
</g>
<!-- \\HttpSourceModelTest&#45;&gt;\\CakeTestCase -->
<g id="edge61" class="edge"><title>\\HttpSourceModelTest&#45;&gt;\\CakeTestCase</title>
<path fill="none" stroke="black" d="M1503.32,-1191.74C1477.15,-1189.09 1449.74,-1180.96 1432,-1161 1274.86,-984.195 1519.34,-273.822 1360,-99 1339.56,-76.573 1308.42,-67.8508 1278.54,-65.4242"/>
<polygon fill="none" stroke="black" points="1278.66,-61.9254 1268.47,-64.8319 1278.25,-68.9133 1278.66,-61.9254"/>
</g>
<!-- \\HttpSourceTestModel -->
<g id="node33" class="node"><title>\\HttpSourceTestModel</title>
<polygon fill="none" stroke="black" points="1648,-1800 1504,-1800 1504,-1764 1648,-1764 1648,-1800"/>
<text text-anchor="middle" x="1576" y="-1779.1" font-family="Courier,monospace" font-size="11.00">HttpSourceTestModel</text>
</g>
<!-- \\HttpSourceTestModel&#45;&gt;\\HttpSourceModel -->
<g id="edge63" class="edge"><title>\\HttpSourceTestModel&#45;&gt;\\HttpSourceModel</title>
<path fill="none" stroke="black" d="M1503.06,-1774.19C1433.8,-1766.78 1330.42,-1755.71 1262.37,-1748.43"/>
<polygon fill="none" stroke="black" points="1262.49,-1744.92 1252.18,-1747.33 1261.75,-1751.88 1262.49,-1744.92"/>
</g>
<!-- \\HttpSourceConnectionTest -->
<g id="node34" class="node"><title>\\HttpSourceConnectionTest</title>
<polygon fill="none" stroke="black" points="1665,-1098 1487,-1098 1487,-1062 1665,-1062 1665,-1098"/>
<text text-anchor="middle" x="1576" y="-1077.1" font-family="Courier,monospace" font-size="11.00">HttpSourceConnectionTest</text>
</g>
<!-- \\HttpSourceConnectionTest&#45;&gt;\\CakeTestCase -->
<g id="edge65" class="edge"><title>\\HttpSourceConnectionTest&#45;&gt;\\CakeTestCase</title>
<path fill="none" stroke="black" d="M1486.14,-1081.07C1465.69,-1076.89 1445.92,-1068.54 1432,-1053 1290.16,-894.629 1503.81,-255.582 1360,-99 1339.47,-76.6512 1308.31,-67.9441 1278.45,-65.5077"/>
<polygon fill="none" stroke="black" points="1278.57,-62.0092 1268.38,-64.9111 1278.16,-68.9969 1278.57,-62.0092"/>
</g>
<!-- \\HttpSourceTest -->
<g id="node35" class="node"><title>\\HttpSourceTest</title>
<polygon fill="none" stroke="black" points="1631,-612 1521,-612 1521,-576 1631,-576 1631,-612"/>
<text text-anchor="middle" x="1576" y="-591.1" font-family="Courier,monospace" font-size="11.00">HttpSourceTest</text>
</g>
<!-- \\HttpSourceTest&#45;&gt;\\CakeTestCase -->
<g id="edge67" class="edge"><title>\\HttpSourceTest&#45;&gt;\\CakeTestCase</title>
<path fill="none" stroke="black" d="M1520.27,-598.024C1490.08,-597.039 1454.47,-590.212 1432,-567 1285.64,-415.778 1508.24,-248.376 1360,-99 1339.27,-78.1143 1309.19,-69.4408 1280.25,-66.6198"/>
<polygon fill="none" stroke="black" points="1280.32,-63.1147 1270.08,-65.8555 1279.79,-70.095 1280.32,-63.1147"/>
</g>
<!-- \\HttpTestSource -->
<g id="node36" class="node"><title>\\HttpTestSource</title>
<polygon fill="none" stroke="black" points="1631,-1962 1521,-1962 1521,-1926 1631,-1926 1631,-1962"/>
<text text-anchor="middle" x="1576" y="-1941.1" font-family="Courier,monospace" font-size="11.00">HttpTestSource</text>
</g>
<!-- \\HttpTestSource&#45;&gt;\\HttpSource -->
<g id="edge69" class="edge"><title>\\HttpTestSource&#45;&gt;\\HttpSource</title>
<path fill="none" stroke="black" d="M1520.25,-1933.64C1493.54,-1928.65 1461.11,-1922.56 1432,-1917 1399.98,-1910.89 1392.09,-1908.71 1360,-1903 1321.91,-1896.22 1278.79,-1889.27 1245.92,-1884.12"/>
<polygon fill="none" stroke="black" points="1246.04,-1880.59 1235.62,-1882.51 1244.96,-1887.51 1246.04,-1880.59"/>
</g>
<!-- \\HttpSourceUtilityTest -->
<g id="node37" class="node"><title>\\HttpSourceUtilityTest</title>
<polygon fill="none" stroke="black" points="1655,-558 1497,-558 1497,-522 1655,-522 1655,-558"/>
<text text-anchor="middle" x="1576" y="-537.1" font-family="Courier,monospace" font-size="11.00">HttpSourceUtilityTest</text>
</g>
<!-- \\HttpSourceUtilityTest&#45;&gt;\\CakeTestCase -->
<g id="edge71" class="edge"><title>\\HttpSourceUtilityTest&#45;&gt;\\CakeTestCase</title>
<path fill="none" stroke="black" d="M1496.91,-541.802C1473.18,-538.351 1448.97,-530.198 1432,-513 1300.81,-380.074 1492.84,-230.272 1360,-99 1339.26,-78.5025 1309.48,-69.8436 1280.8,-66.9234"/>
<polygon fill="none" stroke="black" points="1280.97,-63.4255 1270.72,-66.1199 1280.41,-70.4034 1280.97,-63.4255"/>
</g>
<!-- \\HttpSourceException -->
<g id="node38" class="node"><title>\\HttpSourceException</title>
<polygon fill="none" stroke="black" points="1648,-504 1504,-504 1504,-468 1648,-468 1648,-504"/>
<text text-anchor="middle" x="1576" y="-483.1" font-family="Courier,monospace" font-size="11.00">HttpSourceException</text>
</g>
<!-- \\CakeException -->
<g id="node95" class="node"><title>\\CakeException</title>
<ellipse fill="none" stroke="black" cx="1193" cy="-18" rx="85.7684" ry="18.3848"/>
<text text-anchor="middle" x="1193" y="-14.4" font-family="Times Roman,serif" font-size="14.00" fill="gray">\CakeException</text>
</g>
<!-- \\HttpSourceException&#45;&gt;\\CakeException -->
<g id="edge73" class="edge"><title>\\HttpSourceException&#45;&gt;\\CakeException</title>
<path fill="none" stroke="black" d="M1503.27,-488.619C1477.57,-485.737 1450.49,-477.737 1432,-459 1300.81,-326.074 1492.84,-176.272 1360,-45 1340.37,-25.6032 1312.65,-16.8077 1285.43,-13.4445"/>
<polygon fill="none" stroke="black" points="1285.74,-9.95789 1275.44,-12.4416 1285.04,-16.9229 1285.74,-9.95789"/>
</g>
<!-- \\HttpSourceConfigException -->
<g id="node39" class="node"><title>\\HttpSourceConfigException</title>
<polygon fill="none" stroke="black" points="1668,-396 1484,-396 1484,-360 1668,-360 1668,-396"/>
<text text-anchor="middle" x="1576" y="-375.1" font-family="Courier,monospace" font-size="11.00">HttpSourceConfigException</text>
</g>
<!-- \\HttpSourceConfigException&#45;&gt;\\CakeException -->
<g id="edge75" class="edge"><title>\\HttpSourceConfigException&#45;&gt;\\CakeException</title>
<path fill="none" stroke="black" d="M1570.17,-359.757C1550.83,-302.46 1482.95,-125.171 1360,-45 1339.24,-31.4647 1314.03,-23.9186 1289.55,-19.884"/>
<polygon fill="none" stroke="black" points="1289.89,-16.3964 1279.48,-18.4099 1288.87,-23.3224 1289.89,-16.3964"/>
</g>
<!-- \\HttpSourceField&#45;&gt;\\HttpSourceEndpointItem -->
<g id="edge77" class="edge"><title>\\HttpSourceField&#45;&gt;\\HttpSourceEndpointItem</title>
<path fill="none" stroke="black" d="M754.714,-1944C696.386,-1944 606.447,-1944 538.488,-1944"/>
<polygon fill="none" stroke="black" points="538.203,-1940.5 528.203,-1944 538.203,-1947.5 538.203,-1940.5"/>
</g>
<!-- \\HttpSourceResult&#45;&gt;\\HttpSourceEndpointItem -->
<g id="edge79" class="edge"><title>\\HttpSourceResult&#45;&gt;\\HttpSourceEndpointItem</title>
<path fill="none" stroke="black" d="M751.404,-1988.84C692.926,-1980.28 604.873,-1967.4 538.145,-1957.63"/>
<polygon fill="none" stroke="black" points="538.446,-1954.14 528.044,-1956.15 537.432,-1961.06 538.446,-1954.14"/>
</g>
<!-- \\HttpSourceEndpointItem&#45;&gt;\\HttpSourceConfigFactoryItem -->
<g id="edge81" class="edge"><title>\\HttpSourceEndpointItem&#45;&gt;\\HttpSourceConfigFactoryItem</title>
<path fill="none" stroke="black" d="M361.871,-1956.16C337.896,-1960.24 311.791,-1965.25 288,-1971 250.643,-1980.03 209.55,-1992.83 176.899,-2003.69"/>
<polygon fill="none" stroke="black" points="175.418,-2000.5 167.051,-2007 177.645,-2007.13 175.418,-2000.5"/>
</g>
<!-- \\HttpSourceCondition&#45;&gt;\\HttpSourceField -->
<g id="edge83" class="edge"><title>\\HttpSourceCondition&#45;&gt;\\HttpSourceField</title>
<path fill="none" stroke="black" d="M1120.37,-1976.33C1051.99,-1969.12 950.284,-1958.38 883.08,-1951.29"/>
<polygon fill="none" stroke="black" points="883.324,-1947.8 873.012,-1950.23 882.589,-1954.76 883.324,-1947.8"/>
</g>
<!-- \\HttpSourceConfig&#45;&gt;\\HttpSourceConfigFactoryItem -->
<g id="edge85" class="edge"><title>\\HttpSourceConfig&#45;&gt;\\HttpSourceConfigFactoryItem</title>
<path fill="none" stroke="black" d="M382.343,-2046.86C338.385,-2043.25 278.429,-2038.33 226.533,-2034.07"/>
<polygon fill="none" stroke="black" points="226.521,-2030.56 216.269,-2033.23 225.949,-2037.54 226.521,-2030.56"/>
</g>
<!-- \\HttpSourceEndpoint&#45;&gt;\\HttpSourceConfigFactoryItem -->
<g id="edge87" class="edge"><title>\\HttpSourceEndpoint&#45;&gt;\\HttpSourceConfigFactoryItem</title>
<path fill="none" stroke="black" d="M375.63,-2003.69C332.33,-2007.25 275.632,-2011.9 226.27,-2015.95"/>
<polygon fill="none" stroke="black" points="225.859,-2012.47 216.179,-2016.78 226.432,-2019.45 225.859,-2012.47"/>
</g>
<!-- \\HttpSourceModel&#45;&gt;\\AppModel -->
<g id="edge89" class="edge"><title>\\HttpSourceModel&#45;&gt;\\AppModel</title>
<path fill="none" stroke="black" d="M1133.85,-1724.07C1096.15,-1709.94 1050.01,-1685.75 1026,-1647 943.843,-1514.41 1056.36,-362.701 954,-245 936.864,-225.295 910.076,-217.246 884.501,-214.592"/>
<polygon fill="none" stroke="black" points="884.648,-211.092 874.406,-213.805 884.104,-218.071 884.648,-211.092"/>
</g>
<!-- \\Object -->
<g id="node105" class="node"><title>\\Object</title>
<ellipse fill="none" stroke="black" cx="814" cy="-326" rx="45.9619" ry="18.3848"/>
<text text-anchor="middle" x="814" y="-322.4" font-family="Times Roman,serif" font-size="14.00" fill="gray">\Object</text>
</g>
<!-- \\HttpSourceConnection&#45;&gt;\\Object -->
<g id="edge91" class="edge"><title>\\HttpSourceConnection&#45;&gt;\\Object</title>
<path fill="none" stroke="black" d="M1116.86,-1937.37C1084.15,-1936.14 1048.39,-1928.09 1026,-1903 910.864,-1773.93 1069.42,-476.818 954,-348 932.851,-324.396 897.539,-318.976 867.672,-319.416"/>
<polygon fill="none" stroke="black" points="867.231,-315.93 857.367,-319.796 867.49,-322.925 867.231,-315.93"/>
</g>
<!-- \\DataSource -->
<g id="node107" class="node"><title>\\DataSource</title>
<ellipse fill="none" stroke="black" cx="814" cy="-272" rx="72.1249" ry="18.3848"/>
<text text-anchor="middle" x="814" y="-268.4" font-family="Times Roman,serif" font-size="14.00" fill="gray">\DataSource</text>
</g>
<!-- \\HttpSource&#45;&gt;\\DataSource -->
<g id="edge93" class="edge"><title>\\HttpSource&#45;&gt;\\DataSource</title>
<path fill="none" stroke="black" d="M1150.42,-1882.51C1111.84,-1885.74 1056.5,-1883.19 1026,-1849 911.224,-1720.35 1066.82,-429.371 954,-299 939.251,-281.956 917.283,-273.621 895.096,-269.956"/>
<polygon fill="none" stroke="black" points="895.29,-266.45 884.912,-268.586 894.356,-273.388 895.29,-266.45"/>
</g>
<!-- \\HttpSourceUtility -->
<g id="node51" class="node"><title>\\HttpSourceUtility</title>
<polygon fill="none" stroke="black" points="1641,-450 1511,-450 1511,-414 1641,-414 1641,-450"/>
<text text-anchor="middle" x="1576" y="-429.1" font-family="Courier,monospace" font-size="11.00">HttpSourceUtility</text>
</g>
<!-- \\HttpSourceTestFixture -->
<g id="node52" class="node"><title>\\HttpSourceTestFixture</title>
<polygon fill="none" stroke="black" points="1655,-1422 1497,-1422 1497,-1386 1655,-1386 1655,-1422"/>
<text text-anchor="middle" x="1576" y="-1401.1" font-family="Courier,monospace" font-size="11.00">HttpSourceTestFixture</text>
</g>
<!-- \\HttpSourceTestFixture&#45;&gt;\\CakeTestFixture -->
<g id="edge95" class="edge"><title>\\HttpSourceTestFixture&#45;&gt;\\CakeTestFixture</title>
<path fill="none" stroke="black" d="M1496.94,-1406.99C1472.77,-1403.71 1448.3,-1395.35 1432,-1377 1272.6,-1197.46 1521.64,-476.525 1360,-299 1342.03,-279.262 1315.77,-270.137 1289.37,-266.575"/>
<polygon fill="none" stroke="black" points="1289.58,-263.078 1279.26,-265.472 1288.82,-270.037 1289.58,-263.078"/>
</g>
</g>
</svg>
