<?xml version="1.0" encoding="UTF-8" standalone="no"?>
<!DOCTYPE svg PUBLIC "-//W3C//DTD SVG 1.1//EN"
 "http://www.w3.org/Graphics/SVG/1.1/DTD/svg11.dtd">
<!-- Generated by graphviz version 2.26.3 (20100126.1600)
 -->
<!-- Title: G Pages: 1 -->
<svg width="1744pt" height="2170pt"
 viewBox="0.00 0.00 1744.00 2170.00" xmlns="http://www.w3.org/2000/svg" xmlns:xlink="http://www.w3.org/1999/xlink">
<g id="graph1" class="graph" transform="scale(1 1) rotate(0) translate(4 2166)">
<title>G</title>
<polygon fill="white" stroke="white" points="-4,5 -4,-2166 1741,-2166 1741,5 -4,5"/>
<g id="graph2" class="cluster"><title>cluster_Global</title>
<polyline fill="none" stroke="gray" points="20,-352 1716,-352 "/>
<path fill="none" stroke="gray" d="M1716,-352C1722,-352 1728,-358 1728,-364"/>
<polyline fill="none" stroke="gray" points="1728,-364 1728,-2142 "/>
<path fill="none" stroke="gray" d="M1728,-2142C1728,-2148 1722,-2154 1716,-2154"/>
<polyline fill="none" stroke="gray" points="1716,-2154 20,-2154 "/>
<path fill="none" stroke="gray" d="M20,-2154C14,-2154 8,-2148 8,-2142"/>
<polyline fill="none" stroke="gray" points="8,-2142 8,-364 "/>
<path fill="none" stroke="gray" d="M8,-364C8,-358 14,-352 20,-352"/>
<text text-anchor="middle" x="868" y="-2140.1" font-family="Times Roman,serif" font-size="11.00" fill="gray">Global</text>
</g>
<!-- \\HttpSourceUtility -->
<g id="node2" class="node"><title>\\HttpSourceUtility</title>
<polygon fill="none" stroke="black" points="1641,-2124 1511,-2124 1511,-2088 1641,-2088 1641,-2124"/>
<text text-anchor="middle" x="1576" y="-2103.1" font-family="Courier,monospace" font-size="11.00">HttpSourceUtility</text>
</g>
<!-- \\HttpSourceTestFixture -->
<g id="node3" class="node"><title>\\HttpSourceTestFixture</title>
<polygon fill="none" stroke="black" points="1655,-1476 1497,-1476 1497,-1440 1655,-1440 1655,-1476"/>
<text text-anchor="middle" x="1576" y="-1455.1" font-family="Courier,monospace" font-size="11.00">HttpSourceTestFixture</text>
</g>
<!-- \\CakeTestFixture -->
<g id="node54" class="node"><title>\\CakeTestFixture</title>
<ellipse fill="none" stroke="black" cx="1193" cy="-326" rx="92.1303" ry="18.3848"/>
<text text-anchor="middle" x="1193" y="-322.4" font-family="Times Roman,serif" font-size="14.00" fill="gray">\CakeTestFixture</text>
</g>
<!-- \\HttpSourceTestFixture&#45;&gt;\\CakeTestFixture -->
<g id="edge3" class="edge"><title>\\HttpSourceTestFixture&#45;&gt;\\CakeTestFixture</title>
<path fill="none" stroke="black" d="M1496.93,-1461C1472.77,-1457.71 1448.29,-1449.36 1432,-1431 1271.89,-1250.61 1524.96,-523.971 1360,-348 1340.05,-326.72 1310.3,-318.682 1281.41,-316.799"/>
<polygon fill="none" stroke="black" points="1281.38,-313.294 1271.24,-316.377 1281.09,-320.288 1281.38,-313.294"/>
</g>
<!-- \\HttpSourceAppTest -->
<g id="node4" class="node"><title>\\HttpSourceAppTest</title>
<polygon fill="none" stroke="black" points="1259,-2070 1127,-2070 1127,-2034 1259,-2034 1259,-2070"/>
<text text-anchor="start" x="1159" y="-2057.43" font-family="Courier,monospace" font-size="11.00">«abstract»</text>
<text text-anchor="start" x="1135.5" y="-2044.23" font-family="Courier,monospace" font-size="11.00">HttpSourceAppTest</text>
</g>
<!-- \\CakeTestCase -->
<g id="node56" class="node"><title>\\CakeTestCase</title>
<ellipse fill="none" stroke="black" cx="1193" cy="-234" rx="82.0244" ry="18.3848"/>
<text text-anchor="middle" x="1193" y="-230.4" font-family="Times Roman,serif" font-size="14.00" fill="gray">\CakeTestCase</text>
</g>
<!-- \\HttpSourceAppTest&#45;&gt;\\CakeTestCase -->
<g id="edge5" class="edge"><title>\\HttpSourceAppTest&#45;&gt;\\CakeTestCase</title>
<path fill="none" stroke="black" d="M1259.31,-2060.77C1305.68,-2062.76 1364.72,-2056.06 1396,-2016 1425.2,-1978.6 1423.2,-346.871 1396,-308 1369.61,-270.293 1321.89,-251.732 1279.34,-242.626"/>
<polygon fill="none" stroke="black" points="1280,-239.188 1269.51,-240.665 1278.63,-246.052 1280,-239.188"/>
</g>
<!-- \\HttpSourceUsersDocumentFixture -->
<g id="node5" class="node"><title>\\HttpSourceUsersDocumentFixture</title>
<polygon fill="none" stroke="black" points="1685,-1422 1467,-1422 1467,-1386 1685,-1386 1685,-1422"/>
<text text-anchor="middle" x="1576" y="-1401.1" font-family="Courier,monospace" font-size="11.00">HttpSourceUsersDocumentFixture</text>
</g>
<!-- \\HttpSourceUsersDocumentFixture&#45;&gt;\\CakeTestFixture -->
<g id="edge7" class="edge"><title>\\HttpSourceUsersDocumentFixture&#45;&gt;\\CakeTestFixture</title>
<path fill="none" stroke="black" d="M1466.29,-1399.52C1453.26,-1394.65 1441.3,-1387.45 1432,-1377 1279.54,-1205.83 1517.06,-514.964 1360,-348 1340.1,-326.85 1310.52,-318.797 1281.75,-316.863"/>
<polygon fill="none" stroke="black" points="1281.77,-313.361 1271.63,-316.423 1281.47,-320.354 1281.77,-313.361"/>
</g>
<!-- \\HttpSourceUserFixture -->
<g id="node6" class="node"><title>\\HttpSourceUserFixture</title>
<polygon fill="none" stroke="black" points="1655,-1530 1497,-1530 1497,-1494 1655,-1494 1655,-1530"/>
<text text-anchor="middle" x="1576" y="-1509.1" font-family="Courier,monospace" font-size="11.00">HttpSourceUserFixture</text>
</g>
<!-- \\HttpSourceUserFixture&#45;&gt;\\CakeTestFixture -->
<g id="edge9" class="edge"><title>\\HttpSourceUserFixture&#45;&gt;\\CakeTestFixture</title>
<path fill="none" stroke="black" d="M1496.9,-1515.03C1472.73,-1511.74 1448.26,-1503.38 1432,-1485 1264.24,-1295.39 1532.86,-532.98 1360,-348 1340.09,-326.689 1310.34,-318.644 1281.44,-316.764"/>
<polygon fill="none" stroke="black" points="1281.41,-313.259 1271.28,-316.344 1281.12,-320.253 1281.41,-313.259"/>
</g>
<!-- \\HttpSourceDocument -->
<g id="node7" class="node"><title>\\HttpSourceDocument</title>
<polygon fill="none" stroke="black" points="1645,-1638 1507,-1638 1507,-1602 1645,-1602 1645,-1638"/>
<text text-anchor="middle" x="1576" y="-1617.1" font-family="Courier,monospace" font-size="11.00">HttpSourceDocument</text>
</g>
<!-- \\HttpSourceModel -->
<g id="node39" class="node"><title>\\HttpSourceModel</title>
<polygon fill="none" stroke="black" points="1252,-1611 1134,-1611 1134,-1575 1252,-1575 1252,-1611"/>
<text text-anchor="middle" x="1193" y="-1590.1" font-family="Courier,monospace" font-size="11.00">HttpSourceModel</text>
</g>
<!-- \\HttpSourceDocument&#45;&gt;\\HttpSourceModel -->
<g id="edge11" class="edge"><title>\\HttpSourceDocument&#45;&gt;\\HttpSourceModel</title>
<path fill="none" stroke="black" d="M1506.64,-1615.11C1437.44,-1610.23 1331.72,-1602.78 1262.48,-1597.9"/>
<polygon fill="none" stroke="black" points="1262.33,-1594.38 1252.11,-1597.17 1261.84,-1601.36 1262.33,-1594.38"/>
</g>
<!-- \\HttpSourceUser -->
<g id="node8" class="node"><title>\\HttpSourceUser</title>
<polygon fill="none" stroke="black" points="1631,-1368 1521,-1368 1521,-1332 1631,-1332 1631,-1368"/>
<text text-anchor="middle" x="1576" y="-1347.1" font-family="Courier,monospace" font-size="11.00">HttpSourceUser</text>
</g>
<!-- \\AppModel -->
<g id="node61" class="node"><title>\\AppModel</title>
<ellipse fill="none" stroke="black" cx="814" cy="-218" rx="62.2254" ry="18.3848"/>
<text text-anchor="middle" x="814" y="-214.4" font-family="Times Roman,serif" font-size="14.00" fill="gray">\AppModel</text>
</g>
<!-- \\HttpSourceUser&#45;&gt;\\AppModel -->
<g id="edge13" class="edge"><title>\\HttpSourceUser&#45;&gt;\\AppModel</title>
<path fill="none" stroke="black" d="M1520.24,-1354.73C1489.66,-1354.06 1453.66,-1347.31 1432,-1323 1280.25,-1152.68 1517.79,-463.741 1360,-299 1308.33,-245.053 1099.67,-273.342 1026,-261 993.67,-255.584 986.097,-251.66 954,-245 928.657,-239.741 900.66,-234.274 876.406,-229.646"/>
<polygon fill="none" stroke="black" points="876.737,-226.146 866.259,-227.717 875.429,-233.023 876.737,-226.146"/>
</g>
<!-- \\HttpSourceUtilityTest -->
<g id="node9" class="node"><title>\\HttpSourceUtilityTest</title>
<polygon fill="none" stroke="black" points="1655,-1098 1497,-1098 1497,-1062 1655,-1062 1655,-1098"/>
<text text-anchor="middle" x="1576" y="-1077.1" font-family="Courier,monospace" font-size="11.00">HttpSourceUtilityTest</text>
</g>
<!-- \\HttpSourceUtilityTest&#45;&gt;\\CakeTestCase -->
<g id="edge15" class="edge"><title>\\HttpSourceUtilityTest&#45;&gt;\\CakeTestCase</title>
<path fill="none" stroke="black" d="M1496.82,-1082.71C1472.79,-1079.37 1448.43,-1071.06 1432,-1053 1313.8,-923.114 1477.94,-396.12 1360,-266 1340.58,-244.576 1311.57,-234.861 1283.16,-231.033"/>
<polygon fill="none" stroke="black" points="1283.47,-227.546 1273.15,-229.914 1282.7,-234.503 1283.47,-227.546"/>
</g>
<!-- \\HttpSourceToDboAssociationTest -->
<g id="node10" class="node"><title>\\HttpSourceToDboAssociationTest</title>
<polygon fill="none" stroke="black" points="1685,-2016 1467,-2016 1467,-1980 1685,-1980 1685,-2016"/>
<text text-anchor="middle" x="1576" y="-1995.1" font-family="Courier,monospace" font-size="11.00">HttpSourceToDboAssociationTest</text>
</g>
<!-- \\HttpSourceToDboAssociationTest&#45;&gt;\\HttpSourceAppTest -->
<g id="edge17" class="edge"><title>\\HttpSourceToDboAssociationTest&#45;&gt;\\HttpSourceAppTest</title>
<path fill="none" stroke="black" d="M1466.25,-2013.47C1403.17,-2022.37 1325.52,-2033.32 1269.14,-2041.26"/>
<polygon fill="none" stroke="black" points="1268.64,-2037.8 1259.22,-2042.66 1269.61,-2044.73 1268.64,-2037.8"/>
</g>
<!-- \\HttpSourceModelTest -->
<g id="node11" class="node"><title>\\HttpSourceModelTest</title>
<polygon fill="none" stroke="black" points="1648,-990 1504,-990 1504,-954 1648,-954 1648,-990"/>
<text text-anchor="middle" x="1576" y="-969.1" font-family="Courier,monospace" font-size="11.00">HttpSourceModelTest</text>
</g>
<!-- \\HttpSourceModelTest&#45;&gt;\\CakeTestCase -->
<g id="edge19" class="edge"><title>\\HttpSourceModelTest&#45;&gt;\\CakeTestCase</title>
<path fill="none" stroke="black" d="M1503.34,-975.343C1477.34,-972.613 1450.03,-964.529 1432,-945 1226.13,-722.035 1565.42,-489.373 1360,-266 1340.52,-244.813 1311.65,-235.124 1283.37,-231.246"/>
<polygon fill="none" stroke="black" points="1283.74,-227.766 1273.41,-230.108 1282.95,-234.721 1283.74,-227.766"/>
</g>
<!-- \\HttpSourceTestModel -->
<g id="node12" class="node"><title>\\HttpSourceTestModel</title>
<polygon fill="none" stroke="black" points="1648,-1584 1504,-1584 1504,-1548 1648,-1548 1648,-1584"/>
<text text-anchor="middle" x="1576" y="-1563.1" font-family="Courier,monospace" font-size="11.00">HttpSourceTestModel</text>
</g>
<!-- \\HttpSourceTestModel&#45;&gt;\\HttpSourceModel -->
<g id="edge21" class="edge"><title>\\HttpSourceTestModel&#45;&gt;\\HttpSourceModel</title>
<path fill="none" stroke="black" d="M1503.06,-1571.14C1433.8,-1576.02 1330.42,-1583.31 1262.37,-1588.11"/>
<polygon fill="none" stroke="black" points="1261.9,-1584.63 1252.18,-1588.83 1262.4,-1591.62 1261.9,-1584.63"/>
</g>
<!-- \\HttpSourceBasicsTest -->
<g id="node13" class="node"><title>\\HttpSourceBasicsTest</title>
<polygon fill="none" stroke="black" points="1652,-2070 1500,-2070 1500,-2034 1652,-2034 1652,-2070"/>
<text text-anchor="middle" x="1576" y="-2049.1" font-family="Courier,monospace" font-size="11.00">HttpSourceBasicsTest</text>
</g>
<!-- \\HttpSourceBasicsTest&#45;&gt;\\HttpSourceAppTest -->
<g id="edge23" class="edge"><title>\\HttpSourceBasicsTest&#45;&gt;\\HttpSourceAppTest</title>
<path fill="none" stroke="black" d="M1499.87,-2052C1432.95,-2052 1336.07,-2052 1269.14,-2052"/>
<polygon fill="none" stroke="black" points="1269.08,-2048.5 1259.08,-2052 1269.08,-2055.5 1269.08,-2048.5"/>
</g>
<!-- \\HttpSourceTest -->
<g id="node14" class="node"><title>\\HttpSourceTest</title>
<polygon fill="none" stroke="black" points="1631,-936 1521,-936 1521,-900 1631,-900 1631,-936"/>
<text text-anchor="middle" x="1576" y="-915.1" font-family="Courier,monospace" font-size="11.00">HttpSourceTest</text>
</g>
<!-- \\HttpSourceTest&#45;&gt;\\CakeTestCase -->
<g id="edge25" class="edge"><title>\\HttpSourceTest&#45;&gt;\\CakeTestCase</title>
<path fill="none" stroke="black" d="M1520.29,-922.356C1489.91,-921.517 1454.11,-914.727 1432,-891 1241.39,-686.422 1550.2,-470.956 1360,-266 1340.42,-244.902 1311.53,-235.233 1283.26,-231.348"/>
<polygon fill="none" stroke="black" points="1283.64,-227.868 1273.3,-230.206 1282.84,-234.823 1283.64,-227.868"/>
</g>
<!-- \\HttpTestSource -->
<g id="node15" class="node"><title>\\HttpTestSource</title>
<polygon fill="none" stroke="black" points="1631,-1800 1521,-1800 1521,-1764 1631,-1764 1631,-1800"/>
<text text-anchor="middle" x="1576" y="-1779.1" font-family="Courier,monospace" font-size="11.00">HttpTestSource</text>
</g>
<!-- \\HttpSource -->
<g id="node41" class="node"><title>\\HttpSource</title>
<polygon fill="none" stroke="black" points="1235,-1746 1151,-1746 1151,-1710 1235,-1710 1235,-1746"/>
<text text-anchor="start" x="1159" y="-1733.43" font-family="Courier,monospace" font-size="11.00">«abstract»</text>
<text text-anchor="start" x="1159" y="-1720.23" font-family="Courier,monospace" font-size="11.00">HttpSource</text>
</g>
<!-- \\HttpTestSource&#45;&gt;\\HttpSource -->
<g id="edge27" class="edge"><title>\\HttpTestSource&#45;&gt;\\HttpSource</title>
<path fill="none" stroke="black" d="M1520.31,-1774.15C1446.75,-1763.78 1318.1,-1745.64 1245.95,-1735.46"/>
<polygon fill="none" stroke="black" points="1246.11,-1731.95 1235.72,-1734.02 1245.14,-1738.89 1246.11,-1731.95"/>
</g>
<!-- \\HttpSourceConnectionTest -->
<g id="node16" class="node"><title>\\HttpSourceConnectionTest</title>
<polygon fill="none" stroke="black" points="1665,-882 1487,-882 1487,-846 1665,-846 1665,-882"/>
<text text-anchor="middle" x="1576" y="-861.1" font-family="Courier,monospace" font-size="11.00">HttpSourceConnectionTest</text>
</g>
<!-- \\HttpSourceConnectionTest&#45;&gt;\\CakeTestCase -->
<g id="edge29" class="edge"><title>\\HttpSourceConnectionTest&#45;&gt;\\CakeTestCase</title>
<path fill="none" stroke="black" d="M1486.3,-864.502C1465.97,-860.31 1446.21,-852.091 1432,-837 1256.63,-650.795 1535,-452.553 1360,-266 1340.48,-245.195 1311.91,-235.537 1283.89,-231.575"/>
<polygon fill="none" stroke="black" points="1283.95,-228.058 1273.61,-230.363 1283.13,-235.01 1283.95,-228.058"/>
</g>
<!-- \\HttpSourceResultTest -->
<g id="node17" class="node"><title>\\HttpSourceResultTest</title>
<polygon fill="none" stroke="black" points="1652,-828 1500,-828 1500,-792 1652,-792 1652,-828"/>
<text text-anchor="middle" x="1576" y="-807.1" font-family="Courier,monospace" font-size="11.00">HttpSourceResultTest</text>
</g>
<!-- \\HttpSourceResultTest&#45;&gt;\\CakeTestCase -->
<g id="edge31" class="edge"><title>\\HttpSourceResultTest&#45;&gt;\\CakeTestCase</title>
<path fill="none" stroke="black" d="M1499.94,-812.596C1475.11,-809.467 1449.47,-801.311 1432,-783 1271.85,-615.147 1519.81,-434.171 1360,-266 1340.35,-245.321 1311.74,-235.695 1283.73,-231.722"/>
<polygon fill="none" stroke="black" points="1283.8,-228.206 1273.46,-230.505 1282.98,-235.157 1283.8,-228.206"/>
</g>
<!-- \\HttpSourceFieldTest -->
<g id="node18" class="node"><title>\\HttpSourceFieldTest</title>
<polygon fill="none" stroke="black" points="1648,-774 1504,-774 1504,-738 1648,-738 1648,-774"/>
<text text-anchor="middle" x="1576" y="-753.1" font-family="Courier,monospace" font-size="11.00">HttpSourceFieldTest</text>
</g>
<!-- \\HttpSourceFieldTest&#45;&gt;\\CakeTestCase -->
<g id="edge33" class="edge"><title>\\HttpSourceFieldTest&#45;&gt;\\CakeTestCase</title>
<path fill="none" stroke="black" d="M1503.46,-758.835C1477.63,-756.011 1450.41,-747.994 1432,-729 1287.05,-579.474 1504.65,-415.814 1360,-266 1340.28,-245.573 1311.8,-235.978 1283.93,-231.96"/>
<polygon fill="none" stroke="black" points="1284.05,-228.45 1273.71,-230.722 1283.21,-235.399 1284.05,-228.45"/>
</g>
<!-- \\HttpSourceEndpointTest -->
<g id="node19" class="node"><title>\\HttpSourceEndpointTest</title>
<polygon fill="none" stroke="black" points="1658,-720 1494,-720 1494,-684 1658,-684 1658,-720"/>
<text text-anchor="middle" x="1576" y="-699.1" font-family="Courier,monospace" font-size="11.00">HttpSourceEndpointTest</text>
</g>
<!-- \\HttpSourceEndpointTest&#45;&gt;\\CakeTestCase -->
<g id="edge35" class="edge"><title>\\HttpSourceEndpointTest&#45;&gt;\\CakeTestCase</title>
<path fill="none" stroke="black" d="M1493.18,-703.197C1470.67,-699.446 1448.1,-691.277 1432,-675 1302.21,-543.765 1489.53,-397.492 1360,-266 1340.17,-245.865 1311.81,-236.314 1284.08,-232.248"/>
<polygon fill="none" stroke="black" points="1284.26,-228.744 1273.91,-230.989 1283.4,-235.691 1284.26,-228.744"/>
</g>
<!-- \\HttpSourceEndpointItemTest -->
<g id="node20" class="node"><title>\\HttpSourceEndpointItemTest</title>
<polygon fill="none" stroke="black" points="1672,-666 1480,-666 1480,-630 1672,-630 1672,-666"/>
<text text-anchor="middle" x="1576" y="-645.1" font-family="Courier,monospace" font-size="11.00">HttpSourceEndpointItemTest</text>
</g>
<!-- \\HttpSourceEndpointItemTest&#45;&gt;\\CakeTestCase -->
<g id="edge37" class="edge"><title>\\HttpSourceEndpointItemTest&#45;&gt;\\CakeTestCase</title>
<path fill="none" stroke="black" d="M1479.98,-646.127C1462.14,-641.613 1445.04,-633.854 1432,-621 1317.33,-508.006 1474.45,-379.222 1360,-266 1340.09,-246.308 1312.01,-236.815 1284.55,-232.667"/>
<polygon fill="none" stroke="black" points="1284.84,-229.175 1274.47,-231.371 1283.95,-236.118 1284.84,-229.175"/>
</g>
<!-- \\HttpSourceEndpointItemiAmExistsANDValid -->
<g id="node21" class="node"><title>\\HttpSourceEndpointItemiAmExistsANDValid</title>
<polygon fill="none" stroke="black" points="954,-1908 674,-1908 674,-1872 954,-1872 954,-1908"/>
<text text-anchor="middle" x="814" y="-1887.1" font-family="Courier,monospace" font-size="11.00">HttpSourceEndpointItemiAmExistsANDValid</text>
</g>
<!-- \\HttpSourceEndpointItem -->
<g id="node46" class="node"><title>\\HttpSourceEndpointItem</title>
<polygon fill="none" stroke="black" points="528,-2016 362,-2016 362,-1980 528,-1980 528,-2016"/>
<text text-anchor="start" x="411" y="-2003.43" font-family="Courier,monospace" font-size="11.00">«abstract»</text>
<text text-anchor="start" x="370.5" y="-1990.23" font-family="Courier,monospace" font-size="11.00">HttpSourceEndpointItem</text>
</g>
<!-- \\HttpSourceEndpointItemiAmExistsANDValid&#45;&gt;\\HttpSourceEndpointItem -->
<g id="edge39" class="edge"><title>\\HttpSourceEndpointItemiAmExistsANDValid&#45;&gt;\\HttpSourceEndpointItem</title>
<path fill="none" stroke="black" d="M698.113,-1908.01C689.815,-1910.61 681.695,-1913.59 674,-1917 637.428,-1933.2 638.734,-1955.17 602,-1971 582.157,-1979.55 559.802,-1985.4 538.318,-1989.39"/>
<polygon fill="none" stroke="black" points="537.441,-1985.99 528.19,-1991.16 538.642,-1992.89 537.441,-1985.99"/>
</g>
<!-- \\HttpSourceConfigTest -->
<g id="node22" class="node"><title>\\HttpSourceConfigTest</title>
<polygon fill="none" stroke="black" points="1652,-1314 1500,-1314 1500,-1278 1652,-1278 1652,-1314"/>
<text text-anchor="middle" x="1576" y="-1293.1" font-family="Courier,monospace" font-size="11.00">HttpSourceConfigTest</text>
</g>
<!-- \\HttpSourceConfigTest&#45;&gt;\\CakeTestCase -->
<g id="edge41" class="edge"><title>\\HttpSourceConfigTest&#45;&gt;\\CakeTestCase</title>
<path fill="none" stroke="black" d="M1499.99,-1299.33C1474.87,-1296.33 1449.02,-1288.07 1432,-1269 1283.22,-1102.27 1508.45,-433.029 1360,-266 1340.7,-244.288 1311.57,-234.539 1283.01,-230.765"/>
<polygon fill="none" stroke="black" points="1283.27,-227.272 1272.95,-229.669 1282.51,-234.231 1283.27,-227.272"/>
</g>
<!-- \\HttpSourceConfigFactoryTest -->
<g id="node23" class="node"><title>\\HttpSourceConfigFactoryTest</title>
<polygon fill="none" stroke="black" points="1675,-1260 1477,-1260 1477,-1224 1675,-1224 1675,-1260"/>
<text text-anchor="middle" x="1576" y="-1239.1" font-family="Courier,monospace" font-size="11.00">HttpSourceConfigFactoryTest</text>
</g>
<!-- \\HttpSourceConfigFactoryTest&#45;&gt;\\CakeTestCase -->
<g id="edge43" class="edge"><title>\\HttpSourceConfigFactoryTest&#45;&gt;\\CakeTestCase</title>
<path fill="none" stroke="black" d="M1476.49,-1240.75C1459.57,-1236.06 1443.71,-1228.07 1432,-1215 1290.87,-1057.48 1500.82,-423.798 1360,-266 1340.66,-244.327 1311.51,-234.588 1282.96,-230.809"/>
<polygon fill="none" stroke="black" points="1283.22,-227.317 1272.9,-229.712 1282.46,-234.276 1283.22,-227.317"/>
</g>
<!-- \\HttpSourceConfigFactoryiAmExists -->
<g id="node24" class="node"><title>\\HttpSourceConfigFactoryiAmExists</title>
<polygon fill="none" stroke="black" points="1692,-1044 1460,-1044 1460,-1008 1692,-1008 1692,-1044"/>
<text text-anchor="middle" x="1576" y="-1023.1" font-family="Courier,monospace" font-size="11.00">HttpSourceConfigFactoryiAmExists</text>
</g>
<!-- \\HttpSourceConfigFactoryiAmExistsANDValid -->
<g id="node25" class="node"><title>\\HttpSourceConfigFactoryiAmExistsANDValid</title>
<polygon fill="none" stroke="black" points="1719,-1854 1433,-1854 1433,-1818 1719,-1818 1719,-1854"/>
<text text-anchor="middle" x="1576" y="-1833.1" font-family="Courier,monospace" font-size="11.00">HttpSourceConfigFactoryiAmExistsANDValid</text>
</g>
<!-- \\HttpSourceConfigFactory -->
<g id="node49" class="node"><title>\\HttpSourceConfigFactory</title>
<polygon fill="none" stroke="black" points="1279,-1800 1107,-1800 1107,-1764 1279,-1764 1279,-1800"/>
<text text-anchor="middle" x="1193" y="-1779.1" font-family="Courier,monospace" font-size="11.00">HttpSourceConfigFactory</text>
</g>
<!-- \\HttpSourceConfigFactoryiAmExistsANDValid&#45;&gt;\\HttpSourceConfigFactory -->
<g id="edge45" class="edge"><title>\\HttpSourceConfigFactoryiAmExistsANDValid&#45;&gt;\\HttpSourceConfigFactory</title>
<path fill="none" stroke="black" d="M1448.2,-1817.98C1396.31,-1810.67 1337.38,-1802.36 1289.23,-1795.57"/>
<polygon fill="none" stroke="black" points="1289.52,-1792.07 1279.13,-1794.14 1288.54,-1799 1289.52,-1792.07"/>
</g>
<!-- \\HttpSourceConfigiAmExistsANDValid -->
<g id="node26" class="node"><title>\\HttpSourceConfigiAmExistsANDValid</title>
<polygon fill="none" stroke="black" points="933,-2124 695,-2124 695,-2088 933,-2088 933,-2124"/>
<text text-anchor="middle" x="814" y="-2103.1" font-family="Courier,monospace" font-size="11.00">HttpSourceConfigiAmExistsANDValid</text>
</g>
<!-- \\HttpSourceConfig -->
<g id="node50" class="node"><title>\\HttpSourceConfig</title>
<polygon fill="none" stroke="black" points="507,-2124 383,-2124 383,-2088 507,-2088 507,-2124"/>
<text text-anchor="middle" x="445" y="-2103.1" font-family="Courier,monospace" font-size="11.00">HttpSourceConfig</text>
</g>
<!-- \\HttpSourceConfigiAmExistsANDValid&#45;&gt;\\HttpSourceConfig -->
<g id="edge47" class="edge"><title>\\HttpSourceConfigiAmExistsANDValid&#45;&gt;\\HttpSourceConfig</title>
<path fill="none" stroke="black" d="M694.451,-2106C636.257,-2106 568.18,-2106 517.859,-2106"/>
<polygon fill="none" stroke="black" points="517.721,-2102.5 507.721,-2106 517.721,-2109.5 517.721,-2102.5"/>
</g>
<!-- \\HttpSourceEndpointiAmExistsANDValid -->
<g id="node27" class="node"><title>\\HttpSourceEndpointiAmExistsANDValid</title>
<polygon fill="none" stroke="black" points="940,-2070 688,-2070 688,-2034 940,-2034 940,-2070"/>
<text text-anchor="middle" x="814" y="-2049.1" font-family="Courier,monospace" font-size="11.00">HttpSourceEndpointiAmExistsANDValid</text>
</g>
<!-- \\HttpSourceEndpoint -->
<g id="node47" class="node"><title>\\HttpSourceEndpoint</title>
<polygon fill="none" stroke="black" points="514,-2070 376,-2070 376,-2034 514,-2034 514,-2070"/>
<text text-anchor="middle" x="445" y="-2049.1" font-family="Courier,monospace" font-size="11.00">HttpSourceEndpoint</text>
</g>
<!-- \\HttpSourceEndpointiAmExistsANDValid&#45;&gt;\\HttpSourceEndpoint -->
<g id="edge49" class="edge"><title>\\HttpSourceEndpointiAmExistsANDValid&#45;&gt;\\HttpSourceEndpoint</title>
<path fill="none" stroke="black" d="M687.269,-2052C633.255,-2052 571.894,-2052 524.44,-2052"/>
<polygon fill="none" stroke="black" points="524.228,-2048.5 514.228,-2052 524.228,-2055.5 524.228,-2048.5"/>
</g>
<!-- \\HttpSourceConditioniAmExistsANDValid -->
<g id="node28" class="node"><title>\\HttpSourceConditioniAmExistsANDValid</title>
<polygon fill="none" stroke="black" points="1706,-1962 1446,-1962 1446,-1926 1706,-1926 1706,-1962"/>
<text text-anchor="middle" x="1576" y="-1941.1" font-family="Courier,monospace" font-size="11.00">HttpSourceConditioniAmExistsANDValid</text>
</g>
<!-- \\HttpSourceCondition -->
<g id="node51" class="node"><title>\\HttpSourceCondition</title>
<polygon fill="none" stroke="black" points="1265,-1908 1121,-1908 1121,-1872 1265,-1872 1265,-1908"/>
<text text-anchor="middle" x="1193" y="-1887.1" font-family="Courier,monospace" font-size="11.00">HttpSourceCondition</text>
</g>
<!-- \\HttpSourceConditioniAmExistsANDValid&#45;&gt;\\HttpSourceCondition -->
<g id="edge51" class="edge"><title>\\HttpSourceConditioniAmExistsANDValid&#45;&gt;\\HttpSourceCondition</title>
<path fill="none" stroke="black" d="M1448.2,-1925.98C1391.42,-1917.98 1326.21,-1908.78 1275.92,-1901.69"/>
<polygon fill="none" stroke="black" points="1276.13,-1898.19 1265.74,-1900.26 1275.16,-1905.12 1276.13,-1898.19"/>
</g>
<!-- \\HttpSourceFieldiAmExistsANDValid -->
<g id="node29" class="node"><title>\\HttpSourceFieldiAmExistsANDValid</title>
<polygon fill="none" stroke="black" points="1309,-1962 1077,-1962 1077,-1926 1309,-1926 1309,-1962"/>
<text text-anchor="middle" x="1193" y="-1941.1" font-family="Courier,monospace" font-size="11.00">HttpSourceFieldiAmExistsANDValid</text>
</g>
<!-- \\HttpSourceField -->
<g id="node45" class="node"><title>\\HttpSourceField</title>
<polygon fill="none" stroke="black" points="873,-1962 755,-1962 755,-1926 873,-1926 873,-1962"/>
<text text-anchor="middle" x="814" y="-1941.1" font-family="Courier,monospace" font-size="11.00">HttpSourceField</text>
</g>
<!-- \\HttpSourceFieldiAmExistsANDValid&#45;&gt;\\HttpSourceField -->
<g id="edge53" class="edge"><title>\\HttpSourceFieldiAmExistsANDValid&#45;&gt;\\HttpSourceField</title>
<path fill="none" stroke="black" d="M1076.45,-1944C1013.2,-1944 937.147,-1944 883.231,-1944"/>
<polygon fill="none" stroke="black" points="883.092,-1940.5 873.092,-1944 883.092,-1947.5 883.092,-1940.5"/>
</g>
<!-- \\HttpSourceResultiAmExistsANDValid -->
<g id="node30" class="node"><title>\\HttpSourceResultiAmExistsANDValid</title>
<polygon fill="none" stroke="black" points="1312,-2016 1074,-2016 1074,-1980 1312,-1980 1312,-2016"/>
<text text-anchor="middle" x="1193" y="-1995.1" font-family="Courier,monospace" font-size="11.00">HttpSourceResultiAmExistsANDValid</text>
</g>
<!-- \\HttpSourceResult -->
<g id="node44" class="node"><title>\\HttpSourceResult</title>
<polygon fill="none" stroke="black" points="876,-2016 752,-2016 752,-1980 876,-1980 876,-2016"/>
<text text-anchor="middle" x="814" y="-1995.1" font-family="Courier,monospace" font-size="11.00">HttpSourceResult</text>
</g>
<!-- \\HttpSourceResultiAmExistsANDValid&#45;&gt;\\HttpSourceResult -->
<g id="edge55" class="edge"><title>\\HttpSourceResultiAmExistsANDValid&#45;&gt;\\HttpSourceResult</title>
<path fill="none" stroke="black" d="M1073.34,-1998C1012.13,-1998 939.613,-1998 886.846,-1998"/>
<polygon fill="none" stroke="black" points="886.566,-1994.5 876.565,-1998 886.565,-2001.5 886.566,-1994.5"/>
</g>
<!-- \\HttpSourceConfigFactoryItemTest -->
<g id="node31" class="node"><title>\\HttpSourceConfigFactoryItemTest</title>
<polygon fill="none" stroke="black" points="1689,-1152 1463,-1152 1463,-1116 1689,-1116 1689,-1152"/>
<text text-anchor="middle" x="1576" y="-1131.1" font-family="Courier,monospace" font-size="11.00">HttpSourceConfigFactoryItemTest</text>
</g>
<!-- \\HttpSourceConfigFactoryItemTest&#45;&gt;\\CakeTestCase -->
<g id="edge57" class="edge"><title>\\HttpSourceConfigFactoryItemTest&#45;&gt;\\CakeTestCase</title>
<path fill="none" stroke="black" d="M1462.91,-1128.01C1451.23,-1123.21 1440.53,-1116.43 1432,-1107 1306.16,-967.907 1485.57,-405.343 1360,-266 1340.55,-244.421 1311.39,-234.703 1282.84,-230.916"/>
<polygon fill="none" stroke="black" points="1283.11,-227.425 1272.79,-229.814 1282.34,-234.383 1283.11,-227.425"/>
</g>
<!-- \\HttpSourceConfigFactoryItemiAmExistsANDValid -->
<g id="node32" class="node"><title>\\HttpSourceConfigFactoryItemiAmExistsANDValid</title>
<polygon fill="none" stroke="black" points="602,-1962 288,-1962 288,-1926 602,-1926 602,-1962"/>
<text text-anchor="middle" x="445" y="-1941.1" font-family="Courier,monospace" font-size="11.00">HttpSourceConfigFactoryItemiAmExistsANDValid</text>
</g>
<!-- \\HttpSourceConfigFactoryItem -->
<g id="node48" class="node"><title>\\HttpSourceConfigFactoryItem</title>
<polygon fill="none" stroke="black" points="216,-2043 16,-2043 16,-2007 216,-2007 216,-2043"/>
<text text-anchor="start" x="82" y="-2030.43" font-family="Courier,monospace" font-size="11.00">«abstract»</text>
<text text-anchor="start" x="24.5" y="-2017.23" font-family="Courier,monospace" font-size="11.00">HttpSourceConfigFactoryItem</text>
</g>
<!-- \\HttpSourceConfigFactoryItemiAmExistsANDValid&#45;&gt;\\HttpSourceConfigFactoryItem -->
<g id="edge59" class="edge"><title>\\HttpSourceConfigFactoryItemiAmExistsANDValid&#45;&gt;\\HttpSourceConfigFactoryItem</title>
<path fill="none" stroke="black" d="M329.315,-1962.08C315.337,-1964.8 301.307,-1967.78 288,-1971 250.643,-1980.03 209.55,-1992.83 176.899,-2003.69"/>
<polygon fill="none" stroke="black" points="175.418,-2000.5 167.051,-2007 177.645,-2007.13 175.418,-2000.5"/>
</g>
<!-- \\HttpSourceConditionTest -->
<g id="node33" class="node"><title>\\HttpSourceConditionTest</title>
<polygon fill="none" stroke="black" points="1662,-1206 1490,-1206 1490,-1170 1662,-1170 1662,-1206"/>
<text text-anchor="middle" x="1576" y="-1185.1" font-family="Courier,monospace" font-size="11.00">HttpSourceConditionTest</text>
</g>
<!-- \\HttpSourceConditionTest&#45;&gt;\\CakeTestCase -->
<g id="edge61" class="edge"><title>\\HttpSourceConditionTest&#45;&gt;\\CakeTestCase</title>
<path fill="none" stroke="black" d="M1489.94,-1189.74C1468.18,-1185.83 1446.8,-1177.45 1432,-1161 1298.51,-1012.7 1493.19,-414.569 1360,-266 1340.61,-244.371 1311.45,-234.642 1282.9,-230.859"/>
<polygon fill="none" stroke="black" points="1283.17,-227.368 1272.85,-229.76 1282.41,-234.326 1283.17,-227.368"/>
</g>
<!-- \\HttpSourceControllerTest -->
<g id="node34" class="node"><title>\\HttpSourceControllerTest</title>
<polygon fill="none" stroke="black" points="1665,-612 1487,-612 1487,-576 1665,-576 1665,-612"/>
<text text-anchor="middle" x="1576" y="-591.1" font-family="Courier,monospace" font-size="11.00">HttpSourceControllerTest</text>
</g>
<!-- \\ControllerTestCase -->
<g id="node87" class="node"><title>\\ControllerTestCase</title>
<ellipse fill="none" stroke="black" cx="1193" cy="-180" rx="106.773" ry="18.3848"/>
<text text-anchor="middle" x="1193" y="-176.4" font-family="Times Roman,serif" font-size="14.00" fill="gray">\ControllerTestCase</text>
</g>
<!-- \\HttpSourceControllerTest&#45;&gt;\\ControllerTestCase -->
<g id="edge63" class="edge"><title>\\HttpSourceControllerTest&#45;&gt;\\ControllerTestCase</title>
<path fill="none" stroke="black" d="M1486.3,-593.621C1466.21,-589.401 1446.57,-581.391 1432,-567 1315.93,-452.319 1477.5,-320.217 1360,-207 1346.04,-193.551 1328.18,-185.242 1309.36,-180.316"/>
<polygon fill="none" stroke="black" points="1309.97,-176.866 1299.44,-178.039 1308.41,-183.689 1309.97,-176.866"/>
</g>
<!-- \\AllHttpSourceTest -->
<g id="node35" class="node"><title>\\AllHttpSourceTest</title>
<polygon fill="none" stroke="black" points="1641,-558 1511,-558 1511,-522 1641,-522 1641,-558"/>
<text text-anchor="middle" x="1576" y="-537.1" font-family="Courier,monospace" font-size="11.00">AllHttpSourceTest</text>
</g>
<!-- \\PHPUnit_Framework_TestSuite -->
<g id="node89" class="node"><title>\\PHPUnit_Framework_TestSuite</title>
<ellipse fill="none" stroke="black" cx="1193" cy="-126" rx="166.877" ry="18.3848"/>
<text text-anchor="middle" x="1193" y="-122.4" font-family="Times Roman,serif" font-size="14.00" fill="gray">\PHPUnit_Framework_TestSuite</text>
</g>
<!-- \\AllHttpSourceTest&#45;&gt;\\PHPUnit_Framework_TestSuite -->
<g id="edge65" class="edge"><title>\\AllHttpSourceTest&#45;&gt;\\PHPUnit_Framework_TestSuite</title>
<path fill="none" stroke="black" d="M1510.17,-543.018C1482.63,-540.761 1452.36,-533.112 1432,-513 1315.93,-398.319 1477.5,-266.217 1360,-153 1355.03,-148.208 1349.56,-144.068 1343.73,-140.502"/>
<polygon fill="none" stroke="black" points="1345.39,-137.422 1334.94,-135.677 1342.02,-143.558 1345.39,-137.422"/>
</g>
<!-- \\TestHttpSourceModel -->
<g id="node36" class="node"><title>\\TestHttpSourceModel</title>
<polygon fill="none" stroke="black" points="1648,-1692 1504,-1692 1504,-1656 1648,-1656 1648,-1692"/>
<text text-anchor="middle" x="1576" y="-1671.1" font-family="Courier,monospace" font-size="11.00">TestHttpSourceModel</text>
</g>
<!-- \\TestHttpSourceModel&#45;&gt;\\HttpSourceModel -->
<g id="edge67" class="edge"><title>\\TestHttpSourceModel&#45;&gt;\\HttpSourceModel</title>
<path fill="none" stroke="black" d="M1503.38,-1660.92C1480.5,-1656.66 1455.17,-1651.79 1432,-1647 1374.63,-1635.15 1309.83,-1620.42 1262.19,-1609.34"/>
<polygon fill="none" stroke="black" points="1262.82,-1605.9 1252.29,-1607.04 1261.24,-1612.71 1262.82,-1605.9"/>
</g>
<!-- \\TestHttpSourceConnection -->
<g id="node37" class="node"><title>\\TestHttpSourceConnection</title>
<polygon fill="none" stroke="black" points="1665,-1908 1487,-1908 1487,-1872 1665,-1872 1665,-1908"/>
<text text-anchor="middle" x="1576" y="-1887.1" font-family="Courier,monospace" font-size="11.00">TestHttpSourceConnection</text>
</g>
<!-- \\HttpSourceConnection -->
<g id="node40" class="node"><title>\\HttpSourceConnection</title>
<polygon fill="none" stroke="black" points="1269,-1854 1117,-1854 1117,-1818 1269,-1818 1269,-1854"/>
<text text-anchor="middle" x="1193" y="-1833.1" font-family="Courier,monospace" font-size="11.00">HttpSourceConnection</text>
</g>
<!-- \\TestHttpSourceConnection&#45;&gt;\\HttpSourceConnection -->
<g id="edge69" class="edge"><title>\\TestHttpSourceConnection&#45;&gt;\\HttpSourceConnection</title>
<path fill="none" stroke="black" d="M1486.2,-1877.34C1423.69,-1868.52 1340.79,-1856.84 1279.1,-1848.14"/>
<polygon fill="none" stroke="black" points="1279.39,-1844.65 1269,-1846.72 1278.42,-1851.58 1279.39,-1844.65"/>
</g>
<!-- \\TestHttpSource -->
<g id="node38" class="node"><title>\\TestHttpSource</title>
<polygon fill="none" stroke="black" points="1631,-1746 1521,-1746 1521,-1710 1631,-1710 1631,-1746"/>
<text text-anchor="middle" x="1576" y="-1725.1" font-family="Courier,monospace" font-size="11.00">TestHttpSource</text>
</g>
<!-- \\TestHttpSource&#45;&gt;\\HttpSource -->
<g id="edge71" class="edge"><title>\\TestHttpSource&#45;&gt;\\HttpSource</title>
<path fill="none" stroke="black" d="M1520.31,-1728C1446.75,-1728 1318.1,-1728 1245.95,-1728"/>
<polygon fill="none" stroke="black" points="1245.72,-1724.5 1235.72,-1728 1245.72,-1731.5 1245.72,-1724.5"/>
</g>
<!-- \\HttpSourceModel&#45;&gt;\\AppModel -->
<g id="edge73" class="edge"><title>\\HttpSourceModel&#45;&gt;\\AppModel</title>
<path fill="none" stroke="black" d="M1133.91,-1602.34C1097.47,-1604.47 1052.73,-1599.86 1026,-1571 825.49,-1354.48 1147.98,-467.39 954,-245 936.835,-225.32 910.042,-217.275 884.471,-214.618"/>
<polygon fill="none" stroke="black" points="884.621,-211.119 874.378,-213.83 884.076,-218.098 884.621,-211.119"/>
</g>
<!-- \\Object -->
<g id="node95" class="node"><title>\\Object</title>
<ellipse fill="none" stroke="black" cx="814" cy="-326" rx="45.9619" ry="18.3848"/>
<text text-anchor="middle" x="814" y="-322.4" font-family="Times Roman,serif" font-size="14.00" fill="gray">\Object</text>
</g>
<!-- \\HttpSourceConnection&#45;&gt;\\Object -->
<g id="edge75" class="edge"><title>\\HttpSourceConnection&#45;&gt;\\Object</title>
<path fill="none" stroke="black" d="M1116.89,-1843.34C1084.2,-1842.11 1048.42,-1834.06 1026,-1809 917.629,-1687.87 1062.64,-468.887 954,-348 932.816,-324.427 897.505,-319.007 867.646,-319.44"/>
<polygon fill="none" stroke="black" points="867.21,-315.953 857.345,-319.817 867.466,-322.948 867.21,-315.953"/>
</g>
<!-- \\DataSource -->
<g id="node97" class="node"><title>\\DataSource</title>
<ellipse fill="none" stroke="black" cx="814" cy="-272" rx="72.1249" ry="18.3848"/>
<text text-anchor="middle" x="814" y="-268.4" font-family="Times Roman,serif" font-size="14.00" fill="gray">\DataSource</text>
</g>
<!-- \\HttpSource&#45;&gt;\\DataSource -->
<g id="edge77" class="edge"><title>\\HttpSource&#45;&gt;\\DataSource</title>
<path fill="none" stroke="black" d="M1150.35,-1713.38C1110.57,-1697.27 1053.37,-1667.19 1026,-1620 952.248,-1492.85 1050.64,-409.767 954,-299 939.183,-282.016 917.195,-273.698 895.011,-270.03"/>
<polygon fill="none" stroke="black" points="895.208,-266.525 884.83,-268.657 894.273,-273.462 895.208,-266.525"/>
</g>
<!-- \\HttpSourceException -->
<g id="node42" class="node"><title>\\HttpSourceException</title>
<polygon fill="none" stroke="black" points="1648,-450 1504,-450 1504,-414 1648,-414 1648,-450"/>
<text text-anchor="middle" x="1576" y="-429.1" font-family="Courier,monospace" font-size="11.00">HttpSourceException</text>
</g>
<!-- \\CakeException -->
<g id="node99" class="node"><title>\\CakeException</title>
<ellipse fill="none" stroke="black" cx="1193" cy="-72" rx="85.7684" ry="18.3848"/>
<text text-anchor="middle" x="1193" y="-68.4" font-family="Times Roman,serif" font-size="14.00" fill="gray">\CakeException</text>
</g>
<!-- \\HttpSourceException&#45;&gt;\\CakeException -->
<g id="edge79" class="edge"><title>\\HttpSourceException&#45;&gt;\\CakeException</title>
<path fill="none" stroke="black" d="M1503.47,-433.987C1477.95,-431.002 1450.94,-423.097 1432,-405 1330.97,-308.492 1462.23,-194.234 1360,-99 1340.28,-80.6271 1313.23,-71.9575 1286.65,-68.3952"/>
<polygon fill="none" stroke="black" points="1286.83,-64.8933 1276.5,-67.2704 1286.06,-71.8507 1286.83,-64.8933"/>
</g>
<!-- \\HttpSourceConfigException -->
<g id="node43" class="node"><title>\\HttpSourceConfigException</title>
<polygon fill="none" stroke="black" points="1668,-504 1484,-504 1484,-468 1668,-468 1668,-504"/>
<text text-anchor="middle" x="1576" y="-483.1" font-family="Courier,monospace" font-size="11.00">HttpSourceConfigException</text>
</g>
<!-- \\HttpSourceConfigException&#45;&gt;\\CakeException -->
<g id="edge81" class="edge"><title>\\HttpSourceConfigException&#45;&gt;\\CakeException</title>
<path fill="none" stroke="black" d="M1483.31,-484.963C1464.27,-480.589 1445.84,-472.676 1432,-459 1315.93,-344.319 1477.5,-212.217 1360,-99 1340.4,-80.1168 1313.11,-71.3661 1286.27,-67.8869"/>
<polygon fill="none" stroke="black" points="1286.33,-64.374 1276.02,-66.8014 1285.59,-71.3351 1286.33,-64.374"/>
</g>
<!-- \\HttpSourceResult&#45;&gt;\\HttpSourceEndpointItem -->
<g id="edge83" class="edge"><title>\\HttpSourceResult&#45;&gt;\\HttpSourceEndpointItem</title>
<path fill="none" stroke="black" d="M751.404,-1998C692.926,-1998 604.873,-1998 538.145,-1998"/>
<polygon fill="none" stroke="black" points="538.044,-1994.5 528.044,-1998 538.044,-2001.5 538.044,-1994.5"/>
</g>
<!-- \\HttpSourceField&#45;&gt;\\HttpSourceEndpointItem -->
<g id="edge85" class="edge"><title>\\HttpSourceField&#45;&gt;\\HttpSourceEndpointItem</title>
<path fill="none" stroke="black" d="M754.714,-1952.68C696.386,-1961.21 606.447,-1974.37 538.488,-1984.32"/>
<polygon fill="none" stroke="black" points="537.59,-1980.91 528.203,-1985.82 538.604,-1987.84 537.59,-1980.91"/>
</g>
<!-- \\HttpSourceEndpointItem&#45;&gt;\\HttpSourceConfigFactoryItem -->
<g id="edge87" class="edge"><title>\\HttpSourceEndpointItem&#45;&gt;\\HttpSourceConfigFactoryItem</title>
<path fill="none" stroke="black" d="M361.979,-2004.81C320.831,-2008.19 270.583,-2012.31 226.253,-2015.95"/>
<polygon fill="none" stroke="black" points="225.689,-2012.49 216.009,-2016.79 226.262,-2019.46 225.689,-2012.49"/>
</g>
<!-- \\HttpSourceEndpoint&#45;&gt;\\HttpSourceConfigFactoryItem -->
<g id="edge89" class="edge"><title>\\HttpSourceEndpoint&#45;&gt;\\HttpSourceConfigFactoryItem</title>
<path fill="none" stroke="black" d="M375.63,-2046.31C332.33,-2042.75 275.632,-2038.1 226.27,-2034.05"/>
<polygon fill="none" stroke="black" points="226.432,-2030.55 216.179,-2033.22 225.859,-2037.53 226.432,-2030.55"/>
</g>
<!-- \\HttpSourceConfig&#45;&gt;\\HttpSourceConfigFactoryItem -->
<g id="edge91" class="edge"><title>\\HttpSourceConfig&#45;&gt;\\HttpSourceConfigFactoryItem</title>
<path fill="none" stroke="black" d="M382.339,-2097.19C353.434,-2092.63 318.78,-2086.44 288,-2079 250.643,-2069.97 209.55,-2057.17 176.899,-2046.31"/>
<polygon fill="none" stroke="black" points="177.645,-2042.87 167.051,-2043 175.418,-2049.5 177.645,-2042.87"/>
</g>
<!-- \\HttpSourceCondition&#45;&gt;\\HttpSourceField -->
<g id="edge93" class="edge"><title>\\HttpSourceCondition&#45;&gt;\\HttpSourceField</title>
<path fill="none" stroke="black" d="M1120.37,-1900.35C1051.99,-1910.09 950.284,-1924.58 883.08,-1934.16"/>
<polygon fill="none" stroke="black" points="882.418,-1930.72 873.012,-1935.59 883.406,-1937.65 882.418,-1930.72"/>
</g>
<!-- \\HttpSourceController -->
<g id="node52" class="node"><title>\\HttpSourceController</title>
<polygon fill="none" stroke="black" points="1652,-396 1500,-396 1500,-360 1652,-360 1652,-396"/>
<text text-anchor="middle" x="1576" y="-375.1" font-family="Courier,monospace" font-size="11.00">HttpSourceController</text>
</g>
<!-- \\AppController -->
<g id="node108" class="node"><title>\\AppController</title>
<ellipse fill="none" stroke="black" cx="1193" cy="-18" rx="82.0244" ry="18.3848"/>
<text text-anchor="middle" x="1193" y="-14.4" font-family="Times Roman,serif" font-size="14.00" fill="gray">\AppController</text>
</g>
<!-- \\HttpSourceController&#45;&gt;\\AppController -->
<g id="edge95" class="edge"><title>\\HttpSourceController&#45;&gt;\\AppController</title>
<path fill="none" stroke="black" d="M1570.17,-359.757C1550.83,-302.46 1482.95,-125.171 1360,-45 1338.06,-30.6964 1311.15,-23.0812 1285.39,-19.2305"/>
<polygon fill="none" stroke="black" points="1285.57,-15.725 1275.2,-17.8892 1284.66,-22.665 1285.57,-15.725"/>
</g>
</g>
</svg>
