<?xml version="1.0" encoding="UTF-8" standalone="no"?>
<!DOCTYPE svg PUBLIC "-//W3C//DTD SVG 1.1//EN"
 "http://www.w3.org/Graphics/SVG/1.1/DTD/svg11.dtd">
<!-- Generated by graphviz version 2.26.3 (20100126.1600)
 -->
<!-- Title: G Pages: 1 -->
<svg width="1744pt" height="2170pt"
 viewBox="0.00 0.00 1744.00 2170.00" xmlns="http://www.w3.org/2000/svg" xmlns:xlink="http://www.w3.org/1999/xlink">
<g id="graph1" class="graph" transform="scale(1 1) rotate(0) translate(4 2166)">
<title>G</title>
<polygon fill="white" stroke="white" points="-4,5 -4,-2166 1741,-2166 1741,5 -4,5"/>
<g id="graph2" class="cluster"><title>cluster_Global</title>
<polyline fill="none" stroke="gray" points="20,-352 1716,-352 "/>
<path fill="none" stroke="gray" d="M1716,-352C1722,-352 1728,-358 1728,-364"/>
<polyline fill="none" stroke="gray" points="1728,-364 1728,-2142 "/>
<path fill="none" stroke="gray" d="M1728,-2142C1728,-2148 1722,-2154 1716,-2154"/>
<polyline fill="none" stroke="gray" points="1716,-2154 20,-2154 "/>
<path fill="none" stroke="gray" d="M20,-2154C14,-2154 8,-2148 8,-2142"/>
<polyline fill="none" stroke="gray" points="8,-2142 8,-364 "/>
<path fill="none" stroke="gray" d="M8,-364C8,-358 14,-352 20,-352"/>
<text text-anchor="middle" x="868" y="-2140.1" font-family="Times Roman,serif" font-size="11.00" fill="gray">Global</text>
</g>
<!-- \\TestHttpSourceModel -->
<g id="node2" class="node"><title>\\TestHttpSourceModel</title>
<polygon fill="none" stroke="black" points="1648,-1638 1504,-1638 1504,-1602 1648,-1602 1648,-1638"/>
<text text-anchor="middle" x="1576" y="-1617.1" font-family="Courier,monospace" font-size="11.00">TestHttpSourceModel</text>
</g>
<!-- \\HttpSourceModel -->
<g id="node10" class="node"><title>\\HttpSourceModel</title>
<polygon fill="none" stroke="black" points="1252,-1611 1134,-1611 1134,-1575 1252,-1575 1252,-1611"/>
<text text-anchor="middle" x="1193" y="-1590.1" font-family="Courier,monospace" font-size="11.00">HttpSourceModel</text>
</g>
<!-- \\TestHttpSourceModel&#45;&gt;\\HttpSourceModel -->
<g id="edge3" class="edge"><title>\\TestHttpSourceModel&#45;&gt;\\HttpSourceModel</title>
<path fill="none" stroke="black" d="M1503.06,-1614.86C1433.8,-1609.98 1330.42,-1602.69 1262.37,-1597.89"/>
<polygon fill="none" stroke="black" points="1262.4,-1594.38 1252.18,-1597.17 1261.9,-1601.37 1262.4,-1594.38"/>
</g>
<!-- \\TestHttpSource -->
<g id="node3" class="node"><title>\\TestHttpSource</title>
<polygon fill="none" stroke="black" points="1631,-1800 1521,-1800 1521,-1764 1631,-1764 1631,-1800"/>
<text text-anchor="middle" x="1576" y="-1779.1" font-family="Courier,monospace" font-size="11.00">TestHttpSource</text>
</g>
<!-- \\HttpSource -->
<g id="node8" class="node"><title>\\HttpSource</title>
<polygon fill="none" stroke="black" points="1235,-1800 1151,-1800 1151,-1764 1235,-1764 1235,-1800"/>
<text text-anchor="start" x="1159" y="-1787.43" font-family="Courier,monospace" font-size="11.00">«abstract»</text>
<text text-anchor="start" x="1159" y="-1774.23" font-family="Courier,monospace" font-size="11.00">HttpSource</text>
</g>
<!-- \\TestHttpSource&#45;&gt;\\HttpSource -->
<g id="edge5" class="edge"><title>\\TestHttpSource&#45;&gt;\\HttpSource</title>
<path fill="none" stroke="black" d="M1520.31,-1782C1446.75,-1782 1318.1,-1782 1245.95,-1782"/>
<polygon fill="none" stroke="black" points="1245.72,-1778.5 1235.72,-1782 1245.72,-1785.5 1245.72,-1778.5"/>
</g>
<!-- \\TestHttpSourceConnection -->
<g id="node4" class="node"><title>\\TestHttpSourceConnection</title>
<polygon fill="none" stroke="black" points="1665,-1746 1487,-1746 1487,-1710 1665,-1710 1665,-1746"/>
<text text-anchor="middle" x="1576" y="-1725.1" font-family="Courier,monospace" font-size="11.00">TestHttpSourceConnection</text>
</g>
<!-- \\HttpSourceConnection -->
<g id="node9" class="node"><title>\\HttpSourceConnection</title>
<polygon fill="none" stroke="black" points="1269,-1692 1117,-1692 1117,-1656 1269,-1656 1269,-1692"/>
<text text-anchor="middle" x="1193" y="-1671.1" font-family="Courier,monospace" font-size="11.00">HttpSourceConnection</text>
</g>
<!-- \\TestHttpSourceConnection&#45;&gt;\\HttpSourceConnection -->
<g id="edge7" class="edge"><title>\\TestHttpSourceConnection&#45;&gt;\\HttpSourceConnection</title>
<path fill="none" stroke="black" d="M1486.2,-1715.34C1423.69,-1706.52 1340.79,-1694.84 1279.1,-1686.14"/>
<polygon fill="none" stroke="black" points="1279.39,-1682.65 1269,-1684.72 1278.42,-1689.58 1279.39,-1682.65"/>
</g>
<!-- \\HttpSourceUtility -->
<g id="node5" class="node"><title>\\HttpSourceUtility</title>
<polygon fill="none" stroke="black" points="1641,-1962 1511,-1962 1511,-1926 1641,-1926 1641,-1962"/>
<text text-anchor="middle" x="1576" y="-1941.1" font-family="Courier,monospace" font-size="11.00">HttpSourceUtility</text>
</g>
<!-- \\HttpSourceTestFixture -->
<g id="node6" class="node"><title>\\HttpSourceTestFixture</title>
<polygon fill="none" stroke="black" points="1655,-1530 1497,-1530 1497,-1494 1655,-1494 1655,-1530"/>
<text text-anchor="middle" x="1576" y="-1509.1" font-family="Courier,monospace" font-size="11.00">HttpSourceTestFixture</text>
</g>
<!-- \\CakeTestFixture -->
<g id="node57" class="node"><title>\\CakeTestFixture</title>
<ellipse fill="none" stroke="black" cx="1193" cy="-326" rx="92.1303" ry="18.3848"/>
<text text-anchor="middle" x="1193" y="-322.4" font-family="Times Roman,serif" font-size="14.00" fill="gray">\CakeTestFixture</text>
</g>
<!-- \\HttpSourceTestFixture&#45;&gt;\\CakeTestFixture -->
<g id="edge9" class="edge"><title>\\HttpSourceTestFixture&#45;&gt;\\CakeTestFixture</title>
<path fill="none" stroke="black" d="M1496.9,-1515.03C1472.73,-1511.74 1448.26,-1503.38 1432,-1485 1264.24,-1295.39 1532.86,-532.98 1360,-348 1340.09,-326.689 1310.34,-318.644 1281.44,-316.764"/>
<polygon fill="none" stroke="black" points="1281.41,-313.259 1271.28,-316.344 1281.12,-320.253 1281.41,-313.259"/>
</g>
<!-- \\HttpSourceController -->
<g id="node7" class="node"><title>\\HttpSourceController</title>
<polygon fill="none" stroke="black" points="1652,-1368 1500,-1368 1500,-1332 1652,-1332 1652,-1368"/>
<text text-anchor="middle" x="1576" y="-1347.1" font-family="Courier,monospace" font-size="11.00">HttpSourceController</text>
</g>
<!-- \\AppController -->
<g id="node59" class="node"><title>\\AppController</title>
<ellipse fill="none" stroke="black" cx="1193" cy="-272" rx="82.0244" ry="18.3848"/>
<text text-anchor="middle" x="1193" y="-268.4" font-family="Times Roman,serif" font-size="14.00" fill="gray">\AppController</text>
</g>
<!-- \\HttpSourceController&#45;&gt;\\AppController -->
<g id="edge11" class="edge"><title>\\HttpSourceController&#45;&gt;\\AppController</title>
<path fill="none" stroke="black" d="M1499.98,-1353.34C1474.85,-1350.35 1449.01,-1342.09 1432,-1323 1280.25,-1152.68 1513.88,-467.403 1360,-299 1339.53,-276.599 1308.38,-267.881 1278.51,-265.452"/>
<polygon fill="none" stroke="black" points="1278.63,-261.953 1268.44,-264.858 1278.22,-268.941 1278.63,-261.953"/>
</g>
<!-- \\DataSource -->
<g id="node61" class="node"><title>\\DataSource</title>
<ellipse fill="none" stroke="black" cx="814" cy="-326" rx="72.1249" ry="18.3848"/>
<text text-anchor="middle" x="814" y="-322.4" font-family="Times Roman,serif" font-size="14.00" fill="gray">\DataSource</text>
</g>
<!-- \\HttpSource&#45;&gt;\\DataSource -->
<g id="edge13" class="edge"><title>\\HttpSource&#45;&gt;\\DataSource</title>
<path fill="none" stroke="black" d="M1150.32,-1774.03C1110.82,-1764.19 1054.08,-1743.28 1026,-1701 942.72,-1575.59 1054.85,-459.776 954,-348 938.351,-330.655 915.051,-323.15 891.929,-320.572"/>
<polygon fill="none" stroke="black" points="891.953,-317.062 881.701,-319.735 891.382,-324.039 891.953,-317.062"/>
</g>
<!-- \\Object -->
<g id="node63" class="node"><title>\\Object</title>
<ellipse fill="none" stroke="black" cx="814" cy="-272" rx="45.9619" ry="18.3848"/>
<text text-anchor="middle" x="814" y="-268.4" font-family="Times Roman,serif" font-size="14.00" fill="gray">\Object</text>
</g>
<!-- \\HttpSourceConnection&#45;&gt;\\Object -->
<g id="edge15" class="edge"><title>\\HttpSourceConnection&#45;&gt;\\Object</title>
<path fill="none" stroke="black" d="M1116.71,-1668.25C1083.56,-1661.6 1047.47,-1647.88 1026,-1620 846.621,-1387.08 1147.27,-520.534 954,-299 933.33,-275.307 898.704,-268.478 869.061,-267.612"/>
<polygon fill="none" stroke="black" points="868.84,-264.111 858.815,-267.537 868.788,-271.11 868.84,-264.111"/>
</g>
<!-- \\AppModel -->
<g id="node65" class="node"><title>\\AppModel</title>
<ellipse fill="none" stroke="black" cx="814" cy="-141" rx="62.2254" ry="18.3848"/>
<text text-anchor="middle" x="814" y="-137.4" font-family="Times Roman,serif" font-size="14.00" fill="gray">\AppModel</text>
</g>
<!-- \\HttpSourceModel&#45;&gt;\\AppModel -->
<g id="edge17" class="edge"><title>\\HttpSourceModel&#45;&gt;\\AppModel</title>
<path fill="none" stroke="black" d="M1133.91,-1602.34C1097.47,-1604.47 1052.73,-1599.86 1026,-1571 925.745,-1462.74 1023.84,-374.975 954,-245 933.106,-206.115 890.603,-177.789 857.881,-160.608"/>
<polygon fill="none" stroke="black" points="859.438,-157.473 848.938,-156.058 856.263,-163.712 859.438,-157.473"/>
</g>
<!-- \\HttpSourceUtilityTest -->
<g id="node11" class="node"><title>\\HttpSourceUtilityTest</title>
<polygon fill="none" stroke="black" points="1655,-1044 1497,-1044 1497,-1008 1655,-1008 1655,-1044"/>
<text text-anchor="middle" x="1576" y="-1023.1" font-family="Courier,monospace" font-size="11.00">HttpSourceUtilityTest</text>
</g>
<!-- \\CakeTestCase -->
<g id="node67" class="node"><title>\\CakeTestCase</title>
<ellipse fill="none" stroke="black" cx="1193" cy="-218" rx="82.0244" ry="18.3848"/>
<text text-anchor="middle" x="1193" y="-214.4" font-family="Times Roman,serif" font-size="14.00" fill="gray">\CakeTestCase</text>
</g>
<!-- \\HttpSourceUtilityTest&#45;&gt;\\CakeTestCase -->
<g id="edge19" class="edge"><title>\\HttpSourceUtilityTest&#45;&gt;\\CakeTestCase</title>
<path fill="none" stroke="black" d="M1496.86,-1028.67C1472.84,-1025.33 1448.47,-1017.03 1432,-999 1318.46,-874.74 1475.08,-367.828 1360,-245 1339.52,-223.144 1308.86,-214.416 1279.38,-211.826"/>
<polygon fill="none" stroke="black" points="1279.22,-208.308 1269.01,-211.154 1278.77,-215.294 1279.22,-208.308"/>
</g>
<!-- \\HttpSourceControllerTest -->
<g id="node12" class="node"><title>\\HttpSourceControllerTest</title>
<polygon fill="none" stroke="black" points="1665,-612 1487,-612 1487,-576 1665,-576 1665,-612"/>
<text text-anchor="middle" x="1576" y="-591.1" font-family="Courier,monospace" font-size="11.00">HttpSourceControllerTest</text>
</g>
<!-- \\ControllerTestCase -->
<g id="node69" class="node"><title>\\ControllerTestCase</title>
<ellipse fill="none" stroke="black" cx="1193" cy="-164" rx="106.773" ry="18.3848"/>
<text text-anchor="middle" x="1193" y="-160.4" font-family="Times Roman,serif" font-size="14.00" fill="gray">\ControllerTestCase</text>
</g>
<!-- \\HttpSourceControllerTest&#45;&gt;\\ControllerTestCase -->
<g id="edge21" class="edge"><title>\\HttpSourceControllerTest&#45;&gt;\\ControllerTestCase</title>
<path fill="none" stroke="black" d="M1486.21,-593.705C1466.13,-589.483 1446.51,-581.451 1432,-567 1311.46,-446.92 1482.04,-309.561 1360,-191 1346.1,-177.494 1328.26,-169.157 1309.45,-164.222"/>
<polygon fill="none" stroke="black" points="1310.07,-160.773 1299.54,-161.942 1308.5,-167.595 1310.07,-160.773"/>
</g>
<!-- \\HttpSourceBasicsTest -->
<g id="node13" class="node"><title>\\HttpSourceBasicsTest</title>
<polygon fill="none" stroke="black" points="1652,-2070 1500,-2070 1500,-2034 1652,-2034 1652,-2070"/>
<text text-anchor="middle" x="1576" y="-2049.1" font-family="Courier,monospace" font-size="11.00">HttpSourceBasicsTest</text>
</g>
<!-- \\HttpSourceAppTest -->
<g id="node40" class="node"><title>\\HttpSourceAppTest</title>
<polygon fill="none" stroke="black" points="1259,-2002 1127,-2002 1127,-1966 1259,-1966 1259,-2002"/>
<text text-anchor="start" x="1159" y="-1989.43" font-family="Courier,monospace" font-size="11.00">«abstract»</text>
<text text-anchor="start" x="1135.5" y="-1976.23" font-family="Courier,monospace" font-size="11.00">HttpSourceAppTest</text>
</g>
<!-- \\HttpSourceBasicsTest&#45;&gt;\\HttpSourceAppTest -->
<g id="edge23" class="edge"><title>\\HttpSourceBasicsTest&#45;&gt;\\HttpSourceAppTest</title>
<path fill="none" stroke="black" d="M1499.75,-2037.8C1477.87,-2033.7 1453.99,-2029.2 1432,-2025 1399.98,-2018.89 1392.09,-2016.71 1360,-2011 1330.38,-2005.73 1297.73,-2000.35 1269.22,-1995.8"/>
<polygon fill="none" stroke="black" points="1269.74,-1992.34 1259.32,-1994.23 1268.64,-1999.25 1269.74,-1992.34"/>
</g>
<!-- \\HttpSourceTest -->
<g id="node14" class="node"><title>\\HttpSourceTest</title>
<polygon fill="none" stroke="black" points="1631,-990 1521,-990 1521,-954 1631,-954 1631,-990"/>
<text text-anchor="middle" x="1576" y="-969.1" font-family="Courier,monospace" font-size="11.00">HttpSourceTest</text>
</g>
<!-- \\HttpSourceTest&#45;&gt;\\CakeTestCase -->
<g id="edge25" class="edge"><title>\\HttpSourceTest&#45;&gt;\\CakeTestCase</title>
<path fill="none" stroke="black" d="M1520.18,-976.457C1489.77,-975.652 1453.96,-968.862 1432,-945 1326.1,-829.941 1467.33,-358.723 1360,-245 1339.53,-223.315 1309.03,-214.583 1279.68,-211.942"/>
<polygon fill="none" stroke="black" points="1279.57,-208.427 1269.36,-211.25 1279.1,-215.411 1279.57,-208.427"/>
</g>
<!-- \\HttpTestSource -->
<g id="node15" class="node"><title>\\HttpTestSource</title>
<polygon fill="none" stroke="black" points="1631,-1854 1521,-1854 1521,-1818 1631,-1818 1631,-1854"/>
<text text-anchor="middle" x="1576" y="-1833.1" font-family="Courier,monospace" font-size="11.00">HttpTestSource</text>
</g>
<!-- \\HttpTestSource&#45;&gt;\\HttpSource -->
<g id="edge27" class="edge"><title>\\HttpTestSource&#45;&gt;\\HttpSource</title>
<path fill="none" stroke="black" d="M1520.31,-1828.15C1446.75,-1817.78 1318.1,-1799.64 1245.95,-1789.46"/>
<polygon fill="none" stroke="black" points="1246.11,-1785.95 1235.72,-1788.02 1245.14,-1792.89 1246.11,-1785.95"/>
</g>
<!-- \\HttpSourceConnectionTest -->
<g id="node16" class="node"><title>\\HttpSourceConnectionTest</title>
<polygon fill="none" stroke="black" points="1665,-936 1487,-936 1487,-900 1665,-900 1665,-936"/>
<text text-anchor="middle" x="1576" y="-915.1" font-family="Courier,monospace" font-size="11.00">HttpSourceConnectionTest</text>
</g>
<!-- \\HttpSourceConnectionTest&#45;&gt;\\CakeTestCase -->
<g id="edge29" class="edge"><title>\\HttpSourceConnectionTest&#45;&gt;\\CakeTestCase</title>
<path fill="none" stroke="black" d="M1486.15,-918.645C1465.82,-914.449 1446.1,-906.193 1432,-891 1235.46,-679.274 1559.18,-454.247 1360,-245 1339.44,-223.402 1308.92,-214.688 1279.58,-212.037"/>
<polygon fill="none" stroke="black" points="1279.48,-208.522 1269.26,-211.34 1279.01,-215.506 1279.48,-208.522"/>
</g>
<!-- \\HttpSourceModelTest -->
<g id="node17" class="node"><title>\\HttpSourceModelTest</title>
<polygon fill="none" stroke="black" points="1648,-882 1504,-882 1504,-846 1648,-846 1648,-882"/>
<text text-anchor="middle" x="1576" y="-861.1" font-family="Courier,monospace" font-size="11.00">HttpSourceModelTest</text>
</g>
<!-- \\HttpSourceModelTest&#45;&gt;\\CakeTestCase -->
<g id="edge31" class="edge"><title>\\HttpSourceModelTest&#45;&gt;\\CakeTestCase</title>
<path fill="none" stroke="black" d="M1503.5,-867.196C1477.51,-864.449 1450.18,-856.39 1432,-837 1250.7,-643.652 1543.7,-436.061 1360,-245 1339.42,-223.6 1309.06,-214.89 1279.85,-212.185"/>
<polygon fill="none" stroke="black" points="1279.8,-208.673 1269.58,-211.468 1279.31,-215.656 1279.8,-208.673"/>
</g>
<!-- \\HttpSourceTestModel -->
<g id="node18" class="node"><title>\\HttpSourceTestModel</title>
<polygon fill="none" stroke="black" points="1648,-1692 1504,-1692 1504,-1656 1648,-1656 1648,-1692"/>
<text text-anchor="middle" x="1576" y="-1671.1" font-family="Courier,monospace" font-size="11.00">HttpSourceTestModel</text>
</g>
<!-- \\HttpSourceTestModel&#45;&gt;\\HttpSourceModel -->
<g id="edge33" class="edge"><title>\\HttpSourceTestModel&#45;&gt;\\HttpSourceModel</title>
<path fill="none" stroke="black" d="M1503.38,-1660.92C1480.5,-1656.66 1455.17,-1651.79 1432,-1647 1374.63,-1635.15 1309.83,-1620.42 1262.19,-1609.34"/>
<polygon fill="none" stroke="black" points="1262.82,-1605.9 1252.29,-1607.04 1261.24,-1612.71 1262.82,-1605.9"/>
</g>
<!-- \\HttpSourceToDboAssociationTest -->
<g id="node19" class="node"><title>\\HttpSourceToDboAssociationTest</title>
<polygon fill="none" stroke="black" points="1685,-2016 1467,-2016 1467,-1980 1685,-1980 1685,-2016"/>
<text text-anchor="middle" x="1576" y="-1995.1" font-family="Courier,monospace" font-size="11.00">HttpSourceToDboAssociationTest</text>
</g>
<!-- \\HttpSourceToDboAssociationTest&#45;&gt;\\HttpSourceAppTest -->
<g id="edge35" class="edge"><title>\\HttpSourceToDboAssociationTest&#45;&gt;\\HttpSourceAppTest</title>
<path fill="none" stroke="black" d="M1466.25,-1993.99C1403.3,-1991.69 1325.84,-1988.86 1269.49,-1986.8"/>
<polygon fill="none" stroke="black" points="1269.34,-1983.29 1259.22,-1986.42 1269.09,-1990.28 1269.34,-1983.29"/>
</g>
<!-- \\HttpSourceResultTest -->
<g id="node20" class="node"><title>\\HttpSourceResultTest</title>
<polygon fill="none" stroke="black" points="1652,-828 1500,-828 1500,-792 1652,-792 1652,-828"/>
<text text-anchor="middle" x="1576" y="-807.1" font-family="Courier,monospace" font-size="11.00">HttpSourceResultTest</text>
</g>
<!-- \\HttpSourceResultTest&#45;&gt;\\CakeTestCase -->
<g id="edge37" class="edge"><title>\\HttpSourceResultTest&#45;&gt;\\CakeTestCase</title>
<path fill="none" stroke="black" d="M1499.88,-812.648C1475.05,-809.524 1449.42,-801.358 1432,-783 1265.93,-608.013 1528.24,-417.893 1360,-245 1339.39,-223.818 1309.17,-215.117 1280.09,-212.358"/>
<polygon fill="none" stroke="black" points="1280.1,-208.849 1269.87,-211.619 1279.59,-215.831 1280.1,-208.849"/>
</g>
<!-- \\HttpSourceConfigTest -->
<g id="node21" class="node"><title>\\HttpSourceConfigTest</title>
<polygon fill="none" stroke="black" points="1652,-774 1500,-774 1500,-738 1652,-738 1652,-774"/>
<text text-anchor="middle" x="1576" y="-753.1" font-family="Courier,monospace" font-size="11.00">HttpSourceConfigTest</text>
</g>
<!-- \\HttpSourceConfigTest&#45;&gt;\\CakeTestCase -->
<g id="edge39" class="edge"><title>\\HttpSourceConfigTest&#45;&gt;\\CakeTestCase</title>
<path fill="none" stroke="black" d="M1499.66,-758.457C1474.96,-755.285 1449.47,-747.138 1432,-729 1281.14,-572.351 1512.81,-399.747 1360,-245 1339.33,-224.063 1309.26,-215.378 1280.31,-212.563"/>
<polygon fill="none" stroke="black" points="1280.37,-209.057 1270.14,-211.801 1279.85,-216.038 1280.37,-209.057"/>
</g>
<!-- \\HttpSourceConditionTest -->
<g id="node22" class="node"><title>\\HttpSourceConditionTest</title>
<polygon fill="none" stroke="black" points="1662,-720 1490,-720 1490,-684 1662,-684 1662,-720"/>
<text text-anchor="middle" x="1576" y="-699.1" font-family="Courier,monospace" font-size="11.00">HttpSourceConditionTest</text>
</g>
<!-- \\HttpSourceConditionTest&#45;&gt;\\CakeTestCase -->
<g id="edge41" class="edge"><title>\\HttpSourceConditionTest&#45;&gt;\\CakeTestCase</title>
<path fill="none" stroke="black" d="M1489.72,-702.685C1468.35,-698.694 1447.23,-690.527 1432,-675 1296.32,-536.657 1497.4,-381.632 1360,-245 1339.23,-224.345 1309.29,-215.686 1280.49,-212.811"/>
<polygon fill="none" stroke="black" points="1280.6,-209.31 1270.36,-212.025 1280.06,-216.289 1280.6,-209.31"/>
</g>
<!-- \\HttpSourceConfigFactoryTest -->
<g id="node23" class="node"><title>\\HttpSourceConfigFactoryTest</title>
<polygon fill="none" stroke="black" points="1675,-666 1477,-666 1477,-630 1675,-630 1675,-666"/>
<text text-anchor="middle" x="1576" y="-645.1" font-family="Courier,monospace" font-size="11.00">HttpSourceConfigFactoryTest</text>
</g>
<!-- \\HttpSourceConfigFactoryTest&#45;&gt;\\CakeTestCase -->
<g id="edge43" class="edge"><title>\\HttpSourceConfigFactoryTest&#45;&gt;\\CakeTestCase</title>
<path fill="none" stroke="black" d="M1476.17,-645.247C1459.69,-640.608 1444.07,-633.027 1432,-621 1311.46,-500.92 1482.04,-363.561 1360,-245 1339.18,-224.771 1309.54,-216.138 1280.99,-213.163"/>
<polygon fill="none" stroke="black" points="1281.21,-209.669 1270.96,-212.336 1280.64,-216.645 1281.21,-209.669"/>
</g>
<!-- \\HttpSourceConfigFactoryiAmExists -->
<g id="node24" class="node"><title>\\HttpSourceConfigFactoryiAmExists</title>
<polygon fill="none" stroke="black" points="1692,-1098 1460,-1098 1460,-1062 1692,-1062 1692,-1098"/>
<text text-anchor="middle" x="1576" y="-1077.1" font-family="Courier,monospace" font-size="11.00">HttpSourceConfigFactoryiAmExists</text>
</g>
<!-- \\HttpSourceConfigFactoryiAmExistsANDValid -->
<g id="node25" class="node"><title>\\HttpSourceConfigFactoryiAmExistsANDValid</title>
<polygon fill="none" stroke="black" points="1719,-1908 1433,-1908 1433,-1872 1719,-1872 1719,-1908"/>
<text text-anchor="middle" x="1576" y="-1887.1" font-family="Courier,monospace" font-size="11.00">HttpSourceConfigFactoryiAmExistsANDValid</text>
</g>
<!-- \\HttpSourceConfigFactory -->
<g id="node51" class="node"><title>\\HttpSourceConfigFactory</title>
<polygon fill="none" stroke="black" points="1279,-1881 1107,-1881 1107,-1845 1279,-1845 1279,-1881"/>
<text text-anchor="middle" x="1193" y="-1860.1" font-family="Courier,monospace" font-size="11.00">HttpSourceConfigFactory</text>
</g>
<!-- \\HttpSourceConfigFactoryiAmExistsANDValid&#45;&gt;\\HttpSourceConfigFactory -->
<g id="edge45" class="edge"><title>\\HttpSourceConfigFactoryiAmExistsANDValid&#45;&gt;\\HttpSourceConfigFactory</title>
<path fill="none" stroke="black" d="M1432.3,-1879.87C1384.54,-1876.5 1332.56,-1872.84 1289.28,-1869.79"/>
<polygon fill="none" stroke="black" points="1289.26,-1866.28 1279.04,-1869.07 1288.77,-1873.26 1289.26,-1866.28"/>
</g>
<!-- \\HttpSourceConfigiAmExistsANDValid -->
<g id="node26" class="node"><title>\\HttpSourceConfigiAmExistsANDValid</title>
<polygon fill="none" stroke="black" points="933,-2124 695,-2124 695,-2088 933,-2088 933,-2124"/>
<text text-anchor="middle" x="814" y="-2103.1" font-family="Courier,monospace" font-size="11.00">HttpSourceConfigiAmExistsANDValid</text>
</g>
<!-- \\HttpSourceConfig -->
<g id="node52" class="node"><title>\\HttpSourceConfig</title>
<polygon fill="none" stroke="black" points="507,-2124 383,-2124 383,-2088 507,-2088 507,-2124"/>
<text text-anchor="middle" x="445" y="-2103.1" font-family="Courier,monospace" font-size="11.00">HttpSourceConfig</text>
</g>
<!-- \\HttpSourceConfigiAmExistsANDValid&#45;&gt;\\HttpSourceConfig -->
<g id="edge47" class="edge"><title>\\HttpSourceConfigiAmExistsANDValid&#45;&gt;\\HttpSourceConfig</title>
<path fill="none" stroke="black" d="M694.451,-2106C636.257,-2106 568.18,-2106 517.859,-2106"/>
<polygon fill="none" stroke="black" points="517.721,-2102.5 507.721,-2106 517.721,-2109.5 517.721,-2102.5"/>
</g>
<!-- \\HttpSourceEndpointiAmExistsANDValid -->
<g id="node27" class="node"><title>\\HttpSourceEndpointiAmExistsANDValid</title>
<polygon fill="none" stroke="black" points="940,-2070 688,-2070 688,-2034 940,-2034 940,-2070"/>
<text text-anchor="middle" x="814" y="-2049.1" font-family="Courier,monospace" font-size="11.00">HttpSourceEndpointiAmExistsANDValid</text>
</g>
<!-- \\HttpSourceEndpoint -->
<g id="node45" class="node"><title>\\HttpSourceEndpoint</title>
<polygon fill="none" stroke="black" points="514,-2070 376,-2070 376,-2034 514,-2034 514,-2070"/>
<text text-anchor="middle" x="445" y="-2049.1" font-family="Courier,monospace" font-size="11.00">HttpSourceEndpoint</text>
</g>
<!-- \\HttpSourceEndpointiAmExistsANDValid&#45;&gt;\\HttpSourceEndpoint -->
<g id="edge49" class="edge"><title>\\HttpSourceEndpointiAmExistsANDValid&#45;&gt;\\HttpSourceEndpoint</title>
<path fill="none" stroke="black" d="M687.269,-2052C633.255,-2052 571.894,-2052 524.44,-2052"/>
<polygon fill="none" stroke="black" points="524.228,-2048.5 514.228,-2052 524.228,-2055.5 524.228,-2048.5"/>
</g>
<!-- \\HttpSourceConditioniAmExistsANDValid -->
<g id="node28" class="node"><title>\\HttpSourceConditioniAmExistsANDValid</title>
<polygon fill="none" stroke="black" points="1706,-2124 1446,-2124 1446,-2088 1706,-2088 1706,-2124"/>
<text text-anchor="middle" x="1576" y="-2103.1" font-family="Courier,monospace" font-size="11.00">HttpSourceConditioniAmExistsANDValid</text>
</g>
<!-- \\HttpSourceCondition -->
<g id="node48" class="node"><title>\\HttpSourceCondition</title>
<polygon fill="none" stroke="black" points="1265,-2056 1121,-2056 1121,-2020 1265,-2020 1265,-2056"/>
<text text-anchor="middle" x="1193" y="-2035.1" font-family="Courier,monospace" font-size="11.00">HttpSourceCondition</text>
</g>
<!-- \\HttpSourceConditioniAmExistsANDValid&#45;&gt;\\HttpSourceCondition -->
<g id="edge51" class="edge"><title>\\HttpSourceConditioniAmExistsANDValid&#45;&gt;\\HttpSourceCondition</title>
<path fill="none" stroke="black" d="M1479.16,-2087.93C1463.39,-2084.97 1447.24,-2081.91 1432,-2079 1399.98,-2072.89 1392.09,-2070.71 1360,-2065 1332.69,-2060.14 1302.81,-2055.19 1275.96,-2050.88"/>
<polygon fill="none" stroke="black" points="1276.26,-2047.38 1265.83,-2049.26 1275.16,-2054.3 1276.26,-2047.38"/>
</g>
<!-- \\HttpSourceFieldiAmExistsANDValid -->
<g id="node29" class="node"><title>\\HttpSourceFieldiAmExistsANDValid</title>
<polygon fill="none" stroke="black" points="1309,-2110 1077,-2110 1077,-2074 1309,-2074 1309,-2110"/>
<text text-anchor="middle" x="1193" y="-2089.1" font-family="Courier,monospace" font-size="11.00">HttpSourceFieldiAmExistsANDValid</text>
</g>
<!-- \\HttpSourceField -->
<g id="node47" class="node"><title>\\HttpSourceField</title>
<polygon fill="none" stroke="black" points="873,-2016 755,-2016 755,-1980 873,-1980 873,-2016"/>
<text text-anchor="middle" x="814" y="-1995.1" font-family="Courier,monospace" font-size="11.00">HttpSourceField</text>
</g>
<!-- \\HttpSourceFieldiAmExistsANDValid&#45;&gt;\\HttpSourceField -->
<g id="edge53" class="edge"><title>\\HttpSourceFieldiAmExistsANDValid&#45;&gt;\\HttpSourceField</title>
<path fill="none" stroke="black" d="M1076.27,-2078.45C1059.17,-2074.94 1041.96,-2070.53 1026,-2065 991.413,-2053.01 988.402,-2037.51 954,-2025 931.507,-2016.82 906.033,-2010.97 883.039,-2006.85"/>
<polygon fill="none" stroke="black" points="883.458,-2003.37 873.011,-2005.14 882.278,-2010.27 883.458,-2003.37"/>
</g>
<!-- \\HttpSourceResultiAmExistsANDValid -->
<g id="node30" class="node"><title>\\HttpSourceResultiAmExistsANDValid</title>
<polygon fill="none" stroke="black" points="1312,-1935 1074,-1935 1074,-1899 1312,-1899 1312,-1935"/>
<text text-anchor="middle" x="1193" y="-1914.1" font-family="Courier,monospace" font-size="11.00">HttpSourceResultiAmExistsANDValid</text>
</g>
<!-- \\HttpSourceResult -->
<g id="node49" class="node"><title>\\HttpSourceResult</title>
<polygon fill="none" stroke="black" points="876,-1908 752,-1908 752,-1872 876,-1872 876,-1908"/>
<text text-anchor="middle" x="814" y="-1887.1" font-family="Courier,monospace" font-size="11.00">HttpSourceResult</text>
</g>
<!-- \\HttpSourceResultiAmExistsANDValid&#45;&gt;\\HttpSourceResult -->
<g id="edge55" class="edge"><title>\\HttpSourceResultiAmExistsANDValid&#45;&gt;\\HttpSourceResult</title>
<path fill="none" stroke="black" d="M1073.34,-1908.48C1012.13,-1904.11 939.613,-1898.95 886.846,-1895.19"/>
<polygon fill="none" stroke="black" points="886.789,-1891.68 876.565,-1894.46 886.291,-1898.66 886.789,-1891.68"/>
</g>
<!-- \\HttpSourceConfigFactoryItemTest -->
<g id="node31" class="node"><title>\\HttpSourceConfigFactoryItemTest</title>
<polygon fill="none" stroke="black" points="1689,-1260 1463,-1260 1463,-1224 1689,-1224 1689,-1260"/>
<text text-anchor="middle" x="1576" y="-1239.1" font-family="Courier,monospace" font-size="11.00">HttpSourceConfigFactoryItemTest</text>
</g>
<!-- \\HttpSourceConfigFactoryItemTest&#45;&gt;\\CakeTestCase -->
<g id="edge57" class="edge"><title>\\HttpSourceConfigFactoryItemTest&#45;&gt;\\CakeTestCase</title>
<path fill="none" stroke="black" d="M1462.8,-1236.1C1451.14,-1231.29 1440.48,-1224.48 1432,-1215 1287.89,-1053.9 1506.11,-404.283 1360,-245 1339.49,-222.638 1308.33,-213.929 1278.46,-211.494"/>
<polygon fill="none" stroke="black" points="1278.59,-207.996 1268.4,-210.898 1278.17,-214.983 1278.59,-207.996"/>
</g>
<!-- \\HttpSourceConfigFactoryItemiAmExistsANDValid -->
<g id="node32" class="node"><title>\\HttpSourceConfigFactoryItemiAmExistsANDValid</title>
<polygon fill="none" stroke="black" points="602,-2016 288,-2016 288,-1980 602,-1980 602,-2016"/>
<text text-anchor="middle" x="445" y="-1995.1" font-family="Courier,monospace" font-size="11.00">HttpSourceConfigFactoryItemiAmExistsANDValid</text>
</g>
<!-- \\HttpSourceConfigFactoryItem -->
<g id="node46" class="node"><title>\\HttpSourceConfigFactoryItem</title>
<polygon fill="none" stroke="black" points="216,-2043 16,-2043 16,-2007 216,-2007 216,-2043"/>
<text text-anchor="start" x="82" y="-2030.43" font-family="Courier,monospace" font-size="11.00">«abstract»</text>
<text text-anchor="start" x="24.5" y="-2017.23" font-family="Courier,monospace" font-size="11.00">HttpSourceConfigFactoryItem</text>
</g>
<!-- \\HttpSourceConfigFactoryItemiAmExistsANDValid&#45;&gt;\\HttpSourceConfigFactoryItem -->
<g id="edge59" class="edge"><title>\\HttpSourceConfigFactoryItemiAmExistsANDValid&#45;&gt;\\HttpSourceConfigFactoryItem</title>
<path fill="none" stroke="black" d="M287.727,-2010.91C267.046,-2012.6 246.213,-2014.31 226.538,-2015.93"/>
<polygon fill="none" stroke="black" points="226.041,-2012.46 216.361,-2016.76 226.614,-2019.43 226.041,-2012.46"/>
</g>
<!-- \\HttpSourceEndpointItemTest -->
<g id="node33" class="node"><title>\\HttpSourceEndpointItemTest</title>
<polygon fill="none" stroke="black" points="1672,-1206 1480,-1206 1480,-1170 1672,-1170 1672,-1206"/>
<text text-anchor="middle" x="1576" y="-1185.1" font-family="Courier,monospace" font-size="11.00">HttpSourceEndpointItemTest</text>
</g>
<!-- \\HttpSourceEndpointItemTest&#45;&gt;\\CakeTestCase -->
<g id="edge61" class="edge"><title>\\HttpSourceEndpointItemTest&#45;&gt;\\CakeTestCase</title>
<path fill="none" stroke="black" d="M1479.84,-1187.6C1461.68,-1183.05 1444.49,-1174.91 1432,-1161 1295.54,-1009.11 1498.35,-395.166 1360,-245 1339.53,-222.78 1308.54,-214.058 1278.8,-211.574"/>
<polygon fill="none" stroke="black" points="1278.97,-208.078 1268.78,-210.96 1278.54,-215.065 1278.97,-208.078"/>
</g>
<!-- \\HttpSourceEndpointItemiAmExistsANDValid -->
<g id="node34" class="node"><title>\\HttpSourceEndpointItemiAmExistsANDValid</title>
<polygon fill="none" stroke="black" points="954,-1962 674,-1962 674,-1926 954,-1926 954,-1962"/>
<text text-anchor="middle" x="814" y="-1941.1" font-family="Courier,monospace" font-size="11.00">HttpSourceEndpointItemiAmExistsANDValid</text>
</g>
<!-- \\HttpSourceEndpointItem -->
<g id="node50" class="node"><title>\\HttpSourceEndpointItem</title>
<polygon fill="none" stroke="black" points="528,-1962 362,-1962 362,-1926 528,-1926 528,-1962"/>
<text text-anchor="start" x="411" y="-1949.43" font-family="Courier,monospace" font-size="11.00">«abstract»</text>
<text text-anchor="start" x="370.5" y="-1936.23" font-family="Courier,monospace" font-size="11.00">HttpSourceEndpointItem</text>
</g>
<!-- \\HttpSourceEndpointItemiAmExistsANDValid&#45;&gt;\\HttpSourceEndpointItem -->
<g id="edge63" class="edge"><title>\\HttpSourceEndpointItemiAmExistsANDValid&#45;&gt;\\HttpSourceEndpointItem</title>
<path fill="none" stroke="black" d="M673.971,-1944C628.578,-1944 579.366,-1944 538.241,-1944"/>
<polygon fill="none" stroke="black" points="538.239,-1940.5 528.239,-1944 538.239,-1947.5 538.239,-1940.5"/>
</g>
<!-- \\HttpSourceFieldTest -->
<g id="node35" class="node"><title>\\HttpSourceFieldTest</title>
<polygon fill="none" stroke="black" points="1648,-1152 1504,-1152 1504,-1116 1648,-1116 1648,-1152"/>
<text text-anchor="middle" x="1576" y="-1131.1" font-family="Courier,monospace" font-size="11.00">HttpSourceFieldTest</text>
</g>
<!-- \\HttpSourceFieldTest&#45;&gt;\\CakeTestCase -->
<g id="edge65" class="edge"><title>\\HttpSourceFieldTest&#45;&gt;\\CakeTestCase</title>
<path fill="none" stroke="black" d="M1503.48,-1137.59C1477.34,-1134.93 1449.9,-1126.82 1432,-1107 1303.18,-964.325 1490.59,-386.05 1360,-245 1339.47,-222.83 1308.48,-214.118 1278.74,-211.628"/>
<polygon fill="none" stroke="black" points="1278.92,-208.132 1268.72,-211.011 1278.49,-215.119 1278.92,-208.132"/>
</g>
<!-- \\HttpSourceEndpointTest -->
<g id="node36" class="node"><title>\\HttpSourceEndpointTest</title>
<polygon fill="none" stroke="black" points="1658,-1314 1494,-1314 1494,-1278 1658,-1278 1658,-1314"/>
<text text-anchor="middle" x="1576" y="-1293.1" font-family="Courier,monospace" font-size="11.00">HttpSourceEndpointTest</text>
</g>
<!-- \\HttpSourceEndpointTest&#45;&gt;\\CakeTestCase -->
<g id="edge67" class="edge"><title>\\HttpSourceEndpointTest&#45;&gt;\\CakeTestCase</title>
<path fill="none" stroke="black" d="M1493.22,-1298.41C1470.29,-1294.78 1447.48,-1286.38 1432,-1269 1280.25,-1098.68 1513.88,-413.403 1360,-245 1339.53,-222.599 1308.38,-213.881 1278.51,-211.452"/>
<polygon fill="none" stroke="black" points="1278.63,-207.953 1268.44,-210.858 1278.22,-214.941 1278.63,-207.953"/>
</g>
<!-- \\AllHttpSourceTest -->
<g id="node37" class="node"><title>\\AllHttpSourceTest</title>
<polygon fill="none" stroke="black" points="1641,-558 1511,-558 1511,-522 1641,-522 1641,-558"/>
<text text-anchor="middle" x="1576" y="-537.1" font-family="Courier,monospace" font-size="11.00">AllHttpSourceTest</text>
</g>
<!-- \\PHPUnit_Framework_TestSuite -->
<g id="node94" class="node"><title>\\PHPUnit_Framework_TestSuite</title>
<ellipse fill="none" stroke="black" cx="1193" cy="-110" rx="166.877" ry="18.3848"/>
<text text-anchor="middle" x="1193" y="-106.4" font-family="Times Roman,serif" font-size="14.00" fill="gray">\PHPUnit_Framework_TestSuite</text>
</g>
<!-- \\AllHttpSourceTest&#45;&gt;\\PHPUnit_Framework_TestSuite -->
<g id="edge69" class="edge"><title>\\AllHttpSourceTest&#45;&gt;\\PHPUnit_Framework_TestSuite</title>
<path fill="none" stroke="black" d="M1510.46,-543.126C1482.81,-540.922 1452.36,-533.285 1432,-513 1311.46,-392.92 1482.04,-255.561 1360,-137 1355.05,-132.188 1349.59,-128.031 1343.78,-124.451"/>
<polygon fill="none" stroke="black" points="1345.45,-121.379 1335,-119.61 1342.07,-127.507 1345.45,-121.379"/>
</g>
<!-- \\HttpSourceDocument -->
<g id="node38" class="node"><title>\\HttpSourceDocument</title>
<polygon fill="none" stroke="black" points="1645,-1584 1507,-1584 1507,-1548 1645,-1548 1645,-1584"/>
<text text-anchor="middle" x="1576" y="-1563.1" font-family="Courier,monospace" font-size="11.00">HttpSourceDocument</text>
</g>
<!-- \\HttpSourceDocument&#45;&gt;\\HttpSourceModel -->
<g id="edge71" class="edge"><title>\\HttpSourceDocument&#45;&gt;\\HttpSourceModel</title>
<path fill="none" stroke="black" d="M1506.64,-1570.89C1437.44,-1575.77 1331.72,-1583.22 1262.48,-1588.1"/>
<polygon fill="none" stroke="black" points="1261.84,-1584.64 1252.11,-1588.83 1262.33,-1591.62 1261.84,-1584.64"/>
</g>
<!-- \\HttpSourceUser -->
<g id="node39" class="node"><title>\\HttpSourceUser</title>
<polygon fill="none" stroke="black" points="1631,-504 1521,-504 1521,-468 1631,-468 1631,-504"/>
<text text-anchor="middle" x="1576" y="-483.1" font-family="Courier,monospace" font-size="11.00">HttpSourceUser</text>
</g>
<!-- \\HttpSourceUser&#45;&gt;\\AppModel -->
<g id="edge73" class="edge"><title>\\HttpSourceUser&#45;&gt;\\AppModel</title>
<path fill="none" stroke="black" d="M1520.23,-489.695C1490.22,-488.567 1454.8,-481.708 1432,-459 1311.46,-338.92 1491.14,-191.41 1360,-83 1302.79,-35.7091 1099.56,-73.1189 1026,-83 968.811,-90.6819 905.212,-109.526 862.731,-123.666"/>
<polygon fill="none" stroke="black" points="861.56,-120.367 853.201,-126.876 863.795,-127 861.56,-120.367"/>
</g>
<!-- \\HttpSourceAppTest&#45;&gt;\\CakeTestCase -->
<g id="edge75" class="edge"><title>\\HttpSourceAppTest&#45;&gt;\\CakeTestCase</title>
<path fill="none" stroke="black" d="M1259.07,-1987.64C1305.32,-1986.22 1364.32,-1975.58 1396,-1935 1424.74,-1898.2 1424.74,-290.805 1396,-254 1368,-218.142 1317.77,-209.016 1274.28,-208.917"/>
<polygon fill="none" stroke="black" points="1274.2,-205.418 1264.25,-209.05 1274.3,-212.417 1274.2,-205.418"/>
</g>
<!-- \\HttpSourceUsersDocumentFixture -->
<g id="node41" class="node"><title>\\HttpSourceUsersDocumentFixture</title>
<polygon fill="none" stroke="black" points="1685,-1422 1467,-1422 1467,-1386 1685,-1386 1685,-1422"/>
<text text-anchor="middle" x="1576" y="-1401.1" font-family="Courier,monospace" font-size="11.00">HttpSourceUsersDocumentFixture</text>
</g>
<!-- \\HttpSourceUsersDocumentFixture&#45;&gt;\\CakeTestFixture -->
<g id="edge77" class="edge"><title>\\HttpSourceUsersDocumentFixture&#45;&gt;\\CakeTestFixture</title>
<path fill="none" stroke="black" d="M1466.29,-1399.52C1453.26,-1394.65 1441.3,-1387.45 1432,-1377 1279.54,-1205.83 1517.06,-514.964 1360,-348 1340.1,-326.85 1310.52,-318.797 1281.75,-316.863"/>
<polygon fill="none" stroke="black" points="1281.77,-313.361 1271.63,-316.423 1281.47,-320.354 1281.77,-313.361"/>
</g>
<!-- \\HttpSourceUserFixture -->
<g id="node42" class="node"><title>\\HttpSourceUserFixture</title>
<polygon fill="none" stroke="black" points="1655,-1476 1497,-1476 1497,-1440 1655,-1440 1655,-1476"/>
<text text-anchor="middle" x="1576" y="-1455.1" font-family="Courier,monospace" font-size="11.00">HttpSourceUserFixture</text>
</g>
<!-- \\HttpSourceUserFixture&#45;&gt;\\CakeTestFixture -->
<g id="edge79" class="edge"><title>\\HttpSourceUserFixture&#45;&gt;\\CakeTestFixture</title>
<path fill="none" stroke="black" d="M1496.93,-1461C1472.77,-1457.71 1448.29,-1449.36 1432,-1431 1271.89,-1250.61 1524.96,-523.971 1360,-348 1340.05,-326.72 1310.3,-318.682 1281.41,-316.799"/>
<polygon fill="none" stroke="black" points="1281.38,-313.294 1271.24,-316.377 1281.09,-320.288 1281.38,-313.294"/>
</g>
<!-- \\HttpSourceException -->
<g id="node43" class="node"><title>\\HttpSourceException</title>
<polygon fill="none" stroke="black" points="1648,-396 1504,-396 1504,-360 1648,-360 1648,-396"/>
<text text-anchor="middle" x="1576" y="-375.1" font-family="Courier,monospace" font-size="11.00">HttpSourceException</text>
</g>
<!-- \\CakeException -->
<g id="node101" class="node"><title>\\CakeException</title>
<ellipse fill="none" stroke="black" cx="1193" cy="-18" rx="85.7684" ry="18.3848"/>
<text text-anchor="middle" x="1193" y="-14.4" font-family="Times Roman,serif" font-size="14.00" fill="gray">\CakeException</text>
</g>
<!-- \\HttpSourceException&#45;&gt;\\CakeException -->
<g id="edge81" class="edge"><title>\\HttpSourceException&#45;&gt;\\CakeException</title>
<path fill="none" stroke="black" d="M1569.85,-359.778C1549.78,-303.351 1480.48,-130.476 1360,-50 1338.87,-35.8867 1313.07,-27.6464 1288.13,-22.9253"/>
<polygon fill="none" stroke="black" points="1288.7,-19.4728 1278.26,-21.2257 1287.52,-26.3714 1288.7,-19.4728"/>
</g>
<!-- \\HttpSourceConfigException -->
<g id="node44" class="node"><title>\\HttpSourceConfigException</title>
<polygon fill="none" stroke="black" points="1668,-450 1484,-450 1484,-414 1668,-414 1668,-450"/>
<text text-anchor="middle" x="1576" y="-429.1" font-family="Courier,monospace" font-size="11.00">HttpSourceConfigException</text>
</g>
<!-- \\HttpSourceConfigException&#45;&gt;\\CakeException -->
<g id="edge83" class="edge"><title>\\HttpSourceConfigException&#45;&gt;\\CakeException</title>
<path fill="none" stroke="black" d="M1483.33,-430.936C1464.3,-426.563 1445.86,-418.657 1432,-405 1317.33,-292.006 1474.45,-163.222 1360,-50 1341.2,-31.4064 1315.12,-21.906 1289.15,-17.412"/>
<polygon fill="none" stroke="black" points="1289.62,-13.9441 1279.22,-15.9262 1288.59,-20.8671 1289.62,-13.9441"/>
</g>
<!-- \\HttpSourceEndpoint&#45;&gt;\\HttpSourceConfigFactoryItem -->
<g id="edge85" class="edge"><title>\\HttpSourceEndpoint&#45;&gt;\\HttpSourceConfigFactoryItem</title>
<path fill="none" stroke="black" d="M375.63,-2046.31C332.33,-2042.75 275.632,-2038.1 226.27,-2034.05"/>
<polygon fill="none" stroke="black" points="226.432,-2030.55 216.179,-2033.22 225.859,-2037.53 226.432,-2030.55"/>
</g>
<!-- \\HttpSourceField&#45;&gt;\\HttpSourceEndpointItem -->
<g id="edge87" class="edge"><title>\\HttpSourceField&#45;&gt;\\HttpSourceEndpointItem</title>
<path fill="none" stroke="black" d="M754.714,-1989.32C696.386,-1980.79 606.447,-1967.63 538.488,-1957.68"/>
<polygon fill="none" stroke="black" points="538.604,-1954.16 528.203,-1956.18 537.59,-1961.09 538.604,-1954.16"/>
</g>
<!-- \\HttpSourceCondition&#45;&gt;\\HttpSourceField -->
<g id="edge89" class="edge"><title>\\HttpSourceCondition&#45;&gt;\\HttpSourceField</title>
<path fill="none" stroke="black" d="M1120.37,-2030.33C1051.99,-2023.12 950.284,-2012.38 883.08,-2005.29"/>
<polygon fill="none" stroke="black" points="883.324,-2001.8 873.012,-2004.23 882.589,-2008.76 883.324,-2001.8"/>
</g>
<!-- \\HttpSourceResult&#45;&gt;\\HttpSourceEndpointItem -->
<g id="edge91" class="edge"><title>\\HttpSourceResult&#45;&gt;\\HttpSourceEndpointItem</title>
<path fill="none" stroke="black" d="M751.404,-1899.16C692.926,-1907.72 604.873,-1920.6 538.145,-1930.37"/>
<polygon fill="none" stroke="black" points="537.432,-1926.94 528.044,-1931.85 538.446,-1933.86 537.432,-1926.94"/>
</g>
<!-- \\HttpSourceEndpointItem&#45;&gt;\\HttpSourceConfigFactoryItem -->
<g id="edge93" class="edge"><title>\\HttpSourceEndpointItem&#45;&gt;\\HttpSourceConfigFactoryItem</title>
<path fill="none" stroke="black" d="M361.871,-1956.16C337.896,-1960.24 311.791,-1965.25 288,-1971 250.643,-1980.03 209.55,-1992.83 176.899,-2003.69"/>
<polygon fill="none" stroke="black" points="175.418,-2000.5 167.051,-2007 177.645,-2007.13 175.418,-2000.5"/>
</g>
<!-- \\HttpSourceConfig&#45;&gt;\\HttpSourceConfigFactoryItem -->
<g id="edge95" class="edge"><title>\\HttpSourceConfig&#45;&gt;\\HttpSourceConfigFactoryItem</title>
<path fill="none" stroke="black" d="M382.339,-2097.19C353.434,-2092.63 318.78,-2086.44 288,-2079 250.643,-2069.97 209.55,-2057.17 176.899,-2046.31"/>
<polygon fill="none" stroke="black" points="177.645,-2042.87 167.051,-2043 175.418,-2049.5 177.645,-2042.87"/>
</g>
</g>
</svg>
