<?xml version="1.0" encoding="UTF-8" standalone="no"?>
<!DOCTYPE svg PUBLIC "-//W3C//DTD SVG 1.1//EN"
 "http://www.w3.org/Graphics/SVG/1.1/DTD/svg11.dtd">
<!-- Generated by graphviz version 2.26.3 (20100126.1600)
 -->
<!-- Title: G Pages: 1 -->
<svg width="1744pt" height="2179pt"
 viewBox="0.00 0.00 1744.00 2179.17" xmlns="http://www.w3.org/2000/svg" xmlns:xlink="http://www.w3.org/1999/xlink">
<g id="graph1" class="graph" transform="scale(1 1) rotate(0) translate(4 2175.17)">
<title>G</title>
<polygon fill="white" stroke="white" points="-4,5 -4,-2175.17 1741,-2175.17 1741,5 -4,5"/>
<g id="graph2" class="cluster"><title>cluster_Global</title>
<polyline fill="none" stroke="gray" points="20,-361.166 1716,-361.166 "/>
<path fill="none" stroke="gray" d="M1716,-361.166C1722,-361.166 1728,-367.166 1728,-373.166"/>
<polyline fill="none" stroke="gray" points="1728,-373.166 1728,-2151.17 "/>
<path fill="none" stroke="gray" d="M1728,-2151.17C1728,-2157.17 1722,-2163.17 1716,-2163.17"/>
<polyline fill="none" stroke="gray" points="1716,-2163.17 20,-2163.17 "/>
<path fill="none" stroke="gray" d="M20,-2163.17C14,-2163.17 8,-2157.17 8,-2151.17"/>
<polyline fill="none" stroke="gray" points="8,-2151.17 8,-373.166 "/>
<path fill="none" stroke="gray" d="M8,-373.166C8,-367.166 14,-361.166 20,-361.166"/>
<text text-anchor="middle" x="868" y="-2149.27" font-family="Times Roman,serif" font-size="11.00" fill="gray">Global</text>
</g>
<!-- \\TestHttpSourceModel -->
<g id="node2" class="node"><title>\\TestHttpSourceModel</title>
<polygon fill="none" stroke="black" points="1648,-1647.17 1504,-1647.17 1504,-1611.17 1648,-1611.17 1648,-1647.17"/>
<text text-anchor="middle" x="1576" y="-1626.27" font-family="Courier,monospace" font-size="11.00">TestHttpSourceModel</text>
</g>
<!-- \\HttpSourceModel -->
<g id="node50" class="node"><title>\\HttpSourceModel</title>
<polygon fill="none" stroke="black" points="1252,-1620.17 1134,-1620.17 1134,-1584.17 1252,-1584.17 1252,-1620.17"/>
<text text-anchor="middle" x="1193" y="-1599.27" font-family="Courier,monospace" font-size="11.00">HttpSourceModel</text>
</g>
<!-- \\TestHttpSourceModel&#45;&gt;\\HttpSourceModel -->
<g id="edge3" class="edge"><title>\\TestHttpSourceModel&#45;&gt;\\HttpSourceModel</title>
<path fill="none" stroke="black" d="M1503.06,-1624.02C1433.8,-1619.14 1330.42,-1611.85 1262.37,-1607.06"/>
<polygon fill="none" stroke="black" points="1262.4,-1603.55 1252.18,-1606.34 1261.9,-1610.53 1262.4,-1603.55"/>
</g>
<!-- \\TestHttpSourceConnection -->
<g id="node3" class="node"><title>\\TestHttpSourceConnection</title>
<polygon fill="none" stroke="black" points="1665,-2025.17 1487,-2025.17 1487,-1989.17 1665,-1989.17 1665,-2025.17"/>
<text text-anchor="middle" x="1576" y="-2004.27" font-family="Courier,monospace" font-size="11.00">TestHttpSourceConnection</text>
</g>
<!-- \\HttpSourceConnection -->
<g id="node51" class="node"><title>\\HttpSourceConnection</title>
<polygon fill="none" stroke="black" points="1269,-1917.17 1117,-1917.17 1117,-1881.17 1269,-1881.17 1269,-1917.17"/>
<text text-anchor="middle" x="1193" y="-1896.27" font-family="Courier,monospace" font-size="11.00">HttpSourceConnection</text>
</g>
<!-- \\TestHttpSourceConnection&#45;&gt;\\HttpSourceConnection -->
<g id="edge5" class="edge"><title>\\TestHttpSourceConnection&#45;&gt;\\HttpSourceConnection</title>
<path fill="none" stroke="black" d="M1486.12,-1996.88C1467.75,-1992.98 1448.88,-1987.59 1432,-1980.17 1395.39,-1964.06 1396.81,-1941.81 1360,-1926.17 1334.83,-1915.47 1305.88,-1908.98 1279.23,-1905.06"/>
<polygon fill="none" stroke="black" points="1279.52,-1901.56 1269.14,-1903.68 1278.57,-1908.5 1279.52,-1901.56"/>
</g>
<!-- \\TestHttpSource -->
<g id="node4" class="node"><title>\\TestHttpSource</title>
<polygon fill="none" stroke="black" points="1631,-1917.17 1521,-1917.17 1521,-1881.17 1631,-1881.17 1631,-1917.17"/>
<text text-anchor="middle" x="1576" y="-1896.27" font-family="Courier,monospace" font-size="11.00">TestHttpSource</text>
</g>
<!-- \\HttpSource -->
<g id="node52" class="node"><title>\\HttpSource</title>
<polygon fill="none" stroke="black" points="1235,-1863.17 1151,-1863.17 1151,-1827.17 1235,-1827.17 1235,-1863.17"/>
<text text-anchor="start" x="1159" y="-1850.6" font-family="Courier,monospace" font-size="11.00">«abstract»</text>
<text text-anchor="start" x="1159" y="-1837.4" font-family="Courier,monospace" font-size="11.00">HttpSource</text>
</g>
<!-- \\TestHttpSource&#45;&gt;\\HttpSource -->
<g id="edge7" class="edge"><title>\\TestHttpSource&#45;&gt;\\HttpSource</title>
<path fill="none" stroke="black" d="M1520.31,-1891.31C1446.75,-1880.94 1318.1,-1862.8 1245.95,-1852.63"/>
<polygon fill="none" stroke="black" points="1246.11,-1849.12 1235.72,-1851.19 1245.14,-1856.05 1246.11,-1849.12"/>
</g>
<!-- \\HttpSourceException -->
<g id="node5" class="node"><title>\\HttpSourceException</title>
<polygon fill="none" stroke="black" points="1648,-1539.17 1504,-1539.17 1504,-1503.17 1648,-1503.17 1648,-1539.17"/>
<text text-anchor="middle" x="1576" y="-1518.27" font-family="Courier,monospace" font-size="11.00">HttpSourceException</text>
</g>
<!-- \\CakeException -->
<g id="node57" class="node"><title>\\CakeException</title>
<ellipse fill="none" stroke="black" cx="1193" cy="-335.166" rx="85.7684" ry="18.3848"/>
<text text-anchor="middle" x="1193" y="-331.566" font-family="Times Roman,serif" font-size="14.00" fill="gray">\CakeException</text>
</g>
<!-- \\HttpSourceException&#45;&gt;\\CakeException -->
<g id="edge9" class="edge"><title>\\HttpSourceException&#45;&gt;\\CakeException</title>
<path fill="none" stroke="black" d="M1503.27,-1524.94C1477.1,-1522.3 1449.7,-1514.17 1432,-1494.17 1264.24,-1304.56 1532.86,-542.146 1360,-357.166 1338.92,-334.61 1306.83,-326.916 1276.39,-325.662"/>
<polygon fill="none" stroke="black" points="1276.21,-322.158 1266.15,-325.471 1276.08,-329.157 1276.21,-322.158"/>
</g>
<!-- \\HttpSourceConfigException -->
<g id="node6" class="node"><title>\\HttpSourceConfigException</title>
<polygon fill="none" stroke="black" points="1668,-1485.17 1484,-1485.17 1484,-1449.17 1668,-1449.17 1668,-1485.17"/>
<text text-anchor="middle" x="1576" y="-1464.27" font-family="Courier,monospace" font-size="11.00">HttpSourceConfigException</text>
</g>
<!-- \\HttpSourceConfigException&#45;&gt;\\CakeException -->
<g id="edge11" class="edge"><title>\\HttpSourceConfigException&#45;&gt;\\CakeException</title>
<path fill="none" stroke="black" d="M1483.43,-1467.76C1463.92,-1463.41 1445.25,-1455.1 1432,-1440.17 1271.89,-1259.78 1524.96,-533.137 1360,-357.166 1338.89,-334.643 1306.79,-326.955 1276.36,-325.696"/>
<polygon fill="none" stroke="black" points="1276.18,-322.192 1266.12,-325.504 1276.05,-329.191 1276.18,-322.192"/>
</g>
<!-- \\HttpSourceEndpointItem -->
<g id="node7" class="node"><title>\\HttpSourceEndpointItem</title>
<polygon fill="none" stroke="black" points="528,-1971.17 362,-1971.17 362,-1935.17 528,-1935.17 528,-1971.17"/>
<text text-anchor="start" x="411" y="-1958.6" font-family="Courier,monospace" font-size="11.00">«abstract»</text>
<text text-anchor="start" x="370.5" y="-1945.4" font-family="Courier,monospace" font-size="11.00">HttpSourceEndpointItem</text>
</g>
<!-- \\HttpSourceConfigFactoryItem -->
<g id="node10" class="node"><title>\\HttpSourceConfigFactoryItem</title>
<polygon fill="none" stroke="black" points="216,-2052.17 16,-2052.17 16,-2016.17 216,-2016.17 216,-2052.17"/>
<text text-anchor="start" x="82" y="-2039.6" font-family="Courier,monospace" font-size="11.00">«abstract»</text>
<text text-anchor="start" x="24.5" y="-2026.4" font-family="Courier,monospace" font-size="11.00">HttpSourceConfigFactoryItem</text>
</g>
<!-- \\HttpSourceEndpointItem&#45;&gt;\\HttpSourceConfigFactoryItem -->
<g id="edge13" class="edge"><title>\\HttpSourceEndpointItem&#45;&gt;\\HttpSourceConfigFactoryItem</title>
<path fill="none" stroke="black" d="M361.871,-1965.33C337.896,-1969.41 311.791,-1974.41 288,-1980.17 250.643,-1989.2 209.55,-2001.99 176.899,-2012.86"/>
<polygon fill="none" stroke="black" points="175.418,-2009.66 167.051,-2016.16 177.645,-2016.3 175.418,-2009.66"/>
</g>
<!-- \\HttpSourceEndpoint -->
<g id="node8" class="node"><title>\\HttpSourceEndpoint</title>
<polygon fill="none" stroke="black" points="514,-2025.17 376,-2025.17 376,-1989.17 514,-1989.17 514,-2025.17"/>
<text text-anchor="middle" x="445" y="-2004.27" font-family="Courier,monospace" font-size="11.00">HttpSourceEndpoint</text>
</g>
<!-- \\HttpSourceEndpoint&#45;&gt;\\HttpSourceConfigFactoryItem -->
<g id="edge15" class="edge"><title>\\HttpSourceEndpoint&#45;&gt;\\HttpSourceConfigFactoryItem</title>
<path fill="none" stroke="black" d="M375.63,-2012.86C332.33,-2016.41 275.632,-2021.07 226.27,-2025.12"/>
<polygon fill="none" stroke="black" points="225.859,-2021.64 216.179,-2025.94 226.432,-2028.61 225.859,-2021.64"/>
</g>
<!-- \\HttpSourceField -->
<g id="node9" class="node"><title>\\HttpSourceField</title>
<polygon fill="none" stroke="black" points="873,-1971.17 755,-1971.17 755,-1935.17 873,-1935.17 873,-1971.17"/>
<text text-anchor="middle" x="814" y="-1950.27" font-family="Courier,monospace" font-size="11.00">HttpSourceField</text>
</g>
<!-- \\HttpSourceField&#45;&gt;\\HttpSourceEndpointItem -->
<g id="edge17" class="edge"><title>\\HttpSourceField&#45;&gt;\\HttpSourceEndpointItem</title>
<path fill="none" stroke="black" d="M754.714,-1953.17C696.386,-1953.17 606.447,-1953.17 538.488,-1953.17"/>
<polygon fill="none" stroke="black" points="538.203,-1949.67 528.203,-1953.17 538.203,-1956.67 538.203,-1949.67"/>
</g>
<!-- \\HttpSourceResult -->
<g id="node11" class="node"><title>\\HttpSourceResult</title>
<polygon fill="none" stroke="black" points="876,-2025.17 752,-2025.17 752,-1989.17 876,-1989.17 876,-2025.17"/>
<text text-anchor="middle" x="814" y="-2004.27" font-family="Courier,monospace" font-size="11.00">HttpSourceResult</text>
</g>
<!-- \\HttpSourceResult&#45;&gt;\\HttpSourceEndpointItem -->
<g id="edge19" class="edge"><title>\\HttpSourceResult&#45;&gt;\\HttpSourceEndpointItem</title>
<path fill="none" stroke="black" d="M751.404,-1998.01C692.926,-1989.45 604.873,-1976.56 538.145,-1966.8"/>
<polygon fill="none" stroke="black" points="538.446,-1963.3 528.044,-1965.32 537.432,-1970.23 538.446,-1963.3"/>
</g>
<!-- \\HttpSourceConfigFactory -->
<g id="node12" class="node"><title>\\HttpSourceConfigFactory</title>
<polygon fill="none" stroke="black" points="1279,-2025.17 1107,-2025.17 1107,-1989.17 1279,-1989.17 1279,-2025.17"/>
<text text-anchor="middle" x="1193" y="-2004.27" font-family="Courier,monospace" font-size="11.00">HttpSourceConfigFactory</text>
</g>
<!-- \\HttpSourceConfig -->
<g id="node13" class="node"><title>\\HttpSourceConfig</title>
<polygon fill="none" stroke="black" points="507,-2079.17 383,-2079.17 383,-2043.17 507,-2043.17 507,-2079.17"/>
<text text-anchor="middle" x="445" y="-2058.27" font-family="Courier,monospace" font-size="11.00">HttpSourceConfig</text>
</g>
<!-- \\HttpSourceConfig&#45;&gt;\\HttpSourceConfigFactoryItem -->
<g id="edge21" class="edge"><title>\\HttpSourceConfig&#45;&gt;\\HttpSourceConfigFactoryItem</title>
<path fill="none" stroke="black" d="M382.343,-2056.02C338.385,-2052.42 278.429,-2047.5 226.533,-2043.24"/>
<polygon fill="none" stroke="black" points="226.521,-2039.72 216.269,-2042.39 225.949,-2046.7 226.521,-2039.72"/>
</g>
<!-- \\HttpSourceCondition -->
<g id="node14" class="node"><title>\\HttpSourceCondition</title>
<polygon fill="none" stroke="black" points="1265,-1971.17 1121,-1971.17 1121,-1935.17 1265,-1935.17 1265,-1971.17"/>
<text text-anchor="middle" x="1193" y="-1950.27" font-family="Courier,monospace" font-size="11.00">HttpSourceCondition</text>
</g>
<!-- \\HttpSourceCondition&#45;&gt;\\HttpSourceField -->
<g id="edge23" class="edge"><title>\\HttpSourceCondition&#45;&gt;\\HttpSourceField</title>
<path fill="none" stroke="black" d="M1120.37,-1953.17C1051.99,-1953.17 950.284,-1953.17 883.08,-1953.17"/>
<polygon fill="none" stroke="black" points="883.012,-1949.67 873.012,-1953.17 883.012,-1956.67 883.012,-1949.67"/>
</g>
<!-- \\HttpSourceController -->
<g id="node15" class="node"><title>\\HttpSourceController</title>
<polygon fill="none" stroke="black" points="1652,-1431.17 1500,-1431.17 1500,-1395.17 1652,-1395.17 1652,-1431.17"/>
<text text-anchor="middle" x="1576" y="-1410.27" font-family="Courier,monospace" font-size="11.00">HttpSourceController</text>
</g>
<!-- \\AppController -->
<g id="node66" class="node"><title>\\AppController</title>
<ellipse fill="none" stroke="black" cx="1193" cy="-281.166" rx="82.0244" ry="18.3848"/>
<text text-anchor="middle" x="1193" y="-277.566" font-family="Times Roman,serif" font-size="14.00" fill="gray">\AppController</text>
</g>
<!-- \\HttpSourceController&#45;&gt;\\AppController -->
<g id="edge25" class="edge"><title>\\HttpSourceController&#45;&gt;\\AppController</title>
<path fill="none" stroke="black" d="M1499.94,-1416.54C1474.81,-1413.55 1448.97,-1405.28 1432,-1386.17 1272.6,-1206.63 1521.64,-485.691 1360,-308.166 1339.57,-285.729 1308.43,-277.005 1278.55,-274.579"/>
<polygon fill="none" stroke="black" points="1278.67,-271.08 1268.48,-273.988 1278.26,-278.068 1278.67,-271.08"/>
</g>
<!-- \\HttpSourceUtility -->
<g id="node16" class="node"><title>\\HttpSourceUtility</title>
<polygon fill="none" stroke="black" points="1641,-1809.17 1511,-1809.17 1511,-1773.17 1641,-1773.17 1641,-1809.17"/>
<text text-anchor="middle" x="1576" y="-1788.27" font-family="Courier,monospace" font-size="11.00">HttpSourceUtility</text>
</g>
<!-- \\HttpSourceTestFixture -->
<g id="node17" class="node"><title>\\HttpSourceTestFixture</title>
<polygon fill="none" stroke="black" points="1655,-1215.17 1497,-1215.17 1497,-1179.17 1655,-1179.17 1655,-1215.17"/>
<text text-anchor="middle" x="1576" y="-1194.27" font-family="Courier,monospace" font-size="11.00">HttpSourceTestFixture</text>
</g>
<!-- \\CakeTestFixture -->
<g id="node68" class="node"><title>\\CakeTestFixture</title>
<ellipse fill="none" stroke="black" cx="1193" cy="-227.166" rx="92.1303" ry="18.3848"/>
<text text-anchor="middle" x="1193" y="-223.566" font-family="Times Roman,serif" font-size="14.00" fill="gray">\CakeTestFixture</text>
</g>
<!-- \\HttpSourceTestFixture&#45;&gt;\\CakeTestFixture -->
<g id="edge27" class="edge"><title>\\HttpSourceTestFixture&#45;&gt;\\CakeTestFixture</title>
<path fill="none" stroke="black" d="M1496.69,-1200C1472.65,-1196.67 1448.32,-1188.33 1432,-1170.17 1295.54,-1018.28 1498.35,-404.332 1360,-254.166 1342,-234.63 1315.87,-225.528 1289.61,-221.926"/>
<polygon fill="none" stroke="black" points="1289.88,-218.435 1279.55,-220.804 1289.11,-225.391 1289.88,-218.435"/>
</g>
<!-- \\HttpSourceUsersDocumentFixture -->
<g id="node18" class="node"><title>\\HttpSourceUsersDocumentFixture</title>
<polygon fill="none" stroke="black" points="1685,-1377.17 1467,-1377.17 1467,-1341.17 1685,-1341.17 1685,-1377.17"/>
<text text-anchor="middle" x="1576" y="-1356.27" font-family="Courier,monospace" font-size="11.00">HttpSourceUsersDocumentFixture</text>
</g>
<!-- \\HttpSourceUsersDocumentFixture&#45;&gt;\\CakeTestFixture -->
<g id="edge29" class="edge"><title>\\HttpSourceUsersDocumentFixture&#45;&gt;\\CakeTestFixture</title>
<path fill="none" stroke="black" d="M1466.26,-1354.72C1453.23,-1349.84 1441.29,-1342.63 1432,-1332.17 1272.6,-1152.63 1521.64,-431.691 1360,-254.166 1342.03,-234.428 1315.77,-225.303 1289.37,-221.741"/>
<polygon fill="none" stroke="black" points="1289.58,-218.244 1279.26,-220.638 1288.82,-225.203 1289.58,-218.244"/>
</g>
<!-- \\HttpSourceUserFixture -->
<g id="node19" class="node"><title>\\HttpSourceUserFixture</title>
<polygon fill="none" stroke="black" points="1655,-1269.17 1497,-1269.17 1497,-1233.17 1655,-1233.17 1655,-1269.17"/>
<text text-anchor="middle" x="1576" y="-1248.27" font-family="Courier,monospace" font-size="11.00">HttpSourceUserFixture</text>
</g>
<!-- \\HttpSourceUserFixture&#45;&gt;\\CakeTestFixture -->
<g id="edge31" class="edge"><title>\\HttpSourceUserFixture&#45;&gt;\\CakeTestFixture</title>
<path fill="none" stroke="black" d="M1496.64,-1254.04C1472.6,-1250.71 1448.28,-1242.37 1432,-1224.17 1287.89,-1063.06 1506.11,-413.449 1360,-254.166 1342.04,-234.591 1315.93,-225.478 1289.66,-221.877"/>
<polygon fill="none" stroke="black" points="1289.93,-218.385 1279.61,-220.757 1289.16,-225.342 1289.93,-218.385"/>
</g>
<!-- \\HttpSourceConfigTest -->
<g id="node20" class="node"><title>\\HttpSourceConfigTest</title>
<polygon fill="none" stroke="black" points="1652,-1053.17 1500,-1053.17 1500,-1017.17 1652,-1017.17 1652,-1053.17"/>
<text text-anchor="middle" x="1576" y="-1032.27" font-family="Courier,monospace" font-size="11.00">HttpSourceConfigTest</text>
</g>
<!-- \\CakeTestCase -->
<g id="node72" class="node"><title>\\CakeTestCase</title>
<ellipse fill="none" stroke="black" cx="1193" cy="-173.166" rx="82.0244" ry="18.3848"/>
<text text-anchor="middle" x="1193" y="-169.566" font-family="Times Roman,serif" font-size="14.00" fill="gray">\CakeTestCase</text>
</g>
<!-- \\HttpSourceConfigTest&#45;&gt;\\CakeTestCase -->
<g id="edge33" class="edge"><title>\\HttpSourceConfigTest&#45;&gt;\\CakeTestCase</title>
<path fill="none" stroke="black" d="M1499.8,-1038.29C1474.81,-1035.24 1449.1,-1027 1432,-1008.17 1310.83,-874.7 1482.84,-332.103 1360,-200.166 1339.59,-178.246 1308.94,-169.505 1279.45,-166.921"/>
<polygon fill="none" stroke="black" points="1279.29,-163.404 1269.09,-166.253 1278.84,-170.389 1279.29,-163.404"/>
</g>
<!-- \\HttpSourceConditionTest -->
<g id="node21" class="node"><title>\\HttpSourceConditionTest</title>
<polygon fill="none" stroke="black" points="1662,-999.166 1490,-999.166 1490,-963.166 1662,-963.166 1662,-999.166"/>
<text text-anchor="middle" x="1576" y="-978.266" font-family="Courier,monospace" font-size="11.00">HttpSourceConditionTest</text>
</g>
<!-- \\HttpSourceConditionTest&#45;&gt;\\CakeTestCase -->
<g id="edge35" class="edge"><title>\\HttpSourceConditionTest&#45;&gt;\\CakeTestCase</title>
<path fill="none" stroke="black" d="M1489.73,-982.693C1468.09,-978.758 1446.84,-970.409 1432,-954.166 1318.46,-829.906 1475.08,-322.994 1360,-200.166 1339.52,-178.31 1308.86,-169.582 1279.38,-166.992"/>
<polygon fill="none" stroke="black" points="1279.22,-163.474 1269.01,-166.32 1278.77,-170.46 1279.22,-163.474"/>
</g>
<!-- \\HttpSourceEndpointItemTest -->
<g id="node22" class="node"><title>\\HttpSourceEndpointItemTest</title>
<polygon fill="none" stroke="black" points="1672,-945.166 1480,-945.166 1480,-909.166 1672,-909.166 1672,-945.166"/>
<text text-anchor="middle" x="1576" y="-924.266" font-family="Courier,monospace" font-size="11.00">HttpSourceEndpointItemTest</text>
</g>
<!-- \\HttpSourceEndpointItemTest&#45;&gt;\\CakeTestCase -->
<g id="edge37" class="edge"><title>\\HttpSourceEndpointItemTest&#45;&gt;\\CakeTestCase</title>
<path fill="none" stroke="black" d="M1479.73,-926.444C1461.69,-921.894 1444.57,-913.828 1432,-900.166 1326.1,-785.107 1467.33,-313.889 1360,-200.166 1339.53,-178.481 1309.03,-169.749 1279.68,-167.108"/>
<polygon fill="none" stroke="black" points="1279.57,-163.593 1269.36,-166.416 1279.1,-170.577 1279.57,-163.593"/>
</g>
<!-- \\HttpSourceEndpointItemiAmExistsANDValid -->
<g id="node23" class="node"><title>\\HttpSourceEndpointItemiAmExistsANDValid</title>
<polygon fill="none" stroke="black" points="954,-1917.17 674,-1917.17 674,-1881.17 954,-1881.17 954,-1917.17"/>
<text text-anchor="middle" x="814" y="-1896.27" font-family="Courier,monospace" font-size="11.00">HttpSourceEndpointItemiAmExistsANDValid</text>
</g>
<!-- \\HttpSourceEndpointItemiAmExistsANDValid&#45;&gt;\\HttpSourceEndpointItem -->
<g id="edge39" class="edge"><title>\\HttpSourceEndpointItemiAmExistsANDValid&#45;&gt;\\HttpSourceEndpointItem</title>
<path fill="none" stroke="black" d="M690.872,-1917.18C641.081,-1924.47 584.561,-1932.74 538.276,-1939.52"/>
<polygon fill="none" stroke="black" points="537.647,-1936.07 528.26,-1940.98 538.661,-1943 537.647,-1936.07"/>
</g>
<!-- \\HttpSourceConfigFactoryItemTest -->
<g id="node24" class="node"><title>\\HttpSourceConfigFactoryItemTest</title>
<polygon fill="none" stroke="black" points="1689,-891.166 1463,-891.166 1463,-855.166 1689,-855.166 1689,-891.166"/>
<text text-anchor="middle" x="1576" y="-870.266" font-family="Courier,monospace" font-size="11.00">HttpSourceConfigFactoryItemTest</text>
</g>
<!-- \\HttpSourceConfigFactoryItemTest&#45;&gt;\\CakeTestCase -->
<g id="edge41" class="edge"><title>\\HttpSourceConfigFactoryItemTest&#45;&gt;\\CakeTestCase</title>
<path fill="none" stroke="black" d="M1462.79,-866.817C1451.2,-862.062 1440.57,-855.394 1432,-846.166 1235.46,-634.44 1559.18,-409.413 1360,-200.166 1339.44,-178.568 1308.92,-169.854 1279.58,-167.203"/>
<polygon fill="none" stroke="black" points="1279.48,-163.688 1269.26,-166.506 1279.01,-170.672 1279.48,-163.688"/>
</g>
<!-- \\HttpSourceConfigFactoryItemiAmExistsANDValid -->
<g id="node25" class="node"><title>\\HttpSourceConfigFactoryItemiAmExistsANDValid</title>
<polygon fill="none" stroke="black" points="602,-2133.17 288,-2133.17 288,-2097.17 602,-2097.17 602,-2133.17"/>
<text text-anchor="middle" x="445" y="-2112.27" font-family="Courier,monospace" font-size="11.00">HttpSourceConfigFactoryItemiAmExistsANDValid</text>
</g>
<!-- \\HttpSourceConfigFactoryItemiAmExistsANDValid&#45;&gt;\\HttpSourceConfigFactoryItem -->
<g id="edge43" class="edge"><title>\\HttpSourceConfigFactoryItemiAmExistsANDValid&#45;&gt;\\HttpSourceConfigFactoryItem</title>
<path fill="none" stroke="black" d="M329.315,-2097.09C315.337,-2094.37 301.307,-2091.38 288,-2088.17 250.643,-2079.13 209.55,-2066.34 176.899,-2055.47"/>
<polygon fill="none" stroke="black" points="177.645,-2052.03 167.051,-2052.17 175.418,-2058.67 177.645,-2052.03"/>
</g>
<!-- \\HttpSourceConfigFactoryTest -->
<g id="node26" class="node"><title>\\HttpSourceConfigFactoryTest</title>
<polygon fill="none" stroke="black" points="1675,-837.166 1477,-837.166 1477,-801.166 1675,-801.166 1675,-837.166"/>
<text text-anchor="middle" x="1576" y="-816.266" font-family="Courier,monospace" font-size="11.00">HttpSourceConfigFactoryTest</text>
</g>
<!-- \\HttpSourceConfigFactoryTest&#45;&gt;\\CakeTestCase -->
<g id="edge45" class="edge"><title>\\HttpSourceConfigFactoryTest&#45;&gt;\\CakeTestCase</title>
<path fill="none" stroke="black" d="M1476.22,-817.283C1459.54,-812.603 1443.83,-804.783 1432,-792.166 1250.7,-598.818 1543.7,-391.227 1360,-200.166 1339.42,-178.766 1309.06,-170.056 1279.85,-167.351"/>
<polygon fill="none" stroke="black" points="1279.8,-163.839 1269.58,-166.634 1279.31,-170.822 1279.8,-163.839"/>
</g>
<!-- \\HttpSourceConfigFactoryiAmExists -->
<g id="node27" class="node"><title>\\HttpSourceConfigFactoryiAmExists</title>
<polygon fill="none" stroke="black" points="1692,-1323.17 1460,-1323.17 1460,-1287.17 1692,-1287.17 1692,-1323.17"/>
<text text-anchor="middle" x="1576" y="-1302.27" font-family="Courier,monospace" font-size="11.00">HttpSourceConfigFactoryiAmExists</text>
</g>
<!-- \\HttpSourceConfigFactoryiAmExistsANDValid -->
<g id="node28" class="node"><title>\\HttpSourceConfigFactoryiAmExistsANDValid</title>
<polygon fill="none" stroke="black" points="1719,-2133.17 1433,-2133.17 1433,-2097.17 1719,-2097.17 1719,-2133.17"/>
<text text-anchor="middle" x="1576" y="-2112.27" font-family="Courier,monospace" font-size="11.00">HttpSourceConfigFactoryiAmExistsANDValid</text>
</g>
<!-- \\HttpSourceConfigFactoryiAmExistsANDValid&#45;&gt;\\HttpSourceConfigFactory -->
<g id="edge47" class="edge"><title>\\HttpSourceConfigFactoryiAmExistsANDValid&#45;&gt;\\HttpSourceConfigFactory</title>
<path fill="none" stroke="black" d="M1456.05,-2097.09C1447.78,-2094.5 1439.68,-2091.55 1432,-2088.17 1395.39,-2072.06 1396.81,-2049.81 1360,-2034.17 1338,-2024.82 1313.12,-2018.68 1289.4,-2014.67"/>
<polygon fill="none" stroke="black" points="1289.75,-2011.18 1279.32,-2013.07 1288.65,-2018.09 1289.75,-2011.18"/>
</g>
<!-- \\HttpSourceConfigiAmExistsANDValid -->
<g id="node29" class="node"><title>\\HttpSourceConfigiAmExistsANDValid</title>
<polygon fill="none" stroke="black" points="933,-2133.17 695,-2133.17 695,-2097.17 933,-2097.17 933,-2133.17"/>
<text text-anchor="middle" x="814" y="-2112.27" font-family="Courier,monospace" font-size="11.00">HttpSourceConfigiAmExistsANDValid</text>
</g>
<!-- \\HttpSourceConfigiAmExistsANDValid&#45;&gt;\\HttpSourceConfig -->
<g id="edge49" class="edge"><title>\\HttpSourceConfigiAmExistsANDValid&#45;&gt;\\HttpSourceConfig</title>
<path fill="none" stroke="black" d="M694.451,-2097.67C636.257,-2089.15 568.18,-2079.19 517.859,-2071.83"/>
<polygon fill="none" stroke="black" points="518.122,-2068.33 507.721,-2070.34 517.109,-2075.26 518.122,-2068.33"/>
</g>
<!-- \\HttpSourceEndpointiAmExistsANDValid -->
<g id="node30" class="node"><title>\\HttpSourceEndpointiAmExistsANDValid</title>
<polygon fill="none" stroke="black" points="940,-2079.17 688,-2079.17 688,-2043.17 940,-2043.17 940,-2079.17"/>
<text text-anchor="middle" x="814" y="-2058.27" font-family="Courier,monospace" font-size="11.00">HttpSourceEndpointiAmExistsANDValid</text>
</g>
<!-- \\HttpSourceEndpointiAmExistsANDValid&#45;&gt;\\HttpSourceEndpoint -->
<g id="edge51" class="edge"><title>\\HttpSourceEndpointiAmExistsANDValid&#45;&gt;\\HttpSourceEndpoint</title>
<path fill="none" stroke="black" d="M690.872,-2043.15C635.89,-2035.1 572.701,-2025.85 524.151,-2018.75"/>
<polygon fill="none" stroke="black" points="524.422,-2015.25 514.021,-2017.27 523.409,-2022.18 524.422,-2015.25"/>
</g>
<!-- \\HttpSourceConditioniAmExistsANDValid -->
<g id="node31" class="node"><title>\\HttpSourceConditioniAmExistsANDValid</title>
<polygon fill="none" stroke="black" points="1706,-2079.17 1446,-2079.17 1446,-2043.17 1706,-2043.17 1706,-2079.17"/>
<text text-anchor="middle" x="1576" y="-2058.27" font-family="Courier,monospace" font-size="11.00">HttpSourceConditioniAmExistsANDValid</text>
</g>
<!-- \\HttpSourceConditioniAmExistsANDValid&#45;&gt;\\HttpSourceCondition -->
<g id="edge53" class="edge"><title>\\HttpSourceConditioniAmExistsANDValid&#45;&gt;\\HttpSourceCondition</title>
<path fill="none" stroke="black" d="M1456.05,-2043.09C1447.78,-2040.5 1439.68,-2037.55 1432,-2034.17 1395.39,-2018.06 1396.81,-1995.81 1360,-1980.17 1333.76,-1969.01 1303.41,-1962.44 1275.83,-1958.57"/>
<polygon fill="none" stroke="black" points="1276.18,-1955.08 1265.81,-1957.26 1275.28,-1962.03 1276.18,-1955.08"/>
</g>
<!-- \\HttpSourceFieldiAmExistsANDValid -->
<g id="node32" class="node"><title>\\HttpSourceFieldiAmExistsANDValid</title>
<polygon fill="none" stroke="black" points="1309,-2079.17 1077,-2079.17 1077,-2043.17 1309,-2043.17 1309,-2079.17"/>
<text text-anchor="middle" x="1193" y="-2058.27" font-family="Courier,monospace" font-size="11.00">HttpSourceFieldiAmExistsANDValid</text>
</g>
<!-- \\HttpSourceFieldiAmExistsANDValid&#45;&gt;\\HttpSourceField -->
<g id="edge55" class="edge"><title>\\HttpSourceFieldiAmExistsANDValid&#45;&gt;\\HttpSourceField</title>
<path fill="none" stroke="black" d="M1076.41,-2049.75C1059.12,-2045.95 1041.81,-2040.89 1026,-2034.17 989.187,-2018.52 990.572,-1996.37 954,-1980.17 932.018,-1970.43 906.564,-1964.19 883.436,-1960.2"/>
<polygon fill="none" stroke="black" points="883.77,-1956.71 873.34,-1958.58 882.656,-1963.62 883.77,-1956.71"/>
</g>
<!-- \\HttpSourceResultiAmExistsANDValid -->
<g id="node33" class="node"><title>\\HttpSourceResultiAmExistsANDValid</title>
<polygon fill="none" stroke="black" points="1312,-2133.17 1074,-2133.17 1074,-2097.17 1312,-2097.17 1312,-2133.17"/>
<text text-anchor="middle" x="1193" y="-2112.27" font-family="Courier,monospace" font-size="11.00">HttpSourceResultiAmExistsANDValid</text>
</g>
<!-- \\HttpSourceResultiAmExistsANDValid&#45;&gt;\\HttpSourceResult -->
<g id="edge57" class="edge"><title>\\HttpSourceResultiAmExistsANDValid&#45;&gt;\\HttpSourceResult</title>
<path fill="none" stroke="black" d="M1073.31,-2103.05C1057.05,-2099.33 1040.87,-2094.48 1026,-2088.17 989.187,-2072.52 990.572,-2050.37 954,-2034.17 933.098,-2024.91 909.056,-2018.81 886.861,-2014.81"/>
<polygon fill="none" stroke="black" points="887.254,-2011.33 876.81,-2013.11 886.088,-2018.23 887.254,-2011.33"/>
</g>
<!-- \\HttpSourceFieldTest -->
<g id="node34" class="node"><title>\\HttpSourceFieldTest</title>
<polygon fill="none" stroke="black" points="1648,-783.166 1504,-783.166 1504,-747.166 1648,-747.166 1648,-783.166"/>
<text text-anchor="middle" x="1576" y="-762.266" font-family="Courier,monospace" font-size="11.00">HttpSourceFieldTest</text>
</g>
<!-- \\HttpSourceFieldTest&#45;&gt;\\CakeTestCase -->
<g id="edge59" class="edge"><title>\\HttpSourceFieldTest&#45;&gt;\\CakeTestCase</title>
<path fill="none" stroke="black" d="M1503.25,-768.207C1477.39,-765.408 1450.21,-757.354 1432,-738.166 1265.93,-563.179 1528.24,-373.059 1360,-200.166 1339.39,-178.984 1309.17,-170.283 1280.09,-167.524"/>
<polygon fill="none" stroke="black" points="1280.1,-164.015 1269.87,-166.785 1279.59,-170.997 1280.1,-164.015"/>
</g>
<!-- \\HttpSourceEndpointTest -->
<g id="node35" class="node"><title>\\HttpSourceEndpointTest</title>
<polygon fill="none" stroke="black" points="1658,-729.166 1494,-729.166 1494,-693.166 1658,-693.166 1658,-729.166"/>
<text text-anchor="middle" x="1576" y="-708.266" font-family="Courier,monospace" font-size="11.00">HttpSourceEndpointTest</text>
</g>
<!-- \\HttpSourceEndpointTest&#45;&gt;\\CakeTestCase -->
<g id="edge61" class="edge"><title>\\HttpSourceEndpointTest&#45;&gt;\\CakeTestCase</title>
<path fill="none" stroke="black" d="M1493.29,-712.692C1470.64,-708.979 1447.97,-700.747 1432,-684.166 1281.14,-527.517 1512.81,-354.913 1360,-200.166 1339.33,-179.229 1309.26,-170.544 1280.31,-167.729"/>
<polygon fill="none" stroke="black" points="1280.37,-164.223 1270.14,-166.967 1279.85,-171.204 1280.37,-164.223"/>
</g>
<!-- \\HttpSourceResultTest -->
<g id="node36" class="node"><title>\\HttpSourceResultTest</title>
<polygon fill="none" stroke="black" points="1652,-675.166 1500,-675.166 1500,-639.166 1652,-639.166 1652,-675.166"/>
<text text-anchor="middle" x="1576" y="-654.266" font-family="Courier,monospace" font-size="11.00">HttpSourceResultTest</text>
</g>
<!-- \\HttpSourceResultTest&#45;&gt;\\CakeTestCase -->
<g id="edge63" class="edge"><title>\\HttpSourceResultTest&#45;&gt;\\CakeTestCase</title>
<path fill="none" stroke="black" d="M1499.84,-659.442C1475.16,-656.255 1449.63,-648.144 1432,-630.166 1296.32,-491.823 1497.4,-336.798 1360,-200.166 1339.23,-179.511 1309.29,-170.852 1280.49,-167.977"/>
<polygon fill="none" stroke="black" points="1280.6,-164.476 1270.36,-167.191 1280.06,-171.455 1280.6,-164.476"/>
</g>
<!-- \\HttpSourceControllerTest -->
<g id="node37" class="node"><title>\\HttpSourceControllerTest</title>
<polygon fill="none" stroke="black" points="1665,-513.166 1487,-513.166 1487,-477.166 1665,-477.166 1665,-513.166"/>
<text text-anchor="middle" x="1576" y="-492.266" font-family="Courier,monospace" font-size="11.00">HttpSourceControllerTest</text>
</g>
<!-- \\ControllerTestCase -->
<g id="node89" class="node"><title>\\ControllerTestCase</title>
<ellipse fill="none" stroke="black" cx="1193" cy="-119.166" rx="106.773" ry="18.3848"/>
<text text-anchor="middle" x="1193" y="-115.566" font-family="Times Roman,serif" font-size="14.00" fill="gray">\ControllerTestCase</text>
</g>
<!-- \\HttpSourceControllerTest&#45;&gt;\\ControllerTestCase -->
<g id="edge65" class="edge"><title>\\HttpSourceControllerTest&#45;&gt;\\ControllerTestCase</title>
<path fill="none" stroke="black" d="M1486.15,-494.474C1466.19,-490.241 1446.64,-482.303 1432,-468.166 1326.53,-366.283 1466.74,-246.719 1360,-146.166 1345.98,-132.961 1328.19,-124.749 1309.48,-119.839"/>
<polygon fill="none" stroke="black" points="1310.15,-116.403 1299.62,-117.564 1308.58,-123.224 1310.15,-116.403"/>
</g>
<!-- \\AllHttpSourceTest -->
<g id="node38" class="node"><title>\\AllHttpSourceTest</title>
<polygon fill="none" stroke="black" points="1641,-459.166 1511,-459.166 1511,-423.166 1641,-423.166 1641,-459.166"/>
<text text-anchor="middle" x="1576" y="-438.266" font-family="Courier,monospace" font-size="11.00">AllHttpSourceTest</text>
</g>
<!-- \\PHPUnit_Framework_TestSuite -->
<g id="node91" class="node"><title>\\PHPUnit_Framework_TestSuite</title>
<ellipse fill="none" stroke="black" cx="1193" cy="-65.166" rx="166.877" ry="18.3848"/>
<text text-anchor="middle" x="1193" y="-61.566" font-family="Times Roman,serif" font-size="14.00" fill="gray">\PHPUnit_Framework_TestSuite</text>
</g>
<!-- \\AllHttpSourceTest&#45;&gt;\\PHPUnit_Framework_TestSuite -->
<g id="edge67" class="edge"><title>\\AllHttpSourceTest&#45;&gt;\\PHPUnit_Framework_TestSuite</title>
<path fill="none" stroke="black" d="M1510.39,-443.966C1482.88,-441.668 1452.58,-434.046 1432,-414.166 1326.53,-312.283 1466.74,-192.719 1360,-92.166 1354.9,-87.3627 1349.3,-83.22 1343.34,-79.6566"/>
<polygon fill="none" stroke="black" points="1344.83,-76.4843 1334.37,-74.8408 1341.52,-82.6527 1344.83,-76.4843"/>
</g>
<!-- \\HttpSourceUtilityTest -->
<g id="node39" class="node"><title>\\HttpSourceUtilityTest</title>
<polygon fill="none" stroke="black" points="1655,-621.166 1497,-621.166 1497,-585.166 1655,-585.166 1655,-621.166"/>
<text text-anchor="middle" x="1576" y="-600.266" font-family="Courier,monospace" font-size="11.00">HttpSourceUtilityTest</text>
</g>
<!-- \\HttpSourceUtilityTest&#45;&gt;\\CakeTestCase -->
<g id="edge69" class="edge"><title>\\HttpSourceUtilityTest&#45;&gt;\\CakeTestCase</title>
<path fill="none" stroke="black" d="M1496.71,-604.741C1473.11,-601.249 1449.03,-593.13 1432,-576.166 1311.46,-456.086 1482.04,-318.727 1360,-200.166 1339.18,-179.937 1309.54,-171.304 1280.99,-168.329"/>
<polygon fill="none" stroke="black" points="1281.21,-164.835 1270.96,-167.502 1280.64,-171.811 1281.21,-164.835"/>
</g>
<!-- \\HttpSourceToDboAssociationTest -->
<g id="node40" class="node"><title>\\HttpSourceToDboAssociationTest</title>
<polygon fill="none" stroke="black" points="1685,-1755.17 1467,-1755.17 1467,-1719.17 1685,-1719.17 1685,-1755.17"/>
<text text-anchor="middle" x="1576" y="-1734.27" font-family="Courier,monospace" font-size="11.00">HttpSourceToDboAssociationTest</text>
</g>
<!-- \\HttpSourceAppTest -->
<g id="node49" class="node"><title>\\HttpSourceAppTest</title>
<polygon fill="none" stroke="black" points="1259,-1755.17 1127,-1755.17 1127,-1719.17 1259,-1719.17 1259,-1755.17"/>
<text text-anchor="start" x="1159" y="-1742.6" font-family="Courier,monospace" font-size="11.00">«abstract»</text>
<text text-anchor="start" x="1135.5" y="-1729.4" font-family="Courier,monospace" font-size="11.00">HttpSourceAppTest</text>
</g>
<!-- \\HttpSourceToDboAssociationTest&#45;&gt;\\HttpSourceAppTest -->
<g id="edge71" class="edge"><title>\\HttpSourceToDboAssociationTest&#45;&gt;\\HttpSourceAppTest</title>
<path fill="none" stroke="black" d="M1466.25,-1737.17C1403.3,-1737.17 1325.84,-1737.17 1269.49,-1737.17"/>
<polygon fill="none" stroke="black" points="1269.22,-1733.67 1259.22,-1737.17 1269.22,-1740.67 1269.22,-1733.67"/>
</g>
<!-- \\HttpSourceBasicsTest -->
<g id="node41" class="node"><title>\\HttpSourceBasicsTest</title>
<polygon fill="none" stroke="black" points="1652,-1863.17 1500,-1863.17 1500,-1827.17 1652,-1827.17 1652,-1863.17"/>
<text text-anchor="middle" x="1576" y="-1842.27" font-family="Courier,monospace" font-size="11.00">HttpSourceBasicsTest</text>
</g>
<!-- \\HttpSourceBasicsTest&#45;&gt;\\HttpSourceAppTest -->
<g id="edge73" class="edge"><title>\\HttpSourceBasicsTest&#45;&gt;\\HttpSourceAppTest</title>
<path fill="none" stroke="black" d="M1499.7,-1832.94C1477.71,-1828.85 1453.78,-1823.87 1432,-1818.17 1368.56,-1801.56 1297.59,-1776.68 1249.6,-1758.88"/>
<polygon fill="none" stroke="black" points="1250.61,-1755.52 1240.01,-1755.31 1248.16,-1762.08 1250.61,-1755.52"/>
</g>
<!-- \\HttpSourceTest -->
<g id="node42" class="node"><title>\\HttpSourceTest</title>
<polygon fill="none" stroke="black" points="1631,-567.166 1521,-567.166 1521,-531.166 1631,-531.166 1631,-567.166"/>
<text text-anchor="middle" x="1576" y="-546.266" font-family="Courier,monospace" font-size="11.00">HttpSourceTest</text>
</g>
<!-- \\HttpSourceTest&#45;&gt;\\CakeTestCase -->
<g id="edge75" class="edge"><title>\\HttpSourceTest&#45;&gt;\\CakeTestCase</title>
<path fill="none" stroke="black" d="M1520.15,-552.575C1490.3,-551.321 1455.05,-544.432 1432,-522.166 1326.53,-420.283 1466.74,-300.719 1360,-200.166 1339.15,-180.526 1309.95,-171.932 1281.79,-168.817"/>
<polygon fill="none" stroke="black" points="1281.75,-165.3 1271.48,-167.908 1281.13,-172.273 1281.75,-165.3"/>
</g>
<!-- \\HttpTestSource -->
<g id="node43" class="node"><title>\\HttpTestSource</title>
<polygon fill="none" stroke="black" points="1631,-1971.17 1521,-1971.17 1521,-1935.17 1631,-1935.17 1631,-1971.17"/>
<text text-anchor="middle" x="1576" y="-1950.27" font-family="Courier,monospace" font-size="11.00">HttpTestSource</text>
</g>
<!-- \\HttpTestSource&#45;&gt;\\HttpSource -->
<g id="edge77" class="edge"><title>\\HttpTestSource&#45;&gt;\\HttpSource</title>
<path fill="none" stroke="black" d="M1520.22,-1948.72C1492.77,-1945.05 1459.71,-1938.35 1432,-1926.17 1395.39,-1910.06 1396.81,-1887.81 1360,-1872.17 1323.75,-1856.76 1279.64,-1850.08 1245.86,-1847.22"/>
<polygon fill="none" stroke="black" points="1245.97,-1843.72 1235.73,-1846.45 1245.44,-1850.7 1245.97,-1843.72"/>
</g>
<!-- \\HttpSourceConnectionTest -->
<g id="node44" class="node"><title>\\HttpSourceConnectionTest</title>
<polygon fill="none" stroke="black" points="1665,-1161.17 1487,-1161.17 1487,-1125.17 1665,-1125.17 1665,-1161.17"/>
<text text-anchor="middle" x="1576" y="-1140.27" font-family="Courier,monospace" font-size="11.00">HttpSourceConnectionTest</text>
</g>
<!-- \\HttpSourceConnectionTest&#45;&gt;\\CakeTestCase -->
<g id="edge79" class="edge"><title>\\HttpSourceConnectionTest&#45;&gt;\\CakeTestCase</title>
<path fill="none" stroke="black" d="M1486.18,-1144.2C1465.72,-1140.03 1445.94,-1131.68 1432,-1116.17 1295.54,-964.279 1498.35,-350.332 1360,-200.166 1339.53,-177.946 1308.54,-169.224 1278.8,-166.74"/>
<polygon fill="none" stroke="black" points="1278.97,-163.244 1268.78,-166.126 1278.54,-170.231 1278.97,-163.244"/>
</g>
<!-- \\HttpSourceModelTest -->
<g id="node45" class="node"><title>\\HttpSourceModelTest</title>
<polygon fill="none" stroke="black" points="1648,-1107.17 1504,-1107.17 1504,-1071.17 1648,-1071.17 1648,-1107.17"/>
<text text-anchor="middle" x="1576" y="-1086.27" font-family="Courier,monospace" font-size="11.00">HttpSourceModelTest</text>
</g>
<!-- \\HttpSourceModelTest&#45;&gt;\\CakeTestCase -->
<g id="edge81" class="edge"><title>\\HttpSourceModelTest&#45;&gt;\\CakeTestCase</title>
<path fill="none" stroke="black" d="M1503.48,-1092.76C1477.34,-1090.09 1449.9,-1081.99 1432,-1062.17 1303.18,-919.491 1490.59,-341.216 1360,-200.166 1339.47,-177.996 1308.48,-169.284 1278.74,-166.794"/>
<polygon fill="none" stroke="black" points="1278.92,-163.298 1268.72,-166.177 1278.49,-170.285 1278.92,-163.298"/>
</g>
<!-- \\HttpSourceTestModel -->
<g id="node46" class="node"><title>\\HttpSourceTestModel</title>
<polygon fill="none" stroke="black" points="1648,-1701.17 1504,-1701.17 1504,-1665.17 1648,-1665.17 1648,-1701.17"/>
<text text-anchor="middle" x="1576" y="-1680.27" font-family="Courier,monospace" font-size="11.00">HttpSourceTestModel</text>
</g>
<!-- \\HttpSourceTestModel&#45;&gt;\\HttpSourceModel -->
<g id="edge83" class="edge"><title>\\HttpSourceTestModel&#45;&gt;\\HttpSourceModel</title>
<path fill="none" stroke="black" d="M1503.38,-1670.09C1480.5,-1665.83 1455.17,-1660.95 1432,-1656.17 1374.63,-1644.31 1309.83,-1629.59 1262.19,-1618.51"/>
<polygon fill="none" stroke="black" points="1262.82,-1615.06 1252.29,-1616.2 1261.24,-1621.88 1262.82,-1615.06"/>
</g>
<!-- \\HttpSourceDocument -->
<g id="node47" class="node"><title>\\HttpSourceDocument</title>
<polygon fill="none" stroke="black" points="1645,-1593.17 1507,-1593.17 1507,-1557.17 1645,-1557.17 1645,-1593.17"/>
<text text-anchor="middle" x="1576" y="-1572.27" font-family="Courier,monospace" font-size="11.00">HttpSourceDocument</text>
</g>
<!-- \\HttpSourceDocument&#45;&gt;\\HttpSourceModel -->
<g id="edge85" class="edge"><title>\\HttpSourceDocument&#45;&gt;\\HttpSourceModel</title>
<path fill="none" stroke="black" d="M1506.64,-1580.06C1437.44,-1584.93 1331.72,-1592.39 1262.48,-1597.27"/>
<polygon fill="none" stroke="black" points="1261.84,-1593.8 1252.11,-1598 1262.33,-1600.79 1261.84,-1593.8"/>
</g>
<!-- \\HttpSourceUser -->
<g id="node48" class="node"><title>\\HttpSourceUser</title>
<polygon fill="none" stroke="black" points="1631,-405.166 1521,-405.166 1521,-369.166 1631,-369.166 1631,-405.166"/>
<text text-anchor="middle" x="1576" y="-384.266" font-family="Courier,monospace" font-size="11.00">HttpSourceUser</text>
</g>
<!-- \\AppModel -->
<g id="node102" class="node"><title>\\AppModel</title>
<ellipse fill="none" stroke="black" cx="814" cy="-123.166" rx="62.2254" ry="18.3848"/>
<text text-anchor="middle" x="814" y="-119.566" font-family="Times Roman,serif" font-size="14.00" fill="gray">\AppModel</text>
</g>
<!-- \\HttpSourceUser&#45;&gt;\\AppModel -->
<g id="edge87" class="edge"><title>\\HttpSourceUser&#45;&gt;\\AppModel</title>
<path fill="none" stroke="black" d="M1571.45,-368.915C1555.22,-308.212 1493.83,-112.727 1360,-38.166 1189.04,57.0781 943.845,-53.4415 851.278,-102.276"/>
<polygon fill="none" stroke="black" points="849.461,-99.2784 842.29,-107.078 852.759,-105.452 849.461,-99.2784"/>
</g>
<!-- \\HttpSourceAppTest&#45;&gt;\\CakeTestCase -->
<g id="edge89" class="edge"><title>\\HttpSourceAppTest&#45;&gt;\\CakeTestCase</title>
<path fill="none" stroke="black" d="M1257.75,-1719.06C1305.28,-1701.99 1366.49,-1671.24 1396,-1620.17 1435.22,-1552.29 1444.24,-270.953 1396,-209.166 1368,-173.308 1317.77,-164.182 1274.28,-164.083"/>
<polygon fill="none" stroke="black" points="1274.2,-160.584 1264.25,-164.216 1274.3,-167.583 1274.2,-160.584"/>
</g>
<!-- \\HttpSourceModel&#45;&gt;\\AppModel -->
<g id="edge91" class="edge"><title>\\HttpSourceModel&#45;&gt;\\AppModel</title>
<path fill="none" stroke="black" d="M1133.91,-1611.5C1097.47,-1613.63 1052.73,-1609.02 1026,-1580.17 925.745,-1471.91 1016.37,-387.887 954,-254.166 931.784,-206.535 883.717,-167.827 850.137,-145.153"/>
<polygon fill="none" stroke="black" points="851.786,-142.047 841.511,-139.463 847.932,-147.891 851.786,-142.047"/>
</g>
<!-- \\Object -->
<g id="node106" class="node"><title>\\Object</title>
<ellipse fill="none" stroke="black" cx="814" cy="-335.166" rx="45.9619" ry="18.3848"/>
<text text-anchor="middle" x="814" y="-331.566" font-family="Times Roman,serif" font-size="14.00" fill="gray">\Object</text>
</g>
<!-- \\HttpSourceConnection&#45;&gt;\\Object -->
<g id="edge93" class="edge"><title>\\HttpSourceConnection&#45;&gt;\\Object</title>
<path fill="none" stroke="black" d="M1116.87,-1906.53C1084.17,-1905.29 1048.4,-1897.25 1026,-1872.17 913.743,-1746.47 1066.53,-482.609 954,-357.166 932.837,-333.575 897.525,-328.155 867.662,-328.592"/>
<polygon fill="none" stroke="black" points="867.223,-325.106 857.358,-328.971 867.48,-332.101 867.223,-325.106"/>
</g>
<!-- \\DataSource -->
<g id="node108" class="node"><title>\\DataSource</title>
<ellipse fill="none" stroke="black" cx="814" cy="-281.166" rx="72.1249" ry="18.3848"/>
<text text-anchor="middle" x="814" y="-277.566" font-family="Times Roman,serif" font-size="14.00" fill="gray">\DataSource</text>
</g>
<!-- \\HttpSource&#45;&gt;\\DataSource -->
<g id="edge95" class="edge"><title>\\HttpSource&#45;&gt;\\DataSource</title>
<path fill="none" stroke="black" d="M1150.29,-1837.22C1110.76,-1827.4 1054,-1806.5 1026,-1764.17 936.651,-1629.06 1060.17,-430.489 954,-308.166 939.226,-291.145 917.25,-282.816 895.064,-279.149"/>
<polygon fill="none" stroke="black" points="895.259,-275.644 884.882,-277.778 894.325,-282.582 895.259,-275.644"/>
</g>
</g>
</svg>
