<?xml version="1.0" encoding="UTF-8" standalone="no"?>
<!DOCTYPE svg PUBLIC "-//W3C//DTD SVG 1.1//EN"
 "http://www.w3.org/Graphics/SVG/1.1/DTD/svg11.dtd">
<!-- Generated by graphviz version 2.26.3 (20100126.1600)
 -->
<!-- Title: G Pages: 1 -->
<svg width="1744pt" height="2170pt"
 viewBox="0.00 0.00 1744.00 2170.00" xmlns="http://www.w3.org/2000/svg" xmlns:xlink="http://www.w3.org/1999/xlink">
<g id="graph1" class="graph" transform="scale(1 1) rotate(0) translate(4 2166)">
<title>G</title>
<polygon fill="white" stroke="white" points="-4,5 -4,-2166 1741,-2166 1741,5 -4,5"/>
<g id="graph2" class="cluster"><title>cluster_Global</title>
<polyline fill="none" stroke="gray" points="20,-352 1716,-352 "/>
<path fill="none" stroke="gray" d="M1716,-352C1722,-352 1728,-358 1728,-364"/>
<polyline fill="none" stroke="gray" points="1728,-364 1728,-2142 "/>
<path fill="none" stroke="gray" d="M1728,-2142C1728,-2148 1722,-2154 1716,-2154"/>
<polyline fill="none" stroke="gray" points="1716,-2154 20,-2154 "/>
<path fill="none" stroke="gray" d="M20,-2154C14,-2154 8,-2148 8,-2142"/>
<polyline fill="none" stroke="gray" points="8,-2142 8,-364 "/>
<path fill="none" stroke="gray" d="M8,-364C8,-358 14,-352 20,-352"/>
<text text-anchor="middle" x="868" y="-2140.1" font-family="Times Roman,serif" font-size="11.00" fill="gray">Global</text>
</g>
<!-- \\HttpSourceTestFixture -->
<g id="node2" class="node"><title>\\HttpSourceTestFixture</title>
<polygon fill="none" stroke="black" points="1655,-1584 1497,-1584 1497,-1548 1655,-1548 1655,-1584"/>
<text text-anchor="middle" x="1576" y="-1563.1" font-family="Courier,monospace" font-size="11.00">HttpSourceTestFixture</text>
</g>
<!-- \\CakeTestFixture -->
<g id="node54" class="node"><title>\\CakeTestFixture</title>
<ellipse fill="none" stroke="black" cx="1193" cy="-326" rx="92.1303" ry="18.3848"/>
<text text-anchor="middle" x="1193" y="-322.4" font-family="Times Roman,serif" font-size="14.00" fill="gray">\CakeTestFixture</text>
</g>
<!-- \\HttpSourceTestFixture&#45;&gt;\\CakeTestFixture -->
<g id="edge3" class="edge"><title>\\HttpSourceTestFixture&#45;&gt;\\CakeTestFixture</title>
<path fill="none" stroke="black" d="M1496.87,-1569.05C1472.7,-1565.77 1448.24,-1557.41 1432,-1539 1256.58,-1340.17 1540.76,-541.99 1360,-348 1340.12,-326.66 1310.38,-318.609 1281.48,-316.732"/>
<polygon fill="none" stroke="black" points="1281.45,-313.228 1271.31,-316.313 1281.16,-320.222 1281.45,-313.228"/>
</g>
<!-- \\HttpSourceModelTest -->
<g id="node3" class="node"><title>\\HttpSourceModelTest</title>
<polygon fill="none" stroke="black" points="1648,-1368 1504,-1368 1504,-1332 1648,-1332 1648,-1368"/>
<text text-anchor="middle" x="1576" y="-1347.1" font-family="Courier,monospace" font-size="11.00">HttpSourceModelTest</text>
</g>
<!-- \\CakeTestCase -->
<g id="node56" class="node"><title>\\CakeTestCase</title>
<ellipse fill="none" stroke="black" cx="1193" cy="-272" rx="82.0244" ry="18.3848"/>
<text text-anchor="middle" x="1193" y="-268.4" font-family="Times Roman,serif" font-size="14.00" fill="gray">\CakeTestCase</text>
</g>
<!-- \\HttpSourceModelTest&#45;&gt;\\CakeTestCase -->
<g id="edge5" class="edge"><title>\\HttpSourceModelTest&#45;&gt;\\CakeTestCase</title>
<path fill="none" stroke="black" d="M1503.35,-1353.71C1477.18,-1351.07 1449.77,-1342.94 1432,-1323 1280.25,-1152.68 1513.88,-467.403 1360,-299 1339.53,-276.599 1308.38,-267.881 1278.51,-265.452"/>
<polygon fill="none" stroke="black" points="1278.63,-261.953 1268.44,-264.858 1278.22,-268.941 1278.63,-261.953"/>
</g>
<!-- \\HttpSourceTestModel -->
<g id="node4" class="node"><title>\\HttpSourceTestModel</title>
<polygon fill="none" stroke="black" points="1648,-1638 1504,-1638 1504,-1602 1648,-1602 1648,-1638"/>
<text text-anchor="middle" x="1576" y="-1617.1" font-family="Courier,monospace" font-size="11.00">HttpSourceTestModel</text>
</g>
<!-- \\HttpSourceModel -->
<g id="node35" class="node"><title>\\HttpSourceModel</title>
<polygon fill="none" stroke="black" points="1252,-1665 1134,-1665 1134,-1629 1252,-1629 1252,-1665"/>
<text text-anchor="middle" x="1193" y="-1644.1" font-family="Courier,monospace" font-size="11.00">HttpSourceModel</text>
</g>
<!-- \\HttpSourceTestModel&#45;&gt;\\HttpSourceModel -->
<g id="edge7" class="edge"><title>\\HttpSourceTestModel&#45;&gt;\\HttpSourceModel</title>
<path fill="none" stroke="black" d="M1503.06,-1625.14C1433.8,-1630.02 1330.42,-1637.31 1262.37,-1642.11"/>
<polygon fill="none" stroke="black" points="1261.9,-1638.63 1252.18,-1642.83 1262.4,-1645.62 1261.9,-1638.63"/>
</g>
<!-- \\HttpSourceConnectionTest -->
<g id="node5" class="node"><title>\\HttpSourceConnectionTest</title>
<polygon fill="none" stroke="black" points="1665,-1314 1487,-1314 1487,-1278 1665,-1278 1665,-1314"/>
<text text-anchor="middle" x="1576" y="-1293.1" font-family="Courier,monospace" font-size="11.00">HttpSourceConnectionTest</text>
</g>
<!-- \\HttpSourceConnectionTest&#45;&gt;\\CakeTestCase -->
<g id="edge9" class="edge"><title>\\HttpSourceConnectionTest&#45;&gt;\\CakeTestCase</title>
<path fill="none" stroke="black" d="M1486.13,-1297.08C1465.68,-1292.9 1445.91,-1284.55 1432,-1269 1287.89,-1107.9 1506.11,-458.283 1360,-299 1339.49,-276.638 1308.33,-267.929 1278.46,-265.494"/>
<polygon fill="none" stroke="black" points="1278.59,-261.996 1268.4,-264.898 1278.17,-268.983 1278.59,-261.996"/>
</g>
<!-- \\HttpSourceTest -->
<g id="node6" class="node"><title>\\HttpSourceTest</title>
<polygon fill="none" stroke="black" points="1631,-1260 1521,-1260 1521,-1224 1631,-1224 1631,-1260"/>
<text text-anchor="middle" x="1576" y="-1239.1" font-family="Courier,monospace" font-size="11.00">HttpSourceTest</text>
</g>
<!-- \\HttpSourceTest&#45;&gt;\\CakeTestCase -->
<g id="edge11" class="edge"><title>\\HttpSourceTest&#45;&gt;\\CakeTestCase</title>
<path fill="none" stroke="black" d="M1520.32,-1246.66C1489.76,-1245.97 1453.76,-1239.22 1432,-1215 1295.54,-1063.11 1498.35,-449.166 1360,-299 1339.53,-276.78 1308.54,-268.058 1278.8,-265.574"/>
<polygon fill="none" stroke="black" points="1278.97,-262.078 1268.78,-264.96 1278.54,-269.065 1278.97,-262.078"/>
</g>
<!-- \\HttpTestSource -->
<g id="node7" class="node"><title>\\HttpTestSource</title>
<polygon fill="none" stroke="black" points="1631,-1854 1521,-1854 1521,-1818 1631,-1818 1631,-1854"/>
<text text-anchor="middle" x="1576" y="-1833.1" font-family="Courier,monospace" font-size="11.00">HttpTestSource</text>
</g>
<!-- \\HttpSource -->
<g id="node37" class="node"><title>\\HttpSource</title>
<polygon fill="none" stroke="black" points="1235,-1800 1151,-1800 1151,-1764 1235,-1764 1235,-1800"/>
<text text-anchor="start" x="1159" y="-1787.43" font-family="Courier,monospace" font-size="11.00">«abstract»</text>
<text text-anchor="start" x="1159" y="-1774.23" font-family="Courier,monospace" font-size="11.00">HttpSource</text>
</g>
<!-- \\HttpTestSource&#45;&gt;\\HttpSource -->
<g id="edge13" class="edge"><title>\\HttpTestSource&#45;&gt;\\HttpSource</title>
<path fill="none" stroke="black" d="M1520.31,-1828.15C1446.75,-1817.78 1318.1,-1799.64 1245.95,-1789.46"/>
<polygon fill="none" stroke="black" points="1246.11,-1785.95 1235.72,-1788.02 1245.14,-1792.89 1246.11,-1785.95"/>
</g>
<!-- \\HttpSourceToDboAssociationTest -->
<g id="node8" class="node"><title>\\HttpSourceToDboAssociationTest</title>
<polygon fill="none" stroke="black" points="1685,-2070 1467,-2070 1467,-2034 1685,-2034 1685,-2070"/>
<text text-anchor="middle" x="1576" y="-2049.1" font-family="Courier,monospace" font-size="11.00">HttpSourceToDboAssociationTest</text>
</g>
<!-- \\HttpSourceAppTest -->
<g id="node34" class="node"><title>\\HttpSourceAppTest</title>
<polygon fill="none" stroke="black" points="1259,-2124 1127,-2124 1127,-2088 1259,-2088 1259,-2124"/>
<text text-anchor="start" x="1159" y="-2111.43" font-family="Courier,monospace" font-size="11.00">«abstract»</text>
<text text-anchor="start" x="1135.5" y="-2098.23" font-family="Courier,monospace" font-size="11.00">HttpSourceAppTest</text>
</g>
<!-- \\HttpSourceToDboAssociationTest&#45;&gt;\\HttpSourceAppTest -->
<g id="edge15" class="edge"><title>\\HttpSourceToDboAssociationTest&#45;&gt;\\HttpSourceAppTest</title>
<path fill="none" stroke="black" d="M1466.25,-2067.47C1403.17,-2076.37 1325.52,-2087.32 1269.14,-2095.26"/>
<polygon fill="none" stroke="black" points="1268.64,-2091.8 1259.22,-2096.66 1269.61,-2098.73 1268.64,-2091.8"/>
</g>
<!-- \\HttpSourceBasicsTest -->
<g id="node9" class="node"><title>\\HttpSourceBasicsTest</title>
<polygon fill="none" stroke="black" points="1652,-2124 1500,-2124 1500,-2088 1652,-2088 1652,-2124"/>
<text text-anchor="middle" x="1576" y="-2103.1" font-family="Courier,monospace" font-size="11.00">HttpSourceBasicsTest</text>
</g>
<!-- \\HttpSourceBasicsTest&#45;&gt;\\HttpSourceAppTest -->
<g id="edge17" class="edge"><title>\\HttpSourceBasicsTest&#45;&gt;\\HttpSourceAppTest</title>
<path fill="none" stroke="black" d="M1499.87,-2106C1432.95,-2106 1336.07,-2106 1269.14,-2106"/>
<polygon fill="none" stroke="black" points="1269.08,-2102.5 1259.08,-2106 1269.08,-2109.5 1269.08,-2102.5"/>
</g>
<!-- \\AllHttpSourceTest -->
<g id="node10" class="node"><title>\\AllHttpSourceTest</title>
<polygon fill="none" stroke="black" points="1641,-666 1511,-666 1511,-630 1641,-630 1641,-666"/>
<text text-anchor="middle" x="1576" y="-645.1" font-family="Courier,monospace" font-size="11.00">AllHttpSourceTest</text>
</g>
<!-- \\PHPUnit_Framework_TestSuite -->
<g id="node64" class="node"><title>\\PHPUnit_Framework_TestSuite</title>
<ellipse fill="none" stroke="black" cx="1193" cy="-218" rx="166.877" ry="18.3848"/>
<text text-anchor="middle" x="1193" y="-214.4" font-family="Times Roman,serif" font-size="14.00" fill="gray">\PHPUnit_Framework_TestSuite</text>
</g>
<!-- \\AllHttpSourceTest&#45;&gt;\\PHPUnit_Framework_TestSuite -->
<g id="edge19" class="edge"><title>\\AllHttpSourceTest&#45;&gt;\\PHPUnit_Framework_TestSuite</title>
<path fill="none" stroke="black" d="M1510.46,-651.126C1482.81,-648.922 1452.36,-641.285 1432,-621 1311.46,-500.92 1482.04,-363.561 1360,-245 1355.05,-240.188 1349.59,-236.031 1343.78,-232.451"/>
<polygon fill="none" stroke="black" points="1345.45,-229.379 1335,-227.61 1342.07,-235.507 1345.45,-229.379"/>
</g>
<!-- \\HttpSourceUtilityTest -->
<g id="node11" class="node"><title>\\HttpSourceUtilityTest</title>
<polygon fill="none" stroke="black" points="1655,-1206 1497,-1206 1497,-1170 1655,-1170 1655,-1206"/>
<text text-anchor="middle" x="1576" y="-1185.1" font-family="Courier,monospace" font-size="11.00">HttpSourceUtilityTest</text>
</g>
<!-- \\HttpSourceUtilityTest&#45;&gt;\\CakeTestCase -->
<g id="edge21" class="edge"><title>\\HttpSourceUtilityTest&#45;&gt;\\CakeTestCase</title>
<path fill="none" stroke="black" d="M1496.74,-1190.78C1472.7,-1187.45 1448.36,-1179.12 1432,-1161 1303.18,-1018.32 1490.59,-440.05 1360,-299 1339.47,-276.83 1308.48,-268.118 1278.74,-265.628"/>
<polygon fill="none" stroke="black" points="1278.92,-262.132 1268.72,-265.011 1278.49,-269.119 1278.92,-262.132"/>
</g>
<!-- \\HttpSourceConfigTest -->
<g id="node12" class="node"><title>\\HttpSourceConfigTest</title>
<polygon fill="none" stroke="black" points="1652,-1098 1500,-1098 1500,-1062 1652,-1062 1652,-1098"/>
<text text-anchor="middle" x="1576" y="-1077.1" font-family="Courier,monospace" font-size="11.00">HttpSourceConfigTest</text>
</g>
<!-- \\HttpSourceConfigTest&#45;&gt;\\CakeTestCase -->
<g id="edge23" class="edge"><title>\\HttpSourceConfigTest&#45;&gt;\\CakeTestCase</title>
<path fill="none" stroke="black" d="M1499.87,-1083.06C1474.88,-1080.01 1449.16,-1071.78 1432,-1053 1318.46,-928.74 1475.08,-421.828 1360,-299 1339.52,-277.144 1308.86,-268.416 1279.38,-265.826"/>
<polygon fill="none" stroke="black" points="1279.22,-262.308 1269.01,-265.154 1278.77,-269.294 1279.22,-262.308"/>
</g>
<!-- \\HttpSourceEndpointTest -->
<g id="node13" class="node"><title>\\HttpSourceEndpointTest</title>
<polygon fill="none" stroke="black" points="1658,-1044 1494,-1044 1494,-1008 1658,-1008 1658,-1044"/>
<text text-anchor="middle" x="1576" y="-1023.1" font-family="Courier,monospace" font-size="11.00">HttpSourceEndpointTest</text>
</g>
<!-- \\HttpSourceEndpointTest&#45;&gt;\\CakeTestCase -->
<g id="edge25" class="edge"><title>\\HttpSourceEndpointTest&#45;&gt;\\CakeTestCase</title>
<path fill="none" stroke="black" d="M1493.19,-1028.03C1470.4,-1024.37 1447.68,-1016.03 1432,-999 1326.1,-883.941 1467.33,-412.723 1360,-299 1339.53,-277.315 1309.03,-268.583 1279.68,-265.942"/>
<polygon fill="none" stroke="black" points="1279.57,-262.427 1269.36,-265.25 1279.1,-269.411 1279.57,-262.427"/>
</g>
<!-- \\HttpSourceConfigFactoryItemTest -->
<g id="node14" class="node"><title>\\HttpSourceConfigFactoryItemTest</title>
<polygon fill="none" stroke="black" points="1689,-990 1463,-990 1463,-954 1689,-954 1689,-990"/>
<text text-anchor="middle" x="1576" y="-969.1" font-family="Courier,monospace" font-size="11.00">HttpSourceConfigFactoryItemTest</text>
</g>
<!-- \\HttpSourceConfigFactoryItemTest&#45;&gt;\\CakeTestCase -->
<g id="edge27" class="edge"><title>\\HttpSourceConfigFactoryItemTest&#45;&gt;\\CakeTestCase</title>
<path fill="none" stroke="black" d="M1462.79,-965.651C1451.2,-960.896 1440.57,-954.228 1432,-945 1235.46,-733.274 1559.18,-508.247 1360,-299 1339.44,-277.402 1308.92,-268.688 1279.58,-266.037"/>
<polygon fill="none" stroke="black" points="1279.48,-262.522 1269.26,-265.34 1279.01,-269.506 1279.48,-262.522"/>
</g>
<!-- \\HttpSourceConfigFactoryItemiAmExistsANDValid -->
<g id="node15" class="node"><title>\\HttpSourceConfigFactoryItemiAmExistsANDValid</title>
<polygon fill="none" stroke="black" points="602,-2124 288,-2124 288,-2088 602,-2088 602,-2124"/>
<text text-anchor="middle" x="445" y="-2103.1" font-family="Courier,monospace" font-size="11.00">HttpSourceConfigFactoryItemiAmExistsANDValid</text>
</g>
<!-- \\HttpSourceConfigFactoryItem -->
<g id="node42" class="node"><title>\\HttpSourceConfigFactoryItem</title>
<polygon fill="none" stroke="black" points="216,-2043 16,-2043 16,-2007 216,-2007 216,-2043"/>
<text text-anchor="start" x="82" y="-2030.43" font-family="Courier,monospace" font-size="11.00">«abstract»</text>
<text text-anchor="start" x="24.5" y="-2017.23" font-family="Courier,monospace" font-size="11.00">HttpSourceConfigFactoryItem</text>
</g>
<!-- \\HttpSourceConfigFactoryItemiAmExistsANDValid&#45;&gt;\\HttpSourceConfigFactoryItem -->
<g id="edge29" class="edge"><title>\\HttpSourceConfigFactoryItemiAmExistsANDValid&#45;&gt;\\HttpSourceConfigFactoryItem</title>
<path fill="none" stroke="black" d="M329.315,-2087.92C315.337,-2085.2 301.307,-2082.22 288,-2079 250.643,-2069.97 209.55,-2057.17 176.899,-2046.31"/>
<polygon fill="none" stroke="black" points="177.645,-2042.87 167.051,-2043 175.418,-2049.5 177.645,-2042.87"/>
</g>
<!-- \\HttpSourceResultTest -->
<g id="node16" class="node"><title>\\HttpSourceResultTest</title>
<polygon fill="none" stroke="black" points="1652,-936 1500,-936 1500,-900 1652,-900 1652,-936"/>
<text text-anchor="middle" x="1576" y="-915.1" font-family="Courier,monospace" font-size="11.00">HttpSourceResultTest</text>
</g>
<!-- \\HttpSourceResultTest&#45;&gt;\\CakeTestCase -->
<g id="edge31" class="edge"><title>\\HttpSourceResultTest&#45;&gt;\\CakeTestCase</title>
<path fill="none" stroke="black" d="M1499.76,-920.765C1474.92,-917.651 1449.31,-909.462 1432,-891 1250.7,-697.652 1543.7,-490.061 1360,-299 1339.42,-277.6 1309.06,-268.89 1279.85,-266.185"/>
<polygon fill="none" stroke="black" points="1279.8,-262.673 1269.58,-265.468 1279.31,-269.656 1279.8,-262.673"/>
</g>
<!-- \\HttpSourceConditionTest -->
<g id="node17" class="node"><title>\\HttpSourceConditionTest</title>
<polygon fill="none" stroke="black" points="1662,-882 1490,-882 1490,-846 1662,-846 1662,-882"/>
<text text-anchor="middle" x="1576" y="-861.1" font-family="Courier,monospace" font-size="11.00">HttpSourceConditionTest</text>
</g>
<!-- \\HttpSourceConditionTest&#45;&gt;\\CakeTestCase -->
<g id="edge33" class="edge"><title>\\HttpSourceConditionTest&#45;&gt;\\CakeTestCase</title>
<path fill="none" stroke="black" d="M1489.75,-865.085C1468.25,-861.12 1447.06,-852.867 1432,-837 1265.93,-662.013 1528.24,-471.893 1360,-299 1339.39,-277.818 1309.17,-269.117 1280.09,-266.358"/>
<polygon fill="none" stroke="black" points="1280.1,-262.849 1269.87,-265.619 1279.59,-269.831 1280.1,-262.849"/>
</g>
<!-- \\HttpSourceEndpointItemTest -->
<g id="node18" class="node"><title>\\HttpSourceEndpointItemTest</title>
<polygon fill="none" stroke="black" points="1672,-828 1480,-828 1480,-792 1672,-792 1672,-828"/>
<text text-anchor="middle" x="1576" y="-807.1" font-family="Courier,monospace" font-size="11.00">HttpSourceEndpointItemTest</text>
</g>
<!-- \\HttpSourceEndpointItemTest&#45;&gt;\\CakeTestCase -->
<g id="edge35" class="edge"><title>\\HttpSourceEndpointItemTest&#45;&gt;\\CakeTestCase</title>
<path fill="none" stroke="black" d="M1479.82,-808.744C1461.89,-804.208 1444.79,-796.283 1432,-783 1281.14,-626.351 1512.81,-453.747 1360,-299 1339.33,-278.063 1309.26,-269.378 1280.31,-266.563"/>
<polygon fill="none" stroke="black" points="1280.37,-263.057 1270.14,-265.801 1279.85,-270.038 1280.37,-263.057"/>
</g>
<!-- \\HttpSourceEndpointItemiAmExistsANDValid -->
<g id="node19" class="node"><title>\\HttpSourceEndpointItemiAmExistsANDValid</title>
<polygon fill="none" stroke="black" points="954,-1881 674,-1881 674,-1845 954,-1845 954,-1881"/>
<text text-anchor="middle" x="814" y="-1860.1" font-family="Courier,monospace" font-size="11.00">HttpSourceEndpointItemiAmExistsANDValid</text>
</g>
<!-- \\HttpSourceEndpointItem -->
<g id="node39" class="node"><title>\\HttpSourceEndpointItem</title>
<polygon fill="none" stroke="black" points="528,-1948 362,-1948 362,-1912 528,-1912 528,-1948"/>
<text text-anchor="start" x="411" y="-1935.43" font-family="Courier,monospace" font-size="11.00">«abstract»</text>
<text text-anchor="start" x="370.5" y="-1922.23" font-family="Courier,monospace" font-size="11.00">HttpSourceEndpointItem</text>
</g>
<!-- \\HttpSourceEndpointItemiAmExistsANDValid&#45;&gt;\\HttpSourceEndpointItem -->
<g id="edge37" class="edge"><title>\\HttpSourceEndpointItemiAmExistsANDValid&#45;&gt;\\HttpSourceEndpointItem</title>
<path fill="none" stroke="black" d="M714.629,-1881.04C659.668,-1891.02 591.799,-1903.35 537.903,-1913.13"/>
<polygon fill="none" stroke="black" points="537.222,-1909.7 528.008,-1914.93 538.472,-1916.59 537.222,-1909.7"/>
</g>
<!-- \\HttpSourceFieldTest -->
<g id="node20" class="node"><title>\\HttpSourceFieldTest</title>
<polygon fill="none" stroke="black" points="1648,-774 1504,-774 1504,-738 1648,-738 1648,-774"/>
<text text-anchor="middle" x="1576" y="-753.1" font-family="Courier,monospace" font-size="11.00">HttpSourceFieldTest</text>
</g>
<!-- \\HttpSourceFieldTest&#45;&gt;\\CakeTestCase -->
<g id="edge39" class="edge"><title>\\HttpSourceFieldTest&#45;&gt;\\CakeTestCase</title>
<path fill="none" stroke="black" d="M1503.2,-758.681C1477.5,-755.806 1450.43,-747.795 1432,-729 1296.32,-590.657 1497.4,-435.632 1360,-299 1339.23,-278.345 1309.29,-269.686 1280.49,-266.811"/>
<polygon fill="none" stroke="black" points="1280.6,-263.31 1270.36,-266.025 1280.06,-270.289 1280.6,-263.31"/>
</g>
<!-- \\HttpSourceConfigFactoryTest -->
<g id="node21" class="node"><title>\\HttpSourceConfigFactoryTest</title>
<polygon fill="none" stroke="black" points="1675,-1422 1477,-1422 1477,-1386 1675,-1386 1675,-1422"/>
<text text-anchor="middle" x="1576" y="-1401.1" font-family="Courier,monospace" font-size="11.00">HttpSourceConfigFactoryTest</text>
</g>
<!-- \\HttpSourceConfigFactoryTest&#45;&gt;\\CakeTestCase -->
<g id="edge41" class="edge"><title>\\HttpSourceConfigFactoryTest&#45;&gt;\\CakeTestCase</title>
<path fill="none" stroke="black" d="M1476.4,-1402.84C1459.48,-1398.14 1443.65,-1390.12 1432,-1377 1272.6,-1197.46 1521.64,-476.525 1360,-299 1339.57,-276.563 1308.43,-267.839 1278.55,-265.413"/>
<polygon fill="none" stroke="black" points="1278.67,-261.914 1268.48,-264.822 1278.26,-268.902 1278.67,-261.914"/>
</g>
<!-- \\HttpSourceConfigFactoryiAmExists -->
<g id="node22" class="node"><title>\\HttpSourceConfigFactoryiAmExists</title>
<polygon fill="none" stroke="black" points="1692,-1152 1460,-1152 1460,-1116 1692,-1116 1692,-1152"/>
<text text-anchor="middle" x="1576" y="-1131.1" font-family="Courier,monospace" font-size="11.00">HttpSourceConfigFactoryiAmExists</text>
</g>
<!-- \\HttpSourceConfigFactoryiAmExistsANDValid -->
<g id="node23" class="node"><title>\\HttpSourceConfigFactoryiAmExistsANDValid</title>
<polygon fill="none" stroke="black" points="1719,-2016 1433,-2016 1433,-1980 1719,-1980 1719,-2016"/>
<text text-anchor="middle" x="1576" y="-1995.1" font-family="Courier,monospace" font-size="11.00">HttpSourceConfigFactoryiAmExistsANDValid</text>
</g>
<!-- \\HttpSourceConfigFactory -->
<g id="node43" class="node"><title>\\HttpSourceConfigFactory</title>
<polygon fill="none" stroke="black" points="1279,-2016 1107,-2016 1107,-1980 1279,-1980 1279,-2016"/>
<text text-anchor="middle" x="1193" y="-1995.1" font-family="Courier,monospace" font-size="11.00">HttpSourceConfigFactory</text>
</g>
<!-- \\HttpSourceConfigFactoryiAmExistsANDValid&#45;&gt;\\HttpSourceConfigFactory -->
<g id="edge43" class="edge"><title>\\HttpSourceConfigFactoryiAmExistsANDValid&#45;&gt;\\HttpSourceConfigFactory</title>
<path fill="none" stroke="black" d="M1432.3,-1998C1384.54,-1998 1332.56,-1998 1289.28,-1998"/>
<polygon fill="none" stroke="black" points="1289.04,-1994.5 1279.04,-1998 1289.04,-2001.5 1289.04,-1994.5"/>
</g>
<!-- \\HttpSourceConfigiAmExistsANDValid -->
<g id="node24" class="node"><title>\\HttpSourceConfigiAmExistsANDValid</title>
<polygon fill="none" stroke="black" points="933,-2097 695,-2097 695,-2061 933,-2061 933,-2097"/>
<text text-anchor="middle" x="814" y="-2076.1" font-family="Courier,monospace" font-size="11.00">HttpSourceConfigiAmExistsANDValid</text>
</g>
<!-- \\HttpSourceConfig -->
<g id="node41" class="node"><title>\\HttpSourceConfig</title>
<polygon fill="none" stroke="black" points="507,-2070 383,-2070 383,-2034 507,-2034 507,-2070"/>
<text text-anchor="middle" x="445" y="-2049.1" font-family="Courier,monospace" font-size="11.00">HttpSourceConfig</text>
</g>
<!-- \\HttpSourceConfigiAmExistsANDValid&#45;&gt;\\HttpSourceConfig -->
<g id="edge45" class="edge"><title>\\HttpSourceConfigiAmExistsANDValid&#45;&gt;\\HttpSourceConfig</title>
<path fill="none" stroke="black" d="M694.451,-2070.25C636.257,-2065.99 568.18,-2061.01 517.859,-2057.33"/>
<polygon fill="none" stroke="black" points="517.95,-2053.83 507.721,-2056.59 517.439,-2060.81 517.95,-2053.83"/>
</g>
<!-- \\HttpSourceEndpointiAmExistsANDValid -->
<g id="node25" class="node"><title>\\HttpSourceEndpointiAmExistsANDValid</title>
<polygon fill="none" stroke="black" points="940,-2043 688,-2043 688,-2007 940,-2007 940,-2043"/>
<text text-anchor="middle" x="814" y="-2022.1" font-family="Courier,monospace" font-size="11.00">HttpSourceEndpointiAmExistsANDValid</text>
</g>
<!-- \\HttpSourceEndpoint -->
<g id="node44" class="node"><title>\\HttpSourceEndpoint</title>
<polygon fill="none" stroke="black" points="514,-2016 376,-2016 376,-1980 514,-1980 514,-2016"/>
<text text-anchor="middle" x="445" y="-1995.1" font-family="Courier,monospace" font-size="11.00">HttpSourceEndpoint</text>
</g>
<!-- \\HttpSourceEndpointiAmExistsANDValid&#45;&gt;\\HttpSourceEndpoint -->
<g id="edge47" class="edge"><title>\\HttpSourceEndpointiAmExistsANDValid&#45;&gt;\\HttpSourceEndpoint</title>
<path fill="none" stroke="black" d="M687.269,-2015.73C633.255,-2011.77 571.894,-2007.28 524.44,-2003.81"/>
<polygon fill="none" stroke="black" points="524.456,-2000.3 514.228,-2003.07 523.945,-2007.29 524.456,-2000.3"/>
</g>
<!-- \\HttpSourceConditioniAmExistsANDValid -->
<g id="node26" class="node"><title>\\HttpSourceConditioniAmExistsANDValid</title>
<polygon fill="none" stroke="black" points="1706,-1962 1446,-1962 1446,-1926 1706,-1926 1706,-1962"/>
<text text-anchor="middle" x="1576" y="-1941.1" font-family="Courier,monospace" font-size="11.00">HttpSourceConditioniAmExistsANDValid</text>
</g>
<!-- \\HttpSourceCondition -->
<g id="node45" class="node"><title>\\HttpSourceCondition</title>
<polygon fill="none" stroke="black" points="1265,-1908 1121,-1908 1121,-1872 1265,-1872 1265,-1908"/>
<text text-anchor="middle" x="1193" y="-1887.1" font-family="Courier,monospace" font-size="11.00">HttpSourceCondition</text>
</g>
<!-- \\HttpSourceConditioniAmExistsANDValid&#45;&gt;\\HttpSourceCondition -->
<g id="edge49" class="edge"><title>\\HttpSourceConditioniAmExistsANDValid&#45;&gt;\\HttpSourceCondition</title>
<path fill="none" stroke="black" d="M1448.2,-1925.98C1391.42,-1917.98 1326.21,-1908.78 1275.92,-1901.69"/>
<polygon fill="none" stroke="black" points="1276.13,-1898.19 1265.74,-1900.26 1275.16,-1905.12 1276.13,-1898.19"/>
</g>
<!-- \\HttpSourceFieldiAmExistsANDValid -->
<g id="node27" class="node"><title>\\HttpSourceFieldiAmExistsANDValid</title>
<polygon fill="none" stroke="black" points="1309,-1962 1077,-1962 1077,-1926 1309,-1926 1309,-1962"/>
<text text-anchor="middle" x="1193" y="-1941.1" font-family="Courier,monospace" font-size="11.00">HttpSourceFieldiAmExistsANDValid</text>
</g>
<!-- \\HttpSourceField -->
<g id="node46" class="node"><title>\\HttpSourceField</title>
<polygon fill="none" stroke="black" points="873,-1935 755,-1935 755,-1899 873,-1899 873,-1935"/>
<text text-anchor="middle" x="814" y="-1914.1" font-family="Courier,monospace" font-size="11.00">HttpSourceField</text>
</g>
<!-- \\HttpSourceFieldiAmExistsANDValid&#45;&gt;\\HttpSourceField -->
<g id="edge51" class="edge"><title>\\HttpSourceFieldiAmExistsANDValid&#45;&gt;\\HttpSourceField</title>
<path fill="none" stroke="black" d="M1076.45,-1935.7C1013.2,-1931.19 937.147,-1925.77 883.231,-1921.93"/>
<polygon fill="none" stroke="black" points="883.316,-1918.43 873.092,-1921.21 882.818,-1925.41 883.316,-1918.43"/>
</g>
<!-- \\HttpSourceResultiAmExistsANDValid -->
<g id="node28" class="node"><title>\\HttpSourceResultiAmExistsANDValid</title>
<polygon fill="none" stroke="black" points="1312,-2070 1074,-2070 1074,-2034 1312,-2034 1312,-2070"/>
<text text-anchor="middle" x="1193" y="-2049.1" font-family="Courier,monospace" font-size="11.00">HttpSourceResultiAmExistsANDValid</text>
</g>
<!-- \\HttpSourceResult -->
<g id="node40" class="node"><title>\\HttpSourceResult</title>
<polygon fill="none" stroke="black" points="876,-1989 752,-1989 752,-1953 876,-1953 876,-1989"/>
<text text-anchor="middle" x="814" y="-1968.1" font-family="Courier,monospace" font-size="11.00">HttpSourceResult</text>
</g>
<!-- \\HttpSourceResultiAmExistsANDValid&#45;&gt;\\HttpSourceResult -->
<g id="edge53" class="edge"><title>\\HttpSourceResultiAmExistsANDValid&#45;&gt;\\HttpSourceResult</title>
<path fill="none" stroke="black" d="M1073.34,-2035.61C1057.32,-2032.56 1041.19,-2029.03 1026,-2025 992.969,-2016.23 986.895,-2007.27 954,-1998 932.306,-1991.89 908.332,-1986.71 886.446,-1982.57"/>
<polygon fill="none" stroke="black" points="887.022,-1979.12 876.553,-1980.74 885.751,-1986 887.022,-1979.12"/>
</g>
<!-- \\HttpSourceControllerTest -->
<g id="node29" class="node"><title>\\HttpSourceControllerTest</title>
<polygon fill="none" stroke="black" points="1665,-612 1487,-612 1487,-576 1665,-576 1665,-612"/>
<text text-anchor="middle" x="1576" y="-591.1" font-family="Courier,monospace" font-size="11.00">HttpSourceControllerTest</text>
</g>
<!-- \\ControllerTestCase -->
<g id="node83" class="node"><title>\\ControllerTestCase</title>
<ellipse fill="none" stroke="black" cx="1193" cy="-164" rx="106.773" ry="18.3848"/>
<text text-anchor="middle" x="1193" y="-160.4" font-family="Times Roman,serif" font-size="14.00" fill="gray">\ControllerTestCase</text>
</g>
<!-- \\HttpSourceControllerTest&#45;&gt;\\ControllerTestCase -->
<g id="edge55" class="edge"><title>\\HttpSourceControllerTest&#45;&gt;\\ControllerTestCase</title>
<path fill="none" stroke="black" d="M1486.21,-593.705C1466.13,-589.483 1446.51,-581.451 1432,-567 1311.46,-446.92 1482.04,-309.561 1360,-191 1346.1,-177.494 1328.26,-169.157 1309.45,-164.222"/>
<polygon fill="none" stroke="black" points="1310.07,-160.773 1299.54,-161.942 1308.5,-167.595 1310.07,-160.773"/>
</g>
<!-- \\HttpSourceDocument -->
<g id="node30" class="node"><title>\\HttpSourceDocument</title>
<polygon fill="none" stroke="black" points="1645,-1746 1507,-1746 1507,-1710 1645,-1710 1645,-1746"/>
<text text-anchor="middle" x="1576" y="-1725.1" font-family="Courier,monospace" font-size="11.00">HttpSourceDocument</text>
</g>
<!-- \\HttpSourceDocument&#45;&gt;\\HttpSourceModel -->
<g id="edge57" class="edge"><title>\\HttpSourceDocument&#45;&gt;\\HttpSourceModel</title>
<path fill="none" stroke="black" d="M1506.68,-1715.54C1482.96,-1711.13 1456.29,-1706.02 1432,-1701 1374.63,-1689.15 1309.83,-1674.42 1262.19,-1663.34"/>
<polygon fill="none" stroke="black" points="1262.82,-1659.9 1252.29,-1661.04 1261.24,-1666.71 1262.82,-1659.9"/>
</g>
<!-- \\HttpSourceUser -->
<g id="node31" class="node"><title>\\HttpSourceUser</title>
<polygon fill="none" stroke="black" points="1631,-558 1521,-558 1521,-522 1631,-522 1631,-558"/>
<text text-anchor="middle" x="1576" y="-537.1" font-family="Courier,monospace" font-size="11.00">HttpSourceUser</text>
</g>
<!-- \\AppModel -->
<g id="node86" class="node"><title>\\AppModel</title>
<ellipse fill="none" stroke="black" cx="814" cy="-168" rx="62.2254" ry="18.3848"/>
<text text-anchor="middle" x="814" y="-164.4" font-family="Times Roman,serif" font-size="14.00" fill="gray">\AppModel</text>
</g>
<!-- \\HttpSourceUser&#45;&gt;\\AppModel -->
<g id="edge59" class="edge"><title>\\HttpSourceUser&#45;&gt;\\AppModel</title>
<path fill="none" stroke="black" d="M1520.23,-543.695C1490.22,-542.567 1454.8,-535.708 1432,-513 1311.46,-392.92 1491.14,-245.41 1360,-137 1287.42,-76.9966 999.457,-128.603 873.503,-154.875"/>
<polygon fill="none" stroke="black" points="872.699,-151.468 863.634,-156.951 874.14,-158.318 872.699,-151.468"/>
</g>
<!-- \\HttpSourceUsersDocumentFixture -->
<g id="node32" class="node"><title>\\HttpSourceUsersDocumentFixture</title>
<polygon fill="none" stroke="black" points="1685,-1476 1467,-1476 1467,-1440 1685,-1440 1685,-1476"/>
<text text-anchor="middle" x="1576" y="-1455.1" font-family="Courier,monospace" font-size="11.00">HttpSourceUsersDocumentFixture</text>
</g>
<!-- \\HttpSourceUsersDocumentFixture&#45;&gt;\\CakeTestFixture -->
<g id="edge61" class="edge"><title>\\HttpSourceUsersDocumentFixture&#45;&gt;\\CakeTestFixture</title>
<path fill="none" stroke="black" d="M1466.26,-1453.55C1453.23,-1448.68 1441.29,-1441.46 1432,-1431 1271.89,-1250.61 1524.96,-523.971 1360,-348 1340.05,-326.72 1310.3,-318.682 1281.41,-316.799"/>
<polygon fill="none" stroke="black" points="1281.38,-313.294 1271.24,-316.377 1281.09,-320.288 1281.38,-313.294"/>
</g>
<!-- \\HttpSourceUserFixture -->
<g id="node33" class="node"><title>\\HttpSourceUserFixture</title>
<polygon fill="none" stroke="black" points="1655,-1530 1497,-1530 1497,-1494 1655,-1494 1655,-1530"/>
<text text-anchor="middle" x="1576" y="-1509.1" font-family="Courier,monospace" font-size="11.00">HttpSourceUserFixture</text>
</g>
<!-- \\HttpSourceUserFixture&#45;&gt;\\CakeTestFixture -->
<g id="edge63" class="edge"><title>\\HttpSourceUserFixture&#45;&gt;\\CakeTestFixture</title>
<path fill="none" stroke="black" d="M1496.9,-1515.03C1472.73,-1511.74 1448.26,-1503.38 1432,-1485 1264.24,-1295.39 1532.86,-532.98 1360,-348 1340.09,-326.689 1310.34,-318.644 1281.44,-316.764"/>
<polygon fill="none" stroke="black" points="1281.41,-313.259 1271.28,-316.344 1281.12,-320.253 1281.41,-313.259"/>
</g>
<!-- \\HttpSourceAppTest&#45;&gt;\\CakeTestCase -->
<g id="edge65" class="edge"><title>\\HttpSourceAppTest&#45;&gt;\\CakeTestCase</title>
<path fill="none" stroke="black" d="M1259.31,-2114.77C1305.68,-2116.76 1364.72,-2110.06 1396,-2070 1426.12,-2031.42 1426.12,-346.578 1396,-308 1368,-272.142 1317.77,-263.016 1274.28,-262.917"/>
<polygon fill="none" stroke="black" points="1274.2,-259.418 1264.25,-263.05 1274.3,-266.417 1274.2,-259.418"/>
</g>
<!-- \\HttpSourceModel&#45;&gt;\\AppModel -->
<g id="edge67" class="edge"><title>\\HttpSourceModel&#45;&gt;\\AppModel</title>
<path fill="none" stroke="black" d="M1133.89,-1656.36C1097.44,-1658.49 1052.69,-1653.89 1026,-1625 921.793,-1512.23 1035.56,-375.086 954,-245 935.052,-214.781 899.819,-195.493 869.44,-183.778"/>
<polygon fill="none" stroke="black" points="870.367,-180.391 859.774,-180.237 867.959,-186.964 870.367,-180.391"/>
</g>
<!-- \\HttpSourceConnection -->
<g id="node36" class="node"><title>\\HttpSourceConnection</title>
<polygon fill="none" stroke="black" points="1269,-1854 1117,-1854 1117,-1818 1269,-1818 1269,-1854"/>
<text text-anchor="middle" x="1193" y="-1833.1" font-family="Courier,monospace" font-size="11.00">HttpSourceConnection</text>
</g>
<!-- \\Object -->
<g id="node92" class="node"><title>\\Object</title>
<ellipse fill="none" stroke="black" cx="814" cy="-326" rx="45.9619" ry="18.3848"/>
<text text-anchor="middle" x="814" y="-322.4" font-family="Times Roman,serif" font-size="14.00" fill="gray">\Object</text>
</g>
<!-- \\HttpSourceConnection&#45;&gt;\\Object -->
<g id="edge69" class="edge"><title>\\HttpSourceConnection&#45;&gt;\\Object</title>
<path fill="none" stroke="black" d="M1116.89,-1843.34C1084.2,-1842.11 1048.42,-1834.06 1026,-1809 917.629,-1687.87 1062.64,-468.887 954,-348 932.816,-324.427 897.505,-319.007 867.646,-319.44"/>
<polygon fill="none" stroke="black" points="867.21,-315.953 857.345,-319.817 867.466,-322.948 867.21,-315.953"/>
</g>
<!-- \\DataSource -->
<g id="node94" class="node"><title>\\DataSource</title>
<ellipse fill="none" stroke="black" cx="814" cy="-272" rx="72.1249" ry="18.3848"/>
<text text-anchor="middle" x="814" y="-268.4" font-family="Times Roman,serif" font-size="14.00" fill="gray">\DataSource</text>
</g>
<!-- \\HttpSource&#45;&gt;\\DataSource -->
<g id="edge71" class="edge"><title>\\HttpSource&#45;&gt;\\DataSource</title>
<path fill="none" stroke="black" d="M1150.33,-1767.4C1110.53,-1751.29 1053.32,-1721.22 1026,-1674 949.383,-1541.58 1054.45,-414.389 954,-299 939.201,-282 917.218,-273.677 895.034,-270.01"/>
<polygon fill="none" stroke="black" points="895.23,-266.505 884.852,-268.638 894.295,-273.442 895.23,-266.505"/>
</g>
<!-- \\HttpSourceUtility -->
<g id="node38" class="node"><title>\\HttpSourceUtility</title>
<polygon fill="none" stroke="black" points="1641,-720 1511,-720 1511,-684 1641,-684 1641,-720"/>
<text text-anchor="middle" x="1576" y="-699.1" font-family="Courier,monospace" font-size="11.00">HttpSourceUtility</text>
</g>
<!-- \\HttpSourceEndpointItem&#45;&gt;\\HttpSourceConfigFactoryItem -->
<g id="edge73" class="edge"><title>\\HttpSourceEndpointItem&#45;&gt;\\HttpSourceConfigFactoryItem</title>
<path fill="none" stroke="black" d="M372.893,-1948.04C346.151,-1954.94 315.617,-1963.06 288,-1971 252.425,-1981.22 213.011,-1993.53 180.898,-2003.8"/>
<polygon fill="none" stroke="black" points="179.63,-2000.53 171.178,-2006.92 181.769,-2007.2 179.63,-2000.53"/>
</g>
<!-- \\HttpSourceResult&#45;&gt;\\HttpSourceEndpointItem -->
<g id="edge75" class="edge"><title>\\HttpSourceResult&#45;&gt;\\HttpSourceEndpointItem</title>
<path fill="none" stroke="black" d="M751.404,-1964.04C692.926,-1957.55 604.873,-1947.76 538.145,-1940.35"/>
<polygon fill="none" stroke="black" points="538.37,-1936.85 528.044,-1939.23 537.597,-1943.81 538.37,-1936.85"/>
</g>
<!-- \\HttpSourceConfig&#45;&gt;\\HttpSourceConfigFactoryItem -->
<g id="edge77" class="edge"><title>\\HttpSourceConfig&#45;&gt;\\HttpSourceConfigFactoryItem</title>
<path fill="none" stroke="black" d="M382.343,-2046.86C338.385,-2043.25 278.429,-2038.33 226.533,-2034.07"/>
<polygon fill="none" stroke="black" points="226.521,-2030.56 216.269,-2033.23 225.949,-2037.54 226.521,-2030.56"/>
</g>
<!-- \\HttpSourceEndpoint&#45;&gt;\\HttpSourceConfigFactoryItem -->
<g id="edge79" class="edge"><title>\\HttpSourceEndpoint&#45;&gt;\\HttpSourceConfigFactoryItem</title>
<path fill="none" stroke="black" d="M375.63,-2003.69C332.33,-2007.25 275.632,-2011.9 226.27,-2015.95"/>
<polygon fill="none" stroke="black" points="225.859,-2012.47 216.179,-2016.78 226.432,-2019.45 225.859,-2012.47"/>
</g>
<!-- \\HttpSourceCondition&#45;&gt;\\HttpSourceField -->
<g id="edge81" class="edge"><title>\\HttpSourceCondition&#45;&gt;\\HttpSourceField</title>
<path fill="none" stroke="black" d="M1120.37,-1895.17C1051.99,-1900.05 950.284,-1907.29 883.08,-1912.08"/>
<polygon fill="none" stroke="black" points="882.738,-1908.59 873.012,-1912.8 883.235,-1915.58 882.738,-1908.59"/>
</g>
<!-- \\HttpSourceField&#45;&gt;\\HttpSourceEndpointItem -->
<g id="edge83" class="edge"><title>\\HttpSourceField&#45;&gt;\\HttpSourceEndpointItem</title>
<path fill="none" stroke="black" d="M754.714,-1919.09C696.386,-1921.14 606.447,-1924.31 538.488,-1926.71"/>
<polygon fill="none" stroke="black" points="538.073,-1923.22 528.203,-1927.07 538.32,-1930.21 538.073,-1923.22"/>
</g>
<!-- \\HttpSourceException -->
<g id="node47" class="node"><title>\\HttpSourceException</title>
<polygon fill="none" stroke="black" points="1648,-450 1504,-450 1504,-414 1648,-414 1648,-450"/>
<text text-anchor="middle" x="1576" y="-429.1" font-family="Courier,monospace" font-size="11.00">HttpSourceException</text>
</g>
<!-- \\CakeException -->
<g id="node102" class="node"><title>\\CakeException</title>
<ellipse fill="none" stroke="black" cx="1193" cy="-72" rx="85.7684" ry="18.3848"/>
<text text-anchor="middle" x="1193" y="-68.4" font-family="Times Roman,serif" font-size="14.00" fill="gray">\CakeException</text>
</g>
<!-- \\HttpSourceException&#45;&gt;\\CakeException -->
<g id="edge85" class="edge"><title>\\HttpSourceException&#45;&gt;\\CakeException</title>
<path fill="none" stroke="black" d="M1503.14,-433.906C1477.73,-430.883 1450.89,-422.974 1432,-405 1332.36,-310.17 1459.45,-199.028 1360,-104 1341.06,-85.9057 1315.19,-76.5098 1289.47,-71.9563"/>
<polygon fill="none" stroke="black" points="1289.67,-68.4455 1279.25,-70.39 1288.61,-75.3647 1289.67,-68.4455"/>
</g>
<!-- \\HttpSourceConfigException -->
<g id="node48" class="node"><title>\\HttpSourceConfigException</title>
<polygon fill="none" stroke="black" points="1668,-504 1484,-504 1484,-468 1668,-468 1668,-504"/>
<text text-anchor="middle" x="1576" y="-483.1" font-family="Courier,monospace" font-size="11.00">HttpSourceConfigException</text>
</g>
<!-- \\HttpSourceConfigException&#45;&gt;\\CakeException -->
<g id="edge87" class="edge"><title>\\HttpSourceConfigException&#45;&gt;\\CakeException</title>
<path fill="none" stroke="black" d="M1483.33,-484.936C1464.3,-480.563 1445.86,-472.657 1432,-459 1317.33,-346.006 1474.45,-217.222 1360,-104 1341.2,-85.4064 1315.12,-75.906 1289.15,-71.412"/>
<polygon fill="none" stroke="black" points="1289.62,-67.9441 1279.22,-69.9262 1288.59,-74.8671 1289.62,-67.9441"/>
</g>
<!-- \\TestHttpSourceModel -->
<g id="node49" class="node"><title>\\TestHttpSourceModel</title>
<polygon fill="none" stroke="black" points="1648,-1692 1504,-1692 1504,-1656 1648,-1656 1648,-1692"/>
<text text-anchor="middle" x="1576" y="-1671.1" font-family="Courier,monospace" font-size="11.00">TestHttpSourceModel</text>
</g>
<!-- \\TestHttpSourceModel&#45;&gt;\\HttpSourceModel -->
<g id="edge89" class="edge"><title>\\TestHttpSourceModel&#45;&gt;\\HttpSourceModel</title>
<path fill="none" stroke="black" d="M1503.06,-1668.86C1433.8,-1663.98 1330.42,-1656.69 1262.37,-1651.89"/>
<polygon fill="none" stroke="black" points="1262.4,-1648.38 1252.18,-1651.17 1261.9,-1655.37 1262.4,-1648.38"/>
</g>
<!-- \\TestHttpSourceConnection -->
<g id="node50" class="node"><title>\\TestHttpSourceConnection</title>
<polygon fill="none" stroke="black" points="1665,-1908 1487,-1908 1487,-1872 1665,-1872 1665,-1908"/>
<text text-anchor="middle" x="1576" y="-1887.1" font-family="Courier,monospace" font-size="11.00">TestHttpSourceConnection</text>
</g>
<!-- \\TestHttpSourceConnection&#45;&gt;\\HttpSourceConnection -->
<g id="edge91" class="edge"><title>\\TestHttpSourceConnection&#45;&gt;\\HttpSourceConnection</title>
<path fill="none" stroke="black" d="M1486.2,-1877.34C1423.69,-1868.52 1340.79,-1856.84 1279.1,-1848.14"/>
<polygon fill="none" stroke="black" points="1279.39,-1844.65 1269,-1846.72 1278.42,-1851.58 1279.39,-1844.65"/>
</g>
<!-- \\TestHttpSource -->
<g id="node51" class="node"><title>\\TestHttpSource</title>
<polygon fill="none" stroke="black" points="1631,-1800 1521,-1800 1521,-1764 1631,-1764 1631,-1800"/>
<text text-anchor="middle" x="1576" y="-1779.1" font-family="Courier,monospace" font-size="11.00">TestHttpSource</text>
</g>
<!-- \\TestHttpSource&#45;&gt;\\HttpSource -->
<g id="edge93" class="edge"><title>\\TestHttpSource&#45;&gt;\\HttpSource</title>
<path fill="none" stroke="black" d="M1520.31,-1782C1446.75,-1782 1318.1,-1782 1245.95,-1782"/>
<polygon fill="none" stroke="black" points="1245.72,-1778.5 1235.72,-1782 1245.72,-1785.5 1245.72,-1778.5"/>
</g>
<!-- \\HttpSourceController -->
<g id="node52" class="node"><title>\\HttpSourceController</title>
<polygon fill="none" stroke="black" points="1652,-396 1500,-396 1500,-360 1652,-360 1652,-396"/>
<text text-anchor="middle" x="1576" y="-375.1" font-family="Courier,monospace" font-size="11.00">HttpSourceController</text>
</g>
<!-- \\AppController -->
<g id="node108" class="node"><title>\\AppController</title>
<ellipse fill="none" stroke="black" cx="1193" cy="-18" rx="82.0244" ry="18.3848"/>
<text text-anchor="middle" x="1193" y="-14.4" font-family="Times Roman,serif" font-size="14.00" fill="gray">\AppController</text>
</g>
<!-- \\HttpSourceController&#45;&gt;\\AppController -->
<g id="edge95" class="edge"><title>\\HttpSourceController&#45;&gt;\\AppController</title>
<path fill="none" stroke="black" d="M1570.17,-359.757C1550.83,-302.46 1482.95,-125.171 1360,-45 1338.06,-30.6964 1311.15,-23.0812 1285.39,-19.2305"/>
<polygon fill="none" stroke="black" points="1285.57,-15.725 1275.2,-17.8892 1284.66,-22.665 1285.57,-15.725"/>
</g>
</g>
</svg>
