<?xml version="1.0" encoding="UTF-8" standalone="no"?>
<!DOCTYPE svg PUBLIC "-//W3C//DTD SVG 1.1//EN"
 "http://www.w3.org/Graphics/SVG/1.1/DTD/svg11.dtd">
<!-- Generated by graphviz version 2.26.3 (20100126.1600)
 -->
<!-- Title: G Pages: 1 -->
<svg width="1744pt" height="2170pt"
 viewBox="0.00 0.00 1744.00 2170.00" xmlns="http://www.w3.org/2000/svg" xmlns:xlink="http://www.w3.org/1999/xlink">
<g id="graph1" class="graph" transform="scale(1 1) rotate(0) translate(4 2166)">
<title>G</title>
<polygon fill="white" stroke="white" points="-4,5 -4,-2166 1741,-2166 1741,5 -4,5"/>
<g id="graph2" class="cluster"><title>cluster_Global</title>
<polyline fill="none" stroke="gray" points="20,-352 1716,-352 "/>
<path fill="none" stroke="gray" d="M1716,-352C1722,-352 1728,-358 1728,-364"/>
<polyline fill="none" stroke="gray" points="1728,-364 1728,-2142 "/>
<path fill="none" stroke="gray" d="M1728,-2142C1728,-2148 1722,-2154 1716,-2154"/>
<polyline fill="none" stroke="gray" points="1716,-2154 20,-2154 "/>
<path fill="none" stroke="gray" d="M20,-2154C14,-2154 8,-2148 8,-2142"/>
<polyline fill="none" stroke="gray" points="8,-2142 8,-364 "/>
<path fill="none" stroke="gray" d="M8,-364C8,-358 14,-352 20,-352"/>
<text text-anchor="middle" x="868" y="-2140.1" font-family="Times Roman,serif" font-size="11.00" fill="gray">Global</text>
</g>
<!-- \\HttpSourceController -->
<g id="node2" class="node"><title>\\HttpSourceController</title>
<polygon fill="none" stroke="black" points="1652,-1530 1500,-1530 1500,-1494 1652,-1494 1652,-1530"/>
<text text-anchor="middle" x="1576" y="-1509.1" font-family="Courier,monospace" font-size="11.00">HttpSourceController</text>
</g>
<!-- \\AppController -->
<g id="node54" class="node"><title>\\AppController</title>
<ellipse fill="none" stroke="black" cx="1193" cy="-326" rx="82.0244" ry="18.3848"/>
<text text-anchor="middle" x="1193" y="-322.4" font-family="Times Roman,serif" font-size="14.00" fill="gray">\AppController</text>
</g>
<!-- \\HttpSourceController&#45;&gt;\\AppController -->
<g id="edge3" class="edge"><title>\\HttpSourceController&#45;&gt;\\AppController</title>
<path fill="none" stroke="black" d="M1499.9,-1515.41C1474.77,-1512.42 1448.94,-1504.14 1432,-1485 1264.24,-1295.39 1532.86,-532.98 1360,-348 1338.02,-324.478 1304.06,-317.118 1272.49,-316.369"/>
<polygon fill="none" stroke="black" points="1272.35,-312.869 1262.34,-316.347 1272.34,-319.869 1272.35,-312.869"/>
</g>
<!-- \\HttpSourceUtility -->
<g id="node3" class="node"><title>\\HttpSourceUtility</title>
<polygon fill="none" stroke="black" points="1641,-2070 1511,-2070 1511,-2034 1641,-2034 1641,-2070"/>
<text text-anchor="middle" x="1576" y="-2049.1" font-family="Courier,monospace" font-size="11.00">HttpSourceUtility</text>
</g>
<!-- \\HttpSourceDocument -->
<g id="node4" class="node"><title>\\HttpSourceDocument</title>
<polygon fill="none" stroke="black" points="1645,-1584 1507,-1584 1507,-1548 1645,-1548 1645,-1584"/>
<text text-anchor="middle" x="1576" y="-1563.1" font-family="Courier,monospace" font-size="11.00">HttpSourceDocument</text>
</g>
<!-- \\HttpSourceModel -->
<g id="node49" class="node"><title>\\HttpSourceModel</title>
<polygon fill="none" stroke="black" points="1252,-1611 1134,-1611 1134,-1575 1252,-1575 1252,-1611"/>
<text text-anchor="middle" x="1193" y="-1590.1" font-family="Courier,monospace" font-size="11.00">HttpSourceModel</text>
</g>
<!-- \\HttpSourceDocument&#45;&gt;\\HttpSourceModel -->
<g id="edge5" class="edge"><title>\\HttpSourceDocument&#45;&gt;\\HttpSourceModel</title>
<path fill="none" stroke="black" d="M1506.64,-1570.89C1437.44,-1575.77 1331.72,-1583.22 1262.48,-1588.1"/>
<polygon fill="none" stroke="black" points="1261.84,-1584.64 1252.11,-1588.83 1262.33,-1591.62 1261.84,-1584.64"/>
</g>
<!-- \\HttpSourceUser -->
<g id="node5" class="node"><title>\\HttpSourceUser</title>
<polygon fill="none" stroke="black" points="1631,-1476 1521,-1476 1521,-1440 1631,-1440 1631,-1476"/>
<text text-anchor="middle" x="1576" y="-1455.1" font-family="Courier,monospace" font-size="11.00">HttpSourceUser</text>
</g>
<!-- \\AppModel -->
<g id="node57" class="node"><title>\\AppModel</title>
<ellipse fill="none" stroke="black" cx="814" cy="-218" rx="62.2254" ry="18.3848"/>
<text text-anchor="middle" x="814" y="-214.4" font-family="Times Roman,serif" font-size="14.00" fill="gray">\AppModel</text>
</g>
<!-- \\HttpSourceUser&#45;&gt;\\AppModel -->
<g id="edge7" class="edge"><title>\\HttpSourceUser&#45;&gt;\\AppModel</title>
<path fill="none" stroke="black" d="M1520.18,-1462.79C1489.58,-1462.13 1453.58,-1455.38 1432,-1431 1264.94,-1242.24 1533.75,-481.616 1360,-299 1308.51,-244.88 1099.67,-273.342 1026,-261 993.67,-255.584 986.097,-251.66 954,-245 928.657,-239.741 900.66,-234.274 876.406,-229.646"/>
<polygon fill="none" stroke="black" points="876.737,-226.146 866.259,-227.717 875.429,-233.023 876.737,-226.146"/>
</g>
<!-- \\HttpSourceAppTest -->
<g id="node6" class="node"><title>\\HttpSourceAppTest</title>
<polygon fill="none" stroke="black" points="1259,-1881 1127,-1881 1127,-1845 1259,-1845 1259,-1881"/>
<text text-anchor="start" x="1159" y="-1868.43" font-family="Courier,monospace" font-size="11.00">«abstract»</text>
<text text-anchor="start" x="1135.5" y="-1855.23" font-family="Courier,monospace" font-size="11.00">HttpSourceAppTest</text>
</g>
<!-- \\CakeTestCase -->
<g id="node59" class="node"><title>\\CakeTestCase</title>
<ellipse fill="none" stroke="black" cx="1193" cy="-126" rx="82.0244" ry="18.3848"/>
<text text-anchor="middle" x="1193" y="-122.4" font-family="Times Roman,serif" font-size="14.00" fill="gray">\CakeTestCase</text>
</g>
<!-- \\HttpSourceAppTest&#45;&gt;\\CakeTestCase -->
<g id="edge9" class="edge"><title>\\HttpSourceAppTest&#45;&gt;\\CakeTestCase</title>
<path fill="none" stroke="black" d="M1259.42,-1861.75C1305.86,-1856.96 1364.92,-1842.19 1396,-1800 1422.99,-1763.37 1424,-197.863 1396,-162 1368,-126.142 1317.77,-117.016 1274.28,-116.917"/>
<polygon fill="none" stroke="black" points="1274.2,-113.418 1264.25,-117.05 1274.3,-120.417 1274.2,-113.418"/>
</g>
<!-- \\HttpSourceUsersDocumentFixture -->
<g id="node7" class="node"><title>\\HttpSourceUsersDocumentFixture</title>
<polygon fill="none" stroke="black" points="1685,-1422 1467,-1422 1467,-1386 1685,-1386 1685,-1422"/>
<text text-anchor="middle" x="1576" y="-1401.1" font-family="Courier,monospace" font-size="11.00">HttpSourceUsersDocumentFixture</text>
</g>
<!-- \\CakeTestFixture -->
<g id="node61" class="node"><title>\\CakeTestFixture</title>
<ellipse fill="none" stroke="black" cx="1193" cy="-234" rx="92.1303" ry="18.3848"/>
<text text-anchor="middle" x="1193" y="-230.4" font-family="Times Roman,serif" font-size="14.00" fill="gray">\CakeTestFixture</text>
</g>
<!-- \\HttpSourceUsersDocumentFixture&#45;&gt;\\CakeTestFixture -->
<g id="edge11" class="edge"><title>\\HttpSourceUsersDocumentFixture&#45;&gt;\\CakeTestFixture</title>
<path fill="none" stroke="black" d="M1466.24,-1399.57C1453.22,-1394.69 1441.28,-1387.47 1432,-1377 1267.92,-1191.83 1523.71,-451.496 1360,-266 1343.27,-247.047 1319.05,-237.193 1294.22,-232.471"/>
<polygon fill="none" stroke="black" points="1294.75,-229.011 1284.31,-230.853 1293.62,-235.92 1294.75,-229.011"/>
</g>
<!-- \\HttpSourceUserFixture -->
<g id="node8" class="node"><title>\\HttpSourceUserFixture</title>
<polygon fill="none" stroke="black" points="1655,-1368 1497,-1368 1497,-1332 1655,-1332 1655,-1368"/>
<text text-anchor="middle" x="1576" y="-1347.1" font-family="Courier,monospace" font-size="11.00">HttpSourceUserFixture</text>
</g>
<!-- \\HttpSourceUserFixture&#45;&gt;\\CakeTestFixture -->
<g id="edge13" class="edge"><title>\\HttpSourceUserFixture&#45;&gt;\\CakeTestFixture</title>
<path fill="none" stroke="black" d="M1496.95,-1352.98C1472.78,-1349.69 1448.31,-1341.34 1432,-1323 1275.57,-1147.05 1516.08,-442.262 1360,-266 1343.24,-247.074 1319.01,-237.229 1294.18,-232.508"/>
<polygon fill="none" stroke="black" points="1294.71,-229.048 1284.27,-230.889 1293.58,-235.956 1294.71,-229.048"/>
</g>
<!-- \\HttpSourceControllerTest -->
<g id="node9" class="node"><title>\\HttpSourceControllerTest</title>
<polygon fill="none" stroke="black" points="1665,-1206 1487,-1206 1487,-1170 1665,-1170 1665,-1206"/>
<text text-anchor="middle" x="1576" y="-1185.1" font-family="Courier,monospace" font-size="11.00">HttpSourceControllerTest</text>
</g>
<!-- \\ControllerTestCase -->
<g id="node64" class="node"><title>\\ControllerTestCase</title>
<ellipse fill="none" stroke="black" cx="1193" cy="-180" rx="106.773" ry="18.3848"/>
<text text-anchor="middle" x="1193" y="-176.4" font-family="Times Roman,serif" font-size="14.00" fill="gray">\ControllerTestCase</text>
</g>
<!-- \\HttpSourceControllerTest&#45;&gt;\\ControllerTestCase -->
<g id="edge15" class="edge"><title>\\HttpSourceControllerTest&#45;&gt;\\ControllerTestCase</title>
<path fill="none" stroke="black" d="M1486.14,-1189.07C1465.69,-1184.89 1445.92,-1176.54 1432,-1161 1290.16,-1002.63 1503.81,-363.582 1360,-207 1346.09,-191.85 1327.28,-182.969 1307.31,-178.06"/>
<polygon fill="none" stroke="black" points="1307.94,-174.616 1297.43,-175.96 1306.48,-181.463 1307.94,-174.616"/>
</g>
<!-- \\HttpSourceUtilityTest -->
<g id="node10" class="node"><title>\\HttpSourceUtilityTest</title>
<polygon fill="none" stroke="black" points="1655,-558 1497,-558 1497,-522 1655,-522 1655,-558"/>
<text text-anchor="middle" x="1576" y="-537.1" font-family="Courier,monospace" font-size="11.00">HttpSourceUtilityTest</text>
</g>
<!-- \\HttpSourceUtilityTest&#45;&gt;\\CakeTestCase -->
<g id="edge17" class="edge"><title>\\HttpSourceUtilityTest&#45;&gt;\\CakeTestCase</title>
<path fill="none" stroke="black" d="M1496.79,-541.492C1473.2,-537.994 1449.1,-529.894 1432,-513 1315.93,-398.319 1477.5,-266.217 1360,-153 1339.19,-132.948 1309.7,-124.322 1281.29,-121.3"/>
<polygon fill="none" stroke="black" points="1281.56,-117.81 1271.3,-120.456 1280.97,-124.786 1281.56,-117.81"/>
</g>
<!-- \\AllHttpSourceTest -->
<g id="node11" class="node"><title>\\AllHttpSourceTest</title>
<polygon fill="none" stroke="black" points="1641,-504 1511,-504 1511,-468 1641,-468 1641,-504"/>
<text text-anchor="middle" x="1576" y="-483.1" font-family="Courier,monospace" font-size="11.00">AllHttpSourceTest</text>
</g>
<!-- \\PHPUnit_Framework_TestSuite -->
<g id="node67" class="node"><title>\\PHPUnit_Framework_TestSuite</title>
<ellipse fill="none" stroke="black" cx="1193" cy="-72" rx="166.877" ry="18.3848"/>
<text text-anchor="middle" x="1193" y="-68.4" font-family="Times Roman,serif" font-size="14.00" fill="gray">\PHPUnit_Framework_TestSuite</text>
</g>
<!-- \\AllHttpSourceTest&#45;&gt;\\PHPUnit_Framework_TestSuite -->
<g id="edge19" class="edge"><title>\\AllHttpSourceTest&#45;&gt;\\PHPUnit_Framework_TestSuite</title>
<path fill="none" stroke="black" d="M1510.17,-489.018C1482.63,-486.761 1452.36,-479.112 1432,-459 1315.93,-344.319 1477.5,-212.217 1360,-99 1355.03,-94.2079 1349.56,-90.0683 1343.73,-86.5018"/>
<polygon fill="none" stroke="black" points="1345.39,-83.422 1334.94,-81.6774 1342.02,-89.5581 1345.39,-83.422"/>
</g>
<!-- \\HttpSourceFieldTest -->
<g id="node12" class="node"><title>\\HttpSourceFieldTest</title>
<polygon fill="none" stroke="black" points="1648,-1152 1504,-1152 1504,-1116 1648,-1116 1648,-1152"/>
<text text-anchor="middle" x="1576" y="-1131.1" font-family="Courier,monospace" font-size="11.00">HttpSourceFieldTest</text>
</g>
<!-- \\HttpSourceFieldTest&#45;&gt;\\CakeTestCase -->
<g id="edge21" class="edge"><title>\\HttpSourceFieldTest&#45;&gt;\\CakeTestCase</title>
<path fill="none" stroke="black" d="M1503.4,-1137.67C1477.24,-1135.01 1449.82,-1126.89 1432,-1107 1290.16,-948.629 1503.81,-309.582 1360,-153 1339.47,-130.651 1308.31,-121.944 1278.45,-119.508"/>
<polygon fill="none" stroke="black" points="1278.57,-116.009 1268.38,-118.911 1278.16,-122.997 1278.57,-116.009"/>
</g>
<!-- \\HttpSourceConfigTest -->
<g id="node13" class="node"><title>\\HttpSourceConfigTest</title>
<polygon fill="none" stroke="black" points="1652,-1098 1500,-1098 1500,-1062 1652,-1062 1652,-1098"/>
<text text-anchor="middle" x="1576" y="-1077.1" font-family="Courier,monospace" font-size="11.00">HttpSourceConfigTest</text>
</g>
<!-- \\HttpSourceConfigTest&#45;&gt;\\CakeTestCase -->
<g id="edge23" class="edge"><title>\\HttpSourceConfigTest&#45;&gt;\\CakeTestCase</title>
<path fill="none" stroke="black" d="M1499.7,-1083.21C1474.71,-1080.17 1449.01,-1071.91 1432,-1053 1297.81,-903.843 1496.05,-300.464 1360,-153 1339.51,-130.794 1308.52,-122.075 1278.78,-119.589"/>
<polygon fill="none" stroke="black" points="1278.96,-116.093 1268.76,-118.975 1278.53,-123.08 1278.96,-116.093"/>
</g>
<!-- \\HttpSourceEndpointTest -->
<g id="node14" class="node"><title>\\HttpSourceEndpointTest</title>
<polygon fill="none" stroke="black" points="1658,-1044 1494,-1044 1494,-1008 1658,-1008 1658,-1044"/>
<text text-anchor="middle" x="1576" y="-1023.1" font-family="Courier,monospace" font-size="11.00">HttpSourceEndpointTest</text>
</g>
<!-- \\HttpSourceEndpointTest&#45;&gt;\\CakeTestCase -->
<g id="edge25" class="edge"><title>\\HttpSourceEndpointTest&#45;&gt;\\CakeTestCase</title>
<path fill="none" stroke="black" d="M1493.37,-1028.27C1470.46,-1024.63 1447.61,-1016.26 1432,-999 1305.45,-859.054 1488.29,-291.35 1360,-153 1339.46,-130.846 1308.46,-122.137 1278.72,-119.645"/>
<polygon fill="none" stroke="black" points="1278.9,-116.149 1268.7,-119.028 1278.47,-123.136 1278.9,-116.149"/>
</g>
<!-- \\HttpSourceResultTest -->
<g id="node15" class="node"><title>\\HttpSourceResultTest</title>
<polygon fill="none" stroke="black" points="1652,-990 1500,-990 1500,-954 1652,-954 1652,-990"/>
<text text-anchor="middle" x="1576" y="-969.1" font-family="Courier,monospace" font-size="11.00">HttpSourceResultTest</text>
</g>
<!-- \\HttpSourceResultTest&#45;&gt;\\CakeTestCase -->
<g id="edge27" class="edge"><title>\\HttpSourceResultTest&#45;&gt;\\CakeTestCase</title>
<path fill="none" stroke="black" d="M1499.82,-975.103C1474.83,-972.053 1449.11,-963.817 1432,-945 1313.09,-814.262 1480.54,-282.238 1360,-153 1339.57,-131.098 1308.92,-122.361 1279.43,-119.775"/>
<polygon fill="none" stroke="black" points="1279.27,-116.258 1269.07,-119.106 1278.82,-123.243 1279.27,-116.258"/>
</g>
<!-- \\HttpSourceConditionTest -->
<g id="node16" class="node"><title>\\HttpSourceConditionTest</title>
<polygon fill="none" stroke="black" points="1662,-936 1490,-936 1490,-900 1662,-900 1662,-936"/>
<text text-anchor="middle" x="1576" y="-915.1" font-family="Courier,monospace" font-size="11.00">HttpSourceConditionTest</text>
</g>
<!-- \\HttpSourceConditionTest&#45;&gt;\\CakeTestCase -->
<g id="edge29" class="edge"><title>\\HttpSourceConditionTest&#45;&gt;\\CakeTestCase</title>
<path fill="none" stroke="black" d="M1489.75,-919.507C1468.12,-915.572 1446.86,-907.228 1432,-891 1320.73,-769.466 1472.79,-273.13 1360,-153 1339.5,-131.165 1308.83,-122.442 1279.35,-119.849"/>
<polygon fill="none" stroke="black" points="1279.2,-116.331 1268.99,-119.176 1278.74,-123.317 1279.2,-116.331"/>
</g>
<!-- \\HttpSourceEndpointItemTest -->
<g id="node17" class="node"><title>\\HttpSourceEndpointItemTest</title>
<polygon fill="none" stroke="black" points="1672,-882 1480,-882 1480,-846 1672,-846 1672,-882"/>
<text text-anchor="middle" x="1576" y="-861.1" font-family="Courier,monospace" font-size="11.00">HttpSourceEndpointItemTest</text>
</g>
<!-- \\HttpSourceEndpointItemTest&#45;&gt;\\CakeTestCase -->
<g id="edge31" class="edge"><title>\\HttpSourceEndpointItemTest&#45;&gt;\\CakeTestCase</title>
<path fill="none" stroke="black" d="M1479.75,-863.255C1461.71,-858.707 1444.59,-850.647 1432,-837 1224.72,-612.332 1570.08,-375.053 1360,-153 1339.51,-131.339 1309,-122.613 1279.65,-119.968"/>
<polygon fill="none" stroke="black" points="1279.54,-116.453 1269.33,-119.275 1279.08,-123.438 1279.54,-116.453"/>
</g>
<!-- \\HttpSourceEndpointItemiAmExistsANDValid -->
<g id="node18" class="node"><title>\\HttpSourceEndpointItemiAmExistsANDValid</title>
<polygon fill="none" stroke="black" points="954,-1881 674,-1881 674,-1845 954,-1845 954,-1881"/>
<text text-anchor="middle" x="814" y="-1860.1" font-family="Courier,monospace" font-size="11.00">HttpSourceEndpointItemiAmExistsANDValid</text>
</g>
<!-- \\HttpSourceEndpointItem -->
<g id="node39" class="node"><title>\\HttpSourceEndpointItem</title>
<polygon fill="none" stroke="black" points="528,-1989 362,-1989 362,-1953 528,-1953 528,-1989"/>
<text text-anchor="start" x="411" y="-1976.43" font-family="Courier,monospace" font-size="11.00">«abstract»</text>
<text text-anchor="start" x="370.5" y="-1963.23" font-family="Courier,monospace" font-size="11.00">HttpSourceEndpointItem</text>
</g>
<!-- \\HttpSourceEndpointItemiAmExistsANDValid&#45;&gt;\\HttpSourceEndpointItem -->
<g id="edge33" class="edge"><title>\\HttpSourceEndpointItemiAmExistsANDValid&#45;&gt;\\HttpSourceEndpointItem</title>
<path fill="none" stroke="black" d="M698.113,-1881.01C689.815,-1883.61 681.695,-1886.59 674,-1890 637.428,-1906.2 638.734,-1928.17 602,-1944 582.157,-1952.55 559.802,-1958.4 538.318,-1962.39"/>
<polygon fill="none" stroke="black" points="537.441,-1958.99 528.19,-1964.16 538.642,-1965.89 537.441,-1958.99"/>
</g>
<!-- \\HttpSourceConfigFactoryTest -->
<g id="node19" class="node"><title>\\HttpSourceConfigFactoryTest</title>
<polygon fill="none" stroke="black" points="1675,-828 1477,-828 1477,-792 1675,-792 1675,-828"/>
<text text-anchor="middle" x="1576" y="-807.1" font-family="Courier,monospace" font-size="11.00">HttpSourceConfigFactoryTest</text>
</g>
<!-- \\HttpSourceConfigFactoryTest&#45;&gt;\\CakeTestCase -->
<g id="edge35" class="edge"><title>\\HttpSourceConfigFactoryTest&#45;&gt;\\CakeTestCase</title>
<path fill="none" stroke="black" d="M1476.15,-808.186C1459.47,-803.499 1443.78,-795.66 1432,-783 1239.98,-576.721 1554.59,-356.857 1360,-153 1339.5,-131.526 1309.15,-122.8 1279.93,-120.104"/>
<polygon fill="none" stroke="black" points="1279.88,-116.592 1269.66,-119.39 1279.39,-123.575 1279.88,-116.592"/>
</g>
<!-- \\HttpSourceConfigFactoryiAmExists -->
<g id="node20" class="node"><title>\\HttpSourceConfigFactoryiAmExists</title>
<polygon fill="none" stroke="black" points="1692,-1260 1460,-1260 1460,-1224 1692,-1224 1692,-1260"/>
<text text-anchor="middle" x="1576" y="-1239.1" font-family="Courier,monospace" font-size="11.00">HttpSourceConfigFactoryiAmExists</text>
</g>
<!-- \\HttpSourceConfigFactoryiAmExistsANDValid -->
<g id="node21" class="node"><title>\\HttpSourceConfigFactoryiAmExistsANDValid</title>
<polygon fill="none" stroke="black" points="1719,-2124 1433,-2124 1433,-2088 1719,-2088 1719,-2124"/>
<text text-anchor="middle" x="1576" y="-2103.1" font-family="Courier,monospace" font-size="11.00">HttpSourceConfigFactoryiAmExistsANDValid</text>
</g>
<!-- \\HttpSourceConfigFactory -->
<g id="node44" class="node"><title>\\HttpSourceConfigFactory</title>
<polygon fill="none" stroke="black" points="1279,-2124 1107,-2124 1107,-2088 1279,-2088 1279,-2124"/>
<text text-anchor="middle" x="1193" y="-2103.1" font-family="Courier,monospace" font-size="11.00">HttpSourceConfigFactory</text>
</g>
<!-- \\HttpSourceConfigFactoryiAmExistsANDValid&#45;&gt;\\HttpSourceConfigFactory -->
<g id="edge37" class="edge"><title>\\HttpSourceConfigFactoryiAmExistsANDValid&#45;&gt;\\HttpSourceConfigFactory</title>
<path fill="none" stroke="black" d="M1432.3,-2106C1384.54,-2106 1332.56,-2106 1289.28,-2106"/>
<polygon fill="none" stroke="black" points="1289.04,-2102.5 1279.04,-2106 1289.04,-2109.5 1289.04,-2102.5"/>
</g>
<!-- \\HttpSourceConfigiAmExistsANDValid -->
<g id="node22" class="node"><title>\\HttpSourceConfigiAmExistsANDValid</title>
<polygon fill="none" stroke="black" points="933,-2097 695,-2097 695,-2061 933,-2061 933,-2097"/>
<text text-anchor="middle" x="814" y="-2076.1" font-family="Courier,monospace" font-size="11.00">HttpSourceConfigiAmExistsANDValid</text>
</g>
<!-- \\HttpSourceConfig -->
<g id="node45" class="node"><title>\\HttpSourceConfig</title>
<polygon fill="none" stroke="black" points="507,-2097 383,-2097 383,-2061 507,-2061 507,-2097"/>
<text text-anchor="middle" x="445" y="-2076.1" font-family="Courier,monospace" font-size="11.00">HttpSourceConfig</text>
</g>
<!-- \\HttpSourceConfigiAmExistsANDValid&#45;&gt;\\HttpSourceConfig -->
<g id="edge39" class="edge"><title>\\HttpSourceConfigiAmExistsANDValid&#45;&gt;\\HttpSourceConfig</title>
<path fill="none" stroke="black" d="M694.451,-2079C636.257,-2079 568.18,-2079 517.859,-2079"/>
<polygon fill="none" stroke="black" points="517.721,-2075.5 507.721,-2079 517.721,-2082.5 517.721,-2075.5"/>
</g>
<!-- \\HttpSourceEndpointiAmExistsANDValid -->
<g id="node23" class="node"><title>\\HttpSourceEndpointiAmExistsANDValid</title>
<polygon fill="none" stroke="black" points="940,-2043 688,-2043 688,-2007 940,-2007 940,-2043"/>
<text text-anchor="middle" x="814" y="-2022.1" font-family="Courier,monospace" font-size="11.00">HttpSourceEndpointiAmExistsANDValid</text>
</g>
<!-- \\HttpSourceEndpoint -->
<g id="node43" class="node"><title>\\HttpSourceEndpoint</title>
<polygon fill="none" stroke="black" points="514,-2043 376,-2043 376,-2007 514,-2007 514,-2043"/>
<text text-anchor="middle" x="445" y="-2022.1" font-family="Courier,monospace" font-size="11.00">HttpSourceEndpoint</text>
</g>
<!-- \\HttpSourceEndpointiAmExistsANDValid&#45;&gt;\\HttpSourceEndpoint -->
<g id="edge41" class="edge"><title>\\HttpSourceEndpointiAmExistsANDValid&#45;&gt;\\HttpSourceEndpoint</title>
<path fill="none" stroke="black" d="M687.269,-2025C633.255,-2025 571.894,-2025 524.44,-2025"/>
<polygon fill="none" stroke="black" points="524.228,-2021.5 514.228,-2025 524.228,-2028.5 524.228,-2021.5"/>
</g>
<!-- \\HttpSourceConditioniAmExistsANDValid -->
<g id="node24" class="node"><title>\\HttpSourceConditioniAmExistsANDValid</title>
<polygon fill="none" stroke="black" points="1706,-2016 1446,-2016 1446,-1980 1706,-1980 1706,-2016"/>
<text text-anchor="middle" x="1576" y="-1995.1" font-family="Courier,monospace" font-size="11.00">HttpSourceConditioniAmExistsANDValid</text>
</g>
<!-- \\HttpSourceCondition -->
<g id="node42" class="node"><title>\\HttpSourceCondition</title>
<polygon fill="none" stroke="black" points="1265,-2043 1121,-2043 1121,-2007 1265,-2007 1265,-2043"/>
<text text-anchor="middle" x="1193" y="-2022.1" font-family="Courier,monospace" font-size="11.00">HttpSourceCondition</text>
</g>
<!-- \\HttpSourceConditioniAmExistsANDValid&#45;&gt;\\HttpSourceCondition -->
<g id="edge43" class="edge"><title>\\HttpSourceConditioniAmExistsANDValid&#45;&gt;\\HttpSourceCondition</title>
<path fill="none" stroke="black" d="M1445.8,-2007.18C1389.5,-2011.15 1325.3,-2015.67 1275.68,-2019.17"/>
<polygon fill="none" stroke="black" points="1275.37,-2015.68 1265.64,-2019.88 1275.86,-2022.67 1275.37,-2015.68"/>
</g>
<!-- \\HttpSourceFieldiAmExistsANDValid -->
<g id="node25" class="node"><title>\\HttpSourceFieldiAmExistsANDValid</title>
<polygon fill="none" stroke="black" points="1309,-1989 1077,-1989 1077,-1953 1309,-1953 1309,-1989"/>
<text text-anchor="middle" x="1193" y="-1968.1" font-family="Courier,monospace" font-size="11.00">HttpSourceFieldiAmExistsANDValid</text>
</g>
<!-- \\HttpSourceField -->
<g id="node46" class="node"><title>\\HttpSourceField</title>
<polygon fill="none" stroke="black" points="873,-1989 755,-1989 755,-1953 873,-1953 873,-1989"/>
<text text-anchor="middle" x="814" y="-1968.1" font-family="Courier,monospace" font-size="11.00">HttpSourceField</text>
</g>
<!-- \\HttpSourceFieldiAmExistsANDValid&#45;&gt;\\HttpSourceField -->
<g id="edge45" class="edge"><title>\\HttpSourceFieldiAmExistsANDValid&#45;&gt;\\HttpSourceField</title>
<path fill="none" stroke="black" d="M1076.45,-1971C1013.2,-1971 937.147,-1971 883.231,-1971"/>
<polygon fill="none" stroke="black" points="883.092,-1967.5 873.092,-1971 883.092,-1974.5 883.092,-1967.5"/>
</g>
<!-- \\HttpSourceResultiAmExistsANDValid -->
<g id="node26" class="node"><title>\\HttpSourceResultiAmExistsANDValid</title>
<polygon fill="none" stroke="black" points="1312,-1935 1074,-1935 1074,-1899 1312,-1899 1312,-1935"/>
<text text-anchor="middle" x="1193" y="-1914.1" font-family="Courier,monospace" font-size="11.00">HttpSourceResultiAmExistsANDValid</text>
</g>
<!-- \\HttpSourceResult -->
<g id="node41" class="node"><title>\\HttpSourceResult</title>
<polygon fill="none" stroke="black" points="876,-1935 752,-1935 752,-1899 876,-1899 876,-1935"/>
<text text-anchor="middle" x="814" y="-1914.1" font-family="Courier,monospace" font-size="11.00">HttpSourceResult</text>
</g>
<!-- \\HttpSourceResultiAmExistsANDValid&#45;&gt;\\HttpSourceResult -->
<g id="edge47" class="edge"><title>\\HttpSourceResultiAmExistsANDValid&#45;&gt;\\HttpSourceResult</title>
<path fill="none" stroke="black" d="M1073.34,-1917C1012.13,-1917 939.613,-1917 886.846,-1917"/>
<polygon fill="none" stroke="black" points="886.566,-1913.5 876.565,-1917 886.565,-1920.5 886.566,-1913.5"/>
</g>
<!-- \\HttpSourceConfigFactoryItemTest -->
<g id="node27" class="node"><title>\\HttpSourceConfigFactoryItemTest</title>
<polygon fill="none" stroke="black" points="1689,-666 1463,-666 1463,-630 1689,-630 1689,-666"/>
<text text-anchor="middle" x="1576" y="-645.1" font-family="Courier,monospace" font-size="11.00">HttpSourceConfigFactoryItemTest</text>
</g>
<!-- \\HttpSourceConfigFactoryItemTest&#45;&gt;\\CakeTestCase -->
<g id="edge49" class="edge"><title>\\HttpSourceConfigFactoryItemTest&#45;&gt;\\CakeTestCase</title>
<path fill="none" stroke="black" d="M1462.81,-641.156C1451.29,-636.473 1440.67,-629.956 1432,-621 1285.64,-469.778 1508.24,-302.376 1360,-153 1339.27,-132.114 1309.19,-123.441 1280.25,-120.62"/>
<polygon fill="none" stroke="black" points="1280.32,-117.115 1270.08,-119.856 1279.79,-124.095 1280.32,-117.115"/>
</g>
<!-- \\HttpSourceConfigFactoryItemiAmExistsANDValid -->
<g id="node28" class="node"><title>\\HttpSourceConfigFactoryItemiAmExistsANDValid</title>
<polygon fill="none" stroke="black" points="602,-1935 288,-1935 288,-1899 602,-1899 602,-1935"/>
<text text-anchor="middle" x="445" y="-1914.1" font-family="Courier,monospace" font-size="11.00">HttpSourceConfigFactoryItemiAmExistsANDValid</text>
</g>
<!-- \\HttpSourceConfigFactoryItem -->
<g id="node40" class="node"><title>\\HttpSourceConfigFactoryItem</title>
<polygon fill="none" stroke="black" points="216,-2016 16,-2016 16,-1980 216,-1980 216,-2016"/>
<text text-anchor="start" x="82" y="-2003.43" font-family="Courier,monospace" font-size="11.00">«abstract»</text>
<text text-anchor="start" x="24.5" y="-1990.23" font-family="Courier,monospace" font-size="11.00">HttpSourceConfigFactoryItem</text>
</g>
<!-- \\HttpSourceConfigFactoryItemiAmExistsANDValid&#45;&gt;\\HttpSourceConfigFactoryItem -->
<g id="edge51" class="edge"><title>\\HttpSourceConfigFactoryItemiAmExistsANDValid&#45;&gt;\\HttpSourceConfigFactoryItem</title>
<path fill="none" stroke="black" d="M329.315,-1935.08C315.337,-1937.8 301.307,-1940.78 288,-1944 250.643,-1953.03 209.55,-1965.83 176.899,-1976.69"/>
<polygon fill="none" stroke="black" points="175.418,-1973.5 167.051,-1980 177.645,-1980.13 175.418,-1973.5"/>
</g>
<!-- \\HttpSourceBasicsTest -->
<g id="node29" class="node"><title>\\HttpSourceBasicsTest</title>
<polygon fill="none" stroke="black" points="1652,-1908 1500,-1908 1500,-1872 1652,-1872 1652,-1908"/>
<text text-anchor="middle" x="1576" y="-1887.1" font-family="Courier,monospace" font-size="11.00">HttpSourceBasicsTest</text>
</g>
<!-- \\HttpSourceBasicsTest&#45;&gt;\\HttpSourceAppTest -->
<g id="edge53" class="edge"><title>\\HttpSourceBasicsTest&#45;&gt;\\HttpSourceAppTest</title>
<path fill="none" stroke="black" d="M1499.87,-1884.63C1432.95,-1879.92 1336.07,-1873.09 1269.14,-1868.37"/>
<polygon fill="none" stroke="black" points="1269.3,-1864.87 1259.08,-1867.66 1268.81,-1871.85 1269.3,-1864.87"/>
</g>
<!-- \\HttpSourceToDboAssociationTest -->
<g id="node30" class="node"><title>\\HttpSourceToDboAssociationTest</title>
<polygon fill="none" stroke="black" points="1685,-1962 1467,-1962 1467,-1926 1685,-1926 1685,-1962"/>
<text text-anchor="middle" x="1576" y="-1941.1" font-family="Courier,monospace" font-size="11.00">HttpSourceToDboAssociationTest</text>
</g>
<!-- \\HttpSourceToDboAssociationTest&#45;&gt;\\HttpSourceAppTest -->
<g id="edge55" class="edge"><title>\\HttpSourceToDboAssociationTest&#45;&gt;\\HttpSourceAppTest</title>
<path fill="none" stroke="black" d="M1468.58,-1925.99C1456.17,-1923.28 1443.76,-1920.28 1432,-1917 1399.08,-1907.82 1393.03,-1898.77 1360,-1890 1330.67,-1882.21 1297.82,-1876.31 1269.06,-1872.05"/>
<polygon fill="none" stroke="black" points="1269.46,-1868.57 1259.07,-1870.6 1268.46,-1875.5 1269.46,-1868.57"/>
</g>
<!-- \\HttpSourceModelTest -->
<g id="node31" class="node"><title>\\HttpSourceModelTest</title>
<polygon fill="none" stroke="black" points="1648,-612 1504,-612 1504,-576 1648,-576 1648,-612"/>
<text text-anchor="middle" x="1576" y="-591.1" font-family="Courier,monospace" font-size="11.00">HttpSourceModelTest</text>
</g>
<!-- \\HttpSourceModelTest&#45;&gt;\\CakeTestCase -->
<g id="edge57" class="edge"><title>\\HttpSourceModelTest&#45;&gt;\\CakeTestCase</title>
<path fill="none" stroke="black" d="M1503.27,-596.619C1477.57,-593.737 1450.49,-585.737 1432,-567 1300.81,-434.074 1492.84,-284.272 1360,-153 1339.26,-132.502 1309.48,-123.844 1280.8,-120.923"/>
<polygon fill="none" stroke="black" points="1280.97,-117.426 1270.72,-120.12 1280.41,-124.403 1280.97,-117.426"/>
</g>
<!-- \\HttpSourceTestModel -->
<g id="node32" class="node"><title>\\HttpSourceTestModel</title>
<polygon fill="none" stroke="black" points="1648,-1692 1504,-1692 1504,-1656 1648,-1656 1648,-1692"/>
<text text-anchor="middle" x="1576" y="-1671.1" font-family="Courier,monospace" font-size="11.00">HttpSourceTestModel</text>
</g>
<!-- \\HttpSourceTestModel&#45;&gt;\\HttpSourceModel -->
<g id="edge59" class="edge"><title>\\HttpSourceTestModel&#45;&gt;\\HttpSourceModel</title>
<path fill="none" stroke="black" d="M1503.38,-1660.92C1480.5,-1656.66 1455.17,-1651.79 1432,-1647 1374.63,-1635.15 1309.83,-1620.42 1262.19,-1609.34"/>
<polygon fill="none" stroke="black" points="1262.82,-1605.9 1252.29,-1607.04 1261.24,-1612.71 1262.82,-1605.9"/>
</g>
<!-- \\HttpSourceConnectionTest -->
<g id="node33" class="node"><title>\\HttpSourceConnectionTest</title>
<polygon fill="none" stroke="black" points="1665,-774 1487,-774 1487,-738 1665,-738 1665,-774"/>
<text text-anchor="middle" x="1576" y="-753.1" font-family="Courier,monospace" font-size="11.00">HttpSourceConnectionTest</text>
</g>
<!-- \\HttpSourceConnectionTest&#45;&gt;\\CakeTestCase -->
<g id="edge61" class="edge"><title>\\HttpSourceConnectionTest&#45;&gt;\\CakeTestCase</title>
<path fill="none" stroke="black" d="M1486.29,-756.513C1465.96,-752.32 1446.2,-744.099 1432,-729 1255.22,-541.094 1539.12,-338.676 1360,-153 1339.39,-131.634 1309.02,-122.931 1279.81,-120.223"/>
<polygon fill="none" stroke="black" points="1279.76,-116.711 1269.54,-119.504 1279.27,-123.694 1279.76,-116.711"/>
</g>
<!-- \\HttpSourceTest -->
<g id="node34" class="node"><title>\\HttpSourceTest</title>
<polygon fill="none" stroke="black" points="1631,-720 1521,-720 1521,-684 1631,-684 1631,-720"/>
<text text-anchor="middle" x="1576" y="-699.1" font-family="Courier,monospace" font-size="11.00">HttpSourceTest</text>
</g>
<!-- \\HttpSourceTest&#45;&gt;\\CakeTestCase -->
<g id="edge63" class="edge"><title>\\HttpSourceTest&#45;&gt;\\CakeTestCase</title>
<path fill="none" stroke="black" d="M1520.49,-706.168C1490.18,-705.268 1454.37,-698.479 1432,-675 1270.44,-505.449 1523.67,-320.514 1360,-153 1339.34,-131.86 1309.12,-123.168 1280.05,-120.404"/>
<polygon fill="none" stroke="black" points="1280.05,-116.895 1269.83,-119.663 1279.55,-123.877 1280.05,-116.895"/>
</g>
<!-- \\HttpTestSource -->
<g id="node35" class="node"><title>\\HttpTestSource</title>
<polygon fill="none" stroke="black" points="1631,-1800 1521,-1800 1521,-1764 1631,-1764 1631,-1800"/>
<text text-anchor="middle" x="1576" y="-1779.1" font-family="Courier,monospace" font-size="11.00">HttpTestSource</text>
</g>
<!-- \\HttpSource -->
<g id="node50" class="node"><title>\\HttpSource</title>
<polygon fill="none" stroke="black" points="1235,-1800 1151,-1800 1151,-1764 1235,-1764 1235,-1800"/>
<text text-anchor="start" x="1159" y="-1787.43" font-family="Courier,monospace" font-size="11.00">«abstract»</text>
<text text-anchor="start" x="1159" y="-1774.23" font-family="Courier,monospace" font-size="11.00">HttpSource</text>
</g>
<!-- \\HttpTestSource&#45;&gt;\\HttpSource -->
<g id="edge65" class="edge"><title>\\HttpTestSource&#45;&gt;\\HttpSource</title>
<path fill="none" stroke="black" d="M1520.31,-1782C1446.75,-1782 1318.1,-1782 1245.95,-1782"/>
<polygon fill="none" stroke="black" points="1245.72,-1778.5 1235.72,-1782 1245.72,-1785.5 1245.72,-1778.5"/>
</g>
<!-- \\TestHttpSourceModel -->
<g id="node36" class="node"><title>\\TestHttpSourceModel</title>
<polygon fill="none" stroke="black" points="1648,-1638 1504,-1638 1504,-1602 1648,-1602 1648,-1638"/>
<text text-anchor="middle" x="1576" y="-1617.1" font-family="Courier,monospace" font-size="11.00">TestHttpSourceModel</text>
</g>
<!-- \\TestHttpSourceModel&#45;&gt;\\HttpSourceModel -->
<g id="edge67" class="edge"><title>\\TestHttpSourceModel&#45;&gt;\\HttpSourceModel</title>
<path fill="none" stroke="black" d="M1503.06,-1614.86C1433.8,-1609.98 1330.42,-1602.69 1262.37,-1597.89"/>
<polygon fill="none" stroke="black" points="1262.4,-1594.38 1252.18,-1597.17 1261.9,-1601.37 1262.4,-1594.38"/>
</g>
<!-- \\TestHttpSourceConnection -->
<g id="node37" class="node"><title>\\TestHttpSourceConnection</title>
<polygon fill="none" stroke="black" points="1665,-1746 1487,-1746 1487,-1710 1665,-1710 1665,-1746"/>
<text text-anchor="middle" x="1576" y="-1725.1" font-family="Courier,monospace" font-size="11.00">TestHttpSourceConnection</text>
</g>
<!-- \\HttpSourceConnection -->
<g id="node51" class="node"><title>\\HttpSourceConnection</title>
<polygon fill="none" stroke="black" points="1269,-1692 1117,-1692 1117,-1656 1269,-1656 1269,-1692"/>
<text text-anchor="middle" x="1193" y="-1671.1" font-family="Courier,monospace" font-size="11.00">HttpSourceConnection</text>
</g>
<!-- \\TestHttpSourceConnection&#45;&gt;\\HttpSourceConnection -->
<g id="edge69" class="edge"><title>\\TestHttpSourceConnection&#45;&gt;\\HttpSourceConnection</title>
<path fill="none" stroke="black" d="M1486.2,-1715.34C1423.69,-1706.52 1340.79,-1694.84 1279.1,-1686.14"/>
<polygon fill="none" stroke="black" points="1279.39,-1682.65 1269,-1684.72 1278.42,-1689.58 1279.39,-1682.65"/>
</g>
<!-- \\TestHttpSource -->
<g id="node38" class="node"><title>\\TestHttpSource</title>
<polygon fill="none" stroke="black" points="1631,-1854 1521,-1854 1521,-1818 1631,-1818 1631,-1854"/>
<text text-anchor="middle" x="1576" y="-1833.1" font-family="Courier,monospace" font-size="11.00">TestHttpSource</text>
</g>
<!-- \\TestHttpSource&#45;&gt;\\HttpSource -->
<g id="edge71" class="edge"><title>\\TestHttpSource&#45;&gt;\\HttpSource</title>
<path fill="none" stroke="black" d="M1520.31,-1828.15C1446.75,-1817.78 1318.1,-1799.64 1245.95,-1789.46"/>
<polygon fill="none" stroke="black" points="1246.11,-1785.95 1235.72,-1788.02 1245.14,-1792.89 1246.11,-1785.95"/>
</g>
<!-- \\HttpSourceEndpointItem&#45;&gt;\\HttpSourceConfigFactoryItem -->
<g id="edge73" class="edge"><title>\\HttpSourceEndpointItem&#45;&gt;\\HttpSourceConfigFactoryItem</title>
<path fill="none" stroke="black" d="M361.979,-1977.81C320.831,-1981.19 270.583,-1985.31 226.253,-1988.95"/>
<polygon fill="none" stroke="black" points="225.689,-1985.49 216.009,-1989.79 226.262,-1992.46 225.689,-1985.49"/>
</g>
<!-- \\HttpSourceResult&#45;&gt;\\HttpSourceEndpointItem -->
<g id="edge75" class="edge"><title>\\HttpSourceResult&#45;&gt;\\HttpSourceEndpointItem</title>
<path fill="none" stroke="black" d="M751.404,-1926.16C692.926,-1934.72 604.873,-1947.6 538.145,-1957.37"/>
<polygon fill="none" stroke="black" points="537.432,-1953.94 528.044,-1958.85 538.446,-1960.86 537.432,-1953.94"/>
</g>
<!-- \\HttpSourceCondition&#45;&gt;\\HttpSourceField -->
<g id="edge77" class="edge"><title>\\HttpSourceCondition&#45;&gt;\\HttpSourceField</title>
<path fill="none" stroke="black" d="M1120.37,-2014.65C1051.99,-2004.91 950.284,-1990.42 883.08,-1980.84"/>
<polygon fill="none" stroke="black" points="883.406,-1977.35 873.012,-1979.41 882.418,-1984.28 883.406,-1977.35"/>
</g>
<!-- \\HttpSourceEndpoint&#45;&gt;\\HttpSourceConfigFactoryItem -->
<g id="edge79" class="edge"><title>\\HttpSourceEndpoint&#45;&gt;\\HttpSourceConfigFactoryItem</title>
<path fill="none" stroke="black" d="M375.63,-2019.31C332.33,-2015.75 275.632,-2011.1 226.27,-2007.05"/>
<polygon fill="none" stroke="black" points="226.432,-2003.55 216.179,-2006.22 225.859,-2010.53 226.432,-2003.55"/>
</g>
<!-- \\HttpSourceConfig&#45;&gt;\\HttpSourceConfigFactoryItem -->
<g id="edge81" class="edge"><title>\\HttpSourceConfig&#45;&gt;\\HttpSourceConfigFactoryItem</title>
<path fill="none" stroke="black" d="M382.339,-2070.19C353.434,-2065.63 318.78,-2059.44 288,-2052 250.643,-2042.97 209.55,-2030.17 176.899,-2019.31"/>
<polygon fill="none" stroke="black" points="177.645,-2015.87 167.051,-2016 175.418,-2022.5 177.645,-2015.87"/>
</g>
<!-- \\HttpSourceField&#45;&gt;\\HttpSourceEndpointItem -->
<g id="edge83" class="edge"><title>\\HttpSourceField&#45;&gt;\\HttpSourceEndpointItem</title>
<path fill="none" stroke="black" d="M754.714,-1971C696.386,-1971 606.447,-1971 538.488,-1971"/>
<polygon fill="none" stroke="black" points="538.203,-1967.5 528.203,-1971 538.203,-1974.5 538.203,-1967.5"/>
</g>
<!-- \\HttpSourceException -->
<g id="node47" class="node"><title>\\HttpSourceException</title>
<polygon fill="none" stroke="black" points="1648,-396 1504,-396 1504,-360 1648,-360 1648,-396"/>
<text text-anchor="middle" x="1576" y="-375.1" font-family="Courier,monospace" font-size="11.00">HttpSourceException</text>
</g>
<!-- \\CakeException -->
<g id="node101" class="node"><title>\\CakeException</title>
<ellipse fill="none" stroke="black" cx="1193" cy="-18" rx="85.7684" ry="18.3848"/>
<text text-anchor="middle" x="1193" y="-14.4" font-family="Times Roman,serif" font-size="14.00" fill="gray">\CakeException</text>
</g>
<!-- \\HttpSourceException&#45;&gt;\\CakeException -->
<g id="edge85" class="edge"><title>\\HttpSourceException&#45;&gt;\\CakeException</title>
<path fill="none" stroke="black" d="M1570.17,-359.757C1550.83,-302.46 1482.95,-125.171 1360,-45 1339.24,-31.4647 1314.03,-23.9186 1289.55,-19.884"/>
<polygon fill="none" stroke="black" points="1289.89,-16.3964 1279.48,-18.4099 1288.87,-23.3224 1289.89,-16.3964"/>
</g>
<!-- \\HttpSourceConfigException -->
<g id="node48" class="node"><title>\\HttpSourceConfigException</title>
<polygon fill="none" stroke="black" points="1668,-450 1484,-450 1484,-414 1668,-414 1668,-450"/>
<text text-anchor="middle" x="1576" y="-429.1" font-family="Courier,monospace" font-size="11.00">HttpSourceConfigException</text>
</g>
<!-- \\HttpSourceConfigException&#45;&gt;\\CakeException -->
<g id="edge87" class="edge"><title>\\HttpSourceConfigException&#45;&gt;\\CakeException</title>
<path fill="none" stroke="black" d="M1483.31,-430.963C1464.27,-426.589 1445.84,-418.676 1432,-405 1315.93,-290.319 1477.5,-158.217 1360,-45 1340.4,-26.1168 1313.11,-17.3661 1286.27,-13.8869"/>
<polygon fill="none" stroke="black" points="1286.33,-10.374 1276.02,-12.8014 1285.59,-17.3351 1286.33,-10.374"/>
</g>
<!-- \\HttpSourceModel&#45;&gt;\\AppModel -->
<g id="edge89" class="edge"><title>\\HttpSourceModel&#45;&gt;\\AppModel</title>
<path fill="none" stroke="black" d="M1133.91,-1602.34C1097.47,-1604.47 1052.73,-1599.86 1026,-1571 825.49,-1354.48 1147.98,-467.39 954,-245 936.835,-225.32 910.042,-217.275 884.471,-214.618"/>
<polygon fill="none" stroke="black" points="884.621,-211.119 874.378,-213.83 884.076,-218.098 884.621,-211.119"/>
</g>
<!-- \\DataSource -->
<g id="node105" class="node"><title>\\DataSource</title>
<ellipse fill="none" stroke="black" cx="814" cy="-326" rx="72.1249" ry="18.3848"/>
<text text-anchor="middle" x="814" y="-322.4" font-family="Times Roman,serif" font-size="14.00" fill="gray">\DataSource</text>
</g>
<!-- \\HttpSource&#45;&gt;\\DataSource -->
<g id="edge91" class="edge"><title>\\HttpSource&#45;&gt;\\DataSource</title>
<path fill="none" stroke="black" d="M1150.32,-1774.03C1110.82,-1764.19 1054.08,-1743.28 1026,-1701 942.72,-1575.59 1054.85,-459.776 954,-348 938.351,-330.655 915.051,-323.15 891.929,-320.572"/>
<polygon fill="none" stroke="black" points="891.953,-317.062 881.701,-319.735 891.382,-324.039 891.953,-317.062"/>
</g>
<!-- \\Object -->
<g id="node107" class="node"><title>\\Object</title>
<ellipse fill="none" stroke="black" cx="814" cy="-272" rx="45.9619" ry="18.3848"/>
<text text-anchor="middle" x="814" y="-268.4" font-family="Times Roman,serif" font-size="14.00" fill="gray">\Object</text>
</g>
<!-- \\HttpSourceConnection&#45;&gt;\\Object -->
<g id="edge93" class="edge"><title>\\HttpSourceConnection&#45;&gt;\\Object</title>
<path fill="none" stroke="black" d="M1116.71,-1668.25C1083.56,-1661.6 1047.47,-1647.88 1026,-1620 846.621,-1387.08 1147.27,-520.534 954,-299 933.33,-275.307 898.704,-268.478 869.061,-267.612"/>
<polygon fill="none" stroke="black" points="868.84,-264.111 858.815,-267.537 868.788,-271.11 868.84,-264.111"/>
</g>
<!-- \\HttpSourceTestFixture -->
<g id="node52" class="node"><title>\\HttpSourceTestFixture</title>
<polygon fill="none" stroke="black" points="1655,-1314 1497,-1314 1497,-1278 1655,-1278 1655,-1314"/>
<text text-anchor="middle" x="1576" y="-1293.1" font-family="Courier,monospace" font-size="11.00">HttpSourceTestFixture</text>
</g>
<!-- \\HttpSourceTestFixture&#45;&gt;\\CakeTestFixture -->
<g id="edge95" class="edge"><title>\\HttpSourceTestFixture&#45;&gt;\\CakeTestFixture</title>
<path fill="none" stroke="black" d="M1496.99,-1298.95C1472.83,-1295.66 1448.34,-1287.31 1432,-1269 1283.22,-1102.27 1508.45,-433.029 1360,-266 1343.21,-247.105 1318.96,-237.27 1294.13,-232.548"/>
<polygon fill="none" stroke="black" points="1294.66,-229.089 1284.23,-230.929 1293.53,-235.997 1294.66,-229.089"/>
</g>
</g>
</svg>
