<?xml version="1.0" encoding="UTF-8" standalone="no"?>
<!DOCTYPE svg PUBLIC "-//W3C//DTD SVG 1.1//EN"
 "http://www.w3.org/Graphics/SVG/1.1/DTD/svg11.dtd">
<!-- Generated by graphviz version 2.26.3 (20100126.1600)
 -->
<!-- Title: G Pages: 1 -->
<svg width="1744pt" height="2170pt"
 viewBox="0.00 0.00 1744.00 2170.00" xmlns="http://www.w3.org/2000/svg" xmlns:xlink="http://www.w3.org/1999/xlink">
<g id="graph1" class="graph" transform="scale(1 1) rotate(0) translate(4 2166)">
<title>G</title>
<polygon fill="white" stroke="white" points="-4,5 -4,-2166 1741,-2166 1741,5 -4,5"/>
<g id="graph2" class="cluster"><title>cluster_Global</title>
<polyline fill="none" stroke="gray" points="20,-352 1716,-352 "/>
<path fill="none" stroke="gray" d="M1716,-352C1722,-352 1728,-358 1728,-364"/>
<polyline fill="none" stroke="gray" points="1728,-364 1728,-2142 "/>
<path fill="none" stroke="gray" d="M1728,-2142C1728,-2148 1722,-2154 1716,-2154"/>
<polyline fill="none" stroke="gray" points="1716,-2154 20,-2154 "/>
<path fill="none" stroke="gray" d="M20,-2154C14,-2154 8,-2148 8,-2142"/>
<polyline fill="none" stroke="gray" points="8,-2142 8,-364 "/>
<path fill="none" stroke="gray" d="M8,-364C8,-358 14,-352 20,-352"/>
<text text-anchor="middle" x="868" y="-2140.1" font-family="Times Roman,serif" font-size="11.00" fill="gray">Global</text>
</g>
<!-- \\TestHttpSource -->
<g id="node2" class="node"><title>\\TestHttpSource</title>
<polygon fill="none" stroke="black" points="1631,-1962 1521,-1962 1521,-1926 1631,-1926 1631,-1962"/>
<text text-anchor="middle" x="1576" y="-1941.1" font-family="Courier,monospace" font-size="11.00">TestHttpSource</text>
</g>
<!-- \\HttpSource -->
<g id="node50" class="node"><title>\\HttpSource</title>
<polygon fill="none" stroke="black" points="1235,-1908 1151,-1908 1151,-1872 1235,-1872 1235,-1908"/>
<text text-anchor="start" x="1159" y="-1895.43" font-family="Courier,monospace" font-size="11.00">«abstract»</text>
<text text-anchor="start" x="1159" y="-1882.23" font-family="Courier,monospace" font-size="11.00">HttpSource</text>
</g>
<!-- \\TestHttpSource&#45;&gt;\\HttpSource -->
<g id="edge3" class="edge"><title>\\TestHttpSource&#45;&gt;\\HttpSource</title>
<path fill="none" stroke="black" d="M1520.31,-1936.15C1446.75,-1925.78 1318.1,-1907.64 1245.95,-1897.46"/>
<polygon fill="none" stroke="black" points="1246.11,-1893.95 1235.72,-1896.02 1245.14,-1900.89 1246.11,-1893.95"/>
</g>
<!-- \\TestHttpSourceConnection -->
<g id="node3" class="node"><title>\\TestHttpSourceConnection</title>
<polygon fill="none" stroke="black" points="1665,-1908 1487,-1908 1487,-1872 1665,-1872 1665,-1908"/>
<text text-anchor="middle" x="1576" y="-1887.1" font-family="Courier,monospace" font-size="11.00">TestHttpSourceConnection</text>
</g>
<!-- \\HttpSourceConnection -->
<g id="node51" class="node"><title>\\HttpSourceConnection</title>
<polygon fill="none" stroke="black" points="1269,-1854 1117,-1854 1117,-1818 1269,-1818 1269,-1854"/>
<text text-anchor="middle" x="1193" y="-1833.1" font-family="Courier,monospace" font-size="11.00">HttpSourceConnection</text>
</g>
<!-- \\TestHttpSourceConnection&#45;&gt;\\HttpSourceConnection -->
<g id="edge5" class="edge"><title>\\TestHttpSourceConnection&#45;&gt;\\HttpSourceConnection</title>
<path fill="none" stroke="black" d="M1486.2,-1877.34C1423.69,-1868.52 1340.79,-1856.84 1279.1,-1848.14"/>
<polygon fill="none" stroke="black" points="1279.39,-1844.65 1269,-1846.72 1278.42,-1851.58 1279.39,-1844.65"/>
</g>
<!-- \\TestHttpSourceModel -->
<g id="node4" class="node"><title>\\TestHttpSourceModel</title>
<polygon fill="none" stroke="black" points="1648,-1692 1504,-1692 1504,-1656 1648,-1656 1648,-1692"/>
<text text-anchor="middle" x="1576" y="-1671.1" font-family="Courier,monospace" font-size="11.00">TestHttpSourceModel</text>
</g>
<!-- \\HttpSourceModel -->
<g id="node52" class="node"><title>\\HttpSourceModel</title>
<polygon fill="none" stroke="black" points="1252,-1665 1134,-1665 1134,-1629 1252,-1629 1252,-1665"/>
<text text-anchor="middle" x="1193" y="-1644.1" font-family="Courier,monospace" font-size="11.00">HttpSourceModel</text>
</g>
<!-- \\TestHttpSourceModel&#45;&gt;\\HttpSourceModel -->
<g id="edge7" class="edge"><title>\\TestHttpSourceModel&#45;&gt;\\HttpSourceModel</title>
<path fill="none" stroke="black" d="M1503.06,-1668.86C1433.8,-1663.98 1330.42,-1656.69 1262.37,-1651.89"/>
<polygon fill="none" stroke="black" points="1262.4,-1648.38 1252.18,-1651.17 1261.9,-1655.37 1262.4,-1648.38"/>
</g>
<!-- \\AllHttpSourceTest -->
<g id="node5" class="node"><title>\\AllHttpSourceTest</title>
<polygon fill="none" stroke="black" points="1641,-1584 1511,-1584 1511,-1548 1641,-1548 1641,-1584"/>
<text text-anchor="middle" x="1576" y="-1563.1" font-family="Courier,monospace" font-size="11.00">AllHttpSourceTest</text>
</g>
<!-- \\PHPUnit_Framework_TestSuite -->
<g id="node57" class="node"><title>\\PHPUnit_Framework_TestSuite</title>
<ellipse fill="none" stroke="black" cx="1193" cy="-326" rx="166.877" ry="18.3848"/>
<text text-anchor="middle" x="1193" y="-322.4" font-family="Times Roman,serif" font-size="14.00" fill="gray">\PHPUnit_Framework_TestSuite</text>
</g>
<!-- \\AllHttpSourceTest&#45;&gt;\\PHPUnit_Framework_TestSuite -->
<g id="edge9" class="edge"><title>\\AllHttpSourceTest&#45;&gt;\\PHPUnit_Framework_TestSuite</title>
<path fill="none" stroke="black" d="M1510.31,-1570.39C1482.11,-1568.54 1451.27,-1560.84 1432,-1539 1256.58,-1340.17 1540.76,-541.99 1360,-348 1357.3,-345.102 1354.42,-342.448 1351.38,-340.022"/>
<polygon fill="none" stroke="black" points="1353.19,-337.015 1343,-334.12 1349.16,-342.738 1353.19,-337.015"/>
</g>
<!-- \\HttpSourceUtilityTest -->
<g id="node6" class="node"><title>\\HttpSourceUtilityTest</title>
<polygon fill="none" stroke="black" points="1655,-1422 1497,-1422 1497,-1386 1655,-1386 1655,-1422"/>
<text text-anchor="middle" x="1576" y="-1401.1" font-family="Courier,monospace" font-size="11.00">HttpSourceUtilityTest</text>
</g>
<!-- \\CakeTestCase -->
<g id="node59" class="node"><title>\\CakeTestCase</title>
<ellipse fill="none" stroke="black" cx="1193" cy="-272" rx="82.0244" ry="18.3848"/>
<text text-anchor="middle" x="1193" y="-268.4" font-family="Times Roman,serif" font-size="14.00" fill="gray">\CakeTestCase</text>
</g>
<!-- \\HttpSourceUtilityTest&#45;&gt;\\CakeTestCase -->
<g id="edge11" class="edge"><title>\\HttpSourceUtilityTest&#45;&gt;\\CakeTestCase</title>
<path fill="none" stroke="black" d="M1496.94,-1406.99C1472.77,-1403.71 1448.3,-1395.35 1432,-1377 1272.6,-1197.46 1521.64,-476.525 1360,-299 1339.57,-276.563 1308.43,-267.839 1278.55,-265.413"/>
<polygon fill="none" stroke="black" points="1278.67,-261.914 1268.48,-264.822 1278.26,-268.902 1278.67,-261.914"/>
</g>
<!-- \\HttpSourceControllerTest -->
<g id="node7" class="node"><title>\\HttpSourceControllerTest</title>
<polygon fill="none" stroke="black" points="1665,-828 1487,-828 1487,-792 1665,-792 1665,-828"/>
<text text-anchor="middle" x="1576" y="-807.1" font-family="Courier,monospace" font-size="11.00">HttpSourceControllerTest</text>
</g>
<!-- \\ControllerTestCase -->
<g id="node61" class="node"><title>\\ControllerTestCase</title>
<ellipse fill="none" stroke="black" cx="1193" cy="-218" rx="106.773" ry="18.3848"/>
<text text-anchor="middle" x="1193" y="-214.4" font-family="Times Roman,serif" font-size="14.00" fill="gray">\ControllerTestCase</text>
</g>
<!-- \\HttpSourceControllerTest&#45;&gt;\\ControllerTestCase -->
<g id="edge13" class="edge"><title>\\HttpSourceControllerTest&#45;&gt;\\ControllerTestCase</title>
<path fill="none" stroke="black" d="M1486.38,-810.427C1466.05,-806.236 1446.27,-798.037 1432,-783 1265.93,-608.013 1528.24,-417.893 1360,-245 1346.07,-230.685 1327.75,-222.07 1308.37,-217.138"/>
<polygon fill="none" stroke="black" points="1308.99,-213.69 1298.47,-214.943 1307.47,-220.524 1308.99,-213.69"/>
</g>
<!-- \\HttpSourceEndpointTest -->
<g id="node8" class="node"><title>\\HttpSourceEndpointTest</title>
<polygon fill="none" stroke="black" points="1658,-1314 1494,-1314 1494,-1278 1658,-1278 1658,-1314"/>
<text text-anchor="middle" x="1576" y="-1293.1" font-family="Courier,monospace" font-size="11.00">HttpSourceEndpointTest</text>
</g>
<!-- \\HttpSourceEndpointTest&#45;&gt;\\CakeTestCase -->
<g id="edge15" class="edge"><title>\\HttpSourceEndpointTest&#45;&gt;\\CakeTestCase</title>
<path fill="none" stroke="black" d="M1493.26,-1298.37C1470.34,-1294.74 1447.52,-1286.35 1432,-1269 1287.89,-1107.9 1506.11,-458.283 1360,-299 1339.49,-276.638 1308.33,-267.929 1278.46,-265.494"/>
<polygon fill="none" stroke="black" points="1278.59,-261.996 1268.4,-264.898 1278.17,-268.983 1278.59,-261.996"/>
</g>
<!-- \\HttpSourceConditionTest -->
<g id="node9" class="node"><title>\\HttpSourceConditionTest</title>
<polygon fill="none" stroke="black" points="1662,-1260 1490,-1260 1490,-1224 1662,-1224 1662,-1260"/>
<text text-anchor="middle" x="1576" y="-1239.1" font-family="Courier,monospace" font-size="11.00">HttpSourceConditionTest</text>
</g>
<!-- \\HttpSourceConditionTest&#45;&gt;\\CakeTestCase -->
<g id="edge17" class="edge"><title>\\HttpSourceConditionTest&#45;&gt;\\CakeTestCase</title>
<path fill="none" stroke="black" d="M1489.93,-1243.76C1468.16,-1239.85 1446.79,-1231.46 1432,-1215 1295.54,-1063.11 1498.35,-449.166 1360,-299 1339.53,-276.78 1308.54,-268.058 1278.8,-265.574"/>
<polygon fill="none" stroke="black" points="1278.97,-262.078 1268.78,-264.96 1278.54,-269.065 1278.97,-262.078"/>
</g>
<!-- \\HttpSourceResultTest -->
<g id="node10" class="node"><title>\\HttpSourceResultTest</title>
<polygon fill="none" stroke="black" points="1652,-1206 1500,-1206 1500,-1170 1652,-1170 1652,-1206"/>
<text text-anchor="middle" x="1576" y="-1185.1" font-family="Courier,monospace" font-size="11.00">HttpSourceResultTest</text>
</g>
<!-- \\HttpSourceResultTest&#45;&gt;\\CakeTestCase -->
<g id="edge19" class="edge"><title>\\HttpSourceResultTest&#45;&gt;\\CakeTestCase</title>
<path fill="none" stroke="black" d="M1499.74,-1191.17C1474.75,-1188.13 1449.05,-1179.88 1432,-1161 1303.18,-1018.32 1490.59,-440.05 1360,-299 1339.47,-276.83 1308.48,-268.118 1278.74,-265.628"/>
<polygon fill="none" stroke="black" points="1278.92,-262.132 1268.72,-265.011 1278.49,-269.119 1278.92,-262.132"/>
</g>
<!-- \\HttpSourceConfigFactoryItemTest -->
<g id="node11" class="node"><title>\\HttpSourceConfigFactoryItemTest</title>
<polygon fill="none" stroke="black" points="1689,-1152 1463,-1152 1463,-1116 1689,-1116 1689,-1152"/>
<text text-anchor="middle" x="1576" y="-1131.1" font-family="Courier,monospace" font-size="11.00">HttpSourceConfigFactoryItemTest</text>
</g>
<!-- \\HttpSourceConfigFactoryItemTest&#45;&gt;\\CakeTestCase -->
<g id="edge21" class="edge"><title>\\HttpSourceConfigFactoryItemTest&#45;&gt;\\CakeTestCase</title>
<path fill="none" stroke="black" d="M1462.94,-1127.98C1451.25,-1123.18 1440.55,-1116.42 1432,-1107 1310.83,-973.534 1482.84,-430.937 1360,-299 1339.59,-277.08 1308.94,-268.339 1279.45,-265.755"/>
<polygon fill="none" stroke="black" points="1279.29,-262.238 1269.09,-265.087 1278.84,-269.223 1279.29,-262.238"/>
</g>
<!-- \\HttpSourceConfigFactoryItemiAmExistsANDValid -->
<g id="node12" class="node"><title>\\HttpSourceConfigFactoryItemiAmExistsANDValid</title>
<polygon fill="none" stroke="black" points="602,-2124 288,-2124 288,-2088 602,-2088 602,-2124"/>
<text text-anchor="middle" x="445" y="-2103.1" font-family="Courier,monospace" font-size="11.00">HttpSourceConfigFactoryItemiAmExistsANDValid</text>
</g>
<!-- \\HttpSourceConfigFactoryItem -->
<g id="node47" class="node"><title>\\HttpSourceConfigFactoryItem</title>
<polygon fill="none" stroke="black" points="216,-2043 16,-2043 16,-2007 216,-2007 216,-2043"/>
<text text-anchor="start" x="82" y="-2030.43" font-family="Courier,monospace" font-size="11.00">«abstract»</text>
<text text-anchor="start" x="24.5" y="-2017.23" font-family="Courier,monospace" font-size="11.00">HttpSourceConfigFactoryItem</text>
</g>
<!-- \\HttpSourceConfigFactoryItemiAmExistsANDValid&#45;&gt;\\HttpSourceConfigFactoryItem -->
<g id="edge23" class="edge"><title>\\HttpSourceConfigFactoryItemiAmExistsANDValid&#45;&gt;\\HttpSourceConfigFactoryItem</title>
<path fill="none" stroke="black" d="M329.315,-2087.92C315.337,-2085.2 301.307,-2082.22 288,-2079 250.643,-2069.97 209.55,-2057.17 176.899,-2046.31"/>
<polygon fill="none" stroke="black" points="177.645,-2042.87 167.051,-2043 175.418,-2049.5 177.645,-2042.87"/>
</g>
<!-- \\HttpSourceEndpointItemTest -->
<g id="node13" class="node"><title>\\HttpSourceEndpointItemTest</title>
<polygon fill="none" stroke="black" points="1672,-1098 1480,-1098 1480,-1062 1672,-1062 1672,-1098"/>
<text text-anchor="middle" x="1576" y="-1077.1" font-family="Courier,monospace" font-size="11.00">HttpSourceEndpointItemTest</text>
</g>
<!-- \\HttpSourceEndpointItemTest&#45;&gt;\\CakeTestCase -->
<g id="edge25" class="edge"><title>\\HttpSourceEndpointItemTest&#45;&gt;\\CakeTestCase</title>
<path fill="none" stroke="black" d="M1479.65,-1079.35C1461.62,-1074.79 1444.52,-1066.71 1432,-1053 1318.46,-928.74 1475.08,-421.828 1360,-299 1339.52,-277.144 1308.86,-268.416 1279.38,-265.826"/>
<polygon fill="none" stroke="black" points="1279.22,-262.308 1269.01,-265.154 1278.77,-269.294 1279.22,-262.308"/>
</g>
<!-- \\HttpSourceEndpointItemiAmExistsANDValid -->
<g id="node14" class="node"><title>\\HttpSourceEndpointItemiAmExistsANDValid</title>
<polygon fill="none" stroke="black" points="954,-1908 674,-1908 674,-1872 954,-1872 954,-1908"/>
<text text-anchor="middle" x="814" y="-1887.1" font-family="Courier,monospace" font-size="11.00">HttpSourceEndpointItemiAmExistsANDValid</text>
</g>
<!-- \\HttpSourceEndpointItem -->
<g id="node45" class="node"><title>\\HttpSourceEndpointItem</title>
<polygon fill="none" stroke="black" points="528,-1962 362,-1962 362,-1926 528,-1926 528,-1962"/>
<text text-anchor="start" x="411" y="-1949.43" font-family="Courier,monospace" font-size="11.00">«abstract»</text>
<text text-anchor="start" x="370.5" y="-1936.23" font-family="Courier,monospace" font-size="11.00">HttpSourceEndpointItem</text>
</g>
<!-- \\HttpSourceEndpointItemiAmExistsANDValid&#45;&gt;\\HttpSourceEndpointItem -->
<g id="edge27" class="edge"><title>\\HttpSourceEndpointItemiAmExistsANDValid&#45;&gt;\\HttpSourceEndpointItem</title>
<path fill="none" stroke="black" d="M690.872,-1908.02C641.081,-1915.31 584.561,-1923.58 538.276,-1930.35"/>
<polygon fill="none" stroke="black" points="537.647,-1926.9 528.26,-1931.82 538.661,-1933.83 537.647,-1926.9"/>
</g>
<!-- \\HttpSourceConfigTest -->
<g id="node15" class="node"><title>\\HttpSourceConfigTest</title>
<polygon fill="none" stroke="black" points="1652,-1044 1500,-1044 1500,-1008 1652,-1008 1652,-1044"/>
<text text-anchor="middle" x="1576" y="-1023.1" font-family="Courier,monospace" font-size="11.00">HttpSourceConfigTest</text>
</g>
<!-- \\HttpSourceConfigTest&#45;&gt;\\CakeTestCase -->
<g id="edge29" class="edge"><title>\\HttpSourceConfigTest&#45;&gt;\\CakeTestCase</title>
<path fill="none" stroke="black" d="M1499.94,-1028.99C1474.97,-1025.93 1449.23,-1017.72 1432,-999 1326.1,-883.941 1467.33,-412.723 1360,-299 1339.53,-277.315 1309.03,-268.583 1279.68,-265.942"/>
<polygon fill="none" stroke="black" points="1279.57,-262.427 1269.36,-265.25 1279.1,-269.411 1279.57,-262.427"/>
</g>
<!-- \\HttpSourceFieldTest -->
<g id="node16" class="node"><title>\\HttpSourceFieldTest</title>
<polygon fill="none" stroke="black" points="1648,-990 1504,-990 1504,-954 1648,-954 1648,-990"/>
<text text-anchor="middle" x="1576" y="-969.1" font-family="Courier,monospace" font-size="11.00">HttpSourceFieldTest</text>
</g>
<!-- \\HttpSourceFieldTest&#45;&gt;\\CakeTestCase -->
<g id="edge31" class="edge"><title>\\HttpSourceFieldTest&#45;&gt;\\CakeTestCase</title>
<path fill="none" stroke="black" d="M1503.39,-975.292C1477.4,-972.556 1450.08,-964.481 1432,-945 1235.46,-733.274 1559.18,-508.247 1360,-299 1339.44,-277.402 1308.92,-268.688 1279.58,-266.037"/>
<polygon fill="none" stroke="black" points="1279.48,-262.522 1269.26,-265.34 1279.01,-269.506 1279.48,-262.522"/>
</g>
<!-- \\HttpSourceConfigFactoryTest -->
<g id="node17" class="node"><title>\\HttpSourceConfigFactoryTest</title>
<polygon fill="none" stroke="black" points="1675,-936 1477,-936 1477,-900 1675,-900 1675,-936"/>
<text text-anchor="middle" x="1576" y="-915.1" font-family="Courier,monospace" font-size="11.00">HttpSourceConfigFactoryTest</text>
</g>
<!-- \\HttpSourceConfigFactoryTest&#45;&gt;\\CakeTestCase -->
<g id="edge33" class="edge"><title>\\HttpSourceConfigFactoryTest&#45;&gt;\\CakeTestCase</title>
<path fill="none" stroke="black" d="M1476.22,-916.117C1459.54,-911.437 1443.83,-903.617 1432,-891 1250.7,-697.652 1543.7,-490.061 1360,-299 1339.42,-277.6 1309.06,-268.89 1279.85,-266.185"/>
<polygon fill="none" stroke="black" points="1279.8,-262.673 1269.58,-265.468 1279.31,-269.656 1279.8,-262.673"/>
</g>
<!-- \\HttpSourceConfigFactoryiAmExists -->
<g id="node18" class="node"><title>\\HttpSourceConfigFactoryiAmExists</title>
<polygon fill="none" stroke="black" points="1692,-1368 1460,-1368 1460,-1332 1692,-1332 1692,-1368"/>
<text text-anchor="middle" x="1576" y="-1347.1" font-family="Courier,monospace" font-size="11.00">HttpSourceConfigFactoryiAmExists</text>
</g>
<!-- \\HttpSourceConfigFactoryiAmExistsANDValid -->
<g id="node19" class="node"><title>\\HttpSourceConfigFactoryiAmExistsANDValid</title>
<polygon fill="none" stroke="black" points="1719,-2124 1433,-2124 1433,-2088 1719,-2088 1719,-2124"/>
<text text-anchor="middle" x="1576" y="-2103.1" font-family="Courier,monospace" font-size="11.00">HttpSourceConfigFactoryiAmExistsANDValid</text>
</g>
<!-- \\HttpSourceConfigFactory -->
<g id="node41" class="node"><title>\\HttpSourceConfigFactory</title>
<polygon fill="none" stroke="black" points="1279,-2016 1107,-2016 1107,-1980 1279,-1980 1279,-2016"/>
<text text-anchor="middle" x="1193" y="-1995.1" font-family="Courier,monospace" font-size="11.00">HttpSourceConfigFactory</text>
</g>
<!-- \\HttpSourceConfigFactoryiAmExistsANDValid&#45;&gt;\\HttpSourceConfigFactory -->
<g id="edge35" class="edge"><title>\\HttpSourceConfigFactoryiAmExistsANDValid&#45;&gt;\\HttpSourceConfigFactory</title>
<path fill="none" stroke="black" d="M1456.05,-2087.92C1447.78,-2085.34 1439.68,-2082.38 1432,-2079 1395.39,-2062.89 1396.81,-2040.65 1360,-2025 1338,-2015.65 1313.12,-2009.52 1289.4,-2005.5"/>
<polygon fill="none" stroke="black" points="1289.75,-2002.01 1279.32,-2003.9 1288.65,-2008.93 1289.75,-2002.01"/>
</g>
<!-- \\HttpSourceConfigiAmExistsANDValid -->
<g id="node20" class="node"><title>\\HttpSourceConfigiAmExistsANDValid</title>
<polygon fill="none" stroke="black" points="933,-2124 695,-2124 695,-2088 933,-2088 933,-2124"/>
<text text-anchor="middle" x="814" y="-2103.1" font-family="Courier,monospace" font-size="11.00">HttpSourceConfigiAmExistsANDValid</text>
</g>
<!-- \\HttpSourceConfig -->
<g id="node40" class="node"><title>\\HttpSourceConfig</title>
<polygon fill="none" stroke="black" points="507,-2070 383,-2070 383,-2034 507,-2034 507,-2070"/>
<text text-anchor="middle" x="445" y="-2049.1" font-family="Courier,monospace" font-size="11.00">HttpSourceConfig</text>
</g>
<!-- \\HttpSourceConfigiAmExistsANDValid&#45;&gt;\\HttpSourceConfig -->
<g id="edge37" class="edge"><title>\\HttpSourceConfigiAmExistsANDValid&#45;&gt;\\HttpSourceConfig</title>
<path fill="none" stroke="black" d="M694.451,-2088.51C636.257,-2079.99 568.18,-2070.03 517.859,-2062.66"/>
<polygon fill="none" stroke="black" points="518.122,-2059.16 507.721,-2061.18 517.109,-2066.09 518.122,-2059.16"/>
</g>
<!-- \\HttpSourceEndpointiAmExistsANDValid -->
<g id="node21" class="node"><title>\\HttpSourceEndpointiAmExistsANDValid</title>
<polygon fill="none" stroke="black" points="940,-2070 688,-2070 688,-2034 940,-2034 940,-2070"/>
<text text-anchor="middle" x="814" y="-2049.1" font-family="Courier,monospace" font-size="11.00">HttpSourceEndpointiAmExistsANDValid</text>
</g>
<!-- \\HttpSourceEndpoint -->
<g id="node44" class="node"><title>\\HttpSourceEndpoint</title>
<polygon fill="none" stroke="black" points="514,-2016 376,-2016 376,-1980 514,-1980 514,-2016"/>
<text text-anchor="middle" x="445" y="-1995.1" font-family="Courier,monospace" font-size="11.00">HttpSourceEndpoint</text>
</g>
<!-- \\HttpSourceEndpointiAmExistsANDValid&#45;&gt;\\HttpSourceEndpoint -->
<g id="edge39" class="edge"><title>\\HttpSourceEndpointiAmExistsANDValid&#45;&gt;\\HttpSourceEndpoint</title>
<path fill="none" stroke="black" d="M690.872,-2033.98C635.89,-2025.94 572.701,-2016.69 524.151,-2009.58"/>
<polygon fill="none" stroke="black" points="524.422,-2006.09 514.021,-2008.1 523.409,-2013.01 524.422,-2006.09"/>
</g>
<!-- \\HttpSourceConditioniAmExistsANDValid -->
<g id="node22" class="node"><title>\\HttpSourceConditioniAmExistsANDValid</title>
<polygon fill="none" stroke="black" points="1706,-2070 1446,-2070 1446,-2034 1706,-2034 1706,-2070"/>
<text text-anchor="middle" x="1576" y="-2049.1" font-family="Courier,monospace" font-size="11.00">HttpSourceConditioniAmExistsANDValid</text>
</g>
<!-- \\HttpSourceCondition -->
<g id="node46" class="node"><title>\\HttpSourceCondition</title>
<polygon fill="none" stroke="black" points="1265,-1962 1121,-1962 1121,-1926 1265,-1926 1265,-1962"/>
<text text-anchor="middle" x="1193" y="-1941.1" font-family="Courier,monospace" font-size="11.00">HttpSourceCondition</text>
</g>
<!-- \\HttpSourceConditioniAmExistsANDValid&#45;&gt;\\HttpSourceCondition -->
<g id="edge41" class="edge"><title>\\HttpSourceConditioniAmExistsANDValid&#45;&gt;\\HttpSourceCondition</title>
<path fill="none" stroke="black" d="M1456.05,-2033.92C1447.78,-2031.34 1439.68,-2028.38 1432,-2025 1395.39,-2008.89 1396.81,-1986.65 1360,-1971 1333.76,-1959.85 1303.41,-1953.27 1275.83,-1949.4"/>
<polygon fill="none" stroke="black" points="1276.18,-1945.92 1265.81,-1948.1 1275.28,-1952.86 1276.18,-1945.92"/>
</g>
<!-- \\HttpSourceFieldiAmExistsANDValid -->
<g id="node23" class="node"><title>\\HttpSourceFieldiAmExistsANDValid</title>
<polygon fill="none" stroke="black" points="1309,-2070 1077,-2070 1077,-2034 1309,-2034 1309,-2070"/>
<text text-anchor="middle" x="1193" y="-2049.1" font-family="Courier,monospace" font-size="11.00">HttpSourceFieldiAmExistsANDValid</text>
</g>
<!-- \\HttpSourceField -->
<g id="node43" class="node"><title>\\HttpSourceField</title>
<polygon fill="none" stroke="black" points="873,-1962 755,-1962 755,-1926 873,-1926 873,-1962"/>
<text text-anchor="middle" x="814" y="-1941.1" font-family="Courier,monospace" font-size="11.00">HttpSourceField</text>
</g>
<!-- \\HttpSourceFieldiAmExistsANDValid&#45;&gt;\\HttpSourceField -->
<g id="edge43" class="edge"><title>\\HttpSourceFieldiAmExistsANDValid&#45;&gt;\\HttpSourceField</title>
<path fill="none" stroke="black" d="M1076.41,-2040.59C1059.12,-2036.78 1041.81,-2031.72 1026,-2025 989.187,-2009.35 990.572,-1987.2 954,-1971 932.018,-1961.26 906.564,-1955.03 883.436,-1951.04"/>
<polygon fill="none" stroke="black" points="883.77,-1947.55 873.34,-1949.41 882.656,-1954.46 883.77,-1947.55"/>
</g>
<!-- \\HttpSourceResultiAmExistsANDValid -->
<g id="node24" class="node"><title>\\HttpSourceResultiAmExistsANDValid</title>
<polygon fill="none" stroke="black" points="1312,-2124 1074,-2124 1074,-2088 1312,-2088 1312,-2124"/>
<text text-anchor="middle" x="1193" y="-2103.1" font-family="Courier,monospace" font-size="11.00">HttpSourceResultiAmExistsANDValid</text>
</g>
<!-- \\HttpSourceResult -->
<g id="node42" class="node"><title>\\HttpSourceResult</title>
<polygon fill="none" stroke="black" points="876,-2016 752,-2016 752,-1980 876,-1980 876,-2016"/>
<text text-anchor="middle" x="814" y="-1995.1" font-family="Courier,monospace" font-size="11.00">HttpSourceResult</text>
</g>
<!-- \\HttpSourceResultiAmExistsANDValid&#45;&gt;\\HttpSourceResult -->
<g id="edge45" class="edge"><title>\\HttpSourceResultiAmExistsANDValid&#45;&gt;\\HttpSourceResult</title>
<path fill="none" stroke="black" d="M1073.31,-2093.89C1057.05,-2090.17 1040.87,-2085.32 1026,-2079 989.187,-2063.35 990.572,-2041.2 954,-2025 933.098,-2015.74 909.056,-2009.65 886.861,-2005.64"/>
<polygon fill="none" stroke="black" points="887.254,-2002.16 876.81,-2003.95 886.088,-2009.06 887.254,-2002.16"/>
</g>
<!-- \\HttpSourceBasicsTest -->
<g id="node25" class="node"><title>\\HttpSourceBasicsTest</title>
<polygon fill="none" stroke="black" points="1652,-1800 1500,-1800 1500,-1764 1652,-1764 1652,-1800"/>
<text text-anchor="middle" x="1576" y="-1779.1" font-family="Courier,monospace" font-size="11.00">HttpSourceBasicsTest</text>
</g>
<!-- \\HttpSourceAppTest -->
<g id="node36" class="node"><title>\\HttpSourceAppTest</title>
<polygon fill="none" stroke="black" points="1259,-1800 1127,-1800 1127,-1764 1259,-1764 1259,-1800"/>
<text text-anchor="start" x="1159" y="-1787.43" font-family="Courier,monospace" font-size="11.00">«abstract»</text>
<text text-anchor="start" x="1135.5" y="-1774.23" font-family="Courier,monospace" font-size="11.00">HttpSourceAppTest</text>
</g>
<!-- \\HttpSourceBasicsTest&#45;&gt;\\HttpSourceAppTest -->
<g id="edge47" class="edge"><title>\\HttpSourceBasicsTest&#45;&gt;\\HttpSourceAppTest</title>
<path fill="none" stroke="black" d="M1499.87,-1782C1432.95,-1782 1336.07,-1782 1269.14,-1782"/>
<polygon fill="none" stroke="black" points="1269.08,-1778.5 1259.08,-1782 1269.08,-1785.5 1269.08,-1778.5"/>
</g>
<!-- \\HttpSourceTest -->
<g id="node26" class="node"><title>\\HttpSourceTest</title>
<polygon fill="none" stroke="black" points="1631,-1530 1521,-1530 1521,-1494 1631,-1494 1631,-1530"/>
<text text-anchor="middle" x="1576" y="-1509.1" font-family="Courier,monospace" font-size="11.00">HttpSourceTest</text>
</g>
<!-- \\HttpSourceTest&#45;&gt;\\CakeTestCase -->
<g id="edge49" class="edge"><title>\\HttpSourceTest&#45;&gt;\\CakeTestCase</title>
<path fill="none" stroke="black" d="M1520.16,-1516.81C1489.54,-1516.16 1453.54,-1509.41 1432,-1485 1257.29,-1287.02 1537.17,-494.773 1360,-299 1339.55,-276.403 1308.24,-267.689 1278.23,-265.316"/>
<polygon fill="none" stroke="black" points="1278.31,-261.815 1268.12,-264.744 1277.91,-268.804 1278.31,-261.815"/>
</g>
<!-- \\HttpTestSource -->
<g id="node27" class="node"><title>\\HttpTestSource</title>
<polygon fill="none" stroke="black" points="1631,-2016 1521,-2016 1521,-1980 1631,-1980 1631,-2016"/>
<text text-anchor="middle" x="1576" y="-1995.1" font-family="Courier,monospace" font-size="11.00">HttpTestSource</text>
</g>
<!-- \\HttpTestSource&#45;&gt;\\HttpSource -->
<g id="edge51" class="edge"><title>\\HttpTestSource&#45;&gt;\\HttpSource</title>
<path fill="none" stroke="black" d="M1520.22,-1993.55C1492.77,-1989.88 1459.71,-1983.19 1432,-1971 1395.39,-1954.89 1396.81,-1932.65 1360,-1917 1323.75,-1901.59 1279.64,-1894.92 1245.86,-1892.05"/>
<polygon fill="none" stroke="black" points="1245.97,-1888.55 1235.73,-1891.28 1245.44,-1895.53 1245.97,-1888.55"/>
</g>
<!-- \\HttpSourceConnectionTest -->
<g id="node28" class="node"><title>\\HttpSourceConnectionTest</title>
<polygon fill="none" stroke="black" points="1665,-1476 1487,-1476 1487,-1440 1665,-1440 1665,-1476"/>
<text text-anchor="middle" x="1576" y="-1455.1" font-family="Courier,monospace" font-size="11.00">HttpSourceConnectionTest</text>
</g>
<!-- \\HttpSourceConnectionTest&#45;&gt;\\CakeTestCase -->
<g id="edge53" class="edge"><title>\\HttpSourceConnectionTest&#45;&gt;\\CakeTestCase</title>
<path fill="none" stroke="black" d="M1486.39,-1459.26C1465.81,-1455.1 1445.91,-1446.71 1432,-1431 1264.94,-1242.24 1529.41,-485.648 1360,-299 1339.61,-276.53 1308.47,-267.8 1278.59,-265.379"/>
<polygon fill="none" stroke="black" points="1278.71,-261.88 1268.52,-264.789 1278.3,-268.868 1278.71,-261.88"/>
</g>
<!-- \\HttpSourceToDboAssociationTest -->
<g id="node29" class="node"><title>\\HttpSourceToDboAssociationTest</title>
<polygon fill="none" stroke="black" points="1685,-1854 1467,-1854 1467,-1818 1685,-1818 1685,-1854"/>
<text text-anchor="middle" x="1576" y="-1833.1" font-family="Courier,monospace" font-size="11.00">HttpSourceToDboAssociationTest</text>
</g>
<!-- \\HttpSourceToDboAssociationTest&#45;&gt;\\HttpSourceAppTest -->
<g id="edge55" class="edge"><title>\\HttpSourceToDboAssociationTest&#45;&gt;\\HttpSourceAppTest</title>
<path fill="none" stroke="black" d="M1466.25,-1820.53C1403.17,-1811.63 1325.52,-1800.68 1269.14,-1792.74"/>
<polygon fill="none" stroke="black" points="1269.61,-1789.27 1259.22,-1791.34 1268.64,-1796.2 1269.61,-1789.27"/>
</g>
<!-- \\HttpSourceModelTest -->
<g id="node30" class="node"><title>\\HttpSourceModelTest</title>
<polygon fill="none" stroke="black" points="1648,-882 1504,-882 1504,-846 1648,-846 1648,-882"/>
<text text-anchor="middle" x="1576" y="-861.1" font-family="Courier,monospace" font-size="11.00">HttpSourceModelTest</text>
</g>
<!-- \\HttpSourceModelTest&#45;&gt;\\CakeTestCase -->
<g id="edge57" class="edge"><title>\\HttpSourceModelTest&#45;&gt;\\CakeTestCase</title>
<path fill="none" stroke="black" d="M1503.25,-867.041C1477.39,-864.242 1450.21,-856.188 1432,-837 1265.93,-662.013 1528.24,-471.893 1360,-299 1339.39,-277.818 1309.17,-269.117 1280.09,-266.358"/>
<polygon fill="none" stroke="black" points="1280.1,-262.849 1269.87,-265.619 1279.59,-269.831 1280.1,-262.849"/>
</g>
<!-- \\HttpSourceTestModel -->
<g id="node31" class="node"><title>\\HttpSourceTestModel</title>
<polygon fill="none" stroke="black" points="1648,-1746 1504,-1746 1504,-1710 1648,-1710 1648,-1746"/>
<text text-anchor="middle" x="1576" y="-1725.1" font-family="Courier,monospace" font-size="11.00">HttpSourceTestModel</text>
</g>
<!-- \\HttpSourceTestModel&#45;&gt;\\HttpSourceModel -->
<g id="edge59" class="edge"><title>\\HttpSourceTestModel&#45;&gt;\\HttpSourceModel</title>
<path fill="none" stroke="black" d="M1503.38,-1714.92C1480.5,-1710.66 1455.17,-1705.79 1432,-1701 1374.63,-1689.15 1309.83,-1674.42 1262.19,-1663.34"/>
<polygon fill="none" stroke="black" points="1262.82,-1659.9 1252.29,-1661.04 1261.24,-1666.71 1262.82,-1659.9"/>
</g>
<!-- \\HttpSourceDocument -->
<g id="node32" class="node"><title>\\HttpSourceDocument</title>
<polygon fill="none" stroke="black" points="1645,-1638 1507,-1638 1507,-1602 1645,-1602 1645,-1638"/>
<text text-anchor="middle" x="1576" y="-1617.1" font-family="Courier,monospace" font-size="11.00">HttpSourceDocument</text>
</g>
<!-- \\HttpSourceDocument&#45;&gt;\\HttpSourceModel -->
<g id="edge61" class="edge"><title>\\HttpSourceDocument&#45;&gt;\\HttpSourceModel</title>
<path fill="none" stroke="black" d="M1506.64,-1624.89C1437.44,-1629.77 1331.72,-1637.22 1262.48,-1642.1"/>
<polygon fill="none" stroke="black" points="1261.84,-1638.64 1252.11,-1642.83 1262.33,-1645.62 1261.84,-1638.64"/>
</g>
<!-- \\HttpSourceUser -->
<g id="node33" class="node"><title>\\HttpSourceUser</title>
<polygon fill="none" stroke="black" points="1631,-774 1521,-774 1521,-738 1631,-738 1631,-774"/>
<text text-anchor="middle" x="1576" y="-753.1" font-family="Courier,monospace" font-size="11.00">HttpSourceUser</text>
</g>
<!-- \\AppModel -->
<g id="node87" class="node"><title>\\AppModel</title>
<ellipse fill="none" stroke="black" cx="814" cy="-195" rx="62.2254" ry="18.3848"/>
<text text-anchor="middle" x="814" y="-191.4" font-family="Times Roman,serif" font-size="14.00" fill="gray">\AppModel</text>
</g>
<!-- \\HttpSourceUser&#45;&gt;\\AppModel -->
<g id="edge63" class="edge"><title>\\HttpSourceUser&#45;&gt;\\AppModel</title>
<path fill="none" stroke="black" d="M1520.45,-760.202C1490.13,-759.313 1454.32,-752.524 1432,-729 1265.93,-554.013 1541.55,-349.868 1360,-191 1290.02,-129.764 1006.63,-164.734 878.03,-184.418"/>
<polygon fill="none" stroke="black" points="877.276,-180.993 867.929,-185.982 878.347,-187.911 877.276,-180.993"/>
</g>
<!-- \\HttpSourceUsersDocumentFixture -->
<g id="node34" class="node"><title>\\HttpSourceUsersDocumentFixture</title>
<polygon fill="none" stroke="black" points="1685,-720 1467,-720 1467,-684 1685,-684 1685,-720"/>
<text text-anchor="middle" x="1576" y="-699.1" font-family="Courier,monospace" font-size="11.00">HttpSourceUsersDocumentFixture</text>
</g>
<!-- \\CakeTestFixture -->
<g id="node89" class="node"><title>\\CakeTestFixture</title>
<ellipse fill="none" stroke="black" cx="1193" cy="-126" rx="92.1303" ry="18.3848"/>
<text text-anchor="middle" x="1193" y="-122.4" font-family="Times Roman,serif" font-size="14.00" fill="gray">\CakeTestFixture</text>
</g>
<!-- \\HttpSourceUsersDocumentFixture&#45;&gt;\\CakeTestFixture -->
<g id="edge65" class="edge"><title>\\HttpSourceUsersDocumentFixture&#45;&gt;\\CakeTestFixture</title>
<path fill="none" stroke="black" d="M1466.23,-696.659C1453.37,-691.884 1441.48,-684.938 1432,-675 1271.85,-507.147 1519.81,-326.171 1360,-158 1343.02,-140.133 1319.35,-130.516 1295.16,-125.669"/>
<polygon fill="none" stroke="black" points="1295.6,-122.194 1285.15,-123.929 1294.4,-129.09 1295.6,-122.194"/>
</g>
<!-- \\HttpSourceUserFixture -->
<g id="node35" class="node"><title>\\HttpSourceUserFixture</title>
<polygon fill="none" stroke="black" points="1655,-666 1497,-666 1497,-630 1655,-630 1655,-666"/>
<text text-anchor="middle" x="1576" y="-645.1" font-family="Courier,monospace" font-size="11.00">HttpSourceUserFixture</text>
</g>
<!-- \\HttpSourceUserFixture&#45;&gt;\\CakeTestFixture -->
<g id="edge67" class="edge"><title>\\HttpSourceUserFixture&#45;&gt;\\CakeTestFixture</title>
<path fill="none" stroke="black" d="M1496.73,-649.982C1472.99,-646.541 1448.82,-638.35 1432,-621 1287.05,-471.474 1504.65,-307.814 1360,-158 1342.97,-140.361 1319.41,-130.8 1295.35,-125.931"/>
<polygon fill="none" stroke="black" points="1295.85,-122.465 1285.4,-124.177 1294.64,-129.359 1295.85,-122.465"/>
</g>
<!-- \\HttpSourceAppTest&#45;&gt;\\CakeTestCase -->
<g id="edge69" class="edge"><title>\\HttpSourceAppTest&#45;&gt;\\CakeTestCase</title>
<path fill="none" stroke="black" d="M1257.75,-1763.89C1305.28,-1746.82 1366.49,-1716.07 1396,-1665 1433.72,-1599.73 1442.4,-367.422 1396,-308 1368,-272.142 1317.77,-263.016 1274.28,-262.917"/>
<polygon fill="none" stroke="black" points="1274.2,-259.418 1264.25,-263.05 1274.3,-266.417 1274.2,-259.418"/>
</g>
<!-- \\HttpSourceUtility -->
<g id="node37" class="node"><title>\\HttpSourceUtility</title>
<polygon fill="none" stroke="black" points="1641,-612 1511,-612 1511,-576 1641,-576 1641,-612"/>
<text text-anchor="middle" x="1576" y="-591.1" font-family="Courier,monospace" font-size="11.00">HttpSourceUtility</text>
</g>
<!-- \\HttpSourceController -->
<g id="node38" class="node"><title>\\HttpSourceController</title>
<polygon fill="none" stroke="black" points="1652,-504 1500,-504 1500,-468 1652,-468 1652,-504"/>
<text text-anchor="middle" x="1576" y="-483.1" font-family="Courier,monospace" font-size="11.00">HttpSourceController</text>
</g>
<!-- \\AppController -->
<g id="node93" class="node"><title>\\AppController</title>
<ellipse fill="none" stroke="black" cx="1193" cy="-72" rx="82.0244" ry="18.3848"/>
<text text-anchor="middle" x="1193" y="-68.4" font-family="Times Roman,serif" font-size="14.00" fill="gray">\AppController</text>
</g>
<!-- \\HttpSourceController&#45;&gt;\\AppController -->
<g id="edge71" class="edge"><title>\\HttpSourceController&#45;&gt;\\AppController</title>
<path fill="none" stroke="black" d="M1499.79,-487.911C1475.25,-484.664 1449.82,-476.609 1432,-459 1315.93,-344.319 1477.5,-212.217 1360,-99 1339.19,-78.9478 1309.7,-70.3215 1281.29,-67.3001"/>
<polygon fill="none" stroke="black" points="1281.56,-63.8104 1271.3,-66.4556 1280.97,-70.7856 1281.56,-63.8104"/>
</g>
<!-- \\HttpSourceTestFixture -->
<g id="node39" class="node"><title>\\HttpSourceTestFixture</title>
<polygon fill="none" stroke="black" points="1655,-558 1497,-558 1497,-522 1655,-522 1655,-558"/>
<text text-anchor="middle" x="1576" y="-537.1" font-family="Courier,monospace" font-size="11.00">HttpSourceTestFixture</text>
</g>
<!-- \\HttpSourceTestFixture&#45;&gt;\\CakeTestFixture -->
<g id="edge73" class="edge"><title>\\HttpSourceTestFixture&#45;&gt;\\CakeTestFixture</title>
<path fill="none" stroke="black" d="M1496.82,-541.464C1473.22,-537.965 1449.12,-529.871 1432,-513 1317.33,-400.006 1474.45,-271.222 1360,-158 1342.66,-140.848 1319.12,-131.433 1295.19,-126.549"/>
<polygon fill="none" stroke="black" points="1295.75,-123.094 1285.29,-124.78 1294.52,-129.985 1295.75,-123.094"/>
</g>
<!-- \\HttpSourceConfig&#45;&gt;\\HttpSourceConfigFactoryItem -->
<g id="edge75" class="edge"><title>\\HttpSourceConfig&#45;&gt;\\HttpSourceConfigFactoryItem</title>
<path fill="none" stroke="black" d="M382.343,-2046.86C338.385,-2043.25 278.429,-2038.33 226.533,-2034.07"/>
<polygon fill="none" stroke="black" points="226.521,-2030.56 216.269,-2033.23 225.949,-2037.54 226.521,-2030.56"/>
</g>
<!-- \\HttpSourceResult&#45;&gt;\\HttpSourceEndpointItem -->
<g id="edge77" class="edge"><title>\\HttpSourceResult&#45;&gt;\\HttpSourceEndpointItem</title>
<path fill="none" stroke="black" d="M751.404,-1988.84C692.926,-1980.28 604.873,-1967.4 538.145,-1957.63"/>
<polygon fill="none" stroke="black" points="538.446,-1954.14 528.044,-1956.15 537.432,-1961.06 538.446,-1954.14"/>
</g>
<!-- \\HttpSourceField&#45;&gt;\\HttpSourceEndpointItem -->
<g id="edge79" class="edge"><title>\\HttpSourceField&#45;&gt;\\HttpSourceEndpointItem</title>
<path fill="none" stroke="black" d="M754.714,-1944C696.386,-1944 606.447,-1944 538.488,-1944"/>
<polygon fill="none" stroke="black" points="538.203,-1940.5 528.203,-1944 538.203,-1947.5 538.203,-1940.5"/>
</g>
<!-- \\HttpSourceEndpoint&#45;&gt;\\HttpSourceConfigFactoryItem -->
<g id="edge81" class="edge"><title>\\HttpSourceEndpoint&#45;&gt;\\HttpSourceConfigFactoryItem</title>
<path fill="none" stroke="black" d="M375.63,-2003.69C332.33,-2007.25 275.632,-2011.9 226.27,-2015.95"/>
<polygon fill="none" stroke="black" points="225.859,-2012.47 216.179,-2016.78 226.432,-2019.45 225.859,-2012.47"/>
</g>
<!-- \\HttpSourceEndpointItem&#45;&gt;\\HttpSourceConfigFactoryItem -->
<g id="edge83" class="edge"><title>\\HttpSourceEndpointItem&#45;&gt;\\HttpSourceConfigFactoryItem</title>
<path fill="none" stroke="black" d="M361.871,-1956.16C337.896,-1960.24 311.791,-1965.25 288,-1971 250.643,-1980.03 209.55,-1992.83 176.899,-2003.69"/>
<polygon fill="none" stroke="black" points="175.418,-2000.5 167.051,-2007 177.645,-2007.13 175.418,-2000.5"/>
</g>
<!-- \\HttpSourceCondition&#45;&gt;\\HttpSourceField -->
<g id="edge85" class="edge"><title>\\HttpSourceCondition&#45;&gt;\\HttpSourceField</title>
<path fill="none" stroke="black" d="M1120.37,-1944C1051.99,-1944 950.284,-1944 883.08,-1944"/>
<polygon fill="none" stroke="black" points="883.012,-1940.5 873.012,-1944 883.012,-1947.5 883.012,-1940.5"/>
</g>
<!-- \\HttpSourceException -->
<g id="node48" class="node"><title>\\HttpSourceException</title>
<polygon fill="none" stroke="black" points="1648,-396 1504,-396 1504,-360 1648,-360 1648,-396"/>
<text text-anchor="middle" x="1576" y="-375.1" font-family="Courier,monospace" font-size="11.00">HttpSourceException</text>
</g>
<!-- \\CakeException -->
<g id="node102" class="node"><title>\\CakeException</title>
<ellipse fill="none" stroke="black" cx="1193" cy="-18" rx="85.7684" ry="18.3848"/>
<text text-anchor="middle" x="1193" y="-14.4" font-family="Times Roman,serif" font-size="14.00" fill="gray">\CakeException</text>
</g>
<!-- \\HttpSourceException&#45;&gt;\\CakeException -->
<g id="edge87" class="edge"><title>\\HttpSourceException&#45;&gt;\\CakeException</title>
<path fill="none" stroke="black" d="M1570.17,-359.757C1550.83,-302.46 1482.95,-125.171 1360,-45 1339.24,-31.4647 1314.03,-23.9186 1289.55,-19.884"/>
<polygon fill="none" stroke="black" points="1289.89,-16.3964 1279.48,-18.4099 1288.87,-23.3224 1289.89,-16.3964"/>
</g>
<!-- \\HttpSourceConfigException -->
<g id="node49" class="node"><title>\\HttpSourceConfigException</title>
<polygon fill="none" stroke="black" points="1668,-450 1484,-450 1484,-414 1668,-414 1668,-450"/>
<text text-anchor="middle" x="1576" y="-429.1" font-family="Courier,monospace" font-size="11.00">HttpSourceConfigException</text>
</g>
<!-- \\HttpSourceConfigException&#45;&gt;\\CakeException -->
<g id="edge89" class="edge"><title>\\HttpSourceConfigException&#45;&gt;\\CakeException</title>
<path fill="none" stroke="black" d="M1483.31,-430.963C1464.27,-426.589 1445.84,-418.676 1432,-405 1315.93,-290.319 1477.5,-158.217 1360,-45 1340.4,-26.1168 1313.11,-17.3661 1286.27,-13.8869"/>
<polygon fill="none" stroke="black" points="1286.33,-10.374 1276.02,-12.8014 1285.59,-17.3351 1286.33,-10.374"/>
</g>
<!-- \\DataSource -->
<g id="node105" class="node"><title>\\DataSource</title>
<ellipse fill="none" stroke="black" cx="814" cy="-326" rx="72.1249" ry="18.3848"/>
<text text-anchor="middle" x="814" y="-322.4" font-family="Times Roman,serif" font-size="14.00" fill="gray">\DataSource</text>
</g>
<!-- \\HttpSource&#45;&gt;\\DataSource -->
<g id="edge91" class="edge"><title>\\HttpSource&#45;&gt;\\DataSource</title>
<path fill="none" stroke="black" d="M1150.43,-1896.5C1111.86,-1899.72 1056.52,-1897.17 1026,-1863 913.743,-1737.31 1066.53,-473.443 954,-348 938.329,-330.531 914.899,-323.025 891.669,-320.484"/>
<polygon fill="none" stroke="black" points="891.641,-316.971 881.395,-319.666 891.086,-323.949 891.641,-316.971"/>
</g>
<!-- \\Object -->
<g id="node107" class="node"><title>\\Object</title>
<ellipse fill="none" stroke="black" cx="814" cy="-272" rx="45.9619" ry="18.3848"/>
<text text-anchor="middle" x="814" y="-268.4" font-family="Times Roman,serif" font-size="14.00" fill="gray">\Object</text>
</g>
<!-- \\HttpSourceConnection&#45;&gt;\\Object -->
<g id="edge93" class="edge"><title>\\HttpSourceConnection&#45;&gt;\\Object</title>
<path fill="none" stroke="black" d="M1116.87,-1843.36C1084.17,-1842.13 1048.4,-1834.08 1026,-1809 914.103,-1683.73 1063.99,-425.946 954,-299 933.41,-275.236 898.785,-268.408 869.122,-267.559"/>
<polygon fill="none" stroke="black" points="868.892,-264.057 858.868,-267.49 868.844,-271.057 868.892,-264.057"/>
</g>
<!-- \\HttpSourceModel&#45;&gt;\\AppModel -->
<g id="edge95" class="edge"><title>\\HttpSourceModel&#45;&gt;\\AppModel</title>
<path fill="none" stroke="black" d="M1133.89,-1656.36C1097.44,-1658.49 1052.69,-1653.89 1026,-1625 921.793,-1512.23 1045.69,-368.16 954,-245 937.191,-222.421 909.293,-210.005 882.806,-203.192"/>
<polygon fill="none" stroke="black" points="883.283,-199.709 872.749,-200.845 881.692,-206.526 883.283,-199.709"/>
</g>
</g>
</svg>
