<?xml version="1.0" encoding="UTF-8" standalone="no"?>
<!DOCTYPE svg PUBLIC "-//W3C//DTD SVG 1.1//EN"
 "http://www.w3.org/Graphics/SVG/1.1/DTD/svg11.dtd">
<!-- Generated by graphviz version 2.26.3 (20100126.1600)
 -->
<!-- Title: G Pages: 1 -->
<svg width="1744pt" height="2170pt"
 viewBox="0.00 0.00 1744.00 2170.00" xmlns="http://www.w3.org/2000/svg" xmlns:xlink="http://www.w3.org/1999/xlink">
<g id="graph1" class="graph" transform="scale(1 1) rotate(0) translate(4 2166)">
<title>G</title>
<polygon fill="white" stroke="white" points="-4,5 -4,-2166 1741,-2166 1741,5 -4,5"/>
<g id="graph2" class="cluster"><title>cluster_Global</title>
<polyline fill="none" stroke="gray" points="20,-352 1716,-352 "/>
<path fill="none" stroke="gray" d="M1716,-352C1722,-352 1728,-358 1728,-364"/>
<polyline fill="none" stroke="gray" points="1728,-364 1728,-2142 "/>
<path fill="none" stroke="gray" d="M1728,-2142C1728,-2148 1722,-2154 1716,-2154"/>
<polyline fill="none" stroke="gray" points="1716,-2154 20,-2154 "/>
<path fill="none" stroke="gray" d="M20,-2154C14,-2154 8,-2148 8,-2142"/>
<polyline fill="none" stroke="gray" points="8,-2142 8,-364 "/>
<path fill="none" stroke="gray" d="M8,-364C8,-358 14,-352 20,-352"/>
<text text-anchor="middle" x="868" y="-2140.1" font-family="Times Roman,serif" font-size="11.00" fill="gray">Global</text>
</g>
<!-- \\HttpSourceTestFixture -->
<g id="node2" class="node"><title>\\HttpSourceTestFixture</title>
<polygon fill="none" stroke="black" points="1655,-1530 1497,-1530 1497,-1494 1655,-1494 1655,-1530"/>
<text text-anchor="middle" x="1576" y="-1509.1" font-family="Courier,monospace" font-size="11.00">HttpSourceTestFixture</text>
</g>
<!-- \\CakeTestFixture -->
<g id="node54" class="node"><title>\\CakeTestFixture</title>
<ellipse fill="none" stroke="black" cx="1193" cy="-326" rx="92.1303" ry="18.3848"/>
<text text-anchor="middle" x="1193" y="-322.4" font-family="Times Roman,serif" font-size="14.00" fill="gray">\CakeTestFixture</text>
</g>
<!-- \\HttpSourceTestFixture&#45;&gt;\\CakeTestFixture -->
<g id="edge3" class="edge"><title>\\HttpSourceTestFixture&#45;&gt;\\CakeTestFixture</title>
<path fill="none" stroke="black" d="M1496.9,-1515.03C1472.73,-1511.74 1448.26,-1503.38 1432,-1485 1264.24,-1295.39 1532.86,-532.98 1360,-348 1340.09,-326.689 1310.34,-318.644 1281.44,-316.764"/>
<polygon fill="none" stroke="black" points="1281.41,-313.259 1271.28,-316.344 1281.12,-320.253 1281.41,-313.259"/>
</g>
<!-- \\HttpSourceModel -->
<g id="node3" class="node"><title>\\HttpSourceModel</title>
<polygon fill="none" stroke="black" points="1252,-1665 1134,-1665 1134,-1629 1252,-1629 1252,-1665"/>
<text text-anchor="middle" x="1193" y="-1644.1" font-family="Courier,monospace" font-size="11.00">HttpSourceModel</text>
</g>
<!-- \\AppModel -->
<g id="node56" class="node"><title>\\AppModel</title>
<ellipse fill="none" stroke="black" cx="814" cy="-218" rx="62.2254" ry="18.3848"/>
<text text-anchor="middle" x="814" y="-214.4" font-family="Times Roman,serif" font-size="14.00" fill="gray">\AppModel</text>
</g>
<!-- \\HttpSourceModel&#45;&gt;\\AppModel -->
<g id="edge5" class="edge"><title>\\HttpSourceModel&#45;&gt;\\AppModel</title>
<path fill="none" stroke="black" d="M1133.89,-1656.36C1097.44,-1658.49 1052.69,-1653.89 1026,-1625 817.587,-1399.47 1155.61,-476.635 954,-245 936.856,-225.302 910.066,-217.254 884.493,-214.599"/>
<polygon fill="none" stroke="black" points="884.64,-211.1 874.399,-213.812 884.096,-218.079 884.64,-211.1"/>
</g>
<!-- \\HttpSource -->
<g id="node4" class="node"><title>\\HttpSource</title>
<polygon fill="none" stroke="black" points="1235,-1854 1151,-1854 1151,-1818 1235,-1818 1235,-1854"/>
<text text-anchor="start" x="1159" y="-1841.43" font-family="Courier,monospace" font-size="11.00">«abstract»</text>
<text text-anchor="start" x="1159" y="-1828.23" font-family="Courier,monospace" font-size="11.00">HttpSource</text>
</g>
<!-- \\DataSource -->
<g id="node58" class="node"><title>\\DataSource</title>
<ellipse fill="none" stroke="black" cx="814" cy="-326" rx="72.1249" ry="18.3848"/>
<text text-anchor="middle" x="814" y="-322.4" font-family="Times Roman,serif" font-size="14.00" fill="gray">\DataSource</text>
</g>
<!-- \\HttpSource&#45;&gt;\\DataSource -->
<g id="edge7" class="edge"><title>\\HttpSource&#45;&gt;\\DataSource</title>
<path fill="none" stroke="black" d="M1150.31,-1828.04C1110.78,-1818.22 1054.03,-1797.31 1026,-1755 939.539,-1624.51 1058.74,-464.331 954,-348 938.369,-330.639 915.073,-323.13 891.95,-320.553"/>
<polygon fill="none" stroke="black" points="891.973,-317.043 881.721,-319.717 891.403,-324.02 891.973,-317.043"/>
</g>
<!-- \\HttpSourceConnection -->
<g id="node5" class="node"><title>\\HttpSourceConnection</title>
<polygon fill="none" stroke="black" points="1269,-1746 1117,-1746 1117,-1710 1269,-1710 1269,-1746"/>
<text text-anchor="middle" x="1193" y="-1725.1" font-family="Courier,monospace" font-size="11.00">HttpSourceConnection</text>
</g>
<!-- \\Object -->
<g id="node60" class="node"><title>\\Object</title>
<ellipse fill="none" stroke="black" cx="814" cy="-272" rx="45.9619" ry="18.3848"/>
<text text-anchor="middle" x="814" y="-268.4" font-family="Times Roman,serif" font-size="14.00" fill="gray">\Object</text>
</g>
<!-- \\HttpSourceConnection&#45;&gt;\\Object -->
<g id="edge9" class="edge"><title>\\HttpSourceConnection&#45;&gt;\\Object</title>
<path fill="none" stroke="black" d="M1116.69,-1722.27C1083.53,-1715.62 1047.44,-1701.91 1026,-1674 839.568,-1431.38 1154.9,-529.779 954,-299 933.355,-275.285 898.729,-268.456 869.08,-267.596"/>
<polygon fill="none" stroke="black" points="868.856,-264.094 858.831,-267.522 868.806,-271.094 868.856,-264.094"/>
</g>
<!-- \\HttpSourceConfig -->
<g id="node6" class="node"><title>\\HttpSourceConfig</title>
<polygon fill="none" stroke="black" points="507,-2070 383,-2070 383,-2034 507,-2034 507,-2070"/>
<text text-anchor="middle" x="445" y="-2049.1" font-family="Courier,monospace" font-size="11.00">HttpSourceConfig</text>
</g>
<!-- \\HttpSourceConfigFactoryItem -->
<g id="node13" class="node"><title>\\HttpSourceConfigFactoryItem</title>
<polygon fill="none" stroke="black" points="216,-2043 16,-2043 16,-2007 216,-2007 216,-2043"/>
<text text-anchor="start" x="82" y="-2030.43" font-family="Courier,monospace" font-size="11.00">«abstract»</text>
<text text-anchor="start" x="24.5" y="-2017.23" font-family="Courier,monospace" font-size="11.00">HttpSourceConfigFactoryItem</text>
</g>
<!-- \\HttpSourceConfig&#45;&gt;\\HttpSourceConfigFactoryItem -->
<g id="edge11" class="edge"><title>\\HttpSourceConfig&#45;&gt;\\HttpSourceConfigFactoryItem</title>
<path fill="none" stroke="black" d="M382.343,-2046.86C338.385,-2043.25 278.429,-2038.33 226.533,-2034.07"/>
<polygon fill="none" stroke="black" points="226.521,-2030.56 216.269,-2033.23 225.949,-2037.54 226.521,-2030.56"/>
</g>
<!-- \\HttpSourceField -->
<g id="node7" class="node"><title>\\HttpSourceField</title>
<polygon fill="none" stroke="black" points="873,-2016 755,-2016 755,-1980 873,-1980 873,-2016"/>
<text text-anchor="middle" x="814" y="-1995.1" font-family="Courier,monospace" font-size="11.00">HttpSourceField</text>
</g>
<!-- \\HttpSourceEndpointItem -->
<g id="node11" class="node"><title>\\HttpSourceEndpointItem</title>
<polygon fill="none" stroke="black" points="528,-1962 362,-1962 362,-1926 528,-1926 528,-1962"/>
<text text-anchor="start" x="411" y="-1949.43" font-family="Courier,monospace" font-size="11.00">«abstract»</text>
<text text-anchor="start" x="370.5" y="-1936.23" font-family="Courier,monospace" font-size="11.00">HttpSourceEndpointItem</text>
</g>
<!-- \\HttpSourceField&#45;&gt;\\HttpSourceEndpointItem -->
<g id="edge13" class="edge"><title>\\HttpSourceField&#45;&gt;\\HttpSourceEndpointItem</title>
<path fill="none" stroke="black" d="M754.714,-1989.32C696.386,-1980.79 606.447,-1967.63 538.488,-1957.68"/>
<polygon fill="none" stroke="black" points="538.604,-1954.16 528.203,-1956.18 537.59,-1961.09 538.604,-1954.16"/>
</g>
<!-- \\HttpSourceResult -->
<g id="node8" class="node"><title>\\HttpSourceResult</title>
<polygon fill="none" stroke="black" points="876,-1962 752,-1962 752,-1926 876,-1926 876,-1962"/>
<text text-anchor="middle" x="814" y="-1941.1" font-family="Courier,monospace" font-size="11.00">HttpSourceResult</text>
</g>
<!-- \\HttpSourceResult&#45;&gt;\\HttpSourceEndpointItem -->
<g id="edge15" class="edge"><title>\\HttpSourceResult&#45;&gt;\\HttpSourceEndpointItem</title>
<path fill="none" stroke="black" d="M751.404,-1944C692.926,-1944 604.873,-1944 538.145,-1944"/>
<polygon fill="none" stroke="black" points="538.044,-1940.5 528.044,-1944 538.044,-1947.5 538.044,-1940.5"/>
</g>
<!-- \\HttpSourceConfigFactory -->
<g id="node9" class="node"><title>\\HttpSourceConfigFactory</title>
<polygon fill="none" stroke="black" points="1279,-1908 1107,-1908 1107,-1872 1279,-1872 1279,-1908"/>
<text text-anchor="middle" x="1193" y="-1887.1" font-family="Courier,monospace" font-size="11.00">HttpSourceConfigFactory</text>
</g>
<!-- \\HttpSourceEndpoint -->
<g id="node10" class="node"><title>\\HttpSourceEndpoint</title>
<polygon fill="none" stroke="black" points="514,-2016 376,-2016 376,-1980 514,-1980 514,-2016"/>
<text text-anchor="middle" x="445" y="-1995.1" font-family="Courier,monospace" font-size="11.00">HttpSourceEndpoint</text>
</g>
<!-- \\HttpSourceEndpoint&#45;&gt;\\HttpSourceConfigFactoryItem -->
<g id="edge17" class="edge"><title>\\HttpSourceEndpoint&#45;&gt;\\HttpSourceConfigFactoryItem</title>
<path fill="none" stroke="black" d="M375.63,-2003.69C332.33,-2007.25 275.632,-2011.9 226.27,-2015.95"/>
<polygon fill="none" stroke="black" points="225.859,-2012.47 216.179,-2016.78 226.432,-2019.45 225.859,-2012.47"/>
</g>
<!-- \\HttpSourceEndpointItem&#45;&gt;\\HttpSourceConfigFactoryItem -->
<g id="edge19" class="edge"><title>\\HttpSourceEndpointItem&#45;&gt;\\HttpSourceConfigFactoryItem</title>
<path fill="none" stroke="black" d="M361.871,-1956.16C337.896,-1960.24 311.791,-1965.25 288,-1971 250.643,-1980.03 209.55,-1992.83 176.899,-2003.69"/>
<polygon fill="none" stroke="black" points="175.418,-2000.5 167.051,-2007 177.645,-2007.13 175.418,-2000.5"/>
</g>
<!-- \\HttpSourceCondition -->
<g id="node12" class="node"><title>\\HttpSourceCondition</title>
<polygon fill="none" stroke="black" points="1265,-2124 1121,-2124 1121,-2088 1265,-2088 1265,-2124"/>
<text text-anchor="middle" x="1193" y="-2103.1" font-family="Courier,monospace" font-size="11.00">HttpSourceCondition</text>
</g>
<!-- \\HttpSourceCondition&#45;&gt;\\HttpSourceField -->
<g id="edge21" class="edge"><title>\\HttpSourceCondition&#45;&gt;\\HttpSourceField</title>
<path fill="none" stroke="black" d="M1120.19,-2101.9C1090.11,-2098.28 1055.46,-2091.52 1026,-2079 989.187,-2063.35 990.572,-2041.2 954,-2025 932.018,-2015.26 906.564,-2009.03 883.436,-2005.04"/>
<polygon fill="none" stroke="black" points="883.77,-2001.55 873.34,-2003.41 882.656,-2008.46 883.77,-2001.55"/>
</g>
<!-- \\HttpSourceException -->
<g id="node14" class="node"><title>\\HttpSourceException</title>
<polygon fill="none" stroke="black" points="1648,-1368 1504,-1368 1504,-1332 1648,-1332 1648,-1368"/>
<text text-anchor="middle" x="1576" y="-1347.1" font-family="Courier,monospace" font-size="11.00">HttpSourceException</text>
</g>
<!-- \\CakeException -->
<g id="node68" class="node"><title>\\CakeException</title>
<ellipse fill="none" stroke="black" cx="1193" cy="-272" rx="85.7684" ry="18.3848"/>
<text text-anchor="middle" x="1193" y="-268.4" font-family="Times Roman,serif" font-size="14.00" fill="gray">\CakeException</text>
</g>
<!-- \\HttpSourceException&#45;&gt;\\CakeException -->
<g id="edge23" class="edge"><title>\\HttpSourceException&#45;&gt;\\CakeException</title>
<path fill="none" stroke="black" d="M1503.35,-1353.71C1477.18,-1351.07 1449.77,-1342.94 1432,-1323 1280.25,-1152.68 1513.88,-467.403 1360,-299 1340.59,-277.763 1311.59,-268.824 1283.17,-265.882"/>
<polygon fill="none" stroke="black" points="1283.41,-262.39 1273.16,-265.081 1282.85,-269.368 1283.41,-262.39"/>
</g>
<!-- \\HttpSourceConfigException -->
<g id="node15" class="node"><title>\\HttpSourceConfigException</title>
<polygon fill="none" stroke="black" points="1668,-1422 1484,-1422 1484,-1386 1668,-1386 1668,-1422"/>
<text text-anchor="middle" x="1576" y="-1401.1" font-family="Courier,monospace" font-size="11.00">HttpSourceConfigException</text>
</g>
<!-- \\HttpSourceConfigException&#45;&gt;\\CakeException -->
<g id="edge25" class="edge"><title>\\HttpSourceConfigException&#45;&gt;\\CakeException</title>
<path fill="none" stroke="black" d="M1483.44,-1404.59C1463.92,-1400.24 1445.26,-1391.93 1432,-1377 1272.6,-1197.46 1521.64,-476.525 1360,-299 1340.54,-277.632 1311.37,-268.701 1282.83,-265.804"/>
<polygon fill="none" stroke="black" points="1283.02,-262.308 1272.77,-265.02 1282.47,-269.287 1283.02,-262.308"/>
</g>
<!-- \\TestHttpSource -->
<g id="node16" class="node"><title>\\TestHttpSource</title>
<polygon fill="none" stroke="black" points="1631,-1854 1521,-1854 1521,-1818 1631,-1818 1631,-1854"/>
<text text-anchor="middle" x="1576" y="-1833.1" font-family="Courier,monospace" font-size="11.00">TestHttpSource</text>
</g>
<!-- \\TestHttpSource&#45;&gt;\\HttpSource -->
<g id="edge27" class="edge"><title>\\TestHttpSource&#45;&gt;\\HttpSource</title>
<path fill="none" stroke="black" d="M1520.31,-1836C1446.75,-1836 1318.1,-1836 1245.95,-1836"/>
<polygon fill="none" stroke="black" points="1245.72,-1832.5 1235.72,-1836 1245.72,-1839.5 1245.72,-1832.5"/>
</g>
<!-- \\TestHttpSourceConnection -->
<g id="node17" class="node"><title>\\TestHttpSourceConnection</title>
<polygon fill="none" stroke="black" points="1665,-1800 1487,-1800 1487,-1764 1665,-1764 1665,-1800"/>
<text text-anchor="middle" x="1576" y="-1779.1" font-family="Courier,monospace" font-size="11.00">TestHttpSourceConnection</text>
</g>
<!-- \\TestHttpSourceConnection&#45;&gt;\\HttpSourceConnection -->
<g id="edge29" class="edge"><title>\\TestHttpSourceConnection&#45;&gt;\\HttpSourceConnection</title>
<path fill="none" stroke="black" d="M1486.2,-1769.34C1423.69,-1760.52 1340.79,-1748.84 1279.1,-1740.14"/>
<polygon fill="none" stroke="black" points="1279.39,-1736.65 1269,-1738.72 1278.42,-1743.58 1279.39,-1736.65"/>
</g>
<!-- \\TestHttpSourceModel -->
<g id="node18" class="node"><title>\\TestHttpSourceModel</title>
<polygon fill="none" stroke="black" points="1648,-1638 1504,-1638 1504,-1602 1648,-1602 1648,-1638"/>
<text text-anchor="middle" x="1576" y="-1617.1" font-family="Courier,monospace" font-size="11.00">TestHttpSourceModel</text>
</g>
<!-- \\TestHttpSourceModel&#45;&gt;\\HttpSourceModel -->
<g id="edge31" class="edge"><title>\\TestHttpSourceModel&#45;&gt;\\HttpSourceModel</title>
<path fill="none" stroke="black" d="M1503.06,-1625.14C1433.8,-1630.02 1330.42,-1637.31 1262.37,-1642.11"/>
<polygon fill="none" stroke="black" points="1261.9,-1638.63 1252.18,-1642.83 1262.4,-1645.62 1261.9,-1638.63"/>
</g>
<!-- \\HttpSourceDocument -->
<g id="node19" class="node"><title>\\HttpSourceDocument</title>
<polygon fill="none" stroke="black" points="1645,-1746 1507,-1746 1507,-1710 1645,-1710 1645,-1746"/>
<text text-anchor="middle" x="1576" y="-1725.1" font-family="Courier,monospace" font-size="11.00">HttpSourceDocument</text>
</g>
<!-- \\HttpSourceDocument&#45;&gt;\\HttpSourceModel -->
<g id="edge33" class="edge"><title>\\HttpSourceDocument&#45;&gt;\\HttpSourceModel</title>
<path fill="none" stroke="black" d="M1506.68,-1715.54C1482.96,-1711.13 1456.29,-1706.02 1432,-1701 1374.63,-1689.15 1309.83,-1674.42 1262.19,-1663.34"/>
<polygon fill="none" stroke="black" points="1262.82,-1659.9 1252.29,-1661.04 1261.24,-1666.71 1262.82,-1659.9"/>
</g>
<!-- \\HttpSourceUser -->
<g id="node20" class="node"><title>\\HttpSourceUser</title>
<polygon fill="none" stroke="black" points="1631,-1314 1521,-1314 1521,-1278 1631,-1278 1631,-1314"/>
<text text-anchor="middle" x="1576" y="-1293.1" font-family="Courier,monospace" font-size="11.00">HttpSourceUser</text>
</g>
<!-- \\HttpSourceUser&#45;&gt;\\AppModel -->
<g id="edge35" class="edge"><title>\\HttpSourceUser&#45;&gt;\\AppModel</title>
<path fill="none" stroke="black" d="M1520.24,-1300.73C1489.66,-1300.06 1453.66,-1293.31 1432,-1269 1280.25,-1098.68 1522.97,-404.618 1360,-245 1326.91,-212.586 1026.71,-213.909 886.081,-216.363"/>
<polygon fill="none" stroke="black" points="885.764,-212.868 875.829,-216.549 885.891,-219.867 885.764,-212.868"/>
</g>
<!-- \\HttpSourceAppTest -->
<g id="node21" class="node"><title>\\HttpSourceAppTest</title>
<polygon fill="none" stroke="black" points="1259,-1962 1127,-1962 1127,-1926 1259,-1926 1259,-1962"/>
<text text-anchor="start" x="1159" y="-1949.43" font-family="Courier,monospace" font-size="11.00">«abstract»</text>
<text text-anchor="start" x="1135.5" y="-1936.23" font-family="Courier,monospace" font-size="11.00">HttpSourceAppTest</text>
</g>
<!-- \\CakeTestCase -->
<g id="node76" class="node"><title>\\CakeTestCase</title>
<ellipse fill="none" stroke="black" cx="1193" cy="-180" rx="82.0244" ry="18.3848"/>
<text text-anchor="middle" x="1193" y="-176.4" font-family="Times Roman,serif" font-size="14.00" fill="gray">\CakeTestCase</text>
</g>
<!-- \\HttpSourceAppTest&#45;&gt;\\CakeTestCase -->
<g id="edge37" class="edge"><title>\\HttpSourceAppTest&#45;&gt;\\CakeTestCase</title>
<path fill="none" stroke="black" d="M1259.31,-1952.77C1305.68,-1954.76 1364.72,-1948.06 1396,-1908 1424.27,-1871.79 1422.34,-291.642 1396,-254 1369.61,-216.293 1321.89,-197.732 1279.34,-188.626"/>
<polygon fill="none" stroke="black" points="1280,-185.188 1269.51,-186.665 1278.63,-192.052 1280,-185.188"/>
</g>
<!-- \\HttpSourceBasicsTest -->
<g id="node22" class="node"><title>\\HttpSourceBasicsTest</title>
<polygon fill="none" stroke="black" points="1652,-2070 1500,-2070 1500,-2034 1652,-2034 1652,-2070"/>
<text text-anchor="middle" x="1576" y="-2049.1" font-family="Courier,monospace" font-size="11.00">HttpSourceBasicsTest</text>
</g>
<!-- \\HttpSourceBasicsTest&#45;&gt;\\HttpSourceAppTest -->
<g id="edge39" class="edge"><title>\\HttpSourceBasicsTest&#45;&gt;\\HttpSourceAppTest</title>
<path fill="none" stroke="black" d="M1499.68,-2044.36C1477.24,-2040.36 1453.07,-2034.27 1432,-2025 1395.39,-2008.89 1396.81,-1986.65 1360,-1971 1331.71,-1958.98 1298.64,-1952.27 1269.43,-1948.55"/>
<polygon fill="none" stroke="black" points="1269.61,-1945.04 1259.27,-1947.35 1268.79,-1951.99 1269.61,-1945.04"/>
</g>
<!-- \\HttpSourceModelTest -->
<g id="node23" class="node"><title>\\HttpSourceModelTest</title>
<polygon fill="none" stroke="black" points="1648,-936 1504,-936 1504,-900 1648,-900 1648,-936"/>
<text text-anchor="middle" x="1576" y="-915.1" font-family="Courier,monospace" font-size="11.00">HttpSourceModelTest</text>
</g>
<!-- \\HttpSourceModelTest&#45;&gt;\\CakeTestCase -->
<g id="edge41" class="edge"><title>\\HttpSourceModelTest&#45;&gt;\\CakeTestCase</title>
<path fill="none" stroke="black" d="M1503.34,-921.343C1477.34,-918.613 1450.03,-910.529 1432,-891 1226.13,-668.035 1565.42,-435.373 1360,-212 1340.52,-190.813 1311.65,-181.124 1283.37,-177.246"/>
<polygon fill="none" stroke="black" points="1283.74,-173.766 1273.41,-176.108 1282.95,-180.721 1283.74,-173.766"/>
</g>
<!-- \\HttpSourceTestModel -->
<g id="node24" class="node"><title>\\HttpSourceTestModel</title>
<polygon fill="none" stroke="black" points="1648,-1692 1504,-1692 1504,-1656 1648,-1656 1648,-1692"/>
<text text-anchor="middle" x="1576" y="-1671.1" font-family="Courier,monospace" font-size="11.00">HttpSourceTestModel</text>
</g>
<!-- \\HttpSourceTestModel&#45;&gt;\\HttpSourceModel -->
<g id="edge43" class="edge"><title>\\HttpSourceTestModel&#45;&gt;\\HttpSourceModel</title>
<path fill="none" stroke="black" d="M1503.06,-1668.86C1433.8,-1663.98 1330.42,-1656.69 1262.37,-1651.89"/>
<polygon fill="none" stroke="black" points="1262.4,-1648.38 1252.18,-1651.17 1261.9,-1655.37 1262.4,-1648.38"/>
</g>
<!-- \\HttpSourceToDboAssociationTest -->
<g id="node25" class="node"><title>\\HttpSourceToDboAssociationTest</title>
<polygon fill="none" stroke="black" points="1685,-2016 1467,-2016 1467,-1980 1685,-1980 1685,-2016"/>
<text text-anchor="middle" x="1576" y="-1995.1" font-family="Courier,monospace" font-size="11.00">HttpSourceToDboAssociationTest</text>
</g>
<!-- \\HttpSourceToDboAssociationTest&#45;&gt;\\HttpSourceAppTest -->
<g id="edge45" class="edge"><title>\\HttpSourceToDboAssociationTest&#45;&gt;\\HttpSourceAppTest</title>
<path fill="none" stroke="black" d="M1466.25,-1982.53C1403.17,-1973.63 1325.52,-1962.68 1269.14,-1954.74"/>
<polygon fill="none" stroke="black" points="1269.61,-1951.27 1259.22,-1953.34 1268.64,-1958.2 1269.61,-1951.27"/>
</g>
<!-- \\HttpSourceConnectionTest -->
<g id="node26" class="node"><title>\\HttpSourceConnectionTest</title>
<polygon fill="none" stroke="black" points="1665,-882 1487,-882 1487,-846 1665,-846 1665,-882"/>
<text text-anchor="middle" x="1576" y="-861.1" font-family="Courier,monospace" font-size="11.00">HttpSourceConnectionTest</text>
</g>
<!-- \\HttpSourceConnectionTest&#45;&gt;\\CakeTestCase -->
<g id="edge47" class="edge"><title>\\HttpSourceConnectionTest&#45;&gt;\\CakeTestCase</title>
<path fill="none" stroke="black" d="M1486.19,-864.608C1465.86,-860.413 1446.13,-852.167 1432,-837 1241.39,-632.422 1550.2,-416.956 1360,-212 1340.42,-190.902 1311.53,-181.233 1283.26,-177.348"/>
<polygon fill="none" stroke="black" points="1283.64,-173.868 1273.3,-176.206 1282.84,-180.823 1283.64,-173.868"/>
</g>
<!-- \\HttpSourceTest -->
<g id="node27" class="node"><title>\\HttpSourceTest</title>
<polygon fill="none" stroke="black" points="1631,-828 1521,-828 1521,-792 1631,-792 1631,-828"/>
<text text-anchor="middle" x="1576" y="-807.1" font-family="Courier,monospace" font-size="11.00">HttpSourceTest</text>
</g>
<!-- \\HttpSourceTest&#45;&gt;\\CakeTestCase -->
<g id="edge49" class="edge"><title>\\HttpSourceTest&#45;&gt;\\CakeTestCase</title>
<path fill="none" stroke="black" d="M1520.38,-814.266C1490.04,-813.398 1454.23,-806.608 1432,-783 1256.63,-596.795 1535,-398.553 1360,-212 1340.48,-191.195 1311.91,-181.537 1283.89,-177.575"/>
<polygon fill="none" stroke="black" points="1283.95,-174.058 1273.61,-176.363 1283.13,-181.01 1283.95,-174.058"/>
</g>
<!-- \\HttpTestSource -->
<g id="node28" class="node"><title>\\HttpTestSource</title>
<polygon fill="none" stroke="black" points="1631,-1908 1521,-1908 1521,-1872 1631,-1872 1631,-1908"/>
<text text-anchor="middle" x="1576" y="-1887.1" font-family="Courier,monospace" font-size="11.00">HttpTestSource</text>
</g>
<!-- \\HttpTestSource&#45;&gt;\\HttpSource -->
<g id="edge51" class="edge"><title>\\HttpTestSource&#45;&gt;\\HttpSource</title>
<path fill="none" stroke="black" d="M1520.31,-1882.15C1446.75,-1871.78 1318.1,-1853.64 1245.95,-1843.46"/>
<polygon fill="none" stroke="black" points="1246.11,-1839.95 1235.72,-1842.02 1245.14,-1846.89 1246.11,-1839.95"/>
</g>
<!-- \\HttpSourceEndpointItemTest -->
<g id="node29" class="node"><title>\\HttpSourceEndpointItemTest</title>
<polygon fill="none" stroke="black" points="1672,-774 1480,-774 1480,-738 1672,-738 1672,-774"/>
<text text-anchor="middle" x="1576" y="-753.1" font-family="Courier,monospace" font-size="11.00">HttpSourceEndpointItemTest</text>
</g>
<!-- \\HttpSourceEndpointItemTest&#45;&gt;\\CakeTestCase -->
<g id="edge53" class="edge"><title>\\HttpSourceEndpointItemTest&#45;&gt;\\CakeTestCase</title>
<path fill="none" stroke="black" d="M1479.73,-754.836C1461.8,-750.293 1444.73,-742.342 1432,-729 1271.85,-561.147 1519.81,-380.171 1360,-212 1340.35,-191.321 1311.74,-181.695 1283.73,-177.722"/>
<polygon fill="none" stroke="black" points="1283.8,-174.206 1273.46,-176.505 1282.98,-181.157 1283.8,-174.206"/>
</g>
<!-- \\HttpSourceEndpointItemiAmExistsANDValid -->
<g id="node30" class="node"><title>\\HttpSourceEndpointItemiAmExistsANDValid</title>
<polygon fill="none" stroke="black" points="954,-1908 674,-1908 674,-1872 954,-1872 954,-1908"/>
<text text-anchor="middle" x="814" y="-1887.1" font-family="Courier,monospace" font-size="11.00">HttpSourceEndpointItemiAmExistsANDValid</text>
</g>
<!-- \\HttpSourceEndpointItemiAmExistsANDValid&#45;&gt;\\HttpSourceEndpointItem -->
<g id="edge55" class="edge"><title>\\HttpSourceEndpointItemiAmExistsANDValid&#45;&gt;\\HttpSourceEndpointItem</title>
<path fill="none" stroke="black" d="M690.872,-1908.02C641.081,-1915.31 584.561,-1923.58 538.276,-1930.35"/>
<polygon fill="none" stroke="black" points="537.647,-1926.9 528.26,-1931.82 538.661,-1933.83 537.647,-1926.9"/>
</g>
<!-- \\HttpSourceConfigFactoryItemTest -->
<g id="node31" class="node"><title>\\HttpSourceConfigFactoryItemTest</title>
<polygon fill="none" stroke="black" points="1689,-720 1463,-720 1463,-684 1689,-684 1689,-720"/>
<text text-anchor="middle" x="1576" y="-699.1" font-family="Courier,monospace" font-size="11.00">HttpSourceConfigFactoryItemTest</text>
</g>
<!-- \\HttpSourceConfigFactoryItemTest&#45;&gt;\\CakeTestCase -->
<g id="edge57" class="edge"><title>\\HttpSourceConfigFactoryItemTest&#45;&gt;\\CakeTestCase</title>
<path fill="none" stroke="black" d="M1462.82,-695.142C1451.3,-690.461 1440.68,-683.949 1432,-675 1287.05,-525.474 1504.65,-361.814 1360,-212 1340.28,-191.573 1311.8,-181.978 1283.93,-177.96"/>
<polygon fill="none" stroke="black" points="1284.05,-174.45 1273.71,-176.722 1283.21,-181.399 1284.05,-174.45"/>
</g>
<!-- \\HttpSourceConfigFactoryItemiAmExistsANDValid -->
<g id="node32" class="node"><title>\\HttpSourceConfigFactoryItemiAmExistsANDValid</title>
<polygon fill="none" stroke="black" points="602,-2124 288,-2124 288,-2088 602,-2088 602,-2124"/>
<text text-anchor="middle" x="445" y="-2103.1" font-family="Courier,monospace" font-size="11.00">HttpSourceConfigFactoryItemiAmExistsANDValid</text>
</g>
<!-- \\HttpSourceConfigFactoryItemiAmExistsANDValid&#45;&gt;\\HttpSourceConfigFactoryItem -->
<g id="edge59" class="edge"><title>\\HttpSourceConfigFactoryItemiAmExistsANDValid&#45;&gt;\\HttpSourceConfigFactoryItem</title>
<path fill="none" stroke="black" d="M329.315,-2087.92C315.337,-2085.2 301.307,-2082.22 288,-2079 250.643,-2069.97 209.55,-2057.17 176.899,-2046.31"/>
<polygon fill="none" stroke="black" points="177.645,-2042.87 167.051,-2043 175.418,-2049.5 177.645,-2042.87"/>
</g>
<!-- \\HttpSourceConditionTest -->
<g id="node33" class="node"><title>\\HttpSourceConditionTest</title>
<polygon fill="none" stroke="black" points="1662,-666 1490,-666 1490,-630 1662,-630 1662,-666"/>
<text text-anchor="middle" x="1576" y="-645.1" font-family="Courier,monospace" font-size="11.00">HttpSourceConditionTest</text>
</g>
<!-- \\HttpSourceConditionTest&#45;&gt;\\CakeTestCase -->
<g id="edge61" class="edge"><title>\\HttpSourceConditionTest&#45;&gt;\\CakeTestCase</title>
<path fill="none" stroke="black" d="M1489.81,-648.6C1468.43,-644.609 1447.29,-636.463 1432,-621 1302.21,-489.765 1489.53,-343.492 1360,-212 1340.17,-191.865 1311.81,-182.314 1284.08,-178.248"/>
<polygon fill="none" stroke="black" points="1284.26,-174.744 1273.91,-176.989 1283.4,-181.691 1284.26,-174.744"/>
</g>
<!-- \\HttpSourceEndpointTest -->
<g id="node34" class="node"><title>\\HttpSourceEndpointTest</title>
<polygon fill="none" stroke="black" points="1658,-612 1494,-612 1494,-576 1658,-576 1658,-612"/>
<text text-anchor="middle" x="1576" y="-591.1" font-family="Courier,monospace" font-size="11.00">HttpSourceEndpointTest</text>
</g>
<!-- \\HttpSourceEndpointTest&#45;&gt;\\CakeTestCase -->
<g id="edge63" class="edge"><title>\\HttpSourceEndpointTest&#45;&gt;\\CakeTestCase</title>
<path fill="none" stroke="black" d="M1493.45,-594.932C1470.94,-591.174 1448.31,-583.067 1432,-567 1317.33,-454.006 1474.45,-325.222 1360,-212 1340.09,-192.308 1312.01,-182.815 1284.55,-178.667"/>
<polygon fill="none" stroke="black" points="1284.84,-175.175 1274.47,-177.371 1283.95,-182.118 1284.84,-175.175"/>
</g>
<!-- \\HttpSourceConfigTest -->
<g id="node35" class="node"><title>\\HttpSourceConfigTest</title>
<polygon fill="none" stroke="black" points="1652,-1260 1500,-1260 1500,-1224 1652,-1224 1652,-1260"/>
<text text-anchor="middle" x="1576" y="-1239.1" font-family="Courier,monospace" font-size="11.00">HttpSourceConfigTest</text>
</g>
<!-- \\HttpSourceConfigTest&#45;&gt;\\CakeTestCase -->
<g id="edge65" class="edge"><title>\\HttpSourceConfigTest&#45;&gt;\\CakeTestCase</title>
<path fill="none" stroke="black" d="M1499.99,-1245.33C1474.87,-1242.33 1449.02,-1234.07 1432,-1215 1283.22,-1048.27 1508.45,-379.029 1360,-212 1340.7,-190.288 1311.57,-180.539 1283.01,-176.765"/>
<polygon fill="none" stroke="black" points="1283.27,-173.272 1272.95,-175.669 1282.51,-180.231 1283.27,-173.272"/>
</g>
<!-- \\HttpSourceConfigFactoryTest -->
<g id="node36" class="node"><title>\\HttpSourceConfigFactoryTest</title>
<polygon fill="none" stroke="black" points="1675,-1206 1477,-1206 1477,-1170 1675,-1170 1675,-1206"/>
<text text-anchor="middle" x="1576" y="-1185.1" font-family="Courier,monospace" font-size="11.00">HttpSourceConfigFactoryTest</text>
</g>
<!-- \\HttpSourceConfigFactoryTest&#45;&gt;\\CakeTestCase -->
<g id="edge67" class="edge"><title>\\HttpSourceConfigFactoryTest&#45;&gt;\\CakeTestCase</title>
<path fill="none" stroke="black" d="M1476.49,-1186.75C1459.57,-1182.06 1443.71,-1174.07 1432,-1161 1290.87,-1003.48 1500.82,-369.798 1360,-212 1340.66,-190.327 1311.51,-180.588 1282.96,-176.809"/>
<polygon fill="none" stroke="black" points="1283.22,-173.317 1272.9,-175.712 1282.46,-180.276 1283.22,-173.317"/>
</g>
<!-- \\HttpSourceConfigFactoryiAmExists -->
<g id="node37" class="node"><title>\\HttpSourceConfigFactoryiAmExists</title>
<polygon fill="none" stroke="black" points="1692,-990 1460,-990 1460,-954 1692,-954 1692,-990"/>
<text text-anchor="middle" x="1576" y="-969.1" font-family="Courier,monospace" font-size="11.00">HttpSourceConfigFactoryiAmExists</text>
</g>
<!-- \\HttpSourceConfigFactoryiAmExistsANDValid -->
<g id="node38" class="node"><title>\\HttpSourceConfigFactoryiAmExistsANDValid</title>
<polygon fill="none" stroke="black" points="1719,-1962 1433,-1962 1433,-1926 1719,-1926 1719,-1962"/>
<text text-anchor="middle" x="1576" y="-1941.1" font-family="Courier,monospace" font-size="11.00">HttpSourceConfigFactoryiAmExistsANDValid</text>
</g>
<!-- \\HttpSourceConfigFactoryiAmExistsANDValid&#45;&gt;\\HttpSourceConfigFactory -->
<g id="edge69" class="edge"><title>\\HttpSourceConfigFactoryiAmExistsANDValid&#45;&gt;\\HttpSourceConfigFactory</title>
<path fill="none" stroke="black" d="M1448.2,-1925.98C1396.31,-1918.67 1337.38,-1910.36 1289.23,-1903.57"/>
<polygon fill="none" stroke="black" points="1289.52,-1900.07 1279.13,-1902.14 1288.54,-1907 1289.52,-1900.07"/>
</g>
<!-- \\HttpSourceConfigiAmExistsANDValid -->
<g id="node39" class="node"><title>\\HttpSourceConfigiAmExistsANDValid</title>
<polygon fill="none" stroke="black" points="933,-2124 695,-2124 695,-2088 933,-2088 933,-2124"/>
<text text-anchor="middle" x="814" y="-2103.1" font-family="Courier,monospace" font-size="11.00">HttpSourceConfigiAmExistsANDValid</text>
</g>
<!-- \\HttpSourceConfigiAmExistsANDValid&#45;&gt;\\HttpSourceConfig -->
<g id="edge71" class="edge"><title>\\HttpSourceConfigiAmExistsANDValid&#45;&gt;\\HttpSourceConfig</title>
<path fill="none" stroke="black" d="M694.451,-2088.51C636.257,-2079.99 568.18,-2070.03 517.859,-2062.66"/>
<polygon fill="none" stroke="black" points="518.122,-2059.16 507.721,-2061.18 517.109,-2066.09 518.122,-2059.16"/>
</g>
<!-- \\HttpSourceEndpointiAmExistsANDValid -->
<g id="node40" class="node"><title>\\HttpSourceEndpointiAmExistsANDValid</title>
<polygon fill="none" stroke="black" points="940,-2070 688,-2070 688,-2034 940,-2034 940,-2070"/>
<text text-anchor="middle" x="814" y="-2049.1" font-family="Courier,monospace" font-size="11.00">HttpSourceEndpointiAmExistsANDValid</text>
</g>
<!-- \\HttpSourceEndpointiAmExistsANDValid&#45;&gt;\\HttpSourceEndpoint -->
<g id="edge73" class="edge"><title>\\HttpSourceEndpointiAmExistsANDValid&#45;&gt;\\HttpSourceEndpoint</title>
<path fill="none" stroke="black" d="M690.872,-2033.98C635.89,-2025.94 572.701,-2016.69 524.151,-2009.58"/>
<polygon fill="none" stroke="black" points="524.422,-2006.09 514.021,-2008.1 523.409,-2013.01 524.422,-2006.09"/>
</g>
<!-- \\HttpSourceConditioniAmExistsANDValid -->
<g id="node41" class="node"><title>\\HttpSourceConditioniAmExistsANDValid</title>
<polygon fill="none" stroke="black" points="1706,-2124 1446,-2124 1446,-2088 1706,-2088 1706,-2124"/>
<text text-anchor="middle" x="1576" y="-2103.1" font-family="Courier,monospace" font-size="11.00">HttpSourceConditioniAmExistsANDValid</text>
</g>
<!-- \\HttpSourceConditioniAmExistsANDValid&#45;&gt;\\HttpSourceCondition -->
<g id="edge75" class="edge"><title>\\HttpSourceConditioniAmExistsANDValid&#45;&gt;\\HttpSourceCondition</title>
<path fill="none" stroke="black" d="M1445.8,-2106C1389.5,-2106 1325.3,-2106 1275.68,-2106"/>
<polygon fill="none" stroke="black" points="1275.64,-2102.5 1265.64,-2106 1275.64,-2109.5 1275.64,-2102.5"/>
</g>
<!-- \\HttpSourceFieldiAmExistsANDValid -->
<g id="node42" class="node"><title>\\HttpSourceFieldiAmExistsANDValid</title>
<polygon fill="none" stroke="black" points="1309,-2070 1077,-2070 1077,-2034 1309,-2034 1309,-2070"/>
<text text-anchor="middle" x="1193" y="-2049.1" font-family="Courier,monospace" font-size="11.00">HttpSourceFieldiAmExistsANDValid</text>
</g>
<!-- \\HttpSourceFieldiAmExistsANDValid&#45;&gt;\\HttpSourceField -->
<g id="edge77" class="edge"><title>\\HttpSourceFieldiAmExistsANDValid&#45;&gt;\\HttpSourceField</title>
<path fill="none" stroke="black" d="M1076.45,-2035.39C1013.2,-2026.38 937.147,-2015.55 883.231,-2007.86"/>
<polygon fill="none" stroke="black" points="883.486,-2004.37 873.092,-2006.42 882.498,-2011.3 883.486,-2004.37"/>
</g>
<!-- \\HttpSourceResultiAmExistsANDValid -->
<g id="node43" class="node"><title>\\HttpSourceResultiAmExistsANDValid</title>
<polygon fill="none" stroke="black" points="1312,-2016 1074,-2016 1074,-1980 1312,-1980 1312,-2016"/>
<text text-anchor="middle" x="1193" y="-1995.1" font-family="Courier,monospace" font-size="11.00">HttpSourceResultiAmExistsANDValid</text>
</g>
<!-- \\HttpSourceResultiAmExistsANDValid&#45;&gt;\\HttpSourceResult -->
<g id="edge79" class="edge"><title>\\HttpSourceResultiAmExistsANDValid&#45;&gt;\\HttpSourceResult</title>
<path fill="none" stroke="black" d="M1073.34,-1980.95C1012,-1972.21 939.31,-1961.85 886.517,-1954.33"/>
<polygon fill="none" stroke="black" points="886.959,-1950.86 876.565,-1952.91 885.972,-1957.79 886.959,-1950.86"/>
</g>
<!-- \\HttpSourceFieldTest -->
<g id="node44" class="node"><title>\\HttpSourceFieldTest</title>
<polygon fill="none" stroke="black" points="1648,-1098 1504,-1098 1504,-1062 1648,-1062 1648,-1098"/>
<text text-anchor="middle" x="1576" y="-1077.1" font-family="Courier,monospace" font-size="11.00">HttpSourceFieldTest</text>
</g>
<!-- \\HttpSourceFieldTest&#45;&gt;\\CakeTestCase -->
<g id="edge81" class="edge"><title>\\HttpSourceFieldTest&#45;&gt;\\CakeTestCase</title>
<path fill="none" stroke="black" d="M1503.13,-1083.53C1477.1,-1080.83 1449.83,-1072.71 1432,-1053 1306.16,-913.907 1485.57,-351.343 1360,-212 1340.55,-190.421 1311.39,-180.703 1282.84,-176.916"/>
<polygon fill="none" stroke="black" points="1283.11,-173.425 1272.79,-175.814 1282.34,-180.383 1283.11,-173.425"/>
</g>
<!-- \\HttpSourceResultTest -->
<g id="node45" class="node"><title>\\HttpSourceResultTest</title>
<polygon fill="none" stroke="black" points="1652,-1044 1500,-1044 1500,-1008 1652,-1008 1652,-1044"/>
<text text-anchor="middle" x="1576" y="-1023.1" font-family="Courier,monospace" font-size="11.00">HttpSourceResultTest</text>
</g>
<!-- \\HttpSourceResultTest&#45;&gt;\\CakeTestCase -->
<g id="edge83" class="edge"><title>\\HttpSourceResultTest&#45;&gt;\\CakeTestCase</title>
<path fill="none" stroke="black" d="M1499.82,-1029.1C1474.84,-1026.05 1449.12,-1017.81 1432,-999 1313.8,-869.114 1477.94,-342.12 1360,-212 1340.58,-190.576 1311.57,-180.861 1283.16,-177.033"/>
<polygon fill="none" stroke="black" points="1283.47,-173.546 1273.15,-175.914 1282.7,-180.503 1283.47,-173.546"/>
</g>
<!-- \\AllHttpSourceTest -->
<g id="node46" class="node"><title>\\AllHttpSourceTest</title>
<polygon fill="none" stroke="black" points="1641,-558 1511,-558 1511,-522 1641,-522 1641,-558"/>
<text text-anchor="middle" x="1576" y="-537.1" font-family="Courier,monospace" font-size="11.00">AllHttpSourceTest</text>
</g>
<!-- \\PHPUnit_Framework_TestSuite -->
<g id="node101" class="node"><title>\\PHPUnit_Framework_TestSuite</title>
<ellipse fill="none" stroke="black" cx="1193" cy="-126" rx="166.877" ry="18.3848"/>
<text text-anchor="middle" x="1193" y="-122.4" font-family="Times Roman,serif" font-size="14.00" fill="gray">\PHPUnit_Framework_TestSuite</text>
</g>
<!-- \\AllHttpSourceTest&#45;&gt;\\PHPUnit_Framework_TestSuite -->
<g id="edge85" class="edge"><title>\\AllHttpSourceTest&#45;&gt;\\PHPUnit_Framework_TestSuite</title>
<path fill="none" stroke="black" d="M1510.17,-543.018C1482.63,-540.761 1452.36,-533.112 1432,-513 1315.93,-398.319 1477.5,-266.217 1360,-153 1355.03,-148.208 1349.56,-144.068 1343.73,-140.502"/>
<polygon fill="none" stroke="black" points="1345.39,-137.422 1334.94,-135.677 1342.02,-143.558 1345.39,-137.422"/>
</g>
<!-- \\HttpSourceControllerTest -->
<g id="node47" class="node"><title>\\HttpSourceControllerTest</title>
<polygon fill="none" stroke="black" points="1665,-504 1487,-504 1487,-468 1665,-468 1665,-504"/>
<text text-anchor="middle" x="1576" y="-483.1" font-family="Courier,monospace" font-size="11.00">HttpSourceControllerTest</text>
</g>
<!-- \\ControllerTestCase -->
<g id="node103" class="node"><title>\\ControllerTestCase</title>
<ellipse fill="none" stroke="black" cx="1193" cy="-72" rx="106.773" ry="18.3848"/>
<text text-anchor="middle" x="1193" y="-68.4" font-family="Times Roman,serif" font-size="14.00" fill="gray">\ControllerTestCase</text>
</g>
<!-- \\HttpSourceControllerTest&#45;&gt;\\ControllerTestCase -->
<g id="edge87" class="edge"><title>\\HttpSourceControllerTest&#45;&gt;\\ControllerTestCase</title>
<path fill="none" stroke="black" d="M1486.3,-485.621C1466.21,-481.401 1446.57,-473.391 1432,-459 1315.93,-344.319 1477.5,-212.217 1360,-99 1346.04,-85.551 1328.18,-77.2418 1309.36,-72.3161"/>
<polygon fill="none" stroke="black" points="1309.97,-68.8662 1299.44,-70.0395 1308.41,-75.6887 1309.97,-68.8662"/>
</g>
<!-- \\HttpSourceUtilityTest -->
<g id="node48" class="node"><title>\\HttpSourceUtilityTest</title>
<polygon fill="none" stroke="black" points="1655,-1152 1497,-1152 1497,-1116 1655,-1116 1655,-1152"/>
<text text-anchor="middle" x="1576" y="-1131.1" font-family="Courier,monospace" font-size="11.00">HttpSourceUtilityTest</text>
</g>
<!-- \\HttpSourceUtilityTest&#45;&gt;\\CakeTestCase -->
<g id="edge89" class="edge"><title>\\HttpSourceUtilityTest&#45;&gt;\\CakeTestCase</title>
<path fill="none" stroke="black" d="M1496.71,-1136.81C1472.67,-1133.48 1448.34,-1125.15 1432,-1107 1298.51,-958.696 1493.19,-360.569 1360,-212 1340.61,-190.371 1311.45,-180.642 1282.9,-176.859"/>
<polygon fill="none" stroke="black" points="1283.17,-173.368 1272.85,-175.76 1282.41,-180.326 1283.17,-173.368"/>
</g>
<!-- \\HttpSourceUsersDocumentFixture -->
<g id="node49" class="node"><title>\\HttpSourceUsersDocumentFixture</title>
<polygon fill="none" stroke="black" points="1685,-1476 1467,-1476 1467,-1440 1685,-1440 1685,-1476"/>
<text text-anchor="middle" x="1576" y="-1455.1" font-family="Courier,monospace" font-size="11.00">HttpSourceUsersDocumentFixture</text>
</g>
<!-- \\HttpSourceUsersDocumentFixture&#45;&gt;\\CakeTestFixture -->
<g id="edge91" class="edge"><title>\\HttpSourceUsersDocumentFixture&#45;&gt;\\CakeTestFixture</title>
<path fill="none" stroke="black" d="M1466.26,-1453.55C1453.23,-1448.68 1441.29,-1441.46 1432,-1431 1271.89,-1250.61 1524.96,-523.971 1360,-348 1340.05,-326.72 1310.3,-318.682 1281.41,-316.799"/>
<polygon fill="none" stroke="black" points="1281.38,-313.294 1271.24,-316.377 1281.09,-320.288 1281.38,-313.294"/>
</g>
<!-- \\HttpSourceUserFixture -->
<g id="node50" class="node"><title>\\HttpSourceUserFixture</title>
<polygon fill="none" stroke="black" points="1655,-1584 1497,-1584 1497,-1548 1655,-1548 1655,-1584"/>
<text text-anchor="middle" x="1576" y="-1563.1" font-family="Courier,monospace" font-size="11.00">HttpSourceUserFixture</text>
</g>
<!-- \\HttpSourceUserFixture&#45;&gt;\\CakeTestFixture -->
<g id="edge93" class="edge"><title>\\HttpSourceUserFixture&#45;&gt;\\CakeTestFixture</title>
<path fill="none" stroke="black" d="M1496.87,-1569.05C1472.7,-1565.77 1448.24,-1557.41 1432,-1539 1256.58,-1340.17 1540.76,-541.99 1360,-348 1340.12,-326.66 1310.38,-318.609 1281.48,-316.732"/>
<polygon fill="none" stroke="black" points="1281.45,-313.228 1271.31,-316.313 1281.16,-320.222 1281.45,-313.228"/>
</g>
<!-- \\HttpSourceController -->
<g id="node51" class="node"><title>\\HttpSourceController</title>
<polygon fill="none" stroke="black" points="1652,-450 1500,-450 1500,-414 1652,-414 1652,-450"/>
<text text-anchor="middle" x="1576" y="-429.1" font-family="Courier,monospace" font-size="11.00">HttpSourceController</text>
</g>
<!-- \\AppController -->
<g id="node108" class="node"><title>\\AppController</title>
<ellipse fill="none" stroke="black" cx="1193" cy="-18" rx="82.0244" ry="18.3848"/>
<text text-anchor="middle" x="1193" y="-14.4" font-family="Times Roman,serif" font-size="14.00" fill="gray">\AppController</text>
</g>
<!-- \\HttpSourceController&#45;&gt;\\AppController -->
<g id="edge95" class="edge"><title>\\HttpSourceController&#45;&gt;\\AppController</title>
<path fill="none" stroke="black" d="M1499.79,-433.911C1475.25,-430.664 1449.82,-422.609 1432,-405 1315.93,-290.319 1477.5,-158.217 1360,-45 1339.19,-24.9478 1309.7,-16.3215 1281.29,-13.3001"/>
<polygon fill="none" stroke="black" points="1281.56,-9.81045 1271.3,-12.4556 1280.97,-16.7856 1281.56,-9.81045"/>
</g>
<!-- \\HttpSourceUtility -->
<g id="node52" class="node"><title>\\HttpSourceUtility</title>
<polygon fill="none" stroke="black" points="1641,-396 1511,-396 1511,-360 1641,-360 1641,-396"/>
<text text-anchor="middle" x="1576" y="-375.1" font-family="Courier,monospace" font-size="11.00">HttpSourceUtility</text>
</g>
</g>
</svg>
